<?xml version="1.0" encoding="UTF-8"?>
<!DOCTYPE svg PUBLIC "-//W3C//DTD SVG 1.1//EN" "http://www.w3.org/Graphics/SVG/1.1/DTD/svg11.dtd">
<!-- Creator: CorelDRAW -->
<svg xmlns="http://www.w3.org/2000/svg" xml:space="preserve" width="100%" height="100%" version="1.1" style="shape-rendering:geometricPrecision; text-rendering:geometricPrecision; image-rendering:optimizeQuality; fill-rule:evenodd; clip-rule:evenodd"
viewBox="0 0 2019.45 2006.37"
 xmlns:xlink="http://www.w3.org/1999/xlink"
 xmlns:xodm="http://www.corel.com/coreldraw/odm/2003">
 <defs>
  <style type="text/css">
   <![CDATA[
    .fil0 {fill:#003399}
   ]]>
  </style>
 </defs>
 <g id="Layer_x0020_1">
  <metadata id="CorelCorpID_0Corel-Layer"/>
  <path class="fil0" d="M573.34 1962.51l-0.97 -39.67c40,-20.22 793.93,-20.61 876.31,-5.04l0 49.18c-83.67,16.32 -830.62,17.25 -875.34,-4.47zm208.85 -86.17c-179.98,0.59 -157.83,18.2 -161.18,-46.09 3.09,-1.72 7.49,-3.11 9.93,-3.76l84.52 -7.37c184.72,3.72 559.57,-9.51 685.83,1.38l-1.7 49.43c-45.13,14.78 -505.6,6.04 -617.4,6.41zm370.43 -152.17c305.18,-1.28 145.54,57.11 119.05,57.11l-573.93 0 -0.05 -57.8 454.93 0.68zm-298.37 -33.74c0,-160.48 -30.17,-384.1 165.21,-373.72 188.39,10 147.27,243.06 147.27,373.53l-312.48 0.2zm-266.8 102.18c-6.9,168.18 -62.82,13.96 -44.41,213.75l937.7 -7.08c2.82,-143.54 3.33,-104.44 -43.39,-129.34l-2.68 -84.44 -73.6 -5.04 -15.24 -89.68 -145.66 -0.44c0,-79.23 12.15,-223.31 -14.74,-289.37 -67.37,-165.51 -295.33,-151.02 -351.6,4.39 -21.31,58.85 -11.88,209.07 -11.88,281.43 -181.07,17.25 -148.28,-31.7 -160.64,93.26l-73.85 12.54z"/>
  <path class="fil0" d="M1007.1 350.83c81.13,25.85 222.83,158.57 269.33,174.16l-528.86 3.65c49.86,-47.01 197.24,-145.55 259.53,-177.81zm24.02 -291.2l180.74 -0.28 1.32 124 -185.02 -1.31 2.96 -122.41zm-0.89 157.54l215.41 -3.74 -0.69 -183.93c-52.09,-5.17 -94.96,-2.57 -146.48,-3 -107.73,-0.89 -42.21,-14.59 -96.88,-26.49 -21.35,77.14 -7.3,211.27 -7.3,296.17 -9.06,43.22 -292.43,214.64 -331.98,236.65l14.07 88.16c30.41,-19.79 1.79,4.24 29.11,-40.54l615.65 -14.7c15.59,174.29 -31.88,1015.6 16.66,1091.06 29.57,-30.78 20.27,-76.26 19.72,-130.64 -1.67,-164.74 12.14,-962.64 -5.9,-991.94 -36.65,-59.55 -290.61,-158.37 -324.83,-238.07l3.43 -78.99z"/>
  <path class="fil0" d="M621.87 813.05l-580.61 -4.37 -0.88 -121.4 581.04 -1.36 8.22 -25.81c-84.81,-16.49 -553.22,-15.31 -613.55,7.26 -23.49,78.29 -28.61,148.83 36.19,180.89 0,177.45 0,354.91 0,532.36 0,634.7 -74.37,530.29 360.05,531.74l74.82 -6.87c2.6,-0.67 8.11,-0.15 9.93,-4.3 1.78,-4.09 6.5,-2.91 9.5,-4.8l-54.34 -19c-7.94,-0.88 -43.06,0.09 -53.37,0.22 -60.25,0.73 -281.04,10.39 -301.68,-9.74 -27.16,-26.49 -11.3,-908.33 -11.3,-1015.07 80.01,-14.1 213.68,-5.49 299.77,-5.38 98.98,0.13 276.7,22.29 236.22,-34.36z"/>
  <path class="fil0" d="M1396.99 685.73c527.47,17.22 613.44,-69.63 581.08,122.46l-577.98 1.5c-8,18.81 -12.53,3.7 -3.22,37.07l539.47 0.37c0,158.02 18.04,941.01 -9.63,1029.19 -84.79,4.92 -364.7,-22.96 -411.54,20.06 39.69,30.03 389.02,24.93 432.57,2.11 13.05,-13.93 6.99,12.74 19.06,-32.24l1.89 -935.97c-0.93,-144.24 12.47,-50.22 41.78,-121.98 17.83,-43.65 5.19,-112.35 -4.65,-153.07l-588.65 -1.28c-29.75,13.78 -24.18,4.83 -20.19,31.78z"/>
  <path class="fil0" d="M1673.46 1379.33l151.55 1.9 -1.12 119.36 -151.34 -3.17 0.91 -118.09zm-188.69 -0.96l151.96 4.71 -0.82 116.58 -152.34 -0.54 1.21 -120.75zm364.65 -31.58c-86.49,-5.03 -173.79,-2.04 -260.36,-2.07 -135.54,-0.04 -141.34,-30.28 -140.82,102.36 0.48,122.32 24.77,87.3 154.1,87.67 80.09,0.23 166.62,2.74 246.12,-2.15 19.28,-52.86 18.32,-131.89 0.96,-185.82z"/>
  <path class="fil0" d="M1672.15 1033.97l153.49 2.11 -1.21 118.11 -50.06 2.02 -52.98 0.68 -48.8 -4.08 -0.44 -118.84zm-189.07 -0.97l154.14 4.97 -0.82 115.15 -47.24 3.09 -52.93 0.37 -52.59 -2.22 -0.56 -121.36zm368.28 -31.76c-99.18,-5.27 -202.69,-1.17 -302.57,-2.43 -104.42,-1.32 -107.34,-28.14 -97.93,177.67 68.31,28.94 319.15,14.52 409.37,11.01l-8.88 -186.26z"/>
  <path class="fil0" d="M386.18 1378.44l151.86 5.58 -0.69 115.44 -152.28 -0.72 1.11 -120.3zm-188.12 0.27l151.81 -0.33 -1.57 122.18 -152.34 3.3 2.1 -125.14zm365.61 -30.33c-78.18,-8.98 -177.37,-3.56 -257.73,-3.54 -139.65,0.04 -145.44,-33.4 -144.72,102.34 0.34,64.7 -13.57,80.54 39.32,88.46l362.45 -4.36c16.74,-52.38 15.96,-129.68 0.68,-182.89z"/>
  <path class="fil0" d="M384.48 1033.04l154.01 5.93 -0.77 113.54 -46.52 3.7 -52.93 0.45 -53.24 -2.69 -0.54 -120.93zm-188.51 0.24l154.57 -0.33 0.29 69.95 -1.71 53.45 -152.46 -0.94 -0.69 -122.13zm-24 -25.36c-16.39,40.82 -10.13,118.58 -7.87,180.39l408.76 -4.24 -7.61 -180.83c-81.86,-9.88 -332.76,-18.15 -393.28,4.68z"/>
  <path class="fil0" d="M1124.47 878.06c-64.45,149.02 -297.07,53.65 -223.72,-107.04 63.45,-139.02 288.98,-43.85 223.72,107.04zm-262.31 0c63.59,190.87 358.43,105.16 298.94,-100.09 -55.29,-190.76 -367.19,-104.78 -298.94,100.09z"/>
  <path class="fil0" d="M676.39 878.49c-22.39,46.17 -23.22,735.14 0,777.95 33.9,-19.64 22.26,-22.22 21.99,-76.51l-0.65 -529.94c0.05,-125.46 17.83,-147.42 -21.34,-171.5z"/>
  <path class="fil0" d="M996.48 837.34c121.35,15.2 75.45,-2.5 89.87,-18.63l-55.39 -7.43c-5.38,-51.99 9.22,-55.52 -23.87,-74.98 -21.35,35.78 -11.89,55.6 -10.62,101.05z"/>
  <path class="fil0" d="M672.32 811.33c31.3,-17.52 29.39,-4.07 27.5,-65.6 -1.85,-60.33 2.65,-37.01 -23.43,-56.02 -18.16,38.17 -16.15,83.56 -4.07,121.62z"/>
 </g>
</svg>
