<?xml version="1.0" encoding="UTF-8"?>
<!DOCTYPE svg PUBLIC "-//W3C//DTD SVG 1.1//EN" "http://www.w3.org/Graphics/SVG/1.1/DTD/svg11.dtd">
<!-- Creator: CorelDRAW -->
<svg xmlns="http://www.w3.org/2000/svg" xml:space="preserve" width="100%" height="100%" version="1.1" style="shape-rendering:geometricPrecision; text-rendering:geometricPrecision; image-rendering:optimizeQuality; fill-rule:evenodd; clip-rule:evenodd"
viewBox="0 0 1392.61 1043.84"
 xmlns:xlink="http://www.w3.org/1999/xlink"
 xmlns:xodm="http://www.corel.com/coreldraw/odm/2003">
 <defs>
  <style type="text/css">
   <![CDATA[
    .fil0 {fill:#404E57}
    .fil1 {fill:#63B4F5}
    .fil2 {fill:#FEC828}
    .fil3 {fill:#FEFEFE}
   ]]>
  </style>
 </defs>
 <g id="Layer_x0020_1">
  <metadata id="CorelCorpID_0Corel-Layer"/>
  <path class="fil0" d="M276.38 888.5c-27.44,-105.02 26.44,-112.09 124.7,-111.34 134.93,1.04 683.79,-11.36 734.04,6.81 -3.6,55.51 0.54,46.07 -65.09,45.96 -124.94,-0.21 -658.15,-15.43 -697.48,9.63 24.22,30.98 129.66,16.86 184.59,16.86l411.46 -0c166.74,-0.12 157.15,-19.65 167.93,38.73 -27.57,19.58 -62.41,14.27 -101.02,13.79 -160.88,-1.98 -680.06,19.35 -759.13,-20.43zm868.89 -141.65c-173.9,10.41 -539.38,2.75 -743.93,1.58 -91.34,-0.52 -161.33,0.94 -163.11,91.5 -2.87,146.72 274.73,96.79 396.75,96.79 165.03,0 349.57,-7.7 512.22,1.88l25.66 72.6c-182.02,11.16 -395.58,1.25 -582.36,1.25 -174.98,0 -422.61,42.39 -430.07,-162.88 -8.14,-223.96 260.43,-178.47 407.83,-178.47l605.24 0 -28.23 75.74zm-888.38 -236.33c-86.39,0.03 -160.2,15.63 -179.63,-26.74 42.36,-26.65 654.13,-11.86 724.54,-12.01 59.87,-0.12 179.95,-19.67 175.97,55.42 -3.86,73 -132.58,49.73 -198.22,49.7 -82.81,-0.04 -633.51,9.52 -685.5,-6.51 -2.22,-0.68 -6.8,-0.5 -8.35,-4.17 -1.55,-3.66 -5.66,-2.66 -8.07,-4.61 17.11,-32.6 -11.92,-12.73 34.67,-22.82 60.31,-13.06 688.6,23.32 759.32,-10.54 -22.02,-28.7 -46.55,-18.79 -91.58,-18.14l-523.14 0.4zm-207.57 -94.09c17.85,-12.29 1.41,-10.7 40.76,-10.7l822.91 0c119.23,0 191.45,95.16 122.04,189.04 -52.22,70.63 -201.73,45.78 -299.96,45.78 -49.73,0 -641.7,17.22 -682.1,-12.24 39.17,-50.78 194.81,-23.66 259.52,-23.66l545.11 0.21c96.75,0.56 168.13,1.06 141.72,-120.78 -48.41,-56.37 -109.64,-40.05 -208.65,-39.99l-511.54 0c-65.79,0 -193.58,23 -229.81,-27.67zm1191.36 597.04c-8.82,0.12 -17.59,0.1 -26.22,-0.15 -119.39,-161.64 3.1,-315.57 -4.26,-369.93l-169.96 -0.7c177.62,-331.59 -222.51,-259.78 -331.85,-266.4 1.74,-1.59 3.61,-3.59 5.57,-5.96 -40.8,8.15 -82.53,9.94 -125.92,7.74 -29.14,-1.48 -31.83,-4.7 -63.18,-1.52 -24.85,2.52 -49.29,2.85 -73.6,1.12 -26,2.35 -52.2,2.31 -78.15,-0.11l-373.11 2.15c15.73,61.73 52.61,57.56 50.57,148.53 -1.85,82.56 -44.75,93.03 -45.47,142l209.9 0.73c-17.57,28.81 -10.27,14.85 -31.93,39.57 -15.18,17.32 -17.06,17.79 -27.98,38.38 -51.18,96.52 -15.58,207.87 65.76,263.61 -18.91,1.1 -45.78,-0.5 -62.46,0.83 9.71,9.86 18.88,19.91 27.49,30.19 18.32,-0.43 43.05,-1.37 82.11,-0.89l500.42 1.17c53.91,0 300.29,-8.21 471.7,-2.38 0,-9.35 0.12,-18.64 0.55,-27.99z"/>
  <path class="fil1" d="M1173.5 671.11c-201.74,0 -403.49,0 -605.24,0 -147.4,0 -415.97,-45.49 -407.83,178.47 7.46,205.28 255.09,162.88 430.07,162.88 186.78,0 400.34,9.91 582.36,-1.25l-25.66 -72.6c-162.65,-9.58 -347.19,-1.88 -512.22,-1.88 -122.02,0 -399.62,49.93 -396.75,-96.79 1.77,-90.56 71.77,-92.02 163.11,-91.5 204.55,1.17 570.02,8.83 743.93,-1.58l28.23 -75.74z"/>
  <path class="fil2" d="M49.32 416.43c36.22,50.67 164.02,27.67 229.81,27.67l511.54 -0c99.01,-0.06 160.24,-16.37 208.65,39.99 26.41,121.83 -44.97,121.34 -141.72,120.78l-545.11 -0.21c-64.72,0 -220.36,-27.11 -259.52,23.66 40.41,29.46 632.37,12.24 682.1,12.24 98.23,0 247.74,24.85 299.96,-45.78 69.42,-93.88 -2.8,-189.04 -122.04,-189.04l-822.91 0c-39.35,0 -22.91,-1.59 -40.76,10.7z"/>
  <path class="fil1" d="M1173.5 671.11c-201.74,0 -403.49,0 -605.24,0 -147.4,0 -415.97,-45.49 -407.83,178.47 7.46,205.28 255.09,162.88 430.07,162.88 186.78,0 400.34,9.91 582.36,-1.25l-25.66 -72.6c-162.65,-9.58 -347.19,-1.88 -512.22,-1.88 -122.02,0 -399.62,49.93 -396.75,-96.79 1.77,-90.56 71.77,-92.02 163.11,-91.5 204.55,1.17 570.02,8.83 743.93,-1.58l28.23 -75.74z"/>
  <path class="fil2" d="M49.32 416.43c36.22,50.67 164.02,27.67 229.81,27.67l511.54 -0c99.01,-0.06 160.24,-16.37 208.65,39.99 26.41,121.83 -44.97,121.34 -141.72,120.78l-545.11 -0.21c-64.72,0 -220.36,-27.11 -259.52,23.66 40.41,29.46 632.37,12.24 682.1,12.24 98.23,0 247.74,24.85 299.96,-45.78 69.42,-93.88 -2.8,-189.04 -122.04,-189.04l-822.91 0c-39.35,0 -22.91,-1.59 -40.76,10.7z"/>
  <path class="fil2" d="M905.48 346.02l64.88 -50.07c28.38,-16.45 10.42,-7.37 26.54,-8.11l-65.9 50.91c-33.89,19.43 -9.69,3.01 -25.52,7.27zm-54.54 48.31l-100.22 68.96c-62.9,-11.87 -349.22,-109.5 -422.25,-135.58l127.56 -88.46 395.12 128.23c26.23,9.47 25.57,8.82 -0.2,26.85zm15.03 -61.05c30.41,-30 115.43,-87.76 161.17,-114.87 7.49,13.73 -78.89,66.3 -114.98,91.98 -21.1,15.01 -22.39,21.51 -46.2,22.9zm-652.3 -22.42c14.04,35.49 -75.72,39.73 49.83,80.35 147.6,47.76 375.83,129.83 508.94,165.9 28.48,-49.07 3.66,-28.76 83.45,-84.43 93.22,-65.04 341.69,-233.26 397.09,-279.2l-123.93 -41.36c-22.24,19.91 -131.96,-55.58 -159.6,-51.04 -67,-22.89 -9.19,-34.91 -66.67,-27.11 -51.98,-20.31 -30.28,20.12 -18.91,-4.54 35.84,-19.06 -36.43,4.03 -10.97,-0.56 -44.87,-14.76 -149.68,-54.7 -195.52,-59.73 -53.7,18.3 -271.71,180.74 -334.12,224.39 -21.52,9.69 -6.21,6.41 -28.29,4.13l-2.32 6.55c-0.29,0.71 -2.8,4.26 -3.25,5.64 -23.06,7.35 -2.51,-1.36 -24.53,8.36 -29.58,13.06 -46.35,27.35 -49.66,44.38l-21.56 8.27z"/>
  <path class="fil3" d="M905.09 536.63c29.35,-12.12 37.71,-18.46 51.28,-35.86l11.41 -8.56 38.57 11.04c51.6,-29.84 342.42,-233.68 370.21,-261.42 -15.09,-16.03 -67.23,-33.74 -108.7,-41.81 -109.52,68.83 -229.07,159.36 -333.7,232.54 -39.97,27.96 -133.1,84.4 -139.64,109.83 -8.95,34.83 68.29,52.13 132.46,14.87l-33.52 -12.45 11.63 -8.17z"/>
  <polygon class="fil1" points="745.83,450.78 848.96,381.46 825.05,373.43 454.58,252.13 354.52,322.63 "/>
  <path class="fil0" d="M956.37 500.76l99.25 33.44c-56.71,19.72 -30.11,3.24 -49.43,34.59l-101.1 -32.17 -11.63 8.17 33.52 12.45c-64.17,37.25 -141.41,19.95 -132.46,-14.87 6.54,-25.43 99.67,-81.87 139.64,-109.83 104.63,-73.18 224.18,-163.71 333.7,-232.54 41.46,8.07 93.61,25.78 108.7,41.81 -27.79,27.74 -318.61,231.58 -370.21,261.42l-38.57 -11.04 -11.41 8.56zm172.69 -348.64l123.93 41.36c-55.4,45.94 -303.87,214.17 -397.09,279.2 -79.79,55.67 -54.97,35.36 -83.45,84.43 -133.11,-36.06 -361.35,-118.14 -508.94,-165.9 -125.56,-40.62 -35.8,-44.87 -49.83,-80.35 -84.14,53.84 -3.54,76.81 70.07,100.91l449.27 147.15c54.23,17.76 96.59,42.06 167.33,21.58 57.1,-16.54 20.23,-24.98 116.7,5.17 15.48,-13.78 14.09,-21.49 16.96,-32.69l59.44 -20 -68.93 -24.59c72.45,-61.17 226.37,-160.34 315.87,-222.35 79.41,-55.02 63.58,-57.43 -15.82,-83.19 -56.31,-18.28 -379.3,-122.32 -435.45,-140.71 -20.9,-2.2 260.15,81.56 239.95,89.98z"/>
  <path class="fil0" d="M354.52 322.63l100.06 -70.5 370.46 121.3 23.91 8.02 -103.13 69.32 -391.3 -128.15zm496.41 71.69c25.78,-18.03 26.44,-17.37 0.2,-26.85l-395.12 -128.23 -127.56 88.46c73.04,26.08 359.35,123.7 422.25,135.58l100.22 -68.96z"/>
  <path class="fil0" d="M872.91 68.87c22.2,0.26 239.07,90.78 256.15,83.25 -28.38,-16.25 -343.37,-125.61 -382.89,-138.76 -65.63,-21.83 -82.22,-19.21 -145.05,25.06 -90.92,64.07 -190.72,138.02 -286.13,199.24 22.08,2.28 6.77,5.56 28.29,-4.13 62.41,-43.65 280.42,-206.09 334.12,-224.39 45.84,5.04 150.65,44.97 195.52,59.73z"/>
  <path class="fil2" d="M956.37 500.76c-13.57,17.4 -21.93,23.74 -51.28,35.86l101.1 32.17c19.31,-31.35 -7.28,-14.87 49.43,-34.59l-99.25 -33.44z"/>
  <path class="fil0" d="M865.97 333.28c23.81,-1.39 25.09,-7.89 46.2,-22.9 36.09,-25.67 122.46,-78.25 114.98,-91.98 -45.74,27.11 -130.76,84.87 -161.17,114.87z"/>
  <path class="fil0" d="M970.35 295.95l-64.88 50.07c15.83,-4.26 -8.37,12.16 25.52,-7.27l65.9 -50.91c-16.12,0.73 1.84,-8.35 -26.54,8.11z"/>
 </g>
</svg>
