<?xml version="1.0" encoding="UTF-8"?>
<!DOCTYPE svg PUBLIC "-//W3C//DTD SVG 1.1//EN" "http://www.w3.org/Graphics/SVG/1.1/DTD/svg11.dtd">
<!-- Creator: CorelDRAW -->
<svg xmlns="http://www.w3.org/2000/svg" xml:space="preserve" width="100%" height="100%" version="1.1" style="shape-rendering:geometricPrecision; text-rendering:geometricPrecision; image-rendering:optimizeQuality; fill-rule:evenodd; clip-rule:evenodd"
viewBox="0 0 1880.88 1679.67"
 xmlns:xlink="http://www.w3.org/1999/xlink"
 xmlns:xodm="http://www.corel.com/coreldraw/odm/2003">
 <defs>
  <style type="text/css">
   <![CDATA[
    .fil0 {fill:#003399}
   ]]>
  </style>
 </defs>
 <g id="Layer_x0020_1">
  <metadata id="CorelCorpID_0Corel-Layer"/>
  <path class="fil0" d="M700.95 902.04c3.01,-237.08 352.67,-82.85 496.69,-142.14 110.45,-45.47 26.85,-368.39 59.67,-578.31 100.74,15.79 64.57,189.54 64.65,279.33 0.39,460.61 52.61,390.48 -312.38,390.46 -151.82,-0 -200.3,-21.22 -308.63,50.66zm-2.81 -118.9c-6.22,-121.87 -16.68,-540.56 1.15,-642.54 18.39,-105.24 96.93,-106.63 211.5,-106.1 96.78,0.46 225.07,-12.07 298.77,16.04 18.31,75.62 8.3,254.89 8.3,348.72 0,377.59 57.2,334.91 -294.61,333.69 -143.39,-0.49 -124.56,-3.72 -225.11,50.19zm-543.48 -59.83c-30.37,-84.3 -13.97,-274.63 -13.96,-385.71 0.02,-233.06 -35.82,-302.98 92.1,-302.98 437.49,0 428.33,-32.98 428.31,302.98 -0,131.48 11.36,326.03 -3.3,449.87 -96.13,-102.95 -351.4,-28.34 -503.15,-64.16zm-19.17 150.97c-2.6,-2.74 -7.35,-9.51 -9.1,-6.73 -1.72,2.72 -6.79,-5.01 -9.19,-6.27 -17.81,-9.39 -2.44,-3.37 -28.2,-13.05 -13.4,-5.04 -27.05,-6.28 -43.48,-13.16 -16.37,-78.02 -16.46,-559.77 0.21,-637.18l56.02 -16.69c9.72,97.52 3.37,219.21 3.35,316.71 -0.02,97.8 -23.31,238.77 59.99,264.63 166.28,51.6 484.91,-93.21 493.99,141.33 -82.04,-65.41 -128.57,-52.49 -253.67,-52.49 -38.18,12.15 -16.06,-5.32 -26.77,29.57 57.61,4.25 162.35,-6.96 208.63,14.24 63.58,29.13 51.94,80.98 89.4,133.44l19.51 -29.06c49.03,-119.25 43.17,-116.27 251.75,-116.07 474.39,0.47 404.95,60.83 405.21,-434.93 0.04,-86.86 19.76,-237.35 -29.51,-276.54 -30.66,-24.39 -62.74,-12.39 -72.92,-44.07 -2.39,-159.8 -105.73,-124.7 -253.46,-124.69 -56.37,0.01 -143.48,-5.11 -196.21,2.68 -62.67,9.26 -73.72,34.6 -109.23,64.82l-15.13 11.61c-92.43,-103.73 -146.11,-79.08 -320.57,-79.11 -252.7,-0.04 -232.59,-10.02 -252.43,144.48 -136.69,21.86 -98.84,140.11 -98.84,387.14 0,120.03 -43.53,408.03 130.66,339.38z"/>
  <path class="fil0" d="M826.3 1559.72l230.24 -1.47 -0.07 81.78 -226 -0.11 -4.18 -80.21zm264.84 82.47l-1.42 -78.5 755.39 -7.09c5.22,50.82 8.74,44.99 -6.45,79.61l-747.52 5.98zm-1051.6 -80.77l754.06 -3.44 0.21 79.69c-76.59,13.44 -698.41,13.55 -748.57,-2 -13.8,-33.69 -10.77,-29.63 -5.69,-74.25zm141.55 -38.9c-102.44,8.76 -196.72,-32.91 -176.8,98.04 11.76,77.29 83.13,53.22 228.53,53.22 238.25,-0.02 1589.59,20.31 1628.61,-14.43 7.54,-9.8 6.48,0.1 13.71,-22.74 4.16,-13.14 6,-25.65 5.72,-40.57 -0.65,-35.45 -2.01,-35.68 -20.5,-61.4l-156.77 -12.02c0.81,-64.75 11.62,-162.94 -15.85,-196.56 -30.02,40.77 -13.74,133.79 -16.64,191.8 -76.87,14.85 -1389.67,14.35 -1457.51,-0.57l-12.58 -594.29c-0.98,-2.48 -3.15,-6.39 -5.19,-9.3l-14.74 608.83z"/>
  <path class="fil0" d="M1587.68 1232.86l-3.39 204.93 -1284.56 -1.16 -0.62 -507.85c-13.62,-19.47 1.81,-5.31 -29.14,-13.26 -4.59,92.2 -13.42,483.18 6.5,549.58l1331.25 2.93c19.35,-63.72 8.95,-140.41 8.85,-205.57 -11.07,-28.38 -1.3,-14.25 -28.89,-29.61z"/>
  <path class="fil0" d="M1846.52 1214.41l-83.89 81.62c-76.02,-32.2 -115.53,-140.22 -198.2,-160.76 -55.29,27.48 -41.85,51.12 -95.22,62.83l-2.65 -282.48 285.02 -1.89c-18.07,62.39 -29.95,35.62 -52.96,77.23 -23.68,42.81 3.91,65.84 25.3,87.3 38.1,38.22 102.87,84.71 122.6,136.15zm-398.09 3.27c62.69,31.89 46.3,2.57 114.37,-50.93 69.46,20.75 114.79,117.32 186.58,159.01 48.57,-10.48 114.52,-76.97 129.48,-124.95 -32.56,-83.66 -113.07,-108.24 -158.29,-184.97 34.76,-60.93 76.11,-44.78 54.47,-124.12 -41.51,-12.17 -298.85,-27.18 -328.48,5.88 -23.48,26.2 -21.8,284.96 1.87,320.07z"/>
  <path class="fil0" d="M1383.44 460.91c58.12,36.53 208.18,1.71 285.93,18.57 9.07,78.17 -16.09,327.87 18.37,371.57 35.43,-40.4 16.3,-264.05 16.3,-328.48 0,-97.92 -34.89,-80.88 -127.16,-80.46 -41.18,0.19 -190.28,-15.66 -193.43,18.8z"/>
  <polygon class="fil0" points="1383.52,557.7 1582.79,562.62 1589.35,849.22 1613.41,846.62 1616.51,534.24 1391.83,530.19 "/>
  <path class="fil0" d="M244.19 275.94c21.68,38.78 31.63,21.8 161.24,21.83 108.81,0.03 134.95,15.76 154.02,-21.83 -43.9,-21.39 -272.53,-17.74 -315.26,0z"/>
  <path class="fil0" d="M1058.91 531.8c61.1,0 41.41,9.02 56.09,-21.56 -42.71,-21.3 -272.46,-18.23 -315.04,0 13.93,25.1 -8.82,21.56 50.11,21.56l208.84 0z"/>
  <path class="fil0" d="M799.93 275.94c21.15,38.61 33.18,21.81 160.34,21.83 29.03,0 58.14,0.52 87.09,0.54 59.21,0.04 52.77,9.81 67.67,-22.37 -36.17,-17.59 -278.86,-15.14 -315.11,0z"/>
  <path class="fil0" d="M244.17 510.24c18.2,31.9 3.2,21.88 61.69,22.38 62.09,0.54 221.25,5.37 255.66,-11.75 -27.89,-37.82 -291.48,-21.6 -317.34,-10.63z"/>
  <path class="fil0" d="M110.81 857.78l279.07 0c10.87,0 19.76,8.89 19.76,19.76l0 0 -298.84 0 0 -19.76z"/>
 </g>
</svg>
