<?xml version="1.0" encoding="UTF-8"?>
<!DOCTYPE svg PUBLIC "-//W3C//DTD SVG 1.1//EN" "http://www.w3.org/Graphics/SVG/1.1/DTD/svg11.dtd">
<!-- Creator: CorelDRAW -->
<svg xmlns="http://www.w3.org/2000/svg" xml:space="preserve" width="100%" height="100%" version="1.1" style="shape-rendering:geometricPrecision; text-rendering:geometricPrecision; image-rendering:optimizeQuality; fill-rule:evenodd; clip-rule:evenodd"
viewBox="0 0 2026.33 2011.58"
 xmlns:xlink="http://www.w3.org/1999/xlink"
 xmlns:xodm="http://www.corel.com/coreldraw/odm/2003">
 <defs>
  <style type="text/css">
   <![CDATA[
    .fil0 {fill:#003399}
   ]]>
  </style>
 </defs>
 <g id="Layer_x0020_1">
  <metadata id="CorelCorpID_0Corel-Layer"/>
  <path class="fil0" d="M1035.63 1879c-40.63,-210.87 197.49,-182.87 352.72,-182.87 99.46,0.01 456.59,18.65 497.36,-27.46 60.9,-68.9 17.39,-869.49 27.39,-1032.53 99.2,-9.72 70.83,139.5 70.79,230.52 -0.07,151.41 16.21,878.05 -16.63,919.72 -30.9,41.26 -31.52,33.86 -101.79,34.11 -44.09,0.16 -88.91,-0.85 -133.19,-0.87 -198.78,-0.04 -624.02,-35.98 -696.65,59.38zm-995.57 -1144.59c0,-63.69 7.65,-99.59 71.44,-100.96 10.76,155.72 -24.87,974.51 26.63,1033.92 46.93,54.15 391.09,28.77 496.2,28.76 186.03,-0 359,-40.84 358.78,181.3l-27.5 -17.97c-25.47,-16.56 1.82,-1.29 -25.6,-16.69 -18.22,-10.23 -24.45,-13.89 -47.09,-18.75l-404.11 -4.39c-327.57,0 -448.76,45.95 -448.76,-106.56l0 -978.65zm73.37 -145.48c-98.96,42.17 -108.3,10.56 -107.38,211.59 1.05,228.89 -14.65,803.76 0.77,953.07 12.45,120.63 100.85,99.83 217.39,99.59l635.76 0.95c147,15.22 104.63,120.16 155.86,157.44 105.2,-171.85 -42.8,-158.41 478.33,-158.41 105.85,0 211.72,-0.24 317.56,0.07 279.64,0.81 205.78,-16.32 205.78,-735.31 0,-105.81 -0.28,-211.67 0.05,-317.48 0.63,-205.2 -8.52,-169.84 -107.39,-211.52 -12.26,-163.78 -44.96,-151.72 -204.33,-150.98 -159.09,0.74 -264.9,-12.15 -325.93,12.73 -2.95,1.2 -7.26,3.67 -10.57,6.01 77.04,43.92 319.93,-13.61 485.43,25.31 33.09,72.19 25.52,1105.06 1.25,1168.15 -205.97,57.02 -698.63,-66.24 -821.3,70.48 -20.95,-109.23 20.67,-351.59 -16.77,-429.93 -41.6,23.28 -22.69,83.36 -22.67,197.54 0.02,76.7 0.98,153.46 -1.25,230.11l-37.19 -23.39c-87.43,-54.8 -204.35,-32.8 -348.98,-32.8 -111.19,0 -354.22,12.2 -440.54,-12.48 -27.19,-74.1 -31.17,-1093.35 1.6,-1166.9 96.35,-25.19 427.92,17.64 485.94,-26.09 -39.89,-37.81 -254.23,-18.46 -324.81,-18.7 -165.22,-0.56 -202.38,-19.56 -216.64,150.94z"/>
  <path class="fil0" d="M875.01 1102.2l273.86 -2.42c-14.7,72.72 -50.65,119.45 -131.57,122.01 -95.81,3.02 -117.06,-48.32 -142.29,-119.59zm-3.15 -156.27l278.59 -0.23 1.48 119.04 -278.37 1.26 -1.69 -120.07zm62.14 -36.96c0,-46.27 -4.45,-119.52 0.07,-162.56 6.35,-60.48 18.7,-75.69 83.94,-72.91 97.57,4.16 71.91,81.57 71.91,235.98l-155.92 -0.51zm79.8 -328.97l26.93 60.85 -58.23 -3.28 31.3 -57.57zm-167.74 -328.37c91.94,6.41 135.22,-65.71 279.5,-8.03 78.86,31.52 137.73,95.37 166.29,176.91 67.2,191.83 -81.59,306 -111.46,370.29 -30.3,65.2 -3.45,100.3 -57.48,115.09 0,-84.04 11.73,-158.7 -20.84,-229.68 -21.8,-47.52 -50.73,-122.95 -86.59,-160.85 -108.93,71.69 -114.48,270.87 -114.48,390.48 -48.93,-16.41 -21.57,5.74 -41.5,-66.62 -8.46,-30.73 -12.28,-43.43 -25.22,-66.53 -26.09,-46.55 -50.24,-55.2 -78.96,-106.04 -79.11,-140.07 -8.84,-218.28 -26.94,-283.53 -82.37,50 -43.11,236.39 1.94,307.85 69.57,110.37 109.41,74.22 108.62,294.82 -0.46,127.3 7.89,237.91 127.54,264.96 127.89,28.92 214.06,-60.23 219.09,-172.96 7.41,-165.98 -26.61,-211.68 66.07,-334.43 63.24,-83.74 116.68,-161.8 79.6,-309.01 -47.93,-190.25 -255.35,-291.16 -432.2,-228.5 -44.98,15.93 -43.69,10.84 -52.98,45.79z"/>
  <path class="fil0" d="M452.89 1362.41l154.02 -6.12 4.53 -152.66 119 -0.14 2.09 274.26 -275.2 3.95 -4.44 -119.3zm0.98 -157.72l118.78 -1.85 2.26 118.7 -118.15 2.88 -2.89 -119.72zm-36.61 117.35l-118.4 2.25 -2.74 -276.48 275.85 -2.19 3.76 118.11 -153.56 6.51 -4.91 151.8zm-154.62 31.87l154.75 7.12 4.38 151.39 339.78 2.39 4.89 -341.02 -155 -7.53 -4.35 -150.31 -339.54 -4 -4.91 341.98z"/>
  <path class="fil0" d="M1247.87 1274.98c50.44,26.15 413.19,15.09 498.24,6.4 -15.98,-31.99 8.81,-27.63 -53.52,-27.63 -94.3,0 -436.37,-20.91 -444.72,21.23z"/>
  <polygon class="fil0" points="456.76,1324.41 574.91,1321.52 572.65,1202.83 453.87,1204.68 "/>
  <path class="fil0" d="M998.43 297.99l21.29 12.86c59.65,23.69 -27.4,-8.02 21.83,7.88 202.79,65.48 121.69,126.43 188.06,212.28 72.53,-75.65 -92.02,-261.06 -198.24,-246.76 -27.2,3.66 -21.58,7.09 -32.93,13.74z"/>
  <path class="fil0" d="M995.28 59.94c0,61.98 -11.31,44.38 25.53,65.3 10.82,-75.35 19.79,-83.45 -5.73,-125.24 -26.42,22.78 -19.8,6.23 -19.8,59.94z"/>
  <path class="fil0" d="M575.96 271.54c37.62,17.02 84.78,18.51 121.32,2.5 -18.22,-28.33 5.33,-22.37 -49.61,-25.59 -81.69,-4.81 -61.31,17.97 -71.71,23.09z"/>
  <path class="fil0" d="M1328.55 271.54c56.42,13.81 78.79,24.37 120.1,0 -27.56,-44.19 -118.63,-26.51 -120.1,0z"/>
  <path class="fil0" d="M1185.12 156.02c54.49,-13.6 60.41,-19.82 74.87,-74.1 -56.04,12.98 -61,18.63 -74.87,74.1z"/>
  <path class="fil0" d="M838.8 156.2c-14.12,-56.96 -17.56,-62.55 -74.98,-73.49 15.93,53.69 21.2,58.56 74.98,73.49z"/>
  <path class="fil0" d="M743.37 344.06c37.86,6.89 32.89,-11.17 60.54,-34.2l-1.35 -37.04c-31.5,17.44 -52.94,30.8 -59.19,71.24z"/>
 </g>
</svg>
