<?xml version="1.0" encoding="UTF-8"?>
<!DOCTYPE svg PUBLIC "-//W3C//DTD SVG 1.1//EN" "http://www.w3.org/Graphics/SVG/1.1/DTD/svg11.dtd">
<!-- Creator: CorelDRAW -->
<svg xmlns="http://www.w3.org/2000/svg" xml:space="preserve" width="100%" height="100%" version="1.1" style="shape-rendering:geometricPrecision; text-rendering:geometricPrecision; image-rendering:optimizeQuality; fill-rule:evenodd; clip-rule:evenodd"
viewBox="0 0 1697.51 1544.1"
 xmlns:xlink="http://www.w3.org/1999/xlink"
 xmlns:xodm="http://www.corel.com/coreldraw/odm/2003">
 <defs>
  <style type="text/css">
   <![CDATA[
    .fil0 {fill:#003399}
   ]]>
  </style>
 </defs>
 <g id="Layer_x0020_1">
  <metadata id="CorelCorpID_0Corel-Layer"/>
  <path class="fil0" d="M336.3 1437.63l967.68 -3.17c67.93,0.38 65.06,0.74 58.36,69.95 -48.03,16.09 -926.82,14.22 -1027.05,5.29l1.01 -72.07zm474.64 -159.54l35.66 -0.91 39.87 1.98 2.02 122.12 -19.63 3.76 -59.16 -0.94 1.24 -126.02zm-213.49 -56.47c18.12,-39.66 -11.45,-25.77 149.07,-25.54 157.13,0.23 333.17,18.76 438.11,-81.09 140.36,-133.57 104.83,-415.13 -76.12,-465.36 14.65,39.68 9.85,27.02 43.52,55.85 17.58,15.05 27.9,21.95 44.14,44.33 20.89,28.79 43.92,77.48 48.11,127.99 8.99,108.28 -44.87,196.39 -110.13,241.96 -96.81,67.6 -338.37,49.36 -488.5,47.38 -31.56,-0.41 -58.78,-6.87 -71.84,15.11 -14.01,23.59 -1.28,71.98 4.76,85.24 47.49,20.15 140.43,6.96 201.89,9.06l0.22 129.6c-295.48,6.53 -481.76,-53.6 -477.2,71.22 1.63,44.51 2.31,34.85 25.87,52.31 31.5,23.37 1022.4,12.32 1034.96,7.81 36.41,-13.05 62.14,-122.46 -27.31,-131.07 -127.08,-12.24 -285.54,9.63 -417.88,-1.78l-2.76 -125.57c131.03,-17.43 162.08,4.16 267.96,-64.27 64.61,-41.76 116.98,-98.87 147.23,-185.94 70.41,-202.71 -47.41,-419.24 -204.14,-458.75 31.44,68.56 132.76,70.86 183.12,232.41 62.67,201.06 -74.82,436.5 -330.22,445.22l-346.11 0.63c-36.82,-7.77 -22.93,4.22 -36.76,-26.76z"/>
  <path class="fil0" d="M126.52 1109.65c-135.04,15.26 -135.44,-135.59 0.52,-120.57 42.69,58.07 45.16,63.15 -0.52,120.57zm241.9 -253.3l41.01 0.54 14.81 51.24c-57.04,41.47 -102.07,2.91 -55.82,-51.78zm-138.25 -127.99c-61.57,33.97 -85.9,-11.02 -49.31,-63.32l52.3 16.09 -2.98 47.22zm195.54 -117.19c-85.52,30.35 -117.12,-36.18 -76.63,-76.22 41.87,-41.42 102.26,-3.26 76.63,76.22zm-54.78 -134.43c-36.83,56.44 -74.47,19.43 -60.89,131.35 -15.3,8.54 -44.78,34.59 -57.38,37.63 -19.75,4.75 -44.91,-8.05 -88.06,-2.67 -79.86,103.63 -95.44,4.16 -136.98,66.13 112.22,14.42 95.81,1.92 136.19,56.8l82.27 1.17 74.84 78.73 -3.14 60.74c-23.51,16.74 -121.7,78.87 -148.05,76.55 -23.91,-2.11 -108.08,-67.96 -156.42,16.86 -70.5,123.72 161.57,249.78 173.74,9.09 56.66,-17.64 107.26,-80.83 156.46,-64.69 54.46,17.87 -0.76,62.57 47.15,88.1 14.52,-33.02 2.64,-27.45 10.45,-54.48 14.01,-48.5 93.06,-84.65 27.64,-139.72 -35.99,-30.29 -60.48,0.5 -94.42,-17.04 -22.92,-11.85 -46.04,-46.18 -69.8,-62.68l1.12 -81.78c82.62,-77.98 51.41,-17.26 147.26,-30.33 34.79,-21.27 58.32,-37.26 50.19,-88.01 -9.41,-58.76 -38.06,-40.65 -63.91,-81.75 0,-41.06 5.3,-79.37 -8.52,-113.1 -28.26,16.73 -19.73,-14.31 -19.73,113.1z"/>
  <path class="fil0" d="M796.69 883.21l104.51 -5.34 -1.67 49.33 -100.92 0.29 -1.92 -44.28zm-59.58 -70.42l222.83 -1.22c-14.07,36.1 -18.37,36.87 -68.28,38.18 -142.9,3.76 -118.1,2.27 -154.56,-36.96zm76.13 -492.31c108.17,0 121.35,-13.77 147.37,37.89l-223.11 -2.46c12.09,-34.04 28.18,-35.43 75.74,-35.43zm88.27 -43.86c-29.75,22.19 -57.16,13.72 -104.92,13.72 9.09,-43.16 -19.28,-36.61 49.73,-38.3 53.51,-1.31 43.38,-1.76 55.19,24.59zm67.7 456.7l-5.41 50.18 -232.6 -4.23 0.35 -385.02c51.16,-15.45 177.49,-9.88 234.89,-4.24l2.57 44.73c38.75,4.61 26.66,3.57 28.84,-46.04 3.08,-70.04 -50.68,-83.57 -61.13,-100.03 -11.36,-17.89 -3.86,-28.93 -18.11,-61.29l-136.21 -0.32 -19.31 55.55c-42.73,81.21 -60.45,-52.15 -60.45,260.83 0,185.42 -30.16,305.98 65.91,331.23l2.09 78.54 155.01 4.11 4.9 -76.03c63.36,-41.31 69.85,-47.97 63.45,-137.73l-24.78 -10.24z"/>
  <path class="fil0" d="M1302.87 250.24l232.74 2.1c-40.17,87.86 -195.01,89.68 -232.74,-2.1zm-21.67 -40.32c-49.54,-237.02 326.76,-234.42 275.94,0 -53.95,25.83 -221.32,25.64 -275.94,0zm309.02 -69.24c45.71,6.86 55.46,7.24 77.24,40.45l-74.83 26.63 -2.41 -67.08zm-417.54 35.89c21.09,-28.86 29.32,-28.27 75.19,-37.23l-3.56 72.1 -71.64 -34.87zm-31.8 0c38,77.63 80.16,28.48 130.56,86.26 94.73,108.63 196.06,120.76 290.9,6.48 57.16,-68.88 94.93,-13.29 135.17,-92.74 -32.94,-85.46 -83.6,-31.16 -133.34,-94.63 -89.82,-114.62 -214.6,-101.51 -285.55,-6.87 -62.72,83.65 -102.59,8.81 -137.74,101.51z"/>
  <path class="fil0" d="M1069.58 549.15c-32.79,-32.35 -57.54,-69 -120.24,-49.13 -38.74,12.28 -73.06,59.96 -53.65,116.01 27.4,79.11 186.91,102.02 173.89,-66.89z"/>
  <path class="fil0" d="M1509.86 661.42c-39.17,4.61 -24.78,-2.71 -49.06,15.44 13.43,12.07 -3.02,5.87 20.48,13.45 5.22,1.68 19.78,3.1 26.1,3.78 7.01,40.53 -1.26,23.47 17.56,48.36 19.12,-24.77 10.52,-6.07 17.65,-47.67 44.04,-6.19 23.48,2.32 47.18,-17.92 -24.65,-17.61 -11.59,-10.44 -49.57,-16.38 -2.96,-41.93 4.38,-23.79 -15.26,-46.96 -18.74,22.79 -12.86,7.63 -15.08,47.9z"/>
 </g>
</svg>
