<?xml version="1.0" encoding="UTF-8"?>
<!DOCTYPE svg PUBLIC "-//W3C//DTD SVG 1.1//EN" "http://www.w3.org/Graphics/SVG/1.1/DTD/svg11.dtd">
<!-- Creator: CorelDRAW -->
<svg xmlns="http://www.w3.org/2000/svg" xml:space="preserve" width="100%" height="100%" version="1.1" style="shape-rendering:geometricPrecision; text-rendering:geometricPrecision; image-rendering:optimizeQuality; fill-rule:evenodd; clip-rule:evenodd"
viewBox="0 0 2279.54 2523.89"
 xmlns:xlink="http://www.w3.org/1999/xlink"
 xmlns:xodm="http://www.corel.com/coreldraw/odm/2003">
 <defs>
  <style type="text/css">
   <![CDATA[
    .fil1 {fill:#1A2225}
    .fil0 {fill:#6EB4FA}
    .fil2 {fill:#FEFEFE}
   ]]>
  </style>
 </defs>
 <g id="Layer_x0020_1">
  <metadata id="CorelCorpID_0Corel-Layer"/>
  <path class="fil0" d="M899.9 434.6c46.11,-36.91 72.03,-90.48 149.09,-72.86 60.16,13.76 100.03,68.65 80.41,138.54 -37.5,133.62 -229.6,154.58 -229.5,-65.68zm325.53 -271.35c31.16,39.21 69.29,63.94 41.68,125.16 -16.64,36.9 -73.89,71 -121.01,59.61 -99.2,-23.96 -107.22,-193.77 79.33,-184.77zm-659.48 1698.25c29.94,-24.91 46.93,-70.1 68,-107.27l279.25 -526.78c14.44,-57.06 14.43,-251.93 -3.54,-305.72l-114.69 -12.35c-15.04,-51.09 -19.54,-179.46 9.56,-233.26 64.85,-23.18 537.97,-23.19 601.93,-6.41 28.87,20.82 22.69,164.41 9.05,240.87 -106.49,16.74 -126.31,-32.25 -127.39,83.08 -0.48,51.22 -3.33,161.73 6.36,207.81l282.87 536.18c52.02,91.9 88.37,185.45 145.82,261.77 33.29,-63.76 329.39,-116.88 475.53,-429.88 511.47,-1095.52 -1548.34,-2381.94 -2137.37,-900.89 -96.74,243.26 -77.18,511.77 45.61,734.07 54.06,97.87 119.49,184.86 198.52,258.97 49.07,46.02 73.43,64.98 121.37,100.91 41.69,31.24 92.61,58.08 139.12,98.89z"/>
  <path class="fil0" d="M611.85 1895.85c42.8,6.24 65.27,15.21 96.91,29.82 21.37,9.87 15.86,5.11 35.76,18.96 26.63,18.55 14.65,7.66 34.66,30.94 1.99,-3.43 4.08,-8.11 5.37,-10.6 1.27,-2.45 3.79,-7.41 5.35,-10.38l10.39 -19.87c14.91,-26.39 5.9,-13.45 22.09,-34.19 96.39,-123.54 341.24,-100.45 539.5,-94.64 22.74,0.67 30.76,0.02 52.01,6.02 35.48,10.02 9.95,-2.5 30.83,16.86 -30.24,65.84 -204.71,38.64 -347.78,39.82 -159.65,1.32 -206.17,0.34 -266.42,126.28 68.77,-7.13 277.73,52.19 390.91,57.93 174.1,8.83 276.87,-14.95 424.31,-42.41 -92.2,-169.32 -176.44,-332.25 -263.1,-495.13 -134.22,-252.29 -167.48,-249.2 -153.94,-595.04l-132.81 -5.95c-12.17,-83.39 80.3,-53.91 267.19,-61.61l-8.16 -126.52c-103.28,-8.98 -221.02,0.48 -327.38,-2.05 -155.7,-3.7 -194.43,-35.46 -175.03,128.37l128.49 11.45 -1.03 324.76c79.6,-1.8 152.68,-33.48 161.42,42.96 -43.93,26.89 -104.19,10.01 -169.37,18.4 -53.65,65.2 -128.61,232.27 -178.87,317.19 -67.58,114.19 -101.15,229.99 -181.29,328.65z"/>
  <path class="fil1" d="M1645.74 2010.38c67.09,93.29 175.3,269.24 93.59,376.94 -70.29,92.65 -330.8,72.92 -489.57,69.48 -145.12,-3.15 -411.1,31.81 -499.36,-58.93 -125.27,-128.78 39.5,-294.91 80.13,-403.02 60.25,-125.94 106.77,-124.96 266.42,-126.28 143.06,-1.18 317.53,26.02 347.78,-39.82 -20.88,-19.36 4.65,-6.84 -30.83,-16.86 -21.25,-6 -29.27,-5.36 -52.01,-6.02 -198.26,-5.81 -443.11,-28.89 -539.5,94.64 -16.19,20.74 -7.18,7.81 -22.09,34.19l-10.39 19.87c-1.56,2.96 -4.07,7.93 -5.35,10.38 -1.29,2.49 -3.38,7.18 -5.37,10.6 -24.14,65.92 -84.72,140.46 -113.11,213.58 -48.01,123.66 -10.29,192.64 40.92,264.17 -87.25,1.93 -152.89,7.74 -206.87,-40.59 -159.64,-142.94 35.91,-318.1 111.73,-516.87 80.14,-98.66 113.71,-214.46 181.29,-328.65 50.26,-84.92 125.22,-251.98 178.87,-317.19 65.18,-8.39 125.44,8.49 169.37,-18.4 -8.74,-76.44 -81.82,-44.76 -161.42,-42.96l1.03 -324.76 -128.49 -11.45c-19.4,-163.83 19.32,-132.07 175.03,-128.37 106.36,2.53 224.1,-6.93 327.38,2.05l8.16 126.52c-186.89,7.7 -279.35,-21.79 -267.19,61.61l132.81 5.95c-13.54,345.84 19.72,342.76 153.94,595.04 86.65,162.88 170.89,325.81 263.1,495.13zm-1079.79 -148.88c-35.05,136.39 -238.31,342.1 -174.65,505.94 80.93,208.3 372.74,148.65 594.6,148.22 139.01,-0.27 627.27,19.96 714.89,-27.64 269.59,-146.44 44.31,-414.63 22.38,-488.59 -57.44,-76.32 -93.8,-169.87 -145.82,-261.77l-282.87 -536.18c-9.69,-46.08 -6.84,-156.59 -6.36,-207.81 1.07,-115.33 20.9,-66.34 127.39,-83.08 13.64,-76.46 19.82,-220.05 -9.05,-240.87 -63.96,-16.78 -537.08,-16.77 -601.93,6.41 -29.1,53.8 -24.6,182.17 -9.56,233.26l114.69 12.35c17.97,53.79 17.97,248.66 3.54,305.72l-279.25 526.78c-21.07,37.17 -38.06,82.36 -68,107.27z"/>
  <path class="fil2" d="M1645.74 2010.38c-147.44,27.46 -250.21,51.23 -424.31,42.41 -113.18,-5.74 -322.14,-65.05 -390.91,-57.93 -40.62,108.11 -205.39,274.24 -80.13,403.02 88.26,90.73 354.24,55.78 499.36,58.93 158.78,3.44 419.28,23.17 489.57,-69.48 81.71,-107.7 -26.49,-283.66 -93.59,-376.94z"/>
  <path class="fil2" d="M779.17 1975.57c-20.01,-23.28 -8.02,-12.39 -34.66,-30.94 -19.91,-13.86 -14.4,-9.09 -35.76,-18.96 -31.63,-14.61 -54.11,-23.57 -96.91,-29.82 -75.82,198.78 -271.37,373.93 -111.73,516.87 53.98,48.33 119.62,42.53 206.87,40.59 -51.21,-71.52 -88.93,-140.51 -40.92,-264.17 28.39,-73.12 88.97,-147.67 113.11,-213.58z"/>
  <path class="fil1" d="M976.18 430.94c94.47,-20.73 118,24.68 72.9,102.78l-67.83 -8.95c-16.95,-40.71 -22.79,-53.85 -5.07,-93.83zm-76.28 3.67c-0.1,220.26 192,199.3 229.5,65.68 19.62,-69.89 -20.25,-124.78 -80.41,-138.54 -77.06,-17.63 -102.98,35.95 -149.09,72.86z"/>
  <path class="fil1" d="M1207.9 273.4c-37.35,21.98 -9.44,24.76 -57.59,0.49 -12.54,-64.93 47,-81.31 57.59,-0.49zm17.52 -110.15c-186.55,-9 -178.53,160.81 -79.33,184.77 47.12,11.39 104.37,-22.72 121.01,-59.61 27.61,-61.22 -10.52,-85.95 -41.68,-125.16z"/>
  <path class="fil0" d="M981.24 524.77l67.83 8.95c45.1,-78.1 21.57,-123.51 -72.9,-102.78 -17.72,39.98 -11.89,53.12 5.07,93.83z"/>
  <path class="fil0" d="M1150.31 273.89c48.15,24.28 20.23,21.49 57.59,-0.49 -10.59,-80.82 -70.13,-64.44 -57.59,0.49z"/>
 </g>
</svg>
