<?xml version="1.0" encoding="UTF-8"?>
<!DOCTYPE svg PUBLIC "-//W3C//DTD SVG 1.1//EN" "http://www.w3.org/Graphics/SVG/1.1/DTD/svg11.dtd">
<!-- Creator: CorelDRAW -->
<svg xmlns="http://www.w3.org/2000/svg" xml:space="preserve" width="100%" height="100%" version="1.1" style="shape-rendering:geometricPrecision; text-rendering:geometricPrecision; image-rendering:optimizeQuality; fill-rule:evenodd; clip-rule:evenodd"
viewBox="0 0 1919.88 1860.67"
 xmlns:xlink="http://www.w3.org/1999/xlink"
 xmlns:xodm="http://www.corel.com/coreldraw/odm/2003">
 <defs>
  <style type="text/css">
   <![CDATA[
    .fil0 {fill:#003399}
   ]]>
  </style>
 </defs>
 <g id="Layer_x0020_1">
  <metadata id="CorelCorpID_0Corel-Layer"/>
  <path class="fil0" d="M0.84 1637.03c0,242.25 -20.22,223.29 138.18,223.29l1693.2 0c106.84,0 86.02,-43.21 86.02,-223.29 0,-131.09 -99.39,-94.2 -337.36,-92.54 -138.02,0.96 -1003.71,-18.07 -1058.43,13.19 25.38,34.03 53.38,18.74 106.63,23.48 0.04,50.39 -6.61,47.43 12.58,86 39.73,-32.31 9.3,-27.35 30.57,-89.04l78.37 1.52 17.23 142.38c1.13,2.51 3.73,6.52 6.12,9.39 8.48,-14.33 4.01,9.77 11.62,-29.84 2.79,-14.53 3,-22.04 3.61,-36.77 1.08,-25.84 -0.9,-59.46 -0.9,-86.28l91.78 2.87c0.05,51.02 -6.79,47.16 12.94,85.83 33.61,-27.93 20.12,-34.39 20.17,-89.41l93.11 0c0.02,54.19 -13.07,60.31 19.01,90.4l14.05 -89.18 91.79 1.73c-0.05,53.87 -8.45,110.87 13.21,149.87 35.48,-27.18 19.87,-104.97 19.87,-152.82l72.72 0.07c33.08,43.39 0.92,54.86 39.69,90.04l13.77 -88.43 92.49 1.65c0.04,51.15 -6.77,47.63 12.8,86.11 30.11,-26.03 4.9,1.16 17.5,-33l22.19 -56.39 72.94 0.3c0,47.9 -15.58,125.01 19.66,152.67 21.93,-38.89 13.44,-96.85 13.44,-150.94l92.49 1.25c0.04,50.84 -3.89,53.48 13.12,86.23 33.2,-28.74 19.89,-34.7 19.94,-89.27l92.35 0.3c0.04,54.88 -13.37,60.46 19.98,89.13l13.12 -87.36 91.33 2.17 0.1 239.25 -1848.27 0.89 -0.12 -238.73 91.55 -3.12c0.04,49.41 -6.26,48.11 11.98,86.59 34.79,-27.38 21.03,-33.39 21.09,-89.4 96.24,0 82.26,9.78 107.07,-20.12 -39.52,-24.63 -117.79,-14.96 -168.8,-14.26 -81.24,1.11 -97.5,9.33 -97.5,93.61z"/>
  <path class="fil0" d="M366.39 1595.98l56.19 -2.2c-11.08,31.3 5.4,0.85 -14.12,34.62 -9.58,16.57 -11.12,13.02 -20.95,22.84l-21.11 -55.26zm-29.19 -38.13c-23.51,-75.68 -21.07,-85.02 -19.55,-181.78l153.73 -2.04c2.52,80.78 9.18,108.59 -19.62,183.31l-114.56 0.51zm-16.49 -221.68c-17.85,-137.78 -3.41,-382.85 -3.41,-532.32 0,-284.63 -40.71,-422.08 138.82,-356.67 31.12,80.11 21.48,826.28 9.18,892.98l-144.59 -3.99zm69.62 381.8c152.22,-91.04 114.55,-498.51 114.55,-649.62 0,-127.84 -0,-255.68 0,-383.52 0,-121.12 36.06,-281.32 -102.26,-286.57 -148.43,-5.63 -119.05,137.04 -119.01,260.12l-0.28 767.25c-0.52,95.78 39.06,223.26 107,292.34z"/>
  <path class="fil0" d="M1724.7 621.54l0.72 762.33 -764.28 3.8c15.76,-64.84 481.7,-506.61 563.18,-587.47 44.48,-44.16 144.69,-167.38 200.38,-178.66zm-790.85 777.44c30.09,20.74 30.13,21.27 78.2,21.27l661 0c71.38,0 87.97,-16.22 87.97,-87.39l0 -661.24c0,-52.67 -0.9,-55.22 -34.64,-84.75 -60.48,8.13 -170.26,138.57 -216.8,185.36l-495.91 496.18c-38.96,38.55 -91,63.01 -79.83,130.58z"/>
  <path class="fil0" d="M621.9 202.16c83.48,-13.05 683.22,-14.44 736.64,2.72 12.08,37.8 12.78,102.29 -1.2,138.76 -49.47,15.92 -673.86,16 -731.33,1.2 -15.41,-36.63 -14.25,-92.78 -4.11,-142.69zm-40.29 46.26c0,110.76 -10.52,136.65 86.52,136.65l648.19 0c94.14,0 83.7,-29.95 83.7,-136.65 0,-113.33 -56.85,-85.96 -163.06,-85.28l-489.48 0.01c-107.07,-0.68 -165.87,-26.39 -165.87,85.27z"/>
  <path class="fil0" d="M930.62 23.59c2.94,2.01 7.36,1.4 9.14,5.54 1.8,4.19 7.04,4.17 9.63,4.86l261.09 5.58c77.14,0 209.04,-26.35 256.59,33.95 40.59,116.13 -23.09,579.83 21.2,658.4 40.88,-24.85 21.63,-242.17 21.63,-298.36 0,-487.27 91.37,-431.19 -498.42,-428.55 -3.37,0.02 -38.36,0.67 -39.48,0.85 -45.98,7.75 -19.5,1.32 -41.39,17.72z"/>
  <path class="fil0" d="M1326.5 1228.85c22.93,-43.8 196.95,-219.31 244.37,-241.48l0.22 242.02 -244.59 -0.54zm-59 32.11l273.69 2.82c80.94,-0.1 68.42,1.09 62.96,-288l-1.8 -47.84c-46.88,-1.92 -127.21,97.93 -181.44,152.5 -53.8,54.13 -153.97,134.39 -153.4,180.52z"/>
  <path class="fil0" d="M482.93 380.23c35.98,-21.06 22.26,-5.67 21.95,-145.04 -0.13,-59.65 -4.9,-110 9.73,-167.96 65.38,-52.76 112.76,-4.28 160.49,-43.65 -31.23,-28.75 -199.69,-62.14 -202.91,105.21 -1.41,73.17 -17.44,190.02 10.74,251.43z"/>
  <path class="fil0" d="M618.06 546.46l80.48 -3.08 8.28 85.1 -88.08 3.7 -0.67 -85.72zm-36.45 32.57c-0.06,65.57 -2.01,88.21 73.29,88.18 69.18,-0.03 86.61,-1.79 86.45,-74.95 -0.22,-100.08 -32.74,-85.97 -140.24,-79.6 -10.87,22.06 -19.47,31.94 -19.5,66.38z"/>
  <path class="fil0" d="M618.51 763.6l88.57 3.68 -6.5 84.53 -81.98 -2.32 -0.1 -85.89zm-23.78 -19.75c-51.82,136.28 8.51,153.88 126.45,137.85 22.77,-40.61 36.5,-88.65 -0.15,-143.02 -37.4,-14.18 -90.8,-19.39 -126.31,5.17z"/>
  <path class="fil0" d="M1146.63 765.15l-7.47 85.5c-45.15,4.04 -41.59,8.18 -74.18,-6.94 -15.06,-32.68 -10.96,-29.1 -7.19,-78.35l88.84 -0.2zm-125.09 38.7c0.03,57.93 9.35,83.17 69.9,83.25 100.55,0.13 91.53,-11.27 85.81,-128.62 -40.9,-29.41 2.57,-24.39 -72.52,-30.77 -67.96,-4.76 -83.22,9.06 -83.19,76.13z"/>
  <path class="fil0" d="M619.72 984.92l79.22 -2 9.44 84.57 -91.48 4.39 2.82 -86.95zm35.17 122.26l66.69 -6.67c98.92,-163.93 -131.76,-209.64 -141.04,-85.63 -4.41,58.95 9.56,100.76 74.35,92.3z"/>
  <path class="fil0" d="M1277.51 545.17l81.52 -1.42 6.99 83.79 -87.89 5.61 -0.62 -87.98zm-36.09 33.87l2.96 58.56c40.78,29.03 -2.28,23.65 71.88,30.36 122.33,11.07 112.99,-159.26 13.3,-159.26 -63.35,0 -92.5,3.61 -88.13,70.35z"/>
  <path class="fil0" d="M838.38 760.87l85.91 10.68c8.63,88.89 5.34,84.5 -85.34,80.52l-0.57 -91.2zm-36.97 42.99c0.17,73.79 1.47,83.31 78.37,83.25 115.76,-0.1 112.48,-158.49 13.22,-158.67 -66.69,-0.12 -91.76,5.2 -91.59,75.42z"/>
  <path class="fil0" d="M842.17 543.9c89.62,-5.73 90.54,-10.76 82.69,85.35l-89.35 2.7 6.66 -88.05zm-40.76 35.13c-0.19,68.89 8,88.34 78.37,88.18 128.46,-0.28 99.8,-158.44 13.22,-158.52 -71.42,-0.06 -91.39,-3.28 -91.59,70.35z"/>
  <path class="fil0" d="M1140.48 545.01c4.42,20.58 8.87,22.48 7.05,47.3l-4.15 41.24 -86.16 -7.12 -2.04 -47.39c-2.93,-53.77 35.59,-39.02 85.3,-34.03zm-118.95 34.03c0,100.93 18.84,90.53 129.09,85.46 27.01,-40.7 22.71,1.81 30.33,-72.15 12.69,-123.1 -159.42,-112.34 -159.42,-13.31z"/>
  <path class="fil0" d="M837.11 988.91c80.71,-25.73 108.33,2.02 82.35,79.06l-82.76 5.61 0.41 -84.67zm-26.41 -31.86c-9.74,44.65 -9.88,98.01 2.12,138.77 40.64,12.02 94.32,11.88 136.5,1.89 12.35,-41.31 12.3,-97.53 1.76,-140.15 -63.3,-16.05 -65.59,-8.78 -140.37,-0.51z"/>
  <path class="fil0" d="M587.07 1253.51c53.86,22.92 351.83,21.3 393.2,-2.15 -27.33,-37.35 -87.7,-20.69 -193.1,-20.69l-159.84 -1.09c-78.13,9.68 -15.06,8.39 -40.27,23.93z"/>
  <path class="fil0" d="M1241.41 803.86c0.06,39.69 -3,92.34 74.48,84.19 72.13,-7.59 16.78,-0.04 39.23,-18.06 -27.52,-20.88 -43.93,-11.76 -76.49,-26.45l-2.74 -78.13c134.96,-14.16 64.47,16.73 106.56,76.72 14.15,-17.59 26.26,-39.54 15.22,-77.1 -14.65,-49.84 -58.14,-37.09 -126.89,-33.56 -22.73,29.03 -29.44,18.7 -29.37,72.39z"/>
  <path class="fil0" d="M1021.53 1028.69l9.43 71.29c46.69,7.93 60.5,15.8 103,-5.17 -28,-36.78 -17.48,-13.1 -77.5,-29.63 -3.26,-86.92 -8.72,-89.04 80.83,-81.13l17.9 80.41c130.69,-88.62 -159.59,-194.13 -133.67,-35.76z"/>
  <path class="fil0" d="M231.59 898.01c27.55,-17.42 22.23,7.94 22.23,-54.48l0 -224.82c0,-59.81 8.81,-40.41 -22.2,-62.12 -20.87,39.63 -22.2,291.32 -0.04,341.42z"/>
 </g>
</svg>
