<?xml version="1.0" encoding="UTF-8"?>
<!DOCTYPE svg PUBLIC "-//W3C//DTD SVG 1.1//EN" "http://www.w3.org/Graphics/SVG/1.1/DTD/svg11.dtd">
<!-- Creator: CorelDRAW -->
<svg xmlns="http://www.w3.org/2000/svg" xml:space="preserve" width="100%" height="100%" version="1.1" style="shape-rendering:geometricPrecision; text-rendering:geometricPrecision; image-rendering:optimizeQuality; fill-rule:evenodd; clip-rule:evenodd"
viewBox="0 0 1979.17 1979.68"
 xmlns:xlink="http://www.w3.org/1999/xlink"
 xmlns:xodm="http://www.corel.com/coreldraw/odm/2003">
 <defs>
  <style type="text/css">
   <![CDATA[
    .fil0 {fill:#003399}
   ]]>
  </style>
 </defs>
 <g id="Layer_x0020_1">
  <metadata id="CorelCorpID_0Corel-Layer"/>
  <path class="fil0" d="M1199.05 1235.33l42.39 23.89c-33.89,33.15 -54.18,46.27 -99.52,63.52l57.13 -87.41zm-190.93 -27.37l120.37 9.59c39.6,13.16 10.45,4.09 26.57,14.21 -32.36,64.37 -62.5,113.61 -146.84,122.1l-0.1 -145.9zm-171.84 114.72c-50.95,-22.49 -70.36,-34.32 -100,-69.47l44.51 -16.15c23.28,33.63 29.5,54.45 55.48,85.62zm136.32 -115.24l-0.65 146.5c-82.2,-8.16 -120.15,-59.39 -146.58,-122.18 30.5,-25.54 97.37,-28.16 147.23,-24.32zm35.47 -197.91l209.51 0.01 -38.33 177.01 -168.88 -21.47 -2.3 -155.55zm-240.05 -1.75l205.73 5.31 -9.65 151.29 -167.24 22.73 -28.85 -179.33zm479.21 0.41l112.47 2.82c-8.75,85.69 -33.61,175.83 -96.91,211.58l-44.78 -20.1 29.23 -194.3zm-519.31 5.43c13.33,54.52 39.61,152.65 28.13,193.14l-55.59 11.64c-46.3,-55.3 -70.37,-121.28 -79.4,-209.62l106.86 4.84zm454.96 -219.44l28.33 178.83 -203.51 -5.72 5.43 -150.83 169.75 -22.27zm-382.57 -0.02l170.06 21.65 1.19 155.47 -207.59 -1.66 36.34 -175.47zm-178.43 175.14c5.31,-83.89 32.71,-154.96 78.57,-206.72 64.22,8.54 78,-12.56 27.48,208.57l-106.05 -1.85zm736.83 1.07l-109.02 -4.76c-34.96,-204 -51.94,-188.83 27.46,-204.56 50.32,60.81 74.66,110.2 81.56,209.31zm-350.6 -341.39c73.41,1.76 123.14,63.98 146.9,122.33 -39.43,21.93 -93.55,26.59 -146.26,22.04l-0.64 -144.38zm-182.81 122.33c21.3,-60.98 69.87,-120.2 147.54,-123.02l-2.38 145.57c-50.79,3.04 -106.88,-0.09 -145.15,-22.56zm414.1 -16.14c-69.68,4.94 -54.12,-20.76 -94.94,-77.1 28.43,9.57 35.02,9.77 60.24,28.2 42.5,31.05 23.19,10.12 34.7,48.91zm-499.15 -1c13.9,-42.06 33.54,-52.37 95.46,-75.65 -3.75,5.62 -34.1,55.67 -34.75,56.46 -35.25,42.97 -5.51,25.81 -60.71,19.19zm159.72 -135.85c-531.5,124.21 -332.8,924.88 197.51,782.83 184.95,-49.54 346.96,-246.51 286.68,-487.96 -47.7,-191.06 -239.17,-352.12 -484.19,-294.86z"/>
  <path class="fil0" d="M1753.75 1921.85c18.07,-54.43 121.37,-148.41 155.04,-166.21 40.22,56.72 14.43,69.96 -25.31,109.7 -41.03,41.04 -53.56,73.38 -129.73,56.51zm-41.15 -43.28c-189.22,-224.93 -291.76,-197.94 -152.16,-336.37 85.86,-85.14 103.95,-32.59 169.74,32.83 45.88,45.63 112.06,104.95 144.32,150.91 -36.78,56.5 -107.88,131.04 -161.9,152.63zm-384.49 -449.4c19.21,-46.8 54.04,-74.21 87.92,-100.52l148.04 150.2c-18.15,37.8 -44.32,61.22 -80.95,85.04 -63.37,-30.37 -98.43,-94.56 -155.01,-134.71zm-604.97 -887.56c99.05,8.98 185.27,-87.93 387.8,-37.58 401.1,99.72 488.59,599.5 229.5,845.82 -262.99,250.04 -739.2,148.66 -835.58,-236.98 -51.91,-207.73 38.33,-265.31 37.04,-378.22 -150.56,48.35 -151.73,721.19 378.27,786.46 184.55,22.73 240.13,-28.38 370.72,-82.91 37.37,22.02 102.74,89.83 135.3,124.94 60.56,65.3 5.75,77.68 95.15,165.79 77.96,76.85 218.68,251.03 291.33,233.43 43.77,-22.22 156.36,-115.35 150.09,-179.47 -5.33,-54.57 -112.08,-142.91 -149.69,-180.72 -251.53,-252.89 -124.64,-53.51 -281.69,-212.7 -32.65,-33.09 -55.84,-57.23 -90.48,-89.07 21.22,-101.46 209.85,-360.44 -54.13,-672.58 -191.28,-226.17 -593.34,-200.11 -663.62,-86.21z"/>
  <path class="fil0" d="M175.86 1595.46c234.11,-52.95 283.45,300.91 79.46,343.8 -241.21,50.72 -302.56,-293.34 -79.46,-343.8zm323.99 -144.06l-141.55 150.14c-110.69,-36.91 -191.66,-90 -296.71,21.06 -186.19,196.85 92.07,476.1 288.89,302.61 111.77,-98.52 75.22,-171.37 31.03,-295.36 31.94,-49.35 104.05,-125.88 154.19,-149.9 110.47,80.39 242.61,168.04 404.06,174.68 69.58,2.87 47.96,5.97 61.6,-24.78 -52.69,-21.3 -166,-23.37 -246.6,-54.45 -70.54,-27.2 -138.68,-73.33 -186.7,-115.25 4.49,-74.01 18.74,-1 18.48,-71.75 -43.94,14.26 -13.52,15 -64.57,22.5 -155.5,-160.23 -138.71,-384.79 -178.5,-434.67 -102.11,116.15 145.94,453.36 156.38,475.17z"/>
  <path class="fil0" d="M1708.28 51.38c207.98,-88.88 340.48,236.28 126.35,323.91 -201.35,82.4 -365.77,-221.59 -126.35,-323.91zm-109.35 301.83l-142.32 149.2c-52.78,-21.45 -83.49,-67.98 -205.6,-122.7 -70.03,-31.38 -205.59,-80.77 -274.43,-40.23 29.09,42.23 101.65,9.03 239.01,61.85 92.76,35.67 136,81.85 198.5,117.71 -7.79,50.74 -7.92,21.27 -27.46,71.31l67.26 -28.48c189.09,277.42 117.61,192.45 168.23,407.14 9.62,40.8 2.54,15.84 12.03,33.88 30.98,-37.76 19.09,-86.45 8.94,-137.98 -39.97,-202.85 -116.71,-247 -163.58,-333.26l140.1 -150.46c110.89,26.68 183.99,94.02 296.84,-20.19 77.21,-78.13 85.77,-198.99 10.8,-287.02 -64.36,-75.57 -196.28,-106.82 -292.76,-22.54 -116.45,101.71 -79.43,167.96 -35.57,301.75z"/>
  <path class="fil0" d="M46.18 270.85c-79.92,-238.9 280.5,-326.68 336.35,-106.66 57.9,228.12 -267.32,313 -336.35,106.66zm315.88 106.7c32.51,40.67 177.29,198.04 231.83,214.75 -27.35,-80.82 -157.08,-168.39 -212.11,-239.08 40.78,-116.17 79.3,-192.69 -22,-290.81 -194.69,-188.56 -480.15,91.62 -305.38,291.56 96.2,110.06 192.87,66.54 307.67,23.58z"/>
  <path class="fil0" d="M574.01 676.23c29.22,-6.34 24.21,-1.86 52.96,-25.72 32.17,-26.7 28.4,-20.59 32.91,-67.9 -46.34,18.47 -76.83,41.2 -85.87,93.62z"/>
 </g>
</svg>
