<?xml version="1.0" encoding="UTF-8"?>
<!DOCTYPE svg PUBLIC "-//W3C//DTD SVG 1.1//EN" "http://www.w3.org/Graphics/SVG/1.1/DTD/svg11.dtd">
<!-- Creator: CorelDRAW -->
<svg xmlns="http://www.w3.org/2000/svg" xml:space="preserve" width="100%" height="100%" version="1.1" style="shape-rendering:geometricPrecision; text-rendering:geometricPrecision; image-rendering:optimizeQuality; fill-rule:evenodd; clip-rule:evenodd"
viewBox="0 0 2013.3 1924.21"
 xmlns:xlink="http://www.w3.org/1999/xlink"
 xmlns:xodm="http://www.corel.com/coreldraw/odm/2003">
 <defs>
  <style type="text/css">
   <![CDATA[
    .fil0 {fill:#003399}
   ]]>
  </style>
 </defs>
 <g id="Layer_x0020_1">
  <metadata id="CorelCorpID_0Corel-Layer"/>
  <path class="fil0" d="M1546.41 845.26l58.99 -85.26 41.72 21.06c-31.11,24.85 -59.4,44.8 -100.71,64.2zm-310.16 -100.69l145.83 -18.19 -0.75 148.05c-86.66,-12.48 -109.8,-61.11 -145.09,-129.87zm180.06 130.02l0 -146.91 146.62 18.08c-34.93,74 -54.17,111.2 -146.62,128.83zm-234.14 -334.08l196.61 -0.47 3.39 151 -169.49 20.31 -30.51 -170.83zm436.65 190.33l35.69 -189.03 98.86 -2.48c3.25,55.67 -5.84,89.9 -29.11,137.08 -32.68,66.29 -34.96,72.98 -105.44,54.43zm-30.2 -18.46l-170.13 -23.42 -0.53 -144.91 194.32 -3.72 -23.67 172.05zm-543.89 -171.57l102.93 1.27 30.98 185.05 -63.03 24.15c-28.74,-57.38 -73.63,-123.12 -70.88,-210.46zm372.27 -184.64l169.52 -26.65 29.86 168.89 -196.38 5.02 -2.99 -147.26zm-204.31 -22.34l169.72 19.23 -1.52 149.48 -191.69 2.01c-6.11,-63.13 10.1,-113.38 23.48,-170.72zm539.49 170.09l-98.42 -0.72c-23.06,-114.43 -57.37,-219.86 16.23,-201.91 53.14,12.95 88.31,134.68 82.19,202.63zm-606.56 -6.87l-99.87 7.64c-4.35,-98.69 38.42,-147.63 68.27,-209.93l64.54 20.26 -32.94 182.02zm272.77 -330.44c91.5,21.37 106.98,54.64 144.48,131.15l-146.94 17.59 2.46 -148.74zm-181.64 132.12c22.92,-64.28 71.43,-121.75 145.65,-131.78l-0.32 149.78 -145.33 -18zm-83.04 -25.83c29.24,-52.81 39.11,-48.17 89.78,-68.35 -1.69,3.3 -34.51,62.02 -34.86,62.35 -23.51,22.84 -14.45,13.63 -54.92,6zm491.83 -5.48c-58.08,25.88 -66.5,-10.99 -88.2,-69.49l88.2 69.49zm132.51 359.82c142.59,-493.75 -611.13,-712.13 -755.25,-217.17 -148.43,509.75 611.44,715.17 755.25,217.17z"/>
  <path class="fil0" d="M728.8 953.1c-63.03,-236.44 256.24,-61.59 309.13,-156.94 -57.28,-20.85 -176.78,-13.76 -248.7,-6.52 -83.19,8.38 -112.53,71.39 -95.13,167.81 16.11,89.31 98.85,83.9 186.91,83.41l780.52 -0.14c190.37,0 308.16,-35.87 318.65,75.88 5.46,58.18 -7.28,76.02 -28.63,92.89 -54.22,37.94 -418.24,17.52 -514.9,17.52 -138.43,0 -394.85,-52.37 -329.3,164.69l11.82 21.3c28.98,-53.3 -2.82,-104.74 39.68,-138.85 62.63,-32.06 391.94,-14.05 489.45,-14.05 257.2,0 364.69,40.11 365,-130.31 0.27,-151.34 -114.82,-122.82 -245.94,-122.71 -177.7,0.15 -967.25,19.94 -1020.23,-19.87l-18.32 -34.11z"/>
  <path class="fil0" d="M665.33 1874.78c-8.37,-94.66 -4.37,-225.54 -3.69,-323.34 0.54,-77.03 9.72,-73.12 85.73,-72.57 236.19,1.7 621.72,-14.55 816.73,3.02l3.9 401.08c-106.3,10 -844.76,16.02 -902.67,-8.19zm-25.93 -417.87c-20.25,77.37 -11.31,264.81 -10.87,361.45 0.37,78.91 0.8,98.97 79.69,101.86 151.62,5.57 824.29,8.58 883.48,-13.84 20.19,-54.09 13.36,-266.67 13.46,-354.26 0.12,-106.12 -14.04,-83.2 -25.12,-91.78 -49.88,-31.08 -858.04,-25.56 -940.64,-3.43z"/>
  <path class="fil0" d="M484.2 598.83l-198.52 1.08 -60.65 -10.47 7.62 -42.05c44.41,-18.33 277.85,-20.71 331.51,0.44l0.06 46.01 -80.03 4.98zm-232.09 125.03c38.69,-15.22 25.67,30.42 39.51,-91.68l212.6 4.37c-0.13,537.92 -24.91,382.15 96.5,469.49 105.54,75.92 141.21,169.1 156.57,296.34l30.2 7.78c-4.22,-198.14 -106.64,-319.62 -250.61,-373.77l-0.05 -382.7c34.3,-54.97 25.94,7.57 56.41,-49.71 70.76,-133.06 -175.07,-98.97 -188.41,-98.96 -32.4,0.03 -283.72,-32.67 -205.11,101.44 17.96,30.63 21.07,16.87 52,34l0.39 83.4z"/>
  <path class="fil0" d="M589.96 1712.46c-125.84,36.19 -190.21,79.11 -337.52,19.22 -193.8,-78.81 -280.86,-329.84 -163.49,-520.78 90.62,-147.43 204.09,-113.43 196.94,-200.12 -12.48,-50.71 14.17,-16.42 -36.31,-32.47l1.95 51.8c-97.39,57.53 -162.9,97.22 -211.29,198.09 -166.3,346.65 215.36,707.27 552.81,509.93l-3.08 -25.66z"/>
  <path class="fil0" d="M381.42 1116.56c39.72,35.98 127.8,28.97 182.37,79.41 68.94,63.72 63.26,106.39 105.6,155.63 14.19,-19.04 23.96,0.96 6.82,-54.97 -0.72,-2.34 -21.58,-44.46 -22.2,-45.52 -61.4,-106.12 -207.33,-179.2 -272.6,-134.55z"/>
  <path class="fil0" d="M923.59 1804.26c23.35,40.02 199.74,20.13 288.39,21.25 56.2,0.72 69.85,13.2 97.77,-21.25 -17.03,-8.05 10.98,-5.26 -32.11,-11.43 -63.24,-9.06 -321.83,-7.32 -354.05,11.43z"/>
  <path class="fil0" d="M353.07 98.24c-20.75,-70.59 63.19,-77.31 82.13,-31.5 25.31,61.22 -67.92,79.87 -82.13,31.5zm-19.64 44.57c133.04,48.19 174.63,-63.49 118.71,-118.33 -60.07,-58.91 -161,-8.44 -118.71,118.33z"/>
  <path class="fil0" d="M274.16 341.1l-72.16 -1.54c-10.76,-41.87 -16.87,-30.52 4.57,-69.39 72.98,-34.97 81.04,13.35 67.59,70.93zm-81.2 -108.17c-67.88,80.89 -11.88,173.74 75.08,140.46 71.85,-27.5 76.12,-174.82 -75.08,-140.46z"/>
  <path class="fil0" d="M508.37 296.62c66.8,35.62 42.6,58.21 81.66,79.28 42.89,-103.8 31.48,-25.45 69.03,-85.17l-57.8 -6.44 -11.23 -56.05c-71.86,42.2 40.22,10.54 -81.66,68.38z"/>
  <path class="fil0" d="M1032.55 1552.99c16.25,25.89 31.53,42.8 59.39,0 -28.21,-16.35 -21.61,-23.53 -59.39,0z"/>
  <path class="fil0" d="M1360.92 1551.24c16.13,23.57 33.3,47.79 59.29,1.75 -27.45,-15.2 -33.04,-20.78 -59.29,-1.75z"/>
  <path class="fil0" d="M1360.92 1802.33c16.16,23.07 32.67,47.8 59.4,1.93 -27.07,-15.22 -32.93,-21.17 -59.4,-1.93z"/>
  <path class="fil0" d="M923.69 1552.99c25.19,44.07 42.09,23.53 57.33,0 -34.51,-20.37 -27.09,-16.93 -57.33,0z"/>
  <path class="fil0" d="M1253.38 1552.99c24.61,40.72 33.81,28.12 56.38,0 -32.66,-14.63 -13.98,-22.93 -56.38,0z"/>
  <path class="fil0" d="M814.05 1552.99c24.35,35.91 32.66,32.65 56.45,0 -34.62,-16.79 -18.25,-19.38 -56.45,0z"/>
  <path class="fil0" d="M814.01 1804.26c24.62,35.56 32.55,32.43 56.37,0 -34.78,-17.2 -18.49,-19.57 -56.37,0z"/>
  <path class="fil0" d="M704.63 1804.26c23.29,29.27 31.7,38.43 56.26,0 -41.35,-21.92 -22.66,-15.43 -56.26,0z"/>
  <path class="fil0" d="M704.65 1552.99c23.09,29.52 31.89,38.74 56.2,0 -41.09,-21.42 -22.45,-15.24 -56.2,0z"/>
  <path class="fil0" d="M1473.41 1552.99c23.83,32.14 32.06,36 56.44,0 -38.82,-19.33 -21.39,-16.47 -56.44,0z"/>
  <path class="fil0" d="M1143.7 1552.99c24.16,33.89 32.37,34.3 56.44,0 -36.59,-17.85 -19.99,-17.6 -56.44,0z"/>
  <path class="fil0" d="M1473.45 1804.26c23.99,31.86 31.7,35.71 56.44,0 -38.65,-19.61 -21.38,-16.8 -56.44,0z"/>
 </g>
</svg>
