<?xml version="1.0" encoding="UTF-8"?>
<!DOCTYPE svg PUBLIC "-//W3C//DTD SVG 1.1//EN" "http://www.w3.org/Graphics/SVG/1.1/DTD/svg11.dtd">
<!-- Creator: CorelDRAW -->
<svg xmlns="http://www.w3.org/2000/svg" xml:space="preserve" width="100%" height="100%" version="1.1" style="shape-rendering:geometricPrecision; text-rendering:geometricPrecision; image-rendering:optimizeQuality; fill-rule:evenodd; clip-rule:evenodd"
viewBox="0 0 2038.16 1633.24"
 xmlns:xlink="http://www.w3.org/1999/xlink"
 xmlns:xodm="http://www.corel.com/coreldraw/odm/2003">
 <defs>
  <style type="text/css">
   <![CDATA[
    .fil0 {fill:#003399}
   ]]>
  </style>
 </defs>
 <g id="Layer_x0020_1">
  <metadata id="CorelCorpID_0Corel-Layer"/>
  <path class="fil0" d="M0.02 605.57l2.71 758.01c-1.27,320.3 145.77,263.17 498.31,263.03 252.73,-0.1 505.46,-0.01 758.19,-0.01 345.3,0 583.02,71.03 550.89,-251.62 -69.07,38.7 1.8,75.25 -52.16,154.82 -31.17,45.96 -80.68,63.87 -152.88,63.87l-1396.67 0c-135.63,0 -172.13,-58.46 -172.13,-190.19l0 -917.58c3.92,-227.59 133.04,-194.41 331.75,-194.06l132.96 -0.82c32.07,-6.23 -4.82,19.56 40.35,-17.9 -51.66,-33.47 -260.59,-14.73 -333.35,-14.73 -214,0 -207.96,149.2 -207.96,347.19z"/>
  <path class="fil0" d="M703.98 1152.86l218.69 -2.02 1.24 153.56 -218.11 2.54 -1.83 -154.08zm1290.82 136.59c-73.3,32.35 -898.35,30.37 -1034.84,14.26l-1.65 -148.93 48.1 -5.72 890.89 0.95c107.83,0 117.74,44.66 97.5,139.44zm-1475.23 -56.15l145.61 -70.91 2.86 128.38 -148.47 -57.48zm-68.59 -2.71c33.31,35.99 215.95,111.84 276.18,111.84l931.11 -1.72c90.22,0 309.12,22.73 355.81,-33.73 30.96,-37.44 32.34,-116.31 2.45,-155.41 -31.76,-41.54 -95.44,-34.98 -158.39,-34.68l-1144.12 -2.81c-38.61,2.86 -237.45,81.02 -263.04,116.51z"/>
  <path class="fil0" d="M619.02 57.38c45.69,-20.69 518.54,-49.11 569.62,8.02 37.94,38.19 33.8,486.94 9.43,544.8 -36.71,55.54 -524.71,33.98 -577.85,10.39 -20.79,-74.04 -19.98,-485.36 -1.2,-563.2zm13.1 -42.06c-84.31,40.71 -56.98,181.67 -56.97,284.39 0.01,399.67 -45.44,373.72 298.34,373.71 402.13,-0.01 369.84,43.28 369.83,-293.92 -0.01,-404.24 44.35,-374.95 -290.02,-374.93 -74.89,0 -266.69,-15.56 -321.18,10.75z"/>
  <path class="fil0" d="M1527.94 1387.69l-9.23 75.33c-12.35,0.96 -1175.14,14.7 -1254.27,0.17 -31.89,-5.86 -9.05,1.09 -26.35,-10.75 -23.77,-26.57 -9.83,-408.37 -9.42,-501.12 0.11,-25.56 3.32,-71.59 1.81,-93.96 -5.02,-74.23 -7.04,-57.15 -27.25,-68.16 -18.42,46.27 -25.53,651.93 9.92,688.75 35.81,37.2 71.03,21.86 168.19,21.6l1118.78 0.22c74.74,-8.21 62.51,-40.88 59.72,-118.98l-31.89 6.9z"/>
  <path class="fil0" d="M1276.98 273.11c16.43,15.8 -7.07,5.99 25.21,14.72 137.75,37.25 457.83,-83.39 478.95,144.21l0.73 506.03c-0.26,52.18 -15.16,122.92 22.73,144.19 22.54,-46.38 19.95,-593.7 8.19,-673.17 -36.74,-248.51 -535.65,-136.1 -535.81,-135.98z"/>
  <path class="fil0" d="M1290.05 413.26l232.74 7.67 8.17 649.42 26.5 10.59 3.23 -666.89 -32.71 -23.54c-48.24,-7.39 -99.15,-4.85 -149.46,-5.22 -46.03,-0.34 -122.38,-11.79 -88.49,27.97z"/>
  <path class="fil0" d="M800.68 263.51l36.48 91.43 -80.69 -6.33 44.2 -85.1zm-113.42 216.03c31.77,-24.17 36.85,-55.8 48.28,-91.41 222.85,-2.93 78.84,30.49 177.85,91.36 20.63,-38.21 -87.83,-262.97 -119.72,-280.91 -26.28,32.91 -50.94,96.32 -69.63,138.31 -16.95,38.09 -62.2,108.54 -36.78,142.64z"/>
  <path class="fil0" d="M1671.59 865.48c57.52,36.72 47.12,126.17 0,154.49 -52.83,-32.3 -50.25,-121.84 0,-154.49zm-45.54 -24.8c-30.08,65.62 -18.5,114.65 -10.87,193.26 97.88,44.78 120.65,8.87 120.65,-95.91 0,-68.95 -31.04,-143.42 -109.78,-97.35z"/>
  <path class="fil0" d="M201.07 529.5c37.28,-19.93 18.32,-1.21 28.37,-43.67 0.21,-0.9 1.13,-47.33 2.2,-56.9 70.04,-24.2 214.61,-7.35 297.14,-11.58 8.52,-12.62 19.8,21.99 4.85,-29.65 -99.34,-7.45 -269.97,-21.2 -334.3,20.72l1.74 121.08z"/>
  <path class="fil0" d="M1003.38 284.93c-79.07,12.24 -57.6,-1.54 -74.26,28.07l73.32 15.58c2.09,45.4 -7.24,41.27 17.37,71.72 26.73,-29.92 16.56,-22.87 18.59,-71.04l74.1 -11.29c-21.85,-42.81 -15.21,-22.76 -74.94,-33.59 -0.09,-8.5 0.41,-31.15 -1.64,-38.18 -7.52,-25.85 -7.59,-19.2 -16.12,-31.67l-16.42 70.39z"/>
 </g>
</svg>
