<?xml version="1.0" encoding="UTF-8"?>
<!DOCTYPE svg PUBLIC "-//W3C//DTD SVG 1.1//EN" "http://www.w3.org/Graphics/SVG/1.1/DTD/svg11.dtd">
<!-- Creator: CorelDRAW -->
<svg xmlns="http://www.w3.org/2000/svg" xml:space="preserve" width="100%" height="100%" version="1.1" style="shape-rendering:geometricPrecision; text-rendering:geometricPrecision; image-rendering:optimizeQuality; fill-rule:evenodd; clip-rule:evenodd"
viewBox="0 0 1779.11 1547.1"
 xmlns:xlink="http://www.w3.org/1999/xlink"
 xmlns:xodm="http://www.corel.com/coreldraw/odm/2003">
 <defs>
  <style type="text/css">
   <![CDATA[
    .fil0 {fill:#003399}
   ]]>
  </style>
 </defs>
 <g id="Layer_x0020_1">
  <metadata id="CorelCorpID_0Corel-Layer"/>
  <path class="fil0" d="M1018.34 174.3c0,-53.14 -0.19,-47.87 18.59,-82.13 70.74,-11.66 90.56,11.91 90.56,82.13 0,57.81 6.48,127.54 -14.63,179.44 -112.53,31.97 -94.52,-34.09 -94.52,-179.44zm-45.99 180.71c-92.38,22.07 -95.59,-20.4 -94.88,-109.17 0.43,-53.69 -15.32,-176.18 19.69,-203.07 132.44,-101.73 88.79,273.63 75.2,312.23zm-237.5 -180.71c0,-37.89 5.94,-57.33 20.1,-80.93 77.57,-16.24 88.22,7.22 88.22,80.93 1.53,118.32 9.86,70.94 -12.57,184.7l-81.07 -3.22c-21.86,-58.37 -14.68,-108.43 -14.68,-181.47zm-140.67 23.65c0,-123.14 110.31,-112.08 110.31,0 0,121.12 15.13,185.21 -95.47,156.58 -19.19,-50.5 -14.84,-102.18 -14.84,-156.58zm548.07 166.98c20.85,-51.73 21.03,-164.8 14.28,-225.96 -9.4,-85.23 -61.94,-90.96 -142.51,-69.88 -14.05,-43.06 -32.73,-73.28 -91.47,-68.61 -56.83,4.52 -58.17,40.03 -84.78,67.13 -79.1,-27.67 -79.89,-6.37 -130.13,33.76 -191.97,-82.19 -143.91,176.94 -143.89,321.31 0.01,79.45 -10.05,173.98 19.11,242.99 21.76,51.49 72.72,117.61 119.16,118.21 -7.99,-110.87 -129.65,19.57 -106.37,-402.32 63.73,18.7 78.15,11.2 123.82,-16.39 105.67,55.83 55.18,17.86 134.36,6.17 44.34,-6.55 43.81,44.48 138.67,4.98 -92.89,144.93 68.5,196.96 129.71,140.98 -54.18,-30 -63.02,10.36 -131.32,-37.99l9.98 -71.38c112.57,-40.03 262.14,-24.22 235.42,129.69 -18.24,105.07 -128.95,187.1 -132.17,245.52 59.17,-0.75 318.9,-379.2 38.15,-418.2z"/>
  <path class="fil0" d="M623.23 848.35l529.67 -2.26 2.52 132.66 -531.98 5.59 -0.2 -135.99zm-20.2 146.03c69.71,46.26 430.29,16.56 551.22,21.65l2.92 522.15c33.89,11.48 11.69,16.88 28.44,-15.56 0.13,-120.83 19.48,-621.33 -11.16,-690.59 -19.33,-23.89 -108.52,-16.29 -135.52,-16.18 -103.68,0.43 -376.86,-12.31 -435.83,11.42 -13.12,38.38 -22.01,127.44 -0.07,167.1z"/>
  <path class="fil0" d="M143.66 171.19l73.63 -2.5c13.89,42.55 10.75,91.59 3.71,135.7l-72.43 3.74 -4.91 -136.94zm-33.81 -0.58l3.5 132.98 -71.23 -5.71c-25.34,-79.91 -22.04,-129.47 67.73,-127.27zm412.35 138.16l-266.56 -0.08 0 -139.06 266.56 -0.45 7.57 -26.69c-91.78,-10.7 -222.47,-3.18 -319.01,-3.82 -104.77,-0.69 -215.46,-18.45 -210.59,105.96 4.49,114.86 118.22,96.6 222.43,94.91 102.12,-1.66 205.63,1.17 310.17,-3.03l-10.56 -27.74z"/>
  <path class="fil0" d="M1547.6 308.78l-79.05 0 -0.02 -139.72c69.19,0 103.46,-1.96 163.09,17.06l-0.42 105.15c-38.83,14.22 -36.21,17.51 -83.61,17.51zm120.16 -97.37l48.96 17.35c-19.96,29 10.04,2.7 -26.81,28.61 -2.63,1.84 -18.4,6.53 -22.91,7.76l0.76 -53.72zm-470.52 -44.13l240.62 5.83 0.02 134.55 -240.99 2.99 -4.75 26.71c115.08,3.24 241.03,3.78 356.11,1.45 70.1,-1.42 208.37,-66.92 230.84,-103.07 -25.76,-26.43 -71.61,-43.9 -111.48,-63.65 -54.34,-26.92 -60.26,-32.97 -131.32,-33.27 -114.37,-0.47 -232.19,-1.52 -348.33,1.88l9.28 26.58z"/>
  <path class="fil0" d="M620.88 1536.74l-0.27 -288.5 -15.65 -2.09c-24.54,20.72 -13.96,245.24 -9.94,298.07l25.85 -7.47z"/>
  <path class="fil0" d="M602.13 1176.35c29.99,-7.72 10.42,12.43 20.23,-20.37l-0.02 -59.14c-9.86,-32.83 6.23,-10 -19.81,-20.29 -15.46,26.9 -15.39,72.64 -0.39,99.81z"/>
 </g>
</svg>
