<?xml version="1.0" encoding="UTF-8"?>
<!DOCTYPE svg PUBLIC "-//W3C//DTD SVG 1.1//EN" "http://www.w3.org/Graphics/SVG/1.1/DTD/svg11.dtd">
<!-- Creator: CorelDRAW -->
<svg xmlns="http://www.w3.org/2000/svg" xml:space="preserve" width="100%" height="100%" version="1.1" style="shape-rendering:geometricPrecision; text-rendering:geometricPrecision; image-rendering:optimizeQuality; fill-rule:evenodd; clip-rule:evenodd"
viewBox="0 0 5107.52 4478.64"
 xmlns:xlink="http://www.w3.org/1999/xlink"
 xmlns:xodm="http://www.corel.com/coreldraw/odm/2003">
 <defs>
  <style type="text/css">
   <![CDATA[
    .fil0 {fill:#003399}
   ]]>
  </style>
 </defs>
 <g id="Layer_x0020_1">
  <metadata id="CorelCorpID_0Corel-Layer"/>
  <path class="fil0" d="M1135.48 886.46l134.48 657.86c-155.26,28.2 -524.33,131.48 -657.26,129.71l-135.72 -653.06 658.51 -134.51zm-46.68 -68.8c0,-271.18 -2.56,-351.42 281.98,-350.17 185.86,0.81 456.49,-16.22 631.35,3.5 12.43,134.97 17,190.46 164.59,193.89l684.78 -0.7c142.28,-9.32 126.42,-70.45 146.43,-196.58 202.24,0 404.48,0.03 606.72,0 228.76,-0.03 371.98,-20.95 373.22,235.75l-0.44 2447.67c0,842.65 74.3,854.61 -372.78,854.53 -270.46,-0.06 -2336.8,25.05 -2422.93,-24.75 -134.93,-78.02 -92.92,-329.71 -92.92,-516.76l3.16 -1833.08c71.54,-13.09 165.98,-32.97 221.38,-58 9.07,-81.61 -113.83,-631.81 -144.46,-723.91 -65.55,-25.04 -60.32,14.89 -80.07,-31.37zm1263.82 -434.85c69.59,-33.25 6.86,-32.48 57.77,-105.27 19.93,-28.5 54.33,-47.56 98.36,-46.52 43.3,1.02 76.93,22.18 94.45,51.6 35.95,60.37 3.6,87.33 48.2,100.07 98.04,0.31 253.38,-24.71 286.96,47.24 51.5,110.35 0.85,191.75 -123.35,191.75l-633.12 0c-99.29,0 -133.35,-11.6 -133.51,-117.04 -0.26,-167.97 147.5,-121.84 304.24,-121.84zm-1446.65 1285.99l106.05 -31.44c39.5,16.09 22.11,-9.88 34.4,33.98l3.63 1800.83 0.45 24.43c-50.23,588.61 87.46,551.59 476.94,551.59l2048.76 0c182.37,0 332.29,23.68 408.71,-104.74 59.69,-100.31 35.4,-332.57 35.4,-465.17 0,-678.37 0,-1356.17 0,-2034.58 0,-1175.41 157.36,-1018.07 -1013.2,-1018.07 -27.96,-13.27 -18.43,-8.26 -37.68,-25.87 -6.14,-5.61 -7.02,-10.32 -20.33,-22.65 -20.78,-19.25 -38.59,-29.08 -60.85,-33.47 -187.53,-37.04 -185.65,56.02 -235.91,-54.1 -24.49,-53.66 -56.33,-99.89 -143.22,-101.73 -140.82,-2.98 -127.63,103.72 -184.94,153.19 -166.55,0 -229.91,-30.48 -313,78.78 -166.96,26.02 -510.91,5.09 -697.48,5.67 -264.24,0.82 -267.17,163.83 -267.17,406.45 -11.07,41.59 -49.22,34.07 -148.2,55.35 -51.9,11.16 -101.31,21.39 -151.53,31.66 -47.52,9.72 -285.66,48.31 -306.45,80.96 -21.8,34.22 96.5,535.19 119.68,641.3 36.33,166.35 180.48,38.46 345.96,27.64z"/>
  <path class="fil0" d="M3248.97 2609.01c-235.73,1.18 -1273.95,-20.36 -1340.92,15.59 17.37,14.03 -32.47,25.99 73,31.78 27.13,1.49 71.78,-1.39 101.23,-1.56 241.24,-1.28 1271.86,21.12 1345,-16 -29.87,-49.1 -33.68,-30.54 -178.31,-29.82z"/>
  <path class="fil0" d="M1511.76 2978.72c-15.27,50.48 -39.15,221.26 16.33,255.34 58.17,35.74 203.23,8.25 240.76,-10.61 8.45,-35.75 9.98,-84.13 10.17,-129.88 0.31,-71.13 9.92,-77.7 -28.43,-110.38 -45.73,-36.2 -187.67,-21.7 -238.83,-4.48z"/>
  <path class="fil0" d="M3049.78 3031.5c-111.78,0 -1079.54,-24.17 -1141.82,19.93 21.04,13.35 -23.56,22.98 73.3,27.25 305.08,13.47 931.48,-3.88 1281.98,-1.37 144.82,1.04 132.39,14.67 164.04,-25.89l-192.55 -19.94c-61.65,0.18 -123.31,0.02 -184.96,0.02z"/>
  <path class="fil0" d="M1627.02 1855.85c37.04,-30.79 47.15,-59.02 97.53,-65.95l-97.53 99.21c-38.11,-20.04 -39.29,-19.73 -59.74,-68.35l59.74 35.1zm-121.67 -150.89c-9.76,47.09 -28.66,214.31 7.15,252.1 15.94,16.83 252.97,85.83 268.25,-57.95 5.72,-53.84 9.09,-160.65 -23.69,-188.47 -56.23,-35.71 -190.02,-23.51 -251.71,-5.68z"/>
  <path class="fil0" d="M1627.02 2313.55c-34.78,-20.06 -48.75,-26.79 -58.12,-69.3 29.24,13.14 34.94,22.91 77.51,29.81l69.68 -73.09c-1.32,50.04 -52.8,88.82 -89.07,112.58zm132.85 -177.67c-32.47,-23.31 -198.93,-41.07 -240.9,-2.95 -41.07,37.3 -22.94,206 -9.88,254.24 56.28,15.63 193.56,30.89 242.83,-5.51 35.46,-28.56 28.81,-35.3 28.42,-127.07 -0.26,-62.71 7.28,-81.3 -20.47,-118.72z"/>
  <path class="fil0" d="M2267.26 2186.5c-95.04,0 -328.25,-18.63 -359.25,25.49l22.14 11.17c52.3,17.99 111.24,9.15 166.37,8.98l569.11 -0.02c74.39,0 697.58,22 761.59,-20.13 -29.93,-37.92 -11.24,-24.42 -77.36,-27.03l-1082.61 1.54z"/>
  <path class="fil0" d="M1908.05 1358.32c25.63,40.19 9.74,28.38 159.96,27.22l1180.96 -0.06c134.55,0.59 145.15,19.25 178.25,-27.17 -47.91,-28.76 -115.26,-18.96 -178.26,-18.65l-967.47 0.04c-102.2,0 -297.34,-31.31 -373.44,18.61z"/>
  <path class="fil0" d="M1627.02 1470.91c-47.06,-18.78 -47.67,-18.89 -63.7,-73.81 41.6,16.95 31.5,15.96 63.7,31.7 42.28,-34.67 42.17,-58.2 99.01,-70.2 -16.71,52.83 -58.84,83.77 -99.01,112.3zm-127.61 -98.36c0,185.74 -24.4,193.82 258,173.01 27.45,-57.26 20.62,-99.42 20.62,-173.01 0,-113.91 -40.08,-99.16 -179.36,-99.16 -88.13,0 -99.26,10.84 -99.26,99.16z"/>
  <path class="fil0" d="M3092.45 2707.59c-215.42,0.92 -1115.41,-23 -1184.5,16.6 18.31,14.04 -29.97,25.26 73.15,30.63l1226.67 -0.2c83.62,-8.9 39.34,8.02 64.43,-30.43 -3.96,-2.06 -9.01,-3.88 -12.46,-4.93 -61.62,-18.67 -10.56,-12.34 -167.29,-11.67z"/>
  <path class="fil0" d="M1908.01 1457.92c30.69,45.24 217.23,26.21 316.57,26.21l968.78 1.61c67.68,-2.68 48.46,10.78 78.9,-27.82l-79.59 -20.79c-135.76,-8.21 -1210.19,-9.51 -1273.74,15.13 -2.87,1.11 -7.55,3.33 -10.92,5.66z"/>
  <path class="fil0" d="M2224.57 2285.06c-100.44,0 -286.07,-19.24 -316.62,26.53 35.12,23.8 -0.89,8.65 46.7,17.64l127.64 1.62c252.2,-1.31 917.5,12.69 1110.37,1.19l79.65 -20.45c-30.11,-38.87 -10.76,-25.41 -78.93,-28.15l-968.8 1.62z"/>
  <path class="fil0" d="M2665.63 1762.38c-70.74,0 -701.32,-23.8 -757.68,22.78 22.76,11.44 -19.52,20.81 73.44,24.2 30.06,1.1 69.48,-1.21 100.88,-1.33l981.73 -0.03c68.7,0 323.85,19.18 363.24,-22.85 -3.66,-2.76 -8.54,-5.28 -11.98,-6.76l-749.63 -16.02z"/>
  <path class="fil0" d="M1605.43 2743.25c-35.95,-45.66 -28.43,-11.12 -44.22,-80.79 37.11,12.71 41.36,17.91 65.81,31.32 43.33,-37.18 40.3,-58.09 102.04,-70.74 -13.36,62.71 -59.69,105.2 -123.63,120.21zm-88.75 -185.93c-22.43,52.95 -22.52,195.31 0.33,248.04 57.2,21.62 210.15,32.59 244.82,-19.48 25.94,-28.87 25.7,-180.09 0.17,-208.95 -34.62,-52.64 -188.17,-41.1 -245.32,-19.6z"/>
  <path class="fil0" d="M1907.95 1884.75c18,15.37 2.71,9.59 32.59,20.35l1265.73 3.15c54.89,0 37.79,5.69 65.59,-23.5 -27.71,-29.68 -10.01,-23.9 -65.59,-23.9l-1237.79 0c-74.57,0 -46.22,11.04 -60.53,23.9z"/>
  <path class="fil0" d="M3206.28 3175.81c64.39,0 45.3,8.31 65.49,-24.78 -30,-27.4 -14.83,-20.85 -65.49,-20.85l-1288.51 13.12c-2.09,-3.37 -6.4,5.2 -9.66,7.73 22.11,30.28 -1.84,24.78 60.38,24.78l1237.79 0z"/>
  <path class="fil0" d="M858.74 1452.79c18.09,-18.69 219.82,-304.32 206.45,-346.2 -32.84,-102.92 -188.1,211.43 -234.91,250.61 -106.41,-43.59 -127.22,-119.65 -178.09,-61.66 -38.88,44.11 158.33,153.81 206.55,157.26z"/>
  <path class="fil0" d="M511.75 171.02c-60.58,0.09 -104.58,-15.9 -96.96,53.41l103.62 6.61 13.1 98.02 34.59 -0.25 5.42 -98.35 104.78 -7.85c5.82,-67.68 -34.5,-51.5 -94.72,-51.81l-15.07 -100.38 -46.09 0.54 -8.67 100.06z"/>
  <path class="fil0" d="M768.56 2957.65c0,51.34 -14.83,84.05 25.43,104.42l3.15 -102.52 104.29 -3.04 48.15 47.41 13.71 -71.12 -65.97 0.53c-34.52,-3.51 -63.93,-4.63 -98.1,-6.2l-11.61 -109.3c-33.57,15.04 -18.95,62.62 -20.81,109.91l-102.35 9.87c38.77,19.64 -74.62,20.04 104.12,20.04z"/>
  <path class="fil0" d="M905.97 1668.8c60.42,15.76 54.71,34.36 101.15,37.52 -1.55,-21.37 0.56,-10.96 -5.7,-23.46 -1.3,-2.59 -11.24,-9.44 -12.31,-15.79 -0.85,-5.06 -5.44,-5.25 -6.58,-5.49l29.49 -24.22 -106.05 31.44z"/>
  <path class="fil0" d="M5078.05 1725.53l29.03 -2.04 0.44 -52.15c-20.91,-19.55 -23.32,-32.3 -59.79,-37.01 11.55,63.28 34.06,4.69 30.33,91.2z"/>
  <path class="fil0" d="M4680.11 2525c81.3,30.63 70.73,-28.1 70.85,-28.45 -79.55,-31.28 -70.82,28.37 -70.85,28.45z"/>
  <path class="fil0" d="M1050.49 3496.59l-0.45 -24.43 -21.26 -19.14c-2.71,-2.31 -6.07,-6.13 -8.85,-8.32l-35.96 -11.53 24.31 67.7 42.21 -4.28z"/>
  <path class="fil0" d="M4974.44 1585.97c-8.37,-31.43 -33.85,-42.96 -65.52,-47.5 3.17,32.84 -26.66,13.34 23.13,42.19 17.13,9.93 23.21,12.32 42.4,5.31z"/>
  <path class="fil0" d="M2363.26 4417.3c-15.86,-34.02 -23.08,-30.86 -70.2,-31.39 9.73,39.2 17.43,52.49 70.2,31.39z"/>
  <path class="fil0" d="M4651.66 1472.15c-11.83,-34.33 -13.91,-33.91 -70.21,-32.98l0.93 34.7 69.29 -1.73z"/>
  <path class="fil0" d="M33.54 0c-36.9,10.15 -30.87,15.72 -33.54,70.09l35.67 -1.41 -2.12 -68.68z"/>
  <path class="fil0" d="M2699.98 4474.22c-10.53,-37.39 -13.02,-28.13 -69.45,-33.4l2.55 37.82 66.91 -4.42z"/>
  <path class="fil0" d="M4818.65 1514.83c-11.87,-34.54 -41.63,-40.4 -70.99,-28.46 1.76,1.29 10.22,53.13 70.99,28.46z"/>
  <path class="fil0" d="M108.49 723.17c-20.49,-23.03 -2.06,-50.66 -56.24,-52.58l29.48 72.18 26.76 -19.6z"/>
  <path class="fil0" d="M2003.44 4299.72c-40.54,-13.46 -30.15,3.09 -31.94,3.76 2.76,2.13 8.19,48.67 64.45,28.46 -9.6,-22.77 24.95,-13.14 -32.51,-32.21z"/>
  <path class="fil0" d="M2199.07 4357.58c-47.24,-9.51 -36.71,-15.53 -68.98,2.81 6.18,2.99 -9.15,9.02 68.33,31.8l0.65 -34.61z"/>
  <path class="fil0" d="M5004.33 2418.73c33.17,-12.46 55.76,-17.33 55.77,-54.76 -40.7,3.2 -54.74,15.44 -55.77,54.76z"/>
  <path class="fil0" d="M266.15 1022.82c-15.76,-14.08 -32.89,-40.27 -47.54,-54.33l-20.98 13.97 49.23 55.06 19.29 -14.7z"/>
 </g>
</svg>
