<?xml version="1.0" encoding="UTF-8"?>
<!DOCTYPE svg PUBLIC "-//W3C//DTD SVG 1.1//EN" "http://www.w3.org/Graphics/SVG/1.1/DTD/svg11.dtd">
<!-- Creator: CorelDRAW -->
<svg xmlns="http://www.w3.org/2000/svg" xml:space="preserve" width="100%" height="100%" version="1.1" style="shape-rendering:geometricPrecision; text-rendering:geometricPrecision; image-rendering:optimizeQuality; fill-rule:evenodd; clip-rule:evenodd"
viewBox="0 0 1699.56 1625.48"
 xmlns:xlink="http://www.w3.org/1999/xlink"
 xmlns:xodm="http://www.corel.com/coreldraw/odm/2003">
 <defs>
  <style type="text/css">
   <![CDATA[
    .fil0 {fill:#003399}
   ]]>
  </style>
 </defs>
 <g id="Layer_x0020_1">
  <metadata id="CorelCorpID_0Corel-Layer"/>
  <path class="fil0" d="M801.14 1591.46c-151.85,0.01 -285.27,31.7 -264.16,-156.84l653.5 -0.03c15.63,105.92 5,74.21 44.06,154.89 -137.22,8.67 -294.05,1.97 -433.41,1.98zm-44.48 -213.44c57.14,-70.23 -31.11,-578.22 37.28,-675.82 51.12,-72.95 198.69,-50.55 307.45,-50.55 123.88,0 247.76,-0.07 371.63,0.03 -56.52,119.13 -39.59,155.2 -39.59,302.32 0,114.85 -0.48,229.81 0.12,344.65 0.54,104.7 19.22,235.03 -55.65,276.13 -47.27,25.94 -99.51,13.06 -126.41,-15.2 -32.98,-34.66 -27.16,-92.3 -30.58,-148.42 -73.46,-14.19 -660.54,-15.93 -713.88,4.2 -17.81,264.96 180.37,204.1 405.32,204.1 194.98,0 483.35,37.54 536.52,-84.87 24.41,-56.19 12.77,-513.68 12.77,-613.94 -0,-95.81 -20.27,-211.03 53.04,-253.57 102.74,-59.61 166.19,31.52 154.37,141.58 -54.55,0.52 -139.09,-11.78 -179.35,11.93l209.63 10c4.94,-212.94 -69.32,-207.17 -264.32,-207.19 -800.78,-0.04 -685.38,-92.79 -691.18,641.93 -0.34,43 -6.28,82.46 12.83,112.69z"/>
  <path class="fil0" d="M981.75 385.95c-284.78,56.84 -257.17,-296.83 -48.22,-276.19 81.29,8.03 171.76,103.27 110.92,198.5 -50.75,79.43 -195.44,21.83 -153.9,-87.09 91.03,-14.78 27.23,16.31 93.09,43.44l-11.67 -60.3c-56.37,-26.05 -137.96,-20.59 -118.77,74.48 13.07,64.75 46.31,73.51 88.11,89.05l40.44 18.1zm-780.08 -166.15c45.31,120.33 -114.74,167.46 -158.01,79.83 -49.31,-99.88 41.88,-186.12 123.87,-190.72 205.02,-11.51 216.14,343.91 -57.79,276.49l48.41 -19.65c127.24,-46.6 103.73,-226.64 -39.06,-160.31l-7.57 59.29c55.04,-23.02 4.28,-53.93 90.16,-44.93zm-170.71 -75.39c11.83,-83.59 56.76,-116.73 147.44,-116.73l733.95 0c90.44,0 138.55,30.68 147.92,115.34 -39.13,-22.63 -73.63,-64.55 -148.06,-62.76 -201.71,4.86 -225.02,288.94 -42.09,338.5 133.01,36.04 222.06,-68.44 222.17,-186.87 0.13,-148.59 -24.44,-231.9 -179.93,-231.9l-733.95 0c-159.78,0 -177.83,77.31 -178.39,232.02 -0.44,121.87 95.31,226.44 230.33,185.17 93.78,-28.67 159.94,-159.96 84.75,-266.67 -46.13,-65.47 -141.2,-90.46 -215.14,-53.66 -15.35,7.64 -18.55,11.87 -32.92,22.61 -20.3,15.17 -13.29,11.98 -36.06,24.94z"/>
  <path class="fil0" d="M191.41 520.41l-0.28 -33.4c36.38,-14.96 673.4,-14.65 708.19,0.05l2.91 33.3c-36.83,19 -675.04,19.72 -710.82,0.06zm42.59 38.34l622.74 0c44.76,0 72.58,3.83 75.25,-49.72 4.45,-89.14 -134.11,-57.79 -331.02,-57.84l-390.2 -0.28c-38.22,4.83 -52.95,13.99 -50.47,58.46 2.85,50.92 26.52,49.38 73.7,49.38z"/>
  <path class="fil0" d="M345.2 1377.76c30.63,-35.99 16.45,-111.43 16.41,-156.94l-0.2 -356.13c-0.39,-57.45 -6.88,-116.33 50.96,-118.64 79.25,-3.16 53.25,154.67 53.25,285.76l13.02 346.46c24.41,-31.96 15.27,-43.98 15.23,-168.58 -0.02,-63 0,-126 0,-189 0,-99.59 37.87,-303.54 -82.06,-302.73 -116.36,0.78 -78.41,202.2 -78.41,291.61 0,50.13 -11.58,328.66 11.79,368.18z"/>
  <polygon class="fil0" points="903.35,875.46 1292.1,873.55 1292.87,784.16 897.85,785.62 "/>
  <path class="fil0" d="M874.54 1131.87c42.28,19.69 410.54,18.2 446.39,2.06 -19.85,-28.07 -12.31,-19.95 -97.13,-19.4l-301.2 -0.94c-70.63,2.72 -31.2,10.76 -48.06,18.29z"/>
  <path class="fil0" d="M372.06 275.82c22.72,31.47 67.88,17.7 162.19,17.65 46.2,-0.02 153.54,17.72 177.63,-17.65 -35.85,-19 -302.55,-21.82 -339.82,0z"/>
  <path class="fil0" d="M211.76 663.57c30.51,-20.08 26.81,-57.36 0,-79.61 -4.28,7.31 -11.87,-6.59 -13.96,36.86 -1.83,37.98 0.71,24.2 13.96,42.75z"/>
 </g>
</svg>
