<?xml version="1.0" encoding="UTF-8"?>
<!DOCTYPE svg PUBLIC "-//W3C//DTD SVG 1.1//EN" "http://www.w3.org/Graphics/SVG/1.1/DTD/svg11.dtd">
<!-- Creator: CorelDRAW -->
<svg xmlns="http://www.w3.org/2000/svg" xml:space="preserve" width="100%" height="100%" version="1.1" style="shape-rendering:geometricPrecision; text-rendering:geometricPrecision; image-rendering:optimizeQuality; fill-rule:evenodd; clip-rule:evenodd"
viewBox="0 0 1597.89 1832.9"
 xmlns:xlink="http://www.w3.org/1999/xlink"
 xmlns:xodm="http://www.corel.com/coreldraw/odm/2003">
 <defs>
  <style type="text/css">
   <![CDATA[
    .str1 {stroke:#303030;stroke-width:3;stroke-miterlimit:2.61313}
    .str0 {stroke:#FCC736;stroke-width:3;stroke-miterlimit:2.61313}
    .fil1 {fill:#303030}
    .fil0 {fill:#FCC736}
   ]]>
  </style>
 </defs>
 <g id="Layer_x0020_1">
  <metadata id="CorelCorpID_0Corel-Layer"/>
  <path class="fil0" d="M945.27 867.79c-179.98,0 -248.85,22.98 -227.72,-56.65l21.68 -8.87c60.52,-15.02 -39.3,4.33 24.94,-4.79 49.44,-7.02 202.11,-6.9 241.5,14.36 15.09,51.92 1.72,55.96 -60.41,55.96zm365.73 -372.75l-8.19 37.3c-40.7,61.34 -58.5,17.01 -115.48,35.5 -48.13,15.62 -36.02,84 -43.36,63.59 -0.79,-2.19 -2.65,7.81 -4.68,11.37 32.41,19.84 14.04,-0.49 31.76,42.59 -7.57,27.51 20.9,33.72 -47.83,31.62 -38.83,-1.19 -107.65,-15.38 -169.1,15.59 -2.16,1.09 -5.83,3.41 -7.58,4.54l-15.22 21.75c-5.89,-62.68 -57.98,-35.6 -100.27,-32.28l-173.66 -7.08c-4.02,-0.04 -7.63,-0.17 -11.55,-0.04 -21.85,0.72 -14.13,1.05 -32.94,4.04 -194.63,30.93 -119.96,-20.17 -223.3,10.72 -14.89,-37.44 2.89,-0.2 -19.04,-36.41l-24.89 -36.23 56.83 -72.18c1.31,-1.26 6.4,-1.81 7.36,-5.81 0.96,-4 4.91,-3.89 9.55,-5.59l-3.89 -45.5 -3.79 -120.81c-77.91,35.53 -173.6,-2.44 -262.09,2.76l-9.75 97.72 54.06 10.17 9.02 56.29 1.33 101.69c2.91,-1.02 6.83,-3.37 7.9,-4.81l24.83 -85.38c94.19,3.72 44.44,-20.62 48.87,41.13 31.57,-19.58 -4.5,-59.44 -70.89,155.38l-66.31 27.7c2.08,116.15 -16.86,6.2 45.06,71.83l-1.23 53.16c-72.53,32.94 -32.35,-8.23 -54.62,41.66 0.17,151.28 6.28,32.33 61.96,111.09 -32.09,112.17 -66.04,-48.98 -61.73,138.87l37.71 20.76c23.58,20.09 6.36,-24.59 23.96,34.78 -51.52,79.78 -65.43,-40 -61.24,124.98 51.4,41.18 38.93,-2.74 61.78,55.55 -38.27,67.28 -73.54,-6.82 -58.34,142.04l55.65 10.79c61.21,53.08 157.03,31.03 289.34,31.08l932.81 -0.36c2.79,-30.98 19.61,-831.5 -0.33,-872.95l-43.29 -43.64c16.53,-26.43 33.94,-63.48 -1.28,-96.92 -2.29,-2.18 -5.96,-4.59 -8.48,-6.32 -26.9,-18.46 -33.59,-10.43 -36.7,-10.46 -23.48,37.2 -17.49,-40.12 -16.66,54.35 0.45,50.7 1.56,27.87 21.5,55.85l-48.61 -3.3c29.62,-22.1 26.07,24.99 28.04,-51.14 1.61,-62.58 10.86,-24.79 -35.43,-54.78 -41.28,9.04 3.43,-21.91 -31.56,14.4 -40.45,41.97 -26.85,60.93 10.34,87.91l-54.7 0.52c37.6,-13.6 38.01,51.38 33.8,-63.35 -3.01,-82.1 5.55,-50.6 -27.39,-40.9 78.35,-17.79 179.64,4.65 199.48,-13.75 29.07,-53.63 6.06,-139.37 8.17,-198.5 -37.57,-58.21 -71.95,-57.36 -110.75,-65.35l5.04 152.76z"/>
  <path class="fil1" d="M292.64 77.84l208.17 -3.34 319.54 0.62 132.16 0.64 566.46 -2.23 2.8 356.53 -2.27 1334.19c-229.81,-49.37 -1274.09,34.61 -1379.33,-19.43 -3.52,-80.45 -11.45,-53.8 55.48,-68.97l2.01 -55.94 -55.65 -10.79c-15.2,-148.87 20.07,-74.77 58.34,-142.04 -22.85,-58.29 -10.38,-14.37 -61.78,-55.55 -4.19,-164.98 9.72,-45.21 61.24,-124.98 -17.6,-59.37 -0.38,-14.7 -23.96,-34.78l-37.71 -20.76c-4.3,-187.85 29.64,-26.7 61.73,-138.87 -55.69,-78.77 -61.79,40.19 -61.96,-111.09 22.28,-49.89 -17.91,-8.72 54.62,-41.66l1.23 -53.16 -54.27 -11.77c-11.94,-142.92 19.88,-69.96 56.19,-143.38 -25.55,-47.54 -5.03,-18.56 -53.74,-41.66l-2.93 -104.39 63.95 -6.34 -9.02 -56.29 -54.06 -10.17 -7.21 -100.56c-13.82,-49.52 -7.47,-4.21 -31.8,-56.9 5.19,-6.3 10.22,-11.44 19.64,-19.65 1.44,-1.26 7.39,-1.54 8.53,-5.94 1.18,-4.58 6.14,-3.77 9.13,-5.78l0.48 -96.09 29.02 -13.1c42.9,-27.87 29.65,18.25 28.49,-66.3 -72.24,0.65 -54.81,6.17 -57.44,-64.93 60.27,-17.62 90.51,-12.18 153.93,-5.08zm-224.17 64.73l-0.01 81.06 2.51 101.67 -3.21 80.51 -1.55 89.16c-42.83,39.93 -33.94,-2.69 -65.2,55.55 27.48,59.51 -6.28,14.33 64.26,41.66l-0.51 97.24c-59.44,27.69 -28.62,-10.6 -62.61,41.63 21.11,50.44 0.96,24.48 60.92,41.66l3.08 97.2c-58.82,29.35 -34.65,-12.87 -64.37,41.67 22.23,63.13 15.76,15.3 64.06,55.55l0.49 83.32c-52.25,35.83 -44.54,-14.05 -64.62,55.55 49.68,70.75 64.39,-34.26 64.64,124.98 -52.43,39.67 -42.56,-12.65 -64.6,55.55 34.22,52.08 11.12,10.16 63.53,41.66l1.22 83.32c-47.94,43.26 -39.64,-7.57 -64.59,55.55 27.69,58.92 -3.65,11.89 62.06,41.66l2.59 83.32c-29.13,29.24 -42.17,12.85 -64.88,55.56 27,52.58 7.99,19.86 62.22,41.66 10.67,163.4 -58.76,138.08 284.22,138.13 230.4,0.03 1157.39,19.66 1249.77,-15.38 -35.25,-98.64 22.54,-1729.99 -16.85,-1783.73 -23.93,-25.55 11.31,-4.85 -28.31,-17.74l-329.72 -5.9c-172.15,-0.28 -1114.71,-16.19 -1144.52,12.56 -18.28,41.5 -13.43,70.53 -10.02,125.38z"/>
  <path class="fil0" d="M197.65 1619.9l-2.01 55.94c-66.93,15.17 -59,-11.48 -55.48,68.97 105.24,54.05 1149.53,-29.93 1379.33,19.43l2.27 -1334.19 -105.07 -22.43c-2.11,59.13 20.9,144.87 -8.17,198.5 -19.84,18.39 -121.13,-4.04 -199.48,13.75 32.94,-9.7 24.38,-41.2 27.39,40.9 4.2,114.73 3.8,49.75 -33.8,63.35l54.7 -0.52c-37.19,-26.98 -50.79,-45.94 -10.34,-87.91 34.98,-36.31 -9.72,-5.36 31.56,-14.4 46.29,29.99 37.04,-7.8 35.43,54.78 -1.96,76.13 1.58,29.04 -28.04,51.14l48.61 3.3c-19.94,-27.98 -21.05,-5.15 -21.5,-55.85 -0.83,-94.47 -6.82,-17.14 16.66,-54.35 3.11,0.03 9.8,-8 36.7,10.46 2.52,1.73 6.19,4.15 8.48,6.32 35.22,33.44 17.81,70.49 1.28,96.92l43.29 43.64c19.94,41.45 3.11,841.98 0.33,872.95l-932.81 0.36c-132.31,-0.05 -228.13,22 -289.34,-31.08z"/>
  <path class="fil0 str0" d="M1171.05 685.4c-139.92,28.13 -333.94,12.31 -490.31,16.5 -73.26,1.96 -100.72,18.53 -108.32,-53.07 44.94,-25.27 494.17,-27.41 566.87,-6.02 2.03,-3.56 3.89,-13.56 4.68,-11.37 7.34,20.4 -4.76,-47.98 43.36,-63.59 56.99,-18.49 74.79,25.84 115.48,-35.5l-887.3 0.2 3.89 45.5c-4.64,1.7 -8.59,1.6 -9.55,5.59 -0.96,4 -6.05,4.55 -7.36,5.81l-56.83 72.18 24.89 36.23c21.93,36.21 4.15,-1.03 19.04,36.41 103.33,-30.89 28.67,20.21 223.3,-10.72 18.81,-2.99 11.09,-3.31 32.94,-4.04 3.92,-0.13 7.53,-0.01 11.55,0.04l173.66 7.08c42.29,-3.32 94.38,-30.4 100.27,32.28l15.22 -21.75c1.76,-1.13 5.42,-3.44 7.58,-4.54 61.45,-30.97 130.27,-16.78 169.1,-15.59 68.72,2.1 40.26,-4.11 47.83,-31.62z"/>
  <path class="fil0" d="M1195.17 244.93l-236.01 0 15.16 -83.92c3.94,-7.3 9.15,-12.48 14.69,-17.34 8.24,-7.22 56.45,-20.96 81.38,-21.31 92.96,-1.31 113.33,36.93 124.79,122.57zm14.02 -166.51l195.22 0 -65.76 121.48c-31.1,49.7 3.97,24.39 -60.02,45.03 -23.98,-63.35 -8.24,-52.65 -40.54,-110.87l-21.17 -38.93c-2.72,-5.33 -5.48,-11 -7.73,-16.71zm-333.43 160.63l88.45 1.48 215.91 -0.87 126.15 3.67 4.73 251.7 -5.04 -152.76c38.8,7.99 73.19,7.14 110.75,65.35l105.07 22.43 -2.8 -356.53 -566.46 2.23 -48.39 58.12c-41.13,53.19 -28.84,44.35 -28.36,105.17z"/>
  <path class="fil1" d="M1238.59 472.22l-750.91 -2.57 -17.78 -97.32c-28.75,38.54 -12.61,23.6 -56.94,42.4l-1.24 -3.01 3.79 120.81 887.3 -0.2 8.19 -37.3 -4.73 -251.7c-13.65,29.21 -37.35,85.83 -41.84,108.49 -8.8,44.46 4.49,40.82 -13.48,98.32l-12.36 22.07z"/>
  <path class="fil0 str0" d="M196.15 147.86c175.5,66.8 109.67,15.13 210.9,97.75l-17.33 96.53c-142.71,62.64 -156.9,-6.31 -249.83,-27.78 4.14,-38.78 5.74,-36.25 12.83,-61.68l7.48 -21.52c0.72,-2.13 3.25,-4.16 3.78,-8.78 0.5,-4.37 2.82,-5.35 3.69,-8.23l-29.02 13.1 -0.48 96.09c59.68,18.7 43.91,3.75 61.46,46.63 -25.92,44.66 -14.95,26.83 -66.95,41.65l7.21 100.56 9.75 -97.72c88.48,-5.2 184.18,32.77 262.09,-2.76l1.24 3.01 2.18 -164.58 58.04 -10.22c-2.99,-30.05 -49.52,-70.3 -70.23,-90.45 -66.54,-64.78 -49.41,9.46 -110.3,-71.63 -63.42,-7.1 -93.66,-12.54 -153.93,5.08 2.63,71.1 -14.8,65.58 57.44,64.93z"/>
  <path class="fil1" d="M412.96 414.73c44.33,-18.8 28.19,-3.86 56.94,-42.4l17.78 97.32 -2.41 -154.07 757.44 -1.54 -4.12 158.19 12.36 -22.07c17.96,-57.5 4.67,-53.86 13.48,-98.32 4.49,-22.66 28.19,-79.28 41.84,-108.49l-126.15 -3.67c-4.68,75.83 -1.3,64.87 -81.04,65.05 -42.56,0.09 -84.67,0.28 -127.61,-4l-7.26 -60.18 -88.45 -1.48 -23.39 -1.04 6.86 65.35 -157.89 3.31 4.76 -68.52 -24.62 0.79 -79.57 1.82 -7.68 61.64 -97.39 5.7 2.3 -69.23 -25.98 1.05 -58.04 10.22 -2.18 164.58z"/>
  <path class="fil0 str0" d="M167.66 214.16c-0.87,2.87 -3.19,3.86 -3.69,8.23 -0.53,4.63 -3.06,6.65 -3.78,8.78l-7.48 21.52c-7.09,25.43 -8.69,22.89 -12.83,61.68 92.93,21.46 107.12,90.41 249.83,27.78l17.33 -96.53c-101.23,-82.62 -35.39,-30.96 -210.9,-97.75 1.16,84.56 14.41,38.43 -28.49,66.3z"/>
  <path class="fil1" d="M1171.05 685.4c-17.72,-43.08 0.65,-22.76 -31.76,-42.59 -72.71,-21.39 -521.93,-19.25 -566.87,6.02 7.6,71.6 35.06,55.03 108.32,53.07 156.38,-4.19 350.39,11.63 490.31,-16.5z"/>
  <path class="fil0" d="M473.17 239.93l25.98 -1.05 102.76 1.89 9.89 -122.69 -111.96 11.17 0.97 -54.74 -208.17 3.34c60.89,81.09 43.76,6.85 110.3,71.63 20.71,20.16 67.24,60.41 70.23,90.45z"/>
  <path class="fil0" d="M681.48 238.95l24.62 -0.79 146.28 -0.15 23.39 1.04c-0.48,-60.82 -12.78,-51.98 28.36,-105.17l48.39 -58.12 -132.16 -0.64 0 44.84 -134.58 0.97c4.93,58.63 2.31,60.05 -4.29,118.01z"/>
  <path class="fil0" d="M601.91 240.77l79.57 -1.82c6.61,-57.96 9.22,-59.37 4.29,-118.01l134.58 -0.97 0 -44.84 -319.54 -0.62 -0.97 54.74 111.96 -11.17 -9.89 122.69z"/>
  <path class="fil0 str0" d="M1195.17 244.93c-11.46,-85.65 -31.83,-123.89 -124.79,-122.57 -24.93,0.35 -73.14,14.09 -81.38,21.31 -5.54,4.86 -10.75,10.04 -14.69,17.34l-15.16 83.92 236.01 0z"/>
  <path class="fil1" d="M717.55 811.14c-21.13,79.64 47.74,56.65 227.72,56.65 62.13,0 75.49,-4.04 60.41,-55.96 -39.39,-21.26 -192.07,-21.39 -241.5,-14.36 -64.24,9.13 35.59,-10.22 -24.94,4.79l-21.68 8.87z"/>
  <path class="fil0" d="M193.76 886.2c-61.93,-65.63 -42.98,44.32 -45.06,-71.83l66.31 -27.7c66.39,-214.83 102.46,-174.96 70.89,-155.38 -4.43,-61.75 45.31,-37.42 -48.87,-41.13l-24.83 85.38c-1.07,1.44 -4.99,3.79 -7.9,4.81l-1.33 -101.69 -63.95 6.34 2.93 104.39c48.72,23.1 28.2,-5.88 53.74,41.66 -36.31,73.42 -68.13,0.46 -56.19,143.38l54.27 11.77z"/>
  <path class="fil0 str0" d="M1209.19 78.42c2.25,5.71 5.02,11.39 7.73,16.71l21.17 38.93c32.3,58.22 16.56,47.51 40.54,110.87 63.99,-20.63 28.92,4.68 60.02,-45.03l65.76 -121.48 -195.22 0z"/>
  <path class="fil1" d="M1180.12 239.67l-215.91 0.87 7.26 60.18c42.94,4.28 85.05,4.09 127.61,4 79.74,-0.18 76.36,10.78 81.04,-65.05z"/>
  <polygon class="fil1" points="852.38,238.02 706.1,238.16 701.35,306.68 859.24,303.37 "/>
  <polygon class="fil1" points="601.91,240.77 499.15,238.87 496.85,308.11 594.24,302.41 "/>
  <path class="fil1" d="M132.67 411.64c52,-14.82 41.03,3.01 66.95,-41.65 -17.55,-42.88 -1.78,-27.93 -61.46,-46.63 -2.99,2.01 -7.94,1.2 -9.13,5.78 -1.13,4.41 -7.09,4.69 -8.53,5.94 -9.42,8.22 -14.44,13.35 -19.64,19.65 24.33,52.69 17.98,7.37 31.8,56.9z"/>
  <path class="fil1" d="M68.46 223.63l0.01 -81.06 -65.66 17.59c4.37,61.74 6.75,50.15 65.65,63.46z"/>
  <path class="fil1 str1" d="M67.76 405.81l3.21 -80.51c-58.85,13.19 -60.89,3.96 -69.29,61.68l66.08 18.83z"/>
 </g>
</svg>
