<?xml version="1.0" encoding="UTF-8"?>
<!DOCTYPE svg PUBLIC "-//W3C//DTD SVG 1.1//EN" "http://www.w3.org/Graphics/SVG/1.1/DTD/svg11.dtd">
<!-- Creator: CorelDRAW -->
<svg xmlns="http://www.w3.org/2000/svg" xml:space="preserve" width="100%" height="100%" version="1.1" style="shape-rendering:geometricPrecision; text-rendering:geometricPrecision; image-rendering:optimizeQuality; fill-rule:evenodd; clip-rule:evenodd"
viewBox="0 0 393.7 381.56"
 xmlns:xlink="http://www.w3.org/1999/xlink"
 xmlns:xodm="http://www.corel.com/coreldraw/odm/2003">
 <defs>
  <style type="text/css">
   <![CDATA[
    .fil1 {fill:#404E57}
    .fil3 {fill:#63B4F5}
    .fil0 {fill:#ED5250}
    .fil2 {fill:#FEC828}
   ]]>
  </style>
 </defs>
 <g id="Layer_x0020_1">
  <metadata id="CorelCorpID_0Corel-Layer"/>
  <g id="_105553483044352">
   <path class="fil0" d="M259.92 258.58c-0.12,-9.46 20.43,-25.92 31.46,-37.02 11.12,-11.19 27.59,-31.67 37.21,-31.27l0.37 9.81c1.12,59.28 3.69,59.04 -12.91,59.06l-56.12 -0.58zm93.76 -131.12c-11.42,2.31 -31.97,27.58 -41.09,36.64 -16.71,16.58 -112.26,107.17 -115.49,120.47l156.73 -0.78 -0.15 -156.33z"/>
   <path class="fil1" d="M0.17 335.7c0,49.68 -4.15,45.79 28.33,45.79l347.22 0c21.91,0 17.64,-8.86 17.64,-45.79 0,-26.88 -20.38,-19.31 -69.18,-18.98 -28.3,0.2 -205.83,-3.7 -217.05,2.7 5.2,6.98 10.94,3.85 21.87,4.81 0.01,10.33 -1.36,9.73 2.58,17.64 8.15,-6.63 1.91,-5.61 6.27,-18.26l16.07 0.31 3.54 29.2c0.23,0.52 0.76,1.33 1.25,1.93 1.74,-2.94 0.82,2 2.39,-6.12 0.57,-2.98 0.61,-4.52 0.74,-7.54 0.22,-5.3 -0.19,-12.19 -0.19,-17.69l18.82 0.59c0.01,10.46 -1.39,9.67 2.66,17.6 6.89,-5.73 4.13,-7.05 4.13,-18.34l19.09 0c0,11.11 -2.68,12.37 3.9,18.54l2.88 -18.29 18.83 0.35c-0.01,11.05 -1.73,22.74 2.71,30.73 7.28,-5.57 4.07,-21.52 4.07,-31.34l14.91 0.02c6.78,8.9 0.19,11.25 8.14,18.46l2.82 -18.13 18.96 0.34c0.01,10.49 -1.39,9.77 2.63,17.66 6.18,-5.34 1,0.24 3.59,-6.77l4.55 -11.56 14.96 0.06c0,9.82 -3.19,25.64 4.03,31.31 4.5,-7.98 2.76,-19.86 2.76,-30.96l18.96 0.26c0.01,10.43 -0.8,10.96 2.69,17.68 6.81,-5.89 4.08,-7.11 4.09,-18.31l18.94 0.06c0.01,11.26 -2.74,12.4 4.1,18.28l2.69 -17.92 18.73 0.44 0.02 49.06 -379.02 0.18 -0.03 -48.96 18.78 -0.64c0.01,10.13 -1.29,9.87 2.46,17.76 7.13,-5.61 4.31,-6.85 4.32,-18.33 19.74,0 16.87,2.01 21.96,-4.13 -8.11,-5.05 -24.16,-3.07 -34.62,-2.92 -16.66,0.23 -19.99,1.91 -19.99,19.19z"/>
   <path class="fil2" d="M65.77 274l29.65 0.82c2.52,-13.68 4.5,-166.69 -1.88,-183.12 -36.82,-13.42 -28.47,14.77 -28.47,73.14 0,30.65 -2.96,80.91 0.7,109.16z"/>
   <path class="fil3" d="M128.37 70.72c11.78,3.03 139.83,3.02 149.97,-0.25 2.87,-7.48 2.72,-20.7 0.25,-28.45 -10.96,-3.52 -133.94,-3.24 -151.06,-0.56 -2.08,10.23 -2.32,21.75 0.84,29.26z"/>
   <path class="fil1" d="M75.13 327.28l11.52 -0.45c-2.28,6.42 1.11,0.17 -2.9,7.1 -1.96,3.4 -2.28,2.67 -4.3,4.69l-4.33 -11.33zm-5.98 -7.82c-4.82,-15.52 -4.32,-17.43 -4.01,-37.28l31.52 -0.42c0.52,16.57 1.89,22.27 -4.02,37.59l-23.49 0.1zm-3.38 -45.46c-3.66,-28.25 -0.7,-78.51 -0.7,-109.16 0,-58.37 -8.35,-86.56 28.47,-73.14 6.38,16.43 4.4,169.44 1.88,183.12l-29.65 -0.82zm14.28 78.3c31.22,-18.67 23.49,-102.23 23.49,-133.22 0,-26.22 0,-52.43 0,-78.65 0,-24.84 7.4,-57.69 -20.97,-58.77 -30.44,-1.15 -24.41,28.1 -24.41,53.34l-0.06 157.34c-0.11,19.64 8.01,45.78 21.94,59.95z"/>
   <path class="fil1" d="M353.68 127.46l0.15 156.33 -156.73 0.78c3.23,-13.3 98.78,-103.89 115.49,-120.47 9.12,-9.06 29.67,-34.32 41.09,-36.64zm-162.18 159.43c6.17,4.26 6.18,4.36 16.04,4.36l135.55 0c14.64,0 18.04,-3.33 18.04,-17.92l0 -135.6c0,-10.8 -0.19,-11.32 -7.1,-17.38 -12.4,1.67 -34.92,28.41 -44.46,38.01l-101.69 101.75c-7.99,7.91 -18.66,12.92 -16.37,26.78z"/>
   <path class="fil1" d="M127.53 41.46c17.12,-2.68 140.1,-2.96 151.06,0.56 2.48,7.75 2.62,20.98 -0.25,28.45 -10.14,3.27 -138.19,3.28 -149.97,0.25 -3.16,-7.51 -2.92,-19.03 -0.84,-29.26zm-8.26 9.48c0,22.71 -2.16,28.02 17.74,28.02l132.92 0c19.3,0 17.17,-6.14 17.17,-28.02 0,-23.24 -11.66,-17.63 -33.44,-17.49l-100.38 0c-21.95,-0.14 -34.01,-5.41 -34.01,17.49z"/>
   <path class="fil1" d="M190.84 4.84c0.6,0.41 1.51,0.28 1.87,1.13 0.37,0.86 1.44,0.85 1.97,1l53.54 1.15c15.82,0 42.87,-5.41 52.62,6.96 8.32,23.81 -4.73,118.91 4.35,135.02 8.38,-5.09 4.43,-49.66 4.43,-61.18 0,-99.93 18.74,-88.42 -102.21,-87.88 -0.69,0 -7.87,0.14 -8.09,0.18 -9.43,1.59 -4,0.27 -8.49,3.63z"/>
   <path class="fil1" d="M272.02 251.99c4.7,-8.98 40.39,-44.97 50.11,-49.52l0.05 49.63 -50.16 -0.11zm-12.1 6.59l56.12 0.58c16.6,-0.02 14.03,0.22 12.91,-59.06l-0.37 -9.81c-9.61,-0.39 -26.09,20.08 -37.21,31.27 -11.03,11.1 -31.57,27.56 -31.46,37.02z"/>
   <path class="fil1" d="M99.03 77.97c7.38,-4.32 4.56,-1.16 4.5,-29.74 -0.03,-12.23 -1,-22.56 2,-34.44 13.41,-10.82 23.12,-0.88 32.91,-8.95 -6.4,-5.9 -40.95,-12.74 -41.61,21.57 -0.29,15 -3.57,38.96 2.2,51.56z"/>
   <path class="fil1" d="M126.74 112.06l16.5 -0.63 1.7 17.45 -18.06 0.76 -0.14 -17.57zm-7.47 6.68c-0.01,13.44 -0.41,18.09 15.03,18.08 14.19,-0.01 17.76,-0.37 17.73,-15.37 -0.05,-20.52 -6.71,-17.63 -28.76,-16.32 -2.23,4.52 -4,6.55 -4,13.61z"/>
   <path class="fil1" d="M126.83 156.59l18.17 0.76 -1.33 17.33 -16.81 -0.48 -0.02 -17.61zm-4.88 -4.05c-10.63,27.94 1.74,31.56 25.93,28.27 4.67,-8.33 7.48,-18.18 -0.03,-29.33 -7.67,-2.91 -18.62,-3.97 -25.9,1.06z"/>
   <path class="fil1" d="M235.13 156.91l-1.53 17.53c-9.26,0.83 -8.53,1.68 -15.21,-1.42 -3.09,-6.7 -2.25,-5.96 -1.48,-16.07l18.22 -0.04zm-25.65 7.94c0,11.88 1.92,17.06 14.33,17.07 20.62,0.03 18.77,-2.31 17.59,-26.37 -8.39,-6.03 0.53,-5 -14.87,-6.31 -13.94,-0.98 -17.07,1.86 -17.06,15.61z"/>
   <path class="fil1" d="M127.08 201.97l16.24 -0.41 1.94 17.34 -18.76 0.9 0.58 -17.83zm7.21 25.07l13.68 -1.37c20.28,-33.61 -27.02,-42.99 -28.92,-17.56 -0.91,12.09 1.96,20.66 15.24,18.93z"/>
   <path class="fil1" d="M261.97 111.8l16.72 -0.29 1.43 17.18 -18.02 1.15 -0.13 -18.04zm-7.4 6.94l0.61 12.01c8.36,5.95 -0.47,4.85 14.74,6.22 25.09,2.27 23.17,-32.66 2.72,-32.66 -12.99,0 -18.97,0.74 -18.07,14.43z"/>
   <path class="fil1" d="M171.92 156.03l17.62 2.19c1.77,18.23 1.09,17.33 -17.5,16.51l-0.12 -18.7zm-7.58 8.81c0.03,15.13 0.3,17.09 16.07,17.07 23.74,-0.02 23.06,-32.5 2.71,-32.54 -13.68,-0.02 -18.82,1.07 -18.78,15.46z"/>
   <path class="fil1" d="M172.7 111.54c18.38,-1.17 18.56,-2.2 16.96,17.5l-18.32 0.55 1.37 -18.06zm-8.36 7.2c-0.04,14.13 1.64,18.11 16.07,18.08 26.34,-0.06 20.46,-32.49 2.71,-32.51 -14.65,-0.01 -18.74,-0.67 -18.78,14.43z"/>
   <path class="fil1" d="M233.87 111.76c0.91,4.22 1.82,4.61 1.44,9.7l-0.85 8.46 -17.67 -1.46 -0.42 -9.72c-0.6,-11.03 7.3,-8 17.49,-6.98zm-24.39 6.98c0,20.7 3.86,18.56 26.47,17.52 5.54,-8.35 4.66,0.37 6.22,-14.8 2.6,-25.24 -32.69,-23.04 -32.69,-2.73z"/>
   <path class="fil1" d="M171.66 202.79c16.55,-5.28 22.22,0.41 16.89,16.21l-16.97 1.15 0.08 -17.36zm-5.42 -6.54c-2,9.16 -2.02,20.1 0.44,28.46 8.33,2.46 19.34,2.44 27.99,0.39 2.54,-8.47 2.52,-20 0.36,-28.74 -12.98,-3.29 -13.45,-1.8 -28.79,-0.11z"/>
   <path class="fil1" d="M120.39 257.05c11.05,4.7 72.15,4.37 80.63,-0.44 -5.6,-7.66 -17.98,-4.24 -39.6,-4.24l-32.78 -0.22c-16.02,1.98 -3.09,1.72 -8.26,4.91z"/>
   <path class="fil1" d="M254.57 164.84c0.01,8.14 -0.61,18.94 15.27,17.26 14.79,-1.56 3.44,-0 8.05,-3.7 -5.65,-4.28 -9.01,-2.41 -15.69,-5.43l-0.56 -16.02c27.67,-2.91 13.22,3.43 21.85,15.73 2.9,-3.61 5.39,-8.11 3.12,-15.81 -3,-10.22 -11.92,-7.61 -26.02,-6.88 -4.66,5.95 -6.04,3.83 -6.02,14.84z"/>
   <path class="fil1" d="M209.48 210.95l1.93 14.62c9.57,1.63 12.41,3.24 21.12,-1.06 -5.74,-7.54 -3.58,-2.69 -15.89,-6.08 -0.67,-17.82 -1.79,-18.26 16.57,-16.63l3.67 16.49c26.8,-18.17 -32.72,-39.81 -27.41,-7.33z"/>
   <path class="fil1" d="M47.49 184.15c5.65,-3.57 4.56,1.63 4.56,-11.17l0 -46.1c0,-12.27 1.81,-8.29 -4.55,-12.74 -4.28,8.13 -4.56,59.74 -0.01,70.01z"/>
  </g>
 </g>
</svg>
