<?xml version="1.0" encoding="UTF-8"?>
<!DOCTYPE svg PUBLIC "-//W3C//DTD SVG 1.1//EN" "http://www.w3.org/Graphics/SVG/1.1/DTD/svg11.dtd">
<!-- Creator: CorelDRAW -->
<svg xmlns="http://www.w3.org/2000/svg" xml:space="preserve" width="100%" height="100%" version="1.1" style="shape-rendering:geometricPrecision; text-rendering:geometricPrecision; image-rendering:optimizeQuality; fill-rule:evenodd; clip-rule:evenodd"
viewBox="0 0 393.7 420.87"
 xmlns:xlink="http://www.w3.org/1999/xlink"
 xmlns:xodm="http://www.corel.com/coreldraw/odm/2003">
 <defs>
  <style type="text/css">
   <![CDATA[
    .fil2 {fill:#404E57}
    .fil3 {fill:#63B4F5}
    .fil1 {fill:#ED5250}
    .fil0 {fill:#FEC828}
   ]]>
  </style>
 </defs>
 <g id="Layer_x0020_1">
  <metadata id="CorelCorpID_0Corel-Layer"/>
  <path class="fil0" d="M236.73 307.84c-12.51,-0.04 -14.6,1.71 -10.48,-10.37 11.76,-3.91 10.14,-2.03 10.48,10.37zm-33.86 -2.09c-10.62,3.92 -0.88,3.95 -11.95,0.22 -1.38,-14.7 12.29,-16.08 11.95,-0.22zm-34 0.62c-10.18,2.52 -1.9,3.92 -11.76,-1.07 -1.48,-12.05 4.35,-10.87 12.5,-7.5l-0.73 8.57zm-43.04 -36.73c0,69.86 -7.67,82.98 18,82.98 34.69,0 89.62,1.44 121.98,-1.31 4.01,-15.74 2.02,-37.81 2.06,-55.8 0.12,-51.84 13.69,-44.17 -89.54,-44.18 -42.65,-0.01 -52.5,-5.88 -52.5,18.31z"/>
  <path class="fil1" d="M176.17 143.19c0,-7.34 1.07,-11.57 3.2,-16.09 15.91,-5.11 44.4,13.52 45,31.62 -54.59,44.64 -48.21,13.65 -48.21,-15.53zm-3.99 -45.42c-23.87,13.48 -12.41,8.61 -31.35,31.28 7.19,17.76 -15.1,40.08 22.07,69.8 23.56,18.83 55.22,12.37 74.31,-5.43 17.99,-16.79 24.02,-49.39 6.83,-72.78 -23.04,-31.34 -33.81,-21.67 -71.85,-22.87z"/>
  <path class="fil2" d="M194 404.7c6.87,4.04 2.22,1.14 7.52,2.23 10.56,2.17 4,-1.71 10.7,3.52 -7.5,5.69 -18.99,3.35 -32.32,2.04l-0.06 -16.29c8.31,-3.55 23.56,-4.5 32.11,-0.12 -7.3,7.89 -17.48,0.94 -17.96,8.62zm120.7 -79.29c-5.62,-16.08 -2.53,-91.86 -2.02,-114.07l19.25 0.03c0.46,23.01 3.16,96.57 -2.25,114.37l-14.98 -0.33zm25.81 -100.21c36.74,-2.01 46.2,8.13 46.06,44.47 -0.13,34.04 -12.1,44.29 -46.92,42.06l0.86 -86.53zm-35.35 -1.54c0,32.37 -1.7,76.32 1.65,107.2l25.18 3.46c-0.82,29.65 -13.94,46.2 -30,56.05 -21.9,13.43 -49.67,9.8 -77.68,9.8l-3 -3.61c-9.57,-12.1 -7.13,-10.07 -28.63,-10.07 -13.43,0 -20.57,1.14 -20.59,15.35 -0.02,21.08 3.64,18.99 29.21,18.99 18.78,0 14.14,0.51 20.12,-12.79 36.02,-3.61 61.5,6.41 89.03,-14.89 28.26,-21.87 22.93,-32.51 30.3,-72.95 49.9,-4.26 52.93,-12.81 52.93,-59.17 0,-31.99 -17.19,-43.44 -48.66,-43.5 -11.86,-5.16 -0.84,-1.31 -8.1,-8.81 -5.23,-5.41 -31.78,-16.32 -31.78,14.95z"/>
  <path class="fil2" d="M37.48 209.85c6.77,-9.68 3.63,-29.23 3.69,-40.82 0.51,-90.32 64.94,-160.89 154.39,-161.7 47.3,-0.43 95.24,22.59 123.07,58.74 22.94,29.79 33.51,60.35 33.93,100.06 0.08,7.72 -0.14,15.44 -0.19,23.14 -0.02,1.89 0.01,10 0.28,11.43 1.92,10.35 -0.3,3.84 3.89,9.2 8.63,-13.73 8.21,-99.11 -32.77,-148.84 -97.51,-118.33 -286.31,-54.16 -289.84,102.23l-0.16 34.66c0.6,5.89 -0.59,-0.43 0.81,5.28 1.24,5.07 1.21,4.07 2.91,6.63z"/>
  <path class="fil2" d="M57.6 196.51c13.23,-14.04 -9.75,-63.3 33.28,-117.8 68.85,-87.2 209.4,-56.75 237.03,50.39 8.8,34.13 -1.36,58.85 8.5,67.35 7.85,-11.1 1.7,-56.71 -2.1,-71.22 -5.77,-21.98 -16.01,-38.37 -27.69,-52.83 -72.96,-90.28 -216.82,-56 -246.51,50.4 -4.06,14.56 -12.07,61.47 -2.52,73.7z"/>
  <path class="fil3" d="M53.48 311.43l0.53 -86.01c-36.07,-3.22 -46.47,7.46 -46.6,41.33 -0.13,34.26 9.26,48.78 46.07,44.69z"/>
  <path class="fil3" d="M339.65 311.72c34.81,2.22 46.78,-8.02 46.92,-42.06 0.15,-36.33 -9.32,-46.48 -46.06,-44.47l-0.86 86.53z"/>
  <path class="fil2" d="M125.83 269.63c0,-24.19 9.84,-18.32 52.5,-18.31 103.23,0.02 89.66,-7.66 89.54,44.18 -0.04,17.99 1.95,40.06 -2.06,55.8 -32.36,2.76 -87.29,1.31 -121.98,1.31 -25.67,0 -18,-13.12 -18,-82.98zm-7.03 0c0,109.93 -22.53,90.25 131.38,90.25 33.48,0 24.94,-27.62 24.93,-58.64 -0.02,-66.78 12.74,-56.96 -108.28,-57.11 -31.22,-0.04 -48.02,-6.89 -48.02,25.5z"/>
  <path class="fil2" d="M79.11 325.26c-15.18,1.23 -17.12,3.16 -17.7,-12.17l1.92 -101.56 17.77 0.31c0.81,20.34 3.36,99.04 -2,113.42zm-25.63 -13.83c-36.8,4.09 -46.2,-10.43 -46.07,-44.69 0.13,-33.87 10.53,-44.55 46.6,-41.33l-0.53 86.01zm-4.51 -93.92c-43.85,0.06 -48.97,19.07 -48.97,55 0,35.35 13.7,47.05 48.97,47.13 14.52,5.93 -3.45,13.46 20.12,13.52 16.82,0.04 19.44,-0.76 19.44,-17.54 0,-21.27 2.34,-93.28 -2.43,-109.17 -32.64,-10.75 -25.69,5.47 -37.13,11.07z"/>
  <path class="fil2" d="M140.83 129.06c18.51,-22.92 68.27,-54.39 103.2,-8.42 17.19,23.39 11.16,55.99 -6.83,72.78 -19.09,17.81 -50.75,24.26 -74.31,5.43 -37.17,-29.71 -14.89,-52.04 -22.07,-69.8 -14.52,7.51 -13.29,53.54 18.42,76.36 55.33,39.82 130.39,-24.39 91.2,-88.34 -6.43,-10.5 -16.19,-19.68 -32.4,-25.37 -21.72,-16.29 -77,13.9 -77.22,37.35z"/>
  <path class="fil3" d="M314.7 325.41l14.98 0.33c5.41,-17.8 2.7,-91.36 2.25,-114.37l-19.25 -0.03c-0.51,22.2 -3.59,97.98 2.02,114.07z"/>
  <path class="fil3" d="M79.11 325.26c5.35,-14.38 2.81,-93.07 2,-113.42l-17.77 -0.31 -1.92 101.56c0.57,15.33 2.52,13.41 17.7,12.17z"/>
  <path class="fil2" d="M185.01 173.7l-2 -13.22 0.35 -17.28 0.83 -11.19c11.67,2.78 24.88,12.62 32.59,19.81 -4.81,9.03 -22.87,19.33 -31.76,21.89zm-8.84 -30.51c0,29.18 -6.38,60.17 48.21,15.53 -0.6,-18.09 -29.09,-36.72 -45,-31.62 -2.13,4.52 -3.2,8.75 -3.2,16.09z"/>
  <path class="fil2" d="M226.26 297.47c-4.12,12.08 -2.04,10.33 10.48,10.37 -0.34,-12.4 1.28,-14.28 -10.48,-10.37z"/>
  <path class="fil2" d="M157.11 305.3c9.86,4.98 1.58,3.59 11.76,1.07l0.73 -8.57c-8.15,-3.37 -13.98,-4.55 -12.5,7.5z"/>
  <path class="fil2" d="M190.92 305.96c11.07,3.73 1.33,3.7 11.95,-0.22 0.34,-15.86 -13.33,-14.48 -11.95,0.22z"/>
 </g>
</svg>
