<?xml version="1.0" encoding="UTF-8"?>
<!DOCTYPE svg PUBLIC "-//W3C//DTD SVG 1.1//EN" "http://www.w3.org/Graphics/SVG/1.1/DTD/svg11.dtd">
<!-- Creator: CorelDRAW -->
<svg xmlns="http://www.w3.org/2000/svg" xml:space="preserve" width="100%" height="100%" version="1.1" style="shape-rendering:geometricPrecision; text-rendering:geometricPrecision; image-rendering:optimizeQuality; fill-rule:evenodd; clip-rule:evenodd"
viewBox="0 0 1925.58 1934.8"
 xmlns:xlink="http://www.w3.org/1999/xlink"
 xmlns:xodm="http://www.corel.com/coreldraw/odm/2003">
 <defs>
  <style type="text/css">
   <![CDATA[
    .fil0 {fill:#003399}
   ]]>
  </style>
 </defs>
 <g id="Layer_x0020_1">
  <metadata id="CorelCorpID_0Corel-Layer"/>
  <path class="fil0" d="M39.37 1413.15l1844.28 -0.48c-31.48,169.85 -217.06,124.08 -396.7,124.08l-1031.81 -0.03c-175.96,0.53 -379.07,48.51 -415.76,-123.57zm1632.59 -1173.12c56.52,27.13 183.94,-20.3 212.05,134.86l-263.3 2.67c24.65,51.56 150.41,30.39 266.34,30.39l-0.15 971.64 -1849.32 -0.22 -0.95 -478.12c0.14,-23.63 2.26,-58.29 1.09,-80.33 -0.81,-15.41 -0.42,-21.89 -4.52,-36.8 -7.81,-28.45 -2.2,-13.23 -14.61,-28.89l-9.23 18.63c-14.99,56.21 -6.23,449.18 -6.41,510.94 -0.68,237.3 30.94,285.88 266.93,285.22 365.95,-1.02 732.04,-0.07 1098,-0.07 664.56,0 548.1,124.08 552.31,-1078.67 0.46,-132.64 -15.08,-284.81 -196.06,-274.44 -83.68,4.8 -32.56,12.19 -52.17,23.18z"/>
  <path class="fil0" d="M477.44 957.78l-58.96 -84.03 143.48 0.78c-17.92,38.65 -35.9,58.22 -84.53,83.24zm499.77 -96.18c69.71,-79.39 135.37,-35.18 76.46,56.26 -47.41,-12.07 -52.24,-29.5 -76.46,-56.26zm-538.13 -349.93c216.54,-74.79 316.66,270.41 99.34,326.96 -214.99,55.95 -312.51,-253.34 -99.34,-326.96zm-248.75 834.94c12.99,-156.67 -37.19,-386.76 77.26,-448 92.78,-49.65 116.94,-3.74 167.17,49.01 85.52,89.81 1.09,161.01 60.07,209.99 27.27,-57.5 -0.69,-101.17 18.48,-158.57 4.9,-14.67 67.03,-96.01 80.43,-105.2 78.18,-53.69 161.98,89.72 218.57,115.79 55.24,-25.7 89.35,-76.28 132.29,-116.14l62 57.43c-33.94,49.3 -137.44,160.19 -194.29,178.85 -78.08,-25.53 -75.58,-73.45 -145.04,-109.4l-1.3 330.49 28.65 -9.59 1.72 -251.01c67.33,36.99 95.3,124.67 190.48,31.1 46.01,-45.23 111.94,-124.85 161.91,-154.23 15.29,-28.55 135.31,-125.27 5,-177.92 -94.42,-11.85 -174.47,128.31 -241.42,175.59 -35.22,-24.55 -47.8,-46.99 -82.16,-74.33 -47.74,-37.99 -76.07,-30.43 -117.77,-55.8 156.85,-111.18 77.91,-373.77 -131.01,-364.26 -194.77,8.88 -263.74,262.31 -111.04,372.62 -271.15,28.78 -210.28,228.1 -210.01,481.46 18.47,30.16 -10.91,17.04 30.01,22.14z"/>
  <path class="fil0" d="M18.6 499.31c27.96,-30.73 17.96,-36.25 17.98,-85.82 57.69,-14.99 729.08,-5.54 881.54,-5.54 104.24,0 238.87,19.4 263.43,-25.92l-1142.47 -6.88c35.31,-169.55 232.07,-123.9 495.42,-123.9 107.82,0 531.21,20.49 595.81,-11.22 -22.64,-35.99 -9.62,-22.49 -146.01,-21.9 -151.31,0.66 -814.51,-18.08 -887.35,20.72 -37.43,19.94 -72.13,54.64 -85.61,100.22 -13.5,45.66 -19.16,125.88 7.25,160.23z"/>
  <path class="fil0" d="M1053.05 748.68c35.05,-18.66 20,-57.44 20.78,-181.47l653.73 -1.82 1.52 465.78 -624.67 -0.2c-64.25,-14.44 1.98,-1.37 -51.83,-30.52 -71.57,97.26 236.74,66.82 302.09,66.82 86.5,0 340.57,19.53 398.37,-20.52 22.06,-54.3 15.55,-445.55 -0.77,-503.69 -71.32,-20.81 -635.89,-21.2 -702.11,0.97 -12.98,43.45 -27.39,166.85 2.89,204.66z"/>
  <path class="fil0" d="M732.19 1805.11c152.61,1.96 432.23,-8.12 553.65,3.19l2.46 85.58c-127.35,8.38 -542.02,14.37 -653.19,-7.53 -6.11,-95.89 4.93,-82.43 97.07,-81.24zm-124.54 -23.91l-3.23 140.58c160.59,22.54 455.76,9.05 631.19,8.76 137.99,-0.22 82.53,-129.07 80.9,-131.95 -26.5,-46.93 -162.89,-26.61 -226.41,-26.6 -70.36,0 -454.49,-5.86 -482.44,9.21z"/>
  <path class="fil0" d="M1368.06 36.04c115.99,-22.8 212.65,65.98 230.83,155.99 25.38,125.72 -58.87,221.04 -156.81,240.93 -260.21,52.8 -349.95,-342.67 -74.02,-396.92zm-36.42 -23.91c-305.3,100.3 -149.04,546.69 148.09,445.56 103,-35.05 192.77,-161.78 145.14,-302 -35.28,-103.85 -158.15,-187.94 -293.23,-143.57z"/>
  <path class="fil0" d="M1346.41 153.53c37.5,8.01 110.69,49.42 132.7,91.96l-140.13 70.23 7.42 -162.19zm-25.2 186.3c64.37,21.22 74.48,-4.53 124.26,-35.36 57.41,-35.57 65.12,-25.42 65.82,-93.34 -26.03,-26.01 -173.57,-139.64 -201.47,-57.59 -7.85,23.1 0.63,-15.4 -4.34,21.08 -6.49,47.6 -4.61,128.08 15.74,165.21z"/>
  <path class="fil0" d="M1168.47 795.48c29.5,41.04 259.44,19.87 358.39,20.97 52.54,0.58 82.07,13.65 106.95,-20.97 -47.66,-26.29 -415.61,-26.73 -465.34,0z"/>
  <path class="fil0" d="M287.03 1338.25c26.72,12.12 11.48,8.37 29.68,2.55l1.73 -125.54c0.37,-38.8 0.73,-77.7 0.93,-116.5 0.28,-54.97 12.3,-57.43 -22.98,-75.79 -26.73,54.23 -10.08,242.4 -9.37,315.28z"/>
  <path class="fil0" d="M1168.46 914.5c45.8,23.31 198.24,28.52 246.35,0 -22.65,-32.54 -125.31,-25.61 -193.6,-22.66 -82.53,3.56 -33.06,11.72 -52.74,22.66z"/>
  <path class="fil0" d="M1143.01 1736.77c27.73,-16.26 22.19,13.7 25.24,-54.52 1.46,-32.6 -0.37,-53.37 -12.02,-78.07 -27.23,14.09 -21.05,-10.04 -24.39,49.98 -1.96,34.99 0.37,55.39 11.17,82.61z"/>
 </g>
</svg>
