<?xml version="1.0" encoding="UTF-8"?>
<!DOCTYPE svg PUBLIC "-//W3C//DTD SVG 1.1//EN" "http://www.w3.org/Graphics/SVG/1.1/DTD/svg11.dtd">
<!-- Creator: CorelDRAW -->
<svg xmlns="http://www.w3.org/2000/svg" xml:space="preserve" width="100%" height="100%" version="1.1" style="shape-rendering:geometricPrecision; text-rendering:geometricPrecision; image-rendering:optimizeQuality; fill-rule:evenodd; clip-rule:evenodd"
viewBox="0 0 3168.13 4182.3"
 xmlns:xlink="http://www.w3.org/1999/xlink"
 xmlns:xodm="http://www.corel.com/coreldraw/odm/2003">
 <defs>
  <style type="text/css">
   <![CDATA[
    .str0 {stroke:#173988;stroke-width:3;stroke-miterlimit:2.61313}
    .fil0 {fill:#003399}
   ]]>
  </style>
 </defs>
 <g id="Layer_x0020_1">
  <metadata id="CorelCorpID_0Corel-Layer"/>
  <path class="fil0" d="M1932.59 2034.81c-31.35,-92.53 90.96,-95.8 89.28,-14.99 -1.44,69.02 -103.03,84.71 -131.39,23.5 -67.5,-145.69 191.19,-165.21 160.89,-16.51 -5.26,25.79 -11.58,25.77 -27.73,34.39 9.96,-40.37 28.85,-88.03 -26.43,-111.17 -44.44,-18.59 -87.04,5.99 -89.07,50.26 -2.39,52.19 47.74,80.34 82.13,48.46 27.5,-25.48 8.8,-86.7 -40.62,-55.27 -5.15,22.76 -11.07,11.78 4.69,35.26 28.81,-6.44 -6.12,-9.87 29.7,-21.28l-5.8 30.78c-24.87,9.33 -21.38,6.02 -45.64,-3.44zm-388.91 30.21c-1.35,-56.65 -0.69,-113.76 -0.67,-170.47 0.03,-92.69 -13.36,-101.09 36.2,-130.9 200.89,-120.87 132.74,37.85 103.21,63.36l22.46 14.31c74.41,49.6 -49.48,192.03 -161.19,223.7zm363.33 -394.73c0.31,-102.15 -18.69,-85.99 54.24,-124.56 6.39,122.36 10.33,255.39 -63.76,318.41 -156.4,133.03 -141.32,-63.56 -133.59,-206.19l52.99 -27.67c2.32,62.59 -16.22,170.9 18.72,211.75 78.01,-1.67 71.23,-95.34 71.41,-171.75zm300.54 -268.96c18.4,-8.34 33.61,-22.73 54.67,-26.95l0.51 278.24 -55.65 29.16 -0.27 -150.02 0.05 -19.79 -0.12 -19.79 0.81 -90.87zm-198.23 227.62c-19.64,-97.76 67.97,-178.31 149.29,-188.71l-10.3 54.59c-39.87,13.61 -104.29,32.76 -81.77,76.72 23.71,13.96 52.35,-4 92.88,12.52 40.11,96.09 -73.31,205.01 -157.1,205.19 9.25,-80.09 6.07,-44.83 60.61,-69.63 26.92,-12.24 58.04,-37.91 43.68,-69.84 -35.41,-19.89 -43.37,15.24 -97.29,-20.84zm503.41 -399.66l-0.29 279.8 -56.81 29.85c-36.63,-36.19 -57.88,-102.06 -95.08,-138.38l0.08 195.95 -50.42 26.24 1.77 -281.03c24.52,-13.5 38.18,-25.36 66.14,-34.72l74.87 116.23 9.8 -169.84 49.94 -24.11zm199.97 -115.23l-0.73 49.07 -95.29 58.63 1.8 53.03 87.79 -46.48 -0.49 46.22c-17.56,16.57 -65.84,40.87 -89.2,55.31l0.06 61.03c35.76,-4.18 65.12,-40.99 100.94,-48.83l-0.6 49.22 -155.86 87.13 -1.09 -278.91 152.68 -85.42zm140.65 107.97c-20.43,-14.53 -28.36,-6.34 -55.15,-6.17 -111.49,0.7 -21.35,-193.61 105.04,-204.58l-10.75 53.93c-35.84,12.96 -105.94,34.01 -80.43,77.28 22.22,11.2 28.54,2.5 53.52,2.51 115.02,0.02 16.18,209.07 -119.62,215.3l10.85 -52.8c36.49,-19.68 112.74,-27.46 96.54,-85.47zm196.65 -119.21c-40.37,-5.81 -82.67,13.54 -99.59,-20.07 -31.29,-62.19 66.95,-187.16 149.28,-183.17l-11.72 51.74c-42,20.81 -85.89,19 -85.36,79.58 28.7,7.32 78.83,-9.9 97.74,14.29 34.27,43.85 -20.17,181.38 -158.43,202.88l10.74 -57.7c53.68,-10.82 105,-27 97.34,-87.55zm-1579.83 296.95l0.69 699.27c-15.52,2.2 -63.78,13.05 -71.46,11.11 -32.81,-8.31 -56.81,-21.16 -88.73,4.66 -36.92,29.85 -37.67,130.22 -22.39,179.89l41.08 -1.5c27.98,-54.59 -22.17,-136.28 43.43,-130.9 18.29,40.42 -0.13,86.04 15.72,132.24l42.17 -0.52c12.4,-36.65 6.82,-87.02 8.5,-129.01 21.59,-5 8.01,-5.58 29.28,1.16 10.53,72.87 -1.37,1663.24 2.3,1951.52 0.37,28.92 4.72,42.36 -3.28,55.83 9.21,10.04 -12.11,6.24 11.92,8.79l842.57 -488.6c139.44,-83.37 280.18,-166.29 422.11,-244.06l424.06 -242.62 -0.04 -2773.06c-34.98,1.02 -494.83,275.65 -589.23,329.71 -118.29,67.72 -1075.59,628.13 -1108.7,636.11z"/>
  <path class="fil0" d="M38.76 3321.8c40.92,9.65 150.18,80.72 192.41,104.13l2.43 48.49c-30.75,-7.5 -125.83,-66.66 -165.76,-89.14 -33.5,-18.87 -28.92,-18.38 -29.08,-63.48zm424.92 146.14c5.35,1.5 26.15,-19.44 17.95,68.54 14.25,-20.52 6.12,-17.22 41.31,-19.25 -0.82,27.17 10.52,36.31 -21.79,46.8 -24.34,7.89 13.57,12 -10.22,-1.25l-1.45 -3.84c-0.08,-0.17 -0.22,-1.81 0.43,-2.16 -7.92,37.86 -4.83,31.61 0.22,55.2 0.39,1.83 0.95,3.55 1.31,5.31l2.67 33.41c-2.2,34.29 1.94,4.44 -6.18,25.27l2.9 -7.6c0.37,-0.61 1.44,-2.53 1.91,-3.22 0.52,-0.78 1.83,-2.58 2.43,-3.4 0.64,-0.87 2.13,-2.53 2.81,-3.4 29.66,-37.96 2.79,-40.26 -0.59,-51.39 -4.29,-14.12 -0.57,-13.92 2.3,-23.43 0.65,-2.14 1.87,-4.92 3.5,-6.92 17.2,7.71 26.16,4.48 20.36,58.04 -2.79,25.73 -2.33,35.97 -4.19,60.66l-76.24 19.76c0.24,12.52 -20.56,-13.57 3.17,6.25 16.11,13.46 41.6,19.58 43.71,20.2 2.93,-28.54 2.24,-21.55 13.22,-39.57 9.98,5.57 34.72,-4.65 13.13,72.49 -2.17,0.43 -5.55,-1.49 -6.6,0.65l-11.25 0.1c-33.34,-7.31 -9.92,-6.49 -10.14,-7.35 1.07,0.96 37.59,60.73 34.61,89.31 -24.12,0.75 -4.75,2.72 -18.19,-6.27l-9.18 -8.82c-52.77,-50.01 -25.23,-21.79 -57.75,-34.06 -19.33,-7.3 -2.55,-7.42 -29.31,-19.61 -1.98,-0.91 -8.86,-3.04 -11.12,-4.04l-12.84 -6.21c-2.09,-1.01 -4.74,-2.04 -6.69,-3.66l0.63 -24.6 -40.74 -12.78c-1.11,-0.68 -2.98,-1.4 -4.21,-1.99 -0.67,-0.32 -12.28,-3.73 -14.58,-4.59l-79.01 -46.2c-19.02,-12.11 -10.84,2.49 -18.2,-20.62 -1.88,-5.91 -1.99,-34.16 -2.19,-40.9 42.42,11.09 24.81,30.15 46.14,40.12 8.79,-40.02 -7.96,1.54 -13.19,-40.19l-21.24 -4.12 -152.67 -88.69 -3.07 54.15c-46.86,-16.17 -37.8,-14.75 -37.05,-73.35 0.48,-37.85 -0.66,-76.06 0.75,-113.81 49.62,18.06 35.71,23.27 37.58,78.83 26.18,14.75 48.44,28.07 74.83,43.32 18.17,10.5 60.65,28.01 67.92,43.5 16.76,-15.87 5.99,-19.07 21.83,-37.8 20.28,-23.98 -18.64,-0.41 17.68,-14.09 34.27,50.98 -7.43,28.73 -6.56,79.78l26.35 -33.61 6.31 33.64c22.85,-41.03 -19.89,-11.28 -19.47,-92.74 0.08,-15.43 0.49,-30.98 0.59,-46.47 10.85,-8.88 32.16,-19.45 48.91,-17.93 20.13,1.82 7.36,0.62 3.31,4.71l6.39 -35.45c-36.54,-55.99 -46.82,-3.59 -45.4,-110.68l192.79 39.48 0.67 54.13 -48.7 -7.62c-0.61,39.1 -3.52,80.75 39.4,90.06zm-424.37 -421.17c53.52,14.39 139.61,70.48 193.28,94.71l-1.44 49.4 -123.68 -63.83c35.28,63.96 125.67,78.93 120.54,159.85l-127.29 -31.27 130.07 85.09 2.03 44.35c-25.76,-7.13 -93.86,-55 -119.56,-71.79 -45.63,-29.8 -89.41,-35.87 -70.39,-117l117.52 29.65c-12.59,-17.54 -54.33,-52.88 -73.52,-70.75 -42.48,-39.58 -49.65,-26.6 -47.56,-108.41zm239.7 -37.88l166.31 90.97c37.33,21.3 28.88,21.22 27.29,70.63l-136.78 8.21c11.11,0.42 61.68,32.78 79.95,43.15 43.33,24.59 62.28,17.15 55.85,77.07l-174.7 -95.96c-25.62,-18.04 -21.23,-35.5 -15.08,-71.98l126.15 -7.01 -127.33 -69.53 -1.67 -45.56zm-239.97 -151.3l34.36 14.74 3.04 89.28 36.41 21.27 2.33 -77.3c17,6.37 21.22,8.76 36,19.57l0.87 77.54 40.93 26.99 3 -84.56 36.92 15.62 0.11 140.51 -191.32 -105.78 -2.64 -137.9zm241.14 -11.83c43.89,3.28 161.91,26.81 191.81,44.8l1.13 48.2 -47.81 -7.52c-9.37,129.37 51.31,40.82 47.28,152.92 -19.05,-9.34 -1.45,1.55 -18.84,-12.05l-152.33 -138.19c-29.24,-24.69 -24.76,-37.14 -21.23,-88.17zm-4.3 -1089.79l4.58 -44.94c36.09,14.01 76.6,41.45 112.86,62.45 18.86,10.93 38.51,20.67 58.98,33.4 37.3,23.2 14.19,24.85 25.67,63.57 -12.22,20.29 30.96,15.02 -23.25,17.48 25.77,-12.89 31.73,7.78 43.9,16.21 1.06,0.73 2.68,1.76 3.75,2.45 24.74,15.93 3.02,-11.83 23.72,14.35 -9.81,63.09 -36.67,-16.92 -36.11,105.57 -5.27,-14.24 -3.09,13.45 4.9,-22.2 9,-40.17 0.81,-26.93 15.62,-37.16 16.14,4.02 12.44,-3.34 13.31,20.83 0.67,18.55 1.62,22.2 -4.43,35.01 -19.98,42.31 6.25,31.6 -34.21,58.15 43.83,-4.65 -17.56,-21.09 44.49,-9.91 -3.25,13.5 -8.22,25.73 -22.31,33.3l-8.64 2.98c-1.57,0.34 -10.75,-1.43 -12.9,-1.87l3.56 46.25c5.64,-18.04 0.51,-1.67 8.37,-19.83 20.11,5.02 27.06,10.56 40.25,10.93 29.01,0.82 23.67,-21.23 54.67,-29.86 18.35,-5.11 14.15,2.24 40.96,-8.84 -10.45,-14.28 -4.13,-9.16 -17.96,-13.96 -20.89,-7.25 -11.18,-3.72 -13.5,2.08 18.4,-0.07 16.67,2.5 33.35,-4.7 17.02,-7.35 7.23,-1.97 15.43,-15.09l-7.59 40.91c-2.94,30.3 12.67,40.05 5.5,70.79 -5.24,22.46 -12.81,19.52 -19.01,34.98 -9.56,23.87 -2.07,17.65 -1.3,20.57 39.46,-5.59 31.97,-27.61 29.65,-81.46l3.17 -108.51c5.77,15.79 4.72,-4.7 5.79,-5.52 0.63,-0.49 2.37,-1.96 3.07,-2.44 0.68,-0.46 2.43,-1.71 3.14,-2.11 21.76,-12.04 -0.28,-6.98 21.6,-0.2 -2.16,117.57 17.71,183.79 -34.72,228.78l-7.17 6.06c-28.96,21.73 -59.56,10.87 -86.33,-8.64l-31.19 -45.21c-4.38,-13.79 -2.1,-9.94 -8.8,-22.68 10.27,32.1 -2.47,14.75 -30.09,12.77 4.13,-23.74 -8.08,-25.58 34.66,-41.89l10.61 -3.83c-19.89,-21.44 -11.22,-4.72 -52.85,19.67 7.78,11.52 3.08,21.73 2.88,23.68 -0.89,8.81 -5.1,29.24 -7.09,40.13 -0.47,-38.07 6.19,-8.53 11.79,-36.35 37.17,13.54 7.43,-2.58 33.7,24.22l-26.73 15.28c27.29,4.64 -0.3,-8.48 21.56,20.84 15.67,21.01 -6.76,8.48 4.45,4.7 -37.81,27.48 -23.53,-11.72 -39.64,26.32l-35.61 -23.22c-4.3,-0.96 -3.49,-4.92 -12.22,5.74 36.23,-2.52 23.58,8.91 33.66,31.58 25.38,-2.06 5.67,-1.52 26.65,-13.08l13.9 -7.55c-0.04,27.21 4.47,41.98 3.44,62.32 -0.97,19.4 -3.35,33.3 -3.44,56.34l-29.22 1.87c-4.86,22.69 10.57,14.7 19.93,42.79 -13.36,13.75 -20.33,11.8 -27.16,23.56 -18.33,31.57 -3.48,-18.99 -3.13,11.54l-3.27 1.22 23.09 -21.55c30.92,32.89 32.5,44.94 19.76,92.31 -8.02,29.83 19.37,58.14 -29.16,65.96 29.43,48.47 -20.8,50.81 13.79,70.04 0.97,0.54 3.56,1.36 5.03,2.52 -1.9,7.2 -21.42,84.43 -22.57,85.78 0.04,-2.13 -0.05,-20.5 0.13,-21.05 8.24,-25.53 -5.05,-13.76 19.63,-25.13 0.01,0.01 30.63,0.76 5.64,59.33 12.23,27.14 26.46,-11.8 14.15,32.9 -36.9,13.37 -37.87,7.09 -54.37,-13.98l-14.25 21.09c-0.99,1.44 -2.42,3.9 -3.94,5.59 -37.17,-3.39 -37.65,-3.03 -66.1,-10.12 -18.37,-4.58 -34.94,4.07 -65.79,4.07 11.35,-32.31 18.09,-16.58 21.72,-33.65 -0.92,1.35 17.56,12.33 -8.7,4.47 -18.69,-5.59 -2.3,2.14 -17.69,-10.36 5.09,-20.6 0.31,-4.6 8.13,-26.72 -3.86,-15.43 1.91,1.56 -4.8,-12.45 -0.86,-1.79 -5.85,-11.02 -6.63,-12.39 -5.16,-9.15 -12.92,-21.64 -16.49,-26.42 -11,-4.19 -4.26,-2.87 -15.2,-1.2 0,26.7 -0.14,42.75 -19.75,65.96 -21.8,-26.31 -15.73,-76.16 -5.06,-102.1 8.77,-21.3 12.46,-13.13 3.61,-35.61 -0.74,-1.87 -4.01,-6.85 -4.85,-8.97 -0.72,-1.81 -1.68,-3.12 -2.34,-5.11l-4.53 -46.04c25.91,8.87 35.72,-11.34 19.79,24.92 8.09,-27.42 -5.88,-24.1 -13.19,-51.3 15.93,-5.95 12.28,-5.37 33.52,-6.63 0.47,-16.14 2.17,-6.69 -5.52,-17.87l-12.11 -9.39c1.72,4.15 6.72,7.85 -0.61,19.79 -17.83,29.02 -1.94,11.97 -35.06,20.63 -2.4,-36.37 -1.14,-35.83 20.63,-64.45 16.64,-21.87 7.06,2.34 12.36,-14.67l-4.67 -112.21c0.26,0.32 10.53,0.23 12.42,0.32l13.39 0.61c71.14,5.46 37.82,7.58 38.22,-7.6l-44.46 -33.41 -1.85 -66.2 122.68 26.98c-107.59,-112.64 -122.25,-71.74 -122.41,-178.99l66.24 24.59c16.06,-3.54 9.52,-2.07 19.39,-10.26 -20.92,-20.18 -7.01,4.82 -19.79,-26.04l-64.29 -40.83 -4.35 -136.44c-25.7,-120.06 -12.02,-45.22 -30.3,-86.91 7.32,-14.85 -0.81,-9.81 25.06,-18.17 0.72,-0.24 2.76,0.05 4.02,-0.44 -1.88,-38.78 -15.48,-43.41 17.77,-47.35l-13.86 -0.01c-7.06,-16.69 -3.48,-1.43 -3.09,-26.44zm40.83 -54.49l-37.34 -18.73 -0.3 -166.35c51.25,8.25 35.55,27.71 39.96,74.73 45.76,36.55 113.57,60.16 155.06,93.81l-0.06 42.86c-31.71,-0.46 -112.43,-65.06 -155.91,-79.29l-1.41 52.96zm636.21 2103.82l-0.82 -2698.68c17.25,-25.63 128.06,-81.48 155.96,-98.02l953.65 -550.3c46.52,-27.18 117.38,-63.12 156.5,-92.22l-1.53 -73.53c-112.89,-43.5 -32.63,-75.59 -192.35,17.35l-455.71 262.22c-17.71,10.07 -38.13,15.92 -54.41,25.54 -38.05,22.47 -26.36,25.02 -97.52,60.78 -22.45,11.29 -30.85,17.94 -50.58,28.3 -35.54,18.65 -20.3,18.73 -45.55,32.93 -18.17,10.22 -38.37,18.09 -57.24,28.74 -5.03,2.84 -18.59,12.26 -23.74,15.81l-24.62 14.85c-21.57,10.73 -30.38,16.59 -50.17,28.96 -8.78,5.48 -16.21,10.7 -23.48,16.51l-333.93 186.8c-21.56,14.19 -27.44,16 -52.57,27.34 -21.29,9.61 -24.02,17.74 -47.33,31.22l-100.26 58.11c-119.79,72.04 -101.69,54.95 -168.37,13.37 -42.51,-26.51 -151.19,-79.19 -171.94,-103.17 54.3,-25.74 125.91,-72.93 184,-105.85l1091.15 -630.82c64.17,-37.89 122.4,-68.26 181.41,-103.73 26.74,10.12 36.32,22.22 66.09,30.72l-0.26 -180.88c-24.2,-21.63 -82.4,-60.5 -115.67,-43.44 -37.07,19 -76.35,45.42 -112.65,66.13l-393.75 226.04c-19.97,10.87 -36.07,21.89 -54.07,32.5l-1113.14 642.23 -0.02 2780.29c34.81,12.25 145.11,84.54 163.46,93.17 16.78,7.89 17.11,7.36 34.27,18.38l318.66 187.08c14.84,2.03 384.05,-221.41 436.53,-244.72z"/>
  <path class="fil0 str0" d="M952.91 3805.3l-0.15 74.45c55.22,27.14 477.04,288.98 514.7,293.75 7.99,-13.48 3.65,-26.91 3.28,-55.83 -3.67,-288.28 8.23,-1878.65 -2.3,-1951.52 -21.27,-6.74 -7.69,-6.16 -29.28,-1.16 -1.68,41.99 3.9,92.36 -8.5,129.01l-42.17 0.52c-15.85,-46.2 2.57,-91.83 -15.72,-132.24 -65.6,-5.38 -15.44,76.31 -43.43,130.9l-41.08 1.5c-15.28,-49.67 -14.53,-150.04 22.39,-179.89 31.93,-25.81 55.92,-12.96 88.73,-4.66 7.68,1.94 55.95,-8.91 71.46,-11.11l-0.69 -699.27c-29.39,-10.11 -97.34,-53.41 -129.28,-72.44 -48.48,-28.91 -85.67,-49.61 -128.78,-75.32 -39.8,-23.75 -232.25,-142.74 -260.02,-145.38l0.82 2698.68z"/>
  <path class="fil0" d="M2218.19 366.08c-39.12,29.1 -109.97,65.04 -156.5,92.22l-953.65 550.3c-27.9,16.54 -138.71,72.39 -155.96,98.02 27.77,2.64 220.22,121.63 260.02,145.38 43.1,25.71 80.3,46.41 128.78,75.32 31.94,19.04 99.89,62.33 129.28,72.44 33.1,-7.98 990.41,-568.38 1108.7,-636.11 94.41,-54.06 554.25,-328.69 589.23,-329.71 -9.74,-17.62 3.63,-1.71 -13.31,-17.06 -4.13,-3.74 -10.76,-7.21 -16.47,-10.33 -56.79,-31 -50.01,-35.46 -94.48,-8.37l-363.67 210.23c-162.42,92.23 -321.84,191.61 -489.22,282.37 -163.39,88.61 -323.6,188.03 -489.26,282.29 -42.94,24.44 -82.02,47.53 -125.49,72.79 -150.35,87.36 -70.64,93.97 -357.28,-73.39 -38.5,-9.75 -87.13,-34.2 -102.25,-69.43 53.02,-23.84 109.59,-61.88 156.84,-88.3 17.19,-9.61 32.55,-16.86 51.28,-26.88l401.06 -232.52c21.34,-12.34 30.46,-20.91 48.15,-30.69l758.95 -436.43c43.77,-24.28 162.55,-105.51 208.27,-113.92 -96.04,-45.25 -73.22,-70.6 -132.13,-32.96l-390.88 224.72z"/>
  <path class="fil0" d="M1218.91 1172.49c44.86,-38.84 1225.22,-703.67 1419.61,-822.82 61.78,-37.87 44.3,-6.24 99.28,12.39l3.4 -187.74c-45.72,8.41 -164.5,89.64 -208.27,113.92l-758.95 436.43c-17.69,9.79 -26.81,18.35 -48.15,30.69l-401.06 232.52c-18.73,10.02 -34.09,17.27 -51.28,26.88 -47.25,26.43 -103.82,64.46 -156.84,88.3 15.12,35.23 63.76,59.68 102.25,69.43z"/>
  <path class="fil0" d="M276.28 1935.3l39.57 19.63 2.61 86.17 36.69 16.51 1.24 -72.43c51.8,17.58 35.23,38.98 35.84,99.7l44.38 20.81 0.99 -82.34c42.22,11.51 36.63,15.29 36.23,62.22 -0.26,30.83 0.1,61.9 -3.43,94.7l-125.47 -67.69c12.78,30.86 -1.13,5.86 19.79,26.04 -9.87,8.19 -3.33,6.72 -19.39,10.26l36.87 25.04c97.08,48.4 92.08,31.54 89.08,95.22l-126.7 -64.53c15.65,23.45 51.81,47.65 73.95,71.45 33.07,35.54 54.2,34.73 49.54,89.32l-119.6 -29.7c7.18,8.95 2.07,3.27 11.42,11.22l64.47 41.91c36.16,21.74 50.78,19.99 47.71,74.09 -46.74,-18.26 -101.64,-70.25 -146.94,-87 -0.41,15.18 32.92,13.06 -38.22,7.6l-13.39 -0.61c-1.89,-0.09 -12.16,0 -12.42,-0.32l4.67 112.21c-5.3,17.02 4.28,-7.2 -12.36,14.67 -21.77,28.62 -23.02,28.08 -20.63,64.45 33.12,-8.66 17.23,8.39 35.06,-20.63 7.33,-11.94 2.33,-15.65 0.61,-19.79l12.11 9.39c7.69,11.17 6,1.73 5.52,17.87 -21.24,1.26 -17.59,0.68 -33.52,6.63 7.31,27.2 21.29,23.89 13.19,51.3 15.93,-36.26 6.12,-16.05 -19.79,-24.92l4.53 46.04c0.66,1.99 1.62,3.3 2.34,5.11 0.84,2.12 4.11,7.09 4.85,8.97 8.85,22.48 5.15,14.3 -3.61,35.61 -10.68,25.94 -16.75,75.79 5.06,102.1 19.61,-23.21 19.75,-39.26 19.75,-65.96 10.94,-1.67 4.2,-2.99 15.2,1.2 -13.21,-53.94 -26.07,-87.06 -8.05,-145.57 19.31,9.14 16.61,10.6 32.31,25.67 -1.6,50.2 -6.7,89.33 20.33,125.01 20.72,27.36 52.76,52.47 90.76,38.35 7.34,-18.81 10.19,-39.32 6.71,-64.33l-38.88 -5.8c-11.91,14.18 4.7,6.22 -12.81,11.06 -23.5,-14.27 -25.77,6.18 -21.59,-93.44 16.82,5.94 74.55,36.89 88.71,47.48 18.15,13.58 16.61,17.34 20.6,44.21 14.35,96.67 -16.44,170.1 -107.57,102.06 -8.44,-6.3 -10.48,-8.45 -18.06,-14.8 -15.52,-13 -6.39,-8.23 -24.55,-18.65 -7.82,22.12 -3.04,6.12 -8.13,26.72 15.38,12.5 -1,4.76 17.69,10.36 26.26,7.86 7.78,-3.11 8.7,-4.47 -3.64,17.07 -10.38,1.34 -21.72,33.65 30.85,0 47.42,-8.65 65.79,-4.07 28.45,7.09 28.93,6.73 66.1,10.12 1.52,-1.7 2.95,-4.15 3.94,-5.59l14.25 -21.09c16.5,21.07 17.47,27.35 54.37,13.98 12.31,-44.7 -1.92,-5.76 -14.15,-32.9 25,-58.57 -5.63,-59.32 -5.64,-59.33 -24.68,11.36 -11.38,-0.4 -19.63,25.13 -0.18,0.55 -0.09,18.92 -0.13,21.05 1.15,-1.35 20.67,-78.58 22.57,-85.78 -1.47,-1.16 -4.06,-1.98 -5.03,-2.52 -34.59,-19.22 15.64,-21.57 -13.79,-70.04 48.53,-7.82 21.14,-36.14 29.16,-65.96 12.74,-47.37 11.16,-59.43 -19.76,-92.31l-23.09 21.55 -2.35 141.26 -191.94 -109.46 0.41 -135.06c16.53,4.96 26.21,11.28 35.89,18.28l3.5 88.73 36.34 12.77 0.08 -69.55c54.87,15.2 34.7,36.73 37.49,97.22 15.2,9.69 22.14,16.09 43.43,21.26l3.5 -82.92 36.93 16.24c-0.35,-30.53 -15.2,20.04 3.13,-11.54 6.83,-11.76 13.8,-9.81 27.16,-23.56 -9.37,-28.09 -24.79,-20.1 -19.93,-42.79l29.22 -1.87c0.09,-23.04 2.47,-36.94 3.44,-56.34 1.03,-20.35 -3.48,-35.11 -3.44,-62.32l-13.9 7.55c-20.98,11.56 -1.27,11.02 -26.65,13.08 -10.08,-22.68 2.57,-34.1 -33.66,-31.58 8.73,-10.66 7.92,-6.69 12.22,-5.74l35.61 23.22c16.11,-38.04 1.83,1.16 39.64,-26.32 -11.21,3.78 11.22,16.31 -4.45,-4.7 -21.87,-29.32 5.72,-16.2 -21.56,-20.84l26.73 -15.28c-26.28,-26.8 3.47,-10.67 -33.7,-24.22 -5.61,27.82 -12.26,-1.72 -11.79,36.35 1.99,-10.89 6.19,-31.32 7.09,-40.13 0.2,-1.95 4.9,-12.17 -2.88,-23.68 41.63,-24.39 32.96,-41.11 52.85,-19.67l-10.61 3.83c-42.74,16.31 -30.52,18.15 -34.66,41.89 27.62,1.98 40.36,19.33 30.09,-12.77 6.7,12.74 4.42,8.89 8.8,22.68l31.19 45.21c26.77,19.51 57.37,30.37 86.33,8.64l7.17 -6.06c52.43,-44.99 32.56,-111.21 34.72,-228.78 -21.88,-6.78 0.16,-11.84 -21.6,0.2 -0.71,0.39 -2.46,1.65 -3.14,2.11 -0.71,0.48 -2.44,1.95 -3.07,2.44 -1.06,0.82 -0.02,21.31 -5.79,5.52l-3.17 108.51c2.32,53.85 9.81,75.87 -29.65,81.46 -0.78,-2.91 -8.26,3.31 1.3,-20.57 6.2,-15.46 13.77,-12.52 19.01,-34.98 7.17,-30.74 -8.44,-40.49 -5.5,-70.79l7.59 -40.91c-8.19,13.12 1.59,7.74 -15.43,15.09 -16.68,7.2 -14.95,4.62 -33.35,4.7 2.32,-5.8 -7.39,-9.33 13.5,-2.08 13.84,4.8 7.51,-0.32 17.96,13.96 -26.81,11.08 -22.62,3.73 -40.96,8.84 -30.99,8.63 -25.66,30.68 -54.67,29.86 -13.19,-0.37 -20.13,-5.91 -40.25,-10.93 -7.86,18.17 -2.73,1.79 -8.37,19.83l-3.56 -46.25c2.15,0.44 11.33,2.21 12.9,1.87l8.64 -2.98c14.09,-7.57 19.07,-19.81 22.31,-33.3 -62.05,-11.18 -0.65,5.26 -44.49,9.91 40.46,-26.54 14.23,-15.83 34.21,-58.15 6.05,-12.81 5.1,-16.46 4.43,-35.01 -0.88,-24.17 2.83,-16.81 -13.31,-20.83 -14.81,10.23 -6.62,-3 -15.62,37.16 -8,35.65 -10.17,7.97 -4.9,22.2 -0.56,-122.49 26.3,-42.48 36.11,-105.57 -20.7,-26.18 1.02,1.57 -23.72,-14.35 -1.07,-0.69 -2.69,-1.72 -3.75,-2.45 -12.17,-8.43 -18.13,-29.1 -43.9,-16.21 54.2,-2.46 11.02,2.81 23.25,-17.48l-134.48 9.67c13.61,13.44 23.97,18.33 40.87,27.76 72.17,40.28 92.41,34.37 87.67,93 -59.56,-19.65 -135.39,-77.77 -192.98,-106.03l0.48 -61.09 124.65 -6.42c-32.05,-19.45 -95.34,-58.53 -128.29,-71.37 -0.4,25.01 -3.98,9.76 3.09,26.44l13.86 0.01c-33.24,3.93 -19.65,8.57 -17.77,47.35 -1.26,0.49 -3.3,0.2 -4.02,0.44 -25.86,8.35 -17.73,3.32 -25.06,18.17 18.28,41.7 4.6,-33.14 30.3,86.91z"/>
  <path class="fil0" d="M378.53 3749.84l-25.01 -23.8c-10.1,-6.89 -16.01,-10.05 -24.11,-15.3 -18.53,-12 -28.7,-19.02 -49.32,-30.05l-0.45 -66.11c45.81,0.87 81.8,19.47 124.04,26.61 -107.49,-103.45 -133.42,-91.26 -122.42,-180.99 60.77,24.89 129.82,71.11 191.6,94.16l-1.46 51.57 -132.39 -67.76c20.17,21.33 52.74,53.18 75.99,73.74 13.42,11.87 25.98,21.53 38.85,33.77 20.42,19.42 17.55,18.74 14.53,56.94l-128.42 -32.12c22.67,15.99 52.8,35.69 77.65,51.03 40.82,25.2 60.01,19.56 53.61,78.39 -32.33,-11.68 -60.85,-46.53 -92.69,-50.09zm-158.94 -187.31c19.34,14.81 7.19,-14.39 13.3,27.19 1.01,6.87 -1.1,21.69 -1.59,28.86l21.24 4.12c5.24,41.73 21.98,0.17 13.19,40.19 -21.33,-9.97 -3.72,-29.03 -46.14,-40.12 0.2,6.74 0.31,34.99 2.19,40.9 7.36,23.11 -0.82,8.52 18.2,20.62l79.01 46.2c2.3,0.86 13.91,4.26 14.58,4.59 1.23,0.59 3.1,1.31 4.21,1.99l40.74 12.78 -0.63 24.6c1.96,1.62 4.61,2.65 6.69,3.66l12.84 6.21c2.26,1 9.14,3.13 11.12,4.04 26.76,12.2 9.98,12.32 29.31,19.61 32.52,12.27 4.98,-15.95 57.75,34.06l9.18 8.82c13.44,8.99 -5.93,7.02 18.19,6.27 2.98,-28.58 -33.54,-88.35 -34.61,-89.31 0.22,0.86 -23.2,0.04 10.14,7.35l11.25 -0.1c1.05,-2.15 4.43,-0.22 6.6,-0.65 21.6,-77.14 -3.15,-66.91 -13.13,-72.49 -10.98,18.03 -10.29,11.03 -13.22,39.57 -2.11,-0.61 -27.6,-6.73 -43.71,-20.2 -23.73,-19.83 -2.93,6.26 -3.17,-6.25l76.24 -19.76c1.85,-24.69 1.4,-34.93 4.19,-60.66 5.8,-53.56 -3.16,-50.32 -20.36,-58.04 -1.63,2 -2.85,4.78 -3.5,6.92 -2.86,9.5 -6.59,9.31 -2.3,23.43 3.38,11.13 30.25,13.43 0.59,51.39 -0.68,0.87 -2.17,2.53 -2.81,3.4 -0.6,0.82 -1.91,2.62 -2.43,3.4 -0.47,0.7 -1.54,2.61 -1.91,3.22l-2.9 7.6c8.12,-20.83 3.98,9.02 6.18,-25.27l-2.67 -33.41c-0.36,-1.76 -0.92,-3.48 -1.31,-5.31 -5.05,-23.59 -8.14,-17.34 -0.22,-55.2 -0.65,0.35 -0.51,1.99 -0.43,2.16l1.45 3.84c23.78,13.25 -14.13,9.15 10.22,1.25 32.31,-10.48 20.97,-19.62 21.79,-46.8 -35.19,2.03 -27.06,-1.27 -41.31,19.25 8.2,-87.98 -12.61,-67.04 -17.95,-68.54 7.8,17.46 10.45,36.41 7.64,62.42 -26.48,-14 -50.65,-44.12 -74.3,-65.26 -21.32,-19.06 -47.35,-45.8 -72.1,-62.53l-6.39 35.45c4.05,-4.09 16.82,-2.89 -3.31,-4.71 -16.75,-1.52 -38.07,9.06 -48.91,17.93 -0.1,15.49 -0.51,31.04 -0.59,46.47 -0.42,81.46 42.32,51.71 19.47,92.74l-6.31 -33.64 -26.35 33.61c-0.87,-51.05 40.83,-28.8 6.56,-79.78 -36.32,13.69 2.6,-9.89 -17.68,14.09 -15.84,18.73 -5.07,21.93 -21.83,37.8z"/>
  <path class="fil0 str0" d="M1932.59 2034.81c24.26,9.46 20.77,12.77 45.64,3.44l5.8 -30.78c-35.81,11.41 -0.89,14.84 -29.7,21.28 -15.75,-23.47 -9.84,-12.5 -4.69,-35.26 49.42,-31.44 68.12,29.79 40.62,55.27 -34.4,31.88 -84.52,3.73 -82.13,-48.46 2.02,-44.27 44.63,-68.86 89.07,-50.26 55.28,23.13 36.39,70.79 26.43,111.17 16.15,-8.62 22.48,-8.6 27.73,-34.39 30.3,-148.7 -228.39,-129.18 -160.89,16.51 28.36,61.21 129.95,45.52 131.39,-23.5 1.69,-80.81 -120.63,-77.54 -89.28,14.99z"/>
  <path class="fil0" d="M1599.09 1914.34l-1.35 75.01c42.59,-14.95 73.78,-39.33 65.65,-94.99 -32.47,-6.07 -43.13,1.41 -64.3,19.98z"/>
  <path class="fil0" d="M1599.08 1802.21l-1.03 60.25c35.37,-11.28 70.24,-36.17 57.48,-84.51 -26.23,-0.77 -39.76,8.51 -56.45,24.26z"/>
 </g>
</svg>
