<?xml version="1.0" encoding="UTF-8"?>
<!DOCTYPE svg PUBLIC "-//W3C//DTD SVG 1.1//EN" "http://www.w3.org/Graphics/SVG/1.1/DTD/svg11.dtd">
<!-- Creator: CorelDRAW -->
<svg xmlns="http://www.w3.org/2000/svg" xml:space="preserve" width="100%" height="100%" version="1.1" style="shape-rendering:geometricPrecision; text-rendering:geometricPrecision; image-rendering:optimizeQuality; fill-rule:evenodd; clip-rule:evenodd"
viewBox="0 0 1833.1 1833.12"
 xmlns:xlink="http://www.w3.org/1999/xlink"
 xmlns:xodm="http://www.corel.com/coreldraw/odm/2003">
 <defs>
  <style type="text/css">
   <![CDATA[
    .fil0 {fill:#003399}
   ]]>
  </style>
 </defs>
 <g id="Layer_x0020_1">
  <metadata id="CorelCorpID_0Corel-Layer"/>
  <path class="fil0" d="M152.76 861.02l1527.59 0c32,0 41.66,9.66 41.66,41.66l0 666.58 -1610.91 0c31.03,-55.22 13.89,-551.68 13.89,-652.7 0,-33.93 -30.8,-55.55 27.77,-55.55zm-152.76 972.1l124.98 0c0,-109.42 9.08,-92.54 -13.89,-138.87l1610.91 0 0 138.87 111.09 0 0 -1833.11 -111.09 0 0 749.91 -1569.25 0c-57.17,0 -27.66,-26.04 -27.64,-152.52l-0.11 -416.87c0.6,-185.67 29.54,-180.52 -125,-180.52l0 1833.11z"/>
  <path class="fil0" d="M819.34 1472.06c-30.62,44.06 -58.49,33.09 -97.21,13.89 36.8,-50.22 11.88,-15.79 97.21,-13.89zm0 -486.05c-30.62,44.06 -58.49,33.09 -97.21,13.89 36.8,-50.22 11.88,-15.79 97.21,-13.89zm-152.76 -13.89c0,670.21 -51.13,569.37 194.42,569.37 30.06,-129.04 13.89,-421.18 13.89,-569.37 0,-57.99 -48.19,-41.66 -166.65,-41.66 -32,0 -41.66,9.66 -41.66,41.66z"/>
  <path class="fil0" d="M499.94 638.83l13.89 0c39.11,0 25.71,6 41.66,27.77l-97.21 0c16.26,-23.41 1.99,-27.77 41.66,-27.77zm55.55 -486.05l0 27.78 -97.21 0c30.88,-42.15 24,-27.78 97.21,-27.78zm-152.76 27.78l0 499.94c0,57.99 48.19,41.66 166.65,41.66 32,0 41.66,-9.67 41.66,-41.66 0,-670.21 51.13,-569.37 -194.42,-569.37 -7.26,31.15 -13.89,31.93 -13.89,69.44z"/>
  <path class="fil0" d="M555.48 1472.06c-30.62,44.06 -58.48,33.09 -97.21,13.89 38.97,-53.19 25.04,-19.89 97.21,-13.89zm-97.21 -486.05c59.63,-12.63 23.74,-1.64 97.21,0 -29.43,42.35 -67.46,40.59 -97.21,0zm-55.55 13.89l0 499.94c0,57.99 48.19,41.66 166.65,41.66 32,0 41.66,-9.66 41.66,-41.66 0,-670.21 51.13,-569.37 -194.42,-569.37 -7.26,31.15 -13.89,31.93 -13.89,69.43z"/>
  <path class="fil0" d="M194.42 1472.06c72.6,-16.91 23.69,-6.12 97.21,0 -29.43,42.35 -67.47,40.59 -97.21,0zm0 -486.05c72.6,-16.91 23.69,-6.12 97.21,0l0 27.78c-73.21,0 -66.33,14.37 -97.21,-27.78zm-55.55 152.76l13.89 402.72c135.58,0 194.42,18.83 194.42,-41.66l0 -527.71c0,-60.49 -58.84,-41.66 -194.42,-41.66 0,88.09 -13.89,115.94 -13.89,208.31z"/>
  <path class="fil0" d="M291.63 638.83l0 27.77 -97.21 0c30.88,-42.15 24,-27.77 97.21,-27.77zm0 -486.05l0 27.78 -97.21 0c30.88,-42.15 24,-27.78 97.21,-27.78zm-152.76 166.65l9.61 282.02c15.07,130.13 -37.34,120.71 157.04,120.71 32,0 41.66,-9.67 41.66,-41.66l0 -527.71c0,-60.49 -58.84,-41.66 -194.42,-41.66 0,88.09 -13.89,115.94 -13.89,208.31z"/>
  <path class="fil0" d="M1167.06 1487.64c12.83,-51.76 0.73,-38.85 55.01,-43.36l0 27.78 -55.01 15.59zm-236.62 -501.64c5.45,65.44 172.74,481.37 208.31,555.48 67.72,-5.63 83.11,-28.67 138.87,-41.66 0,-90.06 -171.8,-500.37 -208.31,-569.37 -53.04,4.41 -104.47,32.51 -138.87,55.55z"/>
  <path class="fil0" d="M1402.6 1485.94c13.37,-50.06 1.26,-37.15 55.55,-41.66l0 27.78c-22.72,1.94 -43.19,-0.05 -55.55,13.89zm-236.08 -513.82c0,84.39 165.21,487.92 208.31,569.37 54.69,-4.55 81.81,-28.37 138.87,-41.66 -2.39,-107.15 -183,-460.75 -208.31,-569.37 -54.69,4.55 -81.81,28.37 -138.87,41.66z"/>
  <path class="fil0" d="M999.87 666.6l-69.44 0c32.06,-43.76 37.37,-43.76 69.44,0zm0 -374.95l-69.44 0c32.06,-43.76 37.37,-43.76 69.44,0zm-111.1 388.84c0,69.92 166.65,59.52 166.65,-13.89 0,-134.34 15.28,-319.19 -13.89,-444.39l-152.76 0 0 458.28z"/>
  <path class="fil0" d="M777.68 666.6l-69.44 0c32.06,-43.76 37.37,-43.76 69.44,0zm0 -374.95l-69.44 0c32.06,-43.76 37.37,-43.76 69.44,0zm-111.1 388.84c0,63.5 152.76,63.5 152.76,0l0 -458.28 -152.76 0 0 458.28z"/>
  <path class="fil0" d="M1583.13 680.49c0.57,-4.59 15.32,-3.11 16.56,-2.65 3.46,1.3 24.12,-32.14 6.02,3.73 -0.4,0.79 -25.9,25.69 -22.58,-1.08zm-166.65 -333.29c6.51,78.19 114.56,284.5 138.87,388.84 63.26,-4.67 75.21,-17.63 111.1,-41.66 -27.36,-57.03 -49.03,-123.43 -75.2,-188.66 -25.77,-64.22 -41.06,-128.04 -77.56,-186.3 -30.02,8.11 -50.52,16.9 -97.21,27.78z"/>
  <path class="fil0" d="M1402.6 708.19c19.27,-46.29 -5.67,-27.65 41.66,-41.59 -32.13,64.05 -22.09,-0.57 -41.66,41.59zm-152.76 -361c1.62,72.74 38.97,138.26 63.68,200.18l71.74 179.02c0.76,2.09 2.22,6.46 3.45,9.65 42.81,-3.56 56.91,-11.7 97.21,-27.78 -1.36,-61.03 -42.83,-143.7 -65.21,-198.65 -101.92,-250.21 -45.39,-192.46 -170.87,-162.42z"/>
  <path class="fil0" d="M1235.96 694.37c21.33,-30.69 2.28,-17.26 41.66,-27.78 -7.79,18.54 11.48,10.78 -17.54,24.13 -2.78,1.28 -21.48,-0.15 -24.12,3.65zm-13.89 41.66c52.76,-10.81 66.65,-8.73 97.21,-41.66 -21.72,-80.4 -131.31,-323.12 -138.94,-374.95 -178.57,31.07 -91.11,55.71 -8.5,300.19l46.31 107.24c0.89,1.89 2.59,6.13 3.91,9.19z"/>
 </g>
</svg>
