<?xml version="1.0" encoding="UTF-8"?>
<!DOCTYPE svg PUBLIC "-//W3C//DTD SVG 1.1//EN" "http://www.w3.org/Graphics/SVG/1.1/DTD/svg11.dtd">
<!-- Creator: CorelDRAW -->
<svg xmlns="http://www.w3.org/2000/svg" xml:space="preserve" width="100%" height="100%" version="1.1" style="shape-rendering:geometricPrecision; text-rendering:geometricPrecision; image-rendering:optimizeQuality; fill-rule:evenodd; clip-rule:evenodd"
viewBox="0 0 4916.05 5860.38"
 xmlns:xlink="http://www.w3.org/1999/xlink"
 xmlns:xodm="http://www.corel.com/coreldraw/odm/2003">
 <defs>
  <style type="text/css">
   <![CDATA[
    .fil0 {fill:#003399}
   ]]>
  </style>
 </defs>
 <g id="Layer_x0020_1">
  <metadata id="CorelCorpID_0Corel-Layer"/>
  <path class="fil0" d="M333.29 5193.8c0,-241.91 171.86,-402.73 347.18,-402.73l3902.29 0 14.62 653.6c4.01,58.25 32.23,94.6 -34.64,91.39 -49.02,-2.35 -100.58,-9.22 -160.47,-9.02l-3041.33 0.04c-225.2,0 -456.79,5.41 -681.13,0.65 -172.56,-3.65 -346.52,-163.85 -346.52,-333.94zm3069.06 -2263.61c0,-125.46 104.55,-203.13 215.83,-161.47 70.41,26.36 151.37,116.61 202.01,174.14l335.64 344.83c195.93,191.38 -11.59,310.17 -291.72,590.3 -118.09,118.09 -218.39,268.85 -364.46,191.25 -32.49,-17.26 -83.4,-81.02 -83.4,-125.28 0,-200.83 390.63,-342.43 210.72,-361.5l-1696.87 0.66c-68.48,0.69 -99.87,9.78 -145.98,-20.66 -96.17,-63.48 -83.34,-243.92 54.57,-279.52 66.83,-17.25 1730.47,-5.57 1841.42,-5.57 -11.54,-43.21 -35.29,-60.66 -67.27,-85.49 -66.27,-51.46 -210.48,-173.56 -210.48,-261.69zm402.73 -1222.07l-1930.31 0c-195.33,0 -221.17,-319.4 13.89,-319.4l1944.2 0c188.28,0 229.34,319.4 -27.77,319.4zm208.31 -624.92l-2083.07 0c-293,0 -240.91,-305.52 -69.43,-305.52l2221.94 0c164.55,0 228.09,305.52 -69.43,305.52zm-3041.29 2513.57c0,169.8 -180.53,233.31 -282.19,115.54 -73.87,-85.57 -37.22,-346.72 -37.22,-490.5l0 -3180.16c-338.23,78.8 -652.69,456.59 -652.69,819.34l0 4221.69c0,394.41 378.76,777.68 791.57,777.68l4124.48 0 0 -4860.5c0,-533.08 -384.35,-999.87 -916.55,-999.87l-3027.4 0 0 3596.77z"/>
 </g>
</svg>
