<?xml version="1.0" encoding="UTF-8"?>
<!DOCTYPE svg PUBLIC "-//W3C//DTD SVG 1.1//EN" "http://www.w3.org/Graphics/SVG/1.1/DTD/svg11.dtd">
<!-- Creator: CorelDRAW -->
<svg xmlns="http://www.w3.org/2000/svg" xml:space="preserve" width="100%" height="100%" version="1.1" style="shape-rendering:geometricPrecision; text-rendering:geometricPrecision; image-rendering:optimizeQuality; fill-rule:evenodd; clip-rule:evenodd"
viewBox="0 0 1646.13 2191.54"
 xmlns:xlink="http://www.w3.org/1999/xlink"
 xmlns:xodm="http://www.corel.com/coreldraw/odm/2003">
 <defs>
  <style type="text/css">
   <![CDATA[
    .fil0 {fill:#003399}
   ]]>
  </style>
 </defs>
 <g id="Layer_x0020_1">
  <metadata id="CorelCorpID_0Corel-Layer"/>
  <path class="fil0" d="M566.13 1388.18l134.79 1.71 -168.85 307.29c-6.43,-4.63 -10.24,-12.3 -11.34,-9.98l-169.48 -297.73 126.56 0.56c0.2,-105.63 -16.79,-400.3 20.03,-480.19 45.68,-99.12 212.04,-180.86 352.89,-97.77 132.96,78.44 113.24,213.1 113.24,391.76 -0.01,167.68 0.1,335.36 -0.06,503.04l-83.35 -6.24c0.27,-138.02 0.19,-275.75 0.19,-413.48 0,-120.56 31.38,-313.09 -46.67,-389.1 -93.59,-91.14 -249.31,-36.92 -269.95,75.64 -9.04,49.32 -7.04,365.22 2,414.5zm-377.69 781.02l1133.81 -0.72 5.08 -1756.59 -1061.87 -2.5c-24.47,-4.61 -16.38,-4.81 -28.26,-11.67 -97.49,-42.48 -108.84,-197.87 -13.56,-233.79l40.78 -19.89c174.87,-1.41 1140.49,-23.29 1232.45,11.55l-4.43 1600.54 -92.57 4.51 1.85 167.92 222.16 -1.72 3.46 -1908.1 -1441.54 -3.12c-76.5,-1.81 -137.04,74.04 -161.49,142.81 -29.59,83.21 -19.55,202.54 -19.56,295.49 -0.04,202.5 -18.2,1455.33 16.61,1562.23 24.93,76.54 82.65,153.71 167.06,153.06z"/>
  <path class="fil0" d="M1623.91 1926.84c20.67,-16.25 17.44,-0.74 16.4,-97.9 -3.9,-362 19.68,-1707.14 -7.37,-1827.05l-1410.59 -1.89c-51.45,7.33 -19.39,1.88 -36.52,15.62l1441.54 3.12 -3.46 1908.1z"/>
  <path class="fil0" d="M188.45 2169.2c12.8,30.53 490.8,17.13 562.04,17.24 176.64,0.26 407.54,12.66 577.63,-2.19l8.9 -1783.94 -1099.8 -2.59c11.88,6.85 3.79,7.06 28.26,11.67l1061.87 2.5 -5.08 1756.59 -1133.81 0.72z"/>
  <path class="fil0" d="M1401.75 1928.56l-1.85 -167.92 92.57 -4.51 4.43 -1600.54c-91.96,-34.84 -1057.57,-12.96 -1232.45,-11.55l-40.78 19.89 1259.53 -6.51 0.13 1590.15 -87.78 1.69 -9.98 135.84c9.24,69.38 3.37,23.64 16.2,43.46z"/>
 </g>
</svg>
