<?xml version="1.0" encoding="UTF-8"?>
<!DOCTYPE svg PUBLIC "-//W3C//DTD SVG 1.1//EN" "http://www.w3.org/Graphics/SVG/1.1/DTD/svg11.dtd">
<!-- Creator: CorelDRAW -->
<svg xmlns="http://www.w3.org/2000/svg" xml:space="preserve" width="100%" height="100%" version="1.1" style="shape-rendering:geometricPrecision; text-rendering:geometricPrecision; image-rendering:optimizeQuality; fill-rule:evenodd; clip-rule:evenodd"
viewBox="0 0 1409.19 1405.27"
 xmlns:xlink="http://www.w3.org/1999/xlink"
 xmlns:xodm="http://www.corel.com/coreldraw/odm/2003">
 <defs>
  <style type="text/css">
   <![CDATA[
    .fil0 {fill:#003399}
   ]]>
  </style>
 </defs>
 <g id="Layer_x0020_1">
  <metadata id="CorelCorpID_0Corel-Layer"/>
  <path class="fil0" d="M293.61 642.28c219.29,-81.38 298.07,214.25 131.32,284.3 -212.37,89.21 -310.99,-217.62 -131.32,-284.3zm-288.79 702.02l310.17 -3.93 49.87 17.98c27.76,-37.84 62.57,-101.97 130.48,-121.72l-6.41 -13.48 112.47 -156.93c77.36,-146.91 178.41,-314.41 44.8,-493.44 -92.69,-124.2 -287.84,-204.12 -479.06,-88.04 -390.92,237.33 8.06,651.58 146.28,850.72l-308.6 8.83z"/>
  <path class="fil0" d="M1052.11 186.13c156.26,-93 261.84,137.21 128.13,214.81 -75.23,43.67 -153.06,4.45 -180.43,-49.28 -41.43,-81.33 -3.83,-132.13 52.3,-165.53zm12.4 580.48c79.27,-2.36 71.46,-16.93 150.26,-22.67 50.98,-3.72 114.2,-0.27 166.7,-0.52 31.61,34.39 15.28,-32.6 26.43,58.83l-1.78 -61.55 -244.28 -1.33c62.87,-128.66 222.96,-232.72 244.59,-419.58 54.86,-473.98 -726.83,-390.98 -575.11,51.31 20.24,59 72.06,146.81 112.6,203.03 41.17,57.09 117.06,119.46 120.59,192.47z"/>
  <path class="fil0" d="M1064.51 766.6c-71.12,53.35 -156.89,119.77 -223.22,175.79 -57.38,48.46 -164.98,142.11 -221.79,173.12l-130.57 107.64 6.41 13.48c-2.09,4.35 -6.2,5.35 -7.18,12.57 -5.88,43.31 -2.23,-4.55 -12.27,26.17 -9.26,28.33 -5.69,2.74 -9.18,44.05 49.24,-21.99 123.8,-93.19 172.19,-130.58 56.89,-43.97 101.06,-84.29 156.09,-126.24 59.68,-45.49 109.31,-91.05 166.89,-132.54 223.43,-161 40.28,-125.01 446.01,-127.82 -11.15,-91.43 5.17,-24.44 -26.43,-58.83 -52.51,0.25 -115.72,-3.2 -166.7,0.52 -78.8,5.75 -70.99,20.31 -150.26,22.67z"/>
  <polygon class="fil0" points="358.81,1402.22 314.99,1340.37 4.82,1344.3 2.08,1405.27 "/>
  <path class="fil0" d="M314.99 1340.37l43.83 61.84c46.55,-19.32 67.37,-30.83 107.9,-82.8 3.49,-41.31 -0.07,-15.72 9.18,-44.05 10.04,-30.72 6.39,17.14 12.27,-26.17 0.98,-7.22 5.09,-8.22 7.18,-12.57 -67.91,19.75 -102.72,83.87 -130.48,121.72l-49.87 -17.98z"/>
 </g>
</svg>
