<?xml version="1.0" encoding="UTF-8"?>
<!DOCTYPE svg PUBLIC "-//W3C//DTD SVG 1.1//EN" "http://www.w3.org/Graphics/SVG/1.1/DTD/svg11.dtd">
<!-- Creator: CorelDRAW -->
<svg xmlns="http://www.w3.org/2000/svg" xml:space="preserve" width="100%" height="100%" version="1.1" style="shape-rendering:geometricPrecision; text-rendering:geometricPrecision; image-rendering:optimizeQuality; fill-rule:evenodd; clip-rule:evenodd"
viewBox="0 0 1922.67 1835.02"
 xmlns:xlink="http://www.w3.org/1999/xlink"
 xmlns:xodm="http://www.corel.com/coreldraw/odm/2003">
 <defs>
  <style type="text/css">
   <![CDATA[
    .fil0 {fill:#003399}
   ]]>
  </style>
 </defs>
 <g id="Layer_x0020_1">
  <metadata id="CorelCorpID_0Corel-Layer"/>
  <path class="fil0" d="M1071.1 1633.94l156.74 -5.05 -0.31 135.63 -155.36 -0.37 -1.07 -130.21zm-809.31 -1.52l155.33 -3.33 -0.21 136 -154.63 -0.28 -0.49 -132.39zm521.55 -626.42c-19.48,-70.5 -12.47,-302.71 -5.85,-384.68l528.9 2.44 -7.51 381.08 -515.53 1.16zm-309.61 48.59c128.69,53.44 757.98,-30.28 891.95,21.96 34.28,47.81 20.31,164.06 20.31,241.04 0,75.04 16.33,195.22 -24.24,236.41 -48.27,27 -1195.31,24.98 -1233.3,-1.22 -44.95,-35.82 -25.7,-123.44 -25.78,-235.19 -0.19,-260.32 -32.56,-256.04 176.08,-251.58 160.49,3.43 123.62,-5.69 126.73,-47.2 -71.11,-23.67 -140.33,-11.19 -222.14,-14.71l-0.61 -382.49 530.46 0.9 0.89 381.92 -236.57 3.46 -3.79 46.69zm-291.57 -598c0.67,-175.83 55.8,-151.98 217.71,-151.98l656.17 0c249.44,0 252.99,-24.47 249.67,253.91 -346.89,2.61 -792.27,11.83 -1123.27,-3.1l-0.28 -98.83zm-60.85 527.71c-46.84,134.27 -78.82,-101.12 -78.14,361.07 0.27,184.92 -38.51,281.02 157.13,284.05 0.57,85.85 -9.33,125.44 20.72,186.5 319.76,80.19 251.82,-113.26 260.83,-186.67l524.25 2.05c8.29,64.76 -10.19,125.83 23,169.95 45.68,41.71 196.71,30.1 254.16,5.4l4.34 -176.89c198.02,-4.12 159.19,-108.81 159.11,-284.39 -0.03,-70.19 4.45,-155 0.19,-223.28 -5.98,-95.82 -25.99,-69.75 -79.49,-123.9 -0.61,-114.76 16.38,-599.23 -16.31,-670.09 -43.17,-93.56 -153.05,-84.25 -267.29,-84.04 -1152.57,2.13 -959.03,-132.56 -962.5,740.25z"/>
  <path class="fil0" d="M350.81 1272.09c62.17,87.58 -42.7,142.23 -92.38,93.32 -50.76,-49.98 7.25,-154.46 92.38,-93.32zm69.17 101.04c78.75,-166.52 -168.77,-247.06 -228.59,-114.47 -75.09,166.43 160.05,259.41 228.59,114.47z"/>
  <path class="fil0" d="M514.45 462.37l458.28 0.22c72.15,0.07 52.22,8.81 75.23,-33.78 -34.09,-42.59 -96.59,-25.91 -158.55,-25.91l-374.95 0c-48.56,0 -109.17,-14.93 -110.36,27.14 -1.37,48.57 64.7,32.33 110.36,32.33z"/>
  <path class="fil0" d="M1127.72 1358.72c-20.46,-118.31 83.31,-132.08 113.86,-73.68 41.02,78.39 -38.51,121.51 -113.86,73.68zm-68.01 -27.25c14.16,164.76 264.89,143.03 250.67,-27.41 -13.66,-163.79 -265.22,-141.9 -250.67,27.41z"/>
  <path class="fil0" d="M736.64 1360.34c-163.94,-0.01 -242.64,-25.66 -257.46,40.57 42.32,35.21 488.9,34.25 529.45,0 -14.26,-67.07 -114.44,-40.56 -271.99,-40.57z"/>
  <path class="fil0" d="M1008.66 1262.04c-41.48,-33.87 -486.55,-35.05 -529.64,0 18.09,29.51 -31.88,42.78 118.33,40.93l306.65 0.24c72.43,0.79 92.86,15.24 104.65,-41.17z"/>
  <path class="fil0" d="M1458.78 945.06c2.32,-10.44 23.93,6.95 28.14,-56.75 9.76,-147.57 5.21,-158.27 -42.03,-165.7 -19.6,24.36 -54.5,188.39 13.89,222.44z"/>
  <path class="fil0" d="M13.17 721.94c-18.24,54.59 -16.12,162.66 -2.28,221.03 52.03,-4.27 52.57,28.74 52.89,-111.48 0.18,-78.67 17.5,-102.39 -50.6,-109.55z"/>
  <path class="fil0" d="M1413.66 68.04c34.42,0.09 136.57,1.03 164.57,6.84 49.79,10.33 81.76,31.8 101.51,69.35l-224.26 0.04 -45.08 67.85 277.1 0.68c5.46,49.56 -36.42,94.13 -81.93,112.45 -57.62,23.21 -105.22,20.42 -172.65,18.97 0.6,12.94 1.83,25.68 1.93,38.78 0.29,37.27 -0.28,27.43 44.43,79.09 51.57,59.59 101.49,122.9 152.63,180.75l56.52 66.99c7.33,8.46 12.25,16.18 20.13,23.09 29.8,-0.13 76.7,2.24 104.31,-2.89 -0.52,-14.02 -4.32,-15.23 -11.41,-24.13 -5.7,-7.15 -10.29,-12.58 -16.53,-20.55 -10.97,-14.03 -21.45,-26.33 -33.09,-40.98l-132.99 -165.52c-11.23,-13.85 -22.53,-27.06 -33.03,-40.95l-33.29 -42.53c59.3,-11.22 101.57,-8.69 159.46,-50.04 34.17,-24.41 75.37,-72.87 79.38,-130.52l88.08 -1.87c5.72,-13.41 32.31,-49.73 43.2,-68.73l-133.81 0.06c-9.17,-42.82 -26.59,-56.95 -35.33,-76.19l125.89 -0.01c4.94,-12.74 34.56,-51.6 43.13,-68.06l-434.21 1.3c-37.02,0.15 -29.54,-2.54 -46.12,22.67 -8.39,12.75 -22.48,31.07 -28.56,44.07z"/>
 </g>
</svg>
