<?xml version="1.0" encoding="UTF-8"?>
<!DOCTYPE svg PUBLIC "-//W3C//DTD SVG 1.1//EN" "http://www.w3.org/Graphics/SVG/1.1/DTD/svg11.dtd">
<!-- Creator: CorelDRAW -->
<svg xmlns="http://www.w3.org/2000/svg" xml:space="preserve" width="100%" height="100%" version="1.1" style="shape-rendering:geometricPrecision; text-rendering:geometricPrecision; image-rendering:optimizeQuality; fill-rule:evenodd; clip-rule:evenodd"
viewBox="0 0 1049.46 1644.98"
 xmlns:xlink="http://www.w3.org/1999/xlink"
 xmlns:xodm="http://www.corel.com/coreldraw/odm/2003">
 <defs>
  <style type="text/css">
   <![CDATA[
    .fil0 {fill:#003399}
   ]]>
  </style>
 </defs>
 <g id="Layer_x0020_1">
  <metadata id="CorelCorpID_0Corel-Layer"/>
  <path class="fil0" d="M159.51 1494.97l-92.84 -179.96 255.93 -0.14c66.1,24.91 107.55,118.51 157.48,175.72 62.41,21.88 84.17,-2.44 123.17,-33.83 24.58,-41.65 58.74,-95.52 91.94,-140.33l130.87 -4.63 160.95 5.63 -150.41 261.82 -622.59 -0.22 -54.51 -84.06zm475.77 -1428.49c327.42,59.41 424.65,391.27 303.21,685.63 -66.61,161.47 -297.64,622.41 -414.89,689.56 -53.49,-33.16 -104.93,-113.56 -133.63,-174.89 -66.47,-92.57 -214.46,-333.39 -231.1,-432.47 -127.2,-134.85 -130.69,-416.02 -26.42,-574.71 101.99,-155.22 261.87,-230.28 502.82,-193.11zm-328.77 1190.29l-296.85 7.77c-14.23,80.91 88.06,253.44 144.26,322.93l18.61 20.24c54.26,55.88 527.33,34.35 626.14,27.07 103.06,-7.59 109.95,-66.91 157.96,-148.8 41.81,-71.31 99.41,-130.65 83.76,-217.67l-299.74 -10.63c83.68,-201.63 302.91,-465.34 308.67,-735.07 14.59,-684.19 -1035.59,-703.09 -1049.2,-18.27 -5.53,278.11 218.4,550.27 306.4,752.43z"/>
  <path class="fil0" d="M440.48 419.63c59.92,-49 114.7,-20.29 176.83,21.71 7.13,90.57 -6.16,163.91 -111.96,147.35 -88.02,-13.78 -80.14,-95.39 -64.86,-169.06zm33.4 219.06l49.72 72.5 36.65 -65.44c53.24,-65.2 26.4,9.39 89.94,-68.59 39.68,-48.69 10.11,-47.14 98.61,-62.99 -31.5,-70.24 6.81,-4.22 -114.59,-119.48 -91.18,-86.57 -65.15,21.64 -96.23,-133.49 260.29,29.37 289.27,333.55 103.38,434.12 -58.99,31.92 -162.3,54.87 -207.31,5.33 -208.49,-65 -190.88,-421.76 70.58,-433.02 -21.65,125.2 -19.4,45.54 -90.79,127.18 -86.78,99.23 -5.23,25.55 -111.38,91.87 33.41,51.14 38.77,8.92 90.61,76.53 43.61,56.87 4.15,30.02 80.8,75.48zm-45.05 -415.09c-362.93,129.7 -167.78,663.39 190.68,542.54 350.67,-118.22 185.21,-676.88 -190.68,-542.54z"/>
 </g>
</svg>
