<?xml version="1.0" encoding="UTF-8"?>
<!DOCTYPE svg PUBLIC "-//W3C//DTD SVG 1.1//EN" "http://www.w3.org/Graphics/SVG/1.1/DTD/svg11.dtd">
<!-- Creator: CorelDRAW -->
<svg xmlns="http://www.w3.org/2000/svg" xml:space="preserve" width="100%" height="100%" version="1.1" style="shape-rendering:geometricPrecision; text-rendering:geometricPrecision; image-rendering:optimizeQuality; fill-rule:evenodd; clip-rule:evenodd"
viewBox="0 0 2813.52 2815.79"
 xmlns:xlink="http://www.w3.org/1999/xlink"
 xmlns:xodm="http://www.corel.com/coreldraw/odm/2003">
 <defs>
  <style type="text/css">
   <![CDATA[
    .str0 {stroke:#003399;stroke-width:3;stroke-miterlimit:2.61313}
    .fil0 {fill:#003399}
   ]]>
  </style>
 </defs>
 <g id="Layer_x0020_1">
  <metadata id="CorelCorpID_0Corel-Layer"/>
  <path class="fil0" d="M1450.85 707.39c52.13,-2.62 129.19,-3.72 180.91,-1.01 32.18,1.69 37.66,17.98 56.47,36.74 38.42,38.3 208.47,203.47 222.6,227.06l-460.61 -0.74 0.63 -262.06zm-549.19 261.95c18.01,-29 104.42,-108.24 134.78,-138.38 24.32,-24.16 44.46,-44.43 68.57,-68.69 43.27,-43.52 43.71,-55.54 81.65,-55.56l175.13 0.67 -0.22 262.53 -459.92 -0.57zm1564.06 0.8c-34.57,0.01 -34,-1.15 -51.65,-19.61l-104.14 -104.52c-30.27,-30.08 -116.88,-109.52 -134.75,-138.45 63,-3.74 133.35,-0.73 197.22,-0.86 83.61,-0.18 57.19,-10.89 127.2,64.95 25.7,27.84 177.67,179.88 186.09,198.5l-219.96 -0zm-400.74 0.06c-32.88,0 -32.47,-5.44 -48.81,-22.52 -49.04,-51.26 -218.54,-211.59 -236.24,-240.09 62.6,-3.94 133.65,-0.8 197.22,-0.91 38.8,-0.06 62.96,-7.29 84.81,13.99l147.81 148.63c24.29,24.23 81.34,75.57 96.35,100.63l-241.13 0.26zm-1558.61 -0.85c13.57,-22.13 163.94,-167.43 195.15,-198.89 73.47,-74.04 49.11,-63.91 133.81,-63.78 63.57,0.11 134.62,-3.03 197.22,0.91 -18.08,29.12 -104.33,108.1 -134.76,138.4 -24.31,24.21 -44.48,44.43 -68.61,68.65 -43.26,43.41 -43.44,55.54 -81.68,55.54l-241.13 -0.83zm-379.57 0.43c10,-20.16 161.35,-171.33 188.73,-201 13.74,-14.89 33.78,-40.57 46.76,-52.01 22.44,-19.78 240.52,-11.37 275.01,-9.18 -15.69,25.26 -162.34,165.9 -203.33,207.08 -43.21,43.41 -43.63,55.5 -81.72,55.51l-225.46 -0.4zm1038.87 -537.46c0.25,25.35 5.78,63.12 -7.95,80.96 -11.71,15.2 -42.04,20.28 -60.86,8.8 -29.61,-18.06 -17.67,-115.7 -17.72,-155.74 -0.07,-65.41 -2.98,-96.11 36.09,-137.46 63.55,-67.27 190.22,-64.09 250.7,2.15 36.7,40.19 32.92,75.64 32.9,140.81 -0.02,41.28 17.15,133.98 -21.37,152.26 -22.06,10.46 -51.02,2.06 -59.75,-14.15 -9.17,-17.02 -4.57,-56.44 -4.46,-79.19l-147.57 1.57zm-357.53 -249.22c71.88,-13.09 154.02,17.47 175.6,62.67 17.42,36.48 -17.29,62.55 -52.6,52.14 -27.01,-7.96 -26.01,-38.35 -75.57,-45.69 -37.45,-5.55 -73.95,13.4 -83.58,39.8 -5.89,16.13 -6.29,99.65 -2.68,117.83 5.83,29.41 37.28,49.08 71.65,49.65 53.84,0.89 55.87,-26.28 79.55,-41.46 57.63,-36.95 111.37,50.3 3.79,97.45 -63.41,27.78 -144.39,15.21 -191.62,-19.07 -53.24,-38.63 -59.41,-106.67 -50.26,-195.37 6.71,-65.01 61.57,-106.28 125.73,-117.96zm1291.54 67.72c-1.32,0.72 -2.91,1.8 -3.96,2.17 -1.06,0.37 -2.82,1.49 -4.19,1.87l-148.03 2.33 3.55 59.55c29.83,-0.27 94.87,-6.04 117.93,5.48 29.62,14.8 30.13,56.39 -10.35,65.29 -20.66,12.65 -80.08,6.13 -110.46,6.35l-0.09 59.66 142.78 0.99c19.35,3.48 6.47,1.97 12.69,5.47 32.13,7.54 68.77,71.74 -45.44,71.14 -230.5,-1.21 -200.19,24.85 -200.19,-159.3 0,-182.03 -21.75,-192.69 84.78,-192.21 35.9,0.16 162.34,-9.64 183.07,14.8 19.63,23.14 5.61,50.22 -22.09,56.41zm-514.15 159.21c-1.44,39.99 10.69,102.54 -24.35,117.04 -50.48,20.88 -66.11,-17.89 -65.83,-61.69 1.98,-312.38 -30.73,-285.73 124.98,-285.72 31.2,0 109.52,-5.46 131.79,5.95 30.71,15.74 32.73,64.24 -27.07,68.08 -40.82,2.62 -94.37,0.37 -138.89,-0.27l-1.42 82.19c45.7,0.54 143.25,-16.35 143.45,36.63 0.2,53.85 -95.28,37.7 -142.66,37.78zm-1277.86 648.66l0.68 658.06c2.21,8.66 74.43,39.57 87.71,44.21l0.14 -702.25c167.94,-8.16 425.75,-1.98 609.35,-0.63 66.22,0.49 50.96,-4.85 95.3,-30.97 84.91,-50.01 200.06,-45.38 282.72,15.04 33.65,24.59 61.97,15.88 110.5,15.87l861.86 0.02c76.09,0.27 50.04,3.38 99.58,-26.7 84.39,-51.23 196.36,-54.25 282.94,6.57 16.85,11.83 18.99,18.74 40.52,10.03 90.35,-36.59 -40.56,-156.69 -65.63,-182.74l-120.82 -126.19c-29.65,-29.13 -109.13,-96.33 -110.74,-136.17 -4.25,-105.1 15.16,-408.81 -10.54,-483.54 -52.5,-152.67 -226.88,-115.28 -373.32,-115.28l-1482.17 0c-81.84,0 -156.44,-11.38 -213.93,33.3 -49.48,38.44 -71.79,87.29 -71.55,175.3l0.19 367.93c0.63,59.11 -12.33,55.74 -39.84,86.43 -38.79,43.26 -80.69,83.31 -120.7,126.31 -40.01,42.99 -81.07,83.85 -120.55,126.54 -170.15,184.01 145.06,133.74 258.31,138.88z"/>
  <path class="fil0" d="M2636.65 2726.18c-1.85,-39.42 5.98,-81.29 -40.14,-85.28 -47.87,-4.14 -48.73,35.2 -48.56,74.85 0.49,116.06 3.7,98.83 153.83,98.92 39.37,0.02 87.46,8.6 103.99,-22.35 12.03,-22.52 5.8,-90.59 5.8,-120.38l0 -1010.07c0,-118.98 12.91,-138.84 -27.68,-219.37 -23.57,9.78 -44.76,35.35 -80.65,51.44 28.91,17.38 20.86,31.8 20.57,69.07 -1.47,191.55 7.61,468.04 -0.78,636.14 -70.74,3.34 -147.48,0.71 -218.87,0.69 -83.65,-0.03 -134.11,-6.4 -134.18,87.73 -0.06,76.73 4.26,389.19 -1.2,438.17l-62.17 -0.62 0.95 -606.45c80.74,-5.05 132.53,5.54 133.16,-88.86 0.5,-74.67 -7.76,-366.72 8.89,-416.79 19.68,-59.2 83.39,-62.59 121.32,-94.31 -129.08,-20.04 -92.58,-56.08 -144.35,-16.86 -40.8,30.91 -61.93,60.28 -71.42,132.31 -15.51,117.82 5.9,272.17 -3.94,395.37 -79.06,0.26 -131.26,-4.07 -132.69,82.19 -1.2,72.46 -3.72,599.63 2.89,629.29 14.54,65.19 64.67,76.32 140.27,73.75 65.45,-2.23 95.82,-44.22 96.59,-109.63 1.61,-136.87 -5.78,-281.9 0.67,-417.5l264.76 0.7 -0.64 438.4 -86.42 -0.56z"/>
  <path class="fil0" d="M1434.52 1543.33c-4.33,7.37 -6.88,67.86 -39.37,36.72 -13.28,-12.73 -3.5,-58.65 -10.83,-82.7 -2.74,-7.14 1.01,-2.48 -7.99,-8.84 -3.22,-2.28 -9.51,-4.65 -13.4,-5.55l-8.99 8.09c-0.19,28.98 -4.11,61.84 2.87,88.32 9.29,41.15 25.34,3.87 25.21,142.88 -0.36,392.07 -35.42,386.25 133.98,396.39l-1.9 608.07 -60.26 -3.3c-6.83,-59.95 -1.41,-152.67 -1.41,-216.15 0,-397.06 42.28,-288.22 -352.85,-308.16 -8.59,-169.99 0.78,-447.5 -1.04,-641.61 -0.37,-38.94 -6.51,-45.06 20.73,-63.71 -35.37,-15.27 -51.42,-31.81 -75.33,-50.61 -48.67,34.54 -32.93,148.15 -32.94,218.71l0 1010.07c0,131.19 -23.79,142.81 109.79,142.73 150.21,-0.09 153.28,17.22 153.76,-98.92 0.16,-39.68 -0.59,-78.97 -48.49,-74.85 -46.31,3.98 -38.22,46.01 -40.07,85.85l-87.14 -0.61 0.66 -438.39 264.06 0.03c6.59,138.13 -2.37,283.6 0.7,422.79 1.52,68.48 38.04,103.63 107.61,104.31 73.2,0.72 118.86,-13.64 130.13,-78.41l1.96 -630.2c-2.77,-81.25 -57.49,-76.46 -132.67,-76.67 -8.15,-102.24 24.54,-436.69 -36.79,-486.26z"/>
  <path class="fil0" d="M812.74 1578.39c-45.95,9.61 -38.03,-16.43 -37.86,-53.69 0.14,-31.52 -3.08,-58.64 14.53,-78.24 8.04,-8.94 48.96,-41.59 66.2,-12.66 15.57,26.13 -19.5,33.44 -36.85,46.85l-6.02 97.74zm-219.92 485.87l-23.8 9.3 2.67 82.38 351.2 -0.39c3.36,-65.66 14.21,-445.89 4.16,-482.28 -7.56,-28.53 -4.16,-63.24 -3.47,-93.74 -72.92,-68.98 -43.35,-133.31 4.16,-147.05 -13.54,23.45 -33.29,36.55 -33.73,70.17 -0.57,43.08 13.93,34.66 27,62.06 14.35,-36.21 -40.16,-58.16 14.83,-109.66 4.72,-21.45 11.88,-32.4 22.81,-48.72 11.94,-17.82 22.45,-24.25 30.95,-40.81l-242.13 -0.44c-9.84,58.15 16.83,147.08 -18.58,190.35 -17.65,21.56 -46.65,34.04 -79.12,24.38 -25.17,-7.49 -38.28,-33.43 -50.23,-51.47 -3.44,53.73 4.44,516.1 -6.71,535.91z"/>
  <path class="fil0" d="M199.13 2361.53c-157.44,-49.74 -142.2,-468.66 43.33,-468.59 185.37,0.06 201.02,418.04 43.41,468.59 1.47,-42.87 0.28,-85.92 0.6,-128.84 0.28,-38.44 -1.39,-76.47 -44,-76.47 -44.97,0 -44.22,42.15 -43.94,82.01 0.28,41.07 -0.9,82.29 0.61,123.3zm87.57 96.5c289.85,-78.06 245.49,-653.5 -44.24,-653.43 -146.15,0.04 -234.75,156.48 -241.13,307.22 -6.98,164.93 69.34,313.87 196.89,345.69 1.55,67.37 0.36,135.95 0.36,203.45 0,50.82 -19.42,153.58 43.88,153.5 63.72,-0.09 43.89,-107.16 43.89,-158.98 0,-65.52 -1.13,-132.05 0.34,-197.45z"/>
  <path class="fil0" d="M2099 1759.79c13.24,-140.52 -101.04,-108.56 -292.02,-108.88 -195.79,-0.33 -116.11,104.26 -103.48,241.5l-145.76 0.05 2.04 49.37c29.43,13.59 41,16.56 67.8,31.09 29.75,16.13 420.35,7.31 481.33,7.36 85.5,0.07 58.98,3.61 155.32,-38.43l-0.06 -49.44 -189.94 -0.25 7.87 -42.97c35.9,-1.64 66.45,-2.61 69.91,-39.88 3.3,-35.56 -21.34,-46.59 -53.02,-49.54z"/>
  <path class="fil0" d="M1777.9 2782.13l1.63 -626.96 264.3 0.72 0.83 626.38c11.05,25.59 36.67,45.35 67.13,24.6 24.56,-16.73 19.1,-56.59 19.03,-91 -0.39,-204.09 -4.87,-452.22 1.94,-647.78l-442.97 0.15c6.83,193.45 2.61,450.13 1.87,653.13 -0.13,35.84 -3.92,72.93 22.57,87.61 30.17,16.71 53.29,-2.04 63.67,-26.85z"/>
  <path class="fil0" d="M2563.38 1082.57c-231.08,40.41 -170.52,384.21 59,346.37 225.47,-37.17 169.71,-386.37 -59,-346.37z"/>
  <path class="fil0" d="M1198.2 1083.64c-232.93,45.99 -159.66,388.7 67.76,344.47 222.35,-43.24 160.76,-389.59 -67.76,-344.47z"/>
  <path class="fil0" d="M875.81 2611.56c35.21,-76.63 -103.43,-60.41 -150.26,-60.41 -36.59,0 -73.22,0.13 -109.81,-0.03 -35.52,-0.17 -71.52,-4.28 -83.82,26.2 -32.58,80.75 99.95,61.7 149.71,61.7 54.76,0 172.43,19.87 194.18,-27.47z"/>
  <path class="fil0" d="M572.35 2424.92c5.17,54.28 89.41,38.44 136.72,38.45 48.52,0 131.72,14.45 125.69,-48.57 -5.29,-55.25 -88.25,-39.3 -136.67,-39.3 -48.8,-0 -131.86,-14.76 -125.74,49.43z"/>
  <path class="fil0" d="M1859.37 1364.44l-8.48 23.98c-18.3,7.39 -1.78,3.67 -17.31,-1.04 -9.63,3.5 -11.13,21.8 -9.46,37.35 2.09,19.35 8.08,31.99 21.67,34.07 12.19,-3.24 13.77,-20.23 35.83,-30.81 23.12,-11.09 43.75,-7.15 61.2,9.07l28.87 -17.15c11.43,-15.59 45.47,-19.15 61.23,-42.65 19.13,-28.54 9.41,-66.56 -20.17,-75.45 -39.46,-11.85 -40.16,19.7 -73.74,31.06 -25.94,8.78 -68.22,14.51 -79.64,31.57z"/>
  <path class="fil0 str0" d="M678.52 1442.3c-6.93,20.89 -10.42,5.45 -30.51,20.76 -37.87,28.85 -19.01,96.13 32.96,85.62 65.06,-13.15 18.31,-143.57 39.09,-172.28 16.06,2.39 13.29,-9.6 12.81,54.86 -0.41,55.27 11.22,139.76 -62.11,138.13 -107.03,-2.37 -45.13,-174.74 7.76,-127.09zm-77.55 -12.06l-8.3 313.98c0,106.57 -0.88,213.52 0.16,320.04 11.15,-19.81 3.27,-482.19 6.71,-535.91 11.95,18.04 25.06,43.98 50.23,51.47 32.48,9.66 61.48,-2.82 79.12,-24.38 35.41,-43.28 8.74,-132.21 18.58,-190.35 -17.4,0.22 -32.98,-0.8 -49.93,-0.95 -6.1,-0.06 -15.59,-0.11 -21.34,1.08l-18.05 7.38 47.72 -2.93c-7.49,43.46 17.52,169.54 -34.83,166.47 -30.71,-1.81 -38.36,-42.89 -16.24,-60.35 22.13,-17.47 50.7,-4.8 31.81,-49.06 -55.14,-18.64 -66.51,23.51 -88.81,48.65l3.17 -45.13z"/>
  <path class="fil0" d="M1171.62 295.02l-2.58 60.83c44.38,-1.57 103.57,6.63 144.18,-4.88 -0.08,-54.89 -1.24,-82.43 -47.99,-95.94 -44.16,-12.78 -87.65,6.9 -93.61,39.98z"/>
  <path class="fil0 str0" d="M600.97 1430.24l-3.17 45.13c22.3,-25.14 33.68,-67.3 88.81,-48.65 18.9,44.26 -9.68,31.59 -31.81,49.06 -22.12,17.46 -14.46,58.55 16.24,60.35 52.35,3.07 27.34,-123 34.83,-166.47l-47.72 2.93c-28.77,-0.23 -58.48,29.46 -57.19,57.64z"/>
  <path class="fil0" d="M1777.9 2782.13c21.95,-34.39 0.83,-529.56 8.41,-620.9l250.27 0.04c7.5,99.94 1.28,346.69 1.28,472.26 0,26.64 -6.76,127.47 6.8,148.74l-0.83 -626.38 -264.3 -0.72 -1.63 626.96z"/>
  <path class="fil0 str0" d="M678.52 1442.3c-52.89,-47.65 -114.79,124.72 -7.76,127.09 73.33,1.63 61.7,-82.87 62.11,-138.13 0.48,-64.46 3.25,-52.48 -12.81,-54.86 -20.78,28.71 25.98,159.13 -39.09,172.28 -51.97,10.51 -70.83,-56.78 -32.96,-85.62 20.09,-15.31 23.58,0.14 30.51,-20.76z"/>
  <path class="fil0" d="M1894.79 1486.63l0 5.78c-13.59,26.53 -4.77,58.27 -12.89,88.77 -60.88,3.12 -22.39,-23.44 -43.69,-56.95 -17.48,23.9 -21.42,65.35 11.46,79.02 17.65,7.34 30.9,4.74 45.28,-6.87 17.61,-14.22 20.04,-16.5 37.18,-25.58 -18.7,-37.27 22,-113.16 -38.21,-97.47l0.86 13.3z"/>
  <path class="fil0" d="M1867.34 1474.9l0.23 -2.01c30.41,-1.88 11.62,-10.14 33.63,-15.61 51.29,-12.76 40.04,66.28 39.53,105.85l15.93 -1.91 1.23 3.14c-1.54,-27.76 -9.59,-80.32 9.93,-98.59 15.21,-15.93 31.93,-12.55 43.22,3.1 11.43,15.86 7.62,36.58 7.24,58.22l8.25 -0.36c28.56,-15.96 15.02,-86.86 -15.64,-84.48 -43.1,-13.26 -35.8,-3.11 -66.67,8.7 -15.91,-6.72 -27.5,-20.52 -52.8,-12.17 -17.6,5.81 -25.17,16.2 -24.08,36.1z"/>
  <path class="fil0 str0" d="M789.77 1569.95c-9.4,-57.02 1.36,-164.19 54.2,-127.65 -2.5,15.24 2.35,5.12 -10.87,13.71 -6.13,3.98 -25.57,3.82 -28.98,40.77 -5.74,62.07 15.15,61.98 -14.34,73.17zm22.98 8.44l6.02 -97.74c17.34,-13.41 52.42,-20.72 36.85,-46.85 -17.24,-28.93 -58.16,3.72 -66.2,12.66 -17.61,19.6 -14.39,46.72 -14.53,78.24 -0.17,37.27 -8.09,63.31 37.86,53.69z"/>
  <path class="fil0 str0" d="M927.05 1673.27c0.64,-1.19 1.57,-4.35 1.73,-3.66 0.17,0.71 1.32,-2.9 1.53,-3.89 1.3,-6.3 1.62,-7.58 2.09,-14.45 0.53,-7.79 0.06,-19.54 0.14,-27.81l3.31 -168.42c-55,51.5 -0.48,73.45 -14.83,109.66 -13.07,-27.39 -27.57,-18.97 -27,-62.06 0.44,-33.62 20.19,-46.72 33.73,-70.17 -47.51,13.73 -77.08,78.06 -4.16,147.05 -0.69,30.49 -4.09,65.2 3.47,93.74z"/>
  <path class="fil0" d="M1957.89 1564.37c22.56,-3.74 12.8,-1.69 18.62,-9.07 -12.63,-6.35 -6.5,-70.51 -1.52,-82.6 40.06,-13.16 34.65,48.4 25.42,75.39 14.77,-6.78 6.32,0.05 14.93,-6.74 12.49,-9.86 5.23,-3.42 11.2,-14.59l-8.25 0.36c0.38,-21.64 4.19,-42.36 -7.24,-58.22 -11.28,-15.65 -28,-19.03 -43.22,-3.1 -19.53,18.27 -11.47,70.83 -9.93,98.59z"/>
  <path class="fil0" d="M1269.2 1511.52c-8.54,8.39 13.5,6.7 -16.76,7.43 18.5,12.66 6.73,3.71 14.74,14.38 17.75,1.03 19.48,3.08 35.82,12.3 6.22,3.51 6.96,4.41 13.87,8.31 15.63,8.84 5.17,4.8 16.78,7.22 10.33,-10.13 7.03,-9.48 6.69,-31.08 -0.19,-12.32 0.44,-19.09 -2.9,-29.72 -24.04,1.93 -38.43,14.98 -68.23,11.16z"/>
  <path class="fil0" d="M1976.51 1555.3l23.9 -7.21c9.23,-26.99 14.64,-88.55 -25.42,-75.39 -4.98,12.09 -11.12,76.25 1.52,82.6z"/>
  <path class="fil0" d="M789.77 1569.95c29.49,-11.19 8.61,-11.1 14.34,-73.17 3.41,-36.94 22.85,-36.79 28.98,-40.77 13.23,-8.59 8.37,1.52 10.87,-13.71 -52.84,-36.54 -63.59,70.64 -54.2,127.65z"/>
  <path class="fil0 str0" d="M1845.79 1458.8c11.31,15.2 0.1,7.14 21.55,16.1 -1.09,-19.9 6.48,-30.3 24.08,-36.1 25.31,-8.35 36.89,5.44 52.8,12.17 30.87,-11.81 23.57,-21.95 66.67,-8.7 -11.07,-13.7 5.94,-2.05 -13.93,-13.98 -7.93,-4.76 -15.78,-5.84 -25.27,-8.38l-28.87 17.15c-17.45,-16.22 -38.08,-20.16 -61.2,-9.07 -22.06,10.57 -23.63,27.57 -35.83,30.81z"/>
  <path class="fil0" d="M1867.57 1472.89c7.74,13.44 10.52,9.94 27.22,13.74l-0.86 -13.3c60.21,-15.69 19.51,60.2 38.21,97.47 8.54,-0.85 4.83,1.34 11.7,-1.64 9.71,-4.21 7.29,-3.27 12.82,-7.93l-15.93 1.91c0.51,-39.57 11.76,-118.61 -39.53,-105.85 -22.01,5.47 -3.22,13.73 -33.63,15.61z"/>
  <path class="fil0" d="M1873.59 1500.8c1.56,27.92 6.67,51.45 -6.22,68.65 -16.04,-13.09 -9.4,-41.35 -5.52,-60.91 -0.46,0.18 -14.04,5.67 -14.84,6.25 -9.53,6.83 -1.96,-0.15 -8.8,9.44 21.3,33.51 -17.2,60.07 43.69,56.95 8.11,-30.5 -0.7,-62.24 12.89,-88.77l-21.2 8.39z"/>
  <path class="fil0" d="M1434.52 1543.33c-7.8,-19.41 1.09,-9.37 -17.77,-20.76 0.4,20.92 5.19,32.86 -5.01,50.2 -8.79,-4.6 -16.24,-7.66 -10.83,-42.76 3.57,-23.19 -1.8,-6.75 7.33,-16.48l-23.92 -16.18c7.33,24.05 -2.44,69.97 10.83,82.7 32.49,31.14 35.04,-29.35 39.37,-36.72z"/>
  <path class="fil0" d="M2099.55 460.01c-6.22,-3.5 6.67,-1.99 -12.69,-5.47l-142.78 -0.99 0.09 -59.66c30.38,-0.22 89.81,6.3 110.46,-6.35l-115.63 3.1 2.07 68.52 158.46 0.85z"/>
  <path class="fil0 str0" d="M1333.65 1561.16c4.48,5.03 3.28,5.21 9.69,10.03 10.51,7.89 0.39,0.52 13.47,8.19 -6.98,-26.48 -3.06,-59.33 -2.87,-88.32 -17.01,2.17 -13.07,-0.52 -16.5,9.3 3.34,10.62 2.71,17.4 2.9,29.72 0.34,21.6 3.64,20.95 -6.69,31.08z"/>
  <path class="fil0" d="M1947.06 316.76l-3.55 -59.55 148.03 -2.33c1.37,-0.38 3.13,-1.5 4.19,-1.87 1.04,-0.37 2.64,-1.44 3.96,-2.17l-158.6 0.74c-3.53,18.83 -8.87,52.52 5.98,65.18z"/>
  <path class="fil0 str0" d="M1267.18 1533.33c-8,-10.67 3.77,-1.72 -14.74,-14.38 30.26,-0.73 8.22,0.95 16.76,-7.43l-33.06 -4.04 8.72 59.4c14.45,-4.01 8.98,4.48 12.13,-9.46 1.43,-6.35 -0.38,-16.09 -0.74,-21.8l10.92 -2.29z"/>
  <path class="fil0" d="M1313.22 350.98c-40.61,11.5 -99.8,3.31 -144.18,4.88l2.58 -60.83c-11.97,12.99 -8.44,43.16 -6.2,64.74l114.76 1.9c37.88,0.03 29.15,-2.63 33.04,-10.68z"/>
  <path class="fil0" d="M1861.85 1508.54c-3.89,19.56 -10.52,47.81 5.52,60.91 12.89,-17.2 7.78,-40.73 6.22,-68.65l-11.74 7.74z"/>
  <path class="fil0 str0" d="M1416.75 1522.58c-2.81,-8.13 9.67,-1.29 -8.52,-9.04 -9.12,9.73 -3.75,-6.71 -7.33,16.48 -5.41,35.09 2.04,38.16 10.83,42.76 10.2,-17.33 5.41,-29.28 5.01,-50.2z"/>
  <path class="fil0" d="M1833.58 1387.37c15.54,4.71 -0.98,8.44 17.31,1.04l8.48 -23.98c-22.1,6.28 -17.85,1.92 -25.79,22.93z"/>
 </g>
</svg>
