<?xml version="1.0" encoding="UTF-8"?>
<!DOCTYPE svg PUBLIC "-//W3C//DTD SVG 1.1//EN" "http://www.w3.org/Graphics/SVG/1.1/DTD/svg11.dtd">
<!-- Creator: CorelDRAW -->
<svg xmlns="http://www.w3.org/2000/svg" xml:space="preserve" width="100%" height="100%" version="1.1" style="shape-rendering:geometricPrecision; text-rendering:geometricPrecision; image-rendering:optimizeQuality; fill-rule:evenodd; clip-rule:evenodd"
viewBox="0 0 2110.84 2652.99"
 xmlns:xlink="http://www.w3.org/1999/xlink"
 xmlns:xodm="http://www.corel.com/coreldraw/odm/2003">
 <defs>
  <style type="text/css">
   <![CDATA[
    .fil0 {fill:#003399}
   ]]>
  </style>
 </defs>
 <g id="Layer_x0020_1">
  <metadata id="CorelCorpID_0Corel-Layer"/>
  <g id="_105553396736896">
   <path class="fil0" d="M1860.87 2382.13c45.86,-95.57 41.66,-246.42 41.66,-388.84 95.45,45.8 152.76,42.65 152.76,222.19 0,90.69 -108.29,159.48 -194.42,166.65zm-791.57 -513.82l777.68 0 0 83.32 -499.94 0c-39.11,0 -25.71,6.01 -41.66,27.78 16.26,23.41 1.99,27.77 41.66,27.77l499.94 0c0,176.52 18.79,339.2 -107.29,475.98 -126.65,137.38 -382.43,175.21 -549.4,14.06 -149.84,-144.61 -121,-279.81 -121,-490.04 109.42,0 92.54,9.09 138.87,-13.89 -19.42,-53.63 -53.14,-41.66 -138.87,-41.66l0 -83.32zm-27.77 -111.1c0,-32.5 23.04,-55.55 55.55,-55.55l722.13 0c74.01,0 74.01,111.1 0,111.1l-722.13 0c-32.51,0 -55.55,-23.04 -55.55,-55.55zm694.35 -111.09l-583.26 0c-69.11,0 -49.74,-111.1 13.89,-111.1l569.37 0c74.01,0 74.01,111.1 0,111.1zm-472.16 -263.86c0,-92.82 58.77,-97.21 152.76,-97.21 45.65,195.96 266.98,2.16 222.19,194.42l-333.29 0c-20.15,-30.08 -41.66,-46.23 -41.66,-97.21zm-55.55 0c0,50.45 16.47,48.71 27.77,97.21 -215.09,0 -184.6,103.47 -166.65,180.53 -147.44,34.35 -54.48,132.77 -54.98,263.29 -0.89,233.38 -23.67,353.38 68.87,528.28l-791.57 0c-46.84,0 -93.39,0.84 -140.07,1.2 -51.76,0.4 -96.01,10.71 -96.01,-42.86l0 -2055.3 1249.84 0 0 888.78c-53.45,14.27 -97.21,73.06 -97.21,138.87zm-138.87 -1333.16c23.61,101.35 13.89,128.96 13.89,249.97l-782.82 -19.03 768.93 -230.94zm-1069.31 333.29l0 2055.29c0,83.15 159.43,55.55 291.63,55.55l694.46 -0.11c220.91,-1.79 117.74,28.62 255.2,105.86 174.19,97.88 386.06,53.74 512.11,-60.46 52.04,-47.14 32.3,-53 83.94,-82.71 72.45,-41.68 273.49,-55.32 273.49,-281.99 0,-119.52 -91.89,-219.6 -208.31,-222.19 0,-249.25 81.4,-225.71 -69.44,-305.52 20.18,-84.29 14.66,-163.23 -138.87,-166.65 0,-64.46 14.27,-127.56 -88.33,-147.75 -114.98,-22.63 -133.86,43.15 -133.86,-102.22l-111.1 0 0 -833.23c0,-124.65 -97.3,-97.21 -236.08,-97.21 0,-398.82 62.89,-344.34 -567.61,-151l-448.13 135.13c-64.69,18.75 -109.12,20.28 -109.12,99.19z"/>
   <path class="fil0" d="M583.26 868.43l83.32 0c154.48,0 305.52,136.09 305.52,291.63l-694.35 0c12.28,-147.56 150.15,-291.63 305.52,-291.63zm-361.07 291.63c-65.67,1.46 -54.54,-14.13 -69.43,41.66 57.4,32.25 816.87,13.89 944.32,13.89l0 -55.55 -69.44 0c-6.5,-291.85 -407.32,-472.05 -676.73,-246.23 -78.91,66.14 -102.35,133.01 -128.72,246.23z"/>
   <path class="fil0" d="M222.19 1354.48c107.28,0 793.2,16.56 836.55,-10.57 28.78,-18.01 12.51,1.9 24.46,-31.09 -75.63,-36.29 -751.96,-13.89 -902.67,-13.89 3.26,39.21 -0.32,55.55 41.66,55.55z"/>
   <path class="fil0" d="M319.41 2048.83c75,35.98 511.63,13.89 638.81,13.89 -3.26,-39.2 0.32,-55.55 -41.66,-55.55l-527.71 0c-48.3,0 -60.28,6.09 -69.43,41.66z"/>
   <path class="fil0" d="M319.41 1743.32c35.3,48.18 189.73,27.78 305.52,27.78 111.09,0 222.19,0 333.29,0 -3.26,-39.21 0.32,-55.55 -41.66,-55.55l-555.48 0c-25.11,0 -38.11,6.95 -41.66,27.78z"/>
   <path class="fil0" d="M583.26 2215.48l333.29 0c39.11,0 25.71,-6.01 41.66,-27.78 -35.29,-48.16 -51.06,-28.01 -194.41,-27.78 -74.06,0.12 -148.14,0.01 -222.2,0.01 3.26,39.2 -0.32,55.55 41.66,55.55z"/>
   <path class="fil0" d="M583.26 1923.85l333.29 0c41.98,0 38.4,-16.34 41.66,-55.55l-416.61 0c3.26,39.2 -0.32,55.55 41.66,55.55z"/>
   <path class="fil0" d="M374.95 1076.74l39.99 29.79c33.18,-49.06 49.63,-82.36 112.77,-99.22l0 -41.66c-93.22,2.08 -120.02,49.23 -152.76,111.1z"/>
   <path class="fil0" d="M319.41 2187.7c22.8,32.82 -10.59,27.78 111.09,27.78 41.98,0 38.4,-16.34 41.66,-55.55 -74.22,0 -145.71,-13.49 -152.76,27.77z"/>
   <path class="fil0" d="M319.41 1882.19c10.71,29.6 -5.76,17.1 22.74,32.8 27,14.88 39.96,8.86 88.35,8.86 41.98,0 38.4,-16.34 41.66,-55.55 -33.45,0 -135.9,-6.69 -152.76,13.89z"/>
   <path class="fil0" d="M569.37 757.33c2.2,2.43 5.82,2.8 6.61,7.24l90.6 34.42c0.39,-1.62 45.68,-97.21 -41.66,-97.21 -42.43,0 -40.3,24.78 -55.55,55.55z"/>
  </g>
 </g>
</svg>
