<?xml version="1.0" encoding="UTF-8"?>
<!DOCTYPE svg PUBLIC "-//W3C//DTD SVG 1.1//EN" "http://www.w3.org/Graphics/SVG/1.1/DTD/svg11.dtd">
<!-- Creator: CorelDRAW -->
<svg xmlns="http://www.w3.org/2000/svg" xml:space="preserve" width="100%" height="100%" version="1.1" style="shape-rendering:geometricPrecision; text-rendering:geometricPrecision; image-rendering:optimizeQuality; fill-rule:evenodd; clip-rule:evenodd"
viewBox="0 0 393.7 365.22"
 xmlns:xlink="http://www.w3.org/1999/xlink"
 xmlns:xodm="http://www.corel.com/coreldraw/odm/2003">
 <defs>
  <style type="text/css">
   <![CDATA[
    .fil0 {fill:#3E4D55}
    .fil2 {fill:#63B4F5}
    .fil3 {fill:#ED5250}
    .fil1 {fill:#FEC828}
   ]]>
  </style>
 </defs>
 <g id="Layer_x0020_1">
  <metadata id="CorelCorpID_0Corel-Layer"/>
  <path class="fil0" d="M113.58 357.19c14.86,-27.33 5.17,-22.61 10.66,-50.72l255.07 -0.26c8.88,65.7 -28.7,51.19 -105.76,51.19 -53,0 -107.11,1.06 -159.97,-0.21zm272.42 -56.73l-268.75 -1.04c-1.55,12.57 0.7,31.06 -2.49,40.87 -3.22,9.91 -12.9,18.24 -26.7,16.04 -28.1,-4.48 -22.79,-40.13 -22.79,-67.59l0 -131.92c0,-10.61 4.2,-35.1 -4.46,-39.89 -2.86,5.63 -7.57,213.35 2.96,230.66 12.74,20.93 38.6,16.47 64.36,16.47 53.86,-0 107.72,0 161.58,0 62.89,0 106.44,15.11 96.29,-63.6z"/>
  <path class="fil1" d="M366.47 148.74c-14.34,55.41 -95.67,33.63 -81.19,-20.69 5.02,-18.83 26.3,-35.75 51.24,-29.19 18.48,4.86 36.38,25 29.94,49.88zm1.94 -54.06c-6.24,-1.71 -15.94,-1.85 -21.28,-3.51 -9.19,-2.86 -4.72,-4.06 -12.47,-9.04 -16.15,-10.35 -21.05,5.3 -30.06,8.61 -18.11,6.64 -22.54,-5.81 -26.21,20.22 -3.02,21.41 -14.08,12.28 -13.09,29.52 0.61,10.63 5.13,9.86 9.22,15.25 7.09,9.33 2.32,5.17 4.31,17.05 3.43,20.47 14.91,9.5 27.83,15.52 8.56,3.98 12.66,19.34 29.24,6.72 8.24,-6.28 1.61,-5.91 13.36,-8.32 6.63,-1.36 12.04,-0.62 19.37,-2.57 4.35,-9.85 2.53,-17.73 6.2,-25.55 3.28,-7 11.8,-9.07 10.97,-20.26 -0.79,-10.65 -8.75,-10.92 -11.87,-20.16 -3.41,-10.11 -0.44,-12.4 -5.52,-23.48z"/>
  <path class="fil0" d="M303.48 237.82l0.22 -42.78c4.94,3.78 9.7,10.02 18.54,11.31 13.43,1.95 15.5,-5.58 25.37,-9.95l0.33 40.04c-15.11,-4.74 -9.09,-7.93 -23.24,-13 -9.07,6.07 -10.31,9.79 -21.24,14.39zm64.93 -143.14c5.08,11.08 2.11,13.37 5.52,23.48 3.12,9.24 11.07,9.51 11.87,20.16 0.83,11.19 -7.69,13.27 -10.97,20.26 -3.67,7.82 -1.85,15.7 -6.2,25.55 -7.33,1.95 -12.74,1.21 -19.37,2.57 -11.75,2.42 -5.12,2.05 -13.36,8.32 -16.58,12.62 -20.68,-2.73 -29.24,-6.72 -12.91,-6.02 -24.39,4.95 -27.83,-15.52 -1.99,-11.88 2.78,-7.72 -4.31,-17.05 -4.09,-5.39 -8.61,-4.62 -9.22,-15.25 -0.99,-17.24 10.07,-8.11 13.09,-29.52 3.67,-26.03 8.1,-13.58 26.21,-20.22 9.01,-3.31 13.91,-18.96 30.06,-8.61 7.75,4.97 3.28,6.17 12.47,9.04 5.33,1.66 15.04,1.8 21.28,3.51zm-73.14 99.83l1.41 52.24c9.97,1.68 19.36,-10.07 28.04,-15.2 11.72,5.39 16.49,14.57 29.22,16.54l0.94 -53.57c32.47,-10.93 18.19,-5.04 25.29,-31.22 3.18,-11.75 24.45,-18.43 6.27,-38.63 -9.85,-10.94 -5,-1.98 -7.3,-18.98 -3.57,-26.34 -22.16,-16.47 -33.94,-22.84 -19.17,-10.36 -10.16,-20.3 -38.74,-0.83 -11.67,7.94 -30.25,-2.67 -34.26,21.78 -3.29,20.08 2.13,7.93 -8.53,21.68 -15.28,19.72 3.09,27.23 6.76,37.58 8.63,24.35 -6.17,21.47 24.84,31.46z"/>
  <path class="fil1" d="M311.69 107.93c-42.78,20.56 -14.43,78.78 25.85,64.32 42.65,-15.31 18.87,-85.81 -25.85,-64.32z"/>
  <path class="fil0" d="M2.29 64.31c11.24,0.78 40.77,2.8 49.31,-1.73 -4.24,-6.72 -5.27,-4.68 -17.53,-4.59 -9.47,0.07 -17.05,0.44 -26.53,-0.72 -0.54,-25.83 -1.56,-53.15 29.01,-49.66 32.16,3.67 16.83,42.71 24.25,56.44 6.74,-4.19 5.89,-9.64 4.39,-31.15 -1.04,-14.82 -5.84,-15.9 -9.26,-25.8l243.48 0.81c34.17,7.5 16.11,40.79 25.3,56.9 4.71,-3.08 21.15,-64.32 -40.33,-64.76l-231.67 0.06c-21.05,-0.1 -33.67,-1.83 -44.71,12.37 -8.83,11.35 -9.74,35.88 -5.72,51.83z"/>
  <path class="fil2" d="M141.06 81.83c8.66,3.43 74.14,2.76 92.3,2.09 2.56,-0.09 4.96,-0.14 7.46,-0.67 5.35,-1.13 2.95,-0.48 5.83,-2.31l1.24 -26.02c-15.22,-3.59 -2.8,-3.06 -25.48,-2.84 -20.58,0.2 -68.12,-1.65 -82.05,1.34 -1.6,9.41 -1.9,21.33 0.7,28.4z"/>
  <path class="fil0" d="M246.65 80.94c-2.88,1.83 -0.48,1.19 -5.83,2.31 -2.5,0.53 -4.9,0.57 -7.46,0.67 -18.16,0.67 -83.64,1.35 -92.3,-2.09 -2.6,-7.07 -2.3,-18.99 -0.7,-28.4 13.93,-2.99 61.47,-1.14 82.05,-1.34 22.68,-0.22 10.26,-0.75 25.48,2.84l-1.24 26.02zm-114.17 -18.35c0,36.32 -8.29,28 106.06,28 18.69,0 16.43,-9.1 16.43,-28 0,-13.26 -2.76,-17.33 -16.43,-17.33l-88.87 0c-15.17,0 -17.19,2.18 -17.19,17.33z"/>
  <path class="fil0" d="M311.69 107.93c44.72,-21.49 68.5,49.01 25.85,64.32 -40.27,14.46 -68.62,-43.77 -25.85,-64.32zm54.78 40.8c6.44,-24.88 -11.46,-45.02 -29.94,-49.88 -24.94,-6.56 -46.22,10.36 -51.24,29.19 -14.49,54.32 66.85,76.09 81.19,20.69z"/>
  <path class="fil3" d="M303.48 237.82c10.92,-4.6 12.16,-8.32 21.24,-14.39 14.15,5.07 8.13,8.26 23.24,13l-0.33 -40.04c-9.87,4.37 -11.94,11.91 -25.37,9.95 -8.85,-1.28 -13.61,-7.52 -18.54,-11.31l-0.22 42.78z"/>
  <path class="fil0" d="M324.72 292.72c6.62,-5.31 4.19,-10.73 4.15,-22.8 -0.03,-10.37 3.01,-21.97 -4.15,-26.77 -4.68,8.87 -5.91,40.07 0,49.57z"/>
  <path class="fil0" d="M60.8 102.56c5.37,-3.06 4.3,1.31 4.85,-10.3 0.54,-11.58 0.94,-10.06 -4.85,-13.85 -3.22,7.02 -3.66,16.78 0,24.15z"/>
 </g>
</svg>
