<?xml version="1.0" encoding="UTF-8"?>
<!DOCTYPE svg PUBLIC "-//W3C//DTD SVG 1.1//EN" "http://www.w3.org/Graphics/SVG/1.1/DTD/svg11.dtd">
<!-- Creator: CorelDRAW -->
<svg xmlns="http://www.w3.org/2000/svg" xml:space="preserve" width="100%" height="100%" version="1.1" style="shape-rendering:geometricPrecision; text-rendering:geometricPrecision; image-rendering:optimizeQuality; fill-rule:evenodd; clip-rule:evenodd"
viewBox="0 0 2012.59 1746"
 xmlns:xlink="http://www.w3.org/1999/xlink"
 xmlns:xodm="http://www.corel.com/coreldraw/odm/2003">
 <defs>
  <style type="text/css">
   <![CDATA[
    .fil2 {fill:#404E57}
    .fil0 {fill:#63B4F5}
    .fil3 {fill:#ED5250}
    .fil1 {fill:#FEC828}
    .fil4 {fill:white}
   ]]>
  </style>
 </defs>
 <g id="Layer_x0020_1">
  <metadata id="CorelCorpID_0Corel-Layer"/>
  <polygon class="fil0" points="364.11,1298.35 1303.17,1299.25 1303.07,738.79 364.93,736.54 "/>
  <path class="fil1" d="M234.65 1520.97c-30.22,48.08 25.32,16.29 -55.57,32.51 -23.62,4.74 -63.4,-11 -134.75,16.92 -24.44,106.44 -9.89,137.61 107.37,138.38 307.37,2.01 1735.12,14.64 1811.37,-18.17 14.55,-37.39 14.91,-79.51 5.25,-120.9 -117.03,-45.69 -1114.12,-5.41 -1393.17,-14.65 -98.43,-3.26 -75.39,-15.93 -84.38,-34.09 -35.04,17.13 -54.15,12.53 -64.12,7.57 -10.2,1.62 -19.91,0.65 -30.53,0.65l-46.07 1.13c-19.75,0 -36.04,-4.7 -48.93,-12.46 -10.95,5.63 -20.82,12.67 -30.45,20.08l-36.04 -16.97z"/>
  <path class="fil2" d="M1605.99 1518.38c-4.79,-67.55 -12.56,-222.76 7.4,-282.46l238.85 4.83 2.07 277.98 -248.32 -0.36zm-1111.23 2.58c-2.41,8.1 -19.36,15.59 -32.65,19.26 -23.92,6.59 -50.46,5.39 5.35,7.24 279.05,9.24 1383.83,-23.43 1500.87,22.26 9.66,41.39 9.3,83.51 -5.25,120.9 -76.25,32.81 -1504,20.18 -1811.37,18.17 -117.26,-0.77 -131.81,-31.94 -107.37,-138.38 71.35,-27.92 111.13,-12.18 134.75,-16.92 80.89,-16.22 285.46,15.56 315.68,-32.52l-317.02 -1.95 -3.33 -24.61 5.3 -64.72 1310.22 0.12 -0.4 89.14 -994.76 2.03zm-223.71 -878.56l1127.02 3.07 -1.83 745.9 -1126.98 -3.37 1.79 -745.6zm-34.32 719.8l-0.29 31.96c-104.38,0.84 -90,28.25 -96.45,123.7 -52.35,2.21 -95.89,4 -121.22,41.51 -25.71,38.08 -25,109.43 2.17,146.33 44.03,59.8 213.26,35.35 303.57,35.35l1375.75 0.02c96.57,-0.16 257.31,23.23 296.66,-43 20.74,-34.91 20.41,-99.06 1.94,-130.95 -26.61,-45.94 -70.27,-35.28 -111.94,-59.44 -2.37,-75.51 11.35,-242.13 -11.22,-297.06 -67.05,-15.1 -237.57,-21.79 -295.6,4.72 -21.42,21.99 -2.66,220.98 -10.15,265.52 -2.83,16.83 21.69,-9.24 -15.2,38.15 -36.91,-12.7 -19.66,1.29 -29.13,-38.23 -20.26,-84.5 23.59,-53.99 -62.87,-89.78 -34.62,-14.33 -8.56,1.82 -31.56,-15.57 0.15,-145.47 0.04,-290.95 0.04,-436.42 0,-323.96 30.89,-330.27 -114.58,-330.27l-988.82 0c-124.67,0 -91.08,53.39 -91.08,330.27 0,141.07 0,282.13 0,423.2z"/>
  <path class="fil2" d="M364.93 736.54l938.15 2.24 0.09 560.46 -939.06 -0.9 0.82 -561.81zm-25.37 594.71l988.23 -12.8c19.78,-22.72 16.47,-650.93 -8.59,-604.94l-29.87 -9.47c-14.61,-2.25 -48.61,-1.57 -64.72,-1.42 -276.27,2.67 -632.19,-9 -884.94,2.09 -17.31,63 -17.53,564.08 -0.11,626.54z"/>
  <path class="fil2" d="M1607.65 261.53l43.19 -57.74c259.39,-6 123.85,19.31 208.15,57.51 14.85,-35.04 5.24,-16.27 -4.32,-54.38l100.86 -2.45 7.7 335.45c-70.66,13.56 -408.66,16.16 -467.4,-3.64 -4.89,-72.83 -1.41,-146.39 -2.48,-219.44 -1.75,-119.13 -18.04,-116.78 101.08,-112.59 16.19,38.5 -6.48,-11.68 1.51,24.88 0.37,1.67 1.23,5.92 1.71,7.67 0.52,1.88 2.06,6.25 2.64,8.02l7.36 16.7zm113.4 -201.34c36.12,32.59 53.19,67.44 63.11,109.16l-112.76 -0.09 49.65 -109.07zm-96.31 104.33c-125.33,25.47 -190.78,-97.76 -164.57,324.83l10.15 81.48c146.52,18.84 287.63,9.24 441.59,8.8 112.85,-0.32 84.74,-25.77 84.74,-315.11 0,-124.18 -51.16,-95.11 -165.46,-95.11 -45.31,-76.09 -58.48,-139.09 -104.47,-169.42 -40.26,39.49 -71.21,121.71 -101.96,164.53z"/>
  <path class="fil3" d="M1605.99 1518.38l248.32 0.36 -2.07 -277.98 -238.85 -4.83c-19.95,59.69 -12.19,214.91 -7.4,282.46z"/>
  <path class="fil2" d="M1634.11 1172.91c38.07,-46.34 1.13,-120.53 26.46,-182.75 24.88,28.11 8.81,-35.94 20.35,40.58 8.64,57.3 -24.24,106.03 19.33,141.89 22.5,-34.82 14.32,-96.08 14.38,-141.78 0.12,-88.52 3.44,-82.54 -89.1,-73.5 -14,56.11 -23.66,175.43 8.58,215.56z"/>
  <path class="fil2" d="M1752.27 1174.66c75.49,-41.67 -3.3,-69.11 75.87,-123.03 -7.73,49.95 -27.99,86.08 -8.83,121.02 29.76,-22.06 47.58,-94.52 46.98,-148.58l-86.64 -7.25c-13.37,48.77 -35.13,103.2 -27.37,157.83z"/>
  <path class="fil4" d="M1671.4 169.27l112.76 0.09c-9.93,-41.72 -26.99,-76.57 -63.11,-109.16l-49.65 109.07z"/>
  <path class="fil2" d="M805.5 1468c17.96,35.8 66.71,33.24 87.29,0 -31.71,-15.48 -52.9,-18.7 -87.29,0z"/>
 </g>
</svg>
