<?xml version="1.0" encoding="UTF-8"?>
<!DOCTYPE svg PUBLIC "-//W3C//DTD SVG 1.1//EN" "http://www.w3.org/Graphics/SVG/1.1/DTD/svg11.dtd">
<!-- Creator: CorelDRAW -->
<svg xmlns="http://www.w3.org/2000/svg" xml:space="preserve" width="100%" height="100%" version="1.1" style="shape-rendering:geometricPrecision; text-rendering:geometricPrecision; image-rendering:optimizeQuality; fill-rule:evenodd; clip-rule:evenodd"
viewBox="0 0 413.71 369.44"
 xmlns:xlink="http://www.w3.org/1999/xlink"
 xmlns:xodm="http://www.corel.com/coreldraw/odm/2003">
 <defs>
  <style type="text/css">
   <![CDATA[
    .fil1 {fill:#404E57}
    .fil3 {fill:#63B4F5}
    .fil2 {fill:#ED5250}
    .fil0 {fill:#FEC828}
   ]]>
  </style>
 </defs>
 <g id="Layer_x0020_1">
  <metadata id="CorelCorpID_0Corel-Layer"/>
  <path class="fil0" d="M145.83 238.25c14.91,-3.11 11.3,1.35 21.8,1.56 7.41,0.15 10.87,-3.02 21.7,-3.27 16.17,-0.38 37.06,-0.54 52.94,0.95 -0.04,-10.54 0.01,-21.09 -0.03,-31.63 -0.04,-10.37 -3.15,-22.69 4.65,-26.45 5.14,10.31 2.2,44.87 2.17,58.54l19.04 0.71c-0.18,-44.61 13.83,-96.27 -37.44,-94.98 -2.81,3.53 -17.3,18.71 -18.61,22.13 -5.26,13.64 3.67,28.39 -6.18,34.61 -8.39,-17.6 4.76,-27.23 -11,-43.81 -9.24,-9.73 -16.25,-19.3 -34.02,-9.45 -22.31,12.36 -14.88,60.65 -15.01,91.09z"/>
  <path class="fil1" d="M302.83 254.93c35.46,-11.5 50.59,44.17 16.87,54.09 -36.15,10.63 -56.76,-41.15 -16.87,-54.09zm-103.65 0.3c35.11,-12.98 49.23,41.31 18.83,53.13 -34.13,13.26 -59.97,-37.93 -18.83,-53.13zm-102.06 -0.77c36.59,-10.21 49.12,45.03 14.89,54.8 -38.13,10.88 -52.13,-44.4 -14.89,-54.8zm-13.08 62.02c-7.74,2.22 -25.64,8.98 -30.07,13.69 -6.43,6.85 -8.37,28.83 -1.29,38.33 12.14,-23.87 -13.81,-24.49 26.41,-43.16 18.09,-8.4 18.18,-16.15 46.85,-1.32 30.44,15.75 23.93,4.71 25.32,32.54 0.74,14.64 -2.09,8.7 5.91,12.89 3.54,-39.68 -3.34,-30.2 25.56,-44.59 28.37,-14.13 29.91,-9.57 46.94,-0.54 11.21,5.94 16.08,5.49 24.04,13.81 1.54,11.11 -1.28,23.46 4.13,30.85 15.78,-11.33 -11.67,-26.84 20.94,-40.93 6.5,-2.81 8.57,-3.68 14.76,-7.44 20.26,-12.31 36.64,2.53 43.65,5.62 4.86,2.15 10.81,3.54 15.01,6.83 11.26,8.83 1.8,14.46 8.46,33.22 0.22,0.61 0.67,1.52 1.12,2.22l3.49 -9.48c6.13,-39.34 -23.82,-31.68 -35.4,-46.75 37.29,-42.52 -0.16,-65.96 -20.05,-65.82 -17.08,0.13 -30.58,12.12 -34.05,26.45 -6,24.81 10.63,32.02 14.76,42.79 -11.13,3.77 -22.22,8.16 -29.81,15.72l-33.75 -15.83c4.65,-11.86 20.28,-19.11 14.22,-43.51 -8.94,-36.05 -61.59,-32.53 -68.86,1.39 -4.89,22.8 9.36,29.32 14.93,42.76 -10.18,2.94 -23.5,7.66 -30.03,15.29 -10.46,-4.58 -21.67,-11.93 -33.91,-15.44 5.81,-13.09 19.25,-18.11 15.34,-40.69 -8.95,-51.72 -89,-27.1 -67.58,21.42 4.82,10.92 7.94,6.5 12.96,19.68z"/>
  <path class="fil1" d="M49.95 20.43c-11.5,0 -38.33,4.92 -42.79,-5.99 4.11,-5.71 -5.09,-2.77 7.32,-6.25l372.07 -0.59c20.31,-0.26 17.99,2.32 20.14,6.84 -3.82,6.89 -1,4.21 -9.26,6l-347.48 -0.01zm-47.56 -18.12c-5.11,20.12 -3.19,24.94 17.47,24.94l374.74 0c19.88,0 21.7,-6.3 16.86,-24.11 -16.47,-4.38 -369.84,-3.71 -409.07,-0.83z"/>
  <path class="fil2" d="M7.17 14.44c4.45,10.91 31.28,5.99 42.79,5.99l347.48 0.01c8.26,-1.79 5.44,0.89 9.26,-6 -2.15,-4.52 0.17,-7.1 -20.14,-6.84l-372.07 0.59c-12.41,3.48 -3.2,0.54 -7.32,6.25z"/>
  <path class="fil1" d="M190.81 142.16l31.44 -1.05c-4.83,8.39 -8.83,14.59 -17.34,18.17l-14.1 -17.13zm4.77 -73.48c45.52,-16.74 64.75,51.21 23.48,65.54 -42.63,14.8 -69.31,-48.69 -23.48,-65.54zm-49.74 169.57c0.13,-30.44 -7.3,-78.73 15.01,-91.09 17.77,-9.85 24.77,-0.28 34.02,9.45 15.76,16.58 2.61,26.21 11,43.81 9.85,-6.22 0.92,-20.97 6.18,-34.61 1.31,-3.42 15.8,-18.6 18.61,-22.13 51.28,-1.3 37.27,50.37 37.44,94.98 11.07,0.2 3.31,2.8 6.79,-5.45 0,-17.14 1.94,-53.01 -0.82,-68 -4.07,-22.07 -18.23,-26.7 -42.21,-29.34 28.66,-16.99 20.78,-75.19 -23.2,-76.5 -50.91,-1.52 -53.13,64.95 -26.36,76.28 -22.14,3.36 -36.6,5.63 -41.83,26.95 -3.46,14.12 -1.52,53.86 -1.52,70.62 4.09,8.85 -5.02,6.01 6.9,5.04z"/>
  <path class="fil3" d="M65.5 123.12l56.26 -0.06 0.85 -55.08c-14.03,-4.59 -41.49,-2.37 -56.74,-1.57l-0.37 56.71z"/>
  <polygon class="fil3" points="291.32,122.31 347.41,123.47 348.65,66.74 291.76,66.22 "/>
  <path class="fil1" d="M352.76 282.43c7.89,4.29 23.83,4.22 31.35,0.48 16.56,-8.24 10.09,-71.59 10.09,-101.66 0,-26.05 2.91,-132.27 -1.54,-147.62 -9.83,5.7 -5.3,52.89 -5.3,65.58 0,21.78 4.29,165.53 -3.87,174.9 -5.76,6.61 -13.88,3.12 -21.63,4.57 -17.11,3.19 10.99,-4.15 -4.85,1.38l-4.25 2.37z"/>
  <path class="fil1" d="M291.76 66.22l56.89 0.52 -1.24 56.73 -56.09 -1.17 0.44 -56.08zm-7.6 11.11c0,61.72 -8.78,53.2 52.99,53.2 23.07,0 18.43,-2.17 18.43,-53.2 0,-23.98 -11.77,-18.14 -53.99,-18.14 -16,0 -17.43,1.44 -17.43,18.14z"/>
  <path class="fil1" d="M65.87 66.41c15.26,-0.8 42.72,-3.02 56.74,1.57l-0.85 55.08 -56.26 0.06 0.37 -56.71zm-7.53 10.92c0,63.48 -8.34,53.2 54.52,53.2 21.99,0 16.9,-10.8 16.9,-53.2 0,-22.86 -5.05,-18.14 -52.46,-18.14 -15.83,0 -18.96,1.78 -18.96,18.14z"/>
  <path class="fil1" d="M61.22 282.43c-9.26,-7.69 -21.11,-1.77 -27.68,-5.48 -12.5,-7.06 -7.02,-92.77 -7.05,-120.31 -0.01,-15.89 2.43,-33.59 -3.89,-41.89 -6.61,11.58 -3.03,78.12 -3.03,104.78 0,11.43 -1.36,44.61 1.61,53.52 3.99,11.94 26.21,17.32 40.04,9.38z"/>
  <path class="fil1" d="M242.27 237.49l6.79 0.46c0.04,-13.68 2.98,-48.23 -2.17,-58.54 -7.8,3.76 -4.69,16.08 -4.65,26.45 0.04,10.54 -0,21.09 0.03,31.63z"/>
 </g>
</svg>
