<?xml version="1.0" encoding="UTF-8"?>
<!DOCTYPE svg PUBLIC "-//W3C//DTD SVG 1.1//EN" "http://www.w3.org/Graphics/SVG/1.1/DTD/svg11.dtd">
<!-- Creator: CorelDRAW -->
<svg xmlns="http://www.w3.org/2000/svg" xml:space="preserve" width="100%" height="100%" version="1.1" style="shape-rendering:geometricPrecision; text-rendering:geometricPrecision; image-rendering:optimizeQuality; fill-rule:evenodd; clip-rule:evenodd"
viewBox="0 0 1984.25 1326.15"
 xmlns:xlink="http://www.w3.org/1999/xlink"
 xmlns:xodm="http://www.corel.com/coreldraw/odm/2003">
 <defs>
  <style type="text/css">
   <![CDATA[
    .fil1 {fill:blue}
    .fil0 {fill:#5562A4}
    .fil2 {fill:red}
    .fil3 {fill:yellow}
   ]]>
  </style>
 </defs>
 <g id="Layer_x0020_1">
  <metadata id="CorelCorpID_0Corel-Layer"/>
  <path class="fil0" d="M275.65 1323.08l0 -2.84c206.85,-0.04 203.28,39.46 217.89,-161.2l250.24 -6.14c19.37,216.38 21.14,167.22 249.92,167.24 230.42,0.02 226.18,47.26 247.25,-163.39l251.45 -2.77c11.92,207.26 4.88,164.75 215.04,166.85l0.02 3.73c19.01,-0.95 39.2,-0.59 60.33,1.59l0.02 -3.04c218.64,-13.12 216.39,44.93 216.32,-196.42 -0.07,-238.46 13.15,-195.91 -211.94,-205.69 -19.46,-183.07 16.17,-151.49 -23.06,-238.69l-726.85 -7.64 1.65 -266.89c64.62,-8.19 124.28,-6.28 187.01,-5.31 62.73,0.96 155.22,14.25 193.31,-33.11 43.22,-65.36 24.48,-274.82 6.19,-351.37 -121.17,-29.26 -458.61,-10.9 -614.38,-11.98 -109.52,-0.76 -219.3,-36.02 -234.67,73.44 -11.08,78.81 -14.29,238.86 19,292.14 3.92,3.59 10.79,2.4 13.32,8.77 15.5,39.07 282.13,13.19 365.49,29.42l3.69 253.3c-137.91,42.14 -550.91,0.67 -732.37,17.66l-17.08 237.58c-224.75,23.19 -213.38,-46.25 -213.31,208.44 0.06,232.27 9.99,177.33 183.72,196.24 30.22,-3.61 61.03,-3.64 91.82,0.07zm1310.67 -137.36c-34.02,-63.8 -22.3,-120.63 -22.56,-196.42l352.12 3.64c0.38,118.61 41.24,278.67 -329.56,192.78zm-417.1 -194.4c-1.31,163.09 31.62,202.96 -134.4,208.39 -146.02,4.77 -218.24,20.22 -218.76,-132.4l-0.29 -77.43 353.44 1.44zm-746.48 -0.91c-3.24,179.37 27.46,209.79 -179.49,209.26 -197.8,-0.51 -177,-19.8 -174.05,-209.85l353.54 0.59zm600.35 -254.63l685.35 -1 -6.03 185.73 -196.85 13.92 -11.93 159.81 -256.93 -10.71c-1.07,-223.81 -16.52,-141.52 -213.55,-165.8l-0.06 -181.94zm-59.66 -0.8l-7.79 187.65c-209.94,1.52 -206.94,-37.63 -209.02,171.12l-246.69 -7.58c-54.79,-185.37 60.23,-164.43 -221.99,-163.01l0.7 -188.49 684.8 0.3zm-332.42 -392.22c-27.23,-79.83 -18.97,-190.43 -6.89,-280.5l741.92 6.85 -11.3 275.84 -723.74 -2.19z"/>
  <path class="fil1" d="M631 342.76l723.74 2.19 11.3 -275.84 -741.92 -6.85c-12.08,90.07 -20.34,200.67 6.89,280.5z"/>
  <path class="fil2" d="M1586.31 1185.72c370.79,85.89 329.94,-74.18 329.56,-192.78l-352.12 -3.64c0.27,75.79 -11.45,132.62 22.56,196.42z"/>
  <path class="fil3" d="M422.73 990.41l-353.54 -0.59c-2.94,190.04 -23.75,209.33 174.05,209.85 206.94,0.53 176.25,-29.89 179.49,-209.26z"/>
 </g>
</svg>
