<?xml version="1.0" encoding="UTF-8"?>
<!DOCTYPE svg PUBLIC "-//W3C//DTD SVG 1.1//EN" "http://www.w3.org/Graphics/SVG/1.1/DTD/svg11.dtd">
<!-- Creator: CorelDRAW -->
<svg xmlns="http://www.w3.org/2000/svg" xml:space="preserve" width="100%" height="100%" version="1.1" style="shape-rendering:geometricPrecision; text-rendering:geometricPrecision; image-rendering:optimizeQuality; fill-rule:evenodd; clip-rule:evenodd"
viewBox="0 0 1553.73 1560.55"
 xmlns:xlink="http://www.w3.org/1999/xlink"
 xmlns:xodm="http://www.corel.com/coreldraw/odm/2003">
 <defs>
  <style type="text/css">
   <![CDATA[
    .fil0 {fill:#003399}
   ]]>
  </style>
 </defs>
 <g id="Layer_x0020_1">
  <metadata id="CorelCorpID_0Corel-Layer"/>
  <path class="fil0" d="M360.74 1506.38c25.31,-45.62 40.83,-85.93 68.31,-137.34l1081.74 -2.91c-43.09,197.61 -291.4,141.86 -496.09,141.87 -216.94,0.01 -437.46,3.87 -653.96,-1.63zm-312.28 -1125.79l1275.76 -6.19 1.91 945.26 -914.84 6.81c-2.97,6.37 -6.25,8.11 -7.28,14.84 -25,162.98 -360.65,328.29 -357.63,-116.56 1.89,-278.17 -8.68,-567.72 2.09,-844.16zm0.28 -229.42c54.72,-25.69 68.43,-21.41 131.6,-21.71 92.68,-0.43 102.98,6.04 137.2,30.9 -36.4,113.48 -11.55,-2.43 -69.15,90.3 66.36,-7.46 57.55,3.09 87.03,-40.12l40.37 -78.42c81.75,0.8 164.77,-16.08 226.56,28.24 -39.98,115.1 -14.41,-6.48 -70.95,91.5 136.7,-19.4 58.04,-42.25 128.34,-119.15 80.72,-1.55 165.67,-15.83 225.52,27.64 -39.86,108.01 -18.09,0.1 -70.94,91.81 119.66,-17.64 68.96,-47.2 129.37,-119.51l225.8 -0.73c-24.55,126.81 -21.96,30.65 -70.58,120.63 93.27,-13.82 59.72,-2.4 129.14,-121.86l96.5 15.25 2.31 185.04 -1278.68 -4.5 0.55 -175.32zm96.43 1393.76c242.91,25.04 564.64,8.06 816.28,8.52 243.5,0.44 595.17,68.57 592.25,-226.56l-180.12 -0.91 -9.03 -1187.19c-46.72,-57.27 -73.78,-41.35 -159.39,-43.36 -12.89,-56.98 -46.02,-121.28 -124.73,-84.76 -87.94,40.81 -18.16,119.28 -129.21,80.74 -62.41,-21.66 -42.29,-111.78 -142.13,-83.82 -88.28,24.72 -32.94,99.38 -129.08,86.81 -81.89,-10.7 -36.52,-98.79 -141.29,-86.76 -89.52,10.28 -46.68,83.1 -129.45,88.71 -115.57,7.83 -13.18,-84.89 -141.62,-89.64 -67.31,-2.48 -73.91,36.78 -104.82,88.75 -215.43,9.27 -155.26,82.46 -154.7,295.4l-1.5 887.43c1.07,171.08 31.73,195.89 138.54,266.62z"/>
  <path class="fil0" d="M357.14 1047.8l135.85 0.57 -2.54 128.76 -123.16 3.41 -10.15 -132.74zm-171.35 3.92l133.8 -6.46 -2.1 135.08 -125.12 -1.16 -6.58 -127.46zm346.82 -5.23l128.84 2.28 -0.35 125.43 -123.28 1.69 -5.21 -129.4zm521.42 -180.68l132.72 9.74 -3.59 127.83 -125.58 -2 -3.56 -135.57zm-175.24 2.44l134.06 4.39 -5.37 132.01 -124.42 -5.66 -4.28 -130.74zm-172.55 -4.79l133.34 6.85 -5.63 134.85 -123.43 0.53 -4.28 -142.23zm-345.31 1.45l131.3 12.58 -2.35 125.69 -126.06 -0.59 -2.9 -137.69zm174.93 2.67l125.04 5.96 -1.13 124.13 -123.74 -0.28 -0.17 -129.82zm-348.3 -0.3l132.31 5.71 -4.89 131.92 -123.67 -11.72 -3.75 -125.9zm866.43 -178.25l131.91 8.85 -4.75 128.4 -124.13 -1.69 -3.03 -135.56zm-346.16 -1.44l130.52 6.63 -6.31 132.17 -120.59 1.41 -3.62 -140.21zm-174.28 -0.91l132.71 15.37 -2.8 122.72 -126.31 2.31 -3.59 -140.41zm-171.58 3.06l130.04 10.41 -4.3 124.9 -123.63 -0.1 -2.11 -135.2zm519.26 2.3l131.19 4.78 -4.72 129.65c-60.79,1.1 -72.35,9.62 -114.63,-13.49 -22.41,-42.81 -14.55,-56.83 -11.84,-120.95zm-693.73 -0.27l131.7 3.35 -4.07 132.89 -123.75 -13.37 -3.87 -122.87zm865.56 -180.26l132.64 9.69 -1.48 128.4 -128 -3.09 -3.15 -134.99zm-173.39 2.23l132.61 4.7 -3.3 131.43 -126.27 -5.32 -3.04 -130.8zm-173.2 -3.7l132.09 6 -3.94 133.19 -124.03 1.33 -4.11 -140.53zm-169.93 4.16l124.06 4.02 0.66 126.1 -125.81 -0.33 1.1 -129.78zm-43.11 133.71l-342.68 7.35 -0.7 560.47 553.35 6.23 5.02 -175.93 513.51 -1.61 4.93 -563.84 -728.3 -5.54 -5.14 172.87z"/>
  <polygon class="fil0" points="1057.59,1001.38 1183.17,1003.38 1186.75,875.55 1054.03,865.81 "/>
  <polygon class="fil0" points="1057.02,824.59 1181.15,826.28 1185.9,697.87 1053.99,689.03 "/>
 </g>
</svg>
