<?xml version="1.0" encoding="UTF-8"?>
<!DOCTYPE svg PUBLIC "-//W3C//DTD SVG 1.1//EN" "http://www.w3.org/Graphics/SVG/1.1/DTD/svg11.dtd">
<!-- Creator: CorelDRAW -->
<svg xmlns="http://www.w3.org/2000/svg" xml:space="preserve" width="100%" height="100%" version="1.1" style="shape-rendering:geometricPrecision; text-rendering:geometricPrecision; image-rendering:optimizeQuality; fill-rule:evenodd; clip-rule:evenodd"
viewBox="0 0 1825.73 1900.87"
 xmlns:xlink="http://www.w3.org/1999/xlink"
 xmlns:xodm="http://www.corel.com/coreldraw/odm/2003">
 <defs>
  <style type="text/css">
   <![CDATA[
    .fil0 {fill:#003399}
   ]]>
  </style>
 </defs>
 <g id="Layer_x0020_1">
  <metadata id="CorelCorpID_0Corel-Layer"/>
  <path class="fil0" d="M1405.29 892.42l205.92 -0.55c1.8,122.63 15.23,525.15 -13.28,609.02 -52.46,18.96 -127.94,14.22 -193.25,14.22l0.61 -622.7zm-1189.61 2.41l205.2 -1.73 1.15 622.02c-65.63,0 -141.67,5 -193.59,-15.13 -27.67,-83.27 -15.7,-484.97 -12.75,-605.17zm-0.9 -147.56c0,-85.66 17.85,-93.44 102.59,-93.44l1282.44 14.37c15.22,53.76 14.81,128.2 11.63,193.5 -418.29,-1.97 -1000.79,8.45 -1395.41,-2.51l-1.26 -111.92zm239.07 145.04l205.27 -0.55 -0.63 257.64c4.5,60.74 -6.33,32.39 22.35,50.85 29.18,-64.92 9.73,-225.18 10.83,-308.09l205.24 -0.4 0.12 194.22c8.93,58.64 -8.13,20.21 21.93,39.35 25.5,-59.16 9.64,-162.31 10.57,-233.36l205.27 -0.21 -0.65 257.7c4.8,62.59 -6.02,33.06 22.94,50.68 28.57,-66.64 9.15,-225.3 10.3,-308.38l205.85 0 0.07 623.35c-59.87,1.65 -36.57,-8.54 -54.37,21.54 45.85,20.06 180.44,16.32 237.93,8.66 82.35,-10.97 86.39,-73.5 85.93,-158.69 -4.24,-786.54 77.5,-766.62 -235.05,-766.39l-1002.65 -0.01c-262.61,-0.41 -223.86,26.87 -223.47,277.39 0.26,167.24 0.2,334.48 -0.22,501.71 -0.23,89.67 12.59,140 97.86,148.69 65.99,6.72 172.4,12.24 228.13,-11.37 -18.19,-29.69 -4.53,-0.9 -54.09,-37.59l0.54 -606.75z"/>
  <path class="fil0" d="M1419.65 108.24c0,-32.78 6.51,-50.93 17.38,-70.13 67.75,-12.98 70.28,7.43 70.28,70.13 0,74.29 10.59,180.7 -14.26,239.01l-59.28 -2.54c-17.26,-49.39 -14.13,-170.28 -14.13,-236.47zm-536.28 235.69c-19.91,-54.19 -11.94,-124.59 -13.79,-185.91 -2.23,-73.85 -18.32,-136.34 70.25,-120.06 30.28,54.47 25.17,246 2.94,309.97l-59.41 -4.01zm-564.09 -235.69c0,-65.11 1.1,-83.42 70.01,-70.88 32.87,57.76 19.22,263.63 3.39,308.3 -63.4,7.99 -69.63,3.61 -72.43,-61.33l-0.97 -176.1zm-111.28 395.85c-10.28,-36.11 50.83,-30.22 -171.31,-30.22 0,-193.15 11.31,-309.53 248.67,-259.2 3.06,69.94 -15.74,175.04 81.78,170.52 87.02,-4.03 68.45,-103.47 74.19,-176.37l394.27 1.1c2.78,75.98 -15.79,181.65 82.76,175.13 86.07,-5.69 67.56,-103.15 73.55,-176.23l393.31 -0.38c5.97,73.19 -12.41,170.65 73.31,176.12 98.8,6.3 79.72,-98.53 82.63,-169.15 69.34,-17.29 159.66,-12.43 205.02,30.45 57.33,54.2 43.33,140.81 43.33,228.02l-1183.89 -0.03c-27.35,-0.11 -63.48,-2.3 -89.43,-1.19 -49.37,2.1 -49.95,-10.51 -57.13,22.96 31.74,17.35 1278.1,24.22 1351,4.38l6.96 -19.12c14.28,-61.59 -4.36,48.13 4.19,-21.69l0.19 -113.46c-8.63,-176.78 -145.71,-169.13 -282.23,-169.13 0,-85.25 13.24,-180.79 -79.84,-176.39 -86.75,4.09 -70.99,93.84 -70.99,176.47l-399.44 -0.08c0,-85.06 13.5,-182.64 -80.81,-176.28 -85.14,5.73 -70.36,93.78 -70.57,176.28l-399.17 0c0,-74.44 0.59,-102.6 -16.56,-160.52 -159.33,-53.25 -120.61,59.13 -138.92,157.67 -181.8,19.32 -288.31,-17.26 -278.61,261.12l11.96 69.71 191.78 -0.46z"/>
  <path class="fil0" d="M851.97 1199.08c197.02,-45.77 355.04,99.1 391.61,251.06 50.91,211.53 -96.93,378.41 -260.59,413.47 -418.94,89.75 -600.85,-555.38 -131.02,-664.53zm422.01 425.28c121.77,-479.17 -599.35,-660.37 -721,-189.81 -126.05,487.6 601.71,659.21 721,189.81z"/>
  <path class="fil0" d="M1291.34 1674.48c23.69,32.49 38.1,21.51 90.73,20.83 156.22,-2.01 389.01,35.67 432.79,-102.13 15.72,-49.49 14.95,-1022.61 -6.04,-1056.34 -39.41,24.81 -19.87,326.94 -19.43,385.84 1.03,137.73 0.23,275.73 0.23,413.49 0,146.63 35.54,288.98 -97.02,321.62 -118.86,29.28 -299.56,-27.39 -401.27,16.69z"/>
  <path class="fil0" d="M16.58 537.2c-17.41,30.79 -25.54,1008.98 -1.96,1063.44 52.11,120.32 222.49,94.11 327.82,94.13 101.82,0.01 164.3,17.07 192.64,-20.28 -103.91,-43.79 -282.14,13.92 -402.06,-17.03 -131.37,-33.9 -96.6,-175.18 -96.6,-321.28 0,-137.83 0,-275.66 0,-413.49 0,-55.69 20.13,-362.88 -19.85,-385.48z"/>
  <path class="fil0" d="M881.37 1673.07c-46.82,-12.21 -159.52,-120.18 -155.68,-165.21 60.42,-33.17 55.49,28.22 143.15,87.61 61.38,-17.13 82.22,-71.16 123.11,-111.24 19.21,-18.83 32.97,-27.75 57.78,-55.15 30.1,-33.24 25.57,-47.07 73.17,-34.13 15.48,37.63 -3.46,49.02 -31.27,76.28l-210.25 201.83zm-3.48 -117.81c-36.83,-23.19 -80.5,-89.49 -123.2,-93.21 -32.06,-2.78 -119.94,30.57 -16.21,129.87 21.31,20.39 91.65,101.61 115.01,110.37 58.99,22.09 169.03,-123.76 245.65,-198.61 24.27,-23.71 112.6,-96.49 39.2,-138.53 -60.19,-34.48 -115.17,47.06 -141.76,73.51 -40.99,40.76 -77.45,80.59 -118.69,116.61z"/>
  <path class="fil0" d="M280.22 498.77c22.04,7.09 94.34,19.54 105.28,-5.8l-5.44 -18.11 -75.22 -1c-41.26,10.12 -15.15,-11.11 -24.63,24.91z"/>
 </g>
</svg>
