<?xml version="1.0" encoding="UTF-8"?>
<!DOCTYPE svg PUBLIC "-//W3C//DTD SVG 1.1//EN" "http://www.w3.org/Graphics/SVG/1.1/DTD/svg11.dtd">
<!-- Creator: CorelDRAW -->
<svg xmlns="http://www.w3.org/2000/svg" xml:space="preserve" width="100%" height="100%" version="1.1" style="shape-rendering:geometricPrecision; text-rendering:geometricPrecision; image-rendering:optimizeQuality; fill-rule:evenodd; clip-rule:evenodd"
viewBox="0 0 1393.94 1059.55"
 xmlns:xlink="http://www.w3.org/1999/xlink"
 xmlns:xodm="http://www.corel.com/coreldraw/odm/2003">
 <defs>
  <style type="text/css">
   <![CDATA[
    .fil0 {fill:#003399}
   ]]>
  </style>
 </defs>
 <g id="Layer_x0020_1">
  <metadata id="CorelCorpID_0Corel-Layer"/>
  <path class="fil0" d="M965.59 715.71c-3.44,9.32 -28.91,15.26 -38.16,18.69 -13.89,5.16 -28.5,10.8 -42.57,15.92 -140.45,51.08 -282.87,107.43 -423.58,158.9 -34.79,12.72 -147.64,57.57 -171.27,63.71 -11.33,-9.23 -12.7,-19.58 -43.63,-35.54 -26.61,-13.73 -46.64,-8.46 -64.41,-15.88l-48.77 -126.79c-10.39,-27.6 -44.27,-106.6 -45.63,-132.59 13.63,-7.25 27.34,-22.96 34.85,-40.67 8.94,-21.08 8.09,-39.65 13.39,-61.49 11.77,-9.39 98.57,-39.12 120.93,-47.96 200.04,-79.12 413.91,-155.76 616.52,-231.52 93.35,-34.91 46.81,-11.24 111.59,18.24 42.59,19.38 46.13,-7.83 61.15,24.51 8.69,18.71 17.79,42.8 21.72,64.69 10.76,-2.9 25.77,-7.04 33.4,-13.17l-69.23 -188.2 -1017.2 380.12c3.11,17.04 13.91,43.48 20.2,60.76l66.03 180.1c28.09,76.84 65.19,166.11 90.44,238.05 35.91,-5.28 617.15,-231.56 695.58,-261.5 31.94,-12.19 66.7,-27.46 98,-37.99 -4.69,-10.24 -13.15,-21.38 -19.34,-30.4z"/>
  <path class="fil0" d="M953.81 540.48c0,-0.04 6.95,-10.29 8.92,-16.96 7.54,-25.5 5.57,-27.56 25.8,-54.63 52.63,-70.43 142.19,-105.05 232.73,-82.28 98.83,24.85 189.22,136.35 152.87,270.5 -26.7,98.56 -134.02,185.96 -269.26,150.5 -120.91,-31.7 -178.32,-176.31 -156.23,-246.9 1.13,-3.61 3.25,-7.98 4.2,-10.75 2.67,-7.83 0.77,-8.41 0.96,-9.49zm440.13 38.25l0 27.36c-0.61,11.62 -1.92,24.06 -3.81,37.8 -5.62,40.89 -0.19,11.15 -13.62,44.87 -9.4,23.59 -27.97,55.92 -46.61,72.8 -82.82,74.99 -217.6,91.8 -300.76,24.33 -12.19,-9.89 -20.11,-14.47 -27.54,-28.51 -6.9,3.31 -19.26,5.21 -28.35,8.2 -76.3,25.06 -155.49,57.04 -230.24,84.12 -133.33,48.32 -268.74,104.7 -404.56,153.5l-101.33 37.57c-15.73,6.18 -36.15,11.75 -49.45,18.79 -4.83,-9.13 -8.61,-20.3 -12.89,-30.98l-84.24 -217.94c-4.18,-10.33 -88.86,-233.19 -90.52,-253.09 15.98,-1.33 51.62,-16.81 67.93,-22.23 50.8,-16.86 136.81,-52.47 192.45,-73.18l194.96 -73.11c20.52,-7.64 42.29,-16.67 63.44,-24.29 86.16,-31.05 172.77,-65.7 258.89,-96.91 33.3,-12.07 235.19,-93.22 260.47,-95.32l56.76 150.38c6.45,16.49 11.71,34.71 18.78,49.45 40.87,-3.4 74.25,-9.14 111.85,2.69 59.54,18.73 110.43,53.66 139.2,109.37 18.67,36.17 27.35,63.56 29.2,94.34zm-326.23 -190.8c-26.15,17.63 -41.35,19.63 -70.23,51 -41.93,45.54 -72.25,115.2 -62.36,182.68 6.79,46.35 20.26,61.85 30.47,94.09 6.19,9.02 14.65,20.16 19.34,30.4 -31.3,10.54 -66.06,25.8 -98,37.99 -78.43,29.94 -659.67,256.22 -695.58,261.5 -25.24,-71.94 -62.35,-161.2 -90.44,-238.05l-66.03 -180.1c-6.3,-17.28 -17.09,-43.73 -20.2,-60.76l1017.2 -380.12 69.23 188.2c-7.63,6.13 -22.65,10.27 -33.4,13.17z"/>
  <path class="fil0" d="M1149.51 519.62c6.04,-13.09 21.95,-22.64 34.68,-29.58 -3.52,-7.61 -14.18,-20.82 -19.86,-26.72 -24.21,13.64 -121.22,85.83 -128.47,101.53 4.67,8.13 10.98,15.55 19.34,20.68 19.68,-7.24 43.9,-42.29 68.24,-30.67 0.61,2.55 5.37,-1.67 -3.48,6.16l-52.39 40.38c3.39,10.63 9.39,16.44 14.61,26.61 25.55,-7.16 50.12,-43.25 72.26,-45.46 0.84,33.35 -14.06,38.21 -40.35,60.58 9.49,36.44 40.05,34.7 77.43,43.74 11.32,2.74 39,11.51 49.88,8.15 4.16,-1.28 29.52,-21.54 32.52,-25.06 -14.7,-10.75 -74.88,-22.26 -97.65,-28.99 8.32,-24.04 22.93,-27.79 16.99,-63.01 -5.33,-31.61 -10.73,-22.9 20.44,-49.23 -2.31,-9.77 -8.73,-18.7 -14.71,-24.86 -28.48,7.19 -19.02,26.16 -49.47,15.73z"/>
  <path class="fil0" d="M429.56 628.21c-7.86,-107.41 72.27,-186.67 168.68,-195.97 107.45,-10.37 186.71,74.05 195.47,169.26 9.71,105.49 -74.44,187.64 -168.34,195.91 -106.17,9.34 -188.78,-73.09 -195.81,-169.2zm166.71 -208.56c-114.77,15.99 -187.9,100.8 -179.91,211.09 7.33,101.21 98.79,190.48 212.15,179.59 101.17,-9.73 187.21,-96.87 177.85,-211.3 -8.75,-107 -110.6,-193.24 -210.08,-179.39z"/>
  <path class="fil0" d="M1010.12 559.98l7.52 -17.87c8.22,-11.94 9.48,-19.54 19.57,-31.83 20.48,-24.96 57.41,-57.35 90.69,-65.18 31.69,-7.45 38.98,-2.58 69.04,1.96 88.91,13.42 140.19,103.41 120.3,187.26 -30.66,129.22 -203.96,164.81 -283.08,53.96 -25.18,-35.28 -27.74,-79.27 -24.03,-128.29zm130.38 -127.68c-42.57,7.83 -83.96,26.41 -109.22,59.89 -98.79,130.88 17.36,296.11 155.83,275.57 87.89,-13.04 161.34,-88.8 145.12,-192.27 -12.54,-80.01 -92.2,-161.49 -191.73,-143.19z"/>
  <path class="fil0" d="M606.03 554.04c28.56,-10.73 26.33,-14.17 29.29,-27.6 -13.67,-0.08 -50.17,15.91 -63.22,20.83 -35.94,13.58 -47.81,10.73 -51.22,34.61 30.11,-4.05 28.76,-16.47 66.23,-7.04 -19.91,27.42 -50.33,7.54 -52.92,43.85l67.21 -21.67c-0.72,50.26 -26.58,34.82 -48.62,55.55 5.42,22.82 34.42,29.87 55.84,42.06 22.08,12.56 38.51,30.33 66.3,14.13 -15.87,-16.49 -77.98,-41.57 -87.33,-56.19 14.92,-20.22 36.26,-14.01 37.83,-69.08 17.56,-3.63 20.9,-3.37 22.15,-22.88 -20.46,3.7 -30.33,17.16 -41.56,-6.58z"/>
  <path class="fil0" d="M927.55 23.06c5.3,22.39 61.02,-22.37 146.06,12.91 41.05,17.03 77.78,41 103.71,79.16 8.62,12.68 17.05,27.9 23.76,43.89 10.38,24.72 7.28,38.17 25.78,42.97 8.49,-11.82 5.29,-15.59 0.85,-34.34 -10.03,-42.36 -44.52,-85.96 -75.11,-111.36 -12.18,-10.11 -21.33,-15.66 -34.61,-23.96 -47.38,-29.62 -121.42,-39.98 -178.35,-26.51 -9.04,2.14 -14.27,8.02 -12.09,17.24z"/>
  <path class="fil0" d="M941.83 68.2c0.12,33.81 17.3,7.01 77.2,13.82 57.91,6.58 111.1,49.81 130.65,106.13 7.52,21.67 1.04,26.8 22.74,26.72 15.3,-40.96 -37.96,-97.67 -67.48,-121.38 -15.78,-12.67 -40.94,-23.81 -60.83,-28.57 -34.7,-8.31 -49.7,-10.97 -87.36,-2.06 -8.54,2.02 -7.26,3.32 -14.91,5.33z"/>
  <path class="fil0" d="M957.54 134.56c3.15,13.3 81.71,-22.37 127.77,47.23 9.27,14.02 12.65,36.28 22.44,48.39l15.31 -3.62c-1.14,-7.58 0.84,-11.65 -1.03,-19.52 -7.48,-31.63 -35.35,-60.5 -55.38,-72.71 -36.32,-22.14 -62.27,-25.23 -103.84,-15.39 -6.07,1.44 -6.69,9.69 -5.28,15.63z"/>
 </g>
</svg>
