<?xml version="1.0" encoding="UTF-8"?>
<!DOCTYPE svg PUBLIC "-//W3C//DTD SVG 1.1//EN" "http://www.w3.org/Graphics/SVG/1.1/DTD/svg11.dtd">
<!-- Creator: CorelDRAW -->
<svg xmlns="http://www.w3.org/2000/svg" xml:space="preserve" width="100%" height="100%" version="1.1" style="shape-rendering:geometricPrecision; text-rendering:geometricPrecision; image-rendering:optimizeQuality; fill-rule:evenodd; clip-rule:evenodd"
viewBox="0 0 7011.44 4267.93"
 xmlns:xlink="http://www.w3.org/1999/xlink"
 xmlns:xodm="http://www.corel.com/coreldraw/odm/2003">
 <defs>
  <style type="text/css">
   <![CDATA[
    .fil0 {fill:#003399}
   ]]>
  </style>
 </defs>
 <g id="Layer_x0020_1">
  <metadata id="CorelCorpID_0Corel-Layer"/>
  <path class="fil0" d="M3461.83 3886.14l96.92 1.83c-27.26,40.92 -58.94,60.91 -96.92,-1.83zm-134.81 -41.18c21.5,-42.74 20.72,-23.57 178.88,-23.57 111.62,0 160.8,-16.03 184.48,23.57 -47.67,28.52 -324.33,28.19 -363.37,0zm361.12 -48.31l-57.25 -0.78 -222.19 0.05 -79.69 -2.46c36.33,-223.15 329.55,-221.64 359.13,3.2zm-229.89 -201.66c14.39,-34.6 -41.54,-27.96 47.13,-35.96 76.47,-6.9 48.26,14 55.71,35.96 -35.66,16.06 -69.24,10.61 -102.83,0zm580.85 -83.32c47.41,-31.65 25.6,-15.87 39.27,13.89 -6.59,3.09 14.6,26.72 -25.36,6.78 -45.11,-22.52 43.13,39.92 -13.91,-20.67zm-63.9 13.89c13.47,-29.72 -8.05,-45.56 39.02,-13.89 -9.4,25.76 15.33,14.24 -13.83,20.68 -53.3,11.78 -0.48,4.87 -25.19,-6.79zm-130.24 -13.89c49.85,-34.73 26.4,-15.63 40.24,13.89 -10.35,4.85 18.13,28.92 -26.3,7.06 -51.65,-25.42 37.54,35.26 -13.94,-20.94zm-63.31 13.89c13.25,-30.6 -7.86,-44.91 38.65,-13.89 -9.72,25.93 15.39,14.13 -14,20.69 -25.35,5.67 -12.63,-0.95 -24.65,-6.8zm-450.8 -286.16l359 -1.13 1.06 300.01 -363.87 -1.87 3.81 -297.01zm-131.59 286.16c13.39,-32.68 -6,-43.37 38.95,-13.89 -10.8,26.74 15.01,14.43 -14.74,20.98 -51.26,11.27 -0.93,4.84 -24.21,-7.09zm-54.43 -26.94c37.43,8.47 15.69,-6.6 27.65,26.94 -3.61,1.96 -9.12,29.79 -31.57,4.27 -25.9,-29.43 3.89,-31.17 3.93,-31.21zm-139.56 26.94c15.2,-39.06 -29.9,-23.93 39.23,-25.28 -2.43,18.86 8.68,17.6 -8.29,29.57 -42.08,29.68 -28.73,-3.11 -30.94,-4.29zm-66.02 -25.96c71.11,2.44 23.41,-14.09 39.48,25.96 -1.52,0.81 8.11,27.52 -24.88,8.3 -24.63,-14.35 -7.06,7.48 -14.59,-34.26zm1099.47 -57.36c47.1,-26.34 24.67,-14.13 43.93,13.89 -14.23,8.81 23.54,37.67 -29.86,11.37 -46.7,-23 4.85,2.76 -14.07,-25.26zm-38.07 25.38c-53.72,26.47 -15.8,-2.74 -29.76,-11.49 17.68,-12.76 -11.07,-43.9 43.93,-13.89 -8.57,32.86 15.17,10.92 -14.17,25.38zm-155.67 -25.38c49.19,-27.63 25.08,-13.09 43.66,13.89 -14.33,8.71 24.02,37.61 -29.71,11.08 -44.78,-22.11 4.33,2.47 -13.95,-24.97zm-25.53 -8.02c-0.13,56.3 12.85,30.54 -42.01,41.62 11.54,-57.91 -17.35,-42.6 42.01,-41.62zm-624.02 41.34c3.69,-20.44 2.73,-72.11 37.41,-37.48 35.36,35.3 -15.37,33.64 -37.41,37.48zm-28.08 -20.54l-8.61 16.94c-50.56,-18.48 -41.76,-22.62 0,-39.07 10.31,15.04 6.42,-5.23 8.61,22.13zm-124.95 -7.85c15.31,40.83 -7.76,18.05 -22.54,25.85 -16.17,-17.31 -19.54,31.19 -11.96,-41.57 40.03,6.44 25.66,-7.87 34.5,15.72zm-69.98 -2.29c21.29,41.22 -4.62,21.1 -8.11,27.07 -21.28,-8 -58.33,-22.95 -9.93,-36.13 35.82,-9.76 13.04,-0.62 18.04,9.06zm1110.35 -80.11c-12.42,51.22 12.83,42.2 -41.27,42.13 2.63,-57.56 -28.04,-26.66 41.27,-42.13zm-90.81 -0.14c29.59,22.24 25.77,-22.52 20.06,42.4 -49.62,1.5 -22.1,10.62 -31.93,-11.67 -25.66,-58.2 1.12,-13.42 11.87,-30.73zm-69.44 3.31c28.01,13.59 49.09,-11.1 13.89,40.25 -27.98,-6.23 -10.3,8.64 -21.41,-13.69 -22.76,-45.72 2.45,-16.19 7.53,-26.57zm-33.85 -3.72c-12.39,50.94 13.01,43.47 -41.29,42.13 2.97,-55.46 -21.22,-26.33 41.29,-42.13zm-91.13 0.35c26.23,19.34 39.97,-4.28 13.89,43.72 -30.15,-4.97 -12.65,10.97 -24.89,-13.85 -26.75,-54.24 2.24,-15.26 11,-29.87zm-55.55 0.17c1.54,2.94 47.57,-15.17 0,44.54 -24.83,-6.11 -25.41,13.76 -23.98,-22.9 1.69,-43.29 -6.15,-5.16 23.98,-21.63zm-527.71 -0.02c27.07,18.37 42.76,-5.84 13.89,43.75 -29.42,-5.37 -12.4,10.46 -24.37,-14.09 -26.31,-53.96 2.13,-15.26 10.48,-29.66zm-55.55 0.14c1.13,2.09 47.19,-13.3 0,44.87 -25.63,-7.1 -24.78,12.28 -23.36,-23.2 1.81,-45.46 -9.74,-2.55 23.36,-21.67zm894.25 -26.46c-29.84,-6.45 -4.67,4.97 -13.63,-21.14 47.64,-32.02 25.54,-15.42 39.11,13.89 -12.26,6.06 0.33,12.84 -25.48,7.26zm-52.53 0.14c-40.56,20.45 -19.5,-4.41 -25.46,-7.39 12.19,-11.56 -16.27,-50.51 39.33,-13.89 -10.38,29.65 11.46,8.5 -13.88,21.28zm-140.83 1.19c-27.44,-2.03 -7.39,-2.5 -14.01,-22.46 41.93,-28.28 29.1,-5.06 38.88,0 -14.85,30.81 23.92,26.07 -24.87,22.46zm-52.77 -0.45c-37.35,20.14 -21.6,-6.13 -25.45,-8.13 19.03,-18.76 -40.7,-26.83 38.87,-23.28 -4.38,38.67 7.71,20.02 -13.42,31.41zm-581.02 -0.96c-37.86,21.02 -23.47,-5.28 -26.99,-7.16 26.43,-27.34 -28.95,-11.08 18.89,-22.89 34.43,-8.5 14.1,-0.93 17.43,11.37 9.56,35.31 -0.99,14.04 -9.33,18.68zm-67.09 -34.92c15.19,22.45 13.79,-33.59 14.55,41.46 -50.69,-6.6 -28.22,6.43 -37.8,-16.82 -13.79,-33.49 8.31,-17.54 23.26,-24.63zm-138.87 0.15c57.69,28.3 33.8,33.31 -14.71,41.25l8 -33.89c0.42,-4.76 4.64,-4.76 6.71,-7.36zm-59.55 4.43c38.02,3.05 6.54,-6.24 18.73,23.18 -10.92,6.19 19.85,25.53 -26.81,7.54 -9.41,-3.63 -19.16,17.46 -9.51,-19.08 4.96,-18.79 -16.28,-14.35 17.59,-11.64zm1122.78 -25.3c-71.88,-14.08 -34.74,9.5 -44.52,-34.85 54.33,-27.42 34.77,-9.04 44.52,34.85zm-70.07 -41.71c0.96,56.22 11.33,30.24 -42.13,41.4 11.06,-54.62 -15.15,-43.27 42.13,-41.4zm-166.41 0.58c59.83,-3.67 29.44,-17.96 42.2,41.12 -52.46,-11.15 -42.85,11.85 -42.2,-41.12zm-27.78 -0.93c1.29,56.66 12.81,30.35 -41.44,41.78 11.15,-56.39 -15.71,-42.93 41.44,-41.78zm-595.12 -0.4c57.64,15.5 2.5,34.64 -9.43,42.14 -18.06,-19.87 -28.77,30.27 -10.66,-31.78 4.26,-14.6 -18.01,-20.61 20.09,-10.35zm-64.98 -1.74c12.48,17.63 16.83,11.98 0,41.1 -49.82,-20.11 -42.8,-23.81 0,-41.1zm-116.1 22.52c-1.78,41.98 5.28,4.56 -22.78,21.34 -15.36,-18.09 -17.92,-23.45 0,-45.37 23.76,10.44 24.41,-14.33 22.78,24.02zm-66.96 -22.99c0.19,73.97 18.68,23.27 -25.25,40.48 -1.92,-2.59 -32.44,10.04 -3.45,-32.2 11.67,-17 9.11,-5.41 28.7,-8.28zm558.01 -24.86c-158.86,2.21 -121.27,7.99 -140.73,-20.87 32.31,-23.98 -4.7,-16.79 99.07,-16.85 167.09,-0.11 124.54,-3.67 133.14,35.19l-91.48 2.54zm27.71 -76.42c-32.72,19.48 -72.19,22.1 -103.86,0 10.13,-12.6 -26.51,-28.09 48.31,-29.91 80.09,-1.94 45.34,4.58 55.55,29.91zm-637.73 414.4c27.86,15.51 114.58,24.28 136.14,0.89 33.15,-35.96 -19.42,-70.22 29.49,-119.38 33.78,35.23 11.15,-0.43 17.94,52.52 9.79,76.34 -15.22,80.81 79.29,80.43 150.83,-0.61 28.13,-64.09 97.2,-132.97 34,36.68 12.4,10.33 17.8,65.85 8.56,87.91 -8.66,51.25 130.98,68.44 -4.85,116.85 -147.8,50.73 -127.99,316.8l118.08 2.7c87,91.49 72.6,55.79 73.64,120.96 44,-8.74 1.24,9.3 23.64,-24.85l63.73 -95.75 130.33 -0.49c3.57,-76.44 6.5,-132.87 -29.69,-192.1 -48.24,-78.96 -86.77,-33.07 -97.18,-113.07 34.42,-27.17 70.48,-18.28 122.15,-19.11 10.54,-52.65 -3.01,-94.12 18.89,-128.67 59.14,19.77 7.99,-14.8 33.47,128.95l141.72 -0.4c26.24,-138.21 -26.03,-108.16 33.12,-128.74 23.62,34.91 9.19,74.53 19.26,129.37l146.76 -0.89 1.54 -347.54 -155.03 0.12c0.37,21.67 2.77,55.28 1.26,76.01 -1.53,21.06 -2.34,18.49 -6.05,35.13 -0.53,2.39 -3.24,11.56 -3.68,9.74 -0.43,-1.78 -2.28,6.43 -4.06,9.32 -38.8,-16.34 -21.21,26.5 -28.49,-53.25 -1.3,-14.2 2.19,-60.33 2.58,-77.41l-155.09 1.49 0.17 128.87c-63.8,-8.02 -39.68,-29.2 -39.76,-110.17 -3,-2.59 -8.2,-4.12 -10.61,-5.39 -77.44,-40.92 -31.52,-24.7 -70.71,-64.51 -59.96,-60.9 -18.51,26.44 -54.76,-80.28 -213.42,0.85 -116.09,-0.51 -153.96,44.08l-62.07 60.17c-53.82,66.13 -61.54,-41.28 -61.47,156.36 -61.02,-17 -27.67,33.38 -40.85,-53.54 -0.14,-0.89 2.13,-57 2.11,-65.16 -48.3,-18.24 -105.19,-17.11 -155.17,-1.89 0.63,135 3.31,109.02 -38.22,120.7l-8.74 -130.81 -147.27 10.69c0.72,92.77 -24.19,254.46 9.56,326.77z"/>
  <path class="fil0" d="M4380.79 3952.02l1084.79 1.24c-20.06,43.35 -31.63,34.5 -84.91,34.5l-999.87 -0.01c-69.3,-0.11 -69.46,6.22 -84.3,-42.05l84.3 6.31zm584.7 -51.5c27.91,-37.52 297.01,-16.02 401.46,-17.3 78.57,-0.96 96.86,-22.94 107.77,35.8l-456.23 1.42c-93.06,-6.62 -23.47,6.95 -53,-19.93zm-136.24 0c19.8,-28.15 84.77,-27.77 104.51,0 -13.79,12.74 26.49,21.59 -53.08,20.82 -75.39,-0.72 -38.39,-8.21 -51.43,-20.82zm-404.3 -761.87l414.17 0.98c17.67,0.22 114.02,2.96 121.05,-11.72 2.38,-4.96 8.12,-2.88 11.81,-5.07l-578.49 -12.2 -6.05 737.45 -117.75 6.51c-60.55,157.43 55.29,165.68 180.47,164.7 217.26,-1.7 919.33,18.03 1032.61,-17.73 22.68,-45.5 22.89,-82.67 23.71,-149.82l-130.69 -2.76c-23.31,-114.67 11.9,-369.31 -12.93,-456.94l-9.97 -19.94c-54.51,90.78 5.28,353.39 -19.98,476.33l-906.75 1.02 -1.21 -710.81z"/>
  <path class="fil0" d="M5599.19 1437.21l-6.05 35.8c-0.9,0.48 9.41,31.84 -40.79,8.89 -29.72,-13.59 -14.04,-19.92 -17.03,-39.42 59.01,-47.09 53.5,-9.61 63.87,-5.27zm-750.53 -1411.22c3.42,1.76 8.82,-0.35 10.83,3.97 2.04,4.38 8.23,3.01 11.13,3.59l273.96 5.34c252.25,0 1476.14,-12.54 1579.59,5.61 188.47,33.06 257.5,177.07 257.5,384.22l0.01 652.7c0.11,226.72 -114.48,359.08 -337.29,361.19l-996.77 -2.92c-72,-19.52 -6.72,-49.21 -116.16,-38.01 -35.52,56.26 -32.87,56.11 4.32,107.14 143.51,14 -42.07,-42.01 247.57,-40.84 245.87,0.99 707.7,-13.13 903.19,1.09 393.03,28.59 295.12,526.85 295.12,917.74 0,126.28 15.24,491.06 -11.39,590.45 -98.44,367.36 -659.96,275.52 -619.87,-118.33 26.06,-255.97 277.41,-268.49 323.39,-291.59l-100 -2.16c-277.83,76.02 -317.02,420.98 -145.8,579.5 157.22,145.57 578.29,153.73 578.29,-313.49l0 -958.21c0,-261.91 -53.47,-313.92 -233.16,-416.61 63.26,-52.14 180.23,-76.65 222.43,-245.8 23.9,-95.8 10.73,-362.76 10.73,-476.34 0,-327.35 47.86,-622.94 -252.55,-708.51 -110.43,-31.45 -1442.63,-9.72 -1790.02,-13.18 -41.68,-0.41 -81.3,-4.11 -115.06,13.44z"/>
  <path class="fil0" d="M3148 2500.73c70.09,2.13 22.94,-17.22 39.66,24.95 -2.37,1.27 10.78,33.76 -31.48,4.54 -16.22,-11.22 -5.98,-11.74 -8.18,-29.49zm35.17 -56.01c26,54.73 -2.61,18.87 -10.56,31.52 -19.68,-9.33 -64.79,-27.07 -9.71,-41.91 40.99,-11.04 14.44,-1.87 20.27,10.39zm-0.03 -49.99c-6.23,37.34 2.31,6.71 -24.41,14.24 -38.88,-45.51 -6.47,-31.13 13.89,-44.31 9.96,17.37 16.15,-3.55 10.53,30.07zm697.72 -156.87c18.85,20.16 14.1,-12.8 20.16,50.54 1.07,11.21 -1.06,43.68 -1.1,57.29 -42.22,-8.93 -43.33,8.8 -42.16,-56.08 1.06,-58.82 -1.97,-37.65 23.1,-51.74zm-732.63 68.81c70.28,2.22 22.95,-16.59 39.52,24.6 -2.18,1.19 10.9,33.83 -31.46,4.74 -15.63,-10.74 -6.06,-12.78 -8.07,-29.34zm24.39 -69.97c10.26,13.17 24.83,6.72 0,45.84 -49.85,-24.5 -42.83,-26.45 0,-45.84zm10.64 -36.01c-6.35,37.75 2.92,6.5 -24.52,14.28 -37.89,-43.61 -6.9,-30.78 13.89,-43.76 10.66,17.98 16.38,-4.65 10.64,29.48zm-14.35 -86.66c37.85,2.97 6.37,-6.09 18.86,22.82 -13.19,7.38 21.53,25.91 -26.93,7.5 -9.96,-3.79 -18.78,16.35 -9.37,-18.84 4.74,-17.77 -14.8,-14 17.44,-11.48zm711.96 -132.59c7,9.26 24.51,-17.89 20.27,57.92 -4.76,85.15 2.44,14.51 -20.27,44.59 -20.96,-15.7 -26.23,2.18 -22.66,-57.83 3.7,-62.01 0.29,-27.94 22.66,-44.68zm-697.56 77.57c25.85,53.34 -2.34,15.41 -10.69,29.39 -35.87,-17.92 -39.68,-1.26 -13.89,-43.96 31.12,9.16 10.89,-13.69 24.57,14.57zm-20.47 -39.45c-57.87,-15.74 -2.78,-34.62 9.78,-42.34 14.64,24.09 29.66,-32.72 10.37,31.93 -4.24,14.2 17.6,20.69 -20.16,10.41zm24.92 -91.01c-15.13,35.3 -0.96,38.46 -39.45,13.89 56.46,-63.36 -32.98,2.24 14.78,-21.74 37.4,-18.77 19.09,4.8 24.67,7.85zm-4.51 -63.58c26.07,54.35 -2.64,16.24 -10.63,30.02 -34.92,-18.05 -40.98,0.71 -13.89,-44.48 30.85,8.89 10.97,-13.78 24.52,14.46zm30.76 -143.23l685.48 -0.89c-0.14,28.35 6.15,66.56 -7.71,88.81 -18,28.92 -38.82,21.85 -57.01,35.56l-4.09 755.44 -613.5 1.7 -3.07 -840.47 -0.11 -40.17zm-51.13 103.56c-59.07,-15.92 -3.08,-34.31 9.74,-41.92 14.77,23.7 29.75,-32.47 10.5,31.56 -4.33,14.39 18.06,20.68 -20.24,10.36zm-1.89 -98.2c36.93,-20.78 23.4,5.24 26.73,7.03 -13.98,33.09 18.48,13.66 -18.82,23.12 -35.35,8.96 -14.08,1 -17.34,-11.38 -9.2,-34.88 1.61,-14.37 9.43,-18.77zm-50.02 795.02c-1.68,32.81 -14.45,14.02 0.7,52.13l14.66 27.41c14.44,24.28 -6.84,4.35 18.52,26.03l780.33 -0.1 -7.2 -931.01 -786.47 -1.11c-31.47,99.02 -24.64,48.41 -20.6,110.87 0.12,1.78 0.26,6.11 0.3,7.86l-1.34 65.09c-0.1,1.81 -0.97,6.11 -1.07,7.91l-1.19 14.86c0.02,1.57 0.46,5.54 0.55,7.1l1.17 120.54c-0.02,1.32 -0.05,5.12 -0.04,6.44 0.01,1.37 0.44,5.25 0.47,6.65 0.03,1.5 0.67,5.58 0.69,7.12 0.03,1.63 0.48,5.88 0.46,7.57l-1.66 285.54c-0.12,1.6 -1.06,5.61 -1.15,7.21 -0.09,1.56 -0.5,5.53 -0.52,7.1l1.69 60.38c0,1.33 0.11,5.13 0.15,6.46l1.56 97.96z"/>
  <path class="fil0" d="M3275.83 391.4l137.95 0.21 -0.59 632.46 -134.79 -0.66 -2.57 -632.01zm-61.63 713.21c-41.77,-14.95 -23.17,-65.77 -23.06,-175.95l3.36 -616.92 794.02 -5.53 7.05 802.89 -602.56 -0.54c14.73,33.54 -9.34,16.81 29.57,23.28 117.88,0 505.31,22.52 582.11,-8.01 24.61,-22.11 11.8,-804.57 11.96,-832.96 -160.28,-34.16 -650.17,-3.94 -850.33,-8.54l0.73 489.62 -162.72 4.41 -1.09 96.75c80.81,32.61 81.62,-10.98 81.29,40.91 -0.32,51.12 -26.96,7.96 -81.52,42.42l1.28 83.36c56.2,24.69 80.5,-13.63 79.84,39.48 -0.58,46.37 -6.11,14.61 -23.74,23.33l-57.67 20.48 5.16 90.96 339.66 -0.13c17.26,-51.03 11.63,-103.22 9.78,-159.16l80.18 -9.14c9.41,-105.94 16.93,-606.11 -7.42,-679.79l-168.9 -0.32c-28.02,74.13 -19.1,571.94 -8.31,674.25 12.99,5.29 44.13,12.13 44.53,12.34 36.27,19.17 33.67,-23.16 34.21,135.63 -63.99,-0.85 -254.96,19.26 -301.65,-22.99 20.61,-51.85 19.67,-15.63 82.79,-43.13l-0.87 -90.78c-83.98,-19.43 -64.89,-0.86 -81.95,-32.74 22.21,-51.16 29.95,-12.85 80.19,-41.67l1.7 -90.98c-5.44,-0.94 -47.74,-7.78 -49.22,-8.41 -38.2,-16.15 -15,11.37 -32.8,-25.6 18.85,-39.81 -33.49,-21.68 58.17,-29.84 18.15,-1.61 60.51,3.52 79.73,5.8 -1.97,89.25 -14.13,244.41 8.92,324.75l120.67 -2.73c-18.17,-20.8 8.89,-22.49 -83.1,-24.82z"/>
  <path class="fil0" d="M5888.53 409.24c48.13,2.16 11.75,-10.44 44.07,41.63l17.43 -42.6c34.85,10.6 -0.49,-6.17 22.42,13.21 1.76,1.48 8.44,25.89 13.06,15.14 1.09,-2.53 3.86,6.22 7.65,9.74l26.3 -39.96 31.39 41.87 29.48 -44.44 22.45 43.17c2.08,-3.07 4.94,-7.44 6.17,-9.27l27.3 -33.98 22.08 42.38 27.78 -39.35c66.38,35.16 0.67,26.09 71.45,-0.07l19.69 43.31c26.94,-59.97 0.64,-29.62 36.93,-43.91l21.75 44.49 16.83 -42.03c35.25,9.51 0.03,-6.68 23.03,12.76l18.63 25c30.08,-55.53 -1.89,-26.29 41.71,-40.09l-4.1 724.89 -546.54 -1.56 3.04 -720.33zm269.81 -92.98c46.67,-22.54 34.72,-30.07 105.89,-20.76l-2.37 85.89 -201.22 2.02 -2.17 -93.09c83.38,2.68 44.91,1.19 99.87,25.94zm-298.72 840.54l603.71 -0.66 -0.6 -770.25 -173.47 -6.54c14.3,-44.05 15.54,-30.9 76.31,-31.32 46.22,-0.32 75.78,-3.15 112.18,12.48 28.83,49.13 28.9,767.43 0,816.96 -58.67,25.06 -569.2,18.89 -640.52,2.67 -17.88,-67.28 -17.83,-754.45 0.03,-822.25 48.38,-11.03 152.04,-19.33 194.92,1.39 -17.24,35.12 3.7,23.19 -66.17,24.52 -33.23,0.63 -72.33,-1.74 -106.35,-2.12l-0.04 775.11zm187.63 -889.59l-22.82 58.26 -222.61 2.65 0.76 711.67c-0.64,214.95 -86.78,174.41 550.2,173.93l159.15 -0.23c31.17,-123.49 5.98,-713.91 8.35,-888.68l-223.05 -1.54 -15.38 -57.37c-54.5,0.83 -86.25,-12.45 -111.61,-14.05 -36.69,-2.31 -54.28,14.19 -122.98,15.36z"/>
  <path class="fil0" d="M4450.41 414.65l744.83 9.57c2.93,0.84 7.57,2.69 11.14,4.5l-0.48 55.55c-55.2,26.11 -691.32,12.12 -754.39,12.53l-1.11 -82.15zm-22.22 -13.7c-6.76,126.54 -21.68,733.02 8.15,809.43 5.44,-8.91 6.7,-5.41 11.84,-33.17 2.69,-14.54 3.24,-24.48 3.86,-39.26l-1.34 -616.82 755.65 0.21c-0.6,118.78 -20.2,632.92 12.41,692.69 26.02,-47.16 19.1,-731.26 6.98,-824.75l-539.45 -0.06c-68.99,0.13 -114.93,9.04 -171.78,-11.15 -2.47,-0.88 -6.96,-2.76 -9.98,-4.9 45.88,-25.62 696.47,-11.71 754.46,-13.12 -0.28,110.31 -16.91,691.78 10.56,744.95 11.91,-15.64 4.52,6.03 11.22,-27.3 16.27,-80.86 1.33,-717.54 -3.28,-740.25l-633.82 0.46c-6.07,-0.11 -35.64,-1.37 -40.38,-2.28 -35.88,-6.87 4.92,21.98 -43.87,-18.02 83.24,-34.32 609.19,-6.63 750.34,-10.41 14.18,187.41 -5.39,444.99 0.92,623.27 2.75,77.61 -10.04,51.5 27.48,67.07l0.05 -711.37 -763.09 -2.83c-41.62,9.67 -61.28,42.76 -88.85,72.11 -18.02,19.19 1.36,2.74 -19.33,21.64 -18.22,16.65 -13.92,9.69 -38.77,23.84z"/>
  <path class="fil0" d="M659.03 955.92l83.83 45.93 82.47 -45.77c55.52,21.42 278.31,210.03 293.15,233.78l-745.67 -2.76c91.28,-71.63 191.92,-171.11 286.22,-231.18zm197.59 -23.02c86.06,-56.79 206.48,-153.38 295.23,-187.05l-0.54 420c-47.95,-21.73 -245.97,-189.89 -294.69,-232.95zm-516.73 236.17l1.03 -426.79c46.5,21.5 260.19,153.6 293.82,205.54 -99.24,53.27 -189.06,155.48 -294.85,221.24zm144.4 -859.79l526.69 4.2 1.09 481.6c-37.67,34.95 -223.59,158.52 -270.32,177.85l-261.6 -171.08 4.13 -492.56zm629.45 416.38c-31.21,39.42 -25.8,35.77 -80.4,54.43l3.99 -51.28 76.41 -3.15zm-730.96 8.37c55.57,-21.59 67.13,-21.28 73.79,43.61 -34.48,-15.2 -8.76,-1.09 -42.35,-21.41 -38.7,-23.41 -6.8,-4.26 -31.44,-22.2zm71.08 -32.04l-139.17 2.19c0.76,54.31 -12.66,458.54 13.65,502.34l838.42 7.5c28.28,-89.9 8.09,-396.44 11.06,-513.53l-136.88 0.05 -3.29 -417.87c-135.3,1.78 -473.95,-16.76 -583.75,8.54l-0.04 410.77z"/>
  <path class="fil0" d="M1439.28 3569.85c148.11,-15.56 -20.66,149.76 0,0zm38.97 -58.18c0,-299.51 -47.08,-546.77 200.65,-646.52 122.14,-49.19 648.11,-10.59 826.47,-23.43 136.63,-9.83 214.07,-78.72 269.09,-159.09 69.1,-100.94 52.28,-231.46 52.28,-365.26 0,-123.74 24.86,-775 -15.02,-829.08 -27.09,70.79 -8.96,578.93 -8.96,704.1 0,249.24 40.83,389.93 -95.98,533.7 -28.36,29.81 -9.44,16.22 -44.49,38.9 -262.94,170.1 -875.55,-81.28 -1108.13,155.89 -14.41,14.69 -23.75,24.56 -38.57,44.83l-37.52 52.21c1.06,-176.24 20.71,-1480.81 -13.57,-1527.25 -27.72,46.33 -11.42,1804.15 -11.42,2020.99 -21.38,68.81 -4.83,5.01 -28.59,44.67 -16.81,28.07 -14.08,-16.35 -16.22,40.27 -1.33,35.18 16.44,57.19 56.15,57.02 124.16,-0.56 13.89,-141.82 13.84,-141.96z"/>
  <path class="fil0" d="M2203.32 3806.11c-86.39,2.85 -173.31,28.44 -176.04,-123.2 76.66,50.98 142.99,47.28 216.69,-6.21 -1.15,127.44 -2.79,59.28 -40.65,129.41zm149.94 -334.77c8.51,14.83 29.06,45.04 0,95.57 -28.06,-13.56 -22.25,26.04 -26.61,-41.56 -4.09,-63.41 6.06,-43.78 26.61,-54.02zm-445.35 -56.88l-0.24 -64.59c39.44,18.79 10.26,4.87 33.74,33.01 62.83,75.28 -35.52,-11.61 21.24,29.66 20.41,-166.69 -31.19,-242.44 168.43,-243.14 232.61,-0.81 137,85.87 179.19,227.51 44.59,20.28 -11.72,-24.97 42.99,-45.47l14.28 76.74c-29.82,24.34 -32.11,11.92 -63.32,31.86l0.89 107.3 -163.77 -13.71c-55.53,4.5 -21.08,-19.56 -37.53,27.47 1.04,67.37 58.02,1.98 175.17,16.33 -150.91,217.22 -302.79,-2.22 -310.04,-46.69 -11.35,-69.7 18.41,-58.64 -31.44,-106.84 -2.17,-2.09 -5.81,-4.37 -7.95,-6.39l-21.66 -23.06zm14.85 -87.57c-37.31,-49.54 2.69,-142.31 32.71,-171.31 57.57,-55.63 291.25,-78.07 367.98,10.87 29.9,34.66 59.45,111.48 29.81,159.61 -51.3,-21 -1.01,-79.78 -61.15,-141.98 -56.37,-58.3 -257.8,-57.42 -315.72,6.42 -44.4,48.93 -24.07,67.48 -36.94,110.74 -10.15,34.11 1.9,6.14 -16.69,25.66zm80.89 419.82c-152.32,6.91 -294.17,-38.96 -304.07,153.61 -0.24,4.69 0.1,68.74 0.38,70.2 8.14,43.48 -9.93,27.83 26.39,39.67 -0.36,-211.56 -10.11,-239.7 211.28,-237.2 208.71,2.36 187.28,220.51 193.44,237.84 36.65,-41.81 -6.95,-93.07 41.45,-152.09 21.07,-25.7 73.02,-84.58 111.31,-84.59 328.64,-0.05 233.64,42.3 265.58,207.09 6.4,32.98 1.6,15.89 18.05,31.04 19.74,-285.17 -51.32,-265.59 -298.31,-263.6 2.08,-205.06 44.6,-122.08 120.79,-167.56 0.56,-345.51 42.12,-505.4 -287.13,-497.48 -230.26,5.54 -221.97,160.38 -221.51,372.49l49.76 23.4c1.8,-3.13 7.38,2.64 10.89,4.37 0.28,257.25 54.86,11.35 61.7,262.81z"/>
  <path class="fil0" d="M5735.64 2081.3c-0.01,-146.74 67.28,-95.8 408.93,-100.43 -1.57,269.81 -20.31,261.38 192.16,258.1l-6.62 222.97c-84.54,23.88 -198.66,-4.41 -279.32,12.94 -38.91,8.37 -131.1,83.68 -185.57,110.96 1.13,-133.84 -3.05,-59.68 14.16,-75.05 1.96,-1.75 5.61,-4.69 7.81,-6.55 2.22,-1.89 6.1,-4.21 8.35,-6.06 29.07,-23.99 14.57,10.58 29.78,-26.72 -217.69,3.05 -189.56,60.72 -189.69,-390.17zm435.31 -83.32c-0.59,-289.17 -26.8,-276.09 126.26,-276.17 486.17,-0.24 476.12,-40.71 476.22,123.41 0.31,510.27 10.6,323.57 -194.93,377.17 55.17,43.4 72.4,-29.18 63.65,106.38 -57.63,-29.69 -146.48,-115.26 -219.96,-115.41l-202.44 -2.61c-71.06,-18.9 -48.77,-118.18 -48.8,-212.77zm501.01 249.97c117.9,-46 127.72,32.77 126.87,-208.3 -1.19,-336.67 24.78,-345.09 -153.98,-343.51 -558.57,4.94 -497.47,-59.45 -500.22,259.87 -115.49,-1.33 -384.28,-24.87 -421.93,38.35 -29.41,71.15 -19.52,404.97 -0.79,488.34l117.7 15.13 -0.63 127.23c91.79,-14.66 135.72,-110.07 222.97,-125.2 113.28,-19.63 226.02,36.98 299.8,-43.43l7.48 -217.96c198.78,6.59 187.98,109.27 298.4,127.08l4.32 -117.59z"/>
  <path class="fil0" d="M1876.27 1093.88l519.1 0.3c-2.36,119.34 -8.68,94.59 -250.41,94.64 -277.17,0.06 -265.79,24.88 -268.69,-94.93zm0.5 -664.91l518.37 -0.47 0.52 639.38 -518.53 0.17 -0.36 -639.07zm-0.22 -25.17c3.24,-120.1 -7.81,-95.28 268.41,-95.23 244.44,0.05 247.69,-24.44 250.41,95.02l-518.81 0.21zm-24.95 66.59c0.13,83.7 -16.7,654.91 15.8,704.01 36.53,55.19 31.01,39.76 180.27,39.34 466.12,-1.32 371,132.2 373.77,-799.65 0.52,-172.76 -83.2,-131.33 -429.24,-131.36 -160.27,0 -140.61,41.84 -140.6,187.66z"/>
  <path class="fil0" d="M2307.88 2238.54c45.82,47.54 89.27,89.09 138.35,138.61 26.47,26.71 42.7,43.41 69.66,69.21 73.26,70.14 51.41,64.6 31.57,79.32 -26.77,19.87 -73.32,-47.56 -123.82,-98.22 -39.06,-39.18 -76.21,-89.75 -126.92,-109.6 15.5,85.59 170.7,163.27 214.84,256.07 -58.07,25.49 -43.16,16.78 -83.68,-25.22l-213.6 -218.69 93.61 -91.47zm-113.67 -54.15l61.17 64.76 -33.4 33.32 -62.79 -63.75 35.02 -34.33zm-284.26 -454.68c157.01,-36.55 289.02,71.64 318.09,198.94 36.68,160.62 -65.87,289.43 -188.94,324.58 -158.27,45.2 -301.56,-61.46 -334.58,-189.45 -46.2,-179.04 72.64,-303.15 205.43,-334.07zm305.37 434.9c62.23,-185.34 72.92,-290.97 -68.15,-405.46 -131.63,-106.82 -295.01,-66 -392.52,29.03 -231.87,225.96 47.42,643.73 377.65,450.26l65.24 55.08c-21.37,68.59 -18.21,51.83 35.01,102.91l159.97 159.51c35.4,35.92 40.59,51.02 85.74,68.95 47.53,-36.36 97.22,-79.16 124.1,-132.68l-282.98 -277.54c-70.5,-22.21 -4.7,35.17 -104.06,-50.07z"/>
  <path class="fil0" d="M4985.27 2468.95c38.6,18.74 30.06,4 29.43,70.95 -0.58,61.92 9.69,49.24 -22.87,61.91l-6.56 -132.87zm-163.09 -57.11c124.62,1.93 51.08,0.43 138.4,56.78l-2.42 132.24c-53.73,1.55 -62.39,-23.44 -96.19,-56.46 -53.4,-52.19 -38.35,-38.45 -39.79,-132.55zm-103.76 -324.48c28.64,-84.26 38.72,-69.31 65.1,-80.15l27.77 80.8 144.04 2.19c8.07,60.91 13.94,33.92 -43.81,65.09 -3.2,1.73 -9.83,10.67 -12.24,7.23 -2.5,-3.56 -8.92,4.46 -12.5,7.83 34.32,-0.61 84.26,-16.59 73.61,31.29 -10.01,45.02 -4.7,10.4 -26.15,23.1l-34.57 18.15c-2.46,-3.53 -8.78,4.46 -12.28,7.81 29.64,-0.34 91.22,-15.09 71.1,33.56 -16.41,39.68 9.3,4.36 -32.9,23.15 -3.76,1.67 -20.46,10.69 -22.73,6.83 -1.94,-3.31 -7.91,1.42 -11.5,3.13 38.2,23.1 63.61,-1.38 68.47,55.55 -21.49,15.39 0.7,14.24 -51.33,14.05 -315.05,-0.73 -53.15,-27.17 -356.22,-58.08l4.2 -239.37 161.94 -2.17zm287.3 -78.95c-32.65,-16.11 -22.65,-0.56 -22.91,-65.94 -0.27,-68.79 -9.66,-51.27 29.55,-67.3l-6.64 133.24zm-182.88 -44.85c93.02,-48.78 47.92,-86.67 136.9,-87.83 -0.04,124.7 11.27,185.31 -135.92,189.02l-0.98 -101.19zm-489.36 437.14c3.57,1.58 8.22,3.17 11.05,3.87 2.87,0.72 7.73,2.69 11.37,3.44 64.91,13.54 -45.87,-3.39 24.76,4.28 7.93,0.86 32.2,0.85 41.21,0.89 151.8,0.74 103.9,-3.61 127.29,-27.68 78.81,-81.11 142.59,24.76 247.87,26.2 -0.92,119.69 5.2,98.29 65.14,160.14 69.68,71.89 52.28,53.99 176.48,56.55l-0.69 -172.15c-3.52,-2.07 -8.4,-3.53 -11.41,-4.46l-24.07 -7.46c-59.57,-15.82 -27.37,10.26 -52,-13.69 -24.7,-24.02 -16.82,37.4 -0.86,-8.37 13.02,-37.31 33.04,42.24 35.83,-89.73 1.73,-81.69 -1.35,-168.52 -1,-251.24 -64.72,-43.87 -34.21,-8.92 -42.01,-35.37 112.19,-36.59 99.58,45.61 91.2,-199.35 -190.17,2.84 -121.98,17 -230.79,114.88l-107.02 101.79 -134.52 -0.83 -27.78 -52.5 -114.16 -0.87c27.57,29.72 -24.06,23.32 107.24,27.21l1.13 346.06 -160.18 6.6c-23.57,3.91 -26.8,7.85 -34.11,11.77z"/>
  <path class="fil0" d="M2811.54 1414.6c29.88,-40.23 15.2,-130.16 15.19,-180.43 -0.08,-188.45 -19.21,-892.52 24.6,-1002.56 32.67,-82.04 122.32,-167.21 227.98,-186.7 171.52,-31.62 1544.55,25.36 1622.08,-18.92 -50.44,-28.96 -763.52,-12.97 -820.54,-12.97 -318.38,0 -796.8,-61.61 -957.75,83.13 -155.01,139.4 -120.35,275 -120.35,499.21 0,132.37 -20.03,746.44 8.79,819.23z"/>
  <path class="fil0" d="M20.22 2616.16c24,-46.62 9.96,-1705.64 9.96,-1993.02 0,-236.79 -30.26,-428.87 148.05,-536.08 131,-78.77 445.18,-48.16 619.67,-48.16l-13.89 -25.87c-185.59,0 -486.76,-33.32 -623.73,55.78 -170.66,111.02 -154.71,284.24 -154.71,526.56 0,280.55 -14.54,1985.11 14.65,2020.79z"/>
  <path class="fil0" d="M520.16 3683.91c41.57,-71.65 -11.7,-233.2 27.78,-295.45 57.24,8.78 38.7,17.73 37.63,94.81 -0.61,44.02 -0.81,87.56 -1.9,131.66l41.89 -68.36c0.63,-4.11 3.56,-4.83 5.7,-6.93 44.75,26.44 12.98,24.13 41.66,70.1l7.1 -20.31c22.75,-58.62 2.74,-33.97 34.56,-49.03 26.23,32.41 17.83,6.28 19.67,62.85 45.78,-6.07 -8.94,27.84 18.67,-13.85 33.61,-50.76 -33.08,-34.02 48.71,-49.99 46.34,174.95 -31.47,240.19 -30.14,347.35l-237.32 0.36c3.43,-166.63 -81.57,-60.93 -75.51,-209.42 1.98,-48.68 -2.38,-37.09 18.35,-64.28 62.37,16.02 15.42,-5.38 43.15,70.48zm-83.19 79.31c143.67,105.06 47.86,124.83 28.56,137.3 -1.63,59.63 -15.02,165.72 12.97,203.34 18.5,-33.62 10.85,-91.37 10.6,-135.03 450.53,0.33 265.18,-4.02 349.42,55.72 14.63,-186.71 -10.48,-123.04 -24.52,-141.35 -0.2,-0.26 -33.44,20.67 -12.64,-59.88 16.23,-62.8 31.44,0.22 31.99,-187.14 0.42,-140.96 -8.03,-120.13 -220.57,-119.1 -5.46,-54.97 15.15,-250.17 -83.49,-178.3 -41,29.88 -16.77,181.4 -21.76,242.32 -31.02,12.5 -42.74,14.3 -69.3,32.19l-1.26 149.93z"/>
  <path class="fil0" d="M20.22 2763.06c-32.74,44.57 -14.65,725.04 -14.65,776.39 0,273.7 -47.15,507.94 132.77,646.56 151.04,116.37 484.32,74.65 701.22,74.65 56.95,0 713.44,16.21 766.04,-12.97l-19.78 -8.73c-40.39,-10.11 22.77,0.81 -23.73,-4.51l-722.53 0.33c-208.54,0 -556.79,39.86 -694.64,-70.88 -161.72,-129.92 -114.74,-418.28 -114.74,-652.24 0,-119.99 19.17,-685.97 -9.96,-748.61z"/>
  <path class="fil0" d="M4220.79 1476.68c-11.23,3.62 -10.17,5.87 -31.73,5.09l-24.17 -59.23c55.03,-9.92 66.52,5.87 55.91,54.14zm-37.46 729.6c0,244.27 36.76,413.77 -121.41,542.68 -137.58,112.13 -406.35,68.74 -597.68,68.74l-650.09 13.5c54.67,31.67 667.68,11.56 788.96,11.56 707.97,0 615.51,-123.22 604.43,-1205.92 -1.93,-187.82 12.56,-104.93 39.14,-163.43 31.27,-68.83 -50.93,-109.56 -97.74,-54.24 -14.41,17.03 -13.95,40.25 -2.82,61.89 13.83,26.87 9.09,10.28 23.43,32.04 33.67,51.11 13.78,591.33 13.78,693.18z"/>
  <path class="fil0" d="M274.8 1722.18l555.7 -1.5 0.45 558.26c-76.61,-1.22 -192.43,-18.36 -258.5,7.8 -37.84,14.98 -94.81,74.98 -169.01,102.29 1.13,-111.17 14.84,-68.37 62.03,-99.42 -35.37,-17.7 -48.36,-11.81 -97.7,-11.62 -34.02,0.13 -60.19,0.28 -93.54,-2.43l0.57 -553.37zm574.63 -25.53c-84.1,-0.8 -563.65,-20.37 -592.41,10.21 -17.37,18.47 -9.91,520.74 -6.95,593.59l128.47 5.28 -0.95 128.24c79.83,-24.43 131.48,-91.41 195.49,-118.84 54.62,-23.42 213.33,-10.93 283.4,-10.81l-7.05 -607.66z"/>
  <path class="fil0" d="M4483.91 3210.11c107.95,-18.89 352.78,3.39 438.46,-5.71l45.8 -12.13c-48.57,-29.02 -452.61,-14.43 -508.61,-15.24 -1.67,118.44 -16.66,550.64 9.71,634.61l818.52 -3.93 11.25 -393.05c-7.68,-55.17 -0.66,-21.37 -15.59,-39.43 -29.06,64.53 -10.98,319.01 -16.14,410.8l-782.14 -4.48 -1.26 -571.43z"/>
  <path class="fil0" d="M1897.76 1772.05c302.45,-93.54 418.28,350.17 144.16,442.31 -148.99,50.08 -271.04,-49.74 -300.86,-160.5 -17.01,-63.19 -5.65,-131.2 26.22,-183.32 32.66,-53.41 66.98,-78.85 130.48,-98.49zm12.19 -42.33c-132.79,30.91 -251.63,155.03 -205.43,334.07 33.03,127.99 176.31,234.65 334.58,189.45 123.08,-35.15 225.63,-163.96 188.94,-324.58 -29.07,-127.3 -161.09,-235.49 -318.09,-198.94z"/>
  <path class="fil0" d="M5674.45 4247.69c40.31,25.67 226.07,12.75 275.59,12.75 193.72,0 731.85,20.07 845.61,-27.3 273.04,-113.69 208.55,-458.42 210.48,-804.83l-14.56 -121.59c-28.96,60.47 -9.3,451.25 -9.66,552.12 -0.69,191.7 -60.22,306.5 -214.13,359.27 -119.57,40.99 -821.52,5.84 -1041.07,15.86l-44.41 8.79c-1.42,-2.7 -5.24,3.26 -7.85,4.92z"/>
  <path class="fil0" d="M1876.55 403.8l518.81 -0.21c-2.72,-119.46 -5.97,-94.98 -250.41,-95.02 -276.22,-0.05 -265.17,-24.87 -268.41,95.23z"/>
  <path class="fil0" d="M2144.96 1188.81c241.73,-0.05 248.05,24.7 250.41,-94.64l-519.1 -0.3c2.9,119.81 -8.48,94.99 268.69,94.93z"/>
  <path class="fil0" d="M3323.96 2386.94c-29.6,-49.72 -26.26,-377.85 -3.7,-435.85 60.6,-38.56 220.56,-16.96 311.39,-17.52 64.28,-0.39 97.85,-7.08 107.8,51.11l1.3 333.84c-1.35,116.15 -52.59,92.36 -332.71,88.06 -63.02,-0.97 -51.35,3.93 -84.08,-19.65zm-39.65 -277.87c-2.71,370.25 -46.92,320.43 304.91,320.43 218.9,0 175.04,-31.2 174.64,-250.99 -0.09,-48.5 5.8,-176.07 -2.83,-215.47 -17.78,-81.12 -163.44,-54 -310.46,-54 -189.88,0 -164.98,25.94 -166.25,200.03z"/>
  <path class="fil0" d="M890.17 2095.18c48.4,28.8 271.58,14.88 328.5,14.17l0.55 363.34c-55.69,-0.79 -148.56,-15.67 -193.41,17.19l63.78 21.91 0.29 74.65c-189.13,-92.81 -81.11,-116.36 -362.33,-113.91 0.39,-47.2 9.07,-102.92 -12.97,-135.49 -24.12,34.42 -13.86,109.43 -12.27,159.3 47,2.34 90.97,1.31 137.8,1.35 150.48,0.11 159.09,106.08 275.8,125.22l-0.66 -124.83 129 0.22 -5.06 -413.88c-101.75,-1.16 -265.54,-24.74 -349.02,10.76z"/>
  <path class="fil0" d="M6602.73 1015.29c-5.78,-12.49 -4.42,9.33 -10.56,-31.51l-1.22 -416.81c3.25,-42.19 -3.07,15.02 3.61,-24.08l8.17 -19.56c30.27,20.82 16.09,-22.07 22.4,43.26l-1.33 348.44c1.58,120.24 3.33,82.94 -21.07,100.26zm-36.03 -378.26c0.02,116.39 -15.73,351.28 15.37,407.24l30.24 45c2.12,2.79 5.6,7.3 8.92,10.45 -0.89,-111.09 28.27,-7.73 28.26,-143.29l-0.06 -402.22c9.04,-36 -6.11,-14.03 22.74,-30.63 17.07,40.02 9.95,117.15 9.59,172.47 14.57,-13.73 27.64,4.77 27.52,-86.26 -0.04,-31.7 -1.6,-65.74 -2.22,-97.75 -3.68,-2.03 -9.87,-7.9 -11.71,-4.67 -8.04,14.09 -46.83,-39.39 -46.91,-39.49 -17.94,-22.34 5.27,-42.26 -81.78,-19.58l0.04 188.73z"/>
  <path class="fil0" d="M4628.52 679.99l401.1 2.6 0.54 289.6c-59.31,6.68 -125.45,-4.31 -171.15,17.69 -41.75,20.1 -75.36,53.3 -117.16,73.73 -6.58,-16.17 -16.23,-29.11 0.16,-51.75 38.42,-53.08 23.13,47.3 36.31,-36.11l-150.69 0.62 0.89 -296.37zm-25.94 318.58l107.28 3.37 1.98 107.11c54.97,-20.52 89.9,-54.45 139.02,-85.48 57.61,-36.39 126.92,-24.1 203.26,-22.33 0.15,-94.74 15.85,-261.22 -9.77,-345.17l-434.69 0.57 -7.09 341.93z"/>
  <path class="fil0" d="M5029.25 3067.73l380.83 -0.85 -2.72 248.08c-149.88,-5.02 -247.99,-24.27 -284.68,37.22l-41.59 -29.28c-71.87,-39.85 -30.93,2.06 -51.65,-33.43l-0.19 -221.74zm-20.83 263.41c120.92,44.93 28.37,-0.24 80.61,72.46 61.74,-54.57 36.46,-65.87 152.48,-65.2 61.55,0.36 124.62,4.11 185.53,-2.39 18.99,-61.06 15.56,-224.59 3.07,-292.85l-424.46 0.41 2.78 287.56z"/>
  <path class="fil0" d="M3214.2 1104.61l-7.61 -785.78 781.36 1.63 -1.77 779.88c-111.97,-1.6 -517.23,-20.09 -593.17,8.21l602.56 0.54 -7.05 -802.89 -794.02 5.53 -3.36 616.92c-0.1,110.18 -18.7,161 23.06,175.95z"/>
  <path class="fil0" d="M6486.76 3090.18c-18.68,-46.55 -48.93,-54.91 -68.83,-128.45 -71.55,-264.45 274.13,-449.16 452.89,-218.38 11.17,14.42 25.67,39.91 34.39,63.38 18.61,50.06 22.19,111.73 4.88,164.56 -20.78,63.44 -51.74,77.74 -67.36,119.88 105.49,-10.32 112.75,-231.97 82.57,-304.41 -137.17,-329.28 -639.69,-142.04 -528.19,193.46 30.27,91.07 48.72,108.48 89.65,109.97z"/>
  <path class="fil0" d="M574.03 1858.09l90.11 -2.1c73,109.09 12.79,160.93 -58.33,254.61 -40.68,53.57 -23.93,36.8 -64.63,56.33 -42.57,-63 -149.84,-147 -129.45,-266.17 20.11,-24.95 43.8,-59.7 97.8,-45.26 62.91,16.83 40.61,48.7 80.07,88.13 10.79,-30.53 3.79,-54.7 -15.57,-85.54zm-22.78 343.27c61.24,-57.9 112.15,-104.95 156.68,-197.13 23.16,-47.93 29.08,-91.86 -3.44,-134.46 -40.94,-53.63 -71.22,-34.12 -144.24,-30.78 -0.03,0 -239.95,-53.78 -171.34,151.4 22.5,67.28 126.25,181.15 162.34,210.96z"/>
  <path class="fil0" d="M3525.38 392.45l380.3 -0.03 2.63 137.29 -386.79 -1.89 3.86 -135.37zm-29.82 157.68l438.85 2.89c0.06,-33.26 0.79,-65.4 0.8,-97.02l-10.06 -75.32c-0.85,-2.41 -3.31,-6.48 -5.22,-9.57l-344.59 -5.44c-98.54,-0.04 -80.3,-22.83 -79.78,184.45z"/>
  <path class="fil0" d="M5133.59 1938.04c38.02,-62.81 19.69,-19.4 -8.46,-86.07 -19.07,-45.15 -20.15,-88.73 2.72,-135.1 90.69,-183.85 378.61,-6.57 254.19,157.91 -54.71,72.33 -138.39,62.13 -248.45,63.26zm-48.73 25.12c113.91,-3.34 240.17,11.74 303.62,-54.66 60.43,-63.24 59.91,-168.24 -1.43,-236.52 -121.06,-134.76 -386.09,-20.46 -265.31,228.78l-36.88 62.41z"/>
  <path class="fil0" d="M519.89 3035.17c162.93,-56.27 231.81,182.27 92.09,234.99 -165.75,62.55 -258.76,-177.43 -92.09,-234.99zm182.7 170.99c70.93,-198.2 -215.6,-275.39 -282.72,-114.67 -84.33,201.9 218.46,294.24 282.72,114.67z"/>
  <path class="fil0" d="M893.2 3034.56c160.31,-54.97 232.78,184.85 93.19,235.04 -178.85,64.31 -252.72,-180.33 -93.19,-235.04zm181.94 171.59c65.54,-187.57 -203.97,-289.28 -280.66,-113.44 -90.13,206.67 219.47,288.55 280.66,113.44z"/>
  <path class="fil0" d="M4755.74 3539.35c49.82,-20.64 52.78,-20.37 103.37,-3.68l21.62 88.76 25.73 -87.03c144.95,-58.25 93.82,50.17 127.03,126.61 30.32,-39.05 15.8,-100 3.71,-145.21 -80.03,-29.68 -90.86,-27.12 -156.47,10.09 -35.44,-23.27 -93.31,-56.14 -143.5,-8.03 -28.22,27.05 -34.85,103.95 -9.26,143.76 30.07,-53.76 -6.83,-59.68 27.78,-125.27z"/>
  <path class="fil0" d="M3380.91 2316l15.14 -118.03 97.59 -13.4c22.22,47.13 10.93,49.59 26.15,92.54l49.44 -90.91c118.2,-5.86 79.35,33.11 91.45,102.22 4.61,26.37 4.34,16.86 11.87,29.56 46.82,-80.42 -7.6,-226.78 -153.94,-127.37 -27.38,-28.47 -77.31,-53.78 -128.26,-16.96 -18.4,13.3 -23.75,30.8 -27.21,60.23 -0.02,0.14 -1.33,40.08 -1.02,42.33 5.26,37.69 6.24,25.57 18.81,39.79z"/>
  <path class="fil0" d="M1601.13 671.59c34.3,13.7 46.69,25.65 77.79,41.91l17.4 -44.18 92.07 3.09c4.29,58.16 -11.05,133.8 16.02,179.18 23.07,-59.93 11.57,-140.15 12.11,-206.9l-115.95 1.2 -20.93 -42.44c-15.21,7.22 -25.47,9.19 -44.04,23.09 -51.96,38.88 -13.93,-0.49 -34.47,45.03z"/>
  <path class="fil0" d="M2454.47 842.92l120.93 10.8 19.3 41.81 75.42 -50.35 -65.28 -59.87c-4.19,4.74 -7.57,5.82 -8.71,10.76 -9.19,39.73 -78.65,30.23 -112.96,30.11 -7.76,-85.91 10.28,-136.11 -18.8,-176.97 -19.96,49.81 -8.74,132.67 -9.89,193.71z"/>
  <path class="fil0" d="M1839.44 2103.52c11.07,-13.57 6.09,6.04 12.45,-24.74 15.33,-74.22 -14.9,-81.82 84.86,-79.04 18.79,32.16 12.19,37.56 27.67,72.73 1.91,-3.34 4.54,-12.31 5.3,-10.26 9.88,26.6 -0.15,-17.13 26.08,-61.08l67.26 1.49 26.35 100.93c18.52,-27.62 23.59,-87.12 -5.74,-114.17 -40.75,-37.57 -102.58,-1.7 -118.74,-1.58 -17.78,0.13 -66.41,-35.43 -112.02,-3.84 -28.83,19.98 -31.2,83.53 -13.46,119.57z"/>
  <path class="fil0" d="M4807.94 798.07l-64.49 6.79c34.18,45.2 51.19,23.22 28.74,97.6 59.39,-10.72 47.91,-35.09 101.27,5.6 13.02,-75.15 -32.91,-28 33.22,-90.49l-17.54 -9.61c-22.96,-11.11 -9.22,0.78 -28.07,-12.82 -23.38,-16.86 0.37,1.03 -19.39,-21.45l-13.9 -16.92c-1.71,-2 -5.25,-5.81 -8.19,-8.39l-11.65 49.69z"/>
  <path class="fil0" d="M4880.72 3346.74c50.67,16.66 66.85,34.38 34.7,88.34l-66.43 12.11c-24.03,-55.33 -26.48,-73.64 31.72,-100.45zm71 4.2c-220.06,-105.71 -173.39,206.92 1.03,91.67l-1.03 -91.67z"/>
  <path class="fil0" d="M3508.31 2023.8c51.48,-26.04 82.99,49.97 43.91,76.12 -23.48,15.71 -52.77,7.12 -65.79,-13.84 -29.52,-47.52 4.73,-53.6 21.88,-62.28zm-32.7 99.35c97.23,25.73 136.9,-17.37 105.36,-117.31 -115.59,-35.59 -151.02,28.47 -105.36,117.31z"/>
  <polygon class="fil0" points="2210.81,974.43 2302.11,975.37 2300.83,883.86 2211.91,884.81 "/>
  <polygon class="fil0" points="2214.2,609.68 2298.62,609.93 2298.39,525.24 2214.11,525.9 "/>
  <path class="fil0" d="M1935.07 1869.28c67.46,-37.85 103.31,68.17 4.58,53.31l-4.58 -53.31zm-24.06 3.7l-0.88 54c55.41,39.65 114.96,46.91 110.89,-54 -39.55,-46.99 -67.56,-52.31 -110.02,0z"/>
  <polygon class="fil0" points="2218.28,731.06 2296.21,731 2299.62,645.39 2212.37,646.52 "/>
  <polygon class="fil0" points="2093.17,968.84 2179.19,972.66 2177.17,885.1 2093.56,892.14 "/>
  <polygon class="fil0" points="2093.72,606.86 2178.52,610.4 2178.07,523.72 2092.97,530.26 "/>
  <polygon class="fil0" points="1972.41,973.43 2058.35,966.81 2056.86,889.89 1973.79,886.49 "/>
  <polygon class="fil0" points="2213.09,851.26 2300.46,851.5 2293.1,766.08 2217.34,766.99 "/>
  <polygon class="fil0" points="1972.93,611.56 2057.79,604.57 2057.19,528.29 1972.55,524.66 "/>
  <path class="fil0" d="M3508.31 2023.8c-17.15,8.68 -51.4,14.76 -21.88,62.28 13.02,20.96 42.31,29.55 65.79,13.84 39.08,-26.15 7.57,-102.16 -43.91,-76.12z"/>
  <path class="fil0" d="M2115.36 788.23c48.5,9.11 35.82,-12.28 37.63,36.47 -51.06,3.05 -29.12,12.11 -37.63,-36.47zm-13.73 -14.82c-35.1,86.62 5.02,78.31 77.61,78.85 -0.16,-63.84 8.07,-107.22 -77.61,-78.85z"/>
  <path class="fil0" d="M2036.96 709.14c-66.74,-11.11 -30.47,7.57 -39.78,-30.45 47.05,-22.81 30.8,-9.44 39.78,30.45zm-64.83 -2.68c24.01,35.41 -15.79,15.62 34.58,25.94 25.8,5.28 44.6,-9.19 44.67,-9.21 11.46,-39.46 12.59,-37.83 -3.58,-75.94l-75.94 -2.41 0.27 61.61z"/>
  <path class="fil0" d="M2035.88 788.35c-9.39,52.64 14.1,37.57 -38.1,36.78 6.14,-49.3 -20.76,-26.35 38.1,-36.78zm-64.27 64.19c72.59,-0.76 110.89,6.98 77.72,-78.71 -36.95,-12.92 -36.19,-13.51 -75.19,2.01l-2.52 76.7z"/>
  <path class="fil0" d="M2151.78 672.3c1.13,51.18 15.47,26.45 -37.47,37.16 10.13,-49.26 -11.46,-38.23 37.47,-37.16zm-52.44 56.65l75.7 3.06 4.38 -87.53 -76.12 4.15c-17.05,36.57 -15.3,36.29 -3.96,80.33z"/>
  <polygon class="fil0" points="2159.19,2218.72 2221.98,2282.47 2255.37,2249.15 2194.21,2184.39 "/>
  <path class="fil0" d="M1935.07 1869.28l4.58 53.31c98.73,14.87 62.87,-91.15 -4.58,-53.31z"/>
  <path class="fil0" d="M6007.46 867.8c28.8,-22.13 39.38,-44.86 51.84,-77.37 -50.77,5.64 -13.9,-0.62 -45.37,9.98l-36.23 17.16c12.46,34.6 1.83,22.23 29.76,50.23z"/>
  <path class="fil0" d="M1439.28 3569.85c-20.66,149.76 148.11,-15.56 0,0z"/>
  <path class="fil0" d="M6005.58 980.65c29.48,-22.63 38.06,-31.74 52,-76.21 -53.39,9.09 7.04,-2.46 -45.54,14.96 -33.26,11.02 -7.36,-1.99 -35.8,10.86l29.33 50.39z"/>
  <path class="fil0" d="M6005.58 749.22c19.52,-13.28 6.63,0.42 23.91,-19.7l28.96 -53.32c-31.45,6.04 -12.44,0.12 -43.51,11.19 -38.19,13.61 -23.41,9.81 -39.17,20.04l29.81 41.79z"/>
  <path class="fil0" d="M5978.96 595.37l23.75 40.79c5.46,-3.52 9.79,-9.31 10.76,-7.07 1.38,3.19 29.39,-21.59 43.46,-70.67l-77.98 36.94z"/>
  <path class="fil0" d="M1037.33 728.81l-3.99 51.28c54.59,-18.66 49.19,-15.01 80.4,-54.43l-76.41 3.15z"/>
  <path class="fil0" d="M382.78 734.04c24.64,17.94 -7.26,-1.2 31.44,22.2 33.59,20.32 7.88,6.21 42.35,21.41 -6.67,-64.89 -18.22,-65.2 -73.79,-43.61z"/>
  <path class="fil0" d="M881.23 3138.67c48.38,-26.78 43.13,-33.75 -10.82,-40.19 -6.94,59.52 -2.69,25.5 10.82,40.19z"/>
  <path class="fil0" d="M587.74 3137.46c46.76,-9.02 39.01,11.64 35.4,-32.05 -9.04,-2.82 17.3,-29.5 -24.96,-0.2 -28.26,19.59 -6.48,6.43 -10.44,32.25z"/>
  <path class="fil0" d="M2114.31 709.46c52.94,-10.7 38.6,14.02 37.47,-37.16 -48.93,-1.07 -27.33,-12.1 -37.47,37.16z"/>
  <path class="fil0" d="M2152.99 824.7c-1.81,-48.75 10.87,-27.36 -37.63,-36.47 8.52,48.58 -13.43,39.52 37.63,36.47z"/>
  <path class="fil0" d="M1997.78 825.13c52.2,0.78 28.71,15.86 38.1,-36.78 -58.86,10.43 -31.96,-12.52 -38.1,36.78z"/>
  <path class="fil0" d="M1997.18 678.69c9.31,38.02 -26.96,19.34 39.78,30.45 -8.98,-39.89 7.26,-53.26 -39.78,-30.45z"/>
  <path class="fil0" d="M532.74 3135.33c-6.8,-48.9 14.26,-32.57 -35.71,-36.19 3.02,49.69 -25.8,31.18 35.71,36.19z"/>
 </g>
</svg>
