<?xml version="1.0" encoding="UTF-8"?>
<!DOCTYPE svg PUBLIC "-//W3C//DTD SVG 1.1//EN" "http://www.w3.org/Graphics/SVG/1.1/DTD/svg11.dtd">
<!-- Creator: CorelDRAW -->
<svg xmlns="http://www.w3.org/2000/svg" xml:space="preserve" width="100%" height="100%" version="1.1" style="shape-rendering:geometricPrecision; text-rendering:geometricPrecision; image-rendering:optimizeQuality; fill-rule:evenodd; clip-rule:evenodd"
viewBox="0 0 2084.44 1824.15"
 xmlns:xlink="http://www.w3.org/1999/xlink"
 xmlns:xodm="http://www.corel.com/coreldraw/odm/2003">
 <defs>
  <style type="text/css">
   <![CDATA[
    .fil0 {fill:#003399}
   ]]>
  </style>
 </defs>
 <g id="Layer_x0020_1">
  <metadata id="CorelCorpID_0Corel-Layer"/>
  <path class="fil0" d="M1323.62 1273.09c-41.87,-89.14 -23.91,-296.59 -21,-424.09l741.05 6.6c2.35,109.46 20.11,339.61 -21,416.53 -79.69,22.19 -616.01,21.6 -699.05,0.96zm-22.39 -460.58c2.31,-91.33 15.98,-109 104.88,-109l535.5 0c88.63,0 101.06,19.27 103.21,109.03l-743.6 -0.03zm-787.26 -679.69c50.65,-41.11 -6.34,21.59 19.23,-30.25 26.14,-53 -6.24,-53.48 35.33,-63.39l973.65 5.69 -3.13 620.84c-320.91,26.93 -272.07,-31.21 -272.18,334.1 -0.02,75.02 -18.77,226.71 23.17,280.81 53.6,69.15 178.26,11.45 251.8,48.69l-2.72 41.14c-47.34,22.9 -915.22,21.99 -987.86,5 -29.22,-70.96 -10.78,-589.09 -10.76,-746.28 0.02,-103.99 20.41,-211.15 -26.8,-232.21l-5.37 968.62c0.79,3.17 2.07,7.01 3.06,9.83 27.98,79.5 436.26,39.88 578.93,40.11l439.34 -1.6c65.48,-16.33 35,-39.11 54.98,-93.16 323.74,-23.27 487.42,74.8 494.79,-127.98 2.42,-66.57 -0.28,-139.4 -0.3,-206.7 -0.05,-138.09 39.5,-300.54 -96.12,-316.24 -120.52,-13.96 -287.68,14.92 -403.52,-6.72 -9.11,-134.35 30.24,-559.72 -19.82,-641.44 -35.24,-35.13 -637.37,-16.99 -771.42,-17 -45.8,0 -91.6,0.17 -137.4,-0.26 -39.93,-0.37 -201.41,-21.59 -136.85,128.39z"/>
  <path class="fil0" d="M1205.34 1754.81l0 -41.19c60.83,-44.17 805.16,-21.25 832.39,-15.17l6.24 75.46c-58.69,24.57 -606.54,15.05 -748.87,14.25 -86.92,-0.49 -74.09,-16.87 -89.76,-33.35zm-34.56 -56.65l-1.94 83.63 -51.07 2.37 -151.04 0.2 -52.35 -1.19 -1.08 -88.91 257.49 3.91zm-292.15 15.46l-1.63 72.8c-135.76,0 -755.45,16.54 -838.07,-10.42l7.83 -78.8c30.9,-5.8 773.02,-26.96 831.87,16.42zm-683.43 -57.99l-181.85 5.83c-45.81,199.99 10.78,159.27 417.87,159.27 201.46,0 402.96,2.62 604.16,2.57l906.59 -2.28c135.65,1.18 161.22,-8.81 127.87,-153.75l-181.44 -13.71c-10.3,-90.04 19.77,-222.56 -15.44,-299.29 -34.35,23.26 -24.31,0.07 -22.87,139.62 0.56,53.8 4.79,108 -8.38,158.91l-1599.79 0.65c-19.37,-69.75 -18.99,-1062.98 -3.2,-1159.01 69.69,-3.63 181.31,15.34 233.11,-16.29 -37.73,-33.41 -113.97,-20.85 -164.86,-20.59 -151.42,0.76 -108.52,22.15 -108.52,459.86 0,223.78 16.9,523.64 -3.26,738.2z"/>
  <path class="fil0" d="M1751.78 1365.85l-2.4 193 -1418.98 0 4.31 -968.12 127.72 -2.41c15.89,-43.13 8.31,-34.15 -164.57,-29.82l-1.85 1027.65c81.96,17.87 1420.67,17.03 1488.3,-0.9l3.01 -226.68 -35.53 7.28z"/>
  <path class="fil0" d="M833.69 382.08c34.81,20.98 371.39,25.61 448.26,11.98 45.8,-8.11 11.41,-1.67 31.69,-11.98 -30.59,-37.45 -139.87,-20.93 -237.07,-20.93 -48.13,0 -240.72,-17.43 -242.88,20.93z"/>
  <path class="fil0" d="M734.71 289.59c49.58,17.43 304.88,17.16 354.65,0 -26.32,-44.77 -179.85,-25.28 -274.46,-25.88 -109.76,-0.7 -56.34,12.93 -80.2,25.88z"/>
  <path class="fil0" d="M1611.41 478.17c52.84,30.96 162.64,12.53 233.28,16.21 10.01,65.64 -8.96,110.13 25.35,142.06 26.11,-39.53 19.01,-123.08 -1.93,-166.77l-227.96 -9.18c-30.22,8.48 -13.45,4.74 -28.73,17.68z"/>
  <path class="fil0" d="M1432.61 1068.44c29.48,37.18 101.21,95.72 156.24,110.82 -15.88,-59.32 -61.2,-67.09 -102.91,-110.82 46.66,-69.93 76.86,-25.96 105.06,-114.79 -52.02,13.34 -139,75.57 -158.39,114.79z"/>
  <path class="fil0" d="M1860.57 1068.44c-36.34,35.75 -90.43,60.96 -104.5,103.59 46.53,2.9 132.45,-70.51 157.55,-103.59 -18.95,-37.09 -26.96,-32.21 -70.85,-65.91 -30.13,-23.13 -42.06,-44.48 -87.93,-40.31 16.54,46.28 39.67,40.34 79.51,76.14 25.14,22.59 13.83,12.39 26.22,30.08z"/>
  <path class="fil0" d="M1775.29 629.95c6.87,-11.81 8.68,-3.84 11.86,-28.91 2.15,-16.95 0.14,-21.98 -0.81,-37.95 -56.45,-17.46 -118.85,-12.39 -178.32,-6.41 15.39,54.63 8.54,56.28 72.3,59.92 47.88,2.74 88.4,15.26 94.98,13.35z"/>
  <path class="fil0" d="M833.71 697.81c26.9,37.89 38.92,21.77 160.47,21.8 64.47,0.02 131.44,14.08 158.43,-21.8 -39.66,-24.01 -280.43,-22.7 -318.9,0z"/>
  <path class="fil0" d="M1639.54 1209.39c36.21,-34.33 31.88,-71.03 51.19,-143.31 12.62,-47.24 39.9,-105.15 17.47,-143.15 -34.45,27.56 -52.52,141.41 -71.07,213.04 -20.46,79.03 -3.14,62.57 2.41,73.42z"/>
  <path class="fil0" d="M513.67 326.88c30.18,-14.13 25.77,7.33 30.17,-54.48 5,-70.17 -8.98,-53.76 -30.17,-69.56l0 124.04z"/>
 </g>
</svg>
