<?xml version="1.0" encoding="UTF-8"?>
<!DOCTYPE svg PUBLIC "-//W3C//DTD SVG 1.1//EN" "http://www.w3.org/Graphics/SVG/1.1/DTD/svg11.dtd">
<!-- Creator: CorelDRAW -->
<svg xmlns="http://www.w3.org/2000/svg" xml:space="preserve" width="100%" height="100%" version="1.1" style="shape-rendering:geometricPrecision; text-rendering:geometricPrecision; image-rendering:optimizeQuality; fill-rule:evenodd; clip-rule:evenodd"
viewBox="0 0 5066.22 3853.49"
 xmlns:xlink="http://www.w3.org/1999/xlink"
 xmlns:xodm="http://www.corel.com/coreldraw/odm/2003">
 <defs>
  <style type="text/css">
   <![CDATA[
    .fil0 {fill:#003399}
   ]]>
  </style>
 </defs>
 <g id="Layer_x0020_1">
  <metadata id="CorelCorpID_0Corel-Layer"/>
  <g id="_105553461103360">
   <path class="fil0" d="M2594.62 3712.1l0 -3444.59 546.31 -102.35c390.8,-68.25 862.1,-42.13 1244.04,0.75 146.64,16.46 516.85,100.68 558.24,101.6l0 3444.59 -536.18 -101.3c-459.76,-64.55 -1088.6,-62.51 -1544.11,45.26l-268.3 56.04zm-2471.6 0l0 -3444.59c52.49,0 204.02,-41.63 269.14,-55.18 545.37,-113.55 996.47,-104.52 1542.65,-45.5 99.09,10.71 189.11,30.2 286.11,49.41 69.68,13.79 250.68,37.5 250.68,84.83l0 3411.04c-28.21,-0.63 -400.54,-85.96 -536.79,-100.69 -466.07,-50.36 -794.96,-69.22 -1265.76,-1.94l-546.03 102.63zm-123.02 -3489.32l0 3556.42c0,123.01 127.59,59.47 234.73,33.42 697.44,-169.62 1463.74,-165.74 2160.87,9.03 183.02,45.88 107.54,46.52 393.56,-26.86 515.68,-132.3 1211.57,-131.41 1745.05,-42.76 206.13,34.26 270.07,59.59 440.56,97.74 50.06,11.2 91.46,-2.78 91.46,-70.57l0 -3556.42c0,-80.59 -513.22,-156.14 -593.31,-167.18 -663.26,-91.46 -1151.89,-72.14 -1793.26,73.26 -40.15,9.1 -115.57,33.19 -142.28,34.19 -29.04,1.09 -231.44,-52.17 -278.02,-63.53 -516.7,-125.98 -1132.58,-115.72 -1656.11,-45.18 -80.76,10.88 -603.24,86.76 -603.24,168.44z"/>
   <path class="fil0" d="M3634.7 491.19c211.54,0 387.86,-1.96 599.28,27.01 49.1,6.73 366.01,30.88 382.77,75.76l2.12 2760.26c-61.95,-14.43 -135.95,-25.15 -202.22,-32.63 -73.66,-8.32 -147.91,-21.43 -222.76,-23.29 -75.17,-1.87 -135.08,-9.69 -224.12,-10.74 -57.7,-0.68 -61.57,-9 -111.34,-11.69 -122.76,-6.63 -221.32,11.24 -324.38,11.24 160.04,-139.11 435.19,-186.34 227.32,-305.61 -41.73,-23.94 -70.49,-52.97 -115.48,-63.46 7.58,-91.11 310.59,-403.11 301.96,-469.71 -7.42,-57.2 -245.28,-178.09 -290.78,-246.04l259.35 -87.34c180.56,-64.32 -146.91,-259.19 -259.35,-427.11 59.71,-39.98 413.8,-304.02 413.8,-324.33 0,-101.2 -149.02,-82.27 -318.1,-106.88 -46.96,-6.84 -85.18,-16.14 -129.25,-16.14 26.83,-40.06 62.87,-67.64 98.08,-103.23 36.72,-37.11 55.23,-67.26 94.82,-106.49 33.26,-32.96 192.49,-175.62 187.35,-215.26 -40.41,-76.37 -52.26,-53.29 -155.93,-67.74l-306.68 -39.89c-23.21,-12.43 -22.91,6.95 8.32,-66.13 32,-74.91 43.39,-150.56 85.22,-150.56zm178.94 369.06c-81.62,121.88 -395.62,364.02 -371.87,438.88 15.03,47.36 71.07,43.47 117.84,50 55.82,7.8 91.18,11.03 148.65,19.1 54.48,7.65 94.35,17.65 150.11,17.65 -20.27,27.66 -137.43,108.62 -175.75,137.39 -256.33,192.4 -182.31,131.48 -70.29,298.78 -98.86,0 -480.9,80.47 -480.9,167.75 0,116.47 203.91,3.83 292.87,-20.27 79.94,-21.65 200.04,-39.46 288.68,-46.83 26.89,40.15 75.74,60.44 89.47,111.84 -66.86,15.57 -118.31,41.05 -183.02,63.02 -50.97,17.31 -152.49,37.15 -152.49,93.55 0,58.09 291.68,219.77 335.51,279.59 -33.9,50.62 -68.01,98.7 -106.45,150.78 -25.25,34.22 -31.95,41.2 -74.94,48.07 -46.63,7.45 -75.16,7.15 -119.27,14.93 -70.43,12.43 -370.36,87.15 -370.36,144.09 0,30.2 5.34,30.84 11.19,55.92 96.38,22.46 79.94,2.52 233.42,-46.17 47.91,-15.2 129.18,-41.91 191.56,-43.3 -20.22,38.22 -67.1,89.67 -67.1,134.2 0,54.26 122.67,87.93 156.57,134.2 -102.95,68.94 -209.48,129.94 -315.24,199.21 -72.76,47.66 -96.48,46.9 -199.21,58.02 -75.39,8.16 -155.15,27.85 -223.67,33.55l2.12 -2760.26c13.29,-35.52 87.82,-37.25 164.99,-47.5 119.24,-15.83 258.25,-44.09 392.07,-44.09 -22.98,47.89 -42.22,106.12 -63.98,159.72 -20.34,50.1 -58.7,118.68 3.81,146.19 19.84,8.74 358.94,51.97 395.69,51.97zm-1006.54 -346.7l0 2918.95c0,95.69 207.61,15.87 391.73,0.3 518.39,-43.83 752.86,-56.82 1278,18.71 136.08,19.57 265.06,69.98 265.06,-52.56l0 -2851.85c0,-89.54 -97.78,-85.85 -177.89,-101.7 -238.63,-47.22 -527.54,-63.18 -772.7,-77.33 -187.98,-10.85 -576.85,41.28 -771.29,67.61 -40.55,5.49 -212.9,25.66 -212.9,77.87z"/>
   <path class="fil0" d="M447.35 3354.22l-0.01 -2751.2c9.85,-45.63 53.22,-41.43 167.12,-56.56 547.18,-72.65 891.6,-82.73 1440.59,14.58 42.78,7.58 77.2,-1.75 90.22,32.8l2 2760.37c-200.59,-46.73 -648.02,-78.28 -838.78,-78.28 -217.87,0 -441.54,20.59 -657.83,46.74 -61.42,7.42 -143.29,26.55 -203.31,31.54zm-123.02 -2807.11l0 2851.85c0,138.9 147.81,60.71 382.19,35.49 481.48,-51.81 819.05,-51.93 1298.72,17.07 94.54,13.6 253.87,62.5 253.87,-19.01l0 -2896.58c0,-30.2 -5.34,-30.83 -11.19,-55.92 -243.17,-56.65 -736.94,-120.93 -995.68,-112.24 -56.37,1.89 -62.09,11.3 -122.25,12.03 -42.7,0.52 -92.21,-3.31 -134.06,0.14l-495.78 63.41c-41.81,7.93 -73.87,14.97 -109.48,24.73 -42.81,11.73 -66.35,26.02 -66.35,79.04z"/>
   <path class="fil0" d="M659.84 1989.8c0,25.62 3.79,13 11.18,44.74 114.99,27.53 115.56,-28.38 310.21,-70.04 565.22,-120.95 783.78,81.22 897.63,81.22 24.48,0 138.83,-71.36 -43.16,-135.78 -358.76,-127.01 -707.53,-141.53 -1067.4,-1.79 -43.04,16.72 -108.47,26.42 -108.47,81.65z"/>
   <path class="fil0" d="M659.84 1564.82c0,145.46 253.82,-67.1 637.47,-67.1 309.62,0 525.11,123.02 581.55,123.02 23.08,0 140.17,-70.18 -43.27,-135.67 -375.96,-134.23 -691.37,-136.01 -1068.14,-2.76 -24.7,8.74 -49.4,16.41 -65.28,24.19 -26.33,12.91 -42.34,24.26 -42.34,58.31z"/>
   <path class="fil0" d="M659.84 2414.79c0,25.61 3.79,13 11.18,44.73 106.58,25.52 115.63,-23.3 310.79,-69.46 227.75,-53.87 390.61,-55.2 621.94,-2.12 144.72,33.22 331.03,142.03 331.03,26.85 0,-94.4 -445.82,-178.94 -581.55,-178.94 -220.32,0 -382.2,18.54 -584.92,97.28 -43.04,16.72 -108.47,26.42 -108.47,81.66z"/>
  </g>
 </g>
</svg>
