<?xml version="1.0" encoding="UTF-8"?>
<!DOCTYPE svg PUBLIC "-//W3C//DTD SVG 1.1//EN" "http://www.w3.org/Graphics/SVG/1.1/DTD/svg11.dtd">
<!-- Creator: CorelDRAW -->
<svg xmlns="http://www.w3.org/2000/svg" xml:space="preserve" width="100%" height="100%" version="1.1" style="shape-rendering:geometricPrecision; text-rendering:geometricPrecision; image-rendering:optimizeQuality; fill-rule:evenodd; clip-rule:evenodd"
viewBox="0 0 5267.21 5622.46"
 xmlns:xlink="http://www.w3.org/1999/xlink"
 xmlns:xodm="http://www.corel.com/coreldraw/odm/2003">
 <defs>
  <style type="text/css">
   <![CDATA[
    .fil14 {fill:#01FFC0}
    .fil0 {fill:#323232}
    .fil15 {fill:#32E0AA}
    .fil11 {fill:#3B4F80}
    .fil6 {fill:#404E57}
    .fil5 {fill:#63B4F5}
    .fil3 {fill:#665858}
    .fil12 {fill:#A9C4CF}
    .fil13 {fill:#D3F2FD}
    .fil10 {fill:#DA7271}
    .fil8 {fill:#ED5250}
    .fil2 {fill:#F7D9B7}
    .fil1 {fill:#F8C888}
    .fil17 {fill:#FDF49E}
    .fil4 {fill:#FEC828}
    .fil16 {fill:#FEE93E}
    .fil9 {fill:#FEFEFE}
    .fil7 {fill:white}
   ]]>
  </style>
 </defs>
 <g id="Layer_x0020_1">
  <metadata id="CorelCorpID_0Corel-Layer"/>
  <path class="fil0" d="M3862.25 1049.81l-1.8 39.56c88.98,13.64 343.4,5.6 446.52,5.6l-8.21 0c20.7,0 39.66,1.58 56.93,1.04l-0.01 -1.02 -0.01 -1.01 -0.01 -1 -0 -0.59 -0 -0.41 -0.01 -1 -0.01 -1 -0.01 -0.99 -0 -0.99 -0.01 -0.94 0 -0.05 -0.01 -0.98 -0.01 -0.98 -0.01 -0.97 -0.01 -0.96 -0.01 -0.96 0 -0.3 -0 -0.66 -0.01 -0.95 -0.01 -0.94 -0.01 -0.94 -0 -0.94 -0 -0.63 -0 -0.31 -0.01 -0.93 -0 -0.93 -0.01 -0.92 -0.01 -0.92 -0 -0.91 0 -0.03 -0.01 -0.88 -0.02 -3.58 0 -0.35 -0.03 -4.66 -0 -0.21 -0 -0.85 -0.01 -1.69 -0 -0.84 -0.01 -1.66 -0 -0.82 -0 -0.81 -0 -0.81 -0.01 -0.81 0 -0.38 -0 -0.42 -0 -0.79 -0 -0.79 -0 -0.78 -0 -0.78 0 -0.64 -0 -0.13 -0 -0.77 -0 -0.76 -0 -1.5 -0 -0.74 0 -0.15 -0 -0.59 -0 -0.73 0 -0.72 -0 -0.72 -0 -0.71 0 -0.39 0 -0.31 -0 -0.7c-16.75,0.04 -36.4,2.33 -56.55,2.44 -67.5,0.37 -421.24,-4.59 -436.52,6.97zm507.07 45.21c12.47,-1.5 23.97,-4.81 34.53,-11.57 0.67,-30.59 -13.54,-40.21 -35.28,-42.46l-0.02 0.7 -0.02 0.71 -0.03 1.43 -0.01 0.44 -0 0.28 -0.02 1.46 -0.01 0.73 -0.01 0.74 -0.01 0.74 0 0.18 -0 0.57 -0 0.75 -0 1.51 -0 0.77 0 0.65 0 0.11 0 0.77 0 0.78 0 0.78 0 0.79 0 0.79 0 0.37 0 0.42 0.01 0.8 0.01 0.8 0.01 0.81 0.01 0.81 0.01 0.82 0 0.07 0.01 0.75 0.03 1.66 0.01 0.83 0.02 0.84 0.01 0.6 0 0.24 0.02 0.85 0.02 0.85 0.02 0.86 0.02 0.86 0.02 0.87 0 0.29 0.02 0.59 0.02 0.87 0.02 0.88 0.02 0.89 0.02 0.89 0.02 0.85 0 0.04 0.04 1.81 0.02 0.91 0.02 0.92 0.02 0.92 0.02 0.52 0.01 0.4 0.02 0.93 0.02 0.93 0.03 0.94 0.03 0.94 0.03 0.95 0 0.18 0.02 0.78 0.03 0.96 0.03 0.96 0.06 1.94 0.02 0.79 0 0.19 0.03 0.98 0.03 0.98 0.03 0.99z"/>
  <path class="fil0" d="M3863.61 1355.98c-4.34,40.83 8.41,41.02 48.48,41.65l428.23 -0.36c4.89,0.05 9.74,0.23 14.44,0.41l-1.64 -9.09 0.04 -0.61 0.04 -0.61 0.04 -0.61 0.04 -0.61 0.04 -0.62 0.04 -0.62 0.03 -0.56 0 -0.07 0.04 -0.63 0.04 -0.63 0.1 -1.92 0.04 -0.65 0.02 -0.5 0.01 -0.15 0.04 -0.65 0.03 -0.66 0.03 -0.66 0.07 -1.33 0.03 -0.67 0.02 -0.43 0.01 -0.24 0.03 -0.67 0.03 -0.68 0.03 -0.68 0.06 -1.37 0.03 -0.69 0.02 -0.37 0.02 -0.33 0.03 -0.7 0.03 -0.7 0.03 -0.7 0.03 -0.7 0.03 -0.71 0.03 -0.71 0.01 -0.29 0.02 -0.42 0.03 -0.72 0.03 -0.72 0.03 -0.72 0.03 -0.73 0.03 -0.72 0.03 -0.73 0.01 -0.21 0.02 -0.52 0.02 -0.74 0.03 -0.74 0.02 -0.74 0.03 -0.74 0.02 -0.74 0.03 -0.75 0 -0.13 0.02 -0.62 0.02 -0.75 0.03 -0.76 0.02 -0.76 0.02 -0.76 0.02 -0.76 0.02 -0.77 0 -0.04 0.02 -0.72 0.02 -0.77 0.02 -0.78 0.02 -0.78 0.02 -0.78 0.02 -0.78 0.02 -0.74 0 -0.05 0.02 -0.79 0.02 -0.79c-2.3,0.01 -4.63,0.01 -6.96,-0.01 -79.33,0.07 -440.85,-17.97 -484.41,12.41zm514.8 41.79l0 0 -0.07 -0.12 0.06 0.12z"/>
  <path class="fil0" d="M4356.24 1193.17l-0 0 -443.36 0.04c-75.99,-0.06 -78.52,54.26 7.61,53.52 83.37,-0.72 327.39,7.52 435.76,-2.75l0 -0.79 0 -0.79 0 -0.79 0 -0.06 0 -0.73 0 -0.79 0 -0.79 0 -0.8 0 -0.79 0 -0.8 0 -0.79 0 -0.8 0 -0.25 0 -0.54 0 -0.8 0 -0.79 0 -0.8 0 -0.8 0 -0.8 0 -0.8 0 -0.79 0 -0.44 0 -0.35 0 -0.8 0 -0.8 0 -0.8 0 -0.8 0 -0.8 0 -0.8 0 -0.8 0 -0.64 0 -0.16 0 -0.8 0 -0.8 0 -0.8 0 -0.8 0 -0.8 0 -0.8 0 -0.8 0 -0.8 0 -0.03 0 -0.77 -0 -0.8 0 -0.8 0 -0.8 0 -0.8 0 -0.79 -0 -0.8 0 -0.8 0 -0.22 0 -0.57 0 -0.8 -0 -0.8 0 -0.79 0 -0.8 -0 -0.8 0 -0.79 0 -0.8 -0 -0.41 0 -0.38 0 -0.8 -0 -0.79 0 -0.79 0 -0.79 -0 -0.8 0 -0.79 -0 -0.79 0 -0.6 0 -0.19 -0 -0.79 0 -0.79 -0 -0.79z"/>
  <path class="fil0" d="M3725.67 1372.41c1.71,64.98 101.96,59.3 94.79,-6.5 -6.43,-58.93 -96.44,-55.91 -94.79,6.5z"/>
  <path class="fil0" d="M3748.58 1181.65c-55.79,34.58 -1.82,108.5 50.3,77.57 49.04,-29.11 10.19,-115.05 -50.3,-77.57z"/>
  <path class="fil0" d="M3811.08 1031c-23.89,-6.19 -49.96,-16.66 -71.03,4.51 -18.76,18.85 -18.2,47.98 -0.27,66.46 41.91,43.18 91.98,1.72 71.3,-70.96z"/>
  <path class="fil0" d="M2835.56 4170.48l661.3 3.25 454.54 1378.12 -344.59 16.56 -482.07 -2.64 -370.4 2.87 81.23 -1398.17zm-179.04 -3954.34c-0.83,-118.1 29.65,-45.32 -72.22,-90.83 17.87,120.22 -36.98,71.59 72.22,90.83zm-825.78 3951.32l603.06 4.22 86.77 1394.57 -1139.07 0.88 449.23 -1399.68zm571.43 -4080.76l-34.57 96.72c-3.19,7.61 -7.09,106.92 -12.59,117.09 -146.16,3.11 -355.45,-41.76 -401.38,65.34l-83.17 191.8 -1696.11 9.74 -10.12 50.02 5020.96 -8.63 27.1 220.97c-11.96,5.95 -25.8,14.62 -35.03,19.5 -8.8,4.66 -25.05,13.48 -33.77,18.06 -6.42,3.38 -27.98,14.29 -44.65,22.22 30.08,32.98 46.56,83.33 55,159.7 1.41,-29.55 3.45,-58.05 6.19,-69.97 20.07,-87.28 175.22,-220.8 68.69,-362.33l-60.88 -34.25c-55.67,-18.67 -9.66,-15.49 -105.84,-28.41 -47.39,-6.37 -187.75,-0.62 -243.59,0.19l-1457.03 1.48c-65.71,-365.51 -94.69,-229.46 -481.44,-264.44 -55.21,-125.3 -75.11,-318.19 -276.96,-288.44 -188.72,8.77 -182.96,53.26 -200.81,83.62zm-2194.26 3751.39l-34.96 -17.1c-144.94,67.65 -114.66,162.66 -61.73,323.79 233.28,60.54 1026.63,31.54 1309.9,23.25l-275.84 1396.57 -851.23 -1.65c-216.94,-0.7 -198.11,-11.88 -294.06,59.13l5119.35 0.39c-122.36,-85.52 -303.14,-58 -462.68,-56.88 -163.9,1.16 -325.79,0.05 -489.86,4.18 5.42,-335.35 -206.39,-1034.92 -266.04,-1397.31 900.61,-19.24 1454.52,140.52 1354.91,-241.13 -58.06,-222.44 -84.2,47.06 -94.8,-264.02 -4.58,112.61 -28.09,200.78 -138.33,236.5 -155.73,50.46 -3766.33,16.07 -4259.28,16.07 -339.78,0 -490.77,26 -555.35,-81.8z"/>
  <path class="fil1" d="M4747.9 3999.18c178.04,-62.53 323.59,43.1 464.98,-72.99 -29.76,-11.64 -89.44,-21.04 -173.32,-28.59 -5.43,2.22 -11.09,4.3 -17.01,6.22 -155.73,50.46 -3766.33,16.07 -4259.28,16.07 -258.35,0 -407.54,15.01 -492.6,-25.17 -49.15,-1.53 -92.6,-3.41 -129.39,-5.69l8.3 215.94c584.35,13.33 4815.22,54.5 5036.93,-25.04l-59.53 -24.18c-9.85,-2.56 -21.33,-6.76 -32.8,-9.08 -12.28,-2.48 -22.56,-4.09 -35.97,-6.01l-229.4 -13.8c-88.2,-14.16 -46.43,-4.8 -80.91,-27.7z"/>
  <path class="fil2" d="M5212.3 829.75l-27.1 -220.97 -5020.96 8.63 -18.67 203.79 1673.72 2.82c485.55,-0.56 1018.72,0.8 1487.96,2.51l1481.89 2.5c34,-0.37 65.01,-0.46 93.22,0.16l329.95 0.56z"/>
  <path class="fil0" d="M172.96 3820.98l34.96 17.1c-17.26,-28.8 -28.33,-67.17 -35.2,-118.12l0.25 101.02zm4925.89 -2931.44c16.67,-7.94 38.23,-18.84 44.65,-22.22 8.72,-4.58 24.96,-13.4 33.77,-18.06 9.23,-4.89 23.07,-13.55 35.03,-19.5l-329.95 -0.56c107.73,2.35 175.06,14.88 216.5,60.35zm-309.72 -60.5l-1481.89 -2.5c602.52,2.19 1099.41,4.96 1253.88,4.96 88.13,0 163.51,-1.75 228.01,-2.45zm-2969.85 -5.02l-1673.72 -2.82 18.67 -203.79 10.12 -50.02c-119.43,70.32 -84.63,-26.81 -107.51,162.04 -42.63,351.71 70.89,-59.46 95.5,339 2.42,-109.31 22.64,-174.63 147.04,-219.45 50.01,-18.02 716.21,-24.05 1509.9,-24.96z"/>
  <path class="fil1" d="M1264.78 5549.73c157.79,-94.36 212.82,-470.49 276.35,-668.57 65.74,-204.94 190.27,-505.83 202.93,-709.42l-257.31 11.03c-59.2,351.81 -325.8,1226.29 -221.96,1366.97z"/>
  <path class="fil1" d="M2637.67 5563.16c103.46,-92.5 74.07,-114.93 82.19,-310.25l45 -1080.6 -242.65 3.27c-33.97,223.64 -7.45,1283.35 115.46,1387.58z"/>
  <path class="fil1" d="M3577.4 4175.51c45.38,223.73 135.77,465.8 210.05,692.3l263.47 685.3c87.72,-118.53 39.55,-223.48 3.67,-385.35 -23.64,-106.6 -48.23,-218.36 -72.77,-331.21 -50.35,-231.61 -97.65,-446.23 -143.79,-664.1l-260.63 3.07z"/>
  <path class="fil2" d="M1953.63 365.85l477.48 85.56c-41.24,31.04 -1.82,25.44 -81.45,40.15 -51.51,9.5 -104.61,6.74 -156.92,7.76 -107.75,2.1 -132.83,-16.26 -221.28,27.28 110.65,67.95 1186.4,58.81 1311.31,0l-1.34 -159.05 -1327.81 -1.7z"/>
  <path class="fil2" d="M2480.99 80.08l-41.65 200.49 357.57 20.43c-18.63,-286.32 -103.62,-240.78 -315.93,-220.92z"/>
  <path class="fil3" d="M2656.52 216.13c-0.83,-118.1 29.65,-45.32 -72.22,-90.83 17.87,120.22 -36.98,71.59 72.22,90.83z"/>
  <path class="fil0" d="M269.6 1059.98c0,-118.4 29.31,-152.69 168.1,-152.69l-21.74 0c528.62,0 4455.18,-29.8 4632.55,19.91 22.42,38.76 35.26,73.28 35.26,132.78l0 2608.49c0,59.27 -13.07,94.28 -35.36,132.77 -38.83,10.68 -78.51,19.91 -132.74,19.91 -527.79,0 -4435.05,29.35 -4610.8,-19.91 -22.42,-38.76 -35.26,-73.28 -35.26,-132.77l0 -2608.49zm36.94 -233.7c-161.5,58.19 -148.7,150.65 -147.86,328.09l0.13 2344c-0.29,485.33 70.45,421.44 604.96,421.44 496.58,0 4133.78,34.63 4290.66,-16.19 139.43,-45.19 141.13,-173.63 140.3,-329.52l-0.17 -2343.99c0.3,-485.33 -70.44,-421.44 -604.95,-421.44 -474.89,0 -4162.28,-25.91 -4283.06,17.62z"/>
  <path class="fil0" d="M3559.68 3642.03c40.96,29.18 58.19,18.35 167.23,17.87l1158.02 -0.87 -1.68 -57.37c-36.76,-21.35 -61.67,-8.48 -113.54,-17.31l1.32 -611.45 -194.96 3.33 0.32 613.54 -107.96 0.25 0.99 -171.24 -194.07 -2.24 1.85 173.07 -109.31 0.28 0.96 -504.61 -195.67 5.68 0.91 499.03 -108.8 -1.54 -2.54 -267.76 -190.28 -0.39 -0.18 269.79c-92.31,-1.28 -107,-26.86 -112.61,51.94z"/>
  <path class="fil0" d="M2655.13 3592.38c-5.94,55.82 11.5,56.07 66.27,56.94l585.39 -0.49c45.89,0.48 88.73,9.31 89.4,-33.56 0.7,-44.76 -38.17,-39.5 -78.87,-39.87 -108.44,0.1 -602.65,-24.57 -662.19,16.97z"/>
  <path class="fil0" d="M3395.23 3425.87c1.8,-60.56 -7.59,-56.06 -66.69,-56.06l-606.08 0.05c-103.87,-0.07 -107.34,74.17 10.4,73.16 139.11,-1.2 605.54,15.86 662.36,-17.15z"/>
  <path class="fil0" d="M2653.28 3173.84l-2.46 54.07c121.64,18.65 469.43,7.65 610.39,7.65l-11.23 0c57.52,0 105.15,8.94 143.68,-15.75 1.73,-78.57 -68.38,-55.92 -143.65,-55.51 -92.27,0.51 -575.84,-6.27 -596.73,9.53z"/>
  <path class="fil0" d="M1418.12 1394.29c59.01,-44.72 82.15,-60.04 129.52,-109.86 -449.29,-274.89 -951.91,-3.49 -1015.33,454.59 -29.12,210.27 133.75,199.31 156.5,86.21 28.46,-141.47 31.17,-223.06 111.8,-311.44 61.42,-67.33 143.72,-137.46 259.34,-164.72 167.68,-39.53 223.54,0.21 358.17,45.22z"/>
  <path class="fil4" d="M1757.56 1211.89c-49.38,17.24 -45.5,26.22 -106.94,75.81l-290.25 241.13c-71.06,59.8 -123.43,99.17 -196.41,162.08 -33.31,28.72 -176.91,123.24 -72.7,222.86 121.75,116.39 254.64,-129.13 361.66,-279.25 52.13,-73.13 102.15,-137.66 151.87,-207.14 51.02,-71.29 108.49,-135.57 152.77,-215.48z"/>
  <path class="fil0" d="M1590.94 1545.59c21.32,84.05 60.34,111.91 72.19,234.38 4.89,50.42 7.15,86.49 39.3,109.11 59.55,41.9 183.65,5.87 94.95,-269.17l-119.26 -198.42c-14.98,41.63 -58.63,93.13 -87.18,124.1z"/>
  <path class="fil0" d="M2466.56 3614.82c2.34,88.83 139.4,81.07 129.59,-8.88 -8.79,-80.56 -131.83,-76.43 -129.59,8.88z"/>
  <path class="fil0" d="M2497.89 3354.07c-76.27,47.27 -2.49,148.33 68.76,106.04 67.03,-39.8 13.92,-157.27 -68.76,-106.04z"/>
  <path class="fil0" d="M2583.32 3148.12c-32.65,-8.46 -68.3,-22.77 -97.1,6.17 -25.64,25.76 -24.87,65.6 -0.36,90.85 57.3,59.02 125.74,2.34 97.46,-97.01z"/>
  <path class="fil5" d="M2429.3 1340.59c16.92,-7.15 6.99,-5.96 25.38,-1.87 3.33,-12.66 -5.85,-5.2 8.65,-8.75l26.43 0.35 1.91 6.36 25.85 0.92c2.52,-11.76 2.73,-7.33 20.07,-8.07 9.12,-0.39 21.81,0.38 31.43,0.42l416.04 0.01c0,-30.65 4.92,-61.08 -15.23,-80.13 -15.94,-15.07 -47.68,-16.78 -72.05,-10.7 -1.02,24.82 5.69,61.66 -29.03,59.44 -30.12,-1.93 -23.67,-36.17 -25.76,-61.89l-138.22 0.13c-2.1,25.68 4.4,59.93 -25.85,61.93 -34.63,2.3 -28.1,-34.85 -29.08,-61.54l-138.55 -0.39c-2.02,25.62 4.51,60.57 -26.07,61.98 -34.27,1.59 -27.66,-35.34 -28.74,-59.92 -83.41,-17.69 -87.39,23.21 -87.39,91.09 78.07,0 56.59,-2.07 60.2,10.62z"/>
  <path class="fil4" d="M2431.68 1426.05l0.44 39.33c138.67,3.85 343.37,0.19 490.36,0.88 1.12,-22.94 1.26,-49.1 -4.08,-68l-450.67 -5.05c-29.78,0 -36.06,2.74 -36.06,32.84z"/>
  <path class="fil6" d="M2431.68 1426.04c0,-30.09 6.27,-32.83 36.05,-32.83l450.67 5.05c5.35,18.89 5.2,45.05 4.09,68 -147,-0.7 -351.69,2.97 -490.36,-0.88l-0.45 -39.33zm84.01 50.97l72.14 -0.19 -0.22 90.54c1.59,21.35 -2.22,11.38 7.85,17.87 10.25,-22.81 3.42,-79.13 3.8,-108.27l72.13 -0.14 0.04 68.25c3.14,20.61 -2.86,7.1 7.71,13.83 8.96,-20.79 3.39,-57.04 3.71,-82.01l72.13 -0.07 -0.23 90.56c1.69,22 -2.11,11.62 8.06,17.81 10.04,-23.42 3.21,-79.18 3.62,-108.37l72.34 0 0.02 219.06c-21.04,0.58 -12.85,-3 -19.11,7.57 16.11,7.06 63.41,5.73 83.61,3.04 28.94,-3.85 30.36,-25.83 30.2,-55.76 -1.49,-276.4 27.23,-269.4 -82.6,-269.32l-352.35 -0c-92.28,-0.14 -78.66,9.44 -78.53,97.48 0.09,58.78 0.07,117.54 -0.08,176.3 -0.07,31.52 4.43,49.2 34.39,52.26 23.2,2.35 60.58,4.3 80.17,-4 -6.39,-10.43 -1.59,-0.31 -19.01,-13.2l0.19 -213.22z"/>
  <path class="fil6" d="M2429.3 1340.59c-3.61,-12.69 17.87,-10.62 -60.2,-10.62 0,-67.87 3.98,-108.77 87.39,-91.09 1.07,24.58 -5.53,61.51 28.74,59.92 30.58,-1.41 24.05,-36.36 26.07,-61.98l138.55 0.39c0.98,26.69 -5.55,63.83 29.08,61.54 30.25,-2 23.75,-36.25 25.85,-61.93l138.22 -0.13c2.1,25.72 -4.35,59.97 25.76,61.89 34.72,2.21 28.01,-34.62 29.03,-59.44 24.37,-6.07 56.11,-4.37 72.05,10.7 20.15,19.05 15.23,49.48 15.23,80.13l-416.04 -0.01c-9.61,-0.04 -22.31,-0.81 -31.43,-0.42 -17.35,0.74 -17.55,-3.69 -20.07,8.07 11.15,6.1 449.14,8.51 474.76,1.54l2.45 -6.72c5.02,-21.64 -1.54,16.91 1.47,-7.62l0.07 -39.87c-3.04,-62.12 -51.21,-59.43 -99.19,-59.43 0,-29.96 4.66,-63.54 -28.05,-61.99 -30.48,1.44 -24.94,32.98 -24.94,62.01l-140.37 -0.02c0,-29.89 4.75,-64.18 -28.39,-61.95 -29.92,2.02 -24.73,32.96 -24.8,61.95l-140.28 0c0,-26.16 0.21,-36.06 -5.81,-56.41 -55.99,-18.71 -42.39,20.78 -48.82,55.41 -63.89,6.79 -101.31,-6.06 -97.91,91.76l4.2 24.5 67.39 -0.17z"/>
  <path class="fil7" d="M2849.83 1695.88c22.95,0 49.47,1.66 67.91,-5 10.02,-29.48 5.3,-170.93 4.67,-214.02l-72.37 0.19 -0.21 218.83z"/>
  <path class="fil8" d="M2432 1477.9c-1.04,42.24 -5.25,183.41 4.47,212.66 18.25,7.07 44.97,5.32 68.03,5.32l-0.4 -218.58 -72.1 0.6z"/>
  <path class="fil6" d="M2655.6 1584.82c69.23,-16.09 124.77,34.82 137.61,88.22 17.89,74.33 -34.06,132.98 -91.57,145.3 -147.22,31.54 -211.14,-195.17 -46.04,-233.52zm148.3 149.44c42.79,-168.38 -210.62,-232.06 -253.37,-66.7 -44.3,171.35 211.45,231.66 253.37,66.7z"/>
  <path class="fil6" d="M2810 1751.89c8.32,11.42 13.39,7.56 31.88,7.32 54.91,-0.7 136.71,12.54 152.09,-35.89 5.52,-17.39 5.25,-359.36 -2.12,-371.21 -13.85,8.72 -6.98,114.89 -6.83,135.59 0.37,48.4 0.08,96.89 0.08,145.3 0,51.53 12.49,101.55 -34.09,113.02 -41.76,10.29 -105.27,-9.63 -141.01,5.87z"/>
  <path class="fil6" d="M2362.03 1352.23c-6.12,10.82 -8.98,354.57 -0.69,373.7 18.31,42.28 78.19,33.07 115.2,33.08 35.78,0 57.74,6 67.7,-7.13 -36.52,-15.39 -99.15,4.89 -141.28,-5.99 -46.17,-11.92 -33.94,-61.56 -33.94,-112.9 0,-48.43 0,-96.87 0,-145.3 0,-19.57 7.07,-127.52 -6.98,-135.46z"/>
  <path class="fil6" d="M2664.71 1709.99c-12.94,-8.15 -28.29,-31.45 -43.3,-32.76 -11.27,-0.98 -42.15,10.74 -5.7,45.64 7.49,7.17 32.21,35.71 40.42,38.78 20.73,7.77 59.4,-43.49 86.32,-69.79 8.53,-8.33 39.57,-33.91 13.78,-48.68 -21.15,-12.11 -40.48,16.54 -49.82,25.83 -14.41,14.33 -27.22,28.32 -41.71,40.98z"/>
  <path class="fil7" d="M2739.81 1680.46c9.77,-9.57 16.43,-13.58 10.99,-26.8 -16.72,-4.55 -15.14,0.31 -25.71,12 -8.72,9.62 -13.56,12.76 -20.3,19.37 -14.37,14.08 -21.69,33.07 -43.26,39.09 -30.8,-20.88 -29.07,-42.44 -50.3,-30.79 -1.35,15.82 38.26,53.77 54.71,58.06l73.88 -70.93z"/>
  <path class="fil7" d="M2666.63 1284.31l20.88 1.41c7.81,-22.48 9.6,-89.78 -1.04,-108.92 -31.13,-5.73 -25.47,16.24 -24.69,42.19 0.65,21.55 -2.15,46.29 4.84,65.33z"/>
  <path class="fil7" d="M2468.4 1201.48l0.34 61.88c0.98,22.82 3.17,24.36 25.45,21.55 5.57,-15.7 10.36,-88.05 -1.19,-108.34 -24.22,-4.41 -24.6,2.03 -24.6,24.91z"/>
  <path class="fil7" d="M2855.09 1201.48c0,23.26 -1.09,65.74 4.96,83.1l20.83 0.89c8.73,-20.49 5.01,-57.89 5.01,-83.99 0,-22.04 -0.89,-29.21 -24.7,-24.65 -3.82,6.75 -6.11,13.13 -6.11,24.65z"/>
  <path class="fil6" d="M2454.68 1338.72c7.74,2.49 33.15,6.87 37,-2.04l-1.91 -6.36 -26.43 -0.35c-14.5,3.56 -5.32,-3.91 -8.65,8.75z"/>
  <path class="fil4" d="M1981.37 3602.25l103.89 -0.61 -0.83 -106.57 -105.48 -0.18 2.43 107.37zm-0.77 -120.13l105.76 -0.48 -2.22 -107.59 -104.9 0.54 1.35 107.54zm-120.51 -0.03l105.75 -0.17 0.48 -107.47 -107.89 -0.09 1.66 107.73zm-1.43 120.55l107.83 -0.4 -1.8 -107.31 -105.8 -0.05 -0.23 107.76zm-59.13 -362.03c8.93,32.43 -17.75,21.85 -3.3,70.74 4.46,15.1 8.5,-3.6 5.81,27.1 26.63,24.46 -10.12,273.25 16.49,295.55 29.19,9.29 276.15,8.04 308.17,0.93 16.88,-34.65 7.52,-164.76 7.98,-217.1 0.45,-51.96 9.73,-188.52 -10.17,-220.16 -31.98,-8.48 -281.09,-6.92 -308.59,1.03l-7.8 31.36c-8.59,15.98 8.49,-1.39 -8.59,10.55z"/>
  <path class="fil6" d="M1436.46 2966.52c-32.74,11.95 -24.42,-5.54 -52.22,21l-0.3 27.35c21.55,19.63 20.14,16.25 52.7,16.3l-0.08 119.8c-28.68,0.12 -51.93,0.54 -53.21,29.97 -1.36,31.05 23.3,30.94 51.63,31.02l1.74 131.94c-27.14,0.04 -51.81,0.04 -53.09,28.7 -1.35,30.11 24.43,31.91 50.43,31.98 7.86,35.59 1.43,77.43 45.75,80.06 -9.53,-27.94 -38,-21.79 -28.46,-80.06 28.86,-0.04 52.35,-2.95 51.65,-31.7 -0.72,-29.72 -23.84,-28.96 -53.64,-28.98l1 -131.96c49.72,-0.07 58.79,-12.31 47.01,-53.94l-47.2 -8.65 0.72 -118.05c29.38,0.02 53.16,-2.99 52.1,-31.76 -1.03,-28.19 -23.93,-29.04 -53.37,-29.1 -0.98,-68.07 19.74,-77.81 85.81,-77.5l328.09 0.05c124.55,-0.18 102.79,15.45 102.79,237.21 0,23 -5.29,29.43 8.24,38.37 10.58,-58.67 4.45,-147.46 4.32,-209.92 0,-54.06 -25.07,-78.45 -80.03,-78.45l-383.58 0c-57.29,0 -78.18,30.07 -78.82,86.31z"/>
  <path class="fil6" d="M1847.68 3615.15l252.91 -2.07 -2.78 -248.12c-26.85,-7.6 -210.97,-4.45 -251.89,-2.39l1.76 252.59zm150.38 -86.32c10.19,13.08 10.03,8.38 31.91,8.44 21.41,0.06 26.89,4.8 37.41,-8.44 -16.03,-7.41 -53.09,-7.59 -69.32,0zm-1.21 39.47c14.61,8.13 56.89,7.92 71.89,0.29 -11.46,-15.75 -69.68,-10.62 -71.89,-0.29zm-75.7 -132.79c19.49,-1.2 14.78,2.92 26.59,-7.6 -12.05,-9.17 -9.85,-5.65 -27.34,-6.9l-6.41 -27.7c-12.71,8.45 -6.58,7.98 -9.48,28.52l-27.19 6.09 27.7 8.76c3.24,29.68 3,20.29 11.21,26.91l4.92 -28.07zm99.78 -7.6c-7.31,14.33 -8.92,9.77 -15.1,25.26 20.8,-1.64 11.65,-5.36 29.27,-14.08 8.47,8.62 8.38,12.39 24.73,14.35l-15.56 -25.05c8.09,-13.98 10.04,-9.93 15.26,-25.01 -17.03,2.08 -14.86,4.59 -23.3,14.69 -21.26,-9.75 -8.15,-13.42 -30.31,-14.72 5.07,15.24 6.81,11.78 15.02,24.56z"/>
  <path class="fil6" d="M1799.52 3240.61c17.08,-11.94 0,5.43 8.59,-10.55l7.8 -31.36c27.5,-7.95 276.61,-9.51 308.59,-1.03 19.9,31.63 10.63,168.19 10.17,220.16 -0.46,52.34 8.9,182.45 -7.98,217.1 -32.03,7.11 -278.99,8.36 -308.17,-0.93 -26.61,-22.3 10.14,-271.08 -16.49,-295.55 -8.24,16.71 -6.58,260.07 -3.37,280.82 5.32,34.35 31.85,32.52 64.81,32.33 314.43,-1.72 284.09,24.27 284.08,-107.64l0.04 -287.62c0.49,-98.37 -6.59,-75.09 -218.46,-75.09 -66.36,0 -141.28,-21.31 -129.61,59.35z"/>
  <path class="fil6" d="M1515.28 3564.33l-39.98 -35.11c9.11,-18.59 152.92,-157.34 187.01,-191.44 14.84,-14.85 46.12,-61.74 74.3,-40.85 40.37,29.93 -42.66,90.5 -91.54,139.62 -22.06,22.18 -40.78,41 -63.08,63.12 -21.48,21.32 -43.77,47.57 -66.7,64.67zm-126.45 86.13c87.99,-3.21 145.81,-87.48 216.57,-157.69 32.4,-32.15 60.85,-61.27 93.32,-93.41 49.51,-49 87.1,-71.05 48.96,-107.93 -39.47,-38.17 -71.23,10.19 -108.8,48.12 -35.47,35.83 -214.95,206.12 -227.58,236.4 -8.93,21.37 -19.89,51.56 -22.46,74.51z"/>
  <polygon class="fil9" points="1858.66,3602.63 1966.49,3602.24 1964.69,3494.92 1858.89,3494.87 "/>
  <path class="fil6" d="M1551.7 3020.29l-0.52 104.45c24.45,15.26 64.39,39.6 90.28,51.11l90.04 -50.66 0.82 -105.49c-125.82,-58.24 -52.11,-64.53 -180.61,0.59z"/>
  <polygon class="fil9" points="1860.09,3482.09 1965.83,3481.92 1966.32,3374.44 1858.43,3374.35 "/>
  <polygon class="fil9" points="1980.6,3482.12 2086.36,3481.64 2084.14,3374.04 1979.24,3374.58 "/>
  <polygon class="fil9" points="1981.37,3602.25 2085.26,3601.64 2084.42,3495.06 1978.94,3494.88 "/>
  <path class="fil6" d="M1861.69 3248.15l223.76 0.96 0.07 58.39 -226.96 -1.66 3.13 -57.69zm-15.92 18.3c0,48.07 -4.08,53.71 32.89,53.71 63.08,0 156.34,3.74 215.67,-3.56 13.74,-65.47 10.57,-81.38 -33.67,-81.56l-161.88 0.06c-33.35,-0.35 -53.02,-7.22 -53.02,31.35z"/>
  <path class="fil8" d="M1648.11 3154.85c8.8,-2.17 54.93,-25.86 62.12,-31.63 17.91,-14.37 9.36,-59.22 9.36,-82.98 -15.82,2.44 -55.47,26.78 -71.13,37.11l-0.35 77.5z"/>
  <path class="fil8" d="M1575.27 3024.25c0.82,0.9 2.19,0.99 2.61,2.56 0.85,3.2 52.46,35.7 63.71,35.84 11.3,0.14 21.87,-9.39 32.8,-15.59 12.1,-6.88 23.41,-11.12 33.73,-22.8 -9.66,-8.63 -55.92,-36.98 -66.5,-36.83 -8.89,0.12 -57.78,29.39 -66.34,36.83z"/>
  <path class="fil8" d="M1563.62 3110.03c16.57,19.26 49.52,40.07 71.74,45.37l-0.98 -79.26 -70.71 -37.33 -0.05 71.22z"/>
  <path class="fil9" d="M1420.8 3589.37c24.72,53.99 58.16,16.85 82.27,-11.58l-38.25 -39.2c-15.31,7.68 -38,30.16 -44.02,50.78z"/>
  <path class="fil9" d="M1444.67 3199.2c20.96,0.03 46.25,4.32 45.08,-18.19 -1.38,-26.47 -100.55,-27.27 -93.37,4.7 3.79,16.86 29.08,13.46 48.29,13.49z"/>
  <path class="fil9" d="M1424.03 3392.03c13.62,0.61 53.08,2.08 60.94,-5.3 41.18,-38.63 -73.34,-30.11 -86.67,-26.05 -4.54,23.76 -0.95,30.13 25.74,31.35z"/>
  <path class="fil9" d="M1398.1 2985.38l-0.28 29.11 61.91 4.87c48.12,1.61 35.39,-37.35 5.08,-36.09l-66.71 2.11z"/>
  <path class="fil6" d="M1570.23 3386.97c17.01,-6.56 35.82,-31.27 47.72,-43.15 13.53,-13.51 39.5,-33.21 46.15,-53.78 -24.97,8.7 -35.37,27.01 -51.69,43.36 -13.93,13.96 -40.46,31.06 -42.19,53.57z"/>
  <path class="fil6" d="M1793.33 3104.98c20.98,11.2 91.98,9.71 111.87,0 -10.65,-13.85 -6.77,-7.93 -56.81,-7.94 -10.13,-0 -20.68,-0.39 -30.7,-0.29 -34.52,0.35 -17.56,4.68 -24.35,8.22z"/>
  <path class="fil6" d="M2020.93 3427.91c-7.31,14.33 -8.92,9.77 -15.1,25.26 20.8,-1.64 11.65,-5.36 29.27,-14.08 8.47,8.62 8.38,12.39 24.73,14.35l-15.56 -25.05c8.09,-13.98 10.04,-9.93 15.26,-25.01 -17.03,2.08 -14.86,4.59 -23.3,14.69 -21.26,-9.75 -8.15,-13.42 -30.31,-14.72 5.07,15.24 6.81,11.78 15.02,24.56z"/>
  <path class="fil6" d="M1921.16 3435.51c19.49,-1.2 14.78,2.92 26.59,-7.6 -12.05,-9.17 -9.85,-5.65 -27.34,-6.9l-6.41 -27.7c-12.71,8.45 -6.58,7.98 -9.48,28.52l-27.19 6.09 27.7 8.76c3.24,29.68 3,20.29 11.21,26.91l4.92 -28.07z"/>
  <path class="fil6" d="M1793.6 3069.66c13.37,6.07 63.93,4.39 85.44,4.26 24.41,-0.15 17.97,3.92 25.7,-9.31 -15.02,-6.31 -37.85,-4 -56.35,-3.95 -67.76,0.16 -46.96,3.81 -54.79,9z"/>
  <path class="fil6" d="M1996.85 3568.3c14.61,8.13 56.89,7.92 71.89,0.29 -11.46,-15.75 -69.68,-10.62 -71.89,-0.29z"/>
  <path class="fil6" d="M1998.06 3528.83c10.19,13.08 10.03,8.38 31.91,8.44 21.41,0.06 26.89,4.8 37.41,-8.44 -16.03,-7.41 -53.09,-7.59 -69.32,0z"/>
  <path class="fil9" d="M1429.33 3624.69c-6.66,-17.1 2.69,-9.3 -15.58,-13.77l-5.38 21.48 20.96 -7.7z"/>
  <path class="fil6" d="M829.89 3173.22l35.25 87.87c11.41,31.14 27.27,63.03 32.87,95.49l-91.05 1.89c-5.36,-39.25 -34.85,-112.18 -51.06,-151.07l-10.49 -2.96c-3.54,29.05 36.5,113.86 45.54,150.26 -71.91,3.17 -45.2,3.5 -62.57,-34.11 -11.76,8.15 -2.92,-0.24 -14.2,25.03l-53.51 10.67 49.52 -147.74 -14.04 -3.04 -56.59 150.04 -85.81 -0.02 63.69 -184.87c-0.45,-21.69 9.81,-7.87 -11.35,-15.5l-54.19 154.83c-21.84,59.71 11.09,46.3 -172.52,46.3 -1.15,-1.6 -2.29,-6.24 -2.71,-5.25 -0.6,1.42 -13.26,-61.11 -54.94,-36.35 -21.8,12.94 -13.61,74.65 -8.16,98.25 46.28,11.89 55.45,6.35 57.61,-40.86l156.25 0.01c-15.09,66.75 -61.23,148.58 -68.82,211.61l50.5 1.09c-5.04,22.29 -23.59,53.3 -15.52,73.01 12.43,-7.14 4.83,0.65 12.59,-12.69l22.9 -59.3 47.09 -3.37 75.96 -209.27 57.19 -1.25 8.26 19.28c9.12,20.57 -9.04,5.11 12.52,18.33 12.67,-39.51 -15.61,-37.56 69.57,-37.2l74.41 210.66 48.02 1.93c11.55,23.24 13.35,57.55 34.68,73.41 11.72,-22.38 -9.68,-37.2 -12.85,-74.19l49.1 -1.76 -70.33 -209.89 154.64 -0.28c6.06,19.19 4.39,28.58 14.26,42.65 50.15,8.09 51.53,-9.78 51.18,-55.2 -0.37,-48.03 -6.35,-54.62 -54.4,-44.63l-9.74 39.52c-191.02,1.58 -154.56,27.19 -197.7,-96.54 -12.09,-34.67 -25.78,-71.01 -35.49,-103.26 -21.21,10.64 -8.83,-9.47 -15.58,18.49z"/>
  <path class="fil5" d="M480.21 3567.71l84.07 -0.09 70.64 -194.43c-93.28,-1.11 -85.13,-10.84 -101.82,38.3 -13.01,38.31 -49.03,126.11 -52.89,156.22z"/>
  <polygon class="fil5" points="886.29,3567.9 971.01,3567.62 904.9,3372.43 819,3369.73 "/>
  <path class="fil5" d="M755.9 3207.4c16.21,38.89 45.7,111.82 51.06,151.07l91.05 -1.89c-5.6,-32.46 -21.46,-64.35 -32.87,-95.49l-35.25 -87.87c-24.26,16.78 -38.8,28.26 -73.99,34.18z"/>
  <path class="fil5" d="M696.15 3205.51c-35.69,0.1 -58.51,-21.85 -78.71,-34.85l-63.69 184.87 85.81 0.02 56.59 -150.04z"/>
  <path class="fil6" d="M707.35 2950.13c148.23,-25.59 181.22,200.31 37.88,222.4 -149.83,23.09 -183.07,-197.35 -37.88,-222.4zm-17.76 -11.76c-162.3,50.17 -91.36,293.64 73.27,247.14 56.88,-16.07 107.68,-82.59 87.51,-157.02 -16.4,-60.55 -81.54,-114.62 -160.78,-90.13z"/>
  <path class="fil5" d="M681.24 2835.8c23.43,9.35 64.45,8.71 87.85,0.72l0.87 -125.8c-25.81,-7.31 -63.7,-8.07 -87.37,0.69l-1.34 124.39z"/>
  <path class="fil6" d="M682.58 2711.4c23.67,-8.76 61.56,-8 87.37,-0.69l-0.87 125.8c-23.4,7.99 -64.42,8.63 -87.85,-0.72l1.34 -124.39zm-17.9 20.41l1.63 113.77c13.23,10.72 16.72,7.97 28.85,19.44 0,23.09 -3.96,34.91 7.83,53.46l8.3 -57.76 29.18 -1.45c0.03,24.37 -3.93,39.46 6.94,58.96 7.57,-9.94 4.33,10.44 9.3,-21.16 0.83,-5.3 -0.14,-25.26 -0.14,-32.06 11.5,-11.03 16.19,-8.87 28.28,-17.61l1.83 -115.6c-0.11,-48.65 -11.79,-41.53 -83.65,-41.53 -33.98,0 -38.34,9.32 -38.34,41.53z"/>
  <path class="fil4" d="M703.17 3015.91c-65.24,37.39 -10.3,120.34 46.24,92.09 55.51,-27.73 16.02,-127.78 -46.24,-92.09z"/>
  <path class="fil6" d="M703.17 3015.91c62.26,-35.68 101.75,64.36 46.25,92.09 -56.55,28.25 -111.49,-54.7 -46.25,-92.09zm2.34 -17.86c-30.59,11.95 -59.77,37.25 -44.13,86.09 9.87,30.81 44.32,55.44 86.82,41.53 86.19,-28.21 39.67,-159.78 -42.7,-127.63z"/>
  <path class="fil8" d="M349.98 3400.09c7.63,-22.27 8.19,-55.12 -2.32,-72.48l-19.13 1.07c-4.2,15.6 -4.76,34.64 -3.49,50.41 1.64,20.56 3.88,22.61 24.94,21z"/>
  <path class="fil8" d="M1103.7 3397.99c33.13,13.22 24.93,-38.75 21.39,-67.25l-27.04 -2.53c-0.71,13.52 -1.45,26.43 -1.28,38.25l6.93 31.53z"/>
  <path class="fil4" d="M4408.4 2114.45l-0.21 0.35c0.83,0.09 1.66,0.17 2.51,0.28l-2.3 -0.63zm-1.34 2.56c-0.44,1.03 -0.64,1.82 -0.7,2.42 7.56,3.2 41.17,7.24 85.75,3.42l169.89 0.04c-12.68,20.36 -31.82,24.18 -31.69,63.19 0.13,40.06 20.97,42.74 31.51,62.5 -85.98,1.6 -203.1,5.87 -286.68,0.01 -37.84,-2.65 -69.57,-36.26 -58.27,-79.16 5.42,-20.57 16.8,-31.66 32.11,-39.26 21.15,-10.5 36.09,-5.51 44.6,-7.23l1.06 -0.21 0 0c21.83,-4.22 9.15,3.93 16.14,-7.62 1.12,0.3 2.14,0.55 3.06,0.77 -0.68,0.19 -1.26,0.39 -1.67,0.6 -2.22,0.11 -3.91,0.29 -5.12,0.53z"/>
  <path class="fil6" d="M4412.18 2116.48c-25.05,1.23 16.26,11.83 79.94,6.37l169.89 0.04c-12.68,20.36 -31.82,24.18 -31.69,63.19 0.13,40.06 20.97,42.74 31.51,62.5 -85.98,1.6 -203.1,5.87 -286.68,0.01 -37.84,-2.65 -69.57,-36.26 -58.27,-79.16 5.42,-20.57 16.8,-31.66 32.11,-39.26 21.15,-10.5 36.09,-5.51 44.6,-7.23 23.31,-4.7 10.1,3.91 17.22,-7.84 -130.46,-17.15 -140.73,141.81 -24.92,143.36 40.19,0.54 308.09,5.11 321.4,-4.17 -0.67,-0.68 -1.74,-1.46 -2.26,-1.78 -22.78,-13.98 12.54,1.29 -15.96,-6.29 -53.48,-14.21 -57.62,-69.22 -35.19,-99.34 32.16,-43.18 106.22,-25.73 111.34,35.29l0.5 375.25c-9.07,17.11 1.28,-0.63 -8.42,7.78 -6.99,6.06 -3.78,-1.59 -7.67,7.39 12.89,4.33 17.61,-0.4 24.37,-5.91 3.9,-6.99 1.97,-340.6 1.34,-376.86 -1.39,-80.54 -69.9,-76.66 -112.67,-76.61 -29.05,0.02 -235.17,-4.52 -250.49,3.29z"/>
  <path class="fil6" d="M4853.35 2645.24l-10.02 -15.56 16.42 -0.2 -6.4 15.76zm-16.33 -27.22c-10.17,-16.74 -8.89,-30.09 -6.54,-51.81l42.93 0.41c1.02,10.84 2.88,32.4 -0.58,42.07 -5.61,15.7 -18.12,11.99 -35.81,9.33zm-22.74 -301.43c-10.78,-7.3 -4.69,6.31 -7.59,-12.81l0.06 -80.02c-0.12,-18.03 -3.4,-16.72 7.53,-24.12 10.4,14.86 5.07,68.94 5.31,88.77 0.27,22.38 0.95,19.15 -5.31,28.17zm-13.84 -121.98c-5.57,19.37 -5.52,107.52 -0.09,127.03 16.06,8.57 15.15,-1.28 19.64,12.2 0,60.62 -0.01,121.25 0,181.88 0.01,57.88 -7.99,90.43 22.13,138.69 8.64,13.85 2.29,5.45 10.07,10.74l29.77 -55.63c5.05,-18.91 1.62,-367.87 1.94,-415.89 0.19,-28.52 -0.39,-53.06 -31.71,-53.31 -31.59,-0.26 -31.65,20.27 -32.47,47.8l-19.28 6.48z"/>
  <path class="fil6" d="M4706.53 2216.39c-11.84,-8.41 -48.26,-18.31 -23.87,-48.18 14.92,-18.27 42.79,-8.78 46.41,15.07 5.25,34.63 0.52,118.39 0.52,158.15 0,53.28 6.54,282.88 -5.25,311.31 -30.14,6.89 -224.08,2.97 -281.49,2.97 -25.35,0 -66.24,7.36 -80.87,-10.68 -9.44,-17.37 2.24,-337.49 -3.11,-367.63 -1.81,-10.2 -1.23,-5.24 -3.19,-9 -4.2,5.23 -5.7,2.12 -6.02,23.56 -0.93,61.6 -1.62,346.64 3.61,358.47 9.87,22.31 58.34,14.89 85.79,14.89 31.59,0 63.17,0 94.76,0 219.75,0 205.39,21.13 205.38,-81.39l0 -359.97c0.04,-28.31 4.03,-56.7 -18.54,-69.54 -40.04,-22.77 -71.74,32.93 -43.07,58.48 2.15,1.92 11.53,7.23 16,7.72 16.81,1.83 8.61,0.36 12.95,-4.25z"/>
  <path class="fil5" d="M4829.69 2178.5c2.1,66.05 -2,136.3 0.63,196.08l43.05 0.15 0.7 -196.24c0,-15.78 -1.41,-15.99 -6.83,-25.71 -27.52,-6.44 -38.5,-2.76 -37.54,25.71z"/>
  <polygon class="fil5" points="4829.76,2555.28 4872.83,2555.61 4873.93,2385.75 4831.62,2385.43 "/>
  <path class="fil6" d="M4462.06 2315.46c-6.62,18.85 -9.04,40.07 14.48,42.4 16.3,1.61 46.99,-0.08 64.85,-0.09 67.82,-0.02 104.06,12.14 85.81,-41.39 -17.87,-8.13 -145.02,-7.8 -165.14,-0.92z"/>
  <polygon class="fil8" points="4469.14,2348.67 4620.22,2347.16 4620.06,2321.8 4468.35,2322.18 "/>
  <path class="fil4" d="M3637.14 2138.38c-19.44,27.08 -40.61,-7.91 -40.29,68.87 0.37,90.26 -4.24,234.76 0.5,311.98 36.74,-17.43 18.85,-15.66 70.31,-15.58 60.13,0.1 217.18,3.42 257.5,-0.88l0.48 -76.54c-17.11,2.6 -23.2,-8.71 -31.75,-17.55 -23.96,-24.76 -65.23,-57.05 -71.96,-83.34 -10.74,-42.04 24.71,-83.74 72.05,-74.98 19.38,3.59 23.12,11.09 31.26,18.99 0.04,-27.59 3.57,-95.29 -2.71,-117.46 -22.58,-11.51 -169.72,-5.56 -210.04,-5.56 -10.53,-3.2 -5.31,1.24 -8.43,-9.36l-4.6 2.94c-0.51,0.3 -3.26,1.37 -4.22,2.01 -9.38,-5.24 0.33,-1.86 -10.32,-5.26 -14.31,-4.56 -26.76,-3.03 -38.16,5.77l-9.64 -4.07z"/>
  <path class="fil9" d="M3637.57 2562.45c13.68,5.02 19.39,4.73 33.13,0l7.74 -0.35 1 22.73c29.41,3.74 217.59,3.48 240.78,-1.49 6.98,-15.89 7.38,-48.28 3.91,-70.44 -65.87,-4.65 -147.47,-0.52 -215.07,-0.52 -25.83,0 -80.53,-5.2 -97.88,7.27 -23.76,17.08 -18.72,59.72 17.94,64.27l0.93 -21.45 7.54 -0.02z"/>
  <path class="fil6" d="M3929.76 2286.9c0,0 0,0 0,0z"/>
  <path class="fil8" d="M3860 2345.63c16.21,-29.94 33.81,-27.57 28.55,15.3l-7.33 5.5c50.73,67.71 57.52,38.9 95.86,1.91 11.54,-11.13 34.26,-28.29 39.44,-46.61 7.02,-24.84 -9.14,-47.15 -29.59,-51.02 -30.05,-5.69 -41.41,16.7 -57.17,27.62 -17.54,-10.31 -36.31,-44.59 -71.66,-21.31 -25.43,16.75 -20.5,53.98 1.9,68.61z"/>
  <path class="fil6" d="M3670.7 2562.45l-0.58 61.48c-24.1,-11.92 -8.24,-10.65 -31.95,0.01l-0.6 -61.5 -7.54 0.02 -0.93 21.45c-36.66,-4.56 -41.69,-47.19 -17.94,-64.27 17.35,-12.47 72.05,-7.27 97.88,-7.27 67.61,0 149.2,-4.13 215.07,0.52 3.47,22.16 3.07,54.55 -3.91,70.44 -23.18,4.96 -211.36,5.22 -240.78,1.49l-1 -22.73 -7.74 0.35zm254.94 -136.22l-0.48 76.54c-40.32,4.3 -197.37,0.98 -257.5,0.88 -51.46,-0.08 -33.57,-1.85 -70.31,15.58 -4.74,-77.22 -0.13,-221.72 -0.5,-311.98 -0.31,-76.78 20.85,-41.79 40.29,-68.87 -51.21,-3 -49.06,44.43 -49.05,89.62l0 275.81c0,33.29 -6.56,65.53 20.91,82.86 22.17,13.99 19.89,-6.47 20.8,51.89 11.86,-1.76 16.42,-6.96 24.06,-12.45l24.83 12.9 1.26 -43.52c53.42,-6.28 147.54,-1.2 204.99,-0.85 50.98,0.31 49.24,-7.74 49.08,-56.35 -0.11,-34.47 -0,-68.96 -0,-103.43 -2.92,-10.05 1.09,-5.23 -8.37,-8.64z"/>
  <path class="fil6" d="M3658.76 2204.31l64.98 -0.31 0.02 227.41 -0.12 14.8 -64.87 -1.69 -0.01 -240.22zm57.19 250.42c16.65,0 16.38,0.67 16.93,-15.96l-0.75 -241.87 -81.94 -0.45c-1.36,46.13 -3.78,224.2 1.71,257.61l64.04 0.68z"/>
  <path class="fil6" d="M3925.25 2269.36c4.41,9.44 -1.22,3.09 7.03,5.73 4.38,-21.58 1.65,-67.52 1.77,-91.91 0.21,-40.49 -4.86,-45.86 -45.66,-45.67 -59.05,0.29 -126.15,2.77 -184.32,-0.53 3.11,10.59 -2.1,6.15 8.43,9.36 40.32,0 187.46,-5.96 210.04,5.56 6.28,22.17 2.75,89.87 2.71,117.46z"/>
  <path class="fil4" d="M3670.7 2562.45c-13.74,4.73 -19.45,5.02 -33.13,0l0.6 61.5c23.7,-10.67 7.85,-11.93 31.95,-0.01l0.58 -61.48z"/>
  <path class="fil10" d="M3934.73 2352.95c-2.9,-34.94 -31.97,-22.33 -35.49,-7.04 -5.68,24.68 20.72,30.65 33.14,17.17 -10.1,-7.55 -15.99,8.71 -25.19,-9.3l27.54 -0.83z"/>
  <path class="fil6" d="M3757.45 2424.52c5.78,9.13 10.13,5.78 23.93,5.63 23.59,-0.26 74.47,4.43 81.56,-6.91 -26.49,-2.92 -80.34,-3.94 -105.49,1.28z"/>
  <path class="fil10" d="M3860 2345.63c4.92,9.88 11.08,16.29 21.22,20.8l7.33 -5.5c5.26,-42.87 -12.34,-45.24 -28.55,-15.3z"/>
  <path class="fil6" d="M3802.46 2445.85l-44.87 2.8c5.94,4.07 -9.37,3.77 9.83,6.33l45.61 -2.88c-3.78,-6.3 5.63,-4.22 -10.57,-6.25z"/>
  <path class="fil11" d="M4667.19 1449.71l0 -1.61 95.24 -1.09 0 0.65c7.29,-0.06 14.8,0.29 22.77,1.35l0.01 -1.08c206.33,-1.37 171.55,27.54 173.43,-364.39 0.61,-125.19 -8.44,-136.27 -132.47,-135.77 -63.6,0.26 -205.99,7.07 -266.19,-2.73 -12.04,0 -24.47,-2.58 -36.38,-4.46 -1.46,1.07 -3.22,2.58 -5.37,4.8 -31.2,5.03 -70.96,-0.3 -104.44,2.95 -37,3.6 -49.75,20.3 -59.97,31.6 1.1,16.89 1.48,33.88 1.48,50.98 0,68.87 3.25,268.88 -2.19,357.7l6.37 35.39 -1.57 0.01c5.57,6.87 10.76,14.88 15.45,24.06l156.04 0.06 0 2.05c45.83,-6.5 92.75,-6.64 137.76,-0.46zm-178.64 -28.36c1.68,-1.26 3.38,-2.5 5.09,-3.74l0 -0c1.71,-1.24 3.44,-2.46 5.19,-3.69l0 -0c1.75,-1.22 3.51,-2.43 5.28,-3.62l0 -0c1.78,-1.2 3.57,-2.38 5.37,-3.56l0 -0c1.81,-1.18 3.63,-2.35 5.47,-3.5 1.83,-1.16 3.69,-2.3 5.56,-3.44l0 -0c1.87,-1.14 3.75,-2.26 5.65,-3.38l0 -0c1.9,-1.12 3.81,-2.22 5.73,-3.32l0 -0c1.93,-1.09 3.86,-2.18 5.81,-3.26l0 -0c1.95,-1.08 3.92,-2.14 5.9,-3.19l0 -0c1.98,-1.06 3.97,-2.1 5.98,-3.13 2,-1.04 4.03,-2.06 6.06,-3.07 2.03,-1.02 4.08,-2.02 6.14,-3.01 2.06,-1 4.13,-1.98 6.21,-2.95l0 -0c2.08,-0.97 4.17,-1.93 6.28,-2.89 2.11,-0.95 4.23,-1.89 6.36,-2.83 2.13,-0.93 4.27,-1.85 6.43,-2.76 2.15,-0.91 4.32,-1.81 6.5,-2.7 2.18,-0.89 4.37,-1.77 6.56,-2.64 2.2,-0.87 4.41,-1.72 6.63,-2.57 2.22,-0.85 4.45,-1.69 6.69,-2.51l0 -0c2.24,-0.83 4.49,-1.64 6.75,-2.45 2.26,-0.8 4.53,-1.6 6.81,-2.39 2.28,-0.78 4.57,-1.56 6.87,-2.32l0 -0c2.3,-0.76 4.61,-1.51 6.93,-2.26l0 -0c2.32,-0.74 4.64,-1.48 6.98,-2.2 2.33,-0.72 4.68,-1.43 7.03,-2.13l0 -0 7.08 -2.07c2.37,-0.68 4.74,-1.35 7.13,-2.01 2.39,-0.66 4.78,-1.3 7.18,-1.94 2.4,-0.64 4.81,-1.26 7.22,-1.88l0 -0 7.26 -1.81c2.43,-0.59 4.87,-1.18 7.31,-1.75l7.34 -1.69c2.45,-0.55 4.91,-1.09 7.38,-1.62 2.46,-0.53 4.94,-1.05 7.42,-1.56l7.45 -1.49 0 -0c2.49,-0.49 4.98,-0.96 7.48,-1.43l7.51 -1.36c2.51,-0.44 5.02,-0.88 7.54,-1.3l7.57 -1.23c2.53,-0.4 5.06,-0.79 7.59,-1.17l7.62 -1.1 7.64 -1.04c2.55,-0.33 5.1,-0.66 7.66,-0.97l7.68 -0.91c2.56,-0.29 5.13,-0.57 7.69,-0.84 2.56,-0.27 5.13,-0.53 7.7,-0.78 2.57,-0.25 5.15,-0.48 7.72,-0.7l7.73 -0.64c2.58,-0.2 5.16,-0.4 7.74,-0.58 2.58,-0.18 5.16,-0.35 7.74,-0.51l7.75 -0.44c2.59,-0.14 5.17,-0.26 7.75,-0.38 2.59,-0.11 5.17,-0.22 7.76,-0.31 2.59,-0.09 5.17,-0.17 7.76,-0.24 2.58,-0.07 5.17,-0.13 7.76,-0.18 2.58,-0.05 5.17,-0.09 7.75,-0.11 2.58,-0.03 5.17,-0.04 7.74,-0.04 2.58,-0 5.16,0 7.74,0.02 2.58,0.02 5.15,0.05 7.73,0.09l7.72 0.16 7.7 0.23c2.57,0.09 5.13,0.19 7.69,0.3l0 2.37 0.02 2.33 0.03 2.3 0.04 2.26 0.05 2.22 0.06 2.18 0.07 2.15 0.07 2.11 0.08 2.08 0.08 2.05 0.08 2.01 0.09 1.98 0.09 1.95 0.09 1.92 0.08 1.9 0.08 1.87 0.08 1.84 0.07 1.81 0.07 1.79 0.06 1.76 0.05 1.74 0.04 1.72 0 0 0.03 1.7 0.02 1.68 0.01 1.66 -0 1.64 -0.02 1.62 -0.04 1.61 -0.05 1.59 -0.07 1.57 -0.09 1.56 -0.11 1.54 -0.13 1.53 -0.15 1.52 -0.18 1.51 -0.2 1.5 -0.23 1.49 -0.25 1.48 -0 0 -0.28 1.48 -0.31 1.46 -0 0 -0.34 1.46 -0 0 -0.37 1.46 -0 0 -0.4 1.45 -0 0 -0.44 1.45 -0.47 1.45 -0 0 -0.51 1.44 -0.55 1.45 -0.59 1.44 -0.62 1.45 -0.67 1.45 -0.7 1.45 -0.75 1.46 -0 0 -0.79 1.46 -0 0 -0.83 1.47 -0 0 -0.88 1.48 -0 0 -0.93 1.48 -0 0 -0.98 1.49 -1.02 1.5 -0 0 -1.07 1.51 -0 0 -1.13 1.52 -0 0 -1.17 1.53 -0 0 -1.23 1.54 -0 0 -1.28 1.56 -0 0 -1.34 1.57 -0 0c-0.48,0.22 -1.04,0.44 -1.67,0.65l-0 0c-0.63,0.21 -1.33,0.43 -2.11,0.63l-0 0c-0.78,0.2 -1.62,0.41 -2.54,0.61l-0 0c-0.92,0.2 -1.91,0.39 -2.96,0.58l-0 0c-1.06,0.19 -2.17,0.38 -3.36,0.56l-0 0c-1.19,0.19 -2.44,0.36 -3.75,0.54l-0 0 -4.13 0.52 -4.49 0.5 -0 0 -4.84 0.48 -0 0 -5.17 0.45 -0 0 -5.5 0.43 -5.8 0.41 -0 0 -6.09 0.39 -6.37 0.37 -0 0 -6.64 0.35 -6.89 0.33 -0 0 -7.13 0.31 -0 0 -7.35 0.3 -7.56 0.27 -7.76 0.26 -0 0 -7.94 0.23 -8.11 0.22 -0 0 -8.26 0.2 -8.4 0.18 -8.53 0.16 -8.64 0.15 -8.74 0.13 -0 0 -8.82 0.11 -8.89 0.09 -8.95 0.07 -8.99 0.06 -0 0 -9.02 0.04 -0 0 -9.04 0.03 -0 0 -9.04 0.02 -9.03 -0 -0 0 -9 -0.02 -8.96 -0.03 -0 0 -8.91 -0.05 -8.84 -0.06 -0 0 -8.76 -0.08 -8.66 -0.09 -0 0 -8.55 -0.11 -0 0 -8.43 -0.12 -0 0 -8.29 -0.13 0 -0 -8.14 -0.14 0 -0 -7.98 -0.16 -0 0 -7.8 -0.17 0 -0 -7.61 -0.18 0 -0c-5,-0.13 -9.87,-0.26 -14.58,-0.4l0 -0 -6.94 -0.22 0 -0 -6.7 -0.23 0 -0 -6.43 -0.24 0 -0c-4.2,-0.17 -8.22,-0.34 -12.03,-0.52 -5.72,-0.27 -10.98,-0.56 -15.73,-0.86l0 -0 -4.57 -0.3 0 -0 -4.21 -0.31 0 -0 -3.84 -0.32 0 -0 -3.45 -0.33 0 -0 -3.05 -0.34 0 -0 -2.64 -0.35 0 -0zm-107.39 -20.32c-0.28,-0.19 -0.55,-0.4 -0.82,-0.66 -0.27,-0.25 -0.53,-0.54 -0.79,-0.86 -0.26,-0.32 -0.51,-0.68 -0.76,-1.07 -0.25,-0.39 -0.49,-0.81 -0.72,-1.26 -0.24,-0.45 -0.46,-0.94 -0.69,-1.45 -0.22,-0.51 -0.44,-1.06 -0.66,-1.63 -0.22,-0.57 -0.43,-1.18 -0.63,-1.81l-0.6 -1.98c-0.2,-0.69 -0.39,-1.41 -0.57,-2.15l-0.54 -2.3 -0.51 -2.46 -0.49 -2.6 -0.46 -2.74 -0.43 -2.87 -0.41 -3 -0.38 -3.12 -0.35 -3.24 -0.33 -3.34 -0.3 -3.44 -0.28 -3.54 -0.26 -3.63 -0.23 -3.71 -0.2 -3.79 -0.19 -3.86 -0.16 -3.93 -0.14 -3.98 -0.12 -4.03 -0.1 -4.07 0 -0 -0.08 -4.11 -0.06 -4.15 0 -0 -0.04 -4.17 -0.02 -4.19 -0 0 0 -4.21 0.01 -4.21 0 -0 0.03 -4.21 0 0 0.05 -4.21 0.07 -4.2 0 -0 0.08 -4.18 0 -0 0.1 -4.15 0 -0c0.07,-2.76 0.15,-5.5 0.24,-8.21l0 -0 0.14 -4.04 0 -0 0.15 -4 0.17 -3.94 0 -0 0.18 -3.88 0.19 -3.81 0 -0 0.2 -3.74 0 0 0.21 -3.66 0 0 0.46 -7.05 0.25 -3.38 0 0 0.26 -3.27 0.27 -3.16 0 -0 0.28 -3.04 0 0 0.28 -2.92 0 0 0.29 -2.78 0.3 -2.65 0.31 -2.5c0.21,-1.62 0.41,-3.14 0.63,-4.56l0 0 0.32 -2.04 0.33 -1.87 0 0 0.33 -1.69 0 0 0.33 -1.51 0 0 4.57 -0.56 0 0 4.6 -0.52 0 0 4.63 -0.48 4.67 -0.43 0 0 4.69 -0.39 4.72 -0.34 0 0 4.74 -0.3 0 0 4.76 -0.26 4.78 -0.21 0 0 4.8 -0.16 4.81 -0.12 0 0 4.82 -0.07 0 -0 4.83 -0.02 0 0 4.85 0.02c4.85,0.04 9.72,0.15 14.58,0.34l0 0 4.87 0.2 0 0 4.87 0.25 0 0 4.87 0.3 4.86 0.35 4.86 0.4c3.24,0.28 6.46,0.59 9.69,0.94l4.83 0.54 4.81 0.59 0 0 4.8 0.64 0 0 4.78 0.69 4.76 0.74 0 0 4.74 0.79 4.72 0.84 4.7 0.89 4.67 0.94 4.64 0.99 0 0 4.61 1.04 0 0 4.57 1.09 0 0 4.54 1.15c1.51,0.39 3.01,0.79 4.51,1.2l4.47 1.25 0 0 4.43 1.3c1.47,0.44 2.93,0.89 4.39,1.35l4.34 1.41 4.3 1.46 0 0 4.25 1.51c1.41,0.51 2.81,1.04 4.2,1.57 1.39,0.53 2.77,1.07 4.15,1.62l0 0c1.37,0.55 2.74,1.11 4.09,1.67l0 0c1.36,0.57 2.7,1.14 4.04,1.73l0 0c1.33,0.58 2.66,1.18 3.98,1.78l0 0c1.31,0.6 2.62,1.21 3.92,1.83 1.3,0.62 2.58,1.25 3.86,1.89l0 0c1.28,0.64 2.54,1.29 3.8,1.94l0 0c1.26,0.66 2.5,1.32 3.73,2l0 0c1.23,0.67 2.45,1.37 3.66,2.06l0 0c1.21,0.7 2.41,1.4 3.59,2.11l0 0c1.19,0.71 2.36,1.44 3.52,2.17l0 0c1.16,0.73 2.31,1.47 3.45,2.22l0 0c1.14,0.75 2.27,1.51 3.38,2.28l0 0c1.11,0.77 2.22,1.55 3.3,2.34l0 0c1.09,0.79 2.16,1.59 3.22,2.39l0 0c1.06,0.81 2.11,1.62 3.14,2.45l0 0c1.04,0.83 2.06,1.66 3.06,2.51l0 0c1.01,0.85 2,1.7 2.97,2.57l0 0c0.98,0.87 1.94,1.74 2.89,2.62l0 0 1.19 0.49 1.17 0.49 1.15 0.5 1.13 0.5 1.11 0.5 1.08 0.5 1.06 0.5 1.04 0.5 1.02 0.5 0 0 1 0.51 0 0 0.98 0.51 0 0 0.96 0.52 0.95 0.52 0.93 0.52 0 0 0.91 0.53 0 0 0.9 0.53 0.88 0.53 0.87 0.54 0 0 0.85 0.54 0 0 0.83 0.55 0 0 0.82 0.55 0.81 0.56 0 0 0.8 0.56 0 0 0.78 0.57 0.77 0.57 0 0 0.76 0.58 0.75 0.59 0 0 0.74 0.59 0 0 0.73 0.59 0 0 0.72 0.61 0 0 0.71 0.61 0 0 0.7 0.61 0 0 0.69 0.62 0.69 0.63 0 0 0.68 0.64 0 0 0.67 0.65 0 0 0.66 0.65 0 0 0.66 0.67 0 0 0.65 0.67 0 0 0.65 0.68 0 0 0.65 0.69 0 0 0.64 0.7 0 0 0.64 0.7 0 0 0.63 0.71 0 0 0.63 0.72 0 0 0.63 0.74 0 0 0.63 0.74 0 0 0.63 0.76 0 0 0.63 0.76 0 0 0.63 0.78 0 0 0.63 0.79 0 0 0.63 0.8 0 0 0.63 0.81 0 0 0.64 0.82 0 0 0.64 0.83 0 0 0.64 0.84 0 0 0.65 0.85 0 0 0.65 0.87 0 0 0.65 0.88 0 0 0.66 0.89 0 0 0.66 0.91 0 0 0.67 0.92 0 0 0.68 0.93 0 0 0.69 0.94 0 0 -11.91 3.73 0 0 -2.92 0.91 0 0 -8.64 2.71 -0 0 -2.84 0.89 -5.63 1.77 0 0 -8.31 2.63 -2.74 0.87 -2.72 0.87 0 0 -5.41 1.74 -0 0 -2.68 0.87 0 0 -2.67 0.87 0 0 -2.66 0.87 -2.65 0.87 -2.63 0.87 -2.63 0.87 -2.61 0.88 -2.6 0.88 -2.6 0.88 0 0 -2.59 0.89 -2.58 0.89 -2.57 0.89 0 0 -2.57 0.9 -2.56 0.91 -2.55 0.91 0 0 -2.55 0.92 -2.54 0.93 -2.54 0.93 0 0 -2.54 0.94 -0 0 -2.53 0.95 0 0 -2.53 0.96 0 0 -2.53 0.97 -2.53 0.98 0 0 -2.53 0.99 -2.53 1 -2.53 1.01 -0 0 -2.53 1.02 -2.53 1.04 -2.53 1.05 -0 0 -2.54 1.06 0 0 -2.54 1.07 -2.54 1.09 0 0 -2.55 1.1 0 0 -5.11 2.25 -0 0 -2.56 1.15 -2.57 1.16 0 0 -2.58 1.18 0 0 -2.59 1.2 -2.59 1.22 -2.6 1.23 -0 0 -2.61 1.25 -0 0 -2.62 1.27 -0 0 -2.63 1.29 -2.64 1.31 -0 0 -2.65 1.33 -0 0 -3.73 1.9 -0 0 -3.66 1.91 -0 0 -3.6 1.92 -0 0c-2.38,1.28 -4.72,2.57 -7.02,3.85l-0 0 -3.41 1.92 0 0 -3.35 1.92 -0 0 -3.3 1.91 -0 0 -3.24 1.91 0 0 -3.18 1.89 -0 0 -3.13 1.88 0 0 -6.09 3.71 -0 0 -2.96 1.82 0 0 -8.6 5.32 -5.49 3.39 0 0 -2.68 1.64 0 0 -2.63 1.6 -2.59 1.56 -2.55 1.52 0 0c-1.69,1 -3.34,1.96 -4.97,2.89l0 0 -2.43 1.37 0 0 -2.39 1.31 0 0 -2.35 1.26 -2.31 1.2 -0 0 -2.28 1.13 0 0c-1.51,0.74 -3,1.43 -4.47,2.07l-2.19 0.93 -2.16 0.86 -2.13 0.78 -2.1 0.7 0 0c-0.7,0.22 -1.39,0.43 -2.08,0.63l-2.05 0.54c-0.68,0.17 -1.35,0.32 -2.02,0.46 -0.67,0.14 -1.34,0.26 -2,0.37 -0.67,0.11 -1.33,0.2 -1.98,0.28 -0.66,0.07 -1.31,0.14 -1.96,0.19 -0.65,0.05 -1.3,0.07 -1.94,0.09 -0.65,0.01 -1.29,0.01 -1.93,-0.01 -0.64,-0.02 -1.27,-0.06 -1.91,-0.11 -0.63,-0.06 -1.26,-0.13 -1.89,-0.21 -0.63,-0.09 -1.25,-0.19 -1.87,-0.32 -0.62,-0.13 -1.24,-0.26 -1.86,-0.43 -0.62,-0.16 -1.23,-0.34 -1.85,-0.54 -0.61,-0.2 -1.23,-0.42 -1.84,-0.65 -0.61,-0.24 -1.22,-0.49 -1.82,-0.77 -0.61,-0.28 -1.22,-0.57 -1.82,-0.89 -0.6,-0.31 -1.2,-0.65 -1.81,-1.01 -0.6,-0.36 -1.2,-0.74 -1.8,-1.13 -0.6,-0.4 -1.2,-0.82 -1.8,-1.26 -0.6,-0.44 -1.2,-0.91 -1.79,-1.39 -0.6,-0.48 -1.19,-0.99 -1.78,-1.52 -0.59,-0.53 -1.19,-1.08 -1.78,-1.66 -0.59,-0.57 -1.19,-1.17 -1.78,-1.79 -0.59,-0.62 -1.19,-1.26 -1.78,-1.93 -0.59,-0.67 -1.19,-1.36 -1.78,-2.07 -0.59,-0.72 -1.19,-1.45 -1.78,-2.22 -0.59,-0.76 -1.19,-1.55 -1.79,-2.37 -0.6,-0.81 -1.19,-1.65 -1.79,-2.52zm-10.23 -224.04c-0.37,-163.11 -21.26,-205.5 65.22,-205.5 533.25,0 499.3,-36.99 498.85,120.11 -0.18,63.12 0.84,126.66 -0.35,189.71 -36.61,6.39 -122.3,6.95 -167.56,11.01 -83.87,7.54 -108.46,-143.04 -396.17,-115.33z"/>
  <path class="fil12" d="M4762.43 1447.65l0 -0.65 -95.24 1.09 0 1.61c4.2,0.57 8.39,1.2 12.57,1.89 4.7,0.06 10.13,0.11 16.55,0.11 24.68,0 44.47,-3.86 66.12,-4.05z"/>
  <path class="fil13" d="M4518.24 939.72l0 5.64c2.15,-2.21 3.92,-3.72 5.37,-4.8l-5.37 -0.85z"/>
  <path class="fil14" d="M4538.07 1424.72l0 0 6.43 0.24 0 0 6.7 0.23 0 0 6.94 0.22 0 0c4.71,0.14 9.57,0.28 14.58,0.4l-34.65 -1.1zm-49.52 -3.38l-0 0 0 0 0 -0z"/>
  <path class="fil14" d="M4381.16 1401.03c19.77,-2.59 42.21,-24.26 61.65,-36.56 18.94,-12 43.23,-27.57 65.83,-39.28 35.63,-18.46 121.02,-42.43 145.46,-63.3l-0 0c-0.95,-0.88 -1.91,-1.76 -2.89,-2.62l-0 0c-0.98,-0.86 -1.97,-1.72 -2.97,-2.57l-0 0c-1.01,-0.85 -2.03,-1.68 -3.06,-2.51l-0 0c-1.03,-0.83 -2.09,-1.64 -3.14,-2.45l-0 0c-1.06,-0.81 -2.14,-1.61 -3.22,-2.39l-0 0c-1.09,-0.79 -2.19,-1.57 -3.3,-2.34l-0 0c-1.11,-0.77 -2.24,-1.53 -3.38,-2.28l-0 0c-1.14,-0.75 -2.29,-1.49 -3.45,-2.22l-0 0c-1.17,-0.73 -2.34,-1.46 -3.52,-2.17l-0 0c-1.19,-0.71 -2.39,-1.41 -3.59,-2.11l-0 0c-1.21,-0.69 -2.43,-1.38 -3.66,-2.06l-0 0c-1.23,-0.68 -2.47,-1.34 -3.73,-2l-0 0c-1.25,-0.66 -2.52,-1.31 -3.8,-1.94l-0 0c-1.28,-0.64 -2.56,-1.27 -3.86,-1.89 -1.3,-0.62 -2.6,-1.23 -3.92,-1.83l-0 0c-1.31,-0.61 -2.64,-1.2 -3.98,-1.78l-0 0c-1.34,-0.59 -2.68,-1.16 -4.04,-1.73l-0 0c-1.35,-0.57 -2.72,-1.12 -4.09,-1.67l-0 0 -4.15 -1.62c-1.39,-0.53 -2.79,-1.06 -4.2,-1.57 -1.41,-0.51 -2.82,-1.02 -4.25,-1.51l-0 -0c-1.42,-0.5 -2.86,-0.98 -4.3,-1.46 -1.44,-0.48 -2.89,-0.95 -4.34,-1.41 -1.46,-0.46 -2.92,-0.91 -4.39,-1.35 -1.47,-0.44 -2.94,-0.87 -4.43,-1.3l0 -0c-1.48,-0.43 -2.97,-0.84 -4.47,-1.25l-4.51 -1.2 -4.54 -1.15 0 -0 -4.57 -1.09 0 -0 -4.61 -1.04 0 -0 -4.64 -0.99 -4.67 -0.94 -4.7 -0.89 -4.72 -0.84 -4.74 -0.79 0 -0 -4.76 -0.74 -4.78 -0.69 0 -0 -4.8 -0.64 0 -0 -4.81 -0.59 -4.83 -0.54c-3.22,-0.35 -6.45,-0.66 -9.69,-0.94l-4.86 -0.4 -4.86 -0.35 -4.87 -0.3 0 -0 -4.87 -0.25 0 -0 -4.87 -0.2 -0 0c-4.87,-0.18 -9.73,-0.3 -14.58,-0.34l-4.85 -0.02 -0 0 -4.83 0.02 -0 0 -4.82 0.07 -0 0 -4.81 0.12 -4.8 0.16 -0 0 -4.78 0.21 -4.76 0.26 -0 0 -4.74 0.3 -0 0 -4.72 0.34 -4.69 0.39 -0 0 -4.67 0.43 -4.63 0.48 -0 0 -4.6 0.52 -0 0 -4.57 0.56 -0 0 -0.33 1.51 -0 0 -0.33 1.69 -0 0 -0.33 1.87 -0.32 2.04 -0 0c-0.22,1.41 -0.42,2.93 -0.63,4.56l-0.31 2.5 -0.3 2.65 -0.29 2.78 -0 0 -0.28 2.92 -0 0 -0.28 3.04 0 0 -0.27 3.16 -0.26 3.27 -0 0 -0.25 3.38c-0.17,2.29 -0.31,4.64 -0.46,7.05l-0 0 -0.21 3.66 -0 0 -0.2 3.74 0 0 -0.19 3.81 -0.18 3.88 0 0 -0.17 3.94 -0.15 4 0 0 -0.14 4.04 0 0 -0.24 8.21 0 0 -0.1 4.15 0 0 -0.08 4.18 0 0 -0.07 4.2 -0.05 4.21 -0 0 -0.03 4.21 0 0 -0.01 4.21 0 4.21 0 0 0.02 4.19 0.04 4.17 0 0 0.06 4.15 0.08 4.11 0 0 0.1 4.07 0.12 4.03 0.14 3.98 0.16 3.93 0.19 3.86 0.2 3.79 0.23 3.71 0.26 3.63 0.28 3.54 0.3 3.44 0.33 3.34 0.35 3.24 0.38 3.12 0.41 3 0.43 2.87 0.46 2.74 0.49 2.6 0.51 2.46 0.54 2.3c0.19,0.74 0.37,1.46 0.57,2.15l0.6 1.98c0.2,0.63 0.41,1.24 0.63,1.81 0.22,0.57 0.44,1.12 0.66,1.63 0.22,0.52 0.46,1 0.69,1.45 0.24,0.45 0.48,0.87 0.72,1.26 0.25,0.39 0.5,0.74 0.76,1.07 0.26,0.32 0.52,0.61 0.79,0.86 0.27,0.26 0.54,0.47 0.82,0.66z"/>
  <path class="fil15" d="M4381.16 1401.03c0.6,0.87 1.19,1.7 1.79,2.52 0.6,0.81 1.19,1.6 1.79,2.37 0.59,0.76 1.19,1.5 1.78,2.22 0.59,0.72 1.19,1.41 1.78,2.07 0.59,0.67 1.19,1.31 1.78,1.93 0.59,0.62 1.19,1.22 1.78,1.79 0.59,0.57 1.19,1.13 1.78,1.66 0.59,0.53 1.19,1.04 1.78,1.52 0.6,0.49 1.19,0.95 1.79,1.39 0.6,0.44 1.2,0.86 1.8,1.26 0.6,0.4 1.2,0.78 1.8,1.13 0.6,0.35 1.2,0.69 1.81,1.01 0.61,0.31 1.21,0.61 1.82,0.89 0.61,0.28 1.21,0.53 1.82,0.77 0.61,0.24 1.22,0.46 1.84,0.65 0.61,0.2 1.23,0.38 1.85,0.54 0.62,0.16 1.24,0.3 1.86,0.43 0.62,0.13 1.25,0.23 1.87,0.32 0.63,0.09 1.26,0.16 1.89,0.21 0.63,0.05 1.27,0.09 1.91,0.11 0.64,0.02 1.28,0.02 1.93,0.01 0.65,-0.02 1.29,-0.04 1.94,-0.09 0.65,-0.04 1.3,-0.11 1.96,-0.19 0.66,-0.08 1.32,-0.17 1.98,-0.28 0.67,-0.11 1.33,-0.23 2,-0.37 0.67,-0.14 1.34,-0.29 2.02,-0.46 0.68,-0.17 1.36,-0.35 2.05,-0.54 0.69,-0.19 1.38,-0.4 2.08,-0.63l0 -0 2.1 -0.7 2.13 -0.78 2.16 -0.86 2.19 -0.93 0 -0c1.47,-0.65 2.96,-1.33 4.47,-2.07l0 -0 2.28 -1.13 0 0 2.31 -1.2 2.35 -1.26 0 -0 2.39 -1.31 0 -0 2.43 -1.37 0 -0c1.63,-0.93 3.29,-1.89 4.97,-2.89l0 -0 2.55 -1.52 2.59 -1.56 2.63 -1.6 0 -0 2.68 -1.64 0 -0 5.49 -3.39 8.6 -5.32 0 -0 2.96 -1.82 0 0 6.09 -3.71 0 -0 3.13 -1.88 0 0 3.18 -1.89 0 -0 3.24 -1.91 0 0 3.3 -1.91 0 0 3.35 -1.92 0 -0 3.41 -1.92 0 0c2.3,-1.28 4.63,-2.57 7.02,-3.85l0 0 3.6 -1.92 0 0 3.66 -1.91 0 0 3.73 -1.9 0 0 2.65 -1.33 0 0 2.64 -1.31 2.63 -1.29 0 0 2.62 -1.27 0 0 2.61 -1.25 0 0 2.6 -1.23 2.59 -1.22 2.59 -1.2 0 -0 2.58 -1.18 0 -0 2.57 -1.16 2.56 -1.15 0 0 5.11 -2.25 0 -0 2.55 -1.1 0 -0 2.54 -1.09 2.54 -1.07 0 -0 2.54 -1.06 0 0 2.53 -1.05 2.53 -1.04 2.53 -1.02 0 0 2.53 -1.01 2.53 -1 2.53 -0.99 0 -0 2.53 -0.98 2.53 -0.97 0 -0 2.53 -0.96 0 -0 2.53 -0.95 0 0 2.54 -0.94 0 -0 2.54 -0.93 2.54 -0.93 2.55 -0.92 0 -0 2.55 -0.91 2.56 -0.91 2.57 -0.9 0 -0 2.57 -0.89 2.58 -0.89 2.59 -0.89 0 -0 2.6 -0.88 2.6 -0.88 2.61 -0.88 2.63 -0.87 2.63 -0.87 2.65 -0.87 2.66 -0.87 0 -0 2.67 -0.87 0 -0 2.68 -0.87 0 0 5.41 -1.74 0 -0 2.72 -0.87 2.74 -0.87 8.31 -2.63 0 -0 5.63 -1.77 2.84 -0.89 0 0 8.64 -2.71 0 -0 2.92 -0.91 0 -0 11.9 -3.73 -0.69 -0.94 -0 -0 -0.68 -0.93 -0 -0 -0.67 -0.92 -0 -0 -0.66 -0.91 -0 -0 -0.66 -0.89 -0 -0 -0.65 -0.88 -0 0 -0.65 -0.87 -0 -0 -0.65 -0.85 -0 -0 -0.64 -0.84 -0 0 -0.64 -0.83 -0 0 -0.64 -0.82 -0 0 -0.63 -0.81 -0 0 -0.63 -0.8 -0 -0 -0.63 -0.79 -0 0 -0.63 -0.78 -0 -0 -0.63 -0.76 -0 -0 -0.63 -0.76 -0 0 -0.63 -0.74 -0 -0 -0.63 -0.74 -0 0 -0.63 -0.72 -0 -0 -0.63 -0.71 -0 -0 -0.64 -0.7 -0 -0 -0.64 -0.7 -0 0 -0.65 -0.69 -0 0 -0.65 -0.68 -0 0 -0.65 -0.67 -0 0 -0.66 -0.67 -0 0 -0.66 -0.65 -0 0 -0.67 -0.65 -0 0 -0.68 -0.64 -0 0 -0.69 -0.63 -0 0 -0.69 -0.62 -0 -0 -0.7 -0.61 -0 0 -0.71 -0.61 -0 0 -0.72 -0.61 -0 0 -0.73 -0.59 -0 0 -0.74 -0.59 -0 0 -0.75 -0.59 -0 0 -0.76 -0.58 -0 0 -0.77 -0.57 -0 0 -0.78 -0.57 -0 0 -0.8 -0.56 -0 0 -0.81 -0.56 -0 0 -0.82 -0.55 -0 0 -0.83 -0.55 -0 0 -0.85 -0.54 -0 0 -0.87 -0.54 -0 0 -0.88 -0.53 -0 0 -0.89 -0.53 -0 0 -0.91 -0.53 -0 0 -0.93 -0.52 -0 0 -0.94 -0.52 -0 0 -0.96 -0.52 -0 0 -0.98 -0.51 -0 0 -1 -0.51 -0 0 -1.02 -0.5 -0 0 -1.04 -0.5 -0 0 -1.06 -0.5 -0 0 -1.08 -0.5 -0 0 -1.1 -0.5 -0 0 -1.12 -0.5 -0 0 -1.14 -0.5 -0 0 -1.17 -0.49 -0 0 -1.19 -0.49c-24.44,20.87 -109.83,44.83 -145.46,63.3 -22.59,11.7 -46.89,27.28 -65.83,39.28 -19.43,12.31 -41.88,33.97 -61.65,36.56z"/>
  <path class="fil11" d="M4769.43 1116.48c-4.61,-25.5 -20.92,-53.76 3.11,-78.39 21.62,-22.17 56.91,-12.25 76.39,2.17 46.96,71.72 -18.87,99.49 -79.5,76.22zm10.86 -106.24c-39.78,17.76 -59.7,51.77 -37.59,100.07 15.41,33.64 65.11,56 108.74,31.2 72,-40.95 26.72,-174.94 -71.15,-131.26z"/>
  <path class="fil16" d="M4769.43 1116.48c60.63,23.28 126.46,-4.5 79.5,-76.22 -16.13,10.76 -37.31,18.01 -46.29,27.75 -13.7,14.85 -7.78,21.93 -33.21,48.47z"/>
  <path class="fil17" d="M4769.43 1116.48c25.43,-26.54 19.51,-33.61 33.21,-48.47 8.98,-9.74 30.16,-16.99 46.29,-27.75 -19.47,-14.42 -54.76,-24.34 -76.39,-2.17 -24.03,24.63 -7.72,52.89 -3.11,78.39z"/>
  <path class="fil11" d="M4667.19 1449.71l0 -1.61 95.24 -1.09 0 0.65c7.29,-0.06 14.8,0.29 22.77,1.35l0.01 -1.08c206.33,-1.37 171.55,27.54 173.43,-364.39 0.61,-125.19 -8.44,-136.27 -132.47,-135.77 -63.6,0.26 -205.99,7.07 -266.19,-2.73 -12.04,0 -24.47,-2.58 -36.38,-4.46 -1.46,1.07 -3.22,2.58 -5.37,4.8 -31.2,5.03 -70.96,-0.3 -104.44,2.95 -37,3.6 -49.75,20.3 -59.97,31.6 1.1,16.89 1.48,33.88 1.48,50.98 0,68.87 3.25,268.88 -2.19,357.7l6.37 35.39 -1.57 0.01c5.57,6.87 10.76,14.88 15.45,24.06l156.04 0.06 0 2.05c45.83,-6.5 92.75,-6.64 137.76,-0.46zm-178.64 -28.36c107.52,-80.6 282.6,-119.86 446.46,-112.83 -0.02,51.06 9.5,74.31 -19.77,108.04 -30.75,14.16 -374.96,12.48 -426.7,4.8zm-107.39 -20.32c-17.85,-11.73 -13.09,-170.01 -5.83,-200.29 97.21,-12.48 217.98,4.57 278.76,61.15 25.72,10.49 35.33,21.56 50.1,41.93 -64.45,20.25 -112.89,34.69 -169.69,63.3 -80.38,40.48 -115.08,89.19 -153.34,33.91zm-10.23 -224.04c-0.37,-163.11 -21.26,-205.5 65.22,-205.5 533.25,0 499.3,-36.99 498.85,120.11 -0.18,63.12 0.84,126.66 -0.35,189.71 -36.61,6.39 -122.3,6.95 -167.56,11.01 -83.87,7.54 -108.46,-143.04 -396.17,-115.33z"/>
  <path class="fil0" d="M605.38 2523.75c-19.43,55.82 37.65,56.07 216.95,56.94l1916.37 -0.5c150.22,0.48 290.46,9.31 292.65,-33.55 2.28,-44.76 -124.93,-39.5 -258.19,-39.87 -355,0.1 -1972.87,-24.57 -2167.78,16.97z"/>
  <path class="fil0" d="M3028.22 2357.25c5.91,-60.56 -24.84,-56.06 -218.3,-56.06l-1984.08 0.05c-340.04,-0.08 -351.4,74.17 34.05,73.15 455.41,-1.2 1982.31,15.85 2168.33,-17.14z"/>
  <path class="fil0" d="M599.31 2105.21l-8.05 54.07c398.19,18.65 1536.76,7.65 1998.2,7.65l-36.75 0c188.3,0 344.22,8.94 470.34,-15.75 5.67,-78.57 -223.85,-55.92 -470.25,-55.51 -302.06,0.51 -1885.11,-6.27 -1953.49,9.53z"/>
 </g>
</svg>
