<?xml version="1.0" encoding="UTF-8"?>
<!DOCTYPE svg PUBLIC "-//W3C//DTD SVG 1.1//EN" "http://www.w3.org/Graphics/SVG/1.1/DTD/svg11.dtd">
<!-- Creator: CorelDRAW -->
<svg xmlns="http://www.w3.org/2000/svg" xml:space="preserve" width="100%" height="100%" version="1.1" style="shape-rendering:geometricPrecision; text-rendering:geometricPrecision; image-rendering:optimizeQuality; fill-rule:evenodd; clip-rule:evenodd"
viewBox="0 0 395.39 391.46"
 xmlns:xlink="http://www.w3.org/1999/xlink"
 xmlns:xodm="http://www.corel.com/coreldraw/odm/2003">
 <defs>
  <style type="text/css">
   <![CDATA[
    .fil0 {fill:#C4372F}
   ]]>
  </style>
 </defs>
 <g id="Layer_x0020_1">
  <metadata id="CorelCorpID_0Corel-Layer"/>
  <path class="fil0" d="M-0 30.51c0,16.39 7.59,23.98 20.05,31.68l41.59 21.9c23.46,11.61 48.2,26.84 69.11,42.34 4.39,3.25 16.01,10.49 18.43,14.06 -9.33,6.19 -17.31,14.13 -25.87,21.3l-30.96 27.8c-7.38,5.83 -26.85,26.87 -33.95,35.6 -1,1.23 -1.57,1.61 -2.63,2.78 -1.28,1.42 -1.19,1.6 -2.39,3.02 -21.06,24.8 -53.37,69.28 -53.37,102.52 0,15.98 1.33,26.69 8.28,40.26 3.55,6.94 12.28,17.42 22.02,17.42 9.06,0 15.46,-1.23 21.97,-7.48 4.61,-4.43 6.71,-7.41 10.36,-12.82 14.1,-20.89 25.6,-51.4 41.33,-74.45 10.01,-14.67 17.27,-26.42 28.46,-41.82 14.49,-19.96 30.52,-39.05 46.87,-57.42 2.1,-2.35 3.69,-3.46 5.63,-5.97 1.09,-1.41 10.59,-11.53 11.65,-12.3 8.71,5.78 42.84,40.49 50.69,48.26 6.3,6.23 11.5,13.07 17.87,19.23l11.66 13.07c1.53,1.59 1.55,1.84 2.8,3.38l8.55 9.99c20.73,25.35 40.91,51.1 59.32,78.17 1.87,2.75 2.91,4.66 4.94,7.41 2.02,2.74 3.07,4.71 4.84,7.51 2.96,4.68 11.05,18.74 15.1,21.97 5.16,4.1 19.88,5.97 22.54,-2 1.46,-4.37 -7.76,-22.92 -9.96,-28.13 -6.39,-15.18 -17.09,-38.15 -25.64,-52.29l-54.49 -89.11 -27.09 -37.79c-4.02,-5.28 -7.48,-9.59 -11.43,-14.83l-17.55 -21.85c-1.87,-2.33 -3.63,-5.04 -6.31,-6.82 2.4,-3.55 5.67,-5.84 9.09,-8.69l14.02 -12.27c23.02,-21.7 84.51,-64.52 108.34,-79.64 1.93,-1.23 3.5,-2.04 5.3,-3.22 5.69,-3.74 11.8,-5.76 14.47,-12.6 2.45,-6.27 3.55,-16.8 -4.84,-18.54 -2.63,-0.55 -4,0.59 -6.81,1.62 -25.36,9.2 -49.11,21.8 -73.26,33.62 -2.53,1.24 -3.69,1.88 -6.03,3.26l-95.23 58c-9.02,-13.33 -49,-47.04 -65.92,-59.33 -8.1,-5.89 -16.33,-11.72 -25.25,-16.54 -14.27,-7.69 -28.19,-14.34 -44.32,-18.43 -20.48,-5.19 -49.41,-1.77 -64.79,13.72 -2.97,2.99 -7.17,8.89 -7.17,14.44z"/>
 </g>
</svg>
