<?xml version="1.0" encoding="UTF-8"?>
<!DOCTYPE svg PUBLIC "-//W3C//DTD SVG 1.1//EN" "http://www.w3.org/Graphics/SVG/1.1/DTD/svg11.dtd">
<!-- Creator: CorelDRAW -->
<svg xmlns="http://www.w3.org/2000/svg" xml:space="preserve" width="100%" height="100%" version="1.1" style="shape-rendering:geometricPrecision; text-rendering:geometricPrecision; image-rendering:optimizeQuality; fill-rule:evenodd; clip-rule:evenodd"
viewBox="0 0 1981.68 3332.65"
 xmlns:xlink="http://www.w3.org/1999/xlink"
 xmlns:xodm="http://www.corel.com/coreldraw/odm/2003">
 <defs>
  <style type="text/css">
   <![CDATA[
    .fil0 {fill:red}
   ]]>
  </style>
 </defs>
 <g id="Layer_x0020_1">
  <metadata id="CorelCorpID_0Corel-Layer"/>
  <path class="fil0" d="M954.48 2916.74c1.35,-19.47 1.5,-29.18 16.95,-33.93 59.02,-18.13 40.71,63.17 44.35,100.98l-28.1 -3.89c-12.32,1.19 -4.65,8.76 -28.31,1.04 -20.17,-69.77 43.09,-46.41 27.24,-77.67 -23.24,11.62 11.25,12.73 -32.14,13.46zm641.56 -555.69c2.38,-54.94 46.93,-35.35 53.88,-23.98 11.72,22.08 5.16,63.6 6.47,91.9 -14.59,-1.11 -12.29,-4.1 -28.37,-3.15 -14.26,0.85 -7.1,9.61 -25.84,-2.05 -30.67,-48.63 38.54,-52.64 25.52,-75.33 -22.77,7.56 11.8,12.75 -31.66,12.61zm-1281.93 -0.1c0.97,-37.05 24.46,-47.32 52.67,-26.93 12.5,22.9 7.44,65.83 6.2,94.75l-54.61 -3.48c-20.91,-69.05 42.75,-47.81 27.16,-77.17 -21.85,9.21 10.96,13.34 -31.43,12.83zm544.11 -652.16l34.47 -0.19 0.07 185.26 -34.68 0.2 0.13 -185.27zm328.21 172.39c-26.25,33.25 -49.85,13.94 -50.52,-29.86 -0.54,-35.42 -0.43,-71.87 -0.19,-107.34l35.08 -0.13c-0.17,21.49 -0.04,42.99 -0.15,64.48 -0.26,48.96 -5.64,47.08 8.28,55.44 12.24,-6.9 8.33,-3.36 8.36,-25.53l0.3 -94.2 34.29 -0.03 0.06 42.94c0.09,114.16 17.17,168.74 -68.37,153.22 -16.3,-2.96 -5.26,-0.58 -11,-3.63l0.12 -27.67c33.89,-0.99 45.59,9.11 43.73,-27.7zm-191.02 -137.51c25.53,1.14 29.63,-7.1 36.37,12.46 22.45,-32.33 43.55,-0.08 44.59,0.78 10.74,-13.29 14.86,-17.3 38.46,-12.5 21.79,23.37 13.98,110.11 12.91,149.65l-34.36 -0.04c-0.04,-18.98 7.02,-111.72 -8.46,-118.77 -19.46,9.44 -8.42,95.52 -8.5,118.75l-34.07 -0.02 -3.24 -119.56c-12.61,6.47 -9.35,4.87 -9.89,24.92 -0.26,9.43 0.3,20.66 0.33,30.36 0.07,21.37 0,42.75 -0.05,64.23l-34.7 0.14 0.61 -150.39zm-98.13 50.83c-2.41,-65.51 62.81,-62.73 78.53,-35.52 11.72,20.27 5.61,104.05 8.32,135.15 -23.99,0.06 -26.36,4.81 -37.35,-11.52 -28.22,34.84 -58.44,-2.06 -47.56,-42.19 10.54,-38.9 59.72,-35.08 44.66,-65.04 -22.18,3.1 -4.03,1.11 -17.09,19.25l-29.5 -0.13zm-136.6 -0.15c-1.64,-66.6 62.97,-61.92 78.36,-35.37 11.68,20.14 5.62,104.17 8.32,135.15 -24,0.06 -26.37,4.81 -37.35,-11.52 -28.09,35.45 -57.57,-2.85 -48,-42.39 9.46,-39.08 60.8,-32.39 45.1,-64.81 -22.04,3.05 -3.97,1.19 -17.1,19.29l-29.34 -0.35zm835.58 -544.3c1.52,-40.85 22.41,-40.96 53.83,-29.31 9.09,26.51 4.36,65.28 6.62,97.31l-29.07 -3.08c-15.75,0.44 -9.96,4.3 -27.48,-0.18 -17.14,-73.64 42.12,-48.34 27.53,-77.82 -22.35,8.81 12.11,12.99 -31.43,13.07zm-1282.9 -0.43c1.65,-17.74 2.56,-30.68 20.63,-34.6 53.44,-11.6 38.47,53.46 39.78,102.44l-55.89 -3.55c-18.73,-71.65 43.06,-46.08 27.66,-77.19 -22.18,9.94 11.57,13.85 -32.18,12.9zm1666.41 -69.55c9.38,-75.66 -16.23,-147.43 -100.37,-166.68 -38.62,-8.83 -191.59,18.53 -238.65,25.89 -157.48,24.65 -321.25,52.24 -483.13,64.67 -287.21,22.05 -485.99,-18.33 -755.27,-56.95 -46.68,-6.69 -207.14,-33.63 -240.64,-33.07 -73.52,1.22 -135.03,59.91 -136.46,136.18 -0.88,46.77 116.74,603.95 131.6,688.43 27.03,153.63 62.53,303.11 90.59,456.87 41.21,225.86 90.54,459.24 135.47,685.42 17.18,86.46 25.46,146.83 74.47,198.76 52.25,55.37 102.2,70.96 182.05,91.45 75.47,19.36 144.94,36.83 225.28,47.64 230.34,31 504.15,10.47 727.67,-62.44 67.5,-22.02 117.07,-70.54 144.56,-129.26 28.85,-61.62 56.51,-386.98 67.87,-479.17l58.02 -488.85c20.92,-164.62 43.04,-327.42 58.41,-489.14 7.66,-80.58 19.77,-161.96 29.06,-243.01 4.69,-40.89 9.61,-82.65 14.93,-123.24 5.06,-38.59 9.24,-80.57 14.56,-123.5zm-843.26 -1101.28c-134.29,-9.93 -363.91,12.15 -515.68,18.76 -34.39,1.5 -148.18,-1.17 -166.11,16.28 -27.85,33.73 34.53,55.61 85.3,85.41 302.84,177.79 553.06,294.7 908.23,390.83 45.99,12.44 337.15,83.5 379.8,80.57 24.67,-1.7 43.78,-27.13 31.02,-55.02 -7.52,-16.44 -83.69,-83.05 -95.17,-93.31 -18.28,-16.32 -28.17,-24.2 -44.09,-45.3l-143.81 -138.46c-33.37,-30.4 -61.82,-53.26 -93.35,-90.39 -18.28,-21.52 -64.61,-54.01 -90.19,-71.97 -1.55,-1.09 -7.04,-5.15 -7.8,-5.78 -0.85,-0.71 -1.87,-1.68 -2.64,-2.35l-5.31 -5.17c27.46,-177.49 -182.75,-216.7 -240.19,-84.1zm834.59 906.44c14.39,-86.5 31.59,-194.78 -78.36,-232.54 -50.69,-17.4 -229.3,19.24 -291.87,28.89 -198,30.53 -397.5,63.57 -601.43,63.84 -203.4,0.27 -403.88,-32.04 -602.03,-62.86 -65.57,-10.2 -232.14,-46.08 -284.82,-23.44 -112.84,48.5 -87.65,148.2 -72.02,225.05 14.07,-10.68 28.04,-47.4 83.96,-64.08 40.09,-11.96 83.58,-0.7 124.58,4.93 348.48,47.81 543.91,101.5 908.06,79.07 134.24,-8.28 239.61,-28.69 375.17,-47.95 85.87,-12.2 166.37,-24.25 246.2,-36.33 42.39,-6.42 80.96,-15.64 121.39,0.74 53.17,21.54 58.35,55.14 71.16,64.7zm-1971.05 -258.61c15.31,11.58 18.5,10.2 35.35,-1.68 70.48,-49.69 156.15,-115.44 233.83,-142.28 107.67,-37.19 271.02,-39.55 360.96,17.85 -28.8,57.8 -57.04,92.2 29.56,107.21 243.14,42.17 239.15,75.71 236.19,-74.09 -0.62,-31.43 -1.41,-63.09 -2.44,-94.64 -1.19,-36.28 4.61,-57.82 -14.57,-79.77 -38.14,-7.91 -101.42,20.82 -140.43,20.98 -18.02,0.08 -38.85,-17.03 -56.24,-26.02 -97.77,-50.52 -229.76,-57.04 -336.7,-26.23 -39.5,11.38 -79.02,29.94 -112.05,50.25 -32.35,19.9 -68.61,50.48 -89.7,72.87l-96.76 108.32c-17,15.71 -48.5,43.04 -47,67.23zm994.75 1167.43l34.7 -0.14c0.06,-21.48 0.13,-42.86 0.05,-64.23 -0.03,-9.7 -0.59,-20.93 -0.33,-30.36 0.54,-20.06 -2.72,-18.45 9.89,-24.92l3.24 119.56 34.07 0.02c0.08,-23.23 -10.96,-109.3 8.5,-118.75 15.48,7.05 8.42,99.79 8.46,118.77l34.36 0.04c1.07,-39.53 8.89,-126.27 -12.91,-149.65 -23.61,-4.8 -27.72,-0.79 -38.46,12.5 -1.04,-0.86 -22.13,-33.11 -44.59,-0.78 -6.74,-19.56 -10.84,-11.32 -36.37,-12.46l-0.61 150.39zm191.63 -12.88c1.86,36.8 -9.85,26.7 -43.73,27.7l-0.12 27.67c5.73,3.05 -5.3,0.67 11,3.63 85.54,15.52 68.46,-39.06 68.37,-153.22l-0.06 -42.94 -34.29 0.03 -0.3 94.2c-0.02,22.17 3.89,18.63 -8.36,25.53 -13.92,-8.36 -8.54,-6.48 -8.28,-55.44 0.11,-21.49 -0.02,-42.99 0.15,-64.48l-35.08 0.13c-0.24,35.47 -0.35,71.92 0.19,107.34 0.67,43.8 24.26,63.11 50.52,29.86zm-289.15 -86.68l29.5 0.13c13.07,-18.14 -5.08,-16.15 17.09,-19.25 15.06,29.96 -34.12,26.15 -44.66,65.04 -10.87,40.13 19.34,77.02 47.56,42.19 10.98,16.33 13.35,11.58 37.35,11.52 -2.71,-31.1 3.4,-114.88 -8.32,-135.15 -15.72,-27.21 -80.93,-29.99 -78.53,35.52zm-136.6 -0.15l29.34 0.35c13.13,-18.09 -4.94,-16.24 17.1,-19.29 15.69,32.42 -35.64,25.73 -45.1,64.81 -9.57,39.54 19.91,77.84 48,42.39 10.98,16.33 13.35,11.58 37.35,11.52 -2.7,-30.97 3.35,-115 -8.32,-135.15 -15.39,-26.55 -80,-31.23 -78.36,35.37zm97.4 99.71l34.68 -0.2 -0.07 -185.26 -34.47 0.19 -0.13 185.27zm737.95 466.99c43.46,0.14 8.89,-5.06 31.66,-12.61 13.01,22.69 -56.19,26.7 -25.52,75.33 18.74,11.66 11.58,2.9 25.84,2.05 16.08,-0.95 13.78,2.04 28.37,3.15 -1.31,-28.3 5.25,-69.82 -6.47,-91.9 -6.94,-11.37 -51.5,-30.96 -53.88,23.98zm-1281.93 -0.1c42.39,0.5 9.58,-3.62 31.43,-12.83 15.59,29.36 -48.07,8.12 -27.16,77.17l54.61 3.48c1.24,-28.93 6.3,-71.85 -6.2,-94.75 -28.21,-20.39 -51.7,-10.11 -52.67,26.93zm-0.74 -1111.33c43.75,0.95 10,-2.96 32.18,-12.9 15.4,31.11 -46.39,5.54 -27.66,77.19l55.89 3.55c-1.31,-48.98 13.67,-114.04 -39.78,-102.44 -18.07,3.93 -18.98,16.86 -20.63,34.6zm1282.9 0.43c43.55,-0.09 9.08,-4.27 31.43,-13.07 14.59,29.48 -44.67,4.18 -27.53,77.82 17.52,4.48 11.73,0.62 27.48,0.18l29.07 3.08c-2.26,-32.04 2.47,-70.81 -6.62,-97.31 -31.42,-11.65 -52.31,-11.54 -53.83,29.31zm-641.78 1666.69c43.39,-0.73 8.9,-1.84 32.14,-13.46 15.85,31.26 -47.41,7.9 -27.24,77.67 23.66,7.72 15.99,0.15 28.31,-1.04l28.1 3.89c-3.64,-37.81 14.67,-119.11 -44.35,-100.98 -15.44,4.74 -15.59,14.46 -16.95,33.93z"/>
 </g>
</svg>
