<?xml version="1.0" encoding="UTF-8"?>
<!DOCTYPE svg PUBLIC "-//W3C//DTD SVG 1.1//EN" "http://www.w3.org/Graphics/SVG/1.1/DTD/svg11.dtd">
<!-- Creator: CorelDRAW -->
<svg xmlns="http://www.w3.org/2000/svg" xml:space="preserve" width="100%" height="100%" version="1.1" style="shape-rendering:geometricPrecision; text-rendering:geometricPrecision; image-rendering:optimizeQuality; fill-rule:evenodd; clip-rule:evenodd"
viewBox="0 0 393.7 426.51"
 xmlns:xlink="http://www.w3.org/1999/xlink"
 xmlns:xodm="http://www.corel.com/coreldraw/odm/2003">
 <defs>
  <style type="text/css">
   <![CDATA[
    .fil2 {fill:#3E4D55}
    .fil1 {fill:#62B4F5}
    .fil0 {fill:#FEC828}
   ]]>
  </style>
 </defs>
 <g id="Layer_x0020_1">
  <metadata id="CorelCorpID_0Corel-Layer"/>
  <g id="_105553550597312">
   <path class="fil0" d="M78.67 262.43c7.85,-5.12 130.98,-4.79 138.99,0 -7.06,11.21 -55.41,4.51 -69.89,4.51 -17.15,0 -61.3,5.67 -69.1,-4.51zm0.45 -35.26c13.74,-6.19 201.69,-3.9 208.53,0 -5.83,8.32 -28.09,4.7 -48.76,4.7l-111.7 0c-21.45,0 -41.43,3.74 -48.07,-4.7zm12.8 -30.24c-13.01,0 -8.97,1.87 -13.79,-5.65 30.18,-3.92 183.85,-4.89 209.52,0.63 -3.81,7.06 0.59,5.02 -13.48,5.02l-182.24 0zm195.76 -36.41c-30.99,3.01 -183.18,3.99 -209.37,-1.2 1.1,-5.78 6.79,-4.78 13.61,-4.78l182.24 0c13.73,0 9.45,-1.91 13.52,5.98zm-209.37 -42.75c-1.52,-35.06 -6.26,-33.28 25.39,-33.28 82.67,0 73.5,-9.03 72.46,33.83 -24.44,2.9 -74.06,3.56 -97.85,-0.54zm-33.41 -37.43l2.33 14.78c5.17,8.54 4.81,20.9 -0.37,28.16l0.01 13.83c12.16,17.32 -5.72,227.69 6.51,242.87 14.05,11.68 75.35,5.55 97.32,5.55 36.25,0 72.5,0.01 108.74,0l-16.42 -15.59c-5,-5.07 -8.59,-9.71 -7.75,-19.25 1.72,-19.52 20.19,-17.78 37.93,-18.96 6.8,-73.67 -18.5,-87.04 43.24,-87.04l-0.63 -117.81c-86.04,0 -76.21,8.52 -76.75,-76.67 -30.9,-1.56 -165.97,-4.06 -185.78,2.97 -6.2,20.89 2.48,17.05 -8.38,27.16z"/>
   <path class="fil1" d="M253.11 350.3c4.25,10.34 -2.33,1.91 6.33,12.14 9.91,11.7 54.04,55.05 61.95,57.69 11.98,-8.76 62.23,-57.14 65.14,-69.86l-36.19 -2.14c-9.32,-20.66 -0.17,-59.62 -3.2,-85.61l-54.61 0.71c-2.78,25.43 6.08,64.73 -3.23,86.3l-36.18 0.76z"/>
   <path class="fil2" d="M10.86 337.94c-8.26,-26.8 -2.31,-251.59 -2.69,-298.9 -0.31,-38.97 9.67,-31.18 45.54,-31.13 44.01,0.05 197.84,-4.22 218.01,3.97 3.56,13.66 -0.74,43.33 5.39,52.48 6.6,-6.33 4.51,-7.4 4.6,-19.22 0.2,-26.94 2.55,-43.77 -27.91,-44.76 -29.71,-0.98 -61.4,0.24 -91.32,0.15 -30.37,-0.1 -60.75,-0.03 -91.12,-0.03 -84.22,0 -70.4,-11.94 -70.4,114.99 0,27 -3.59,214.08 3.2,225.76 4.89,8.41 20.72,13.73 31.44,6.39 -7.18,-6.3 -11.33,-1.4 -24.73,-9.7z"/>
   <path class="fil2" d="M246.5 58.17l62.57 60.36c-19.54,1.06 -44.07,2.67 -59.57,-1.82 -4.81,-15.65 -3.11,-39.67 -3,-58.54zm-201.59 22.17c10.86,-10.11 2.18,-6.27 8.38,-27.16 19.81,-7.02 154.88,-4.53 185.78,-2.97 0.54,85.19 -9.29,76.67 76.75,76.67l0.63 117.81 6.31 2.59c1.78,-18.81 3.61,-119.49 -1.52,-129.08 -2.75,-5.15 -56.78,-57.47 -65.7,-66.35 -14.5,-14.43 -30.7,-9.35 -54.85,-9.35l-135.23 0.07c-18.21,1.61 -29.55,20.77 -20.54,37.78z"/>
   <path class="fil2" d="M253.11 350.3l36.18 -0.76c9.31,-21.57 0.45,-60.87 3.23,-86.3l54.61 -0.71c3.03,25.99 -6.12,64.94 3.2,85.61l36.19 2.14c-2.91,12.72 -53.15,61.1 -65.14,69.86 -7.91,-2.64 -52.04,-45.98 -61.95,-57.69 -8.66,-10.24 -2.08,-1.8 -6.33,-12.14zm-7.21 -1.88c-1.1,14.74 25.04,34.52 33.97,43.5 47,47.22 34.36,45.89 82.91,-2.7 43.28,-43.31 41.35,-46.28 -7.24,-46.78 -1.22,-92.68 10.97,-87.38 -37.3,-87.52 -44.56,-0.13 -32.8,-2.52 -34.07,87.49 -18.98,0.24 -26.83,-3.07 -38.28,6z"/>
   <path class="fil2" d="M259.45 385.52c-36.25,0 -72.5,-0 -108.74,-0 -21.97,0 -83.28,6.13 -97.32,-5.55 -12.22,-15.19 5.65,-225.55 -6.51,-242.87 -4.61,4.4 -2.43,0.36 -3.95,7.78 0,36.3 -4.59,212.2 1.21,233.1 5.11,18.43 24.05,15.04 44.84,14.96 37.58,-0.15 151.29,2.63 173.3,-1.67l-2.82 -5.74z"/>
   <path class="fil2" d="M85.13 91.59l83.54 0.52 0 20.1 -82.59 0.27 -0.95 -20.89zm-6.82 26.17c23.8,4.1 73.41,3.44 97.85,0.54 1.03,-42.85 10.2,-33.83 -72.46,-33.83 -31.65,0 -26.91,-1.78 -25.39,33.28z"/>
   <polygon class="fil1" points="86.08,112.48 168.67,112.21 168.67,92.11 85.13,91.59 "/>
   <path class="fil2" d="M78.13 191.27c4.82,7.52 0.78,5.65 13.79,5.65l182.24 0c14.08,0 9.68,2.04 13.48,-5.02 -25.67,-5.51 -179.34,-4.55 -209.52,-0.63z"/>
   <path class="fil2" d="M79.12 227.16c6.64,8.45 26.63,4.71 48.07,4.7l111.7 0c20.66,0 42.92,3.61 48.76,-4.7 -6.83,-3.9 -194.79,-6.19 -208.53,0z"/>
   <path class="fil2" d="M78.31 159.31c26.2,5.19 178.38,4.21 209.37,1.2 -4.07,-7.89 0.2,-5.98 -13.52,-5.98l-182.24 0c-6.82,0 -12.51,-1 -13.61,4.78z"/>
   <path class="fil2" d="M78.67 262.43c7.8,10.18 51.94,4.51 69.1,4.51 14.49,0 62.83,6.7 69.89,-4.51 -8.01,-4.79 -131.14,-5.12 -138.99,0z"/>
   <path class="fil2" d="M46.87 123.27c5.19,-7.26 5.55,-19.61 0.37,-28.16 -6.91,3.43 -4.31,12.34 -4.31,20.38l3.94 7.78z"/>
  </g>
 </g>
</svg>
