<?xml version="1.0" encoding="UTF-8"?>
<!DOCTYPE svg PUBLIC "-//W3C//DTD SVG 1.1//EN" "http://www.w3.org/Graphics/SVG/1.1/DTD/svg11.dtd">
<!-- Creator: CorelDRAW -->
<svg xmlns="http://www.w3.org/2000/svg" xml:space="preserve" width="100%" height="100%" version="1.1" style="shape-rendering:geometricPrecision; text-rendering:geometricPrecision; image-rendering:optimizeQuality; fill-rule:evenodd; clip-rule:evenodd"
viewBox="0 0 393.7 392.7"
 xmlns:xlink="http://www.w3.org/1999/xlink"
 xmlns:xodm="http://www.corel.com/coreldraw/odm/2003">
 <defs>
  <style type="text/css">
   <![CDATA[
    .fil1 {fill:#404E57}
    .fil0 {fill:#63B4F5}
    .fil2 {fill:#ED5250}
    .fil3 {fill:#FEC828}
    .fil4 {fill:white}
   ]]>
  </style>
 </defs>
 <g id="Layer_x0020_1">
  <metadata id="CorelCorpID_0Corel-Layer"/>
  <g id="_105553471145024">
   <path class="fil0" d="M286.19 284.24c-7.01,-60.68 32.4,-48.22 81.85,-48.22l-0.33 -140.34 -30.35 0.43c0,110.7 14.2,96.41 -109.85,96.98 -42.39,0.19 -16.8,28.12 -38.69,30.07 -24.04,2.14 0.87,-29.36 -38.24,-30.07 -125.91,-2.29 -112.45,17.25 -112.45,-97l-30.37 -0.39 0.09 188.81 278.34 -0.26z"/>
   <path class="fil1" d="M191.93 189.32c-1.26,-49.91 72.19,-19.38 103.02,-30.49 21.62,-7.79 10.15,-77.45 13,-120.6 15.86,0.98 14.13,8.31 14.03,25.12 -0.14,23.15 3.85,105.9 -5.08,112.3 -40.95,11.8 -91.05,-11.88 -124.96,13.67zm-0.36 -25.09c-1.45,-26.55 -3.54,-111.07 0.14,-134.07 3.53,-22.09 19.26,-23.19 43.64,-23.08 17.53,0.09 46.81,-3.03 61.65,2.69 5.46,12.03 6.93,129.24 -0.56,137.67 -6.15,8.06 -12.67,5.72 -24.96,5.6 -47.5,-0.45 -51.26,-5.02 -79.92,11.19zm-112.52 -16.71c-8.06,-9.1 -3.69,-62.71 -3.69,-78.88 0.01,-46.16 -7.66,-61.52 18.45,-61.52 57.86,0 90.51,-9.04 90.53,33.22l-0.41 123.77c-7.95,-4.09 -9.22,-8.39 -20.87,-10.38 -25.08,-4.28 -73.97,6.85 -84.02,-6.21zm-5.08 36.89c-10.5,-29.45 -20.44,35.25 -20.47,-72.04 -0.01,-45.34 -7.19,-72.79 13.93,-74.2 1.32,21.34 0.42,44.9 0.42,66.49 -0,18.76 -5.3,47.87 12.67,54.22 32.36,11.43 102.01,-20.09 103.01,30.25 -20.74,-14.39 -22.53,-11.38 -53.68,-11.38 -8.4,1.63 -2.86,-1.64 -5.64,6.66 10.82,-0.67 35.58,-1.57 44.41,2.48 17.87,8.21 10.19,22.2 20.81,28.13 11.45,-30.65 8.69,-30.87 53.67,-30.8 18.36,0.03 72.26,4.73 80.98,-6.29 6.58,-8.32 5.57,-103.89 4.38,-124.92 -0.99,-17.51 -6.17,-17.67 -20.66,-22.98 -4.12,-32.19 -0.94,-29.47 -54.41,-29.46 -39.72,0 -43.87,-5.6 -66.06,18.36 -17.63,-23.99 -30.53,-18.36 -65.21,-18.36 -52.12,-0 -50.56,-2.75 -54.51,29.46 -27.94,10.41 -20.67,16.77 -20.67,79.77 -0,62.66 -7.35,72.62 27.02,74.61z"/>
   <path class="fil2" d="M300.94 353.49c11.63,2.81 73.41,2.8 85.06,0.02l-0.04 -82.73 -84.66 -0.88 -0.36 83.6z"/>
   <path class="fil1" d="M286.19 284.24l-278.34 0.26 -0.09 -188.81 30.37 0.39 2.38 -6.57 -31.75 -0.3c3.56,-28.63 22.93,-16.12 31.62,-28.29 -19.17,-8.72 -36.72,11.14 -38.8,28.44 -2.37,19.71 -0.38,53.29 -0.38,74.48 0,179.11 -23.57,157.92 138.95,157.92l145.79 -2.38c0.57,-0.23 1.42,-0.7 2.06,-1.15 -2.37,-1.41 -1.6,-1.57 -6.43,-2.52 -21,-4.11 -241.42,3.88 -257.07,-2.8 -8.96,-3.82 -15.3,-10.88 -14.98,-21.74l278.86 -0 -2.2 -6.92z"/>
   <path class="fil1" d="M385.73 361.37c1.51,31.93 -12.54,24.02 -42.26,24.02 -29.7,0 -43.78,7.89 -42.23,-24.02l84.48 0zm-84.44 -91.47l84.66 0.88 0.04 82.73c-11.65,2.79 -73.43,2.79 -85.06,-0.02l0.36 -83.6zm0.34 -7.48c1.65,-10.5 6.14,-10.94 18.68,-10.94l46.33 0c12.82,0 16.86,0.37 18.68,11.74l-83.68 -0.8zm2.58 -14.82c-14.32,8.19 -10.39,32.04 -10.39,50.05 -0.02,69.98 -8.76,94.19 28.92,94.26 82.09,0.16 70.33,14.57 70.43,-112.3 0.02,-25.77 -1.89,-34.65 -29.04,-34.76 -14.74,-0.06 -49.1,-3.44 -59.93,2.74z"/>
   <path class="fil3" d="M73.97 184.41l13.09 -2.52 2.45 -3.91 19.24 -0.21 2.35 4.31c11.87,-1.09 3.35,-2.61 13.11,2.32 2.78,-8.3 -2.76,-5.03 5.64,-6.66 31.15,0 32.94,-3.01 53.68,11.38 -1,-50.33 -70.65,-18.81 -103.01,-30.25 -17.97,-6.35 -12.67,-35.46 -12.67,-54.22 0,-21.59 0.9,-45.15 -0.42,-66.49 -21.12,1.41 -13.94,28.86 -13.93,74.2 0.02,107.29 9.96,42.59 20.47,72.04z"/>
   <path class="fil3" d="M191.93 189.32c33.91,-25.55 84.01,-1.87 124.96,-13.67 8.94,-6.4 4.94,-89.15 5.08,-112.3 0.1,-16.81 1.83,-24.14 -14.03,-25.12 -2.85,43.15 8.63,112.81 -13,120.6 -30.83,11.11 -104.28,-19.42 -103.02,30.49z"/>
   <polygon class="fil4" points="124,385.03 250.76,385.37 251.14,367.79 125.02,367.55 "/>
   <path class="fil1" d="M125.02 367.55l126.11 0.24 -0.38 17.59 -126.76 -0.35 1.03 -17.48zm130.51 19.14c1.44,-2.08 10.83,-23.58 -9.55,-25.76 -10.12,-1.08 -122.62,-2.81 -127.34,5.29 -19.7,33.84 40.76,25.59 54.96,25.61l64.53 0.14c13.72,-0.01 12.81,-0.27 17.4,-5.27z"/>
   <path class="fil1" d="M337.37 96.11l30.35 -0.43 0.33 140.34 5.4 2.48c1.54,-16.33 4.11,-147.02 -2.79,-161 -5.38,-10.91 -21.01,-23.09 -35.62,-16.6 8.86,12.14 27.96,-0.04 31.63,28.13l-31.16 0.3 1.86 6.76z"/>
   <path class="fil1" d="M245.67 80.07c-9.4,0 -28.2,-3.58 -33.01,4 7.81,4.63 58.14,4.55 66.13,0 -4.93,-7.56 -23.63,-4 -33.12,-4z"/>
   <path class="fil1" d="M96.63 84.07c8.05,4.49 58.22,4.71 66.13,0 -4.72,-7.59 -23.6,-4 -32.91,-4 -6.06,0 -12.1,-0.05 -18.16,-0.09 -16.97,-0.09 -10.52,1.87 -15.07,4.09z"/>
   <path class="fil1" d="M96.6 35.19c7.99,4.53 58.28,4.78 66.17,0 -4.61,-7.21 -35.04,-3.92 -51.07,-4.01 -16.84,-0.09 -10.65,1.97 -15.1,4.01z"/>
   <path class="fil1" d="M212.65 35.19c7.77,4.68 58.17,4.62 66.17,0 -5.02,-7.46 -23.67,-3.93 -33.14,-3.93 -6.06,0 -12.11,-0.06 -18.17,-0.09 -16.94,-0.08 -10.71,2.06 -14.86,4.01z"/>
   <path class="fil1" d="M150.44 354.53c6.37,-4.93 6.29,-21.39 0,-26.37 -3.18,5.65 -2.9,4.2 -2.9,13.23 -0,9.06 -0.3,7.57 2.9,13.14z"/>
   <path class="fil1" d="M225.08 354.52c2.74,-5.22 2.67,-4.75 2.71,-13.13 0.04,-8.79 0.32,-7.55 -2.71,-13.25 -6.37,4.83 -6.33,21.57 0,26.37z"/>
   <path class="fil1" d="M87.06 181.9c6.05,3.53 17.49,3.61 24.04,0.2l-2.35 -4.31 -19.24 0.21 -2.45 3.91z"/>
   <path class="fil1" d="M335.2 372.26c2.19,3.39 -3.42,4.34 8.25,4.69 8.6,0.26 5.85,-0.44 9.13,-4.15 -6.32,-3.77 -9.4,-3.96 -17.38,-0.55z"/>
  </g>
 </g>
</svg>
