<?xml version="1.0" encoding="UTF-8"?>
<!DOCTYPE svg PUBLIC "-//W3C//DTD SVG 1.1//EN" "http://www.w3.org/Graphics/SVG/1.1/DTD/svg11.dtd">
<!-- Creator: CorelDRAW -->
<svg xmlns="http://www.w3.org/2000/svg" xml:space="preserve" width="100%" height="100%" version="1.1" style="shape-rendering:geometricPrecision; text-rendering:geometricPrecision; image-rendering:optimizeQuality; fill-rule:evenodd; clip-rule:evenodd"
viewBox="0 0 1500.72 1494.94"
 xmlns:xlink="http://www.w3.org/1999/xlink"
 xmlns:xodm="http://www.corel.com/coreldraw/odm/2003">
 <defs>
  <style type="text/css">
   <![CDATA[
    .str0 {stroke:#050505;stroke-width:3;stroke-miterlimit:2.61313}
    .fil0 {fill:#050505}
    .fil5 {fill:#4C4C4C}
    .fil2 {fill:#F68147}
    .fil4 {fill:#F8DDC8}
    .fil3 {fill:#FCE597}
    .fil1 {fill:#FDD66C}
   ]]>
  </style>
 </defs>
 <g id="Layer_x0020_1">
  <metadata id="CorelCorpID_0Corel-Layer"/>
  <path class="fil0" d="M1085.71 193.52c18.61,-41.63 87.56,-111.43 130.48,-131.52 55.02,21.81 197.79,167.28 221.74,214.85 -17.35,42.77 -97.58,121.57 -140.47,139.7 -56.51,-76.14 -156.61,-142.44 -211.75,-223.03zm-1015.34 991.14l8.29 16.69 42.96 9.05 6.72 -27.17 32.98 18.22c26.39,-14.38 12.88,-28.52 4.76,-61.13 -4.43,-31.99 -8.24,-32.27 15.35,-57.99l337.51 -326.81c205.82,-260.93 616.58,-543.13 -30.33,3 102.61,-0.19 431.24,-464.33 547.04,-518.28 41.36,29.51 205.27,191.67 221.81,231.03 -121.23,127.27 -242.35,243.07 -367.26,368.33 -77.17,77.39 -303.54,323.85 -376.18,364.89 -8.18,16.8 5.17,0.46 -20.15,30.99 -12.05,14.53 -20.62,20.99 -34.68,34.42 -25.12,23.98 -42.05,33.96 -48.53,63.31 -28.87,50.51 -19.27,44.67 3.81,65.96 60.93,-41.12 112.51,-106.47 170.14,-171.19 43.49,-48.85 128.85,-134.07 171.82,-155.74l213.69 -221.63c21.38,-19.43 20.78,-19 42.71,-34.48l74.69 -84.72c31.27,-31.22 52.69,-52.33 83.33,-83.22 384.07,-387.22 401.9,-331.81 211.11,-523.24 -46.56,-46.72 -111.16,-141.31 -188.55,-122.51 -56.94,13.83 -296,279.6 -400.16,378.56 -89.3,81.15 -164.02,166.55 -222.83,236.4 -6.63,8.59 -13.11,16.24 -19.37,23.11 -63.74,76.32 -106.09,128.93 -124.96,127.3 -15.28,12.45 -31.44,23.75 -48.33,33.81 -99.15,122.6 -309.87,234.79 -307.42,383.06z"/>
  <path class="fil1" d="M651.81 573.35l-33.76 44.59c-10.68,45.75 -3.89,43 -55.69,53.99l-92.71 105.54c-1.61,3 58.65,-31.27 57.4,-33.59 -1.3,-2.42 -4.62,8.43 -8.09,11.63l-337.51 326.81c-5.84,79.38 -23.07,49.86 41.56,61.74 29.68,5.46 57.73,-15.01 76.57,-33.99l-0.02 -80.88 69.57 -4.85 20.57 27.48c55.12,-25.03 432.08,-418.21 530.13,-515.95 31.32,-31.22 52.28,-52.48 83.18,-83.54 41.02,-41.23 47.26,-69.74 118.53,-69.78 -5.98,66.9 -29.87,71.48 -66.86,107.57 -115.33,112.51 -600.81,588.55 -627.11,641.33l80.43 6.84 6.04 66.19c72.65,-41.03 299.01,-287.49 376.18,-364.89 124.91,-125.26 246.03,-241.06 367.26,-368.33 -16.55,-39.36 -180.45,-201.52 -221.81,-231.03 -106.41,49.58 -284.33,332.94 -383.85,333.12z"/>
  <path class="fil2" d="M1085.71 193.52c55.13,80.58 155.24,146.89 211.75,223.03 42.89,-18.13 123.12,-96.93 140.47,-139.7 -23.95,-47.56 -166.72,-193.04 -221.74,-214.85 -42.92,20.09 -111.88,89.89 -130.48,131.52z"/>
  <path class="fil0" d="M389.7 1051.83l10.41 15.72c-7.45,53.24 -14.75,37.61 13.95,54.45l13.51 9.44c26.31,-52.78 511.79,-528.82 627.11,-641.33 36.99,-36.09 60.88,-40.67 66.86,-107.57 -71.27,0.04 -77.51,28.55 -118.53,69.78 -30.9,31.06 -51.86,52.32 -83.18,83.54 -98.05,97.74 -475,490.92 -530.13,515.95z"/>
  <path class="fil3" d="M181.44 1082.32c-23.59,25.72 -19.78,26 -15.35,57.99 33.59,19.18 21.14,10.03 50.58,38.93 25.41,24.95 22,20.72 39.79,47.94 27.28,7.13 16.78,-1.9 22.67,23.85 34.56,22.35 24.83,18.46 53.83,47.49 40.43,40.45 17.86,29.37 77.72,34.69 6.48,-29.35 23.41,-39.33 48.53,-63.31 14.06,-13.43 22.63,-19.89 34.68,-34.42 25.31,-30.53 11.97,-14.19 20.15,-30.99l-6.04 -66.19 -80.43 -6.84 -13.51 -9.44c-25.17,36.55 -14.95,40.28 -71.91,41.23 -7.04,-65 18.69,-71.77 57.96,-95.69l-10.41 -15.72 -20.57 -27.48 -69.57 4.85 0.02 80.88c-18.84,18.98 -46.9,39.45 -76.57,33.99 -64.63,-11.89 -47.4,17.64 -41.56,-61.74z"/>
  <path class="fil4" d="M121.63 1210.4c-11.7,35.58 -23.35,96.61 -38.42,125.19l-5.44 45.42c-7,79.74 -5.91,20.34 13.57,42.92l83.79 -16.59 110.45 -24.06c49.55,-19.06 7.42,-4.83 25.89,-23.23 -2.05,-2.08 -19.05,-19.17 -20.06,-20.42 -14.82,-18.46 -5.01,-4.81 -22.05,-30.78l-74.02 -73.96c-31.91,-14.14 -20.7,-5 -34.02,-33.45l-32.98 -18.22 -6.72 27.17z"/>
  <path class="fil0" d="M269.37 1308.85c17.04,25.96 7.23,12.31 22.05,30.78 1.01,1.25 18.01,18.34 20.06,20.42 -18.47,18.4 23.66,4.17 -25.89,23.23l13.69 54.91c20.7,-3.31 45.57,-5.71 64.95,-11.48 10.89,-3.24 20.57,-8.03 31.03,-13.3l19.24 -14.23c-23.08,-21.29 -32.68,-15.45 -3.81,-65.96 -59.86,-5.32 -37.3,5.76 -77.72,-34.69 -29,-29.03 -19.27,-25.14 -53.83,-47.49 6.09,33.69 20.12,50.43 -9.75,57.81z"/>
  <path class="fil0" d="M17.99 1392.33c-1.88,3.94 -4.7,8.39 -5.77,11.75 -18.53,57.87 -13.23,44.57 -2.26,90.69 50.48,1.8 155.15,-11.58 193.64,-42.31l-43.88 6.4 15.4 -51.53 -83.79 16.59c-19.48,-22.58 -20.57,36.82 -13.57,-42.92 -22.47,20.56 6.71,-11.09 -25.58,24.96 -6.3,7.03 -10.2,14.76 -14.65,21.17 -22.01,-12.44 -15.54,24.56 -19.55,-34.81z"/>
  <path class="fil0" d="M32.42 1310.53l50.78 25.06c15.07,-28.57 26.72,-89.61 38.42,-125.19l-42.96 -9.05 -8.29 -16.69c-19.81,23.24 -1.09,-12.95 -14.87,25.14 -1.93,5.32 -5.99,26.75 -7.73,34.33 -5.07,22.15 -10.26,44.25 -15.36,66.4z"/>
  <polygon class="fil0" points="175.13,1407.33 159.72,1458.86 203.61,1452.46 299.27,1438.18 285.58,1383.28 "/>
  <path class="fil0" d="M17.99 1392.33c4.02,59.37 -2.46,22.36 19.55,34.81 4.44,-6.41 8.35,-14.14 14.65,-21.17 32.29,-36.05 3.11,-4.41 25.58,-24.96l5.44 -45.42 -50.78 -25.06 -14.43 81.81z"/>
  <path class="fil0" d="M269.37 1308.85c29.87,-7.38 15.84,-24.13 9.75,-57.81 -5.88,-25.75 4.61,-16.71 -22.67,-23.85 -40.56,-9.37 -49.53,-23.41 -61.11,7.7l74.02 73.96z"/>
  <path class="fil5" d="M414.06 1122c-28.7,-16.84 -21.4,-1.21 -13.95,-54.45 -39.27,23.92 -65,30.68 -57.96,95.69 56.96,-0.95 46.74,-4.69 71.91,-41.23z"/>
  <path class="fil5 str0" d="M161.33 1201.44c13.33,28.45 2.11,19.31 34.02,33.45 11.58,-31.12 20.55,-17.07 61.11,-7.7 -17.78,-27.22 -14.38,-22.98 -39.79,-47.94 -29.44,-28.91 -16.99,-19.76 -50.58,-38.93 8.11,32.61 21.62,46.74 -4.76,61.13z"/>
  <path class="fil0" d="M562.36 671.93c51.79,-10.99 45.01,-8.24 55.69,-53.99 -49.41,-13.9 -8.57,-18.74 -63.72,0.23l8.04 53.76z"/>
 </g>
</svg>
