<?xml version="1.0" encoding="UTF-8"?>
<!DOCTYPE svg PUBLIC "-//W3C//DTD SVG 1.1//EN" "http://www.w3.org/Graphics/SVG/1.1/DTD/svg11.dtd">
<!-- Creator: CorelDRAW -->
<svg xmlns="http://www.w3.org/2000/svg" xml:space="preserve" width="100%" height="100%" version="1.1" style="shape-rendering:geometricPrecision; text-rendering:geometricPrecision; image-rendering:optimizeQuality; fill-rule:evenodd; clip-rule:evenodd"
viewBox="0 0 417.68 418.58"
 xmlns:xlink="http://www.w3.org/1999/xlink"
 xmlns:xodm="http://www.corel.com/coreldraw/odm/2003">
 <defs>
  <style type="text/css">
   <![CDATA[
    .fil0 {fill:#404E57}
    .fil3 {fill:#63B4F5}
    .fil2 {fill:#ED5250}
    .fil1 {fill:#FEC828}
   ]]>
  </style>
 </defs>
 <g id="Layer_x0020_1">
  <metadata id="CorelCorpID_0Corel-Layer"/>
  <path class="fil0" d="M372 8.39c0.05,22.64 3.85,55.67 -4.46,72.09 -9.15,1.98 -11.81,3.8 -18.15,-2.59 -4.72,-4.76 -0.8,-2.31 -4.51,-6.67 -4.3,-5.06 1,-2.71 -6.45,-4.77l-2.8 45.87c-26.41,13.02 -24.98,-10.2 -24.83,-34.94 0.14,-21.96 0.04,-43.98 0.04,-65.96l61.15 -3.04zm-260.3 70.85c3.8,-3.73 4.19,-4.35 4.46,-15.95 0.31,-13.21 -6.05,-45.51 6,-52.92 14.91,-6.24 154.06,-3.49 181.35,-2.43 0.12,45.91 -13.67,127.68 27.99,114.65 15.14,-4.73 13.22,-20.66 13.85,-35.85 46.77,11.46 33.9,-39.61 33.97,-77.77 41.02,-7.66 30.25,23.87 30.25,56.94 0,39.56 2.5,262.43 -1.78,269.54 -6.95,11.58 -53.06,7.19 -75.24,7.19l-74.54 0.19c-13.48,2.82 -3.33,-0.67 -8.37,4.09 12.18,7.41 88.07,2.92 108.72,2.92 59.93,0.01 58.49,3.28 58.47,-57.41 -0.02,-75.51 0,-151.02 0,-226.53 0,-57.78 11.06,-64.86 -47,-65.91l-229.61 0.41c-21.26,0.09 -30.68,3.39 -31.64,25.17 -0.56,12.71 -2.84,45.03 3.1,53.66z"/>
  <path class="fil0" d="M247.76 206.42c15.37,12.45 58.94,-3.9 30.09,77.32 -10.76,30.3 -35.3,56.27 -59.52,69.39 -133.9,72.52 -291.63,-102.64 -166.74,-229.68 15.97,-16.25 58.87,-38.55 93.76,-33.29 18.07,2.72 16.92,22.09 22.82,39.54 4.21,12.44 13.96,35.76 26.31,39.12 -1.55,-10.5 -14.92,-27.15 -20.42,-44.86 -6.81,-21.96 -4.06,-38.12 -27.98,-40.99 -106.57,-12.8 -193.85,125.52 -116.68,231.53 36.05,49.52 117.8,87.59 194.15,43.94 25.2,-14.41 50.31,-40.47 61.68,-73.27 10.06,-29.02 19.58,-67.2 -11.59,-77.02 -26.26,-8.28 -21.55,-6.04 -25.89,-1.73z"/>
  <path class="fil1" d="M310.85 11.43c0,21.98 0.1,43.99 -0.04,65.96 -0.16,24.74 -1.58,47.96 24.83,34.94l2.8 -45.87c7.44,2.06 2.15,-0.29 6.45,4.77 3.7,4.36 -0.22,1.91 4.51,6.67 6.34,6.39 9,4.57 18.15,2.59 8.31,-16.42 4.51,-49.45 4.46,-72.09l-61.15 3.04z"/>
  <path class="fil2" d="M154.66 315.38c7.8,-18.39 -1.76,-34.74 -14.19,-40.22 -16.35,-7.2 -34.47,0.41 -40.95,13.65 -18.75,38.3 40.09,62.04 55.14,26.56z"/>
  <path class="fil1" d="M92.99 249.43c14.12,-37.66 -44.28,-56.56 -56.96,-21.33 -14.86,41.29 43.7,56.69 56.96,21.33z"/>
  <path class="fil3" d="M77.97 163.41c1.88,13.67 17.32,26.66 34.98,23.82 15.24,-2.45 27.25,-16.7 24.56,-35.06 -5.37,-36.7 -65.45,-31.63 -59.55,11.24z"/>
  <path class="fil0" d="M208.55 172.98l21.02 -0.76 8.1 84.76 -38.31 -0.09 9.18 -83.9zm-10.8 118.3c4.91,-7.47 1.36,-15.85 2.63,-26.99l37.51 0.05c1.02,11.06 -2.06,17.67 2.88,26.57 12.99,-14.64 -2.29,-102.72 -4.67,-125.84l-32.63 0.04c-7.65,19.86 -17.16,115.51 -5.72,126.18z"/>
  <path class="fil0" d="M249.8 224.18c1.53,15.38 20.05,22.92 11.19,51.16 -5.11,16.28 -20.07,29.79 -40.31,30.66 -35.74,1.54 -59.09,-38.65 -38.2,-69.12 6.33,-9.23 5.12,-1.33 6.11,-12.65 -31.58,6.08 -30.62,87.88 29.22,88.95 58.99,1.06 65.72,-78.13 31.99,-89z"/>
  <path class="fil0" d="M77.97 163.41c-5.91,-42.87 54.18,-47.95 59.55,-11.24 2.69,18.36 -9.32,32.61 -24.56,35.06 -17.67,2.84 -33.1,-10.15 -34.98,-23.82zm17.09 -40.76c-49.18,18.68 -18.97,89.69 28.02,69.45 40.65,-17.51 19.91,-87.65 -28.02,-69.45z"/>
  <path class="fil0" d="M92.99 249.43c-13.26,35.36 -71.82,19.96 -56.96,-21.33 12.68,-35.23 71.08,-16.33 56.96,21.33zm-43.85 -43.5c-45.38,22.14 -16.06,84.94 28.12,69.22 46.75,-16.64 19.13,-92.27 -28.12,-69.22z"/>
  <path class="fil0" d="M154.66 315.38c-15.05,35.47 -73.89,11.74 -55.14,-26.56 6.48,-13.24 24.61,-20.85 40.95,-13.65 12.43,5.48 21.99,21.83 14.19,40.22zm-35.97 -48.93c-50.94,14.25 -29.76,83.46 17.01,72.7 48.94,-11.26 29.97,-85.83 -17.01,-72.7z"/>
  <path class="fil0" d="M205.02 150.29c-16.52,-30.85 1.57,-43.67 9.31,-62.61l5.49 11.11c1.17,3.96 0.3,3.82 2.21,8.73 7.47,19.2 28.54,18.21 11.65,43.36l-28.66 -0.59zm-4.31 6.77l37.21 0.93c10.92,-15.68 15.24,-25.03 -0.35,-40.13 -15.93,-15.43 -8.53,-23.78 -12.67,-47.61 -9.46,0.79 -51.5,48.78 -24.19,86.81z"/>
  <path class="fil0" d="M229.07 409.96l-20.03 0.99c-1.08,-11.91 0.53,-29.22 -5.56,-37.28 -5.37,6.2 -4.58,25.57 -1.78,35.59 3.36,12 17.41,9.59 29.32,7.93 7.78,-10.43 11.72,-50.02 4.01,-60.46 -5.43,11 -4.36,36.77 -5.96,53.23z"/>
  <path class="fil0" d="M312.66 157.67c-3.36,-18.94 5.64,-21 20.94,-17.88 5.71,13.84 6.04,15.24 -3.92,23.57 -9.71,0.94 -11.54,-0.74 -17.02,-5.69zm1.68 -25.67c-6.4,7.46 -13.97,13.39 -9.25,27.18 3.14,9.16 13.95,15.28 26.09,11.61 19.04,-5.75 22.63,-43.89 -16.85,-38.79z"/>
  <path class="fil1" d="M312.66 157.67c5.48,4.95 7.31,6.63 17.02,5.69 9.96,-8.33 9.63,-9.73 3.92,-23.57 -15.3,-3.12 -24.3,-1.06 -20.94,17.88z"/>
 </g>
</svg>
