<?xml version="1.0" encoding="UTF-8"?>
<!DOCTYPE svg PUBLIC "-//W3C//DTD SVG 1.1//EN" "http://www.w3.org/Graphics/SVG/1.1/DTD/svg11.dtd">
<!-- Creator: CorelDRAW -->
<svg xmlns="http://www.w3.org/2000/svg" xml:space="preserve" width="100%" height="100%" version="1.1" style="shape-rendering:geometricPrecision; text-rendering:geometricPrecision; image-rendering:optimizeQuality; fill-rule:evenodd; clip-rule:evenodd"
viewBox="0 0 1930.67 1928.86"
 xmlns:xlink="http://www.w3.org/1999/xlink"
 xmlns:xodm="http://www.corel.com/coreldraw/odm/2003">
 <defs>
  <style type="text/css">
   <![CDATA[
    .fil2 {fill:#050505}
    .fil1 {fill:#606060}
    .fil0 {fill:#999999}
    .fil4 {fill:#EAB3AC}
    .fil5 {fill:#F68147}
    .fil6 {fill:#F8DDC8}
    .fil3 {fill:#FDD66C}
   ]]>
  </style>
 </defs>
 <g id="Layer_x0020_1">
  <metadata id="CorelCorpID_0Corel-Layer"/>
  <path class="fil0" d="M800.59 60.26c132.33,-16.4 197.09,-16.4 329.43,0 -0.58,51.59 -4.94,146.95 2.95,191.82 62.08,25.36 76.08,19.44 155.94,59.7 58.04,29.26 53.29,40.83 89.65,4.33l108.61 -107.28 98.19 76.35c11.62,10.69 15.53,19.65 27.26,30.58 38.69,36.04 79.6,77.04 106.69,125.03 -20.29,24.97 -49.35,51.15 -73.46,75.17 -92.42,92.1 -55.16,48.43 -4.55,175.79 52.11,131.15 -16.44,105.83 226.89,106.73 18.02,123.1 17.11,206.24 0.11,329.27 -230.29,-0.73 -176.76,-27.93 -228.56,109.88 -36.61,97.39 -75.33,92.03 -27.56,138.71l107.25 108.94c-12.57,19.79 -33.79,49.12 -49.92,66.22l-56.88 58.87c-12.6,11.75 -17,21.72 -29.84,32.8 -12.24,10.58 -17.54,13.56 -31.47,26.47 -12.08,11.19 -48.47,38.74 -64.15,47.65l-110.97 -109.77c-11.04,-11.1 -21.48,-26.19 -43.28,-16.94 -11.75,4.98 -32.67,17.97 -47.22,25.39 -171.83,87.64 -162.41,-15.54 -156.05,249.41 -123.22,16.91 -205.89,18.22 -328.18,-0.08l-3.9 -191.24c-66.47,-26.41 -73.44,-18.78 -155.94,-59.58 -11.09,-5.49 -39.49,-23.56 -46.56,-25.76 -21.53,-6.7 -32.63,10.81 -43.04,21.26l-108.58 107.31c-17.72,-10.06 -52.31,-36.39 -66.61,-49.97l-165.65 -182.07c20.94,-24.78 47.16,-48.73 71.2,-72.66 96.43,-95.99 53.98,-54.49 8.39,-174.88 -9.74,-25.72 -26.11,-89.24 -37.14,-106.58 -37.87,-8.08 -144.82,-3.96 -191.49,-3.25 -19.02,-122.17 -14.52,-207.8 0.02,-329.62 46.3,0.76 154.01,4.72 191.47,-3.27 13.99,-22 25.19,-77.54 36.93,-106.75 39.64,-98.65 74.7,-92.71 27.87,-138.46l-107.31 -108.86c14,-24.94 55.31,-73.84 76.08,-98.12l89.63 -84.01c16.13,-15.24 45.49,-36.37 64.38,-49.91l110.84 107.22c10.41,10.54 21.04,27.83 42.36,20.69 9.34,-3.13 38.06,-20.3 50.49,-26.65 179.12,-91.4 158.69,17.32 155.67,-249.88zm-47.08 157.44c-59.94,13.86 -114.06,43.24 -164.09,66.94 -46.07,-32.54 -117.8,-134.19 -148.2,-129.78 -32.86,4.76 -125.15,95.43 -154.39,124.83 -27.14,27.27 -38.97,33.6 -68.75,71.13 -9.25,11.65 -54.12,68.98 -58.88,81.07 -10.86,27.57 37.87,63.18 53.72,78.74 21.5,21.1 51.18,55.87 73.64,71.4 -6.91,30.5 -43.83,80.11 -66.84,169.5 -36.04,-0.85 -165.03,-6.21 -189.3,3.98 -40.59,39.91 -40.52,375.26 0,415.08 24.33,10.22 153.2,4.81 189.32,4.01 23.11,88.65 60.12,139.93 66.81,169.48 -21.69,15.04 -50.54,48.48 -71.2,68.99 -81.08,80.52 -81.44,55.64 31.75,196.03l88.55 85.06c10.19,9.14 8.48,9.95 20.02,18.26 102.01,73.33 78.67,82.86 159.62,0.61 20.07,-20.39 53.04,-56.65 74.12,-71.54 50.5,24.84 103.08,52.36 164.09,66.93l-0.12 187.59c41.71,40.47 385.18,47.61 421.89,-1.57l1.88 -186.02c60.59,-14.49 113.8,-42.2 164.02,-66.98l107.8 105.31c39.71,40.18 39.75,32.35 128.61,-36.47l54.77 -51.03c17.16,-21.29 57.13,-54.93 103.15,-113.85 14.65,-18.76 38.38,-44.58 38.89,-73.42l-129.14 -129.1c5.41,-27.82 23.19,-49.98 35.23,-78.96 11.9,-28.65 22.11,-58.6 30.24,-89.36 35.97,0.84 165.35,6.24 189.46,-3.96 40.52,-39.91 40.76,-375.03 0,-415.04 -24.56,-10.29 -153.19,-4.83 -189.46,-3.99 -7.84,-29.67 -17.75,-57.87 -28.89,-85.89 -12.25,-30.84 -30.93,-53.51 -37.85,-83.69 21.2,-14.38 50.99,-48.82 71.26,-68.94 77.77,-77.21 76.92,-56.76 -0.68,-159.46l-139.8 -139.71c-11.68,-8.41 -70.9,-55.13 -81.8,-58.13 -25.39,-6.99 -64.05,43.44 -77.67,57.35 -19.65,20.08 -53.48,57.07 -74.11,71.57 -52.78,-24.85 -100.67,-52.29 -164.09,-66.95 0.12,-35.85 0.01,-71.75 0.06,-107.62 0.04,-25.56 11.19,-78.49 -15.42,-90.49 -57.11,-25.76 -319.12,-26.04 -389.35,-1.28 -28.8,10.15 -19.04,55.42 -18.96,86.95 0.08,37.48 -0.03,74.98 0.09,112.44z"/>
  <path class="fil0" d="M763.69 412.22c-442.63,152.56 -523.58,765.01 -135.08,1032.15 185.87,127.81 183.44,47.65 162.18,30.88 -24.27,-19.13 -115.21,-21.67 -245.83,-173.41 -69.2,-80.39 -125.18,-216.02 -119.87,-357.5 8.19,-217.92 144.95,-409.14 349,-485.94 48.97,-18.44 24.2,-58.1 -10.39,-46.18z"/>
  <path class="fil0" d="M1537.63 1084.12c-14.82,-52.41 -24.77,-76.28 15.81,-111.59 -7.72,-425.21 -374.78,-578.99 -411.54,-560.54 -13.51,6.78 -15.37,26.39 -4.88,36.75 12.31,12.16 118.24,35.68 213,134.35 66.36,69.11 133.92,174.04 151.68,311.88 36.65,284.39 -147.72,498.33 -341.47,571.48 -55.95,21.13 -26.37,53.51 0.94,49.8 59.39,-8.06 179.2,-99.76 215.07,-132.63 67.92,-62.22 162.07,-215.92 161.37,-299.5z"/>
  <path class="fil1" d="M1537.63 1084.12l7.05 -23.47 -7.49 -6.04c-2.67,-22.11 -4.47,-49.02 11.02,-61.33l0.26 20.27c7.11,-16.12 4.39,-19.81 4.97,-41.02 -40.58,35.3 -30.64,59.18 -15.81,111.59z"/>
  <path class="fil2" d="M1336.88 368.6c18.61,-41.63 87.56,-111.43 130.48,-131.52 55.02,21.81 197.79,167.28 221.74,214.85 -17.35,42.77 -97.58,121.57 -140.47,139.7 -56.51,-76.14 -156.61,-142.44 -211.75,-223.03zm-1015.34 991.14l8.29 16.69 42.96 9.05 6.72 -27.17 32.98 18.22c26.39,-14.38 12.88,-28.52 4.76,-61.13 -4.43,-31.99 -8.24,-32.27 15.35,-57.99l337.51 -326.81 2.98 -60.39c-113.93,-1.08 -51.52,24.71 -247.54,-170.88 -67.09,-66.95 -175.91,-162.55 -227.81,-233.5 17.33,-52.1 138.89,-168.93 183.62,-190.79l74.29 75.78c-37.24,50.2 -52.01,31.26 -40.22,96.02 50.63,1.97 65.83,-25.02 90.92,-44.15l80.93 75.89c-27.56,62.25 -43.85,18.83 -35.23,93.52 73.24,7.84 32.14,-11.11 93.17,-34.43 32.52,30.81 56.3,56.42 89.82,88.26 52.91,50.24 52.41,36.31 67.93,122.51 63.38,-0.12 73.76,-33.64 109.52,-71.11 32.31,-33.85 57.24,-57.04 90.13,-90.31 41.93,-42.42 140.71,-151.44 184.2,-171.7 41.36,29.51 205.27,191.67 221.81,231.03 -121.23,127.27 -242.35,243.07 -367.26,368.33 -77.17,77.39 -303.54,323.85 -376.18,364.89 -8.18,16.8 5.17,0.46 -20.15,30.99 -12.05,14.53 -20.62,20.99 -34.68,34.42 -25.12,23.98 -42.05,33.96 -48.53,63.31 -28.87,50.51 -19.27,44.67 3.81,65.96 60.93,-41.12 112.51,-106.47 170.14,-171.19 43.49,-48.85 128.85,-134.07 171.82,-155.74l213.69 -221.63c21.38,-19.43 20.78,-19 42.71,-34.48l74.69 -84.72c31.27,-31.22 52.69,-52.33 83.33,-83.22 384.07,-387.22 401.9,-331.81 211.11,-523.24 -46.56,-46.72 -111.16,-141.31 -188.55,-122.51 -56.94,13.83 -387.74,382.41 -495.79,471.64l-467.44 -455.46c-48.91,13.97 -240.82,207.2 -268.61,258.23 -4.53,40.87 421.69,450.2 453.35,466.2 -65.03,146.91 -347.42,270.12 -344.57,441.61z"/>
  <path class="fil3" d="M902.97 748.43l-33.76 44.59c-10.68,45.75 -3.89,43 -55.69,53.99l-27.9 60.51c-1.61,3 -6.16,13.76 -7.41,11.44 -1.3,-2.42 -4.62,8.43 -8.09,11.63l-337.51 326.81c-5.84,79.38 -23.07,49.86 41.56,61.74 29.68,5.46 57.73,-15.01 76.57,-33.99l-0.02 -80.88 69.57 -4.85 20.57 27.48c55.12,-25.03 432.08,-418.21 530.13,-515.95 31.32,-31.22 52.28,-52.48 83.18,-83.54 41.02,-41.23 47.26,-69.74 118.53,-69.78 -5.98,66.9 -29.87,71.48 -66.86,107.57 -115.33,112.51 -600.81,588.55 -627.11,641.33l80.43 6.84 6.04 66.19c72.65,-41.03 299.01,-287.49 376.18,-364.89 124.91,-125.26 246.03,-241.06 367.26,-368.33 -16.55,-39.36 -180.45,-201.52 -221.81,-231.03 -43.49,20.26 -142.27,129.28 -184.2,171.7 -32.89,33.28 -57.82,56.46 -90.13,90.31 -35.76,37.47 -46.14,70.99 -109.52,71.11z"/>
  <path class="fil4" d="M770.12 930.58c3.47,-3.2 6.79,-14.04 8.09,-11.63 1.25,2.32 5.8,-8.44 7.41,-11.44l27.9 -60.51 -8.04 -53.76c55.16,-18.97 14.31,-14.13 63.72,-0.23l33.76 -44.59c-15.52,-86.2 -15.02,-72.27 -67.93,-122.51 -33.52,-31.84 -57.3,-57.44 -89.82,-88.26 -61.03,23.32 -19.93,42.27 -93.17,34.43 -8.62,-74.69 7.68,-31.27 35.23,-93.52l-80.93 -75.89c-25.09,19.13 -40.28,46.11 -90.92,44.15 -11.79,-64.77 2.99,-45.83 40.22,-96.02l-74.29 -75.78c-44.73,21.86 -166.29,138.69 -183.62,190.79 51.9,70.96 160.72,166.56 227.81,233.5 196.01,195.59 133.6,169.8 247.54,170.88l-2.98 60.39z"/>
  <path class="fil4" d="M1007.61 1247.31c28.21,16.39 16.39,-39.46 34.41,-35.69 74.97,27.61 109.82,126.18 169.04,149 40.81,40.49 32.93,28.65 63.77,77.22 21.45,33.76 32.36,47.82 64.78,67.49 29,-44.16 39.48,-88.16 79.18,-107.32 80.31,-38.76 83.72,16.69 164.62,37.28 7.31,-32.65 6.46,-12.31 -0.26,-48.84 -11.94,-37.99 -6.02,-25.56 -46.34,-59.35 -57.95,21.61 -26.98,40.91 -90.66,33.83 -9.69,-55.45 13.8,-43.02 19.11,-114.57 -32.76,-12.31 -24.75,-23.5 -67.32,-46.56 -36.93,26.49 -27.08,37.13 -78.8,38.27 -15.17,-62.43 -0.58,-55.31 31.31,-91.81l-63.67 -67.91 2.59 -59.54 -25.34 -27.62c-21.93,15.47 -21.33,15.05 -42.71,34.48l-213.69 221.63z"/>
  <path class="fil5" d="M1336.88 368.6c55.13,80.58 155.24,146.89 211.75,223.03 42.89,-18.13 123.12,-96.93 140.47,-139.7 -23.95,-47.56 -166.72,-193.04 -221.74,-214.85 -42.92,20.09 -111.88,89.89 -130.48,131.52z"/>
  <path class="fil2" d="M640.87 1226.9l10.41 15.72c-7.45,53.24 -14.75,37.61 13.95,54.45l13.51 9.44c26.31,-52.78 511.79,-528.82 627.11,-641.33 36.99,-36.09 60.88,-40.67 66.86,-107.57 -71.27,0.04 -77.51,28.55 -118.53,69.78 -30.9,31.06 -51.86,52.32 -83.18,83.54 -98.05,97.74 -475,490.92 -530.13,515.95z"/>
  <path class="fil2" d="M1042.02 1262.84c21.1,82.3 365.62,426.64 425.34,454.37l144.37 -139.7c-35.41,-13.3 -25.31,-10.55 -62.57,-21.26 -43.73,32.83 -39.16,46.96 -81.8,76.72l-127.76 -127.64c-32.42,-19.67 -43.33,-33.73 -64.78,-67.49 -30.85,-48.57 -22.96,-36.73 -63.77,-77.22 -81.51,-76.74 -212.04,-226.98 -182.41,-132.56 2.88,9.18 7.28,20.67 13.37,34.77z"/>
  <path class="fil3" d="M432.61 1257.4c-23.59,25.72 -19.78,26 -15.35,57.99 33.59,19.18 21.14,10.03 50.58,38.93 25.41,24.95 22,20.72 39.79,47.94 27.28,7.13 16.78,-1.9 22.67,23.85 34.56,22.35 24.83,18.46 53.83,47.49 40.43,40.45 17.86,29.37 77.72,34.69 6.48,-29.35 23.41,-39.33 48.53,-63.31 14.06,-13.43 22.63,-19.89 34.68,-34.42 25.31,-30.53 11.97,-14.19 20.15,-30.99l-6.04 -66.19 -80.43 -6.84 -13.51 -9.44c-25.17,36.55 -14.95,40.28 -71.91,41.23 -7.04,-65 18.69,-71.77 57.96,-95.69l-10.41 -15.72 -20.57 -27.48 -69.57 4.85 0.02 80.88c-18.84,18.98 -46.9,39.45 -76.57,33.99 -64.63,-11.89 -47.4,17.64 -41.56,-61.74z"/>
  <path class="fil2" d="M1465.24 1246.38l29.89 48.96c44.1,7.56 73.85,19.98 102.5,40.86 35.33,25.75 24.47,32.93 36.3,74.19 11.92,46.78 19.56,39.28 -16.73,78.76 -23.62,25.7 -45.34,41.41 -68.04,67.11 37.26,10.71 27.16,7.96 62.57,21.26 43.68,-30.56 83.34,-79.63 115.28,-125.72 -23.76,-61.76 -156.93,-179.14 -208.44,-231.75 -49.63,-50.7 -197.8,-220.58 -266.23,-238.24l-24.34 37.78 122.44 126.68c-31.89,36.5 -46.48,29.38 -31.31,91.81 51.71,-1.14 41.87,-11.78 78.8,-38.27 42.57,23.07 34.56,34.26 67.32,46.56z"/>
  <path class="fil4" d="M1339.6 1505.34l127.76 127.64c42.64,-29.77 38.07,-43.89 81.8,-76.72 22.7,-25.7 44.42,-41.42 68.04,-67.11 36.3,-39.48 28.65,-31.98 16.73,-78.76 -14.48,-7.06 -36.57,-16.63 -50.8,-23.92 6.73,36.53 7.58,16.19 0.26,48.84 -80.9,-20.59 -84.31,-76.05 -164.62,-37.28 -39.7,19.16 -50.18,63.17 -79.18,107.32z"/>
  <path class="fil6" d="M372.79 1385.47c-11.7,35.58 -23.35,96.61 -38.42,125.19l-5.44 45.42c-7,79.74 -5.91,20.34 13.57,42.92l83.79 -16.59 110.45 -24.06c49.55,-19.06 7.42,-4.83 25.89,-23.23 -2.05,-2.08 -19.05,-19.17 -20.06,-20.42 -14.82,-18.46 -5.01,-4.81 -22.05,-30.78l-74.02 -73.96c-31.91,-14.14 -20.7,-5 -34.02,-33.45l-32.98 -18.22 -6.72 27.17z"/>
  <path class="fil2" d="M520.54 1483.92c17.04,25.96 7.23,12.31 22.05,30.78 1.01,1.25 18.01,18.34 20.06,20.42 -18.47,18.4 23.66,4.17 -25.89,23.23l13.69 54.91c20.7,-3.31 45.57,-5.71 64.95,-11.48 10.89,-3.24 20.57,-8.03 31.03,-13.3l19.24 -14.23c-23.08,-21.29 -32.68,-15.45 -3.81,-65.96 -59.86,-5.32 -37.3,5.76 -77.72,-34.69 -29,-29.03 -19.27,-25.14 -53.83,-47.49 6.09,33.69 20.12,50.43 -9.75,57.81z"/>
  <path class="fil2" d="M269.15 1567.41c-1.88,3.94 -4.7,8.39 -5.77,11.75 -18.53,57.87 -13.23,44.57 -2.26,90.69 50.48,1.8 155.15,-11.58 193.64,-42.31l-43.88 6.4 15.4 -51.53 -83.79 16.59c-19.48,-22.58 -20.57,36.82 -13.57,-42.92 -22.47,20.56 6.71,-11.09 -25.58,24.96 -6.3,7.03 -10.2,14.76 -14.65,21.17 -22.01,-12.44 -15.54,24.56 -19.55,-34.81z"/>
  <path class="fil2" d="M1583.14 1386.46c14.23,7.29 36.32,16.87 50.8,23.92 -11.83,-41.26 -0.97,-48.44 -36.3,-74.19 -28.65,-20.88 -58.4,-33.3 -102.5,-40.86l-29.89 -48.96c-5.31,71.54 -28.79,59.12 -19.11,114.57 63.68,7.08 32.7,-12.22 90.66,-33.83 40.33,33.79 34.4,21.36 46.34,59.35z"/>
  <path class="fil2" d="M283.59 1485.6l50.78 25.06c15.07,-28.57 26.72,-89.61 38.42,-125.19l-42.96 -9.05 -8.29 -16.69c-19.81,23.24 -1.09,-12.95 -14.87,25.14 -1.93,5.32 -5.99,26.75 -7.73,34.33 -5.07,22.15 -10.26,44.25 -15.36,66.4z"/>
  <polygon class="fil2" points="426.29,1582.41 410.89,1633.94 454.77,1627.54 550.44,1613.26 536.74,1558.35 "/>
  <path class="fil2" d="M269.15 1567.41c4.02,59.37 -2.46,22.36 19.55,34.81 4.44,-6.41 8.35,-14.14 14.65,-21.17 32.29,-36.05 3.11,-4.41 25.58,-24.96l5.44 -45.42 -50.78 -25.06 -14.43 81.81z"/>
  <path class="fil2" d="M520.54 1483.92c29.87,-7.38 15.84,-24.13 9.75,-57.81 -5.88,-25.75 4.61,-16.71 -22.67,-23.85 -40.56,-9.37 -49.53,-23.41 -61.11,7.7l74.02 73.96z"/>
  <path class="fil2" d="M665.22 1297.08c-28.7,-16.84 -21.4,-1.21 -13.95,-54.45 -39.27,23.92 -65,30.68 -57.96,95.69 56.96,-0.95 46.74,-4.69 71.91,-41.23z"/>
  <path class="fil2" d="M412.49 1376.52c13.33,28.45 2.11,19.31 34.02,33.45 11.58,-31.12 20.55,-17.07 61.11,-7.7 -17.78,-27.22 -14.38,-22.98 -39.79,-47.94 -29.44,-28.91 -16.99,-19.76 -50.58,-38.93 8.11,32.61 21.62,46.74 -4.76,61.13z"/>
  <path class="fil2" d="M771.26 907.52c-147.03,152.63 244.11,-215.06 152.03,-179.4 -49.41,-13.9 -140.15,123.66 -195.31,142.63l43.28 36.77z"/>
 </g>
</svg>
