<?xml version="1.0" encoding="UTF-8"?>
<!DOCTYPE svg PUBLIC "-//W3C//DTD SVG 1.1//EN" "http://www.w3.org/Graphics/SVG/1.1/DTD/svg11.dtd">
<!-- Creator: CorelDRAW -->
<svg xmlns="http://www.w3.org/2000/svg" xml:space="preserve" width="100%" height="100%" version="1.1" style="shape-rendering:geometricPrecision; text-rendering:geometricPrecision; image-rendering:optimizeQuality; fill-rule:evenodd; clip-rule:evenodd"
viewBox="0 0 2071.89 1850.43"
 xmlns:xlink="http://www.w3.org/1999/xlink"
 xmlns:xodm="http://www.corel.com/coreldraw/odm/2003">
 <defs>
  <style type="text/css">
   <![CDATA[
    .fil0 {fill:#003399}
   ]]>
  </style>
 </defs>
 <g id="Layer_x0020_1">
  <metadata id="CorelCorpID_0Corel-Layer"/>
  <path class="fil0" d="M996.33 1719.52c-26.47,-209.91 139.11,-190.04 305.5,-190.17 101.26,-0.07 448.81,20.81 500.93,-27.89 64.84,-60.59 14.82,-841.41 33.1,-1007.93 100.69,14.33 74.72,71.51 74.65,247.25 -0.06,166.87 24.92,835.44 -22.15,887.38 -82.35,97.08 -851.12,-55.06 -892.04,91.36zm-961.7 -1116.02c0,-79.6 1.1,-98.81 74.41,-109.97 17.39,164.56 -32.21,945.51 33.48,1007.54 52.05,49.16 399.65,28.3 500.24,28.26 185.35,-0.07 304.82,-21.63 311.63,185.28 -86.67,-56.41 -81.42,-60.18 -215.42,-59.69l-549.78 0.58c-101.03,0.9 -154.56,10.61 -154.56,-104.81l0 -947.19zm-34.63 0l0 947.19c0,188.12 131.32,139.5 491.71,139.5 147.16,0 358.28,-30.93 427.76,50.57 47.31,55.5 11.61,62.76 52.82,109.67 13.67,-14.52 5.94,-1.45 16.54,-25.39 4.43,-10 6.16,-19 9.93,-29.59 11.97,-33.66 1,-22.13 27.15,-53.69 72.01,-86.95 392.62,-51.48 578.01,-51.57 249.02,-0.11 341.23,33.5 341.23,-139.5l0 -960.91c0,-89.65 -37.67,-144.88 -134.6,-122.32 -53.59,138.57 26.8,895.27 -27.22,1000.87 -81.83,101.01 -646.55,-61.8 -790.95,91.6l-4.11 -970.45c-7.54,-23.03 -9.41,-22.56 -15.98,-32.57 -38.54,60.09 -17.28,841.17 -17.62,1000.14 -143.62,-149.03 -668.97,9.56 -792.41,-88.72 -54.68,-111.72 27.59,-856.37 -26.92,-1002.35 -106.01,-20.13 -135.34,40.38 -135.34,137.53z"/>
  <path class="fil0" d="M1233.18 925.46c-34.25,-18.58 -55.44,-43.92 -79.68,-74.87 17.37,-76.58 64.57,-106.28 109.48,-145.84 38.53,30.88 88.57,69.24 109.81,123.51 -60.8,48.32 -47.46,69.32 -139.61,97.2zm183.86 -143.76c-52.55,-18.56 -94.18,-63.42 -117.33,-109.57 39.67,-57.39 116.09,-123.39 169.05,-176.41l343.17 -343.16c44.16,-44.17 124.75,-165.75 202.26,-82.3 72.12,77.65 -42.68,155.65 -85.81,198.7l-511.35 512.73zm-344.52 229.24c240.99,-18.01 387.74,-231.95 574.92,-418.75 85.82,-85.65 161.39,-161.28 247.09,-247.06 117.81,-117.93 239.01,-194.94 142.09,-297.7 -100.56,-106.62 -166.67,2.94 -294.53,131.3l-501.09 501.44c-83.3,85 -179.8,198.06 -168.48,330.78z"/>
  <path class="fil0" d="M603.57 18.44c26.41,24.32 -19.99,10.77 52.6,20.43l206.27 -0.44c75.16,-0.01 186.19,-17.06 247.16,15.14 48.57,65.83 31.4,369.59 1.89,432.81l-362.37 5.85 -78.07 110.06c-44.54,-35.82 -50.41,-68.15 -96.96,-108.66 -116.81,-13.86 -283.4,20.14 -367.3,-28.39 -21.88,-86.91 -22.16,-348.27 6.31,-415.09 56.48,-18.57 87.13,2.93 124.89,-30.94 -15.52,-36.39 -143.59,-22.87 -167.65,56.13 -19.01,62.41 -8.8,208.49 -8.92,281.39 -0.18,110.43 0.55,159.19 109.78,167.24 90.15,6.65 195.8,-1.44 289.04,1.63 27.53,39.91 61.6,98.93 109.96,124.29 37.7,-34.82 67.06,-80.14 99.05,-123.18 411.34,-27.63 398.8,96.57 399.13,-362.81 0.12,-171.95 -51.46,-160.35 -209.75,-159.81 -54.24,0.19 -334.8,-14.45 -355.07,14.37z"/>
  <path class="fil0" d="M670.21 344.09c-71.14,0 -40.75,1.97 -53.36,-28.86l0 -28.31c57.01,-6.15 82.35,-14.74 123.74,14.59 -10.9,51.05 -4.89,42.59 -70.38,42.59zm-47.91 -157.98c78.35,-4.41 94.21,-16.09 103.58,54.89l-108.53 1.64 4.95 -56.53zm-27.59 190.17c113.96,7.7 143.72,13.55 172.26,-37.11 26.94,-53.12 0.54,-38.07 -7.7,-81.95 -10.74,-57.22 48.04,-120.85 -170.28,-105.04 -11.61,68.03 -18.86,160.83 5.72,224.1z"/>
  <path class="fil0" d="M372.15 295.01c6,-55.63 30.33,-68.61 30.35,-68.73 0.85,-4.33 4.59,-4.52 9.76,-8.17l30.79 76.29 -70.91 0.61zm-78.8 81.62c67.63,-25.93 94.85,-88.27 186.25,-21.53 22.5,16.43 4.15,11.45 39.43,17.5 -11.43,-58.64 -74.9,-178.92 -109.69,-219.51 -39.2,25.08 -104.88,170.01 -115.98,223.54z"/>
  <path class="fil0" d="M1154.52 1083.96c23.54,46.26 289.08,22.23 394.65,23.11 62.64,0.52 95.86,14.11 116.88,-23.11 -38.86,-20.15 -471.66,-19.17 -511.53,0z"/>
  <path class="fil0" d="M312.63 1083.96c24.19,35.38 41.69,22.32 96.36,21.72 104.07,-1.15 356.2,22.08 382.18,-21.72 -46.91,-26.93 -428.84,-24.66 -478.54,0z"/>
  <path class="fil0" d="M313.29 823.14c23.73,41.77 127.17,23.27 233.35,23.28 45.83,0 91.76,-0.32 137.59,0.19 54.15,0.6 87.21,14.96 106.46,-23.46 -43.04,-20.44 -432.85,-19.2 -477.4,0z"/>
  <path class="fil0" d="M1032.15 356.41c-63.07,-28.73 -158.44,2.12 -154.65,-95.49 1.37,-35.32 20.44,-60.23 50.91,-70.43l71.11 -7.98c31.55,-8.91 18.9,-7.11 33.61,-18.29l-60.94 -15.98c-73.36,-1.06 -134.3,44.48 -128.95,125.92 4.97,75.76 131.4,154.98 188.92,82.24z"/>
  <path class="fil0" d="M1552.67 297.68c44.85,-7.29 246.39,-197.3 253.43,-253.25 -62.57,4.83 -247.28,209.16 -253.43,253.25z"/>
  <path class="fil0" d="M409.64 13.3c15.55,31.11 -4.24,24.21 54.6,28.25 62.44,4.28 50.09,-4.4 67.72,-26.41l-25.76 -12.9 -69.42 1.92 -27.15 9.14z"/>
 </g>
</svg>
