<?xml version="1.0" encoding="UTF-8"?>
<!DOCTYPE svg PUBLIC "-//W3C//DTD SVG 1.1//EN" "http://www.w3.org/Graphics/SVG/1.1/DTD/svg11.dtd">
<!-- Creator: CorelDRAW -->
<svg xmlns="http://www.w3.org/2000/svg" xml:space="preserve" width="100%" height="100%" version="1.1" style="shape-rendering:geometricPrecision; text-rendering:geometricPrecision; image-rendering:optimizeQuality; fill-rule:evenodd; clip-rule:evenodd"
viewBox="0 0 393.7 565.89"
 xmlns:xlink="http://www.w3.org/1999/xlink"
 xmlns:xodm="http://www.corel.com/coreldraw/odm/2003">
 <defs>
  <style type="text/css">
   <![CDATA[
    .fil1 {fill:#404E57}
    .fil0 {fill:#63B4F5}
    .fil3 {fill:#ED5250}
    .fil2 {fill:#FEC828}
   ]]>
  </style>
 </defs>
 <g id="Layer_x0020_1">
  <metadata id="CorelCorpID_0Corel-Layer"/>
  <path class="fil0" d="M192.33 348.43c16.27,-8.37 41.54,5.03 52.11,15.19 7.33,7.04 19.39,26.74 20.13,38.44 1.2,19.2 -2.11,12.07 -4.77,15.35 -12.14,-17.48 -3.05,-25.71 -23.2,-45.81 -18.09,-18.04 -35.72,-11.45 -44.27,-23.17zm-77.75 211.18c26.32,-2.02 8.95,4.76 34.34,5.91 21.22,0.96 15.63,-6.59 39.54,-6.74 26.61,-23.87 136.08,23.98 177.75,-35.19 17.41,-24.72 14.2,-58.84 -3.47,-79.51 -23.76,-27.81 -38.49,-20.61 -79.1,-27.17 -4.33,-28.8 -5.53,-42.3 -23.94,-60.84 -13.49,-13.58 -32.69,-27.57 -60.99,-28.26 -54.81,-1.35 -81.35,38.96 -88.57,88.83 -12.17,2.22 -97.3,-3.61 -93.77,72.89 1.11,23.96 14.22,41.86 30.27,52.75 29.78,20.21 52.78,2.98 67.95,17.34z"/>
  <path class="fil1" d="M284.55 170.23l97.86 0.35 -0.02 171.27 -99.12 -0.41 1.29 -171.21zm-0.65 -36.06l97.96 0.96 -1.31 25.04 -96.15 -0.63 -0.5 -25.38zm-0.57 -10.42c0.13,-41.94 9.69,-35.3 49.08,-35.3 37.34,-0 50.02,-5.7 50.18,35.8l-99.26 -0.5zm3.15 227.83l95.52 1 -1.24 25.43 -83.91 1c3.35,9.94 -1.11,5.23 8.81,8.96l75.46 0.09c4.68,28.43 -2.37,21.52 -7.87,41.18 15.1,-4.77 17.64,-8.4 18.97,-27.52 1.06,-15.37 0.97,-34.06 0.59,-49.56l-0.03 -191.04c0.71,-26.85 5.37,-70.29 -15.9,-79.17 -13.68,-5.72 -79.09,-5.55 -91.12,1.84 -18.8,11.55 -12.85,59.05 -12.38,84.97l0.15 145.23c-0.24,21.05 -5.25,31.4 12.96,37.58z"/>
  <path class="fil1" d="M114.58 559.6c-15.17,-14.37 -38.17,2.87 -67.95,-17.34 -16.05,-10.89 -29.17,-28.79 -30.27,-52.75 -3.53,-76.5 81.61,-70.67 93.77,-72.89 7.22,-49.87 33.76,-90.19 88.57,-88.83 28.31,0.7 47.5,14.69 60.99,28.26 18.41,18.54 19.61,32.04 23.94,60.84 40.61,6.56 55.34,-0.63 79.1,27.17 17.67,20.67 20.88,54.79 3.47,79.51 -41.67,59.17 -151.14,11.32 -177.75,35.19 3.02,2.43 151.31,26.5 186.61,-30.26 17.03,-27.38 16.8,-60.57 -1.63,-87.48 -19.64,-28.68 -38.19,-26.87 -80.83,-33.9 -21.88,-120.71 -170,-120.01 -191.54,0.32 -41.43,5.1 -100.17,13.4 -94.48,86.22 5.12,65.49 82.59,80.31 107.99,65.94z"/>
  <path class="fil1" d="M47.7 92.79l26.32 -1.11 0.09 80.92c-9.58,18.81 1.84,3.04 -13.08,3.42 -11,0.28 -2.54,0.46 -13.4,3.62l0.07 -86.85zm-30.29 337.66c0.36,-11.1 -6.03,-14.26 -6.39,-36.06l0.15 -233.26c-0.01,-34.27 -10.7,-70.09 26.5,-68.48l0.39 106.37c17.96,-1.32 8.51,-1.36 23.01,-12.65 12.63,7.4 8.08,10.76 21.88,12.44l0.87 -107.13c38.1,2.13 26.61,35.69 26.61,115.3l-0.05 103.19c-0.05,5.06 -0.52,14.69 -0.13,19.25 0.54,6.31 -0.35,1.07 0.91,7.02 2.57,12.1 0.3,3.59 3.42,8.92 4.43,-5.44 5.22,-5.5 5.96,-19.66 0.33,-6.21 -0.33,-16.46 -0.37,-23.19l-0.01 -141.37c0,-30.83 7.46,-69.98 -19.5,-77.48 -17.57,-4.89 -73.5,-5.57 -86.94,3.3 -20.02,13.21 -12.2,53.97 -12.2,78.01l0 191.04c-0,27.48 -6.9,68.53 15.91,74.46z"/>
  <path class="fil1" d="M137.72 145.85c0,42.65 -2.04,140.66 1.72,177.23 12,-10.58 7.81,-23.19 7.73,-47.33l-0 -229.24c0,-36.65 0.58,-43.98 92.56,-33.91 17.37,29.7 0.26,276.23 7.57,301.11 2.7,9.18 0.92,4.33 4.85,9.09 4.74,-8.77 3.88,-2.11 3.88,-16.49l0 -267.45c0,-45.82 -20.43,-38.43 -80.32,-38.43 -52.38,0 -38,47.54 -38,145.41z"/>
  <polygon class="fil0" points="284.39,159.56 380.54,160.18 381.85,135.14 283.9,134.18 "/>
  <polygon class="fil2" points="296.85,379.02 380.76,378.02 382,352.59 286.48,351.59 "/>
  <path class="fil3" d="M47.63 179.64c10.86,-3.16 2.41,-3.34 13.4,-3.62 14.92,-0.39 3.5,15.39 13.08,-3.42l-0.09 -80.92 -26.32 1.11 -0.07 86.85z"/>
  <path class="fil1" d="M216.53 66.22c9.58,44.85 -34.11,37.81 -40,21.19 -9.48,-26.78 17.74,-41.59 40,-21.19zm-34.4 41.35l29.36 1.24c37.52,-42.85 4,-61.91 -12.91,-62.6 -38.98,-1.58 -41.06,37.26 -16.45,61.36z"/>
  <path class="fil2" d="M216.53 66.22c-22.26,-20.4 -49.48,-5.58 -40,21.19 5.89,16.62 49.58,23.66 40,-21.19z"/>
  <path class="fil1" d="M244.44 363.62c-10.57,-10.17 -35.84,-23.57 -52.11,-15.19 8.55,11.71 26.18,5.12 44.27,23.17 20.15,20.1 11.06,28.33 23.2,45.81 2.66,-3.27 5.98,3.86 4.77,-15.35 -0.73,-11.69 -12.8,-31.39 -20.13,-38.44z"/>
 </g>
</svg>
