<?xml version="1.0" encoding="UTF-8"?>
<!DOCTYPE svg PUBLIC "-//W3C//DTD SVG 1.1//EN" "http://www.w3.org/Graphics/SVG/1.1/DTD/svg11.dtd">
<!-- Creator: CorelDRAW -->
<svg xmlns="http://www.w3.org/2000/svg" xml:space="preserve" width="100%" height="100%" version="1.1" style="shape-rendering:geometricPrecision; text-rendering:geometricPrecision; image-rendering:optimizeQuality; fill-rule:evenodd; clip-rule:evenodd"
viewBox="0 0 1826.92 1209.76"
 xmlns:xlink="http://www.w3.org/1999/xlink"
 xmlns:xodm="http://www.corel.com/coreldraw/odm/2003">
 <defs>
  <style type="text/css">
   <![CDATA[
    .fil2 {fill:#5562A4}
    .fil1 {fill:#ED8453}
    .fil0 {fill:#F3A974}
   ]]>
  </style>
 </defs>
 <g id="Layer_x0020_1">
  <metadata id="CorelCorpID_0Corel-Layer"/>
  <path class="fil0" d="M71.18 312.77c165.04,42.88 731.73,255.22 843.05,257.53 53.42,1.1 769.84,-227.43 850.78,-263.36l0.5 -242.51 -1685.96 -4.01 -8.37 252.35z"/>
  <path class="fil1" d="M71.66 497.22c215.31,46.02 520.92,156.5 736.29,229.23 223.02,75.31 537.44,-123.38 770.87,-168.15 -69.04,180.7 -376.39,389.58 -608.41,467.48 -357.89,120.16 -587.54,50.69 -899.37,-58.09l6.86 181.35 1690.48 -3.96 -0.74 -765.17c-200.98,7.61 -696.35,253.79 -851.98,249.78 -53.22,-1.37 -337.96,-100.7 -415.45,-125.65 -106.28,-34.22 -314.09,-112.81 -429.17,-126.97l0.63 120.15z"/>
  <path class="fil0" d="M71.03 967.69c311.83,108.78 541.48,178.25 899.37,58.09 232.02,-77.9 539.37,-286.78 608.41,-467.48 -233.42,44.78 -547.85,243.46 -770.87,168.15 -215.37,-72.72 -520.98,-183.21 -736.29,-229.23l-0.63 470.46z"/>
  <path class="fil2" d="M71.03 967.69l0.63 -470.46 -0.63 -120.15c115.07,14.16 322.89,92.75 429.17,126.97 77.49,24.95 362.23,124.27 415.45,125.65 155.62,4.01 651,-242.17 851.98,-249.78l0.74 765.17 -1690.48 3.96 -6.86 -181.35zm8.52 -907.26l1685.96 4.01 -0.5 242.51c-80.94,35.93 -797.36,264.46 -850.78,263.36 -111.32,-2.3 -678.01,-214.65 -843.05,-257.53l8.37 -252.35zm-33.31 1119.86c38.8,33.98 1630.74,40.54 1764.18,9.33 21.81,-89.08 22.04,-1079.64 0.5,-1172.65 -140.97,-30.15 -554.45,-10.74 -732.6,-10.76 -1296.24,-0.08 -1061.88,-91.69 -1061.63,432.2l-0.27 566.78c-0.96,77.38 -16.76,133.98 29.82,175.1z"/>
 </g>
</svg>
