<?xml version="1.0" encoding="UTF-8"?>
<!DOCTYPE svg PUBLIC "-//W3C//DTD SVG 1.1//EN" "http://www.w3.org/Graphics/SVG/1.1/DTD/svg11.dtd">
<!-- Creator: CorelDRAW -->
<svg xmlns="http://www.w3.org/2000/svg" xml:space="preserve" width="100%" height="100%" version="1.1" style="shape-rendering:geometricPrecision; text-rendering:geometricPrecision; image-rendering:optimizeQuality; fill-rule:evenodd; clip-rule:evenodd"
viewBox="0 0 4601.97 3935.33"
 xmlns:xlink="http://www.w3.org/1999/xlink"
 xmlns:xodm="http://www.corel.com/coreldraw/odm/2003">
 <defs>
  <style type="text/css">
   <![CDATA[
    .fil0 {fill:#003399}
   ]]>
  </style>
 </defs>
 <g id="Layer_x0020_1">
  <metadata id="CorelCorpID_0Corel-Layer"/>
  <path class="fil0" d="M2395.22 1983.67l8.97 -0.61c-26.3,15.93 -26.67,43.48 -30.46,78.49 -18.55,171.4 -67.9,451.88 -93.41,633.72l-80.72 547.59c-9,67.35 -31.61,122.77 22.12,155.89 68.88,16.06 169.9,-10.26 230.17,4.99 21.3,-8.58 185.91,-15.42 211.92,-9.76 17.72,-8.28 86.69,-12.48 104.43,2.52 2.24,-15.17 45.63,-7.76 58.79,-8.81l46.44 -0.18c28.73,-1.35 100.65,-11.6 115.69,-0.51l6.85 1.58c9.42,-14.28 -3.02,-4.77 14.58,-8.88 6.44,-1.51 16.69,-1.29 22.88,-1.55l26.2 -437.74 18.66 -0.86c6.54,22.91 6.44,490.69 6.19,589.76 -0.03,12.91 -1.51,32.04 -0.84,43.9 0.39,7.03 0.67,10.98 2.38,17.72 4.49,17.73 -1.97,3.72 7.42,15.39l-3.41 -667.32 283.14 0.54 -0.04 426.78c171.28,-1.27 348.31,-10.07 519.85,-16.67 143.21,-5.5 124.42,-11.72 172.86,-294.5 10.53,-61.46 4.28,-45.42 19.14,-45.14 -11.71,-25.27 8.94,-117.89 15.45,-132.38 7.81,-17.39 -4,-0.31 7.96,-11.78 -2.93,-15.83 -5.09,-36.92 5.42,-48.46 20.52,-22.54 32.72,42.72 49.06,60.69 14.63,16.08 -4.28,3.45 16.74,10.69 6.79,-26.95 -1.42,-32.41 -12.78,-54.26 -3.5,-6.73 -7,-14.83 -11.29,-20.41 -11.96,-15.57 -9.87,-9.59 -15.48,-12.39l-25.79 4.06c-0.73,-25.09 3.94,-69.52 22.24,-83.94 -12.44,-35.86 85.66,-507.22 102.49,-594.35 43.8,-226.74 67.92,-194.14 -470.39,-183.86l-1218.9 20.35c-44.45,0.79 -124.39,-7.25 -154.52,19.7z"/>
  <path class="fil0" d="M866.38 1937.76c-71,32.95 -146.31,77.4 -216.59,114.47 -55.79,29.43 -58.34,30.54 -90.26,71.39 -25.68,32.86 -44.17,60.25 -66.36,95.8 -102.05,163.5 -550.54,1077.82 -379.79,1190.29 45.33,29.87 186.63,63.98 251.91,66.22l96.85 10.9 26.17 1.46c-6.93,-16.94 -8.15,-16.92 -18.44,-31.37 -14.84,-20.86 -15.26,-14.21 -8.44,-26.65 -69.15,-72.02 7.08,-323.72 110.24,-304.27 3.31,-14.24 -9.29,-6.91 11.26,-10 -20.03,-24.44 -50.87,-23.27 -71.27,-47.33 -26.13,11.78 -97.21,17.46 -135.27,71.94 -16.9,24.2 -5.56,22.43 -30.09,35.64 4.2,-31.98 35.55,-66 58.31,-81.94 79.67,-55.78 70.88,7.54 114.82,-71.19l65.39 -102.55c6.72,-11.84 13.63,-24.45 21.08,-34.68l229.3 -362.27c11.38,-10.46 -1.8,-5.59 16.66,-8.41 -27.09,78.98 -88.72,65.28 -97.11,335.99 -4.21,135.85 40.47,180.15 50.01,330.18 3.3,51.79 0.65,38.48 -8.73,42.87 41.52,29.33 129.3,46.45 182.02,59.41 97.31,23.93 137.02,13.2 237.39,15.68 22.72,-5.95 117.11,-4.96 148.99,-7.76 47.15,-4.13 109.54,-8.99 147.41,8.12 40.22,18.16 186.51,80.83 192.59,131.6l-32.43 4.56c13.69,13.72 31.89,32.15 46.03,43.41l128.95 -6.36c-19.84,-27.22 -18.66,-76.58 -17.52,-111.51 1.33,-40.42 1.54,-77.77 5.02,-118.39 3.28,-38.26 28.66,-180.1 23.12,-201.36 -242.43,-6.63 -102.63,-27.99 -376.14,4.89 -78.41,9.43 -299.22,8.47 -362.61,-20.91 212.05,-10.81 173.59,22.7 414.83,-53.34 161.83,-51.01 531.8,87.77 351.64,-475.98l-110.16 -294.69c-16.43,-40.98 -6.83,-34.85 -0.97,-40.47 55.56,158.41 180.28,413.31 170.04,597.12 -5.79,103.8 -54.33,205.74 -72.77,310.05 -13.66,77.33 -44.58,287.24 -24.78,347.52l-1.44 -45.38c99.14,22.65 184.5,44.42 293.47,44.45l-7.22 -33.15c-18.03,-20.52 -33.78,-21.85 -40.06,-57.21 -5.03,-28.32 3.23,-58.59 8.66,-86.73 9.21,-47.81 24.45,-110.91 27.87,-158.33 -24.3,-9.38 -41.03,-14.3 -59.8,-31.05 -8.93,-117.28 -31.27,-234.78 -49.06,-349.46 -17.47,-112.59 -36.5,-227.87 -59.98,-338.22 -30.91,-145.2 -51.53,-183.41 -129.97,-268.87 -89.66,-97.67 -130.61,-106.2 -236.52,-161.43 -19.07,2.68 -4.78,-7.14 -14.94,6.8 28.78,112.1 15.18,186.5 -62.77,233.91 -150.65,91.62 -360.96,22.33 -486.99,-80.38 -48,-39.12 -155.91,-151.08 -161.57,-153.06z"/>
  <path class="fil0" d="M-0 3935.33l4601.97 0 0 -456.7 -255.41 1.54 -3.16 138.46c-65.56,23.89 -179,24.44 -242.78,-0.09l-1.54 -139.88 -722.53 2.68c-4.23,18.36 -5.09,35.62 -4.08,54.61 4.03,75.14 39.92,11.11 8.29,105.63 -0.47,1.4 -1,3.28 -1.37,4.6 -0.87,3 -1.61,11.44 -2.54,15.5 -140.26,25.69 -362.41,-8.76 -499.55,-37.13 -41.52,-8.59 -656.91,2.61 -794.15,-2.35 -33.32,-1.2 -45.76,-10.47 -77.56,-10.99 -23.76,6.28 -102.1,-4.02 -133.65,-4.39 -43.57,-0.51 -99.95,-4.81 -140.87,6.16 -30.88,3.61 -83.08,26.87 -126.47,34.94 -195.15,36.28 -338.45,-39.42 -399.87,-46.34l-664.33 -104.43c-28.13,-5.24 -53.63,1.24 -78.27,-10.3l-96.85 -10.9 -365.29 0.84 0 458.56z"/>
  <path class="fil0" d="M3707.49 359.1c4.04,22.28 5.03,13.19 11.5,18.84 -0.91,-34.12 67.2,-83.07 80.74,-82.66 19.89,0.59 120.29,104.32 121.41,118.39 1.97,24.67 -93.57,101.38 -104.08,105.94 2.06,98.51 -2.1,107.04 37.7,179.4 24.02,43.68 55.65,94.22 86.83,132.47 17.46,21.4 31.65,37.45 49.48,62.34 15.12,21.09 33.02,38.9 47.76,58.95 8.59,11.69 14.27,20.16 23.61,30.92l70.26 86.41c16.53,21.94 34.02,40.25 49.24,61.92 50.73,72.16 140.2,262.36 79.92,322.56 -17.49,17.45 -39.96,35.81 -64.26,41.38 -95.28,21.84 -126.33,-34.65 -163.08,-46.5l-15.86 185.41c82.74,-22.69 189.38,18.5 272.22,-26.47 69.48,-37.72 103.98,-99.01 103.24,-199.7l-0.35 -895.52c0.13,-98.82 6.65,-182.94 -59.41,-242.35 -75.12,-67.55 -134.64,-53.53 -242.36,-53.53 -103.06,-0.01 -207.53,-1.72 -310.31,0.29 4.76,16.22 10.99,36.53 9.06,53.67 -3.23,28.62 -0.91,15.5 -25.11,33.92 -21.64,16.47 -38.06,30.22 -58.15,53.94z"/>
  <path class="fil0" d="M3349.24 849.11c-44.54,29.14 -145.27,60.55 -173.46,105.24 11.95,20.14 -1.59,98.54 -3.41,125.12 -3.29,47.76 -6.02,96.96 -8.24,142.33l-5.36 254.83c-1.23,11.59 -0.11,6.83 -3.52,16.56l-8.46 16.33c20.13,6.92 7.63,-6.24 12.78,23.31 0.13,0.7 -0.08,28.32 -0.15,31.17 -0.54,23.28 -0.48,46.48 0.49,69.71l845.08 1.66 -0.01 -22.45c-17.42,8.12 -89.48,7.33 -112.92,1.61 -3.77,-9.8 -1.83,1.33 1.97,-12.6l19.47 -105.84c3.81,-28.78 20.39,-107.48 19.16,-128.22 -29.63,-47.68 -78.94,-125.07 -98.64,-180.13 -14.54,-40.66 -42.66,-163.85 -24.16,-203.32 12.7,-27.09 -3.31,-10.67 18.06,-17.39l-61.63 -116.57 -20.42 -6.55c-20.16,37.78 -113.6,101.92 -182.46,112.28 -96.83,14.56 -177.04,-26.71 -194.12,-109.43l-20.06 2.37z"/>
  <path class="fil0" d="M2149.82 1109.46l12.39 -12.58c0.54,-0.38 2.34,-1.16 3.42,-1.91l-7 -122.04c14.33,26.66 7.34,86.26 17.83,111.13 8.61,20.41 10.11,17.46 25.02,21.76 21.83,-33 -8.72,-92.31 6.22,-129.69 12.46,26.94 -9.31,95.15 23.17,110.98l18.46 2.03c12.35,-36.58 -4.08,-62.48 -2.04,-79.02 3.61,-29.25 -3.38,-13.07 16.35,-25.04 -11.8,37.65 14.54,79.06 73.02,90.68l-13.03 8.43c-1.35,43.88 -13.08,63.58 -59.46,61.89 13.79,17.96 33.45,23.1 52.52,35.55 23.96,15.65 29,25.39 46.19,46.93l212.92 297.15c20.32,32.94 52,70.59 67.96,104.96 33.81,33.81 75.7,86.8 136.22,89.65 57.22,2.68 107.5,-62.3 143.46,-88.55 11.87,-15.36 27.99,-28.69 42.65,-43.24 8.07,-8.03 12.91,-13.7 22.19,-20.54 15.88,-11.69 12.06,-2.72 24.42,-20.75 -10.31,7.74 -6.01,5.23 -21.42,6.3 -30.99,-33.07 -46.35,-45.96 -65.85,-79.04 -18.94,-32.13 -40.59,-60.91 -49.68,-97.91 -10.31,-34.07 -22.31,-12.42 -27.83,-51.84 -0.94,1.46 -1.89,2.19 -2.28,4.69 -1.7,10.96 -41.48,64.2 -53.35,67.31 -38.29,10.02 -240.11,-175.66 -267.19,-199.14 -36.31,-31.48 -56.39,-61.32 -84.29,-96.41 -30.71,-38.63 -60.29,-157.35 -78.74,-207.94 -42.73,-45.03 -82.65,-88.91 -123.98,-130.79 -25.11,-25.42 -38.25,-41.6 -60.4,-63.83 -29.55,-29.65 -48.03,-55.98 -75.74,-55.86 -25.18,70.15 69.88,93.78 103.13,191 -39.08,-8.07 -41.1,-22.28 -87.03,-25.26 1.76,40.34 19.39,80.19 54.74,96.41 -32.8,46.74 -59.53,-9.24 -44.98,129.93 1.24,11.87 2.58,25.2 4.89,37.55 0.71,3.81 3.93,17.22 5.35,20.34 6.57,14.44 2.21,7.85 11.8,16.68z"/>
  <path class="fil0" d="M934.99 1868.69c74.75,8.12 126.89,65.43 379.58,39.3 -20.41,-27.38 -67.57,-49.01 -73.83,-83.16 -17.02,-12.6 -16,-10.52 -28.61,-29.84 -8.68,-13.29 -11.52,-18.36 -18.97,-30.75 -16.26,-27.01 -23.44,-45.88 -32.67,-77.22l-11.27 -46.72c-15.92,-18.67 -45.33,-22.2 -65.7,-34.29 -55.54,-32.96 -124.85,-99.31 -143.25,-155.67 -64.62,-4.19 -91.87,-14.59 -120.62,-52.69 -75.93,-100.61 -63.57,-300.41 73.8,-350.67 18.67,-305.32 211.03,-296.43 245.24,-321.96 -128.41,-14.9 -256.61,22.45 -331.01,117.05 -122.67,155.98 -100.82,590.56 -72.47,783.4 9.42,64.06 22.86,119.94 61.28,161.95 48.97,53.52 62.09,50.37 138.52,81.24z"/>
  <path class="fil0" d="M1276.5 762.78c-48.94,12.3 -121.1,-6.29 -207.59,85.48 -45.7,48.5 -72.61,114.29 -90.42,200.16 38.53,41.54 100.85,62.85 101.43,198.56 0.41,96.74 -31.82,157.4 -109.83,199.25 24.53,55.3 110.89,130.83 153.36,138.65l15.17 -1.3c-20.94,-265.07 -4.16,-445.63 112.8,-657.91 44.44,20.02 96.22,83.84 272.88,159.09 18.02,7.68 22.17,18.43 32.17,30.95 -6.82,-30.54 -2.18,-8.28 4.47,-17.03 36.21,26.48 76.24,236.2 81.41,287.44l18.48 1.1c19.04,-151.3 30.44,-341.75 -27.27,-479.66 -27.63,-66.03 -64.9,-112.82 -122.33,-139.9 -66.74,-31.48 -163.8,-26.37 -234.74,-4.88z"/>
  <path class="fil0" d="M3055.63 215.72c9.78,27.52 11.33,21.97 30.89,34.54 20.66,13.28 26.29,16.81 51.3,22.32 53.36,15.01 165.43,-7.62 221.19,-19.3 33.49,-7.02 65.48,-15.65 96.56,-28.07 37.31,-14.91 57.9,-35.86 84.81,-47.92 -11.67,47.43 -22.43,91.17 -5.61,140.17 4.21,12.24 52.95,105.93 53.53,106.6 10.96,-19.32 6.42,-28.88 30.93,-40.6 3.7,-1.77 12.98,-5.15 13.24,-5.28 20.96,-10.79 15.61,-14.4 31.4,-30.73 20.28,0.01 29.85,5.32 43.62,11.66 20.09,-23.71 36.51,-37.47 58.15,-53.94 24.2,-18.42 21.88,-5.3 25.11,-33.92 1.93,-17.14 -4.3,-37.44 -9.06,-53.67 -2.05,-49.25 -54.18,-111.31 -83.04,-126.56 -29.22,-15.44 -35.67,-1.75 -55.27,-18.52 -33.47,-28.66 -27.04,-41.29 -86.5,-58.22 -40.07,-11.41 -93.86,-17.64 -136.25,-12.36 -83,10.35 -148.33,45.48 -199.15,88.18 -14.74,12.39 -24.72,16.97 -38.2,30.62 -16.24,16.43 -17.26,24.15 -35.7,38.7 -27.7,21.85 -58.6,35.27 -91.95,56.31z"/>
  <path class="fil0" d="M3033.48 3378.17l-6.05 96.54 -225.57 3.33 32.23 8.09c9.84,-13.91 -5.18,-5.32 20.16,-10.07l149.57 0.16c24.68,4.93 9.11,0.86 19.72,9.57 1.77,33.24 8.7,22.55 -18.01,27.56l18.6 1.59 -2.89 71.23c-52.58,1.39 -88.61,-20.41 -136.94,-13.34 -60.24,8.8 -794.27,4.96 -836.83,-1.25 -95.08,-13.9 -193.85,-28.98 -293.21,-47.22l11.04 42.76c32.19,0.93 87.82,13.74 123.11,20.5 34,6.52 91.72,22.44 117.18,23.58 31.8,0.52 44.24,9.78 77.56,10.99 137.24,4.96 752.63,-6.24 794.15,2.35 137.14,28.37 359.29,62.82 499.55,37.13 0.93,-4.06 1.67,-12.5 2.54,-15.5 0.38,-1.31 0.91,-3.2 1.37,-4.6 31.63,-94.52 -4.26,-30.48 -8.29,-105.63 -1.01,-18.99 -0.15,-36.25 4.08,-54.61l-0.97 120.76 -282.11 4.24c-9.39,-11.67 -2.93,2.34 -7.42,-15.39 -1.7,-6.74 -1.99,-10.69 -2.38,-17.72 -0.67,-11.86 0.81,-30.98 0.84,-43.9 0.26,-99.08 0.35,-566.85 -6.19,-589.76l-18.66 0.86 -26.2 437.74z"/>
  <path class="fil0" d="M4204 3228.83l-17.75 -6.42 -0.98 -1c-17.65,-1.02 -31.99,-2.36 -49.67,-5.02 -16.66,-2.51 -25.27,-0.8 -27.6,-16.51 -11.57,14.03 -1.16,-6.4 -6.1,13.56l-0.8 261.58c-55.5,3.26 -703.85,-5.14 -724.54,6.31l722.53 -2.68 1.54 139.88c63.78,24.53 177.22,23.98 242.78,0.09l3.16 -138.46 255.41 -1.54 0 -2.42 -257.04 -1.19 1.12 -213.15c0.91,-67.14 -4.33,-47.76 -5.59,-58.51 -0.31,-2.64 -1.46,-3.22 -2.57,-4.58 -2.14,16.59 -8.91,14.45 -32.86,18.86 -19.09,3.51 -31.8,3.86 -51.28,4.5l-19.02 1.54c2.19,-38.55 27.21,-85.51 -5.56,-121.93 -13.99,111.05 7.36,119.52 -25.16,127.08z"/>
  <path class="fil0" d="M2847.91 1324.78c5.52,39.42 17.52,17.77 27.83,51.84 18.88,9.53 8.79,3 24.66,17.58 8.09,7.43 10.13,10.61 18.44,18.56 14.04,13.44 27.57,25.7 42.86,37.92 16.51,13.2 80.91,56.15 89.14,66.72 24.25,6 37.28,19.92 64.81,27.15l31.13 -35.04 8.46 -16.33c3.4,-9.72 2.28,-4.96 3.52,-16.56l5.36 -254.83c2.22,-45.36 4.94,-94.56 8.24,-142.33 1.83,-26.57 15.37,-104.98 3.41,-125.12 -31.85,17.08 -144.59,142.41 -173.15,179.61 -25.72,33.5 -52.17,60.99 -78.94,95.28 -23.16,29.65 -50.83,70.85 -75.77,95.54z"/>
  <path class="fil0" d="M1556.47 1115.71c-5.29,44.88 19.69,126.95 24.67,180.9 5.28,57.2 -15.67,124.06 -30.15,177.07 -27.52,100.78 -42.8,256.12 -148.73,260.29l21.05 61.54c18.93,23.52 23.28,45.02 50.1,54.06 53.72,-6.73 87,-24.22 125.11,-48.46 173.62,-110.43 6.35,-151.25 62.31,-413.9l-18.48 -1.1c-5.17,-51.23 -45.2,-260.96 -81.41,-287.44 -6.65,8.75 -11.29,-13.51 -4.47,17.03z"/>
  <path class="fil0" d="M1846.97 3472.92l-0.28 -57.06c-19.8,-60.28 11.12,-270.19 24.78,-347.52 18.44,-104.31 66.98,-206.25 72.77,-310.05 10.24,-183.81 -114.48,-438.72 -170.04,-597.12 -5.86,5.62 -15.46,-0.51 0.97,40.47l110.16 294.69c180.16,563.75 -189.81,424.97 -351.64,475.98 -241.24,76.04 -202.78,42.53 -414.83,53.34 63.39,29.38 284.2,30.34 362.61,20.91 273.51,-32.89 133.71,-11.52 376.14,-4.89 5.54,21.26 -19.84,163.1 -23.12,201.36 -3.49,40.62 -3.7,77.97 -5.02,118.39 -1.15,34.93 -2.32,84.29 17.52,111.51z"/>
  <path class="fil0" d="M1613.34 3596.68l-18.5 -0.68c-18.26,32.01 -57.02,21.85 -75.83,-5.33 -16.17,18.71 -0.89,32.53 -32.36,33.9 -38.11,1.66 -72.85,-47.46 -113.22,-69.71 -64.87,-35.74 -133.18,-9.72 -214.47,-12.64 9.99,32.06 29.57,34.82 45.78,59.35 61.42,6.92 204.72,82.63 399.87,46.34 43.39,-8.07 95.59,-31.33 126.47,-34.94 20.28,-21.74 27.64,-5.85 34.22,-45.85l-11.04 -42.76c-7.27,-7.08 -28.41,-34.6 -36.23,-45.08 -14.14,-11.26 -32.33,-29.69 -46.03,-43.41 -80.41,0.5 -135.68,-73.64 -173.04,-56.41 46.8,19.66 72.83,51.5 99.28,87.5 19.81,26.96 65.31,82.85 51.29,127.09l-36.18 2.62z"/>
  <path class="fil0" d="M4179.65 2888.78c-0.24,32.1 20.6,62.66 24.77,99.23 3.74,32.89 -6.96,92.55 8.2,115.81 4.41,-15.72 10.71,-55.07 -2.4,-66.97l0 94.44c18.25,-14.7 22.25,-9.87 20.18,-68.36l-1.3 -36.48c-21.85,-79.32 -14.51,-149.02 -10.94,-231.4 0.26,-5.97 1.58,-30.78 3,-34.81 0.43,-1.2 1.04,-3.17 1.6,-4.11 10.6,-17.82 -12.22,1 4.82,-4.68 18.14,-6.05 1.98,-8.35 14.3,6.7 1.2,-1.7 2.44,-6.53 2.96,-5.5 0.5,0.99 2.12,-3.97 2.79,-5.35 21.71,-45.03 35.99,-60.04 74.49,-94.54l11.11 -10.02c0.91,-0.83 2.7,-2.29 3.89,-3.59 -0.38,-11.6 37.58,-179.98 39.54,-305.5 -38.63,16.13 -153.47,170.47 -177.45,233.33 -24.26,63.58 -20.3,114.58 4.37,172.89 11.91,28.15 2.68,151.82 -0.86,191.62 -1.07,-2.76 -7.95,-24.03 -8.57,-25.32 -12.56,-25.92 -2.89,-11.03 -14.5,-17.39z"/>
  <path class="fil0" d="M538.27 3475.52l-49.97 12.77 -26.17 -1.46c24.64,11.54 50.14,5.07 78.27,10.3l664.33 104.43c-16.21,-24.52 -35.79,-27.29 -45.78,-59.35 -21.17,-13.21 -41.85,-22.58 -64.2,-37.65 -21.74,-14.66 -38.22,-26.65 -62.59,-36.22 -4.72,3.66 -0.64,3.31 -13.14,6.56l-234.61 1.02 -54.74 0.78 1.58 -28.48 -3.11 4.06 -2.83 26.06 -187.04 -2.82z"/>
  <path class="fil0" d="M4337.12 2639.15c-1.19,1.3 -2.98,2.76 -3.89,3.59l-11.11 10.02c-38.5,34.5 -52.78,49.51 -74.49,94.54 -0.67,1.38 -2.29,6.34 -2.79,5.35 -0.52,-1.03 -1.76,3.8 -2.96,5.5 -18.88,41.8 -8.85,105.03 17.99,133.25l11.95 9.85c64.57,16.82 114.36,-67.44 131.17,-112.17 24.48,-65.18 33.84,-140.27 41.1,-214.72 -42.69,13.06 -80.27,43.59 -106.95,64.79z"/>
  <path class="fil0" d="M3932.66 1367.87c12.02,21 42.56,74.92 59.86,91.28 32.54,-27.98 20.88,-24.79 32.95,-38.09 10.17,-19.33 -9.17,-35.32 -21.21,-55.76 -32.98,-55.99 -51.74,-111.95 -72.34,-175.62 -26.95,-83.27 -69.99,-150.43 -104,-222.66 -21.37,6.72 -5.36,-9.7 -18.06,17.39 -18.5,39.47 9.61,162.66 24.16,203.32 19.7,55.07 69.01,132.46 98.64,180.13z"/>
  <path class="fil0" d="M2360.91 465.72l1.79 -42.69c-98.28,-6.14 -190.39,25.24 -234.04,-54.85 -17.26,-31.67 -16.47,-162.02 -10.9,-207.87 2.67,-22.04 12.23,-32.39 12.02,-54.93l-23.14 13.46c-32,16.73 -46.15,49.94 -47.56,89.45 -1.38,39 -4.01,149.22 3.57,182.53 11.27,49.51 54.43,74.57 113.7,75.7 57.2,1.1 128.52,2.65 184.57,-0.8z"/>
  <path class="fil0" d="M4295.91 3045.76c51.8,-24.06 39.06,1.87 85.09,-23.34 23.54,-12.89 48.47,-33.82 62.75,-49.34 18.1,-19.67 90.21,-102.08 104.05,-129.7 -71.27,5.91 -220.36,39.66 -249.57,109.01 -15.98,37.94 1.34,57.93 -2.31,93.37z"/>
  <path class="fil0" d="M3719 377.94c40.66,33.59 97.47,76.5 98.07,141.67 10.51,-4.56 106.05,-81.27 104.08,-105.94 -1.12,-14.07 -101.52,-117.8 -121.41,-118.39 -13.53,-0.41 -81.64,48.54 -80.74,82.66z"/>
  <path class="fil0" d="M1215.43 3299.35c80.25,-0.01 84.93,-9.88 157.5,20.33 25.35,10.55 43,17.69 64.98,27.77 21.03,9.64 44.3,27.22 61.04,32.02 37.37,-17.23 92.64,56.9 173.04,56.41l32.43 -4.56c-6.09,-50.77 -152.37,-113.44 -192.59,-131.6 -37.87,-17.11 -100.26,-12.25 -147.41,-8.12 -31.89,2.8 -126.27,1.81 -148.99,7.76z"/>
  <path class="fil0" d="M970.09 1446.22c78.01,-41.85 110.24,-102.51 109.83,-199.25 -0.58,-135.71 -62.9,-157.02 -101.43,-198.56 17.8,-85.87 44.72,-151.66 90.42,-200.16 86.49,-91.77 158.64,-73.18 207.59,-85.48l-51.41 -16.91c-19.74,11.41 -248.35,32.09 -264.96,340.45l2.33 32.8c0.24,1.16 0.74,3.27 1.47,4.77l10 -26.13c1.54,-7.67 1.42,-18.23 2.25,-24.92 43.42,12.69 79.24,110.77 77.82,180.45 -1.68,82.19 -37,156.56 -89.45,181.45l5.54 11.48z"/>
  <path class="fil0" d="M1240.74 1824.83c47.78,-6.23 147.18,-28.06 182.57,-29.31l-21.05 -61.54c-84.37,24.25 -182.15,-26.34 -241.78,-46.95 9.23,31.34 16.41,50.21 32.67,77.22 7.45,12.39 10.29,17.46 18.97,30.75 12.61,19.32 11.59,17.24 28.61,29.84z"/>
  <path class="fil0" d="M2360.91 465.72c105.38,-4.26 36.91,4.96 152.01,65.74 37.48,19.8 117.38,56.09 163.67,58.77 -14.17,-30.51 -44.29,-39.92 -54.36,-66.88l-1.53 -7.79c-20.64,-2.98 -88.98,-43.98 -110.65,-62.01 -20.86,-17.36 -20.58,-28.57 -59.31,-29.85 -29.37,-0.98 -58.31,1.36 -88.05,-0.67l-1.79 42.69z"/>
  <path class="fil0" d="M3479.37 580.62c11.32,49.04 69.51,82.86 95.65,116.33 24.13,20.84 31.05,20.29 59.76,0.36 -3.94,-19.93 -9.96,-32.32 -13.76,-49.48 -4.47,-20.15 -5.11,-41.75 -10.45,-58.8 -8.98,-28.66 -36.78,-51.33 -71.43,-59.16 -15.44,11.5 -21.04,15.96 -32.13,26.43 -12.38,11.69 -14.34,15.17 -27.63,24.32z"/>
  <path class="fil0" d="M4108.43 2865.86c69.24,99.51 44.28,61.44 43.57,153.57 -0.12,16.64 17.2,53.23 22.46,78.69 6.1,29.62 9.9,63.1 12.7,88.33l21.27 -1.32 4.19 -81.31c-15.15,-23.26 -4.46,-82.92 -8.2,-115.81 -4.17,-36.57 -25,-67.13 -24.77,-99.23 -21.02,-7.24 -2.11,5.4 -16.74,-10.69 -16.34,-17.98 -28.54,-83.24 -49.06,-60.69 -10.52,11.54 -8.35,32.63 -5.42,48.46z"/>
  <path class="fil0" d="M3745.88 843.9l20.42 6.55c-18.3,-34.29 -35.37,-64.81 -56.28,-92.27 -12.62,-16.56 -58.22,-58.22 -75.24,-60.87 -28.71,19.93 -35.63,20.48 -59.76,-0.36 -31.52,18.11 -49.2,41.99 -97.54,66.57 -27.57,14.02 -19.5,2.2 -27.91,25.06 45.46,-5.23 85.83,-6.7 131.29,-15.06 40.18,-7.38 78.33,-21.17 115.36,-25.3 9.07,14.58 18.44,25.17 30.01,43.67 28.74,45.92 21.77,33.04 19.65,52.02z"/>
  <path class="fil0" d="M1462.75 1537.33c-49.51,20.93 -86.16,4.56 -120.61,-21.65 53.52,14.71 72.09,9.89 125.48,9.31 18.4,-20.13 16.82,10.31 17.53,-40.32 -66.17,5.52 -101.92,14.62 -171.72,11.94 15.45,39 10.44,24.98 33.24,51.7 53.2,62.34 125.01,34.55 129.69,14.84 9.86,-41.42 4.07,-19.04 -13.62,-25.82z"/>
  <path class="fil0" d="M2149.82 1109.46c23.79,-14.65 13.29,-13.51 35.14,-1.5 12.22,6.71 -2.13,2.35 16.52,7.79 13.48,-10.13 6.09,-6.64 11.82,-12.62 0.9,-0.94 2.16,-2.46 3.1,-3.41l10.88 -9.79 14.46 30.08c9.3,19.44 7.16,16.09 22.44,26.09 46.38,1.69 58.11,-18.01 59.46,-61.89l13.03 -8.43c-58.48,-11.63 -84.83,-53.03 -73.02,-90.68 -19.73,11.96 -12.74,-4.21 -16.35,25.04 -2.04,16.54 14.38,42.44 2.04,79.02l-18.46 -2.03c-32.48,-15.84 -10.71,-84.04 -23.17,-110.98 -14.94,37.37 15.61,96.69 -6.22,129.69 -14.91,-4.31 -16.41,-1.35 -25.02,-21.76 -10.49,-24.87 -3.5,-84.48 -17.83,-111.13l7 122.04c-1.07,0.74 -2.88,1.52 -3.42,1.91l-12.39 12.58z"/>
  <path class="fil0" d="M4085.02 3010.02c53.99,6.98 61.52,10.3 75.66,59.32 10.78,37.39 15.65,76.68 19.87,117.48l4.73 34.58 0.98 1 0.91 -35.95c-2.8,-25.24 -6.6,-58.72 -12.7,-88.33 -5.25,-25.46 -22.58,-62.05 -22.46,-78.69 0.71,-92.13 25.67,-54.06 -43.57,-153.57 -11.96,11.46 -0.15,-5.61 -7.96,11.78 -6.51,14.49 -27.16,107.11 -15.45,132.38z"/>
  <path class="fil0" d="M3012.7 1547.28c12.4,-15.41 16.88,-25.02 38.15,-29.87 -8.23,-10.58 -72.63,-53.52 -89.14,-66.72 -15.29,-12.22 -28.82,-24.47 -42.86,-37.92 -8.31,-7.95 -10.35,-11.13 -18.44,-18.56 -15.87,-14.58 -5.78,-8.05 -24.66,-17.58 9.09,37.01 30.74,65.78 49.68,97.91 19.5,33.08 34.87,45.96 65.85,79.04 15.41,-1.07 11.11,1.44 21.42,-6.3z"/>
  <path class="fil0" d="M927.07 1290.53c23.62,-74.98 -57.41,-122.72 -79.48,-53.89 -26.28,81.95 55,131.62 79.48,53.89z"/>
  <path class="fil0" d="M4229.09 3026.45l3.21 13.85c8.5,-41.9 29.21,-109.72 27.56,-148.9 -26.84,-28.22 -36.87,-91.44 -17.99,-133.25 -12.32,-15.04 3.83,-12.74 -14.3,-6.7 -17.04,5.68 5.78,-13.14 -4.82,4.68 -0.56,0.93 -1.18,2.9 -1.6,4.11 -1.42,4.02 -2.74,28.84 -3,34.81 -3.56,82.39 -10.91,152.08 10.94,231.4z"/>
  <path class="fil0" d="M784.41 3475.93l234.61 -1.02c12.5,-3.25 8.42,-2.9 13.14,-6.56 -50.71,-33.65 -174.35,-20.81 -244.52,-21.14l-3.23 28.72z"/>
  <path class="fil0" d="M538.27 3475.52l187.04 2.82 2.83 -26.06c-12.95,-9.06 3.29,-2.34 -13.98,-6.41l-133.21 -4.04 -42.68 33.69z"/>
  <path class="fil0" d="M4229.09 3026.45l1.3 36.48c2.07,58.5 -1.93,53.67 -20.18,68.36l0 -94.44c13.11,11.91 6.81,51.26 2.4,66.97l-4.19 81.31 -4.43 43.7c32.52,-7.56 11.17,-16.03 25.16,-127.08 32.78,36.42 7.76,83.38 5.56,121.93l19.02 -1.54 4.02 -37.57c-8.49,-57.52 36.54,-102.47 38.15,-138.8l-15.24 19.76c-3.57,6.69 -8.46,17.76 -11.66,25.61 -6.94,17 -12.06,36.57 -19.78,52.33 -11.87,-100.29 -9.98,-124.48 22.58,-242.21l-11.95 -9.85c1.65,39.19 -19.06,107 -27.56,148.9l-3.21 -13.85z"/>
  <path class="fil0" d="M1731.07 3612.97c40.91,-10.97 97.3,-6.67 140.87,-6.16 31.55,0.36 109.88,10.67 133.65,4.39 -25.46,-1.14 -83.18,-17.06 -117.18,-23.58 -35.3,-6.76 -90.92,-19.57 -123.11,-20.5 -6.58,40 -13.94,24.11 -34.22,45.85z"/>
  <path class="fil0" d="M488.3 3488.29l49.97 -12.77 42.68 -33.69 -119.53 -11.56c-6.81,12.44 -6.4,5.8 8.44,26.65 10.28,14.45 11.51,14.42 18.44,31.37z"/>
  <path class="fil0" d="M2659 463.46c26.8,1.93 39.17,3.49 63.72,-6.65 5.67,-2.34 15.62,-7 20.78,-10.67 21.46,-15.25 9.08,-1.7 18.19,-24.52l-123.37 2.03c5.69,24.96 6.86,22.22 20.69,39.81z"/>
  <path class="fil0" d="M3345.46 676.79c7.82,-16.24 -0.04,-11.57 22.56,-23.28 13.64,-7.05 23.29,-8.59 39.89,-11.61l14.83 -29.85c-49.13,17.65 -71.24,27.04 -129.74,23.2 12.15,32.61 18.28,35.56 52.47,41.54z"/>
  <path class="fil0" d="M2686.84 233.32l-18.51 -22.54c-38.41,-2.44 -61.06,19.76 -41.19,49.93 8.15,12.39 56.74,34.15 59.7,-27.4z"/>
  <path class="fil0" d="M2271.67 257.82c35.53,32.81 73.11,9.26 58.94,-28.62 -9.65,-25.8 -67.57,-37.15 -58.94,28.62z"/>
  <path class="fil0" d="M2499.99 267.39c24.31,-37.67 -6,-71.27 -38.46,-53.59 -25.96,14.13 -25.24,76.32 38.46,53.59z"/>
  <path class="fil0" d="M1213.28 1221.79c20.85,-4.89 37.42,-13.31 58.95,-19.84 27.78,-8.43 55.51,-3.59 78.36,-10.92 -19.15,-36.37 -119.99,-14.91 -137.31,30.76z"/>
  <path class="fil0" d="M1594.84 3596l18.5 0.68 -34.87 -54.13c-31.55,-51.69 -75.09,-94.24 -142.41,-106.63 12.02,16.57 3.83,9.26 24.28,18.78 10.81,5.02 18.15,7.82 26.39,12 52.35,26.52 99.05,80.42 108.11,129.3z"/>
  <path class="fil0" d="M4253.74 3222.14c19.48,-0.64 32.19,-0.99 51.28,-4.5 23.95,-4.41 30.72,-2.27 32.86,-18.86l-80.13 -14.21 -4.02 37.57z"/>
  <path class="fil0" d="M1293.02 1233.58c19.07,16.03 -9.44,1.81 11.92,6.46 0.24,0.05 4.16,-1.83 12.01,-0 -12.75,23.3 -7.44,45.23 20.12,51.91 13.59,-20.3 11.85,-17.29 3.25,-42.25l-3.25 -19.83c-9.61,-2.37 -34.04,-7.12 -44.04,3.71z"/>
  <path class="fil0" d="M1462.75 1537.33c10.72,-13.43 -11.59,-5.69 9.38,-10.52l-4.5 -1.82c-53.4,0.58 -71.97,5.41 -125.48,-9.31 34.45,26.21 71.09,42.58 120.61,21.65z"/>
  <path class="fil0" d="M4108 3199.88c2.33,15.7 10.94,14 27.6,16.51 17.68,2.66 32.02,3.99 49.67,5.02l-4.73 -34.58 -72.54 13.06z"/>
  <path class="fil0" d="M4140.1 2801.72c2.24,-36.47 7.35,-41.63 -3.55,-79.88 -18.3,14.42 -22.97,58.85 -22.24,83.94l25.79 -4.06z"/>
  <path class="fil0" d="M3328.79 376.35c20.07,9.61 27.65,-4.02 46.08,-14.06 21.23,-11.56 39.63,-10.78 56.24,-21.24 -33.9,-5.41 -95.02,0.78 -102.32,35.3z"/>
  <polygon class="fil0" points="784.41,3475.93 787.64,3447.21 731.25,3448.22 729.67,3476.71 "/>
  <path class="fil0" d="M1476.11 1186.24c27.58,-8.31 33.78,-18.37 74.76,-17.05 -0.06,-0.09 -3.93,-28.04 -44.59,-20.97 -21.27,3.69 -26.95,17.66 -30.17,38.02z"/>
  <path class="fil0" d="M2138.73 3414.93c28.29,6.38 40.77,0.65 63,-8.81 -9.69,-14.32 1.94,-6.44 -14.63,-12.44 -0.75,-0.27 -18.44,-2.31 -21.45,-2.86 -14.38,-2.64 -21.92,-6.28 -34.14,-9.03l7.22 33.15z"/>
  <path class="fil0" d="M3174.14 382.85c76.99,10.28 54,22.17 66.32,-2.85l-25.32 -11.7c-16.3,-3.54 -26.72,-2.42 -43.15,-2.27l-22.3 9.39 24.44 7.43z"/>
  <path class="fil0" d="M3389.28 457.4c26.1,-13.68 29.61,-46.06 -9.56,-53.42 -7,29.35 -10.8,34.42 9.56,53.42z"/>
  <path class="fil0" d="M3208.94 472.97c28.4,-8.03 25.11,-35.45 6.22,-51.5 -27.64,8.47 -25.91,35.34 -6.22,51.5z"/>
  <path class="fil0" d="M1519.69 1256.93c3.85,21.29 -3.37,16.56 23.95,22.08 4.34,-19.19 10.46,-29.19 -4.02,-44.48l-18.76 -9.23 -1.17 31.63z"/>
  <path class="fil0" d="M1519.69 1256.93l1.17 -31.63 18.76 9.23 6.23 -12.25c0.57,-1.01 3.93,-6.68 5.14,-8.36 -36.86,-21.65 -51.47,5.41 -51.77,6.93 2.6,15.09 -1.64,10 15.56,5 -1.64,22.66 -6.26,16.32 4.91,31.07z"/>
  <path class="fil0" d="M3345.46 676.79c16.86,-1.94 22.43,-1.59 36.87,-8.84 3.5,-1.76 12.66,-7.84 14.66,-9.8 11.92,-11.73 4.48,-4.14 10.91,-16.24 -16.59,3.02 -26.24,4.56 -39.89,11.61 -22.6,11.71 -14.73,7.04 -22.56,23.28z"/>
  <path class="fil0" d="M3479.37 580.62c13.3,-9.15 15.26,-12.63 27.63,-24.32 11.09,-10.47 16.68,-14.93 32.13,-26.43 -0.86,-1.26 4.43,-14.14 -14.41,-5.93 -1.99,0.87 -12.94,12.12 -16.07,15.26 -14.66,14.71 -27.93,17.8 -29.28,41.41z"/>
  <path class="fil0" d="M571.66 3126c23.51,8.65 37.94,22.39 61.86,22.97 -11.6,-14.7 -25.84,-30.64 -50.6,-32.97 -20.55,3.09 -7.95,-4.24 -11.26,10z"/>
  <polygon class="fil0" points="4186.25,3222.41 4204,3228.83 4208.43,3185.13 4187.15,3186.46 "/>
  <path class="fil0" d="M3003.06 3425l-7.04 -36.4 -6.85 -1.58 -12.54 1.26c2.74,9.11 5.19,14.57 9.1,22.66 9.56,19.74 -0.88,20.18 17.33,14.06z"/>
  <path class="fil0" d="M2705.97 547.48l21.07 -1.34c-5.48,-16.81 -12.69,-21.76 -25.53,-31.94 24.06,5.69 14.57,4.56 21.87,23.86 -11.01,13.58 15.09,15.85 -17.41,9.43z"/>
  <path class="fil0" d="M2683.2 488.33c-6.68,-1.62 -1.66,1.8 -9.65,-5.65 -8.84,-8.25 -4.02,-4.73 -10.13,-11.06 9.31,20.79 -6.53,2.24 19.78,16.72z"/>
 </g>
</svg>
