<?xml version="1.0" encoding="UTF-8"?>
<!DOCTYPE svg PUBLIC "-//W3C//DTD SVG 1.1//EN" "http://www.w3.org/Graphics/SVG/1.1/DTD/svg11.dtd">
<!-- Creator: CorelDRAW -->
<svg xmlns="http://www.w3.org/2000/svg" xml:space="preserve" width="100%" height="100%" version="1.1" style="shape-rendering:geometricPrecision; text-rendering:geometricPrecision; image-rendering:optimizeQuality; fill-rule:evenodd; clip-rule:evenodd"
viewBox="0 0 1709.05 1704.09"
 xmlns:xlink="http://www.w3.org/1999/xlink"
 xmlns:xodm="http://www.corel.com/coreldraw/odm/2003">
 <defs>
  <style type="text/css">
   <![CDATA[
    .fil0 {fill:#003399}
   ]]>
  </style>
 </defs>
 <g id="Layer_x0020_1">
  <metadata id="CorelCorpID_0Corel-Layer"/>
  <path class="fil0" d="M578.78 1640.2l-2.02 -40.28 0.33 -189.01 1.19 -40.53c22.86,15.88 91.45,107.93 106.2,129.46 -12.76,37.28 -80.11,117.53 -105.7,140.36zm441.53 -141.23c33.54,-32.71 73.3,-90.14 105.97,-128.78l4.94 51.78 -0.85 166.83 -3.22 51.62c-26.29,-22.98 -93.39,-109.44 -106.83,-141.44zm-169.2 -147.91c29.85,19.26 106.65,120.96 124.04,148.79 -10.59,34.59 -88.8,137.13 -124.04,159.69 -43.37,-41.96 -77.03,-107.53 -121.84,-144.55 18.2,-44.52 88.67,-132.75 121.84,-163.93zm38.41 -14.44l217.63 -2.87c-15.01,34.61 -26.84,43.71 -49.1,72.72 -24.26,31.63 -32.13,49.06 -64.85,71.2 -22.08,-28.44 -89.65,-110.24 -103.67,-141.05zm-290.61 -0.51l40.89 -2.65 133.47 0.44 43.55 0.55c-19.13,38.39 -79.05,116.61 -110.27,140.41 -20.39,-16.66 -98.8,-116.56 -107.63,-138.75zm463.49 -185.96l59.71 151.89 -242.2 3.64c8.36,-33.78 27.17,-92.17 56.24,-109.41 3.19,-1.89 123.77,-45.4 126.24,-46.12zm-423.96 -0.41c11.76,3.07 119.42,39.86 129.16,44.91 34.74,18.02 54.97,79.6 57.85,110.97l-236.82 -0.13 49.81 -155.76zm1027.32 141.45c-62.61,21.08 -145.65,14.23 -220.75,13.15 -18.45,-73.2 -14.97,-1145.41 -3.44,-1268.85 194.08,-5.74 232.91,-19.01 232.91,85.79 0,222.85 11.73,1007.35 -8.72,1169.91zm-847.79 -89.02l70.37 -1.11 -32.43 74.11 -37.94 -73.01zm128.48 -41.28l56.77 -142.74c32.8,24.23 42.52,64.49 44.56,99.97l-101.33 42.77zm-251.03 -141.49c2.01,1.96 5.09,2.21 5.86,6.07 0.76,3.82 4.57,4.75 5.57,6.23l55.28 126.18 -102.55 -35.97c2.58,-43.42 12.83,-72.2 35.84,-102.51zm177.93 148.16l-5.69 -184.91c44.01,-7.73 68.96,-1.65 105.61,16.9 -8.91,54.17 -44.93,163.88 -99.92,168zm-143.63 -170.22l107.56 -23.09 2.11 194.95c-53.46,-3.49 -48.94,-25.28 -67.31,-68.25 -13.86,-32.41 -28.09,-70.37 -42.37,-103.61zm416.86 276.05c-21.64,-44.82 -46.44,-102 -53.06,-154.02 38.41,-17.35 50.65,-34.79 76.89,-67.66 12.96,-16.24 21.46,-31.4 31.78,-45.47 24.9,-33.96 5.92,-24.51 51.53,-30.68l-107.13 297.82zm-695.82 -295.18c63.04,-0.3 45.72,28.15 83.57,71.27 28.54,32.51 51.46,49.8 79.77,83.48l-47.83 133.5 -115.51 -288.26zm667.24 85.07c-32.5,-22.36 -68.53,-50.65 -81.26,-87.57l146.65 0.59c-21.41,52.31 -30.08,52.52 -65.4,86.97zm-520.53 1.96c-31.9,-15.65 -56.63,-45.04 -73.02,-89.57l146.14 0.5c-11.44,35.05 -54.31,67.43 -73.12,89.07zm-121.96 -261.85l359.79 0.19 4.01 139.26 -332.92 5.07c-23.1,-42.05 -36.42,-96.39 -30.88,-144.52zm733.8 142.7c-67.44,4.5 -286.99,8.31 -340.59,-7.16l-0.15 -131.91 364.96 -3.42 -24.22 142.48zm-341.81 -308.32c217.91,-67.78 72.67,5.25 250.5,-122.74 58.06,40.3 119.1,157.6 115.28,259.99l-364.43 -0.74 -1.35 -136.52zm-271.09 -124.64c65.82,73.75 105.6,100.64 241.24,120.67l1.15 139.81 -366.26 1.52c0.32,-107.04 63.78,-229.85 123.87,-262zm271.5 83.52l0 -182.41c74.39,-15.7 173.8,34.48 217.1,73.91 -21.46,53.78 -126.83,127.34 -217.1,108.5zm-248.65 -111.53c59.44,-35.66 123.79,-77.65 219.99,-75.23l0 191.79c-100.84,-1.17 -200.03,-53.2 -219.99,-116.56zm-152.2 447.74c-52.04,37.54 -31.31,6.13 -49.68,33.35l123.3 337.29 -238.4 1.81 -3.28 -1268.38 1107.1 -3.26 2.14 1272.05 -239.12 -0.5 121.52 -338.71 -50.69 -33.65c147.13,-502.98 -462.65,-739.23 -714.8,-392.69 -73.98,101.68 -103.7,246.39 -58.09,392.69zm-451.69 -756.2c16.91,-17.22 14.12,-7.81 18.98,-65.79 3.83,-45.76 -0.41,-30.98 15.06,-67.22 48.45,-11.87 161.46,-14.22 217.59,-5.28l1.72 1264c-300.61,31.53 -235.45,-8.16 -235.45,-436.22 0,-148.24 0,-296.47 0,-444.7l-17.58 -26.68c-26.49,0.99 -11.32,701.94 -11.34,727.09 -0.1,186.38 -26.76,212.99 168.39,212.1 112.33,-0.51 266.22,-8.34 373.89,2.67l15.35 367.47c44.54,-25.39 99.59,-130.64 144.56,-168.33 58.25,44.07 87.92,120.48 144.57,166.66 39.03,-21.02 119.19,-137.71 141.43,-169.51 36.67,24.05 49.74,51.62 75.21,83.89 38.27,48.48 47.25,72.31 83.61,85.17 27.71,-75.22 -1.41,-270.27 10.49,-368.06 475.84,0 542.14,62.85 540.98,-156.3 -1.07,-202.07 23.71,-1092.75 -18.78,-1143.67 -43.88,-52.59 -353,-28.34 -443.72,-28.34l-1167.74 2.31c-64.75,12.53 -92.35,109.06 -57.22,168.76z"/>
  <path class="fil0" d="M710.38 141.05l288.04 1.07 -2.76 102.38 -285.99 -5.55 0.71 -97.9zm-29.85 46.92c0,107.25 3.19,84.16 270.67,84.16 48.03,0 45.77,-1.63 71.4,-22.78l-3.8 -126.98c-90.7,-16.8 -187.44,-14.61 -279.58,-10.74 -60.78,2.55 -58.7,14.89 -58.7,76.34z"/>
 </g>
</svg>
