<?xml version="1.0" encoding="UTF-8"?>
<!DOCTYPE svg PUBLIC "-//W3C//DTD SVG 1.1//EN" "http://www.w3.org/Graphics/SVG/1.1/DTD/svg11.dtd">
<!-- Creator: CorelDRAW -->
<svg xmlns="http://www.w3.org/2000/svg" xml:space="preserve" width="100%" height="100%" version="1.1" style="shape-rendering:geometricPrecision; text-rendering:geometricPrecision; image-rendering:optimizeQuality; fill-rule:evenodd; clip-rule:evenodd"
viewBox="0 0 1910.3 2081.37"
 xmlns:xlink="http://www.w3.org/1999/xlink"
 xmlns:xodm="http://www.corel.com/coreldraw/odm/2003">
 <defs>
  <style type="text/css">
   <![CDATA[
    .fil0 {fill:#003399}
   ]]>
  </style>
 </defs>
 <g id="Layer_x0020_1">
  <metadata id="CorelCorpID_0Corel-Layer"/>
  <path class="fil0" d="M644.02 199.61c14.06,-89.62 47.71,-159.59 149.37,-158.98 111.42,0.67 115.98,61.64 150.94,156.78l113.8 11.9c17.33,47.02 18.76,155.73 -0.26,216.27l-529.21 -2.74c-19.52,-55.88 -15.61,-158.24 -3.61,-219.71l118.97 -3.51zm-105.47 1717.84c-266.72,-12.18 -487.8,57.66 -505.34,-152.37 -13.02,-155.87 -0.9,-1054.52 -0.93,-1291.59 -0.02,-113.08 26.1,-189.75 129.99,-204.78 61.89,-8.96 266.12,-10.06 321.08,5.83l-1.36 79.63c-134.87,29 -368.33,-69.59 -357.25,147.31 0.75,14.69 1.98,24.31 6.72,37.74 14.54,41.21 -14.62,3.59 18.27,29.38l20.07 -154.17c63.64,-27.28 102.42,-18.27 184.36,-18.91 142.89,-1.12 95.98,-20.1 155.1,58.74l567.79 5.31 31.76 -62.11c97.83,-5.28 233.3,-13.63 303.94,18.17 43.81,189.03 -28.03,404.13 31.79,426.07 19,-66.5 28.18,-356.65 5.71,-419.08 -37.41,-103.91 -243.56,-49.35 -346.44,-67.23l-1.33 -82.56c112.8,-25.24 346.45,-30.83 411.15,43.43 90.72,104.13 -7.51,369.06 66.09,406.13 13.59,-44.78 39.6,-377.77 -60.14,-452.88 -81.7,-61.52 -248.82,-29.52 -357.28,-36.46 -91.06,-5.83 -44.39,9.31 -80.18,-59.76l-105.45 -7.93c-88.35,-218.08 -280.43,-222.81 -367.07,-0.27l-106.14 5.55c-50.31,89.54 -2.35,58.46 -287.39,60.72 -115.06,0.91 -190.48,34.84 -212.24,138.35l-3.8 1419.83c21.72,188.74 246.26,170.71 465.56,162.54 90.15,-3.36 60.67,11.6 72.98,-34.65z"/>
  <path class="fil0" d="M588.83 2029.18c4.09,-21.3 -0.55,-17.24 8.54,-35.15 9.07,-17.86 9.99,-15.2 17.58,-23.83l35.74 35.92 -61.86 23.06zm34.18 -114.06c16.27,-61.13 63.65,-112.49 115.53,-139.41l108.19 106.47c-89.12,92.04 -124.13,168.63 -223.71,32.94zm256.54 -65.18c-43.61,-26.98 -91.6,-72.9 -111.2,-116.65 73.93,-66.63 138.22,-138.69 210.81,-209.06 57.35,-55.59 159.93,-173.15 212.49,-208.32l111.63 101.71 -423.73 432.31zm496.35 -725.15c53.92,-53.17 97.66,-97.43 151.43,-150.79 121.83,-120.87 234.1,-283.09 316.78,-205.5 76.13,71.45 -20.23,136.46 -58.57,175.61 -125.66,128.3 -351.29,336.77 -447.8,450.82l-110.88 -111.26 149.04 -158.87zm-45.35 -22.63c-17.03,-45.66 13.65,-56.02 45.16,-87.43 41.41,-41.28 197.63,-225.47 246.05,-216.28 4.69,19.98 5.3,22.17 -16.3,46.41 -47.4,53.22 -238.51,245.89 -274.91,257.3zm339.64 -318.03c-104.84,-44.09 -69.05,-50.98 -240.06,120.22 -181.8,182 -161.11,134.85 -117.13,241.45 -70.42,56.01 -146.77,142.43 -214.04,209.93 -104.45,104.81 -470.35,432.62 -510.86,546.67 -18.51,52.09 -47.43,116.38 -47.15,178.97 81.86,-13.25 219.33,-55.28 266.93,-110.7l94.96 -97.27c292.33,-286.62 673.73,-689.66 956.1,-952.15 120.41,-111.94 1.57,-218.25 -76.27,-214.28 -54.63,2.78 -86.43,51.56 -112.48,77.16z"/>
  <path class="fil0" d="M571.82 1816.8c34.6,-9.11 16.3,11.93 26.39,-24 -135.5,-24.04 -315.7,20.96 -425.32,-25.15 -35.63,-152.97 24.77,-866.35 -25.85,-931.65 -38.91,17.7 -20.91,919.09 -13.03,933.54 73.85,63.2 74.11,52.63 192.56,51.92 81.46,-0.49 164.87,4.47 245.26,-4.66z"/>
  <path class="fil0" d="M1555.87 1302.4c-11.39,142.39 39.87,483.9 -48.55,571.29 -84.23,83.25 -439.73,35.8 -574.77,44.49 -36.35,5.47 -21.28,-7.76 -29.92,24.39 33.27,10.41 544.54,38.89 630.75,-42.78 71.67,-67.9 53.54,-187.13 53.53,-300.41 -0.01,-69.59 13.37,-289.78 -10.8,-337.71 -31.67,16.53 -16.75,-4.03 -20.24,40.72z"/>
  <path class="fil0" d="M1027.23 1817.88c75.25,6.03 341.89,20.31 391.8,-17.25 66.28,-49.88 39.89,-283.97 39.89,-379.69 -15.2,-26.19 5.7,-14.07 -29.57,-15.4 -26.93,103.74 7.91,254.8 -16.66,361.14 -86.9,36.22 -243.78,19.72 -358.34,19.87 -32.82,14.3 -15.93,-0.85 -27.11,31.33z"/>
  <path class="fil0" d="M679.56 987.16c59.15,-18.05 39.8,-28.6 95.12,-60.29l0.47 315.69c-0.81,72.11 -5.55,66.09 18.31,100.91 34.8,-54.94 15.99,-345.28 18,-414.03 60.71,27.69 28,38.15 94.52,58.55 -18.2,-52.32 -73.43,-102.65 -112.52,-128.67 -41.22,25.19 -93.7,72.52 -113.9,127.85z"/>
  <path class="fil0" d="M463.58 1036.57c39.93,32.94 20.17,13.57 102.61,21.93 -34.68,32.57 -69.73,71.94 -107.6,109.77 -43.92,43.87 -89.04,68.46 -111.54,137.58 69.05,-19.61 62.04,-34.94 138.46,-110.3 29.69,-29.28 94.22,-84.04 106.65,-109.18 8.64,50.29 -4.98,64.91 22.79,102.87 30.04,-42.34 18.41,-115.99 14.21,-167.25l-124.55 -1.08c-48.53,6.69 -22.68,3.65 -41.04,15.66z"/>
  <path class="fil0" d="M837.17 598.45c70.67,81.33 10.92,178.24 -77.23,142.55 -63.07,-25.54 -85.65,-169.15 77.23,-142.55zm-84.46 -32.58c-145.96,61.59 -58,267.22 91.65,207 112.75,-45.37 52.46,-267.81 -91.65,-207z"/>
  <path class="fil0" d="M971.96 1189.32c24.5,-36.07 15.5,-11.95 17.56,-98.28 63.2,38.26 125.18,140.07 183.95,147.14 -8.96,-49.21 -117.04,-142.89 -153.37,-179.71 53.42,-5.61 68.52,6.23 101.99,-21.9 -31.5,-21.33 -13.91,-14.38 -66.75,-16.02 -31.47,-0.98 -67.68,0.33 -99.42,0.85 -2.08,29.04 -3.13,55.08 -3.14,84.34 -0.04,84.74 5.8,65.93 19.17,83.58z"/>
  <path class="fil0" d="M793.28 141.81c58.45,-3.43 16.54,3.24 32.28,11.54 49,105.89 -115.09,106.18 -65.13,-0.15 14.59,-7.47 -18.56,-8.37 32.85,-11.39zm77.99 70.82c5.64,-156.37 -140.27,-121.37 -156.85,-50.72 -20.57,87.7 78.88,150.05 156.85,50.72z"/>
 </g>
</svg>
