<?xml version="1.0" encoding="UTF-8"?>
<!DOCTYPE svg PUBLIC "-//W3C//DTD SVG 1.1//EN" "http://www.w3.org/Graphics/SVG/1.1/DTD/svg11.dtd">
<!-- Creator: CorelDRAW -->
<svg xmlns="http://www.w3.org/2000/svg" xml:space="preserve" width="100%" height="100%" version="1.1" style="shape-rendering:geometricPrecision; text-rendering:geometricPrecision; image-rendering:optimizeQuality; fill-rule:evenodd; clip-rule:evenodd"
viewBox="0 0 2092.36 2095.3"
 xmlns:xlink="http://www.w3.org/1999/xlink"
 xmlns:xodm="http://www.corel.com/coreldraw/odm/2003">
 <defs>
  <style type="text/css">
   <![CDATA[
    .fil0 {fill:#003399}
   ]]>
  </style>
 </defs>
 <g id="Layer_x0020_1">
  <metadata id="CorelCorpID_0Corel-Layer"/>
  <path class="fil0" d="M1608.98 1701.61c-1.07,54.97 -9.52,61.37 -63.59,64.05 -59.76,-81.59 -3.68,-114.24 63.59,-64.05zm-603.06 -16.84c66.96,-23.69 85.38,7.03 80.16,68.58 -61.13,26.8 -96.46,13.52 -80.16,-68.58zm-182.65 67.56c-74.2,41.46 -106.73,-29.67 -68.14,-66.07 32.52,-30.68 89.34,7.84 68.14,66.07zm-590.68 -74.85c64.15,-5.29 96.22,20.39 65.13,78.34 -2.69,1.34 -29.15,30.57 -60.8,1.73 -27.36,-24.93 -15.14,-47.61 -4.33,-80.07zm1103.33 8.28c13.04,36.78 14.78,118.76 -56.6,71.85 -46.95,-30.85 -38.77,-85.88 56.6,-71.85zm-1179.24 4.87l-89.13 0.5 -2.91 -266.39c163.82,-35.89 53.84,36.3 165.33,66.54 111.74,30.31 93.15,-54.54 176.67,-72.7 44.2,35.79 23.44,76.15 110.79,76.15 69.6,-0 92.95,-44.93 125.3,-76.52l541.6 0.12c35.13,44.2 47.69,80.47 124.43,74.95 84.71,-6.09 61.41,-49 125.54,-74.43 57.38,28.56 37.46,78.65 124.56,75.62 96.7,-3.35 69,-56.82 139.3,-76.52l28.63 29.69c28.26,30.73 53.69,60.39 122.37,44.24 99.71,-23.44 8.73,-88.47 169.06,-75.78l5.11 273.31 -339.06 1.78c-39.78,-38.9 -31.8,-76.16 -111.48,-80.21 -92.52,-4.7 -73.44,47.35 -138.49,74.96 -61.12,-20.87 -15.78,-12.39 -53.25,-45.67 -99.95,-88.77 -189.84,47.4 -196.72,53.3 -71.7,-21.44 -25.42,-74.37 -125.44,-81.33 -95.69,-6.67 -85.39,41.02 -138.41,76.36 -54.44,-22.15 -7.37,1.68 -48.16,-39.1 -73.18,-73.17 -147.24,-42.25 -185.02,38.05 -79.3,-1.19 -270.88,22.78 -320,-17.7 -25.12,-20.7 -103.2,-145.81 -210.62,20.77zm67.15 -341.24c39.22,-25.33 117.64,4.88 80.69,64.98 -26.66,43.37 -82.3,18.58 -80.69,-64.98zm1379.96 74.07l-75.04 4.02c-36.19,-130.52 97.18,-117.13 75.04,-4.02zm-271.07 -80.56c18.21,36.17 22.44,123.26 -52.17,79.45 -46.63,-27.38 -36.21,-98.87 52.17,-79.45zm455.89 83.95c-57.62,-236.48 222.7,42.42 0,0zm-1220.3 -10.55c-100.18,48.69 -139.17,-98.02 -12.06,-71.01l12.06 71.01zm-501.7 -336.33l90.07 -1.37c88.24,131.14 130.33,95.61 222.19,-0.31l541.6 1.39c44.7,36.22 40.25,82.01 124.07,77.06 93.98,-5.55 58.75,-60.61 125.9,-76.9 59.49,21.91 22.43,74.77 125.05,77.13 88.77,2.04 79.46,-48.55 124.92,-77.56 73.17,19.08 47.95,79.57 138.84,80.31 90.01,0.74 81.58,-63.08 138.91,-79.05 46.56,36.44 33.59,83.24 125.99,77.83 63.65,-3.73 74.24,-42.46 110.09,-80.48 47.56,-0.15 47.37,-7 90.72,9.67l-7.67 262.01c-82.81,6.93 -57.01,21.8 -100.3,-22.26 -23.59,-24 -20.28,-44.67 -69.05,-52.41 -106.1,-16.85 -95.84,49.29 -149.79,76.7 -38.06,-17.12 -96.66,-138.68 -209.61,-43.28 -42.81,36.16 -0.94,24.7 -54.24,41.37 -63.52,-19.88 -10.71,-19.7 -63.29,-60.93 -22.86,-17.93 -53.96,-25.87 -93.8,-11.53 -91.02,32.77 -20.04,75.85 -161.27,77.46 -135.7,1.55 -342.74,7 -473.21,-6.06 -35.92,-36.68 -48.24,-78.45 -124.69,-72.92 -89.57,6.48 -56.35,53.77 -125.28,74.65 -5.2,-3.66 -123.01,-174.09 -233.68,1.95l-92.73 -7.31 0.25 -265.17zm1714.19 -75.67c8.24,-6.43 39.86,-9.95 57.2,-0.85 101.16,53.08 -73.2,180.71 -57.2,0.85zm-177.81 84.44c-113.5,7.43 -130.99,-101.64 -1.03,-80.44l1.03 80.44zm-295.12 -84.28c23.75,3.01 16.33,0.85 28.76,13.71 72.92,75.37 -125.22,119.32 -69.91,-1.28 3.83,-2.21 -15.11,-19.56 41.15,-12.43zm-300.5 3.41c127.11,-24.86 99.63,130.55 -9.17,62.16l9.17 -62.16zm-780.17 10c40.54,-44.12 91.67,-14.59 76.76,65.87 -83.13,20.56 -98.64,-42.05 -76.76,-65.87zm957.13 -276.45c16.65,19.89 18.3,38.15 50.76,59.96 98.74,66.36 155.13,-43.36 199.21,-59.25 13.23,6.63 124.62,180.33 233.54,0.6l354.32 0.39 -3.28 273.52c-77.2,-0.73 -57.13,13.74 -97.46,-27.04 -128.17,-129.63 -162.49,-8.47 -223.28,26.61 -59.88,-19.26 -7.4,-9.29 -56.74,-53.83 -90.58,-81.77 -173.19,39.31 -207.12,53.03 -58.41,-26.37 -48.98,-87.74 -137.12,-79.52 -71.48,6.67 -66.65,57.19 -126.74,79.45 -67.8,-59.94 -118.97,-159.3 -236.08,0.28l-545.49 -0.71c-47.04,-18.56 -89.49,-183.63 -231.66,0.93l-91.06 -6.11 0.78 -262.4c145.77,-17.15 67.67,45.93 164.62,70.74 100.17,25.65 104.02,-54.96 161.22,-73 53.76,18.6 42.15,75.66 124.63,76.8 89.69,1.24 84.54,-58.2 120.89,-73.09 81.17,-33.24 8.83,61.23 129.25,69.68 77.54,5.44 96.46,-30.55 124.57,-78.72l292.22 1.67zm83.32 -3.41c-18.15,-54.18 13.76,-103.97 62.15,-60.11 47.02,42.63 8.28,102.19 -62.15,60.11zm-522.04 -61.65c57.26,-35.52 103,18.64 82.97,55.95 -23.17,43.16 -97.38,39.64 -82.97,-55.95zm859.96 68.74c-77.13,20.91 -121.5,-32.5 -74.41,-72.94 50.62,-43.46 82.22,22.19 74.41,72.94zm-1115.14 -5.27c-7.64,-8.5 -11.35,-25.23 -9.34,-38.73 5.88,-39.38 -4.12,-3.24 17.44,-23.31 44.66,-41.58 92.11,32.08 62.09,64.77 -21.83,23.77 -51.94,17.56 -70.19,-2.72zm-265.48 -57.29c38.4,-42.97 94.49,-18.81 78.2,66.43 -67.56,14.34 -108.35,-32.69 -78.2,-66.43zm1188.36 -273.31l609.45 -2.04 -0.25 270.06c-54.17,3.52 -312.08,18.15 -350.78,-8.81l-45.79 -57.39c-0.57,-3.38 -3.22,-4.07 -4.69,-6.2 -131.36,-13.18 -109.94,29.99 -186.94,71.04 -47.75,-27.02 -60.58,-80.53 -138.1,-74.75 -60.41,4.5 -72.99,45.87 -111.89,79.74l-277.73 -1.96c-165.46,-194.7 -194.36,4.2 -249.97,0.15 -54.14,-22.85 -47.12,-89.06 -137.52,-79.81 -71.97,7.37 -69.35,64.62 -126.34,81.1 -44.12,-30.8 -38.15,-81.93 -125.07,-80.92 -75.05,0.87 -75.16,33.95 -111.01,78.52l-91.83 -1.56 2.81 -262.91c147.71,-22.72 71.06,44.86 164.51,71.11 90.67,25.47 104.32,-53.64 160.59,-78.01 81.33,37.34 22.42,84.42 186.2,72.76 14.05,-19.5 40.87,-57.5 63.77,-76.5 64.38,20.04 14.53,7.69 62.57,53.35 46.69,44.38 104.41,38.47 152.52,-0.21 42.15,-33.89 9.97,-31.52 62.65,-49.57 57.39,31.69 24.83,83.55 124.62,76.41 74.52,-5.34 72.19,-50.23 125.35,-75.27 59.07,23.54 35.95,74.5 124.96,75.3 32.92,0.3 50.91,-8.46 74.93,-27.78l42.98 -45.87zm-403.66 -78.44c66.2,-6.35 112.83,32.83 65.23,77.88 -51.03,48.3 -80.25,-22 -65.23,-77.88zm-259.72 3.2c62.52,-10.33 109.08,33.88 72.86,73.19 -44.46,48.24 -97.42,-6.76 -72.86,-73.19zm-218.98 1.56c56.64,6.35 5.74,-1.94 31.74,16.04 33.72,100.64 -108.57,85.01 -72.71,-11.92 26.04,-4.79 4.44,-8.22 40.97,-4.12zm-225.26 5.97c22.2,130.38 -108.52,98.18 -71.9,-13.89l71.9 13.89zm1038.58 3.89c15.84,83.39 -47.39,93.31 -77.77,48.46 -46.07,-68.02 47.94,-64.6 77.77,-48.46zm-951.5 -4.18c-50.83,-38.13 -31.3,-81.74 -124.85,-78.06 -93.11,3.66 -73.57,54.17 -123.14,76.93 -80.47,36.97 -80.73,-28.14 -81.9,-84.42 -5.32,-257.47 37.13,-192.1 732.61,-188.99 249.56,1.12 499.31,-4.56 749.91,-1.07 460.18,6.41 489.92,-75.68 476.52,278.17l-601.5 -5.98c-124.51,-162.4 -184.36,-18.04 -249.97,3.92 -52.66,-40.82 -31.56,-81.81 -124.63,-78.74 -81.16,2.68 -83.48,44.46 -125.34,77.63 -59.73,-24.53 -11.69,-16.72 -61.02,-54.09 -101.33,-76.78 -174.37,47.35 -203.69,47.79 -53.21,0.8 -63,-157.58 -236.13,-10.75 -16.15,13.7 5.61,6.61 -26.87,17.67zm1202.02 1749.09l4.97 -63.61c-297.17,-8.18 -602.84,6.98 -901.47,-0.7 -146.53,-3.77 -310.92,-0.74 -458.47,2.34 -196.65,4.1 -190.13,-69.59 -173.13,-266.94l89.85 -6.85c26.97,54.47 27.28,81.05 111.45,77.64 71.05,-2.88 77.12,-40.18 110.9,-77.27l291.62 -1.81c26.39,42.43 66.35,120.91 170.55,61.1 68.57,-39.36 10.28,-44.91 79.43,-61.1 42.92,28.66 31.09,87.77 123.39,81.37 75.18,-5.21 66.23,-55.13 126.58,-78.16 50.93,21.54 60.02,76.64 125.07,77.76 72.81,1.25 81.03,-55.45 138.79,-80.07 64.33,26.88 39.07,85.78 122.66,80.3 68.31,-4.48 82.03,-46.48 127.31,-80.08l319.4 -2.24 23.07 43.94 33.76 9.29c20.52,-48.17 -2.5,-147.48 -1.87,-162.78 2.1,-50.97 13.85,-52.85 27.26,-68.7 11.7,-172.79 -3.7,-683.97 -0.1,-916.62 9.3,-601 47.93,-653.44 -262.57,-651.85l-1374.91 -0.67c-121.56,-1.89 -335.42,-24.72 -405.47,52.31 -62.69,68.94 -37.65,309.97 -39.12,419.68 -2,149.17 -5.19,309.15 -1.59,458.28 7.3,301.94 1.71,613.34 3.26,916.42 1,196.61 17,239.79 220.63,238.13 151.79,-1.24 307.63,-3.17 458.37,-0.04 149.44,3.11 309.56,6.94 458.28,5.67 134.44,-1.14 323.54,-17.8 452.11,-4.71z"/>
  <path class="fil0" d="M2026.74 1795.94c8.59,238.69 -14.09,235.59 -245.19,234.48l27.77 58.77c79.15,-3.52 194.44,11.26 247.2,-60.98 2.5,-3.43 27.98,-60.2 29.36,-68.25 15.76,-92.17 -6.13,-279.96 0.02,-386.21 -13.41,15.84 -25.16,17.72 -27.26,68.7 -0.63,15.3 22.39,114.62 1.87,162.78l-33.76 -9.29z"/>
  <polygon class="fil0" points="1594.78,2090.33 1718.88,2094.14 1720.12,2030.17 1599.76,2026.72 "/>
  <polygon class="fil0" points="1718.88,2094.14 1809.32,2089.18 1781.55,2030.41 1720.12,2030.17 "/>
 </g>
</svg>
