<?xml version="1.0" encoding="UTF-8"?>
<!DOCTYPE svg PUBLIC "-//W3C//DTD SVG 1.1//EN" "http://www.w3.org/Graphics/SVG/1.1/DTD/svg11.dtd">
<!-- Creator: CorelDRAW -->
<svg xmlns="http://www.w3.org/2000/svg" xml:space="preserve" width="100%" height="100%" version="1.1" style="shape-rendering:geometricPrecision; text-rendering:geometricPrecision; image-rendering:optimizeQuality; fill-rule:evenodd; clip-rule:evenodd"
viewBox="0 0 1172.67 1420.33"
 xmlns:xlink="http://www.w3.org/1999/xlink"
 xmlns:xodm="http://www.corel.com/coreldraw/odm/2003">
 <defs>
  <style type="text/css">
   <![CDATA[
    .fil0 {fill:#003399}
   ]]>
  </style>
 </defs>
 <g id="Layer_x0020_1">
  <metadata id="CorelCorpID_0Corel-Layer"/>
  <path class="fil0" d="M862.12 1194.95c0,-71.22 17.61,-86.6 89.89,-86.6l162.59 4.35 -251.8 243.69 -0.69 -161.43zm-792.42 -415.5l-0.88 -11.49c10.76,-118.45 -22.8,-652.96 21.2,-705.75 32.82,-40.92 127.8,-24.29 187.74,-24.26 99.34,0.05 417,-5.76 552.98,0.75 6.85,-2.78 16.34,-5.33 28.88,-5.48 49.1,-0.62 72.02,-1.56 89.06,4.11 62.27,-4.33 139.58,-10.85 180.98,22.18 30.37,60.07 17.43,886.54 11.34,1017.45 -339.9,20.76 -308.68,-62.75 -308.68,309.15 -105.71,10.56 -680.92,13.5 -751.78,-9.74l-6.26 -112.23 7.19 -0.02c-0.91,-4.7 -1.44,-9.57 -1.57,-14.58l3.29 -16.29c-3.43,0.09 -6.89,0.13 -10.38,0.08l-3.11 -453.87zm803.39 -777.94l0.45 3.11c-140.05,16.01 -363.83,2.85 -512.96,2.85 -325.96,0 -318.11,-27.48 -317.46,193.94 1,337.36 6.45,681.91 -0.47,1018.68 7.53,18.76 7.66,41.91 -0.15,60.6 9.35,165.3 48.96,138 223.44,137.9l556.63 0.73c59.17,-3.96 70.31,-35.11 105.87,-70.54 63.72,-63.48 118.89,-120.01 183.51,-183.22 37.36,-36.55 60.83,-46.33 60.73,-123.53l-0.34 -923.71c-3.81,-149.55 -119.66,-106.32 -255.7,-112.11 -1.49,-2 -2.93,-4.07 -4.31,-6.2 -11.58,0.65 -24.83,1.14 -39.22,1.51zm-869.62 1014.3c6.24,-3.72 6.38,-8.59 -2.02,-14.94l-1.46 -0.06 3.47 15z"/>
  <path class="fil0" d="M214.34 210.75l330.57 -4.04 6.56 82.07 -332.87 0.33 -4.26 -78.35zm-29.48 103.28c63.41,11.16 339.76,13.8 392.09,-2.72l2.48 -125.79c-52.87,-16.66 -332.99,-14.41 -391.3,-2.84l-3.27 131.35z"/>
  <path class="fil0" d="M187.5 1088.5c20.13,35.05 57.72,19.76 161.25,19.76 92.48,-0.01 151.88,15.01 171.68,-19.76 -31.72,-16.82 -301.02,-16.31 -332.93,0z"/>
  <path class="fil0" d="M189.37 686.65c12.23,19.06 1.98,14.32 34.98,14.32l462.31 0c35.71,0 24.54,5.17 34.2,-12.74 -65.12,-13.98 -454.95,-11.53 -531.5,-1.58z"/>
  <path class="fil0" d="M191.89 777.69c16.85,21.44 67.54,11.94 121.95,11.94l283.35 0c52.41,0 108.88,9.16 123.68,-11.94 -17.33,-9.88 -494.13,-15.7 -528.98,0z"/>
  <path class="fil0" d="M190.74 867.15c19.79,25.83 131.77,11.44 175.29,11.44 36.74,0 159.39,17 177.31,-11.44 -20.33,-12.15 -332.67,-12.98 -352.6,0z"/>
 </g>
</svg>
