<?xml version="1.0" encoding="UTF-8"?>
<!DOCTYPE svg PUBLIC "-//W3C//DTD SVG 1.1//EN" "http://www.w3.org/Graphics/SVG/1.1/DTD/svg11.dtd">
<!-- Creator: CorelDRAW -->
<svg xmlns="http://www.w3.org/2000/svg" xml:space="preserve" width="100%" height="100%" version="1.1" style="shape-rendering:geometricPrecision; text-rendering:geometricPrecision; image-rendering:optimizeQuality; fill-rule:evenodd; clip-rule:evenodd"
viewBox="0 0 1682.15 1298.47"
 xmlns:xlink="http://www.w3.org/1999/xlink"
 xmlns:xodm="http://www.corel.com/coreldraw/odm/2003">
 <defs>
  <style type="text/css">
   <![CDATA[
    .fil0 {fill:#003399}
   ]]>
  </style>
 </defs>
 <g id="Layer_x0020_1">
  <metadata id="CorelCorpID_0Corel-Layer"/>
  <path class="fil0" d="M170.44 587.63c224.47,-56.04 184.44,-34.83 384.2,14.71 33.62,-54.86 103.05,-249.7 129.17,-323.6 54.82,-155.07 -22.33,-280.06 -165.58,-278.73 -156.48,1.45 -162.02,120.88 -210.12,249.79 -39.74,106.49 -112.52,234.94 -137.67,337.83z"/>
  <path class="fil0" d="M1089.47 506.73l30.08 99.11c180.35,-48.09 182.4,-78.79 389.22,-21.28 -27.3,-101.84 -85.4,-212.4 -128.99,-312.72 -66.81,-153.73 -8.52,-198.35 -167.19,-267.39 5.69,138.99 -54.78,410.13 -123.13,502.28z"/>
  <path class="fil0" d="M1060.5 1007.78c-58.87,-391.18 498,-436.61 556.59,-108.26 70.25,393.76 -504.56,453.97 -556.59,108.26zm-62.73 0c23.16,168.56 192.33,317.12 394.09,286.71 169.8,-25.59 316.38,-188.13 286.37,-390.57 -64.84,-437.32 -743.69,-356.32 -680.45,103.86z"/>
  <path class="fil0" d="M257.63 685.24c164.23,-55.21 322.25,49.89 357.24,187.95 41.36,163.2 -53.97,310.03 -176.24,348.82 -377.59,119.8 -527.94,-420.13 -181,-536.78zm-246.65 359.09c114.91,433.87 778.3,261.51 666.13,-176.8 -41.16,-160.85 -218.56,-293.29 -419.67,-246.82 -150.96,34.88 -299.54,223.17 -246.46,423.62z"/>
  <path class="fil0" d="M1089.47 506.73c68.35,-92.15 128.81,-363.29 123.13,-502.28 -131.04,-11.2 -237.29,48.15 -236.2,180.32 0.54,65.09 84.11,262.31 113.07,321.96z"/>
  <path class="fil0" d="M609.48 635.81c36.14,-5.85 85.91,-12.77 113.86,-24.26 64.97,-26.72 31.66,-37.92 95.26,-52.38 92.89,-21.13 76.33,60.97 230.67,63.53 0.97,-86.02 -71.18,-245.66 -105.35,-321.48 -25.01,76.49 -12.47,116.09 -97.65,118.19 -96.49,2.38 -73.96,-52.86 -108.91,-114.56l-127.89 330.96z"/>
  <path class="fil0" d="M920.84 714.31c-36.35,31.87 -28.59,57.41 -105.54,36.96 -85.3,-22.67 -59.57,-135.94 -159.26,-54.15 43.82,61.33 84.77,155.99 94.98,262.43l178.28 4.68c1.98,-145.85 29.91,-181.72 89.67,-272.48 -122.82,-46.36 -53.03,-16.97 -98.13,22.56z"/>
  <path class="fil0" d="M1277.41 1160.34c82.48,81.06 258.52,-39.64 282.31,-154.64 36,-173.96 -91.22,-275.84 -246.48,-275.54 66.02,65 150.01,94.33 142.6,241.48 -5.6,111.15 -73.67,179.56 -178.44,188.7z"/>
  <path class="fil0" d="M872.56 686.01c9.49,-58.04 3.06,-58.72 -43.83,-75.26 -42.38,34.96 -41.48,12.31 -24.88,72.1 62.13,31.56 65.81,4.32 68.71,3.16z"/>
 </g>
</svg>
