<?xml version="1.0" encoding="UTF-8"?>
<!DOCTYPE svg PUBLIC "-//W3C//DTD SVG 1.1//EN" "http://www.w3.org/Graphics/SVG/1.1/DTD/svg11.dtd">
<!-- Creator: CorelDRAW -->
<svg xmlns="http://www.w3.org/2000/svg" xml:space="preserve" width="100%" height="100%" version="1.1" style="shape-rendering:geometricPrecision; text-rendering:geometricPrecision; image-rendering:optimizeQuality; fill-rule:evenodd; clip-rule:evenodd"
viewBox="0 0 2374.24 6199.3"
 xmlns:xlink="http://www.w3.org/1999/xlink"
 xmlns:xodm="http://www.corel.com/coreldraw/odm/2003">
 <defs>
  <style type="text/css">
   <![CDATA[
    .str0 {stroke:#1E3A45;stroke-width:3;stroke-miterlimit:2.61313}
    .fil2 {fill:#1E3A45}
    .fil0 {fill:#235C6B}
    .fil3 {fill:#B08677}
    .fil5 {fill:#C5274A}
    .fil4 {fill:#DADDE2}
    .fil1 {fill:#E6B07B}
   ]]>
  </style>
 </defs>
 <g id="Layer_x0020_1">
  <metadata id="CorelCorpID_0Corel-Layer"/>
  <g id="_105553506625888">
   <path class="fil0" d="M799.07 2705.4c-40.95,316.11 -64.24,548.72 -27.93,879.7 15.32,139.66 102.88,686.73 194.84,733.56 298.78,22.98 400.13,25.87 694.53,-20.54 54.48,-24.82 54.6,-83.18 70.14,-159.04 14.44,-70.5 29.33,-146.19 41.27,-210.57 63.65,-343.25 170.58,-962.26 -52.04,-1281.28 -1.74,-2.48 -5.19,-7.09 -8.08,-10.39 -63.22,69.2 -310.98,108.07 -426.11,115.57 -171.89,11.2 -341.73,-16.09 -486.63,-47.02z"/>
   <path class="fil0" d="M700.89 1780.87c33.03,31.96 -3.87,-8.83 20.55,32.11 19.89,33.36 2.83,12.45 24.87,41.44 74.25,97.65 105.38,52.89 117.83,240.89 2.92,3.43 6.15,4.81 7.01,11.57l14.93 38.64c10.73,56.27 -2.97,189.69 -16.6,234.3 84.32,-26.97 261.83,11.07 368.27,7.85 126.43,-3.82 255.12,-42.76 356.08,-43.95 -13.37,-185.2 31.35,-437.09 106.35,-577.61 45.73,67.28 83.68,250.26 114.92,327.94 1.62,4.03 3.06,8.13 4.85,12.06l27.8 45.9c4.89,-65.33 37.17,-193.82 66.98,-236.06l21.66 5.24c0.07,-124.15 47.54,-197.15 23.15,-314.19 -38.75,-101.79 -68.43,-199.34 -107.76,-300.41 -25.26,-64.93 -29.15,-92.12 -77.98,-130.11 -117.26,-91.21 -107.6,-19.73 -125.07,-117.86 -39.31,17.89 -21.14,13.52 -64.55,6.34 -5.79,-0.96 -58.91,-18.57 -65.54,-21.12l-2.87 232.09c-45.58,-10.39 -68.53,-39.34 -135.85,-46.24 -45.43,-4.65 -108.92,16.72 -132.83,8.19 -30.73,13.5 -13.08,11.79 -50.2,9.68 -122.8,-39.46 -83.11,-44.33 -227.4,-14.63 33.7,-56.96 71.19,-111.17 99.51,-178.45l-63.04 11.84c-63,45.34 -90.61,46.62 -127.17,113.63 -23.13,42.39 -52.1,132.59 -69.38,185.91 -39.57,122.1 -86.43,284.63 -108.52,415z"/>
   <path class="fil1" d="M965.98 4318.66c60.85,248.7 99.8,547.59 134.92,808.21l67.54 613.22c1.16,80.15 -34.03,112.32 -54.11,179.57 -13.5,20.33 -21.74,37.99 -31.71,49.32 -11.65,13.23 -7.2,8.28 -24.89,22.91 -13.05,10.79 -3.51,-1.66 -27.44,19.8 127.82,71.1 191.94,-172.92 304.09,-228.55 -49.41,-61.98 -10.86,-62.48 8.38,-193.67 11.07,-75.44 25.93,-149.58 35.54,-223.7 80.29,154.08 29.8,441.3 -0.16,619.76l43.35 51.62c1.69,2.14 4.71,6.63 7.33,9.74 98.79,-18.33 118.99,33.07 143.53,-52.52 16.42,-57.29 -6.67,-137.36 15.45,-181.97 -0.09,-197.39 82.06,-532.7 101.63,-747.85 27.66,-303.99 -74.69,-508.92 -28.91,-766.43 -294.39,46.41 -395.74,43.51 -694.53,20.54z"/>
   <path class="fil2" d="M1131.24 201.3c26.12,-40.27 11.78,-7.56 15.08,-38.2 0.15,-1.42 -0.52,-6.19 -0.44,-7.54 5.06,-80.89 271.66,-80.72 330.81,-72.65l53.35 83.89c-109.97,47.04 -170.46,45.16 -232.04,136.91 -28.52,-32.91 -126.79,-117.84 -166.76,-102.4zm-125.29 865.04l63.04 -11.84c-28.32,67.28 -65.81,121.49 -99.51,178.45 144.29,-29.7 104.6,-24.83 227.4,14.63 -17.75,-66.98 -36.7,-84.68 -32.04,-159.69 -16.11,-20.76 -16.79,4.92 -21.56,-57.87 -1.74,-22.91 3.05,-56.03 4.41,-81.85 3.72,-70.83 -0.93,-107.98 -11.55,-177.24 -8.06,-14.87 -46.71,-89.57 -68.64,-105.31 -48.38,-34.74 -33.05,9.49 -100.02,-54.39l61.76 -33.5c67.63,-27.52 114.76,-47.83 157.26,-114.09 33.97,9.18 28.95,3.35 55.57,16.45l43.07 29.67 32.51 -64.1 42.42 15.41c-33.33,-53.52 -84.08,-10.39 -142.29,-5.06 38.15,-77.66 59.71,-96.48 166.6,-81.69 -45.08,-56.61 -118.43,-20.78 23.38,-103.41 57.48,-33.5 95.22,-53.7 166.08,-59.6 31.68,94.86 56.38,134.62 43.71,257.1 -43.31,-16.41 -110.66,-66.22 -106.86,34.42 22.33,11.07 -5.77,-1.98 34.72,9.65l11.09 -52.41c33.88,12.89 22.41,-0.93 42.17,30.63 99.76,157.61 -69.11,358.43 -141.67,413.62l-8.38 46.35c-6.08,84.45 -38.13,94.37 -92.07,147.57 -41.76,41.19 -92.04,90.83 -109.47,139.65 23.91,8.53 87.4,-12.84 132.83,-8.19 67.32,6.9 90.27,35.85 135.85,46.24l2.87 -232.09c6.62,2.55 59.75,20.16 65.54,21.12 43.41,7.19 25.24,11.56 64.55,-6.34 157.54,-97.24 23.31,-442.59 4.32,-622.43 -18.56,-175.7 63.33,-228.9 -47.11,-321.76 -86.5,-72.74 -141.19,-110.3 -288.36,-114.15 -406.14,-10.62 -355.26,265.83 -397.49,406.04 -76.04,252.46 -37.31,482.38 85.88,660z"/>
   <path class="fil2" d="M869.47 2379.82l-70.4 325.58c144.9,30.93 314.74,58.22 486.63,47.02 115.13,-7.5 362.89,-46.37 426.11,-115.57 -1.77,-53.11 -85.34,-239.9 -118,-293.12 -100.96,1.19 -229.65,40.13 -356.08,43.95 -106.44,3.22 -283.95,-34.82 -368.27,-7.85z"/>
   <path class="fil1" d="M1351.07 736.98c64.68,-10.5 85.75,-42.67 145.34,2.04l-114.49 4.49c32.11,34.07 10.26,24.69 62.33,39.22l43.12 4.22c-71.43,52.04 -113.3,-3.4 -136.3,-49.97zm9.01 -275.93l18.76 65.69c-81.01,9.27 -107.13,32.46 -136.77,-46.67 -26.61,-13.1 -21.6,-7.27 -55.57,-16.45 -42.5,66.26 -89.63,86.57 -157.26,114.09l-61.76 33.5c66.96,63.88 51.64,19.66 100.02,54.39 21.93,15.74 60.58,90.44 68.64,105.31l64.72 53.19c75.54,50.92 162.7,100.06 256.15,80.21 72.56,-55.2 241.43,-256.01 141.67,-413.62l-47.59 46.33c-83.09,-14.38 -30.77,-9.35 -40.38,-34.21 -3.8,-100.64 63.55,-50.83 106.86,-34.42 12.67,-122.48 -12.03,-162.24 -43.71,-257.1 -70.86,5.9 -108.6,26.1 -166.08,59.6 -141.81,82.63 -68.46,46.8 -23.38,103.41 -106.89,-14.8 -128.46,4.03 -166.6,81.69 58.2,-5.33 108.95,-48.47 142.29,5.06z"/>
   <path class="fil1" d="M1959.52 1607.01c24.39,117.04 -23.08,190.04 -23.15,314.19 157.46,109.22 107.43,30.42 226.27,66.4 -11.41,-99.77 6.32,-204.57 4.91,-305.96 -1.41,-101.62 -15.3,-202.89 -18.17,-303.55 108.31,-73.93 201.08,-107.42 224.86,-260.74 -119.24,-5.7 -79.4,13.23 -139.89,25.93 -21.15,4.44 -93.07,-19.54 -184.53,57.19 -69.14,58 -61.42,316.29 -72.83,417.26 9.98,-1.35 6.72,6.44 -17.46,-10.72z"/>
   <path class="fil1" d="M516.28 1988.88c120.94,-33.94 173.19,-47.8 177.46,-195.33 -60.8,-52.46 -216.02,-308.72 -251.65,-401.71 -36.38,-94.93 -68.76,-192.54 -240.59,-171 -90.58,11.35 -19.72,7.91 -60.28,19.95 -79.68,23.66 -73.48,-10.83 -140.15,32.9 -9.9,53.02 51.46,88.33 97.94,110.71 56.93,27.41 118.61,35.53 197.28,43.07 64.76,228.31 143.08,361.46 220,561.41z"/>
   <path class="fil2" d="M693.74 1793.55c-4.28,147.54 -56.52,161.39 -177.46,195.33 11.09,72.84 73.08,171.03 131.59,203.32 48.5,26.77 83.34,12.21 134.82,-3.81 76.25,-23.72 83.94,-20.2 81.45,-93.08 -12.45,-188 -43.58,-143.23 -117.83,-240.89 -22.04,-28.99 -4.98,-8.08 -24.87,-41.44 -24.41,-40.94 12.48,-0.15 -20.55,-32.11l-7.15 12.68z"/>
   <path class="fil2" d="M1847.74 2152.02c-11.66,125.17 213.37,155.77 276.67,49.67 32.06,-53.73 51.19,-143.62 38.24,-214.09 -118.84,-35.98 -68.8,42.82 -226.27,-66.4l-21.66 -5.24c-29.8,42.23 -62.09,170.73 -66.98,236.06z"/>
   <path class="fil2" d="M1030.28 6011.69c-70.92,7.94 -145.5,59.33 -83.48,129.34 14.98,16.91 2.49,10.09 33.91,18.66 10.44,2.85 52.22,2.9 64.44,2.26 35.47,-1.89 77.06,-9.75 112.3,-14.93l17.76 -18.72c56.57,-72.15 46.89,-111.05 121.76,-133.6l14.63 133.62c53.24,-50.1 8.74,-36.2 44.35,-174.55 20.94,-81.36 3.15,-109.8 -21.59,-170.62 -112.14,55.63 -176.26,299.65 -304.09,228.55z"/>
   <path class="fil1" d="M1164.85 1087.89c-4.67,75.01 14.29,92.71 32.04,159.69 37.13,2.11 19.48,3.81 50.2,-9.68 17.43,-48.81 67.71,-98.46 109.47,-139.65 53.94,-53.2 86,-63.13 92.07,-147.57 -89.96,20.01 -89.7,47.08 -171.43,-11.95 -33.41,-24.13 -91.45,-78.83 -103.01,-119.95l-9.34 269.12z"/>
   <path class="fil2 str0" d="M1131.24 201.3c39.97,-15.44 138.24,69.49 166.76,102.4 61.57,-91.75 122.06,-89.87 232.04,-136.91l-53.35 -83.89c-59.15,-8.07 -325.75,-8.24 -330.81,72.65 -0.08,1.35 0.59,6.12 0.44,7.54 -3.3,30.65 11.04,-2.07 -15.08,38.2z"/>
   <path class="fil2" d="M1378.13 5985.54l-15.78 184.88c93.41,43.87 166.98,35.07 247.86,-8.29 20.87,-100.83 3.33,-180.48 -11.62,-279.28l-10.8 -70.45c-22.12,44.61 0.97,124.68 -15.45,181.97 -24.54,85.6 -44.74,34.19 -143.53,52.52 -2.62,-3.11 -5.65,-7.6 -7.33,-9.74l-43.35 -51.62z"/>
   <path class="fil3" d="M1164.85 1087.89l9.34 -269.12c11.56,41.11 69.6,95.81 103.01,119.95 81.73,59.04 81.47,31.96 171.43,11.95l8.38 -46.35c-93.44,19.84 -180.6,-29.29 -256.15,-80.21l-64.72 -53.19c10.63,69.27 15.27,106.41 11.55,177.24 -1.36,25.83 -6.15,58.95 -4.41,81.85 4.77,62.79 5.45,37.11 21.56,57.87z"/>
   <path class="fil4" d="M1242.07 480.08c29.64,79.12 55.76,55.93 136.77,46.67l-18.76 -65.69 -42.42 -15.41 -32.51 64.1 -43.07 -29.67z"/>
   <path class="fil5" d="M1496.41 739.03c-59.59,-44.72 -80.66,-12.54 -145.34,-2.04 23,46.57 64.88,102.02 136.3,49.97l-43.12 -4.22c-52.07,-14.53 -30.22,-5.15 -62.33,-39.22l114.49 -4.49z"/>
   <path class="fil4" d="M1510.7 502.82c9.61,24.86 -42.72,19.83 40.38,34.21l47.59 -46.33c-19.76,-31.56 -8.29,-17.74 -42.17,-30.63l-11.09 52.41c-40.48,-11.63 -12.39,1.41 -34.72,-9.65z"/>
  </g>
 </g>
</svg>
