<?xml version="1.0" encoding="UTF-8"?>
<!DOCTYPE svg PUBLIC "-//W3C//DTD SVG 1.1//EN" "http://www.w3.org/Graphics/SVG/1.1/DTD/svg11.dtd">
<!-- Creator: CorelDRAW -->
<svg xmlns="http://www.w3.org/2000/svg" xml:space="preserve" width="100%" height="100%" version="1.1" style="shape-rendering:geometricPrecision; text-rendering:geometricPrecision; image-rendering:optimizeQuality; fill-rule:evenodd; clip-rule:evenodd"
viewBox="0 0 2969.44 9507.09"
 xmlns:xlink="http://www.w3.org/1999/xlink"
 xmlns:xodm="http://www.corel.com/coreldraw/odm/2003">
 <defs>
  <style type="text/css">
   <![CDATA[
    .fil5 {fill:#342518}
    .fil0 {fill:#424242}
    .fil9 {fill:#556E7A}
    .fil2 {fill:#622B1E}
    .fil1 {fill:darkgray}
    .fil7 {fill:#D0AB8B}
    .fil10 {fill:#D28856}
    .fil11 {fill:#D7D7D8}
    .fil3 {fill:#FAAD72}
    .fil6 {fill:#FBEED2}
    .fil4 {fill:#FCD637}
    .fil8 {fill:red}
   ]]>
  </style>
 </defs>
 <g id="Layer_x0020_1">
  <metadata id="CorelCorpID_0Corel-Layer"/>
  <path class="fil0" d="M913.39 6215.25l46.04 -19.63c34.67,93.22 165.85,1164.24 189.78,1350.67 49.62,386.56 158.47,1060.08 126.69,1435.93 54.41,-11.31 66.61,0.1 138.76,15.68l131.74 44.59c-47.11,-609.43 151.36,-1509.33 100.78,-1776.43 -31.69,-167.33 -60.34,-220.46 -65.28,-415.42 -8.21,-323.8 24.87,-1030.86 92.29,-1305.16 3.26,3.09 7.08,7.61 8.86,10.16l37 88.3c76.53,349.87 208.37,1327.43 192.57,1590.33 -39.73,660.91 19.74,470.27 31.78,898.51 8.56,304.61 1.78,622.19 -50.5,916.06 82.28,-55.34 110.54,-40.04 220.55,16.66l202.98 -925.3c28.92,-163.07 53.96,-331.99 65.02,-494.51 16.05,-235.74 -9.44,-312.38 -37.5,-513.46 -41.11,-294.62 82.29,-1175.22 115.88,-1564.17 17.26,-199.86 -16.35,-347.8 -10.66,-518.89 -95.35,7.89 -256.88,78.57 -374.92,101.81 -133.14,26.22 -276.58,41.15 -415.24,37.32 -320.26,-8.85 -493.06,-80.88 -758.22,-171.63l-38.29 7.35 -8.24 660.33c42.38,103.85 -52.13,-85.24 22.78,30.91 34.91,54.13 35.17,145.2 40.42,218.28 6.96,96.96 -11.22,229.01 -5.07,281.69z"/>
  <path class="fil1" d="M981.48 3415.91c58.05,15.19 95.17,360.44 98.35,435.95 11.93,282.47 -73.87,252.63 -120.42,447.06 28.93,35.55 21.77,26.65 56.19,52.94 -8.33,61.42 -41.65,156.37 -53.61,220.18 -40.45,215.9 -33.48,149.3 -103.47,195.87 87.73,-11.47 19.06,-7.8 43.42,17.01l-54.66 198.78 54.49 32.97c265.17,90.74 437.96,162.78 758.22,171.63 138.67,3.83 282.1,-11.1 415.24,-37.32 118.04,-23.24 279.57,-93.93 374.92,-101.81l38.17 -38.12c2.02,-2.01 6.57,-6.3 9.71,-9.6 -66.61,-212.5 -138.74,-444.28 -207.48,-677.24l-595.41 62.15c-17.2,11.45 14.49,2.89 -34.16,18.89 -0.9,0.3 -49.39,9.72 -52.83,10.13 -60.4,7.33 -73.61,7.79 -131.23,-6.61l-12.76 -256.7c-46.36,-36.64 -71.49,-107.23 -98.04,-173.22 -48.86,-121.41 12.31,-111.93 61.82,-209.88 23.15,-75.72 -59.53,-776.07 -23.52,-766.35l19.78 -63.76 5.04 -34.61c322.46,-6.06 663.17,-39.19 997.4,-12.8l49.57 575.69 88.68 240.96 -103.35 30.26 -183.88 76.23c-26.12,78.02 -21.29,69.79 5.39,145.61 25.06,71.2 7.41,74.74 8.56,160.19l204.76 -15.58 55.68 -6.54c186.74,-57.69 453.15,-119.63 392.54,-364.27 -59.57,-240.45 -365,-1345.15 -572.09,-1428.46 -81.99,-32.98 -214.99,-72.85 -295.96,-96.39 -88.97,106.59 -94.37,204.52 -216.53,293.67 -76.33,-37.23 -127.72,-119.39 -199.88,-153.76 -78.22,34.07 -128.96,97.74 -199.87,137.39 -76.18,-38.12 -177.73,-201.12 -183.87,-307.57 -97.36,99.22 -60.98,50.83 -106.44,266.93l-188.5 970.09z"/>
  <path class="fil2" d="M788.48 2581.19c62.88,-61.48 5.22,-235.61 234.38,-285.96l-149.94 724.83 -294.17 1665.91c-44.65,267.39 -39.76,158.5 24.72,388.69l-135.23 -10.1 6.09 1136.15c60.11,33.32 150.89,34.99 221.53,48.09 141.87,26.31 105.59,17.97 217.52,-33.55 -6.15,-52.68 12.04,-184.73 5.07,-281.69 -5.25,-73.08 -5.51,-164.15 -40.42,-218.28 -74.91,-116.15 19.6,72.93 -22.78,-30.91l8.24 -660.33 38.29 -7.35 -54.49 -32.97 54.66 -198.78c-24.37,-24.81 44.31,-28.48 -43.42,-17.01 -49.06,109.28 35.17,35.44 -109.56,204.65 -39.59,46.29 -12.24,34.29 -74.24,50.99 -9.92,-122.75 58.59,-159.57 84.79,-255.98 24.56,-90.39 14.16,-232.87 57.84,-297.26 -16.76,-185.73 132.76,-822.26 164.12,-1054.4l188.5 -970.09c45.46,-216.1 9.08,-167.72 106.44,-266.93 12.04,-22.01 35.15,-46.57 56.33,-69.45 34.69,-37.49 33.07,-47.54 98.84,-49.17 54.57,-51.83 39.64,11.21 59.17,-77.79 31.48,-143.52 -32.2,-152.42 -114.73,-227.93 -158.22,-144.78 -159.05,-177.86 -267.43,-369.64l-87.53 9.72c-9.41,-26.23 22.35,-54.56 24.09,-59.68 -50.9,-37.35 -59.56,-72.98 -103.99,-109.42 -24.97,430.63 -303.78,437.52 -405.54,519.59 -202.22,163.11 -77.11,551.47 75.35,656.63 -13.82,-130.55 -10.13,-195.52 47,-283.29 -18.7,236.37 10.72,326.74 130.52,462.72z"/>
  <path class="fil3" d="M1456.04 1516.33c199.09,29.88 268.94,0.65 437.39,1.53 -29.76,7.02 -77.81,126.96 -200.01,142.47 -123.92,15.73 -202.87,-61.18 -237.38,-144zm-520.57 -334.85l24.32 -93.94c90.92,9.59 33.21,-4.24 83.93,60.46l-31.77 24.74c-2.39,2.33 -6.74,5.98 -8.8,8.23 -10.85,11.86 -2.28,-10.17 -19.88,32.31l-6.48 -59.57c-13.24,37.83 -12.45,7.48 -41.33,27.78zm1143.01 -63.48c-11.37,57.45 18.92,17.3 -38.23,50.42 -7.9,4.57 -55.45,14.43 -66.58,15.21 -69.09,4.85 -85.98,1.86 -111.7,-36.69l-56.32 1.25 32.15 -94.31c3.66,-64.34 -1.47,-18.05 23.89,-35.65 85.11,-60.44 161.61,-31.85 264.97,-13.04 -1.06,36.42 5.52,33.9 -10.15,71.84 -21.87,52.96 -34.03,38.3 -38.03,40.98zm-578.76 -65.67l30.28 100.2 -52.81 -8.49c-20.55,27.86 19.68,18.98 -53.26,37.16 -47.71,11.89 -112.57,-2.61 -149.83,-39.16 -40.78,-28.48 -19.07,6.05 -46.25,-56.41 -11.1,-25.53 -14.15,-47.37 -15.85,-79.17 104.05,-25.92 266.31,-51.58 287.72,45.88zm311.36 -214.93c48.23,-37.47 161.06,-50.51 233.09,-43.3 88.76,8.88 110.04,51.74 146.82,107.81 -67.43,-31.88 -111.43,-59.54 -210.21,-41.03 -86.17,16.15 -139.59,55.41 -169.69,-23.49zm-664.61 64.5c80.83,-175.69 339.89,-94.81 380.94,-64.5 -48.93,134.73 -129.51,-64.49 -380.94,64.5zm-225.66 73.99c4.36,69.87 -7.72,140.01 14.66,205.61l5.7 44.05c44.43,36.43 53.09,72.07 103.99,109.42 -1.74,5.13 -33.5,33.45 -24.09,59.68l87.53 -9.72c108.38,191.78 109.21,224.86 267.43,369.64 82.53,75.51 146.21,84.42 114.73,227.93 -19.52,89 -4.59,25.96 -59.17,77.79 46.15,9.13 37.68,-1.28 -15.01,81.9 -29.63,46.78 -6.83,-1.09 -25.41,44.37 198.93,206.23 318.5,162.04 545.76,26.23 -11.67,-53.99 -65.14,-112.94 -47.87,-153.14 -157.56,-169.95 80.46,-307.36 116.37,-343.98 109.35,-111.51 136.26,-184.97 224.59,-322.61 70,-2.63 16.53,20.72 83.18,-2.43 28.81,-83.02 17.5,4.99 -15.42,-47.11 -0.69,-1.09 -4.34,-4.57 -5.13,-7.5 40.52,-28.97 84.69,-79.93 106.26,-147.54 -59.08,5.45 -18.13,-40.8 -47.42,25.91 -20.07,-56.32 -48.93,-35.67 -50.86,-43.03 -0.56,-2.1 -4.02,-0.05 -5.81,-0.84 27.72,-71.85 7.22,-61.07 64.89,-85.11 46.3,42.77 13.43,31.41 49.92,73.3 13.91,-71.39 14.61,-84.56 -12.63,-137.98 -120.32,17.32 -20.67,61.93 -139.6,123.39 -4.06,-448.69 -76.95,-285.23 -253,-534.2 -36.44,-51.53 -52.5,-127.96 -94.4,-169.03 -502.55,378.86 -798.47,70.44 -830.19,699.88l-135.52 -138.72c-7.48,-7.6 -20.65,-22.89 -23.49,-26.17z"/>
  <path class="fil2" d="M920.81 975.87c2.85,3.29 16.02,18.57 23.49,26.17l135.52 138.72c31.72,-629.44 327.64,-321.02 830.19,-699.88 41.9,41.07 57.96,117.5 94.4,169.03 176.06,248.97 248.94,85.51 253,534.2 118.93,-61.46 19.28,-106.07 139.6,-123.39 27.24,53.42 26.55,66.59 12.63,137.98l-10.72 29.76c-21.57,67.6 -65.74,118.56 -106.26,147.54 0.79,2.92 4.44,6.41 5.13,7.5 32.92,52.1 44.24,-35.91 15.42,47.11 -66.65,23.15 -13.18,-0.2 -83.18,2.43 -88.34,137.65 -115.24,211.11 -224.59,322.61 -35.91,36.62 -273.93,174.03 -116.37,343.98 83.03,4.35 80.87,36.91 137.54,78.32 209.58,-99.22 432.58,-555.32 481.35,-837.19 56.95,-329.2 3.26,-923.33 -208.48,-1069.29 -59.16,-40.78 -135.16,-74.76 -226.5,-88.07 -179.39,-26.13 -115.78,-19.65 -256.31,-79.23 -512.73,-217.39 -928.55,150.72 -932.03,606.49 -0.83,108.69 42.39,204.57 36.17,305.21z"/>
  <path class="fil4" d="M1404.44 3002.62c-36.01,-9.72 46.67,690.63 23.52,766.35 38.13,-27.81 118.45,-53.09 173.46,-8.72 52.7,42.5 56.65,89.67 158.7,106.91 189.19,31.96 316.21,20.37 469.63,-29.62l47.94 -22.95 183.88 -76.23c-4.35,-96.98 -23.72,-180.89 -10.47,-275.59 -12.92,-78.14 -22.38,-530.44 -58.14,-526.7 -82.65,33.54 -835.21,62.6 -988.52,66.54z"/>
  <path class="fil1" d="M800.06 9242.56c-228,21.1 -610.65,54.33 -800.06,116.79 497.6,87.47 952.81,146.7 1493.6,147.74 279.83,0.54 1256.91,-58.06 1475.84,-155.22l-613.33 -90.9c-8.31,127.9 -155.91,123.07 -275.93,115.85 -156.39,-9.41 -223.2,-26 -218.11,-180.33 -50.76,29.83 -55.59,21.14 -134.7,19.23 -44.58,-1.08 -89.17,-2.39 -133.84,-3.26l-26.55 -123.77c-1.05,-8.15 -4.05,-9.74 -6.74,-14.26 10.3,132.66 76.16,217.15 -285.19,287.7 -152.6,29.8 -368.93,36.17 -474.2,-47.09l-0.8 -72.49z"/>
  <path class="fil3" d="M1427.96 3768.97c-49.5,97.95 -110.68,88.46 -61.82,209.88 26.56,65.99 51.69,136.58 98.04,173.22l16.39 0c61.76,-81.02 653.44,-21.71 780.87,-11.2 0.97,-56.41 11.78,-108.46 0.59,-164.66 -11.53,-57.93 -31.13,-72.99 -32.29,-138.66 -153.42,49.99 -280.44,61.57 -469.63,29.62 -102.04,-17.24 -105.99,-64.41 -158.7,-106.91 -55.01,-44.37 -135.33,-19.09 -173.46,8.72z"/>
  <path class="fil4" d="M1480.57 4152.07l22.94 241.41 191.65 -7.12 595.41 -62.15 43.63 -3.82c56.9,-44.17 85.31,-33.77 165.82,-36.3l-16.2 -145c-1.24,-1.58 42.22,-7.81 -38.5,-11.96 -21.42,-1.1 -29.7,1.19 -49.98,3.17 -55.48,5.41 -74.82,10.61 -133.87,10.56 -127.43,-10.5 -719.11,-69.81 -780.87,11.2z"/>
  <path class="fil5" d="M800.06 9242.56l0.8 72.49c105.27,83.26 321.6,76.89 474.2,47.09 361.35,-70.56 295.49,-155.04 285.19,-287.7l-13.85 -31.96 -131.74 -44.59c-72.15,-15.58 -84.35,-26.99 -138.76,-15.68 -36.96,6.12 -70,48.65 -106.43,75.63 -35.2,26.07 -67.4,45.76 -113.04,69.86 -97.53,51.5 -172.18,55.07 -256.37,114.85z"/>
  <path class="fil5" d="M1893.89 9048.84l-31.81 147.65c-5.09,154.33 61.73,170.92 218.11,180.33 120.02,7.22 267.61,12.05 275.93,-115.85 -29.89,-62.5 -49.16,-63.02 -122.07,-103.04 -67.59,-37.09 -96.61,-79.72 -119.6,-92.43 -110.01,-56.69 -138.27,-72 -220.55,-16.66z"/>
  <path class="fil3" d="M817.37 4470.31c-43.68,64.39 -33.29,206.87 -57.84,297.26 -26.19,96.41 -94.7,133.24 -84.79,255.98 62,-16.7 34.65,-4.7 74.24,-50.99 144.73,-169.21 60.5,-95.37 109.56,-204.65 70,-46.57 63.02,20.02 103.47,-195.87 11.96,-63.81 45.28,-158.76 53.61,-220.18 -34.43,-26.29 -27.26,-17.39 -56.19,-52.94 -48.05,57.03 -84.45,138.1 -141.39,174.31l-0.67 -2.92z"/>
  <path class="fil1" d="M788.48 2581.19c29.3,96.1 91.48,331.65 84.44,438.87l149.94 -724.83c-229.16,50.35 -171.5,224.48 -234.38,285.96z"/>
  <path class="fil3" d="M468.24 5064.55l135.23 10.1c-64.48,-230.19 -69.37,-121.3 -24.72,-388.69l-196.48 81.61c-17.91,99.47 -3.92,177.2 25.3,269.91l60.67 27.06z"/>
  <path class="fil6" d="M1424.22 2938.86l-19.78 63.76c153.31,-3.94 905.86,-33 988.52,-66.54 -38.33,-33.44 29.01,-10.67 -65.36,-30.37l-903.37 33.15z"/>
  <path class="fil7" d="M1424.22 2938.86l903.37 -33.15c94.37,19.7 27.03,-3.07 65.36,30.37 35.76,-3.74 45.22,448.56 58.14,526.7l25.14 4.37 -49.57 -575.69c-334.23,-26.39 -674.94,6.74 -997.4,12.8l-5.04 34.61z"/>
  <path class="fil8" d="M1456.04 1516.33c34.51,82.82 113.46,159.73 237.38,144 122.2,-15.51 170.26,-135.45 200.01,-142.47 -168.45,-0.88 -238.3,28.35 -437.39,-1.53z"/>
  <path class="fil9" d="M1837.8 1053.87c50.8,82.41 20.71,-1.1 24.17,93.06 25.72,38.55 42.61,41.54 111.7,36.69 11.13,-0.78 58.68,-10.63 66.58,-15.21 57.15,-33.12 26.87,7.03 38.23,-50.42 -44.85,-10.08 -19.68,-0.24 -32.93,-46.22 -4.56,-15.84 -6.43,-37.84 -12.16,-54.75 -43.07,-1.85 -64.77,-3.75 -108.16,1.26 -59.07,6.81 -39.78,24.98 -63.54,-0.06 -25.36,17.6 -20.23,-28.69 -23.89,35.65z"/>
  <path class="fil9" d="M1273.49 1125.13l0.61 16.91c37.26,36.55 102.13,51.04 149.83,39.16 72.94,-18.18 32.72,-9.3 53.26,-37.16l18.81 -98.28c-52.15,-20.81 -10.96,-20.79 -84.19,-30.91 -36.37,-5.03 -69.05,-0.91 -104.69,1.86 -27.28,108.02 -13.35,6.88 15.24,85.51 -42.6,34.42 -6.12,5.78 -48.88,22.92z"/>
  <path class="fil2" d="M1811.08 837.39c30.1,78.89 83.52,39.64 169.69,23.49 98.79,-18.52 142.79,9.15 210.21,41.03 -36.78,-56.08 -58.06,-98.94 -146.82,-107.81 -72.03,-7.21 -184.86,5.83 -233.09,43.3z"/>
  <path class="fil2" d="M1146.47 901.89c251.43,-128.98 332.01,70.24 380.94,-64.5 -41.06,-30.32 -300.11,-111.19 -380.94,64.5z"/>
  <path class="fil7" d="M2261.44 4140.86c59.06,0.05 78.4,-5.15 133.87,-10.56 20.28,-1.98 28.56,-4.27 49.98,-3.17 80.72,4.15 37.26,10.37 38.5,11.96l12.59 -34.28 -204.76 15.58c-1.15,-85.45 16.5,-88.98 -8.56,-160.19 -26.68,-75.82 -31.51,-67.59 -5.39,-145.61l-47.94 22.95c1.16,65.67 20.76,80.73 32.29,138.66 11.19,56.2 0.37,108.25 -0.59,164.66z"/>
  <path class="fil2" d="M1274.09 1142.03l-0.61 -16.91c-29.81,-47.06 -30.46,-39.17 -29.55,-101.59l63.18 -6.83c35.64,-2.77 68.32,-6.89 104.69,-1.86 73.23,10.13 32.04,10.11 84.19,30.91l3.71 6.57c-21.41,-97.46 -183.67,-71.8 -287.72,-45.88 1.7,31.81 4.74,53.64 15.85,79.17 27.17,62.46 5.47,27.94 46.25,56.41z"/>
  <path class="fil7" d="M1695.16 4386.35l-191.65 7.12 -22.94 -241.41 -16.39 0 12.76 256.7c57.62,14.4 70.83,13.94 131.23,6.61 3.44,-0.42 51.93,-9.84 52.83,-10.13 48.65,-16 16.96,-7.44 34.16,-18.89z"/>
  <path class="fil0" d="M1861.69 1018.22c23.76,25.04 4.47,6.87 63.54,0.06 43.39,-5 65.09,-3.11 108.16,-1.26l62.27 4.47 -17.18 96.5c4,-2.68 16.16,11.98 38.03,-40.98 15.67,-37.94 9.09,-35.42 10.15,-71.84 -103.36,-18.81 -179.86,-47.4 -264.97,13.04z"/>
  <path class="fil6" d="M2483.81 4139.09l16.2 145c-80.5,2.53 -108.92,-7.87 -165.82,36.3 60.77,-8.24 141.15,-11.65 175.52,-35.07 13.97,-110.55 -0.55,-88.01 42.36,-187.05l-55.68 6.54 -12.59 34.28z"/>
  <path class="fil10" d="M2398.93 1188.47l10.72 -29.76c-36.5,-41.9 -3.62,-30.54 -49.92,-73.3 -57.67,24.04 -37.16,13.26 -64.89,85.11 1.79,0.8 5.26,-1.26 5.81,0.84 1.93,7.36 30.78,-13.29 50.86,43.03 29.28,-66.71 -11.67,-20.46 47.42,-25.91z"/>
  <path class="fil10" d="M935.47 1181.48c28.88,-20.3 28.09,10.06 41.33,-27.78l6.48 59.57c17.6,-42.48 9.02,-20.45 19.88,-32.31 2.06,-2.25 6.41,-5.9 8.8,-8.23l31.77 -24.74c-50.72,-64.7 6.98,-50.87 -83.93,-60.46l-24.32 93.94z"/>
  <path class="fil11" d="M1273.49 1125.13c42.76,-17.14 6.28,11.5 48.88,-22.92 -28.6,-78.63 -42.52,22.5 -15.24,-85.51l-63.18 6.83c-0.92,62.43 -0.26,54.54 29.55,101.59z"/>
  <path class="fil11" d="M2078.48 1118l17.18 -96.5 -62.27 -4.47c5.72,16.91 7.59,38.91 12.16,54.75 13.25,45.98 -11.92,36.13 32.93,46.22z"/>
  <path class="fil6" d="M1861.96 1146.94c-3.46,-94.17 26.63,-10.66 -24.17,-93.06l-32.15 94.31 56.32 -1.25z"/>
  <polygon class="fil6" points="1477.19,1144.03 1530,1152.52 1499.72,1052.32 1496.01,1045.75 "/>
 </g>
</svg>
