<?xml version="1.0" encoding="UTF-8"?>
<!DOCTYPE svg PUBLIC "-//W3C//DTD SVG 1.1//EN" "http://www.w3.org/Graphics/SVG/1.1/DTD/svg11.dtd">
<!-- Creator: CorelDRAW -->
<svg xmlns="http://www.w3.org/2000/svg" xml:space="preserve" width="100%" height="100%" version="1.1" style="shape-rendering:geometricPrecision; text-rendering:geometricPrecision; image-rendering:optimizeQuality; fill-rule:evenodd; clip-rule:evenodd"
viewBox="0 0 3070.5 6626.48"
 xmlns:xlink="http://www.w3.org/1999/xlink"
 xmlns:xodm="http://www.corel.com/coreldraw/odm/2003">
 <defs>
  <style type="text/css">
   <![CDATA[
    .str0 {stroke:#563236;stroke-width:3;stroke-miterlimit:2.61313}
    .fil6 {fill:#262737}
    .fil13 {fill:#556E99}
    .fil0 {fill:#563236}
    .fil10 {fill:#9397A6}
    .fil14 {fill:#95363A}
    .fil4 {fill:#97CDFB}
    .fil8 {fill:#987779}
    .fil11 {fill:#BFA734}
    .fil5 {fill:#C4E5FC}
    .fil12 {fill:#D09090}
    .fil16 {fill:#D4B7B0}
    .fil3 {fill:#DD3D3C}
    .fil1 {fill:#E5B587}
    .fil9 {fill:#F07374}
    .fil7 {fill:#F8D9CC}
    .fil2 {fill:#F8E8A6}
    .fil15 {fill:white}
   ]]>
  </style>
 </defs>
 <g id="Layer_x0020_1">
  <metadata id="CorelCorpID_0Corel-Layer"/>
  <g id="_105553508218720">
   <path class="fil0" d="M1351.16 3167.15c-11.05,48.8 -77.8,124.74 -129.47,114.32 -17.65,-46.89 9.71,-60.86 23.54,-96.37 -44.62,6.77 -74.21,33.11 -50.39,91.3 19.4,47.39 58.2,21.37 107.14,41.37 39.23,16.03 38.12,68.89 -27.02,74.53 -148.79,12.89 -204.98,-161.88 -118.12,-248.14 61.26,-60.84 160.2,-46.32 194.31,22.99zm-78 -816.46c-64.26,6.6 -61,-42.62 -0.04,-36.14l0.04 36.14zm-673.01 428.21c6.43,-146.03 42.78,-362.14 65.1,-510.2 9.02,-59.8 105.13,-418.11 126.96,-457.49 22.83,87.04 43.47,179.77 63.99,269.55 36.1,158.01 28,125.19 -43.02,250.13l-114.06 219.89c-30.51,59.72 -78.89,163.17 -98.96,228.12zm634.25 -615.43c-9.85,-41.29 1.6,-11.34 7.66,-25.05l23.04 3.17c3.46,6.39 20.73,-15.78 5.55,28.6 -3.92,11.44 -14.83,11.02 -17.63,12.41 -20.14,-11.07 -12.6,6.07 -18.61,-19.12zm39.26 -176.13c3.69,38.97 -4.47,16.29 -20.65,26.66 -19.54,-12.2 -20.91,13.58 -19.78,-26.09 0.71,-24.55 37.71,-29.18 40.42,-0.57zm-511.33 -793.84c-39.43,56.54 -138.5,24.52 -162.27,120.31l-162.02 683.83c-70.57,300.87 -107.63,691.22 -113.67,1006.72l-1.76 102.65c64.03,7.5 168.75,18.94 230.84,7.06 -32.47,-80.77 14.41,-16.9 -44.75,-69.18 -70.93,-62.67 -41.41,-178.79 39.07,-205.95 141.12,-47.61 221.44,99.89 141.41,206.3 -18.06,-28.38 23.15,-51.77 4.79,-111.97 -40.3,-132.1 -247.91,-49.86 -176.67,70.35 18.09,30.53 21.19,24.31 48.63,20.6l1.77 -16.62c-84.3,-43 -3.55,-155.95 72.39,-104.72 22.46,15.16 44.59,51.54 35.63,93.57 -7.23,33.93 -40.39,54.31 -70.06,76.73 4.26,31.89 12.47,57.79 5.13,90.55l-8.18 34 36.16 54.21c55.88,-8.66 26.68,5 39.15,-20.5 28.81,-45.93 29.04,-105.77 89.02,-121.99 48.33,-13.07 52.8,2.63 86.28,10.06 33.37,7.4 165.62,-53.98 193.03,74.97 8.7,40.95 10.22,151.75 -2.07,188.48 -54.77,25.25 -67.73,-1.3 -66.89,-58.29 1,-68.07 19.38,-116.35 -37.52,-143.96 -18.19,11.57 -29.58,-6.88 -29.22,90.42 0.1,26.31 4.69,85.28 -13.88,104.05 -57.14,41.72 -61.06,-32.81 -61.47,-82.41 -0.65,-77.26 17.54,-113.33 -65.15,-104.47l-13.37 42.67c55.91,0.52 46.06,83.2 52.88,141.78 6.35,54.44 57.21,414.05 49.97,441.54 -12.97,49.22 -21.74,25.61 -61.22,38.88 -9.45,62.64 -54.31,36.62 -114.22,56.13 -16.09,114.74 58.31,557.25 68.52,711.65l36.26 16.96c119.64,35.7 237.72,60.73 380.63,56.6 166.39,-4.8 233.24,-37.12 373.56,-66.36l71.36 -34.1c20.46,-346.56 36.7,-693.22 58.94,-1040.96 15.54,-242.92 67.48,-813.4 -4.06,-1015.19 -76.79,-9.59 -153.49,29.19 -257.38,3.48 -149.95,-37.11 -38.5,-55.46 -195.1,6.56 -105.65,41.84 -332.14,70.83 -424.71,7.18 -63.21,-43.48 -10.85,2.22 -39.41,-45.72 124.82,40.65 128.35,85.67 300.83,59.88 91.9,-13.74 187.13,-50.82 254.94,-91.26l-3.95 -652.53c-24.28,-15.15 -7.98,-4.07 -17.91,-22.87l-146.96 -116.45c43.74,33.63 76.87,75.02 127.25,94.98 -21.22,-60.86 -155.48,-252.22 -198.84,-318.99 -51.16,-78.79 -172.61,-245.18 -198.59,-316.34l-107.13 47.66z"/>
   <path class="fil1" d="M788.86 4637.91c-2.88,53.98 -23.98,120.81 -31.35,185.92 -62.64,552.81 208.35,1112.13 190.9,1280.6 32.5,-0.25 18.82,70.65 25.34,153.56 5.35,68.04 26.34,255.4 103.64,272.57 58.45,12.99 99.04,-34.3 133.86,-49.83 33.18,19.33 54.96,40.56 98.21,53.67l-0.62 -350c-12.29,13.76 -6.32,-1.19 -13.44,23.14 -5.94,20.32 -3.59,7.12 -4.39,28.57l8.33 202.31 -107.38 -6.85c-18.92,-37.01 -111.29,-302.65 -115.89,-341.38 -14.51,-122.13 -1.46,-327.98 -1.4,-458.92 0.14,-305.62 14.24,-614.37 10.94,-918.87l141.72 -6.85c-40.34,282.24 -44.4,465.05 17.64,743.96 25.56,114.9 162.12,596.11 150.49,664.04 35.84,-9.95 14.65,-5.26 26,132.85 8.56,104.07 30,379.31 187.82,273.6 32.36,-21.68 12.98,-2.15 19.67,-19.9 8.1,-24.11 12.43,-38.56 5.57,-70.8 -150.06,-369.14 -116.11,-452.17 -111.04,-860.66 2.33,-188.25 1.56,-798.23 19.57,-940.48 -140.32,29.24 -207.17,61.56 -373.56,66.36 -142.9,4.13 -260.98,-20.9 -380.63,-56.6z"/>
   <path class="fil0" d="M1332.13 1747.2c11.85,14.07 -8.84,57.63 34.85,-10.39l180.52 -323.78c-25.93,-23.77 -60.5,-31.81 -99.89,-44.6l23.59 -39.44c-21.58,67.09 -2.7,26.44 90.73,77.1l-238.28 415.3 2.92 656.65c99.27,87.94 216.98,39.93 334.65,37.61 -19.11,-95.52 -79.87,-214.01 -92.59,-300.65 -13.78,-93.9 8.74,-279.63 14.95,-379.29 59.58,-46.34 73.04,-42.85 95.45,-132.13 128.43,76.79 304.39,410.15 422.34,349.65 70.28,-36.05 284.3,-371.92 328.12,-445.41 32.11,-53.87 67.05,-108.51 97.91,-163.37 16.57,-29.46 29.86,-53.69 45.35,-79.65 43.7,-73.25 24.33,-63.22 15.74,-76.87 -36.86,-13.39 -46.81,-23.31 -81.37,-42.93 -32.18,-18.27 -41.87,-20 -62.19,-46.66 -41.66,-0.94 -34.8,1.87 -60.99,40.24l-310.88 443.01c-0.82,-1.74 -3.69,3.85 -5.61,5.7l-357.79 -438.45c-67.74,-87.81 -115.73,-57.26 -153.88,-95.43 -40.63,-8.66 -77.05,-30.26 -108.92,-27.15l-114.7 620.94z"/>
   <path class="fil2" d="M762.32 1193.49l107.13 -47.66c29.08,-26.9 59.2,-51.94 124.81,-47.68 7.53,-75.13 72.65,-300.69 8.65,-426.67 -55.69,-9.73 -121.42,-5.28 -133.38,-72.98 -2.43,-13.75 -2.9,-16.73 -0.15,-30.19 18.17,-88.86 76.41,-8.74 112.14,-0.71 65.66,-67.17 127.1,-278.79 144.2,-388.25 182.2,-29.13 384.4,53.31 380.46,174.4l-4.26 -5.67c20.26,26.48 19.89,36.82 21.13,83.48 4.5,169.75 -42.55,477.35 -257.12,430.06l-2.76 20.33c49.38,87.24 19.19,440.96 24.56,569.84l43.96 -209.82c4.03,-58.15 2.07,-9.41 -34.69,-58.65l24.75 -96.46c12.8,-22.49 -2.88,-10.1 20.01,-19.25 32,18.17 15.34,13.73 49.43,28.8 14.76,6.52 6.59,1.14 24.02,9.99 2.09,1.06 27.14,17.12 31.59,19.87 31.87,-3.11 68.29,18.48 108.92,27.15l-12.94 -19.08c-4.61,-6.83 -10.78,-15.98 -16.2,-24.09 53.01,-23.19 60.31,16.89 153.34,-13.66 -10.2,-22.78 -22.03,-26.49 -34.65,-40.25 13.72,-95.64 188.3,-198.18 11.91,-330.09 -179.61,-134.31 50.59,-230.77 -3.26,-524.54 -8.34,-45.48 -33.71,-49.98 -58.48,-81.08 -0.57,-0.72 -9.83,-14.26 -12.84,-18.33 -1.34,-1.81 -2.95,-4.58 -4.33,-6.33 -32.1,-40.83 20.72,4.58 -26.13,-24.17 -81,-49.69 -331.14,-75.98 -445.82,-71.26 -138.61,5.7 -82.68,46.87 -163.7,79.13 -268.96,107.1 -177.23,362.86 -159.8,499.05 35.13,274.59 -270.9,351.69 -169.8,513.33 37,59.15 91.02,74.43 160.71,88.33 -16.73,-13.04 0.59,-8.21 -11.43,13.11z"/>
   <path class="fil1" d="M1033.74 1016.22c11.82,33.38 31.46,68.23 45.55,98.98 13.57,29.62 38.83,73.29 45.51,107.72l-121.91 -61.01 30.85 -145.69zm198.43 -344.46c47.2,1.05 67.15,13.87 103.14,11.08 44.55,-3.44 -2.92,-4.81 64.7,-18.54 24.65,-5.01 -9.71,-0.82 26.4,-2.09l-34.21 75.28c-16.2,21.44 -111.74,83.67 -160.04,-65.73zm186.01 -146.22c13.84,-10.4 -0.51,-13.34 42.88,-17.26 19.88,-1.8 25.75,1.54 47.47,4.24l-6.37 54.06c-16.94,1.82 -33.72,5.09 -51.01,3.12 -48.24,-5.5 -17.25,-3.08 -34.19,-12.83l1.22 -31.33zm-207.71 -2.7l12.05 65.89c-17.58,7.28 -43.41,15.84 -72.33,9.45 -34.66,-7.66 -33.52,-14.08 -34.12,-53.41 22.76,-9.57 19.2,-4.4 42.81,-10.66 2.93,-0.78 6.28,-1.32 8.86,-2.08 2.43,-0.72 6.11,-2.3 8.03,-2.94 1.82,-0.6 5.92,-0.57 7.2,-3.76 1.24,-3.11 4.67,-2.53 6.78,-4.14 -28.63,-29.72 -35.05,-54.71 -11.11,-89.61 47.55,-17.48 54.11,27.55 50.81,74.6l-18.96 16.67zm251.19 -27.87c-69.96,-2.49 -66.64,-78.43 -38.12,-93.8 56.23,-30.3 51.8,58.76 38.12,93.8zm-261.06 -130.34c43.34,-1.99 47.14,-5.26 63.21,30.04l-134.99 11.69c20.72,-33.98 24.19,-39.54 71.78,-41.73zm-206.33 733.53l-11.76 74.35c40.32,30.66 86.35,55.81 135.19,61.48 -23.72,111.67 -27.89,46.04 87.05,225.46 68.1,106.3 63.49,61.49 77.92,183.69 3.22,27.26 27.83,154.28 3.94,159.5 9.93,18.8 -6.37,7.72 17.91,22.87l19.13 -4.11 238.28 -415.3c-93.43,-50.66 -112.31,-10 -90.73,-77.1l-23.59 39.44c39.39,12.79 73.97,20.83 99.89,44.6l-180.52 323.78c-43.69,68.02 -23,24.46 -34.85,10.39 -7.43,7.88 -34.97,-14.85 -9.02,20.89 -36,-50.35 -30.56,-248.95 -16.41,-312.84 80.48,-363.63 25.11,-222.49 14.44,-282.37l20.65 -105.27c-22.89,9.15 -7.22,-3.24 -20.01,19.25l-24.75 96.46c36.76,49.24 38.72,0.5 34.69,58.65l-43.96 209.82c-5.37,-128.87 24.82,-482.6 -24.56,-569.84l0.89 55.58c-127.43,-10.6 -260.44,-129.28 -217.2,-205.1 50.75,65.94 120.57,101.07 219.06,129.19 214.57,47.29 261.63,-260.31 257.12,-430.06 -1.24,-46.66 -0.87,-57 -21.13,-83.48 -12.76,36.5 -0.5,14.8 -59.44,24.48 -55.77,9.17 -34.32,10.43 -60.66,-3.65 39.07,-44.65 76.43,-29.24 124.35,-15.16 3.93,-121.09 -198.26,-203.53 -380.46,-174.4 -17.1,109.46 -78.54,321.08 -144.2,388.25 -35.73,-8.04 -93.97,-88.15 -112.14,0.71 -2.75,13.46 -2.28,16.44 0.15,30.19 11.96,67.7 77.69,63.25 133.38,72.98 64,125.98 -1.12,351.54 -8.65,426.67z"/>
   <path class="fil3" d="M433.76 3449.67l166.39 -22.11c7.34,80.5 36.71,217.26 25.96,282.54 -33.05,9.93 -125.08,21.02 -158.7,13.43l-33.66 -273.85zm270.71 -208.47c-14.07,-12.04 -2.78,-6.02 -26.55,-9.76 -12.48,25.51 16.72,11.85 -39.15,20.5 18.92,33.86 14.85,9.36 7.36,48 -45.59,4.68 -27.67,-0.63 -55.25,-34.37 -0.39,55.02 11.66,21.33 -16.54,42.83 -26.13,-11.95 -6.35,-4.36 -30.94,-27.42 -0.94,-0.88 -4.54,-1.02 -5.2,-3.75 -0.65,-2.7 -3.62,-2.24 -5.63,-2.86 4.75,40.54 18.55,23.37 -20.88,40.96 -18.73,-25.62 -12.63,0.24 -13.69,-44.8 -14.25,28.1 -21.76,48.67 -35.69,78.04 -5.78,12.19 -11.16,26.63 -19.27,42.54l-27.86 39.19 -6.13 -106.63c-86.74,10.47 -47.61,75.61 -51.64,208.92l-12.34 2.16c-50.52,10.94 -23.27,13.84 -48.72,9.5 -23.84,-4.07 -39.1,-27.83 -46.32,-51.39l-41.14 -183.64c-66.89,12.2 -20.84,13.44 -25.09,19.89 -13.31,20.19 13.64,13.47 -16.68,24.3l-13.63 -43.18 -21.23 0.58 1.98 50.71c-47.62,4.19 -46.28,5.63 -81.98,18.26 -1.58,-2.61 -3.64,-9.67 -4.29,-8.09 -6.98,17.07 -2.24,-8.39 -16.59,-40.42l-31.39 9.93c-0.21,63.29 58.37,554.95 79.79,580.98 20.54,18.44 46.81,14.68 87.36,10.02l252.98 -31.04c29.06,-14.86 75.33,-15.31 112.02,-14.55l266.16 -33.44c39.48,-13.27 48.25,10.34 61.22,-38.88 7.24,-27.48 -43.62,-387.1 -49.97,-441.54 -6.83,-58.58 3.03,-141.26 -52.88,-141.78l-22.74 -5.6c-12.28,27.45 12.08,9.42 -29.47,15.83z"/>
   <path class="fil4" d="M2830.17 856.97l19.49 -1.37c82.77,-210.62 16.47,-126.82 45.11,-211 10.13,-29.78 13.97,-16.11 21.12,-41.36 0.04,-0.16 16.46,-123.05 70.36,-125.71 40.17,12.44 42.42,36.65 66.16,67.44 5.99,-78.69 -4.76,-99.15 -16.83,-168.96 -15.35,-61.14 -55.37,-102.44 -97.43,-140.96 -57.85,-7.52 -43.28,-2.08 -94.63,10.46 -48.33,11.81 -24.85,0.21 -76.92,-1.21 -55.83,-1.52 -99.81,28.17 -118.87,72.4l23.81 22.62c0.67,-1.44 2.59,3.33 3.92,4.98 57.62,-25.31 9.91,13.43 39.35,-45.93l44.93 7.89c-72.53,72.45 -49.36,23.91 -108.8,61.21 -41.17,25.83 -24.3,37.18 -30.87,51.22 -10.8,23.06 -23.54,15.21 -33.5,47.96 70.07,-1.53 35.5,-14.88 86.44,-45.14 18.33,-3.74 27.14,17.28 83.99,10.93 16.06,-1.8 31.96,-7.06 67.01,9.57 -10.96,34.63 -78.87,49.39 -114.02,38.43 -25.78,-8.04 4.94,3.11 -22.1,-11.39 -45.7,-24.5 -84.4,21.79 -99.64,55.85 -19.87,44.41 -15.49,67.3 -2.72,110.99 -47.13,-2.71 -6.39,-11.68 -58.71,-13.73 -46.69,-1.82 -25.27,7.12 -73.07,14.57 -25.04,-20.26 -35.1,-20.62 -45.63,-54.84 -41.39,12.61 -57.79,33.28 -52.3,-35.47 75.65,-32.46 60.71,5.89 95.44,-64.01 37.6,-75.66 66.42,-41.09 36.38,-88.47l50.56 -4.14c-17.07,-38.93 -39.92,-49.95 -86.88,-50.22l16.7 -20.55c18.52,-42.96 -35.54,-41.07 -41.31,-39.57 -22.76,5.93 -10.38,52.97 -9.62,89.46 -2.71,1.94 -6.75,2.96 -9.19,3.89l-18.05 6.81c-40.83,14.94 19.43,-10.08 -16.71,5.27 -69.18,29.39 -36.7,178.43 -34.3,224.24 23.88,12.31 45.59,12.24 69.98,23.26 47.31,21.38 4.04,21.31 62.27,22.45 -14.47,145.85 23.45,60.4 69.17,171.94 13.1,31.95 22.73,43.84 90.98,41.26 14.95,-20.42 11.14,-21.18 16.78,-32.53 16.18,-32.57 -14.25,20.62 6.82,-14.28 35.07,-58.09 27.78,6.38 42.54,-75.19 17.87,-98.81 -33.05,-52.19 -82,-84.76 17.51,-6.55 71.92,-19.38 99.39,-16.74 72.24,126.88 37.81,189.5 115.4,212.44z"/>
   <path class="fil5" d="M2715.98 895.15c31.55,-21.06 46.43,-8.17 84.01,-21.63l30.19 -16.55c-77.59,-22.95 -43.16,-85.57 -115.4,-212.44 -27.46,-2.64 -81.88,10.19 -99.39,16.74 48.94,32.57 99.87,-14.05 82,84.76 -14.75,81.57 -7.46,17.1 -42.54,75.19 -21.07,34.91 9.35,-18.28 -6.82,14.28 -5.64,11.35 -1.83,12.11 -16.78,32.53 -68.25,2.58 -77.88,-9.31 -90.98,-41.26 -45.72,-111.54 -83.65,-26.09 -69.17,-171.94 -58.23,-1.15 -14.96,-1.07 -62.27,-22.45 -24.39,-11.02 -46.11,-10.95 -69.98,-23.26 -2.4,-45.81 -34.88,-194.85 34.3,-224.24 36.13,-15.35 -24.12,9.67 16.71,-5.27l18.05 -6.81c2.44,-0.93 6.48,-1.95 9.19,-3.89 -0.76,-36.5 -13.14,-83.54 9.62,-89.46 5.77,-1.5 59.83,-3.38 41.31,39.57l-16.7 20.55c46.96,0.27 69.81,11.3 86.88,50.22l-50.56 4.14c30.04,47.38 1.22,12.81 -36.38,88.47 -34.74,69.9 -19.79,31.54 -95.44,64.01 -5.49,68.75 10.91,48.08 52.3,35.47 10.54,34.22 20.6,34.57 45.63,54.84 47.8,-7.45 26.39,-16.39 73.07,-14.57 52.33,2.05 11.59,11.02 58.71,13.73 -12.77,-43.69 -17.15,-66.58 2.72,-110.99 15.24,-34.06 53.94,-80.35 99.64,-55.85 27.04,14.5 -3.68,3.34 22.1,11.39 35.14,10.96 103.06,-3.79 114.02,-38.43 -35.04,-16.63 -50.95,-11.37 -67.01,-9.57 -56.85,6.35 -65.66,-14.66 -83.99,-10.93 -50.94,30.26 -16.36,43.61 -86.44,45.14 9.96,-32.74 22.7,-24.89 33.5,-47.96 6.57,-14.04 -10.3,-25.38 30.87,-51.22 59.43,-37.3 36.27,11.24 108.8,-61.21l-44.93 -7.89c-29.45,59.35 18.26,20.62 -39.35,45.93 -1.32,-1.65 -3.25,-6.42 -3.92,-4.98l-23.81 -22.62c19.06,-44.23 63.04,-73.93 118.87,-72.4 52.07,1.43 28.59,13.02 76.92,1.21 51.35,-12.54 36.78,-17.98 94.63,-10.46l-44.06 -36.2c-13.51,-7.82 -36.39,-19.47 -48.38,-24.36 -45.22,-18.46 -71.63,-22.61 -120.55,-31.65 0,-39.46 1.71,-49.55 -18.71,-71.73l-10.14 59.15c-105.85,-3.67 -188.31,13.73 -274.24,102.46 -235.19,242.83 -94.71,561.52 117.18,646.33 21.39,8.56 58.76,22.07 82.14,25.56 88.3,13.19 38.37,-12.11 94.59,-9.47z"/>
   <path class="fil6" d="M860.79 6415.28l1.46 161.58c48.61,-13.78 17.16,-72.72 37.78,-150.63 7.24,-27.37 1.93,-12.5 10.06,-25.85l5.46 -75.5c14.76,12.22 13.02,-11.26 28.41,34.65 6.04,18.04 3.1,26.86 1.74,44.78l12.46 31.5c2.76,14.01 2.76,36.9 3.04,51.63 0.62,32.33 2.18,61.63 9.55,85.11 63.93,38.8 322.67,58.66 421.27,43.74l-55.91 -54.17 14.37 -135.24c0.89,-2.91 2.53,-6.6 3.31,-8.96 0.79,-2.37 2.02,-6.12 3.57,-8.93l8.87 -79.28c9.65,8.62 8.44,3.52 16.94,17.61 2.07,3.44 9.34,20.42 9.41,20.64 8.37,27.07 5.59,32.5 3.51,55.27 13.76,21.13 13.18,52.01 13.74,74.83 2.74,110.41 17.22,103.04 195,119.2 72.22,6.56 156.17,11.98 233.26,7.7 -11.38,-20.06 -144.6,-145.94 -209.15,-124.86 -6.69,17.76 12.69,-1.78 -19.67,19.9 -157.82,105.71 -179.26,-169.53 -187.82,-273.6 -11.36,-138.12 9.83,-142.81 -26,-132.85 -53.7,30.52 -61.48,17.96 -86.61,70.86l0.62 350c-43.25,-13.1 -65.03,-34.33 -98.21,-53.67 -34.81,15.54 -75.41,62.82 -133.86,49.83 -77.3,-17.18 -98.29,-204.54 -103.64,-272.57 -6.52,-82.91 7.16,-153.81 -25.34,-153.56 -52.58,31.08 -90.99,32.12 -94.94,110.83 -2.67,52.99 3.14,145.54 7.32,200.02z"/>
   <path class="fil7" d="M869.46 1145.83c25.98,71.16 147.44,237.55 198.59,316.34 43.35,66.77 177.62,258.13 198.84,318.99 -50.38,-19.96 -83.51,-61.35 -127.25,-94.98l146.96 116.45c23.89,-5.22 -0.73,-132.24 -3.94,-159.5 -14.43,-122.2 -9.82,-77.39 -77.92,-183.69 -114.94,-179.42 -110.77,-113.8 -87.05,-225.46 -48.84,-5.67 -94.87,-30.83 -135.19,-61.48l11.76 -74.35c-65.61,-4.26 -95.73,20.78 -124.81,47.68z"/>
   <path class="fil1" d="M153.5 3310.23l13.63 43.18c30.32,-10.82 3.36,-4.1 16.68,-24.3 4.25,-6.45 -41.8,-7.69 25.09,-19.89l41.14 183.64c7.22,23.55 22.48,47.31 46.32,51.39 25.44,4.35 -1.8,1.44 48.72,-9.5l12.34 -2.16c4.03,-133.31 -35.1,-198.45 51.64,-208.92l6.13 106.63 27.86 -39.19c8.11,-15.91 13.49,-30.35 19.27,-42.54 13.92,-29.37 21.43,-49.94 35.69,-78.04l5.65 -14.08c9.9,-41.9 18.45,-79.58 4.91,-124.9 1.96,0.78 -0.83,10.55 24.25,0.44 40.7,-16.42 6.6,25.57 20.65,-17.92 -62.09,11.87 -166.81,0.43 -230.84,-7.06l1.76 -102.65c-6.44,11.09 -4.47,3.5 -11.58,27.65 -38,129.04 64.5,55.59 7.72,130.24 -37.41,49.18 -52.93,87.77 -88.45,131.9 -38.24,-2.91 -56.24,-4.71 -78.57,16.08z"/>
   <path class="fil1" d="M2766.67 1080.52c30.7,11.09 19.54,3.54 37.35,29.72 -30.03,20.7 -135.4,18.31 -162.83,15.21 -22.39,-2.53 -12.92,-1.97 -29.57,-6.72l-18.22 -8.49c24.83,-40.46 35.01,-30.76 90.96,-32.4l1.19 -60.78c-50,25.79 -89.91,37.72 -145.32,74.81 -61.53,41.19 -53.44,88.02 -95.32,106.47 20.31,26.66 30,28.39 62.19,46.66 34.57,19.62 44.52,29.54 81.37,42.93 15.72,-27.46 94.87,-35.65 133.48,-44.46 105.93,-24.17 107.75,-11.77 134.32,-54.46 46.04,-73.98 102.52,-140.76 61.63,-188.05l-57.44 -36.97c-15.81,24.77 -28.37,30.17 -49.05,54.93 -16.35,19.59 -29.94,36.21 -44.73,61.6z"/>
   <path class="fil7" d="M1332.13 1747.2l114.7 -620.94c-4.46,-2.75 -29.5,-18.8 -31.59,-19.87 -17.43,-8.85 -9.27,-3.47 -24.02,-9.99 -34.08,-15.06 -17.42,-10.63 -49.43,-28.8l-20.65 105.27c10.66,59.87 66.04,-81.27 -14.44,282.37 -14.15,63.89 -19.58,262.49 16.41,312.84 -25.95,-35.73 1.59,-13 9.02,-20.89z"/>
   <path class="fil5" d="M2849.66 855.61c73.48,-35.43 151.26,-108.74 186.78,-184.33 28.54,-60.74 43.1,-162.59 28.02,-234.87 -10.79,-51.71 -20.13,-51.06 -28.89,-60.39 12.07,69.81 22.83,90.27 16.83,168.96 -23.74,-30.79 -25.99,-55.01 -66.16,-67.44 -53.9,2.67 -70.31,125.55 -70.36,125.71 -7.15,25.25 -10.99,11.58 -21.12,41.36 -28.64,84.19 37.67,0.39 -45.11,211z"/>
   <path class="fil0" d="M2685.54 1017.06l-1.19 60.78c-55.95,1.63 -66.13,-8.07 -90.96,32.4l18.22 8.49c16.65,4.75 7.18,4.19 29.57,6.72 27.43,3.1 132.8,5.49 162.83,-15.21 -17.8,-26.18 -6.65,-18.63 -37.35,-29.72l-41.46 -1.92c-15.83,-15.85 -14.04,24.77 -13.09,-26.47l-2.63 -45.11 6.49 -111.86c-56.22,-2.64 -6.29,22.65 -94.59,9.47 -23.38,-3.49 -60.75,-17 -82.14,-25.56 -211.89,-84.81 -352.37,-403.5 -117.18,-646.33 85.93,-88.73 168.39,-106.13 274.24,-102.46l10.14 -59.15c-56.23,37.14 10.17,23.92 -74.44,37.89 -38.29,6.32 -48.43,7.43 -83.21,20.35 -411.8,153 -332.51,778.91 132.52,798.68l4.22 89.02z"/>
   <path class="fil8" d="M1669.29 2537.91l-8.09 -22.26c-117.67,2.31 -235.38,50.33 -334.65,-37.61l-2.92 -656.65 -19.13 4.11 3.95 652.53c-67.81,40.43 -163.05,77.52 -254.94,91.26 -172.48,25.79 -176.01,-19.22 -300.83,-59.88 28.56,47.94 -23.81,2.24 39.41,45.72 92.57,63.66 319.06,34.67 424.71,-7.18 156.6,-62.02 45.15,-43.67 195.1,-6.56 103.89,25.71 180.59,-13.07 257.38,-3.48z"/>
   <path class="fil0" d="M704.47 3241.2c41.55,-6.41 17.2,11.62 29.47,-15.83 35.75,-76.74 115.21,-93.03 121.66,24.48 5.54,100.88 -15.94,95.22 21.52,116.61 50.52,-65.83 -41.19,-219.07 71.07,-199.26 65.19,11.5 46.89,91.32 48.3,146.62 0.2,7.9 0.68,22.91 2.23,30.3 7.57,35.91 -4.85,8.98 14.13,32.65 17.77,-12.61 20.2,-11.19 20.31,-73.15 0.14,-77.62 10.01,-191.94 -102.92,-178.76 -51.87,6.06 -24.53,23.29 -70.17,16.31 -16.25,-2.49 -128.64,-78.03 -155.61,100.04z"/>
   <path class="fil0 str0" d="M677.92 3231.44c23.77,3.74 12.48,-2.27 26.55,9.76 26.97,-178.07 139.36,-102.52 155.61,-100.04 45.64,6.98 18.3,-10.25 70.17,-16.31 112.93,-13.18 103.06,101.15 102.92,178.76 -0.11,61.97 -2.54,60.54 -20.31,73.15 -18.99,-23.67 -6.57,3.26 -14.13,-32.65 -1.56,-7.39 -2.03,-22.39 -2.23,-30.3 -1.41,-55.3 16.89,-135.11 -48.3,-146.62 -112.26,-19.81 -20.55,133.43 -71.07,199.26 -37.46,-21.4 -15.98,-15.74 -21.52,-116.61 -6.45,-117.51 -85.91,-101.22 -121.66,-24.48l22.74 5.6 13.37 -42.67c82.69,-8.86 64.5,27.21 65.15,104.47 0.42,49.6 4.33,124.13 61.47,82.41 18.57,-18.76 13.98,-77.74 13.88,-104.05 -0.37,-97.3 11.03,-78.85 29.22,-90.42 56.9,27.61 38.53,75.88 37.52,143.96 -0.84,56.98 12.12,83.54 66.89,58.29 12.28,-36.73 10.77,-147.54 2.07,-188.48 -27.41,-128.95 -159.66,-67.57 -193.03,-74.97 -33.48,-7.42 -37.95,-23.13 -86.28,-10.06 -59.99,16.22 -60.22,76.06 -89.02,121.99z"/>
   <path class="fil0 str0" d="M1308.28 3355.09c-48.8,56.08 -190.6,-1.87 -171.56,-135.61 13.77,-96.7 152.93,-143.48 197.94,-40.55 -22.76,29.58 -68.37,89.3 -92.1,83.53 -18.83,-35.76 17.35,-39.34 39.9,-93.17 -68.77,-11.6 -127.04,19.85 -109.87,98.61 13.89,63.7 75.06,59.46 91.59,62.94 55.67,11.71 25.4,-9.81 44.09,24.26zm42.88 -187.94c-34.1,-69.31 -133.04,-83.83 -194.31,-22.99 -86.86,86.26 -30.67,261.04 118.12,248.14 65.13,-5.64 66.25,-58.5 27.02,-74.53 -48.94,-20 -87.74,6.02 -107.14,-41.37 -23.83,-58.19 5.77,-84.53 50.39,-91.3 -13.83,35.51 -41.2,49.48 -23.54,96.37 51.67,10.42 118.42,-65.53 129.47,-114.32z"/>
   <path class="fil0 str0" d="M1308.28 3355.09c-18.69,-34.07 11.58,-12.56 -44.09,-24.26 -16.53,-3.48 -77.7,0.77 -91.59,-62.94 -17.17,-78.75 41.1,-110.2 109.87,-98.61 -22.54,53.83 -58.73,57.42 -39.9,93.17 23.73,5.77 69.34,-53.95 92.1,-83.53 -45.02,-102.93 -184.18,-56.15 -197.94,40.55 -19.04,133.74 122.76,191.7 171.56,135.61z"/>
   <path class="fil0 str0" d="M567.7 3007.61l43.08 156.13c7.34,-32.76 -0.87,-58.67 -5.13,-90.55 29.67,-22.42 62.83,-42.81 70.06,-76.73 8.96,-42.04 -13.16,-78.41 -35.63,-93.57 -75.93,-51.23 -156.68,61.72 -72.39,104.72z"/>
   <path class="fil0 str0" d="M553.45 3114.07l12.49 -89.85c-27.44,3.71 -30.54,9.93 -48.63,-20.6 -71.24,-120.21 136.37,-202.45 176.67,-70.35 18.36,60.2 -22.85,83.59 -4.79,111.97 80.03,-106.4 -0.29,-253.91 -141.41,-206.3 -80.48,27.16 -110,143.28 -39.07,205.95 59.15,52.28 12.28,-11.59 44.75,69.18z"/>
   <path class="fil9" d="M1263.2 881.96l2.76 -20.33c-98.49,-28.12 -168.31,-63.24 -219.06,-129.19 -43.25,75.82 89.77,194.5 217.2,205.1l-0.89 -55.58z"/>
   <path class="fil9" d="M1232.18 671.76c48.3,149.4 143.83,87.18 160.04,65.73l34.21 -75.28c-36.11,1.26 -1.75,-2.92 -26.4,2.09 -67.62,13.74 -20.15,15.1 -64.7,18.54 -36,2.78 -55.94,-10.03 -103.14,-11.08z"/>
   <path class="fil10" d="M572.06 3688.46c-0.3,-49.4 -8.58,-96.57 -14.79,-145.48 -7.65,-60.21 9.87,-81.99 -50.48,-77.44 -13.86,43.71 1.78,184.02 25.77,222.22 25.26,-6.07 2.76,-5.47 39.5,0.7z"/>
   <path class="fil7" d="M1002.89 1161.91l121.91 61.01c-6.67,-34.43 -31.93,-78.11 -45.51,-107.72 -14.09,-30.74 -33.73,-65.6 -45.55,-98.98l-30.85 145.69z"/>
   <path class="fil11" d="M532.15 3886.61l4.41 39.3c47.7,-11.31 99.44,-20.41 147.53,-16.61 59.91,-19.51 104.78,6.51 114.22,-56.13l-266.16 33.44z"/>
   <path class="fil12" d="M503.63 3256.46l-5.65 14.08c1.06,45.04 -5.04,19.19 13.69,44.8 39.43,-17.59 25.63,-0.41 20.88,-40.96 2.02,0.62 4.99,0.16 5.63,2.86 0.65,2.74 4.26,2.87 5.2,3.75 24.59,23.06 4.81,15.47 30.94,27.42 28.2,-21.5 16.16,12.18 16.54,-42.83 27.58,33.74 9.65,39.05 55.25,34.37 7.49,-38.65 11.56,-14.14 -7.36,-48l-36.16 -54.21 0.28 49.81 -99.25 8.92z"/>
   <path class="fil9" d="M1210.48 522.83l-20.73 -1.65c-2.1,1.61 -5.53,1.03 -6.78,4.14 -1.28,3.19 -5.38,3.16 -7.2,3.76 -1.92,0.63 -5.6,2.22 -8.03,2.94 -2.59,0.76 -5.93,1.31 -8.86,2.08 -23.61,6.26 -20.06,1.09 -42.81,10.66 0.6,39.33 -0.54,45.75 34.12,53.41 28.93,6.39 54.76,-2.17 72.33,-9.45l-12.05 -65.89z"/>
   <path class="fil12" d="M0 3341.2l31.39 -9.93c14.35,32.03 9.61,57.49 16.59,40.42 0.65,-1.58 2.71,5.48 4.29,8.09 35.7,-12.63 34.36,-14.06 81.98,-18.26l-1.98 -50.71c-26.96,-0.45 -49.85,-0.09 -76.83,3.95 -2.36,0.35 -33.19,8.02 -33.71,8.26 -26.41,12.27 -2.88,-2.12 -21.72,18.18z"/>
   <path class="fil0" d="M1461.66 494.96c13.68,-35.04 18.11,-124.1 -38.12,-93.8 -28.52,15.37 -31.83,91.31 38.12,93.8z"/>
   <path class="fil0" d="M1189.75 521.18l20.73 1.65 18.96 -16.67c3.3,-47.05 -3.26,-92.07 -50.81,-74.6 -23.94,34.9 -17.52,59.9 11.11,89.61z"/>
   <path class="fil9" d="M1418.19 525.54l-1.22 31.33c16.94,9.75 -14.06,7.33 34.19,12.83 17.29,1.97 34.07,-1.3 51.01,-3.12l6.37 -54.06c-21.72,-2.7 -27.59,-6.04 -47.47,-4.24 -43.39,3.92 -29.04,6.86 -42.88,17.26z"/>
   <path class="fil13" d="M536.56 3925.91l-4.41 -39.3c-36.69,-0.76 -82.96,-0.31 -112.02,14.55l8.39 32.22 108.04 -7.47z"/>
   <path class="fil14" d="M1128.82 406.35l134.99 -11.69c-16.07,-35.29 -19.87,-32.03 -63.21,-30.04 -47.59,2.19 -51.06,7.74 -71.78,41.73z"/>
   <path class="fil15" d="M1357.36 6408.98l7.46 34.22c36.92,-2.27 14.82,11.07 31.27,-19.99 2.08,-22.77 4.85,-28.2 -3.51,-55.27 -0.07,-0.22 -7.34,-17.2 -9.41,-20.64 -8.5,-14.09 -7.3,-8.98 -16.94,-17.61l-8.87 79.28z"/>
   <path class="fil14" d="M1501.95 348.09l4.26 5.67c-47.92,-14.09 -85.29,-29.49 -124.35,15.16 26.34,14.07 4.89,12.81 60.66,3.65 58.94,-9.68 46.68,12.02 59.44,-24.48z"/>
   <path class="fil15" d="M910.09 6400.38c13.36,31.1 20.85,33.29 35.61,3.93 1.36,-17.92 4.3,-26.74 -1.74,-44.78 -15.39,-45.91 -13.65,-22.43 -28.41,-34.65l-5.46 75.5z"/>
   <path class="fil16" d="M2709.49 1007.01l2.63 45.11c20.93,-10.06 11.91,9.72 34.67,-25.07 11.74,-17.94 4.44,-9.31 7.02,-29.8l-44.32 9.75z"/>
   <path class="fil7" d="M1253.01 2013.99c16.18,-10.37 24.34,12.31 20.65,-26.66 -2.71,-28.61 -39.71,-23.98 -40.42,0.57 -1.14,39.68 0.23,13.89 19.78,26.09z"/>
   <path class="fil7" d="M1242.06 2138.42c-6.06,13.71 -17.51,-16.24 -7.66,25.05 6.01,25.19 -1.53,8.06 18.61,19.12 2.8,-1.39 13.71,-0.96 17.63,-12.41 15.19,-44.38 -2.09,-22.21 -5.55,-28.6l-23.04 -3.17z"/>
   <path class="fil7" d="M1273.16 2350.69l-0.04 -36.14c-60.96,-6.48 -64.22,42.74 0.04,36.14z"/>
  </g>
 </g>
</svg>
