<?xml version="1.0" encoding="UTF-8"?>
<!DOCTYPE svg PUBLIC "-//W3C//DTD SVG 1.1//EN" "http://www.w3.org/Graphics/SVG/1.1/DTD/svg11.dtd">
<!-- Creator: CorelDRAW -->
<svg xmlns="http://www.w3.org/2000/svg" xml:space="preserve" width="100%" height="100%" version="1.1" style="shape-rendering:geometricPrecision; text-rendering:geometricPrecision; image-rendering:optimizeQuality; fill-rule:evenodd; clip-rule:evenodd"
viewBox="0 0 393.7 315.49"
 xmlns:xlink="http://www.w3.org/1999/xlink"
 xmlns:xodm="http://www.corel.com/coreldraw/odm/2003">
 <defs>
  <style type="text/css">
   <![CDATA[
    .fil2 {fill:#3E4D55}
    .fil0 {fill:#63B4F5}
    .fil3 {fill:#ED5250}
    .fil1 {fill:#FEC828}
   ]]>
  </style>
 </defs>
 <g id="Layer_x0020_1">
  <metadata id="CorelCorpID_0Corel-Layer"/>
  <g id="_105553471262720">
   <path class="fil0" d="M38.84 102.28c4.8,17.94 -2.74,7.08 -2.85,24.97 -0.11,17.51 6.74,7.2 3.26,25.19 3.9,2.13 4.3,-1.17 5.26,13.17 0.29,4.32 -0.33,13.21 -0.35,18.15 -0.08,17.91 -2.77,91.67 1.82,96.8 3.34,2.29 -1.07,0.94 5.09,2.07 15.29,2.81 239.9,0.15 242.28,-0.03l1.78 -14.55c-42.14,0 -84.28,0 -126.42,0 -46.79,-0 -34.5,1.48 -75.91,-16.06 -38.95,-16.5 6.6,-32.11 24.65,-39.84 24.02,-10.29 147.17,-5.4 178.27,-5.4l-1.58 -125.44 -44.96 -1.48c0.82,70.76 12.21,59.19 -98.45,59.2 -57.73,0.01 -49.48,1.63 -48.6,-58.42 -15.94,0.82 -43.87,-2.44 -57.4,2.24 -0.2,1.85 -0.39,10.81 -0.43,10.99 -1.94,8.2 1.72,4.59 -5.48,8.44z"/>
   <path class="fil1" d="M132.76 92.63c-4.91,-6.59 3.83,-20.2 7.1,-27.55 3.61,-8.11 8.38,-20.36 13.45,-26.72 6.16,3.46 27.11,46.88 23.12,54.26 -19.12,-11.76 8.69,-18.21 -34.35,-17.65 -2.2,6.87 -3.19,12.98 -9.32,17.65zm67.67 -37.69c11.54,2.09 10.25,-1.78 14.47,6.49l-14.31 2.18c-0.39,9.3 1.57,7.94 -3.59,13.72 -4.75,-5.88 -2.95,-5.08 -3.35,-13.85l-14.16 -3.01c3.22,-5.72 -0.93,-3.06 14.35,-5.43l3.17 -13.59c1.65,2.41 1.66,1.12 3.11,6.11 0.4,1.36 0.3,5.73 0.32,7.38zm-80.85 -43.85c-3.63,15.04 -3.78,94.49 0.23,108.79 10.27,4.56 104.53,8.72 111.62,-2 4.7,-11.18 5.5,-97.86 -1.82,-105.24 -9.87,-11.04 -101.2,-5.54 -110.03,-1.55z"/>
   <path class="fil2" d="M0 116.98l0.52 146.42c-0.24,61.87 28.16,50.83 96.26,50.81 48.82,-0.02 97.64,0 146.46,0 66.7,0 112.62,13.72 106.41,-48.61 -13.34,7.48 0.35,14.54 -10.07,29.91 -6.02,8.88 -15.58,12.34 -29.53,12.34l-269.79 0c-26.2,0 -33.25,-11.29 -33.25,-36.74l0 -177.24c0.76,-43.96 25.7,-37.56 64.09,-37.48l25.68 -0.16c6.2,-1.2 -0.93,3.78 7.8,-3.46 -9.98,-6.46 -50.34,-2.84 -64.39,-2.84 -41.33,0 -40.17,28.82 -40.17,67.06z"/>
   <path class="fil2" d="M135.98 222.69l42.24 -0.39 0.24 29.66 -42.13 0.49 -0.35 -29.76zm249.34 26.39c-14.16,6.25 -173.53,5.87 -199.9,2.76l-0.31 -28.77 9.29 -1.11 172.09 0.18c20.83,0 22.74,8.63 18.83,26.94zm-284.96 -10.85l28.13 -13.7 0.55 24.8 -28.68 -11.1zm-13.25 -0.52c6.43,6.95 41.71,21.6 53.35,21.6l179.86 -0.33c17.43,0 59.71,4.39 68.73,-6.52 5.98,-7.23 6.25,-22.47 0.47,-30.02 -6.13,-8.02 -18.43,-6.76 -30.59,-6.7l-221 -0.54c-7.46,0.55 -45.87,15.65 -50.81,22.5z"/>
   <path class="fil2" d="M119.57 11.09c8.83,-4 100.17,-9.49 110.03,1.55 7.33,7.37 6.53,94.06 1.82,105.24 -7.09,10.73 -101.35,6.56 -111.62,2 -4.02,-14.3 -3.86,-93.75 -0.23,-108.79zm2.53 -8.13c-16.29,7.86 -11,35.09 -11,54.93 0,77.2 -8.78,72.19 57.63,72.19 77.68,0 71.44,8.36 71.44,-56.78 -0,-78.08 8.57,-72.43 -56.02,-72.42 -14.46,0 -51.52,-3.01 -62.04,2.07z"/>
   <path class="fil2" d="M295.14 268.06l-1.78 14.55c-2.39,0.19 -227,2.84 -242.28,0.03 -6.16,-1.13 -1.75,0.21 -5.09,-2.07 -4.59,-5.13 -1.9,-78.89 -1.82,-96.8 0.02,-4.94 0.64,-13.83 0.35,-18.15 -0.97,-14.34 -1.36,-11.04 -5.26,-13.17 -3.56,8.94 -4.93,125.93 1.91,133.04 6.92,7.19 13.72,4.22 32.49,4.17l216.11 0.04c14.44,-1.59 12.07,-7.9 11.54,-22.98l-6.16 1.33z"/>
   <path class="fil2" d="M246.67 52.76c3.17,3.06 -1.37,1.16 4.87,2.85 26.61,7.19 88.44,-16.11 92.52,27.85l0.14 97.75c-0.05,10.08 -2.93,23.74 4.39,27.85 4.35,-8.96 3.85,-114.69 1.58,-130.04 -7.1,-48 -103.47,-26.29 -103.5,-26.27z"/>
   <polygon class="fil3" points="136.33,252.46 178.47,251.96 178.23,222.3 135.98,222.69 "/>
   <path class="fil2" d="M249.19 79.83l44.96 1.48 1.58 125.44 5.12 2.05 0.63 -128.82 -6.32 -4.55c-9.31,-1.43 -19.15,-0.94 -28.87,-1.01 -8.89,-0.07 -23.64,-2.28 -17.09,5.4z"/>
   <path class="fil2" d="M154.66 50.9l7.05 17.66 -15.58 -1.22 8.54 -16.44zm-21.91 41.73c6.13,-4.67 7.12,-10.78 9.32,-17.65 43.05,-0.57 15.23,5.89 34.35,17.65 3.99,-7.38 -16.96,-50.8 -23.12,-54.26 -5.07,6.36 -9.84,18.61 -13.45,26.72 -3.27,7.35 -12.01,20.96 -7.1,27.55z"/>
   <path class="fil2" d="M322.89 167.18c11.11,7.09 9.1,24.37 0,29.84 -10.2,-6.24 -9.7,-23.54 0,-29.84zm-8.8 -4.79c-5.81,12.68 -3.57,22.15 -2.1,37.33 18.91,8.65 23.31,1.71 23.31,-18.52 0,-13.32 -6,-27.7 -21.21,-18.81z"/>
   <path class="fil2" d="M38.84 102.28c7.2,-3.85 3.54,-0.23 5.48,-8.44 0.04,-0.17 0.22,-9.14 0.43,-10.99 13.53,-4.68 41.45,-1.42 57.4,-2.24 1.65,-2.44 3.82,4.25 0.94,-5.72 -19.19,-1.44 -52.15,-4.09 -64.57,4l0.33 23.39z"/>
   <path class="fil2" d="M193.82 55.04c-15.28,2.37 -11.13,-0.3 -14.35,5.43l14.16 3.01c0.41,8.77 -1.4,7.97 3.35,13.85 5.17,-5.78 3.2,-4.42 3.59,-13.72l14.31 -2.18c-4.22,-8.27 -2.94,-4.4 -14.47,-6.49 -0.02,-1.65 0.08,-6.02 -0.32,-7.38 -1.45,-4.99 -1.46,-3.71 -3.11,-6.11l-3.17 13.59z"/>
   <polygon class="fil1" points="146.13,67.34 161.71,68.56 154.66,50.9 "/>
  </g>
 </g>
</svg>
