<?xml version="1.0" encoding="UTF-8"?>
<!DOCTYPE svg PUBLIC "-//W3C//DTD SVG 1.1//EN" "http://www.w3.org/Graphics/SVG/1.1/DTD/svg11.dtd">
<!-- Creator: CorelDRAW -->
<svg xmlns="http://www.w3.org/2000/svg" xml:space="preserve" width="100%" height="100%" version="1.1" style="shape-rendering:geometricPrecision; text-rendering:geometricPrecision; image-rendering:optimizeQuality; fill-rule:evenodd; clip-rule:evenodd"
viewBox="0 0 1861.92 1726.05"
 xmlns:xlink="http://www.w3.org/1999/xlink"
 xmlns:xodm="http://www.corel.com/coreldraw/odm/2003">
 <defs>
  <style type="text/css">
   <![CDATA[
    .fil0 {fill:#3E4D55}
    .fil1 {fill:#63B4F5}
    .fil3 {fill:#ED5250}
    .fil2 {fill:#FEC828}
   ]]>
  </style>
 </defs>
 <g id="Layer_x0020_1">
  <metadata id="CorelCorpID_0Corel-Layer"/>
  <g id="_105553552060736">
   <path class="fil0" d="M1685.77 1669.52c-76.41,29.87 -608.16,25.58 -727.57,13.18l-3.3 -845.12c93.61,113.04 36.2,320.13 203.46,326.55 174.68,6.7 359.01,-3.05 535.5,0.19 1.78,153.64 8.22,358.11 -8.09,505.2zm-720.27 -939.62c99.81,-6.19 654.38,-12.19 720.97,6.63 34.25,19.63 135.03,357.84 138.89,391.97 -145.04,23.19 -466.31,5.11 -630.52,5.7 -134.46,0.48 -112.76,-40.23 -154.35,-165.59 -27.07,-81.58 -54.51,-156.94 -75,-238.7zm-394.9 -13.37c71.08,33.76 250.32,7.99 343.06,13.11l-96.09 302.59c-9.24,28.16 -18.52,72.24 -46.04,89.36 -47.78,22.81 -627.58,18.55 -717.67,8.35l106.97 -341.94c23.47,-67.15 32.92,-42.07 88.63,-71.47 -41.34,-35.5 -87.04,-10.31 -110.21,39.58 -15.96,34.36 -29.41,91.28 -41.73,126.78 -23.17,66.74 -84.79,202.7 -66.01,267.51 42.52,19.77 55.52,13.31 105.54,13.31 27.47,33.79 -0.3,25.91 36.5,54.61l11.15 -27.84c17.61,-27.48 -6.04,-12.11 25.35,-26.77 148.44,0 397.64,15.1 533.99,-0.82 81.42,-9.51 88.1,-76.48 113.24,-152.78 11.07,-33.61 61.37,-173.53 63.21,-191.36l3.85 864.26c-124.5,11.48 -653.94,16.9 -729.22,-13.76 -14.24,-57.33 4.83,-162.06 -21.57,-212.51 -31.67,23.08 -19.98,75.66 -19.57,123.83 1.47,173.67 80.8,135.58 311.51,135.58 198.73,0 397.47,-0.06 596.05,-0.02 787.02,0.18 658.13,128.78 663.47,-544.97l123.38 -15.08c20.56,-77.74 -66.77,-269.71 -90.64,-345.13 -46.44,-146.69 -83.1,-113.2 -319.11,-113.2l-827.27 -0.59c-73.31,10.08 -9.17,5.54 -40.76,19.37z"/>
   <path class="fil1" d="M197.11 555.29c13.51,33.06 124.57,162.65 169.84,165.43 76.29,4.69 187.58,-74.61 224.66,-109.21 38.83,-36.24 108.99,-134.16 124.07,-217.99 11.3,-62.87 -102.58,-160.85 -152.87,-191.94 -47.34,48.52 -90.22,190.44 -127.44,229.18 -21.35,22.21 -201.9,108.7 -238.25,124.53z"/>
   <path class="fil2" d="M1246.76 290.82c55.49,-25.15 190.25,-28.79 240.13,0.87 50.44,29.99 48.94,152.92 24.8,217.64 86.37,-29.85 132.74,-78.46 140.76,-183.59 4.55,-59.65 6.7,-240.83 -3.65,-294.98l-398.76 2.27 -3.27 257.8z"/>
   <path class="fil1" d="M56.01 589.86c36.8,-14.06 333.68,-160.01 350.3,-175.85 25.13,-23.94 159.3,-301.8 179.55,-355.2 -44.17,14.14 -332.34,157.09 -354.3,180.39 -16.98,18.02 -162.55,314.51 -175.55,350.66z"/>
   <path class="fil0" d="M197.11 555.29c36.35,-15.83 216.9,-102.32 238.25,-124.53 37.22,-38.73 80.11,-180.66 127.44,-229.18 50.29,31.08 164.18,129.07 152.87,191.94 -15.07,83.83 -85.23,181.75 -124.07,217.99 -37.08,34.61 -148.37,113.91 -224.66,109.21 -45.27,-2.79 -156.33,-132.37 -169.84,-165.43zm-141.1 34.57c13,-36.15 158.57,-332.65 175.55,-350.66 21.96,-23.3 310.13,-166.25 354.3,-180.39 -20.26,53.41 -154.42,331.26 -179.55,355.2 -16.61,15.83 -313.5,161.79 -350.3,175.85zm-56.01 55.79l159.85 -69.04 182.93 179.26c221.95,-13.95 379.62,-197.2 413.22,-404.19l-178.12 -182.74 52.55 -122.08c51.09,35.61 60.85,71.97 118.41,88.84 -11.47,-57.41 -65.24,-96.95 -113.05,-133.75 -30.93,8.35 -396.55,185.56 -421.83,207.76 -26.5,23.26 -206.63,389.2 -213.96,435.94z"/>
   <path class="fil0" d="M1686.81 286.43l-1.52 -137.68 80.49 -1.79c10.24,79.2 -15.01,123.82 -78.98,139.46zm-0.28 -173.85c13.33,-33.9 -0.07,-23.92 55.33,-24.34 26.41,-0.2 52.45,0.87 78.49,3.76 37.45,124.62 -19.24,240.49 -136.28,252.62 31.3,-75.3 127.24,-6.93 114.95,-219.98l-112.5 -12.06zm-555.24 196.19c-49.84,-33.78 -73.73,-129.95 -49.56,-216.25 87.79,-11.69 119.64,-15.01 134.54,15.95l-113.11 12.59c-4.36,92.93 -3.41,120.32 47.24,172.19 56.56,4.11 16.07,3.19 31.24,-17.11 -36.54,-36.61 -55.02,-50.45 -45.41,-128.4l78.86 -0.33c4.77,157.96 -3.03,134.54 31.67,143.41l3.27 -257.8 398.76 -2.27c10.35,54.15 8.2,235.33 3.65,294.98 -8.02,105.13 -54.39,153.74 -140.76,183.59 -0.72,56.46 -1.7,5.69 12.1,29.53 60.45,-18.52 88.72,-44.16 116.41,-83.28 75.42,-106.57 -12.44,-39.56 110.51,-95.52 130.89,-59.57 125.43,-255.07 88.3,-287.76 -34.72,-23.14 -82.65,-14.56 -132.76,-14.56 -60.31,-27.54 18.86,-27.54 -48.66,-57.72l-413.59 -0.03c-66.23,31.16 13.67,30.95 -48.66,57.76 -50.21,10.33 -192.72,-59.76 -146.52,171.43 11.15,55.81 41.01,87.79 73.54,109.8 15.41,-16.73 13.3,2 8.93,-30.22z"/>
   <path class="fil0" d="M800.12 437.95l257.41 2.17 -2.58 53.22 -254.96 -2.61 0.13 -52.78zm0.46 -79.74c54.19,-16.32 199.99,-15.56 256.72,-0.84l-3.18 49.21 -253.74 -2.14 0.2 -46.22zm-32.82 102.93l-1.08 85.15 -69.13 24.3c30.57,18.29 27.11,11.22 69.66,14.07 0.81,46.19 -7.31,50.15 14.56,82.04 12.32,-14.78 6.53,2.04 13.31,-25.35 3.75,-15.16 3.31,-18.05 4.17,-33.68 1.55,-28.34 -2,-48.58 0.82,-79.59l256.36 -3.09c3.83,62.09 -6.85,86.54 12.57,133.96 0.78,1.91 2.87,5.42 4.72,7.85 17.26,-22.94 15.89,-14.31 15.95,-83.45 0.03,-36.54 -0.59,-73.46 -0.68,-110.04 -0.38,-170.12 40.46,-153.64 -246.49,-153.64 -98.44,0 -73.26,50.33 -74.73,141.47z"/>
   <path class="fil0" d="M1448.16 485.46c-42.67,19.18 -202.87,14.48 -256.15,2.81l0.07 -49.42 256.64 -0.38 -0.56 46.98zm-118.97 -78.24c-46.19,-0.34 -92.49,-0.03 -138.69,-0.03 2.32,-68.81 -27.17,-57.85 126.5,-57.41 154.72,0.44 125.82,-11.82 133.35,38.4 -29.91,29.31 -58.34,19.52 -121.16,19.05zm-169.34 41.76c0,65.39 -11.35,173.96 11.18,217.22 33.94,-20.33 17.09,-89.33 22.99,-141.41l253.87 0.23c4.1,50.72 -6.18,106.7 15.08,141.6 37.94,-26.1 19.28,-155.65 19.28,-217.65 0,-145.54 25.67,-129.31 -238.24,-129.31 -100.13,0 -84.17,35.96 -84.17,129.31z"/>
   <path class="fil3" d="M1192.01 488.28c53.28,11.66 213.48,16.36 256.15,-2.81l0.56 -46.98 -256.64 0.38 -0.07 49.42z"/>
   <path class="fil2" d="M1741.87 88.23c-55.41,0.42 -42.01,-9.56 -55.33,24.34l112.5 12.06c12.3,213.05 -83.65,144.67 -114.95,219.98 117.04,-12.13 173.73,-128 136.28,-252.62 -26.04,-2.89 -52.09,-3.96 -78.49,-3.76z"/>
   <path class="fil2" d="M1131.29 308.76c31.19,0.66 30.83,10.37 19.11,-15.52 -50.65,-51.87 -51.61,-79.26 -47.24,-172.19l113.11 -12.59c-14.9,-30.96 -46.75,-27.63 -134.54,-15.95 -24.17,86.3 -0.28,182.47 49.56,216.25z"/>
   <path class="fil0" d="M173.55 1393.24c16.93,-28.52 18.17,-82.26 0,-111.33 -24.43,16.94 -20.19,3.87 -20.52,54.8 -0.33,51.55 -2.93,40.05 20.52,56.54z"/>
  </g>
 </g>
</svg>
