<?xml version="1.0" encoding="UTF-8"?>
<!DOCTYPE svg PUBLIC "-//W3C//DTD SVG 1.1//EN" "http://www.w3.org/Graphics/SVG/1.1/DTD/svg11.dtd">
<!-- Creator: CorelDRAW -->
<svg xmlns="http://www.w3.org/2000/svg" xml:space="preserve" width="100%" height="100%" version="1.1" style="shape-rendering:geometricPrecision; text-rendering:geometricPrecision; image-rendering:optimizeQuality; fill-rule:evenodd; clip-rule:evenodd"
viewBox="0 0 393.7 395.24"
 xmlns:xlink="http://www.w3.org/1999/xlink"
 xmlns:xodm="http://www.corel.com/coreldraw/odm/2003">
 <defs>
  <style type="text/css">
   <![CDATA[
    .fil1 {fill:#404E57}
    .fil0 {fill:#63B4F5}
    .fil2 {fill:#ED5250}
    .fil3 {fill:#FEC828}
    .fil4 {fill:#FEFEFE}
   ]]>
  </style>
 </defs>
 <g id="Layer_x0020_1">
  <metadata id="CorelCorpID_0Corel-Layer"/>
  <path class="fil0" d="M118.38 161.99c14.42,-53.9 96.99,-55.09 113.44,-0.61 4.71,-0.59 55.35,-4.06 60.83,2.63 4.84,5.91 5.68,172.99 -1.32,179.1 -11.56,5.53 -40.19,2.15 -54.88,2.19l-0.54 11.21c-10.41,4.11 -53.26,21.46 -60.6,21.58 -6.41,0.11 -54.22,-18.49 -61.61,-21.74l-0.14 -11.58c-22.25,1.37 -55.03,7.69 -58.35,-10.02l3.71 -99.13 0.16 -14.65 -3.92 -1.28 -0.12 -16c2.12,-8.43 -0.8,-2.39 4.7,-5.01l-1.25 -14.67 -3.32 -0.99c-0.11,-14.54 -1.65,-13.44 5.52,-21.66 13.83,-2.03 44.43,-2.39 57.7,0.61zm192.02 -35.48c-13.39,0.64 -62.03,2 -72.66,-0.58 -11.08,-2.69 -13.02,-8.69 -13.52,-22.52 -0.43,-11.68 -0.1,-25.41 0.43,-37.11 -16.26,-4.99 -30.54,-27.11 -49.33,-27.08 -16.34,0.03 -118.16,77.41 -134.33,89.37 -21.27,15.74 -33.61,18.97 -35.07,39.34 -1.47,20.53 0.62,51.91 0.62,74.42 0,27.73 -5.87,127.48 4.72,143.29 4.38,3.22 320.75,6.23 328.93,-1.63 6.55,-6.3 5.38,-201.87 3.24,-219.01 -3.17,-25.48 -23.84,-21.18 -33.03,-38.48z"/>
  <path class="fil1" d="M310.41 126.5c9.19,17.3 29.86,13 33.03,38.48 2.14,17.15 3.31,212.71 -3.24,219.01 -8.18,7.86 -324.55,4.85 -328.93,1.63 -10.59,-15.81 -4.72,-115.56 -4.72,-143.29 0,-22.51 -2.09,-53.89 -0.62,-74.42 1.46,-20.37 13.8,-23.59 35.07,-39.34 16.17,-11.96 117.98,-89.35 134.33,-89.37 18.8,-0.03 33.07,22.09 49.33,27.08l1.81 -4.24c-50.09,-45.13 -60.78,-31.79 -103.12,-0.5 -31.11,22.98 -62.24,43.87 -93.06,66.62 -21.19,15.65 -29.47,14.63 -30.29,49.74l0.1 198.39c1.59,13.59 6.45,17.07 20.63,18.03 26.07,1.76 312.03,0.83 318.23,-1.45 18.35,-6.76 11.33,-48.08 11.33,-68.12l-0.24 -159.62c-2.22,-25.07 -21.26,-27.47 -34.78,-41.48l-4.86 2.85z"/>
  <path class="fil1" d="M159.93 233.78l29.71 0.12c0.15,8.34 -2.64,12.11 -11.95,13.09 -14.02,1.46 -14.85,-3.48 -17.76,-13.21zm-30.38 -48c18.97,-1.75 29.78,-2.24 47.09,-9.22 13.91,-5.61 28.44,-17.47 37.82,-20.02 9.89,31.09 6.5,57.31 -23.04,68.06 -34.24,12.46 -57.98,-11.16 -61.87,-38.81zm0.08 -7.51c4.47,-38.31 48.38,-56.6 76.84,-28.66 -6.07,10.33 -21.58,16.86 -33.01,21.22 -13.94,5.31 -28.18,8.46 -43.83,7.44zm23.87 56.33c-4.39,7.64 -1.54,4.44 -10.65,8.74 -12.82,6.04 -30.52,10.58 -38.09,21.11 -7.43,10.34 -11.07,55.83 -4.07,67.75 12.18,-8.65 -7.2,-49.24 14.12,-68.04 7.27,-6.41 19.18,-10.06 27.49,-13.89 20.91,-9.64 11.08,2.26 30.57,3.73 20.72,1.57 13.87,-12.07 30.1,-6.06 71.8,26.6 29.35,52.42 44.57,83.98 9.25,-4.49 3.8,-53.19 2.83,-56.57 -5,-17.5 -19.11,-22.2 -37.19,-29.64 -47.97,-19.76 33.69,-20.73 10.76,-82.74 -21.9,-59.23 -115.35,-32.86 -99.63,32.34 3.33,13.81 10.69,21.31 20.25,28.91 9.91,7.88 5.08,-0.51 8.94,10.39z"/>
  <path class="fil1" d="M240.26 7.24l146.58 0.72 -0.61 103.35 -146.44 -0.68 0.47 -103.39zm-4.65 -3.54c-5.17,15.39 -2.37,50.77 -2.37,68.64 -0,45.44 -4.35,45.73 21.9,45.51 37.54,-0.31 98.05,3.65 132.54,-0.86 7.89,-10.82 5.81,-8.3 5.67,-26.57l0.04 -77.27c-1.08,-8.3 -0.16,-5.42 -5.41,-9.54 -6.35,-5.19 -142.19,-4.47 -152.36,0.09z"/>
  <path class="fil1" d="M129.3 285.65c11.4,3.08 33.68,11.65 42.44,16.52l-0.58 59.11 -41.87 -15.93 0.01 -59.71zm91.63 1.1l0.09 58.71 -42.7 15.61 0.56 -60.14 42.05 -14.18zm-97.65 64.27c74.94,23.89 29.11,23.4 104.12,-0.16l-0.39 -73.13c-17.14,1.95 -39.14,16.03 -51.69,16.22 -11.07,0.16 -35.7,-13.91 -52.67,-16.26l0.62 73.33z"/>
  <path class="fil2" d="M129.29 345.36l41.87 15.93 0.58 -59.11c-8.77,-4.87 -31.05,-13.44 -42.44,-16.52l-0.01 59.71z"/>
  <polygon class="fil2" points="178.89,300.93 178.33,361.06 221.03,345.46 220.94,286.75 "/>
  <path class="fil1" d="M236.45 345.31c14.69,-0.04 43.33,3.34 54.88,-2.19 7,-6.11 6.16,-173.19 1.32,-179.1 -5.48,-6.7 -56.11,-3.23 -60.83,-2.63 1.56,7.91 -1.59,3.36 5.41,5.41l51.26 1.3 -0.32 170.35 -52.54 0.56c-0.24,0.82 -3.01,0.25 0.81,6.31z"/>
  <path class="fil3" d="M129.63 178.28c15.65,1.01 29.9,-2.13 43.83,-7.44 11.43,-4.35 26.94,-10.88 33.01,-21.22 -28.46,-27.94 -72.37,-9.65 -76.84,28.66z"/>
  <path class="fil1" d="M113.56 344.78c1.89,-2.33 3.94,4.96 1.24,-5.73l-52.83 -0.56c-0.86,-18.04 4.59,-94.83 -3.05,-102.86l-3.71 99.13c3.32,17.71 36.1,11.39 58.35,10.02z"/>
  <path class="fil1" d="M249.51 33.72c5.07,7.21 2.63,4.36 28.94,4.3 23.69,-0.06 91.63,4.44 99.24,-3.7 -9.04,-6.35 -120.13,-4.19 -128.19,-0.59z"/>
  <path class="fil1" d="M58.48 184.03c4.9,0.31 3.39,-12.27 3.74,-16.22l55.61 -1.05 0.55 -4.77c-13.28,-3 -43.88,-2.64 -57.7,-0.61 -7.17,8.22 -5.63,7.12 -5.52,21.66l3.32 0.99z"/>
  <path class="fil1" d="M300.91 82.56c-9.75,-4 -43.57,-4.54 -52.09,0.81 4.44,5.06 1.12,3.78 11.6,3.78 29.54,0 35.53,3.57 40.49,-4.59z"/>
  <path class="fil4" d="M159.93 233.78c2.91,9.73 3.74,14.67 17.76,13.21 9.31,-0.97 12.1,-4.74 11.95,-13.09l-29.71 -0.12z"/>
  <path class="fil1" d="M59.07 220.98c4.99,-3.48 2.71,-17.63 0.66,-22.29 -5.5,2.61 -2.58,-3.43 -4.7,5.01l0.12 16 3.92 1.28z"/>
 </g>
</svg>
