<?xml version="1.0" encoding="UTF-8"?>
<!DOCTYPE svg PUBLIC "-//W3C//DTD SVG 1.1//EN" "http://www.w3.org/Graphics/SVG/1.1/DTD/svg11.dtd">
<!-- Creator: CorelDRAW -->
<svg xmlns="http://www.w3.org/2000/svg" xml:space="preserve" width="100%" height="100%" version="1.1" style="shape-rendering:geometricPrecision; text-rendering:geometricPrecision; image-rendering:optimizeQuality; fill-rule:evenodd; clip-rule:evenodd"
viewBox="0 0 2076.43 2084.57"
 xmlns:xlink="http://www.w3.org/1999/xlink"
 xmlns:xodm="http://www.corel.com/coreldraw/odm/2003">
 <defs>
  <style type="text/css">
   <![CDATA[
    .fil0 {fill:#003399}
   ]]>
  </style>
 </defs>
 <g id="Layer_x0020_1">
  <metadata id="CorelCorpID_0Corel-Layer"/>
  <path class="fil0" d="M1637.13 667.21c48.48,91.23 157.49,68.57 174.22,202.94 11.26,90.44 17.44,1121.89 -17.09,1155.09 -43.13,41.46 -1711.72,25.6 -1734.81,8.62 -55.85,-83.41 -24.91,-609.47 -24.91,-755.74 0,-118.69 -11.02,-284.22 -3.26,-392.5 7.69,-107.42 72.75,-124.44 184.95,-207.48 85.28,-63.11 622.26,-471.22 708.47,-471.37 99.15,-0.17 174.41,116.53 260.2,142.84l9.53 -22.38c-264.17,-238.02 -320.57,-167.64 -543.87,-2.65 -164.07,121.22 -328.25,231.41 -490.79,351.39 -111.79,82.52 -155.43,77.15 -159.74,262.35l0.51 1046.32c8.4,71.66 34.01,90.06 108.79,95.09 137.52,9.27 1645.71,4.37 1678.39,-7.67 96.78,-35.65 59.75,-253.57 59.75,-359.26l-1.23 -841.88c-11.71,-132.22 -112.15,-144.88 -183.46,-218.76l-25.63 15.04z"/>
  <path class="fil0" d="M843.48 1233.02l156.69 0.63c0.81,44 -13.91,63.9 -63.02,69.02 -73.96,7.72 -78.33,-18.31 -93.67,-69.65zm-160.24 -253.15c100.06,-9.24 157.05,-11.79 248.34,-48.62 73.36,-29.6 150.01,-92.14 199.46,-105.61 52.14,163.96 34.26,302.27 -121.49,358.93 -180.61,65.72 -305.81,-58.87 -326.31,-204.71zm0.44 -39.6c23.58,-202.06 255.18,-298.51 405.28,-151.17 -32.03,54.52 -113.82,88.94 -174.09,111.91 -73.51,28.01 -148.64,44.6 -231.19,39.26zm125.91 297.11c-23.18,40.27 -8.11,23.43 -56.19,46.07 -67.62,31.85 -160.97,55.81 -200.88,111.35 -39.16,54.51 -58.39,294.48 -21.44,357.31 64.24,-45.66 -37.98,-259.71 74.45,-358.86 38.36,-33.83 101.15,-53.03 145,-73.24 110.27,-50.84 58.46,11.88 161.24,19.65 109.27,8.26 73.14,-63.69 158.75,-31.97 378.7,140.29 154.8,276.46 235.06,442.93 48.79,-23.7 20.05,-280.51 14.94,-298.37 -26.39,-92.28 -100.79,-117.08 -196.13,-156.34 -253.04,-104.2 177.69,-109.35 56.76,-436.37 -115.51,-312.39 -608.41,-173.33 -525.48,170.55 17.57,72.86 56.34,112.39 106.79,152.49 52.28,41.56 26.8,-2.68 47.13,54.8z"/>
  <path class="fil0" d="M1267.16 38.2l773.09 3.81 -3.21 545.08 -772.37 -3.57 2.49 -545.33zm-24.52 -18.63c-27.28,81.17 -12.51,267.74 -12.52,362 -0.03,239.65 -22.93,241.16 115.5,240 198.02,-1.66 517.13,19.26 699.06,-4.54 41.62,-57.09 30.67,-43.77 29.88,-140.12l0.2 -407.53c-5.72,-43.79 -0.85,-28.59 -28.52,-50.34 -33.51,-27.34 -749.95,-23.56 -803.59,0.52z"/>
  <path class="fil0" d="M681.96 1506.56c60.12,16.26 177.63,61.44 223.87,87.14l-3.08 311.78 -220.84 -83.99 0.05 -314.93zm483.3 5.79l0.49 309.65 -225.17 82.3 2.92 -317.18 221.76 -74.78zm-515 338.96c395.23,125.98 153.55,123.41 549.14,-0.85l-2.05 -385.67c-90.39,10.27 -206.43,84.55 -272.6,85.51 -58.39,0.85 -188.29,-73.34 -277.77,-85.77l3.28 386.78z"/>
  <path class="fil0" d="M1247.09 1821.21c77.48,-0.21 228.51,17.61 289.46,-11.57 36.91,-32.2 32.48,-913.4 6.95,-944.59 -28.91,-35.31 -295.96,-17.02 -320.81,-13.9 8.22,41.7 -8.37,17.74 28.52,28.55l270.37 6.85 -1.69 898.47 -277.1 2.92c-1.26,4.35 -15.86,1.31 4.3,33.27z"/>
  <path class="fil0" d="M598.89 1818.44c9.96,-12.3 20.81,26.17 6.57,-30.21l-278.64 -2.96c-4.52,-95.16 24.24,-500.12 -16.1,-542.48l-19.56 522.81c17.51,93.41 190.4,60.07 307.72,52.84z"/>
  <path class="fil0" d="M1315.95 177.82c26.78,38.04 13.89,22.99 152.65,22.67 124.93,-0.3 483.29,23.4 523.42,-19.54 -47.7,-33.45 -633.56,-22.09 -676.07,-3.13z"/>
  <path class="fil0" d="M308.43 970.6c25.83,1.62 17.89,-64.7 19.72,-85.57l293.31 -5.51 2.9 -25.18c-70.03,-15.84 -231.41,-13.92 -304.35,-3.22 -37.78,43.34 -29.7,37.58 -29.11,114.25l17.53 5.23z"/>
  <path class="fil0" d="M1587.06 435.43c-51.43,-21.1 -229.8,-23.98 -274.74,4.25 23.41,26.68 5.9,19.97 61.18,19.97 155.8,0 187.38,18.8 213.56,-24.22z"/>
  <path class="fil0" d="M311.57 1165.51c26.33,-18.39 14.29,-92.97 3.46,-117.55 -29,13.79 -13.59,-18.07 -24.76,26.41l0.62 84.38 20.68 6.76z"/>
 </g>
</svg>
