<?xml version="1.0" encoding="UTF-8"?>
<!DOCTYPE svg PUBLIC "-//W3C//DTD SVG 1.1//EN" "http://www.w3.org/Graphics/SVG/1.1/DTD/svg11.dtd">
<!-- Creator: CorelDRAW -->
<svg xmlns="http://www.w3.org/2000/svg" xml:space="preserve" width="100%" height="100%" version="1.1" style="shape-rendering:geometricPrecision; text-rendering:geometricPrecision; image-rendering:optimizeQuality; fill-rule:evenodd; clip-rule:evenodd"
viewBox="0 0 2415.83 2521.19"
 xmlns:xlink="http://www.w3.org/1999/xlink"
 xmlns:xodm="http://www.corel.com/coreldraw/odm/2003">
 <defs>
  <style type="text/css">
   <![CDATA[
    .fil0 {fill:none}
    .fil1 {fill:#003399}
   ]]>
  </style>
 </defs>
 <g id="Layer_x0020_1">
  <metadata id="CorelCorpID_0Corel-Layer"/>
  <path class="fil0" d="M570.09 2049.94c23.64,145.54 -27.33,336.54 16.67,459.73 104.04,16.7 180.54,11.63 287.12,6.95l9.78 -460.02 205.49 -10.57c-16.55,-59.3 -129.56,-154.87 -171.86,-198.79 -45.58,-47.33 -141.8,-158.14 -203.61,-179.43 -63.56,63.63 -331.99,306.63 -343.91,375.68"/>
  <path class="fil1" d="M178.51 1740.43c-15.5,-422.92 6.09,-1295.69 4.33,-1514.28 -1.82,-225.69 56.02,-180.56 263.74,-180.33 254.91,0.29 1145.87,-24.44 1262.69,23.01 20.63,79.11 -4.26,250.99 31.22,303.97 38.22,-36.67 26.13,-42.83 26.64,-111.32 1.17,-156.01 14.75,-253.5 -161.67,-259.28 -172.08,-5.63 -355.65,1.41 -528.94,0.85 -175.91,-0.57 -351.87,-0.15 -527.78,-0.16 -487.81,0 -407.74,-69.17 -407.74,666.04 0,116.5 -11.54,747.55 -1.16,1089.82 12.24,-7.59 25.23,-13.68 38.66,-18.31z"/>
  <path class="fil1" d="M1563.22 336.91l362.45 349.63c-113.19,6.12 -255.27,15.48 -345.06,-10.53 -27.86,-90.67 -18,-229.8 -17.39,-339.1zm-1167.61 128.39c62.91,-58.54 12.61,-36.32 48.56,-157.3 114.74,-40.68 897.05,-26.23 1076.04,-17.19 3.15,493.4 -53.82,444.08 444.55,444.08l3.61 682.33 36.53 14.98c10.33,-108.94 20.9,-692.07 -8.8,-747.65 -15.94,-29.84 -328.87,-332.86 -380.57,-384.3 -83.98,-83.54 -177.8,-54.15 -317.68,-54.15l-783.26 0.39c-105.49,9.31 -171.14,120.32 -118.98,218.8z"/>
  <path class="fil1" d="M1601.5 2028.92l209.58 -4.43c53.91,-124.92 2.62,-352.56 18.72,-499.85l316.29 -4.09c17.53,150.52 -35.43,376.16 18.55,495.81l209.61 12.4c-16.85,73.65 -307.85,353.91 -377.26,404.61 -45.79,-15.31 -301.42,-266.33 -358.81,-334.14 -50.18,-59.28 -12.07,-10.42 -36.68,-70.31zm-41.75 -10.88c-6.36,85.4 145.01,199.93 196.78,251.94 272.23,273.51 199.01,265.79 480.23,-15.61 250.68,-250.84 239.49,-268.08 -41.93,-270.97 -7.07,-536.79 63.52,-506.1 -216.02,-506.89 -258.08,-0.73 -189.96,-14.58 -197.33,506.76 -109.95,1.36 -155.39,-17.79 -221.73,34.77z"/>
  <path class="fil1" d="M1638.26 2232.97l-629.84 -0.03c-91.7,0 -301.74,18.44 -442.39,3.41 -3.5,13.54 -7.58,26.84 -14.96,41.23 31.27,0.16 65.09,-1.57 99.82,-1.71 217.67,-0.88 876.29,15.23 1003.73,-9.67l-16.35 -33.24zm-1212.66 -725.82c8.27,-329.81 16.82,-662.64 -18.57,-713.07 -26.69,25.5 -14.08,2.07 -22.87,45.06 0,99.92 -6.01,382.53 -8.7,664.58 16.78,-0.9 33.65,0.25 50.14,3.43z"/>
  <path class="fil1" d="M628.58 530.48l483.85 2.99 -0.02 116.45 -478.34 1.57 -5.5 -121.01zm-39.48 151.57c137.82,23.77 425.18,19.95 566.76,3.16 5.97,-248.2 59.09,-195.93 -419.71,-195.93 -183.34,0 -155.87,-10.3 -147.05,192.77z"/>
  <path class="fil1" d="M588.04 1107.86c27.93,43.51 4.52,32.69 79.88,32.69l1055.55 0c81.54,0 56.05,11.8 78.1,-29.07 -148.67,-31.93 -1038.74,-26.32 -1213.52,-3.61z"/>
  <path class="fil1" d="M593.78 1315.72c38.46,48.94 154.22,27.27 278.44,27.26l646.95 0c119.67,0 248.61,20.92 282.39,-27.26 -39.57,-22.57 -1128.2,-35.85 -1207.78,0z"/>
  <path class="fil1" d="M589.1 922.72c151.73,30.06 1033.19,24.36 1212.68,6.95 -23.57,-45.71 1.19,-34.63 -78.31,-34.63l-1055.55 0c-39.5,0 -72.44,-5.78 -78.82,27.67z"/>
  <path class="fil1" d="M591.18 1519.96c45.18,58.96 300.85,26.13 400.22,26.13 83.9,0 363.91,38.82 404.83,-26.13 -46.41,-27.74 -759.56,-29.63 -805.04,0z"/>
  <path class="fil1" d="M406.95 713.99c30.06,-42.04 32.13,-113.59 2.18,-163.09 -40.01,19.88 -24.96,71.48 -24.97,118.03l22.79 45.06z"/>
  <path class="fil1" d="M39.63 1913.78c11.93,-69.04 280.35,-312.05 343.91,-375.68 61.81,21.29 158.03,132.09 203.61,179.43 42.3,43.92 155.31,139.49 171.86,198.79l-205.49 10.57 -9.78 460.02c-106.58,4.68 -183.08,9.75 -287.12,-6.95 -44,-123.2 6.97,-314.19 -16.67,-459.73l-200.32 -6.44zm665.57 42.88c55.04,0 59.23,-5.87 90.54,-26.73 6.8,-77.35 -26.39,-94.29 -66.67,-132.58 -403.2,-383.27 -243.62,-402.6 -651.94,-1.78 -196.77,193.15 34.27,156.55 126.63,164.48 31.3,320.72 -73.87,469.21 105.11,469.21 348.21,0 282.14,83.4 282.14,-472.61l114.21 0z"/>
 </g>
</svg>
