<?xml version="1.0" encoding="UTF-8"?>
<!DOCTYPE svg PUBLIC "-//W3C//DTD SVG 1.1//EN" "http://www.w3.org/Graphics/SVG/1.1/DTD/svg11.dtd">
<!-- Creator: CorelDRAW -->
<svg xmlns="http://www.w3.org/2000/svg" xml:space="preserve" width="100%" height="100%" version="1.1" style="shape-rendering:geometricPrecision; text-rendering:geometricPrecision; image-rendering:optimizeQuality; fill-rule:evenodd; clip-rule:evenodd"
viewBox="0 0 1963.02 2285.96"
 xmlns:xlink="http://www.w3.org/1999/xlink"
 xmlns:xodm="http://www.corel.com/coreldraw/odm/2003">
 <defs>
  <style type="text/css">
   <![CDATA[
    .fil0 {fill:#003399}
   ]]>
  </style>
 </defs>
 <g id="Layer_x0020_1">
  <metadata id="CorelCorpID_0Corel-Layer"/>
  <path class="fil0" d="M792 204.54c-41.68,-41.46 40.21,-68.84 -66.43,-171.73 -113,-109.02 -400.59,70.84 -452.03,286.44 -17.86,74.89 -0.12,111.11 40.78,152.98 51.75,52.98 66.69,38.83 147.23,39.97 13.89,19.77 45.17,47.78 64.08,66.11 11.66,11.31 24.15,15.67 19.15,34.84 -26.4,101.31 -38.36,156.26 47.66,234.57 77.46,70.52 202.56,30.85 290.14,-17.74 42.54,-23.61 107.06,-76.83 142.06,-114.71 19.02,-20.59 38.2,-44.5 55.19,-71.09 73.82,-115.56 128.89,-264.12 -7.61,-360.46 -55.78,-39.37 -141.88,-20.54 -203.44,-2.66l-76.79 -76.53z"/>
  <path class="fil0" d="M1194.44 2192.38c57.31,13.88 367.55,91.11 398.53,93.58 6.46,-27.37 21.49,-60.98 31.5,-88.97 10.67,-29.85 21.2,-59.04 31.86,-89.56 37.72,-107.98 55.91,-179.15 87.62,-275.56 99.94,-303.82 195.44,-804.81 219.07,-1109.58 -21.27,-11.16 -476.01,-115.82 -540.42,-131.14 -52.58,-12.51 -132.6,-36.13 -182,-42.17 -9.64,31.91 -22.85,55.91 -32.93,84.02 3,2.19 2.95,2.44 9.7,5.32l316.56 75.98c108.95,24.7 217.79,55 327.04,77.84 -28.91,250.01 -73.31,491.45 -129.6,728.16 -13.48,56.68 -27.93,115.63 -44.01,170.57l-47.78 166.69c-10.34,27.41 -16.98,53.57 -25.59,81.6 -20.78,67.59 -67.66,182.91 -80.54,237.15l-1409.02 -333.96c5.57,-40.21 35.44,-99.82 49.39,-143.63l131.26 -442.8c21.54,-78.81 136.28,-587.27 120.53,-634.21l-87.57 -9.55c-22.54,116.97 -36.67,234.22 -61.48,349.37 -24.31,112.84 -51.1,219.41 -77.71,328.62 -24.82,101.85 -105.76,369.79 -144.07,471.17l-54.79 146.7c382.26,95.22 802.7,189.46 1194.44,284.36z"/>
  <path class="fil0" d="M1016.85 1669.31l39.39 -173.2c78.13,10.48 97.6,26.39 77.58,108.05 -6.09,24.84 -11.49,62.69 -28.62,73.91 -19.45,12.74 -68.52,0.5 -88.35,-8.75zm94.19 -407.36c73.89,9.57 89.87,20.66 71.49,96.72 -17.47,72.28 -35.56,66.77 -105.98,53.71l34.49 -150.44zm110.59 201.1c27.72,-17.67 41.35,-44.52 50.54,-76.02 54.31,-186.12 -52.28,-192.5 -231.82,-231.1l-135 574.07c14.45,9.26 115.45,31 141.17,36.41 133.59,28.07 160.59,-54.89 182.54,-156.12 14.71,-67.85 3.21,-93.33 -34.63,-132.36l27.19 -14.87z"/>
  <path class="fil0" d="M799.32 1188.19c19.44,-8.85 44.27,0.73 54.65,14.02 22.21,28.45 -13.37,137.71 -25.09,181.21 -10.6,39.37 -18.13,79.88 -28.23,120.9 -8.76,35.55 -12.78,93.26 -44.78,104.28 -27.45,9.45 -77.33,0.66 -60.47,-74.52l57.47 -241.34c9.69,-42.54 12.66,-89.16 46.45,-104.55zm156.48 61c16.02,-153.05 -193.12,-208.36 -261.96,-84.99 -18.47,33.1 -90.11,329.68 -95.76,380.51 -17.48,157.44 195.91,205.73 262.11,88.69 16.85,-29.79 90.57,-336.03 95.61,-384.2z"/>
  <path class="fil0" d="M1258.32 1634.47c-5.83,51.98 -26.3,92.32 -1.09,144.75 48.91,101.74 268.31,115.57 269.31,-86.46 0.59,-118.02 -68.9,-148.83 -102.5,-234.11 -15.73,-39.91 -10.64,-110.44 29.22,-118.31 69.41,-13.71 54.56,53.17 48.72,92.39l84.66 17.69c33.49,-67.8 13.41,-183.87 -116.75,-197.2 -112.32,-11.5 -155.13,94.04 -150.14,178.18 5.94,100.31 82.41,145.66 107.37,224.63 14.44,45.67 4.96,109.66 -45.78,107.36 -70.9,-3.21 -38.06,-63.99 -36.94,-109.91l-86.09 -19z"/>
  <path class="fil0" d="M326.57 1594.87c183.87,57.8 202.49,-6.03 241.32,-165.31 13.83,-56.76 82.01,-330.81 85.02,-366.05l-88.57 -18.88c-14.2,26.67 -85.99,354.51 -104.6,431.65 -18.36,76.12 -56.12,46.08 -114.66,35.5l-18.5 83.09z"/>
  <path class="fil0" d="M1035.98 847.81c14.86,26.45 94.04,98.77 121.19,125.59 14.01,-1.56 29.12,-7.14 41.29,-14.31 9.45,-5.57 19.17,-16.48 26.38,-25.17 28.43,-34.24 14.35,-42.66 -5.78,-63.89 -20.02,-21.11 -82.82,-91.44 -105.35,-102.72 -12.21,26.92 -56.11,66.63 -77.72,80.51z"/>
 </g>
</svg>
