<?xml version="1.0" encoding="UTF-8"?>
<!DOCTYPE svg PUBLIC "-//W3C//DTD SVG 1.1//EN" "http://www.w3.org/Graphics/SVG/1.1/DTD/svg11.dtd">
<!-- Creator: CorelDRAW -->
<svg xmlns="http://www.w3.org/2000/svg" xml:space="preserve" width="100%" height="100%" version="1.1" style="shape-rendering:geometricPrecision; text-rendering:geometricPrecision; image-rendering:optimizeQuality; fill-rule:evenodd; clip-rule:evenodd"
viewBox="0 0 4472.53 3732.7"
 xmlns:xlink="http://www.w3.org/1999/xlink"
 xmlns:xodm="http://www.corel.com/coreldraw/odm/2003">
 <defs>
  <style type="text/css">
   <![CDATA[
    .fil0 {fill:#003399}
   ]]>
  </style>
 </defs>
 <g id="Layer_x0020_1">
  <metadata id="CorelCorpID_0Corel-Layer"/>
  <path class="fil0" d="M4008.08 3223.24c25.04,3.57 66.24,9.31 75.84,31.03 13.39,30.32 -6.33,57.58 -22.59,71.3 28.38,41.52 -3.88,130.25 -96.8,78.85l43.55 -181.17zm-89.77 -17.03c17.57,-6.04 45.92,-1.2 57.14,16.44 16.05,25.24 -12.34,160.72 -44.5,170.92 -22.27,7.06 -49.42,-3.48 -57.74,-17.19 -15.05,-24.79 11.96,-158.78 45.11,-170.18zm145.82 -151.39l6.25 -20.92c40.58,-1.66 185.74,40.7 230.5,49.67 0.84,124.07 -71.91,391.48 -115.48,494.06 -27.82,4.2 -442.15,-99.68 -505.75,-115.19 0.42,-15.35 51.37,-157.32 60.86,-194.94 17.13,-67.84 35.71,-144.93 44.33,-217.03l26.21 1.73c3.63,35.94 -27.5,165.02 -37.39,202.89l-55.67 187.01 449.54 106.48c6.61,-32.92 23.1,-72.77 32.93,-105.43 26.92,-89.48 66.3,-249.21 69.08,-337.39 -30.28,-5.14 -190.31,-41.82 -205.41,-50.94zm-213.66 -9.34c-28.18,-34.53 -26.71,-25.77 -43.02,-28.37 -114.89,-18.34 17.91,-194.66 92.5,-157.31 15.89,7.95 22.58,20.25 25.84,41.79 4.59,30.3 9.46,22.16 24.33,41.79 22.39,-2.32 44.62,-11.8 66.29,0.64 59.27,34.02 10.11,114.86 -17.63,143.61 -42.59,44.16 -167.67,100.78 -148.32,-42.14zm-295.84 564.83c2.52,29.7 23.69,56.8 53.01,64.99 29.91,8.35 501.58,3.79 568.43,3.79 285.18,0 295.23,33.33 294.92,-166.8 -0.12,-76.65 -0.17,-152.2 -0.09,-228.73 0.07,-68.98 4,-414.9 -0.62,-452.36 -9.85,-79.76 -87.07,-68.85 -163.5,-68.85l-457.47 0c-290.39,0 -295.09,-32.22 -295.08,166.44 0,105.71 -4.64,622.13 0.41,681.53z"/>
  <path class="fil0" d="M500.84 3221.8c28.2,2.69 71.71,10.41 79.07,31.46 10.12,28.91 -7.35,59.44 -23.49,72.31 32.37,64.84 -20.05,123.39 -98.15,78.95l42.57 -182.72zm-90.25 -13.33c111.73,-48.37 46.91,172.59 18.48,184.46 -19.85,8.28 -52.35,-0.78 -61.14,-12.41 -17.37,-22.96 3.77,-89.24 12.32,-124.63 11.85,-49.01 16.37,-41.38 30.34,-47.43zm283.35 234.31c29.49,-95.19 61.8,-237.96 68.93,-335.78 -42.68,-10.92 -177.84,-35.79 -206.01,-52.39l7.86 -22.2c22.65,-2.56 196.08,42 231.11,51.21 -3.32,100.15 -76.88,446.41 -120.97,499.03l-500.21 -120.61c6.6,-40 22.75,-64.58 32.09,-100.91 31.52,-122.7 52.18,-161.41 71.22,-311.58l26.91 2.61c5.45,32.04 -26.78,165.9 -36.69,202.64 -8.49,31.44 -17.23,64.5 -26.5,94.58 -8.5,27.55 -24.99,64.83 -29.3,92l448.58 104.67c6.85,-31.3 22.85,-70.56 32.98,-103.26zm-350.29 -397.3c-18.08,-20.25 -14.97,-23.37 -46.24,-28.21 -22.23,-3.45 -33.47,-10.36 -39.46,-31.15 -10.49,-36.39 25.76,-84.5 40.83,-97.53 17.85,-15.44 67.27,-49.74 100.99,-25.46 32.74,23.57 10.62,81.02 58.47,77.17 26.88,-2.15 41.56,-8.57 60.86,9.17 101.89,93.63 -205.96,313.7 -175.44,96.02zm-340.77 214.73c8.87,51.28 4.56,60.87 22.91,110.67 7,19 7.26,31.83 15.37,50.39 20.78,47.59 22.71,41.07 32.31,60.61 9.62,19.58 25.55,46.67 39.79,60.37 0.73,0.7 1.78,1.59 2.52,2.27l25.14 29.96c14.69,19.09 37.31,35.88 56.73,51.29 97.56,77.37 219.07,116.96 351.18,104.74 22.22,-2.06 32.04,-0.57 56.25,-4.58 18.02,-2.99 35.74,-8.08 50.38,-11.84l71.69 -26.74c0.39,-0.19 7.52,-3.86 9.09,-4.65 16.98,-8.46 -10.41,5.15 9.61,-4.69 94.34,-46.36 128.8,-90.13 183.65,-159.44l15.55 -21.85c56.22,-96.66 77.06,-183.99 75.57,-306.57 -0.53,-43.78 -19.76,-123.08 -37.82,-161.45 -6.01,-12.77 -3.91,-9.84 -9.64,-22.79 -49.17,-110.91 -164.8,-219.98 -277.6,-257.72 -111.66,-37.37 -206.92,-46.82 -328.71,-12.65 -86.03,24.14 -195.93,92 -248.59,164.8l-5.7 8.08c-33.23,45.43 -45.45,58.36 -75.4,130.87 -19.86,48.09 -45.87,153.82 -34.26,220.91z"/>
  <path class="fil0" d="M2830.22 3222.26c25.72,5.15 69.08,8.93 78.2,31.59 11.61,28.87 -8.86,60.02 -24.07,71.72 8.85,15.1 12.98,20.63 9.31,46.11 -2.46,17.12 -6.19,27.33 -19.65,38.23 -21.75,17.61 -55.38,10.1 -79.25,-0.83l-7.15 -4.15 42.61 -182.67zm-136.85 158.91c-8.28,-52.28 5.32,-79.26 19.22,-132.31 21.73,-82.94 84.77,-30.76 87.11,-26.74 14.26,24.53 -9.31,102.22 -16.86,128.75 -12.76,44.78 -18.89,61.7 -89.46,30.3zm344.53 6.47c4.6,-19.24 10.16,-30.7 14.92,-51.49 15.18,-66.33 36.78,-159.79 39.83,-229.81l-206.06 -51.51 10.75 -24.69 227.61 53.81c-6.07,100.73 -73.71,435.14 -120.46,498.43l-502.33 -121.44c5.97,-26.9 22.77,-66.91 32.36,-96.77 31.41,-97.82 61.11,-211.72 73.7,-314.03l25.92 2.06c9.51,88.07 -88.3,357.16 -93.07,390.31 151.38,29.57 295.91,72.36 444.66,104.87l4.22 -6.63c0.65,-1.18 2.91,-5.37 3.57,-6.74l29.89 -91.41c7.13,-20.43 9.57,-34.36 14.5,-54.96zm-350.54 -530.24c64.78,-15.44 59.29,54.03 69.13,67.43 30.19,41.13 63.51,-14.35 100.9,34.12 24.58,31.86 0.91,80.59 -16.67,104.98 -62.72,86.99 -162.87,92.8 -171.41,27.53 -4.7,-35.89 15.46,-34.96 -6.61,-58.86 -20.86,-22.57 -22.3,-6.97 -51.35,-19.12 -55.4,-23.17 -9.68,-135.65 76.02,-156.07zm-349.1 421.5c24.93,260 261.56,478.15 554.78,449.6 94.77,-9.23 203.68,-53.2 268.44,-110.31 52.29,-46.11 28.42,-26.19 62.58,-63.63 91.42,-100.2 137.37,-243.67 121.28,-383 -32.47,-281.11 -278.97,-482.45 -557.48,-450.94 -263.44,29.8 -478.37,258.13 -449.59,558.28z"/>
  <path class="fil0" d="M2133.23 204.54c-41.68,-41.46 40.21,-68.84 -66.43,-171.73 -113,-109.02 -400.59,70.84 -452.03,286.44 -17.86,74.89 -0.12,111.11 40.78,152.98 51.75,52.98 66.69,38.83 147.23,39.97 13.89,19.77 45.17,47.78 64.08,66.11 11.66,11.31 24.15,15.67 19.15,34.84 -26.4,101.31 -38.36,156.26 47.66,234.57 77.46,70.52 202.56,30.85 290.14,-17.74 42.54,-23.61 107.06,-76.83 142.06,-114.71 19.02,-20.59 38.2,-44.5 55.19,-71.09 73.82,-115.56 128.89,-264.12 -7.61,-360.46 -55.78,-39.37 -141.88,-20.54 -203.44,-2.66l-76.79 -76.53z"/>
  <path class="fil0" d="M2535.67 2192.38c57.31,13.88 367.55,91.11 398.53,93.58 6.46,-27.37 21.49,-60.98 31.5,-88.97 10.67,-29.85 21.2,-59.04 31.86,-89.56 37.72,-107.98 55.91,-179.15 87.62,-275.56 99.94,-303.82 195.44,-804.81 219.07,-1109.58 -21.27,-11.16 -476.01,-115.82 -540.42,-131.14 -52.58,-12.51 -132.6,-36.13 -182,-42.17 -9.64,31.91 -22.85,55.91 -32.93,84.02 3,2.19 2.95,2.44 9.7,5.32l316.56 75.98c108.95,24.7 217.79,55 327.04,77.84 -28.91,250.01 -73.31,491.45 -129.6,728.16 -13.48,56.68 -27.93,115.63 -44.01,170.57l-47.78 166.69c-10.34,27.41 -16.98,53.57 -25.59,81.6 -20.78,67.59 -67.66,182.91 -80.54,237.15l-1409.02 -333.96c5.57,-40.21 35.44,-99.82 49.39,-143.63l131.26 -442.8c21.54,-78.81 136.28,-587.27 120.53,-634.21l-87.57 -9.55c-22.54,116.97 -36.67,234.22 -61.48,349.37 -24.31,112.84 -51.1,219.41 -77.71,328.62 -24.82,101.85 -105.76,369.79 -144.07,471.17l-54.79 146.7c382.26,95.22 802.7,189.46 1194.44,284.36z"/>
  <path class="fil0" d="M2358.07 1669.31l39.39 -173.2c78.13,10.48 97.6,26.39 77.58,108.05 -6.09,24.84 -11.49,62.69 -28.62,73.91 -19.45,12.74 -68.52,0.5 -88.35,-8.75zm94.19 -407.36c73.89,9.57 89.87,20.66 71.49,96.72 -17.47,72.28 -35.56,66.77 -105.98,53.71l34.49 -150.44zm110.59 201.1c27.72,-17.67 41.35,-44.52 50.54,-76.02 54.31,-186.12 -52.28,-192.5 -231.82,-231.1l-135 574.07c14.45,9.26 115.45,31 141.17,36.41 133.59,28.07 160.59,-54.89 182.54,-156.12 14.71,-67.85 3.21,-93.33 -34.63,-132.36l27.19 -14.87z"/>
  <path class="fil0" d="M2140.54 1188.19c19.44,-8.85 44.27,0.73 54.65,14.02 22.21,28.45 -13.37,137.71 -25.09,181.21 -10.6,39.37 -18.13,79.88 -28.23,120.9 -8.76,35.55 -12.78,93.26 -44.78,104.28 -27.45,9.45 -77.33,0.66 -60.47,-74.52l57.47 -241.34c9.69,-42.54 12.66,-89.16 46.45,-104.55zm156.48 61c16.02,-153.05 -193.12,-208.36 -261.96,-84.99 -18.47,33.1 -90.11,329.68 -95.76,380.51 -17.48,157.44 195.91,205.73 262.11,88.69 16.85,-29.79 90.57,-336.03 95.61,-384.2z"/>
  <path class="fil0" d="M2599.54 1634.47c-5.83,51.98 -26.3,92.32 -1.09,144.75 48.91,101.74 268.31,115.57 269.31,-86.46 0.59,-118.02 -68.9,-148.83 -102.5,-234.11 -15.73,-39.91 -10.64,-110.44 29.22,-118.31 69.41,-13.71 54.56,53.17 48.72,92.39l84.66 17.69c33.49,-67.8 13.41,-183.87 -116.75,-197.2 -112.32,-11.5 -155.13,94.04 -150.14,178.18 5.94,100.31 82.41,145.66 107.37,224.63 14.44,45.67 4.96,109.66 -45.78,107.36 -70.9,-3.21 -38.06,-63.99 -36.94,-109.91l-86.09 -19z"/>
  <path class="fil0" d="M1667.8 1594.87c183.87,57.8 202.49,-6.03 241.32,-165.31 13.83,-56.76 82.01,-330.81 85.02,-366.05l-88.57 -18.88c-14.2,26.67 -85.99,354.51 -104.6,431.65 -18.36,76.12 -56.12,46.08 -114.66,35.5l-18.5 83.09z"/>
  <path class="fil0" d="M2377.21 847.81c14.86,26.45 94.04,98.77 121.19,125.59 14.01,-1.56 29.12,-7.14 41.29,-14.31 9.45,-5.57 19.17,-16.48 26.38,-25.17 28.43,-34.24 14.35,-42.66 -5.78,-63.89 -20.02,-21.11 -82.82,-91.44 -105.35,-102.72 -12.21,26.92 -56.11,66.63 -77.72,80.51z"/>
  <path class="fil0" d="M1683.07 3205.26c25.04,3.57 66.24,9.31 75.84,31.03 13.39,30.32 -6.33,57.58 -22.59,71.3 28.38,41.52 -3.88,130.25 -96.8,78.85l43.55 -181.17zm-89.77 -17.03c17.57,-6.04 45.92,-1.2 57.14,16.44 16.05,25.24 -12.34,160.72 -44.5,170.92 -22.27,7.06 -49.42,-3.48 -57.74,-17.19 -15.05,-24.79 11.96,-158.78 45.11,-170.18zm145.82 -151.39l6.25 -20.92c40.58,-1.66 185.74,40.7 230.5,49.67 0.84,124.07 -71.91,391.48 -115.48,494.06 -27.82,4.2 -442.15,-99.68 -505.75,-115.19 0.42,-15.35 51.37,-157.32 60.86,-194.94 17.13,-67.84 35.71,-144.93 44.33,-217.03l26.21 1.73c3.63,35.94 -27.5,165.02 -37.39,202.89l-55.67 187.01 449.54 106.48c6.61,-32.92 23.1,-72.77 32.93,-105.43 26.92,-89.48 66.3,-249.21 69.08,-337.39 -30.28,-5.14 -190.31,-41.82 -205.41,-50.94zm-213.66 -9.34c-28.18,-34.53 -26.71,-25.77 -43.02,-28.37 -114.89,-18.34 17.91,-194.66 92.5,-157.31 15.89,7.95 22.58,20.25 25.84,41.79 4.59,30.3 9.46,22.16 24.33,41.79 22.39,-2.32 44.62,-11.8 66.29,0.64 59.27,34.02 10.11,114.86 -17.63,143.61 -42.59,44.16 -167.67,100.78 -148.32,-42.14zm-295.84 564.83c2.52,29.7 23.69,56.8 53.01,64.99 29.91,8.35 501.58,3.79 568.43,3.79 285.18,0 295.23,33.33 294.92,-166.8 -0.12,-76.65 -0.17,-152.2 -0.09,-228.73 0.07,-68.98 4,-414.9 -0.62,-452.36 -9.85,-79.76 -87.07,-68.85 -163.5,-68.85l-457.47 0c-290.39,0 -295.09,-32.22 -295.08,166.44 0,105.71 -4.64,622.13 0.41,681.53z"/>
 </g>
</svg>
