<?xml version="1.0" encoding="UTF-8"?>
<!DOCTYPE svg PUBLIC "-//W3C//DTD SVG 1.1//EN" "http://www.w3.org/Graphics/SVG/1.1/DTD/svg11.dtd">
<!-- Creator: CorelDRAW -->
<svg xmlns="http://www.w3.org/2000/svg" xml:space="preserve" width="100%" height="100%" version="1.1" style="shape-rendering:geometricPrecision; text-rendering:geometricPrecision; image-rendering:optimizeQuality; fill-rule:evenodd; clip-rule:evenodd"
viewBox="0 0 6802.53 4831.13"
 xmlns:xlink="http://www.w3.org/1999/xlink"
 xmlns:xodm="http://www.corel.com/coreldraw/odm/2003">
 <defs>
  <style type="text/css">
   <![CDATA[
    .fil0 {fill:#003399}
   ]]>
  </style>
 </defs>
 <g id="Layer_x0020_1">
  <metadata id="CorelCorpID_0Corel-Layer"/>
  <path class="fil0" d="M3916.48 3567.36l41.07 257.89c209.19,-1.93 816.9,-89.19 879.58,32.56 23.72,119.65 -108.11,192.44 -194.46,242.26 -86.24,49.76 -226.86,94.22 -185.39,218.12 139.42,43.29 213.65,-78.65 322.35,-102.28 4.35,-89.64 7.58,-10.73 16.83,-74.06 54.51,-81.98 133.33,-95.84 249.69,-111.41 179.8,-15.64 398.72,0.45 529.97,88.18l16.03 11.12c120.32,94.17 -32.55,210.76 -102.66,226.17 -129.53,28.46 -333.93,55.06 -453.51,17.73 -33.39,-10.42 -60.4,-19.67 -92.37,-32.03 -113.25,-43.77 -92.96,-67.56 -158.03,-91.95 -121.55,50.8 -204.4,165.37 -365.34,94.58 -46.67,-164.6 42.08,-196.07 158.22,-255.15 48.15,-24.49 255.28,-133.49 216.92,-208.95 -45.93,-90.37 -648.87,-19.77 -804.46,-12.45l-9.44 123.98c39.83,-12.45 77.57,-13.31 124.3,-12.9 99.24,0.87 81.17,-14.8 91.95,54.13 -6.08,44.53 -45.36,40.32 -120.69,38.56 -41.9,-0.98 -83.36,-0.89 -125.28,-0.89l-1249.84 -0c-83.32,0 -166.65,-0.02 -249.97,-0.04 -161.97,-0.05 -229.22,31.08 -218.37,-51.51 8.85,-67.47 166.27,-38.55 207.09,-25.81l51.03 -422.63c-271.66,5.97 -630.63,-21.91 -886.44,3.15 -56.15,5.5 -467.37,287.28 -535.44,338.13l-794.07 528.87c-50.68,32.47 -87.99,52.76 -136.16,84.98l-97.43 70.03c-27.56,20.3 -10.43,7.39 -25.03,22.76l6772.89 0.98c-28.19,-36.09 -262.33,-189.34 -297.41,-210.74 -108.23,-66.05 -190.38,-122.88 -293.85,-192.2l-579.45 -390.51c-100.01,-70 -190.19,-121.59 -294.98,-192.95 -87.9,-59.86 -54.75,-64.02 -192.17,-61.82 -206.28,3.31 -1098.72,11.22 -1215.67,-3.89z"/>
  <path class="fil0" d="M1062.09 1964.61c23.52,-11.33 74.52,-27.73 107.69,3.17 51.49,47.96 -12.77,41.43 24.98,102.85 47.81,-189.95 -34.22,-1676.44 14.99,-1904.6 108.5,-23.52 3666.78,-23.64 3775.81,-0.07 24.13,105.93 11.41,1929.89 7.14,2186l-924.12 2.15 -1.5 12.29 917.68 4.44 7.5 184.89c-588.61,15.88 -1211.67,2.57 -1804.3,2.38l-1360.94 -0.01c-57.13,-0.02 -386.03,-18.93 -424.41,18.65 31.11,28.54 10.7,1.77 33.74,39.67 -12.98,41.88 -37.49,59.8 -67.61,83.48 -39.06,-14.83 -92.83,-77.61 -109.93,11.3l3867.06 2.46 32.49 -0.15c3.92,-448.4 -3,-897.23 1.34,-1344.97 1.8,-185.41 11.99,-1258.64 -7.81,-1354.76 -227.23,-26.2 -3219.07,-6.95 -3824.85,-6.96l-195.72 -1.51c-94.3,7.68 -65.81,80.41 -66.92,237.5l-1.07 734.93c0.06,307.75 20.59,688.43 -1.24,986.88z"/>
  <path class="fil0" d="M6802.53 4627c-567.13,0 -1146.38,-10.2 -1712.04,0.65 -562.87,10.8 -1131.38,-10.1 -1694.23,0.75 -562.21,10.83 -1130.89,-6.22 -1694.23,0.48 -285.82,3.4 -1539.47,-22.36 -1699.83,7.58l-2.2 194.67 6801.78 -0.99 0.75 -203.14z"/>
  <path class="fil0" d="M2491.69 3570.57l-51.03 422.63c-40.82,-12.74 -198.24,-41.66 -207.09,25.81 -10.85,82.59 56.4,51.46 218.37,51.51 83.32,0.02 166.65,0.04 249.97,0.04l1249.84 0c41.93,0 83.38,-0.09 125.28,0.89 75.33,1.76 114.61,5.97 120.69,-38.56 -10.78,-68.93 7.28,-53.26 -91.95,-54.13 -46.73,-0.41 -84.46,0.45 -124.3,12.9l9.44 -123.98c-46.44,-15.72 -17,5.51 -50.27,-29.21l16.91 -13.24 -41.07 -257.89c-25.67,-37.04 -39.34,-254.39 -49.17,-298.08 -10.11,-44.95 -6.65,-20.89 -13.78,-34.46 -12.11,37.98 7.92,23.41 -26.77,34.3l-1249.84 0c-37.03,-16.72 -24.98,5.01 -20.1,-41.73 -24.46,17.79 -52.79,290.89 -65.14,343.19z"/>
  <path class="fil0" d="M4448.66 2018.76c-21.17,7.24 -203.64,93.48 -236.62,-57.2 -8.68,-39.65 5.57,-66.04 27.35,-97.52 68.64,-99.25 266.3,-97.5 209.28,154.72zm-417.36 -1490.63c48.61,160.21 337.57,949.89 337.89,1046.75 -43.88,32.17 -211.22,87.19 -264.68,89.94 -37.12,-44.01 -350.93,-988.38 -350.24,-1054.07l277.03 -82.62zm-386.19 32.99c-4.25,65.22 550.56,1708.92 584.39,1748.28 71.93,-15.43 385.24,-117.56 431.85,-151.26l-578.24 -1738.65c-67,6.51 -376.29,111.95 -438,141.63z"/>
  <path class="fil0" d="M2043.02 1921.05c34.06,46.27 71.41,80.27 39.22,158.07 -22.03,53.23 -71.07,89.46 -144.24,66.87 -114.21,-35.26 -132.3,-264.17 105.03,-224.95zm-213.78 -1248.83c0,-93.51 8.86,-79.63 107.92,-78.05 56.79,0.91 116.83,-4.96 172.08,4.2 22.62,41.05 17.92,23.17 17.85,73.84l-5.96 1034.36c-68.61,-1.05 -236.59,7.07 -290.15,-10.06l-1.74 -1024.3zm379.9 1653.59l-1.93 -1817.04 -453.45 -4.15c-18.31,286.49 -2.58,625.3 -2.58,917.5 0,186.31 -23.85,772.37 9.17,913.28 86.14,19.13 389.51,17.23 448.78,-9.59z"/>
  <path class="fil0" d="M3248.63 2033.16c-11.51,-124.1 231.97,-182.24 241.68,-12.43 9.4,164.46 -229.19,147.08 -241.68,12.43zm258.58 -1435.06l18.61 268.54c0.02,190.06 11.61,718.26 -3.15,837.17l-294.83 5.28c-24.09,-168.28 -2.93,-520.52 -2.93,-703.58 0,-90.41 -12.81,-271.95 -4.41,-349.06 8.77,-80.55 38.99,-66.59 119.44,-65.55 53.53,0.7 123.24,-5.19 167.28,7.2zm105.24 1758.54l-2.73 -1849.75 -462.31 -1.13 -0.13 1849.85 465.17 1.04z"/>
  <path class="fil0" d="M2807.15 1941.36c126.52,-92.36 304.43,47.24 191.13,165.74 -104.6,109.4 -242.62,32.59 -191.13,-165.74zm-48.74 -1345.77l295.4 3.13 -3.92 1107.76 -293.54 -5.85 2.06 -1105.04zm-83.8 1735.13c89.93,26.35 350.65,13.77 458.3,10.14l0.22 -1835.22 -460.56 3.61 2.04 1821.47z"/>
  <path class="fil0" d="M2326.89 1972.43c39.76,-34.21 87.11,-82.68 166.74,-51.77 55.4,21.51 85.1,91.98 57.69,155.73 -55.14,128.24 -249.26,106.73 -224.43,-103.96zm-39.77 -1300.21c0,-82.73 1.3,-78.02 81.5,-78.36 224.67,-0.69 227.66,-36.02 227.78,106.13 0.18,229.31 11.3,815.83 -5.52,1005.81 -71.34,-0.22 -243.72,9.98 -301.85,-9.48l-1.91 -1024.1zm-77.98 1653.59l17.69 26.56c73.89,5.87 149.35,0.76 225.11,0.91 81.66,0.16 169.87,19.57 222.67,-22.56l-2.04 -1821.47 -465.36 -0.48 1.93 1817.04z"/>
  <path class="fil0" d="M1123.47 2740.04l-52.73 0.67 -20.18 94.54 1.72 268.2 38.02 36.88c198.68,22.21 525.43,1.77 736.53,1.46 53.71,-0.07 682.42,-14.35 730.5,16.17l-0.51 69.42c-4.89,46.74 -16.93,25.01 20.1,41.73l1249.84 0c34.69,-10.89 14.66,3.68 26.77,-34.3l-5.73 -89.65c228.65,-1.7 461.66,4.5 689.76,-2.43 115.9,-3.53 230.63,1.94 344.44,2.19 334.35,0.72 302.29,16.49 292.08,-345.93l-15.72 -85.48 -32.49 0.15c13.59,98.2 21.84,298.63 -2.27,381.21 -118.46,29.46 -3996.3,6 -4019.67,-3.45 -39.98,-80.84 -10.75,-259.25 -16.17,-365.85l35.7 14.48z"/>
  <path class="fil0" d="M981.81 2183.9c283.63,-125.31 449.12,313.87 168.09,421.91 -277.78,106.79 -464.25,-291.07 -168.09,-421.91zm80.27 -219.29l-5.55 68.51c-17.84,6.17 15.89,18.15 -34.73,10.72 -39.59,-5.81 -9.18,2.36 -24.82,-12.8 -0.76,-0.73 -22.68,-40.65 -30.98,-51.65 -43.46,-1.56 -70.08,14.79 -106.87,26.19 9.96,50.41 25.48,59.7 9.72,110.52 -63.86,6.38 -65.18,-15.52 -113.35,-42.43 -19.25,42.64 -31.62,48.62 -60.22,84.47 11.44,14.89 55.47,54.29 58.09,73.65 8.11,60.13 -59.48,35.46 -106.85,38.25 -39.83,139.46 5.94,92.2 79.48,137.48 -0.26,71.5 -18.72,58.2 -83.07,80.05 11.38,57.41 15.63,68.81 45.33,109.09 50.17,-18.39 140.31,-38.37 98.48,46.97 -21.11,43.07 -15.07,0.1 -29.95,58.29l81.9 57.87 55.17 -60.33c79.29,33.5 34.88,46.59 65.09,117.56l91.6 18.22 20.18 -94.54 52.73 -0.67 45.87 77.53c62.48,-11.16 64.86,-14.56 100.45,-48.39l-10.98 -57.98c17.1,-88.91 70.87,-26.13 109.93,-11.3 30.11,-23.67 54.63,-41.6 67.61,-83.48 -23.04,-37.9 -2.62,-11.13 -33.74,-39.67 -65.02,-80.04 29.41,-67.67 93.51,-68.85l-4.48 -113.68c-55.3,-21.7 -56.39,5.25 -75.8,-44.26 9.15,-56.03 14.18,-24.57 69.04,-68.16l-23.03 -93.84c-99.64,-12.65 -52.71,36.18 -130.31,-18.7 15.73,-52.86 30.7,-26.38 34.46,-94.44 -123.71,-122.25 -88.51,45.02 -171.25,-4.19 -37.74,-61.42 26.51,-54.89 -24.98,-102.85 -33.17,-30.89 -84.17,-14.5 -107.69,-3.17z"/>
  <path class="fil0" d="M4796.47 4141.85c-71.9,185 379.71,195.55 530.74,145.96 118.08,-38.77 155.43,-138.17 29.16,-203.82 -73.3,-38.11 -210.28,-71.64 -310.21,-53.55 -116.35,15.57 -195.18,29.43 -249.69,111.41z"/>
  <path class="fil0" d="M887.24 2449.77c53.52,194.64 415.78,151.69 351.87,-106.93 -54.43,-220.27 -421.2,-145.22 -351.87,106.93z"/>
  <path class="fil0" d="M618.32 3015.47c143.17,-73.91 226.24,150.49 85.23,200.2 -128.03,45.13 -216.9,-132.23 -85.23,-200.2zm12.02 -88.47c-34.37,-20.88 -30.17,-11.26 -58.08,-3.14l2.09 51.61c-94.94,-3.98 -89.15,-19.75 -57.27,78.48 -63.72,1.78 -27.54,-15.45 -60.33,20.74 16.06,44.13 14.18,21.78 45.64,55.55 -46.31,47.48 -38.72,-5.02 -29.87,65.01 32.55,23.96 3.87,10.8 57.21,10.29 0.74,59.04 -18.69,103.67 61.33,59.7 2.27,3.28 4.54,8.01 5.91,10.4l15.92 28.76c14.49,21.28 -2.98,4.14 19.83,18.55 41.2,-11.62 25.25,-1.57 41.66,-40.82 47.8,11.59 25.43,22.3 69.44,25.15 33.8,-37.53 11.93,-4.81 21.34,-57.84 46,-6.69 101.73,16.09 56.15,-63.65 3.45,-2.57 8.41,-5.02 10.96,-6.78 2.44,-1.69 7.61,-4.71 10.37,-6.7 2.57,-1.86 6.95,-4.74 9.39,-6.61 28.49,-21.8 0.43,11.14 20.45,-21.57l-20.36 -71.35c50.75,-75.05 -35.93,-61.35 -55.51,-61.6 17.85,-53.66 22.37,-29.36 -1.93,-77.35l-62.39 25.06c-15.35,-66.34 4.91,-28.73 -30.13,-56.97 -36.37,9.5 -37.55,19.23 -55.55,39.28l-16.27 -14.19z"/>
  <path class="fil0" d="M5343.18 3033.03c-58.06,-161.89 174.57,-205.02 206.7,-81.17 41.16,158.65 -166.24,193.98 -206.7,81.17zm136.15 -254.65c-40.73,14.67 -28.22,21.32 -56,42.33l-41.2 -31.54c-49.3,24.58 -34.41,-4.41 -29.09,64.28 -41.96,-5.45 -44.46,-15.87 -76.86,3.83 -3.06,64.22 -4.44,3.67 19.49,65.37 -49.72,9.94 -31.66,0.35 -59.55,27.04 9.95,49.41 6.42,22.59 45.83,55.55l-26.13 28.19c-13.36,22.41 -17.89,-30.8 -8.38,25.23 6.61,38.91 34.98,23.29 68.46,22.52 -18.26,63.61 -23.31,45.62 16.79,83.16l27.97 -14.19c2.31,-0.96 10.09,0.94 11.92,-3.96 1.98,-5.3 8.6,-2.85 12.98,-3.96 5.06,59.75 -9.78,31.79 24.33,58.74 33.72,-7.12 16.68,-0.24 37.36,-18.97 2.61,-2.37 10.87,-10.88 12.22,-17.15 1.08,-5.01 3.65,-6.47 5.98,-9.35l14.79 15.92c2.17,1.59 6.26,4.86 8.53,6.31 14.09,8.99 4.44,5.66 32.23,9.47 71.4,-59.8 -37.93,-46.44 41.38,-58.96 1.51,-0.24 6.11,-0.41 7.8,-0.67 26.79,-4.06 17.82,21.68 27.73,-4.51 1.87,-4.94 36.83,0.47 3.17,-62.26l52 -27.77c-1.36,-57.26 -7.17,-35.03 -37.54,-69.44 24.26,-23.86 31.09,-21.74 24.02,-65.53 -19.27,-12.17 -15.88,-6.4 -58.72,-8.32 0.33,-107.06 7.04,-75.26 -75.24,-52.14 -5.41,-63.62 9.48,-30.52 -26.27,-59.22z"/>
  <path class="fil0" d="M2354.72 845.07c136.19,57.54 240.92,-40.62 166.72,-172.93 -176.34,-38.94 -175.71,-4.48 -166.72,172.93z"/>
  <path class="fil0" d="M2994.69 853.9c5.13,-43.76 20.3,-157.45 -15.36,-177.35 -27.6,-15.39 -129.03,-24.94 -153.78,-4.33 -12.58,35.44 -11.72,95.14 -4.44,137.89 11.69,68.71 91.09,51.7 173.58,43.79z"/>
  <path class="fil0" d="M3300.01 854.28l153.36 2.76c3.11,-37.6 10.59,-107.05 4.37,-141.38 -10.17,-56.09 -37.7,-42.19 -103.29,-51.38 -53.49,-7.5 -97.21,-36.66 -75.24,132.48l20.8 57.52z"/>
  <path class="fil0" d="M3826.13 654.99c-16.13,51.49 37.5,155.99 62.32,185.48l141.33 -40.12c10.67,-59.74 -20.21,-137.26 -50.19,-169.86l-153.46 24.5z"/>
  <path class="fil0" d="M1907.58 854.16l141.81 3.24c25.08,-51.72 13.96,-114.71 13.7,-177.61 -243.64,-79.88 -165.65,157.08 -155.51,174.37z"/>
  <path class="fil0" d="M2361.22 1956.13c-20.33,84.57 -36.87,97.58 32.04,158.07 71.47,9.38 84.09,3.24 134.56,-19.83l6.85 -109.36c-66.55,-66.32 -86.17,-55.48 -173.44,-28.88z"/>
  <path class="fil0" d="M3323.3 2114.83c64.3,8.06 91.54,-0.17 132.86,-20.12 58.22,-272.45 -314.18,-157.23 -132.86,20.12z"/>
  <path class="fil0" d="M3003.12 2062.44c10.67,-178.17 -159.49,-137 -182.45,-63.87 -33.62,107.09 94.47,173.44 182.45,63.87z"/>
  <path class="fil0" d="M4400.07 1850.87c-188.15,-33.82 -184.59,124.26 -119.36,158.41 113.4,59.38 178.67,-50.06 119.36,-158.41z"/>
  <path class="fil0" d="M2060.93 2080.39c31.54,-247.16 -246.02,-132.24 -159,2.46 30.24,46.81 94.57,48.92 159,-2.46z"/>
  <path class="fil0" d="M2824.52 1558.24c-37.46,112.13 94.16,95.82 176.38,83.01 20.14,-112.37 -81.74,-97.7 -176.38,-83.01z"/>
  <path class="fil0" d="M2531.8 1643.93c4.62,-45.74 13.18,-72.23 -29.52,-86.15 -40.24,-13.12 -112.17,-7.47 -147.62,3.14 -39.44,103.93 101.14,90.05 177.15,83.01z"/>
  <path class="fil0" d="M3146.71 2935.82c12.64,79.46 150.6,73.67 138.82,-25.82 -10.7,-90.43 -155.27,-77.6 -138.82,25.82z"/>
  <path class="fil0" d="M2058.11 1554.4c-97.93,-20.51 -175.7,-22.19 -175.34,89.84l182.41 -3.17 -7.06 -86.68z"/>
  <path class="fil0" d="M3283.18 1559c-37.35,113.47 109.97,101.29 173.41,73.24l-2.44 -78.66 -170.97 5.43z"/>
  <path class="fil0" d="M4123 1580.7c48.89,4.13 124.45,-21.06 167.83,-47.44l-21.88 -79.73 -169.87 67.13 23.92 60.04z"/>
  <path class="fil0" d="M4003.39 1206.14c57.52,-12.21 102.5,-39.58 157.31,-47.87 -10.11,-36.34 -143.7,29.3 -157.31,47.87z"/>
 </g>
</svg>
