<?xml version="1.0" encoding="UTF-8"?>
<!DOCTYPE svg PUBLIC "-//W3C//DTD SVG 1.1//EN" "http://www.w3.org/Graphics/SVG/1.1/DTD/svg11.dtd">
<!-- Creator: CorelDRAW -->
<svg xmlns="http://www.w3.org/2000/svg" xml:space="preserve" width="100%" height="100%" version="1.1" style="shape-rendering:geometricPrecision; text-rendering:geometricPrecision; image-rendering:optimizeQuality; fill-rule:evenodd; clip-rule:evenodd"
viewBox="0 0 3339.73 3101.18"
 xmlns:xlink="http://www.w3.org/1999/xlink"
 xmlns:xodm="http://www.corel.com/coreldraw/odm/2003">
 <defs>
  <style type="text/css">
   <![CDATA[
    .fil0 {fill:#003399}
   ]]>
  </style>
 </defs>
 <g id="Layer_x0020_1">
  <metadata id="CorelCorpID_0Corel-Layer"/>
  <g id="_105553463593184">
   <path class="fil0" d="M596.38 380.19c0,-42.81 12.65,-84.83 35.81,-105.82 24.9,-22.57 60.06,-35.81 105.82,-35.81l2221.52 0c159.74,0 141.64,131.96 141.64,238.55l-2504.8 0 0 -96.91zm-238.55 -52.18l0 641.11c0,54.06 51.71,104.37 134.19,104.37 46.55,0 104.37,-57.81 104.37,-104.37l0 -253.46 2504.8 0 0 1051.12c0,174.31 -161.84,141.64 -305.65,141.64l-1118.62 -0.41c-183.24,0.65 -146.67,238.96 -21.96,238.96l1356.76 0c159.68,0 328.01,-168.33 328.01,-328.01l0 -1490.95c0,-159.68 -168.33,-328.01 -328.01,-328.01l-2325.88 0c-159.68,0 -328.01,168.33 -328.01,328.01z"/>
   <path class="fil0" d="M238.56 1789.14l954.2 0 0 1073.48 -954.2 0 0 -1073.48zm-238.56 -320.56l0 1528.22c0,46.55 57.81,104.37 104.37,104.37l1222.58 0c49.3,0 104.37,-55.07 104.37,-104.37l0 -1341.85c0,-22.17 -13.23,-44.68 -23.52,-58.48 -12.35,-16.57 -25.52,-27.03 -45.48,-36.52 -42.11,-20.03 -440.37,-9.36 -505.02,-9.36 -49.87,0 -548.65,9.34 -581.83,-7.09 -41.06,-20.32 -52.24,-73.19 -4.71,-102.36 35.77,-21.96 533.22,-9.83 586.55,-9.83 61,0 461.69,8.93 500.04,-6.89 127.42,-52.57 73.3,-231.67 -30.39,-231.67l-1051.12 0c-137.52,0 -275.83,138.3 -275.83,275.83z"/>
   <path class="fil0" d="M1550.59 1297.13c0,78.36 42.02,134.19 104.36,134.19l984.03 0c54.07,0 104.37,-51.72 104.37,-134.19 0,-46.56 -57.81,-104.37 -104.37,-104.37l-984.03 0c-49.3,0 -104.36,55.07 -104.36,104.37z"/>
   <path class="fil0" d="M1550.59 1654.96c0,82.47 50.3,134.19 104.36,134.19l984.03 0c62.34,0 104.37,-55.82 104.37,-134.19 0,-46.56 -57.81,-104.37 -104.37,-104.37l-984.03 0c-49.3,0 -104.36,55.07 -104.36,104.37z"/>
   <path class="fil0" d="M1550.59 939.3c0,82.47 50.3,134.19 104.36,134.19l506.93 0c62.34,0 104.37,-55.82 104.37,-134.19 0,-46.56 -57.81,-104.37 -104.37,-104.37l-506.93 0c-49.3,0 -104.36,55.07 -104.36,104.37z"/>
   <path class="fil0" d="M357.83 2012.78c0,82.47 50.3,134.19 104.37,134.19l506.92 0c54.06,0 104.37,-51.71 104.37,-134.19 0,-49.3 -55.07,-104.37 -104.37,-104.37l-506.92 0c-49.3,0 -104.37,55.07 -104.37,104.37z"/>
  </g>
 </g>
</svg>
