<?xml version="1.0" encoding="UTF-8"?>
<!DOCTYPE svg PUBLIC "-//W3C//DTD SVG 1.1//EN" "http://www.w3.org/Graphics/SVG/1.1/DTD/svg11.dtd">
<!-- Creator: CorelDRAW -->
<svg xmlns="http://www.w3.org/2000/svg" xml:space="preserve" width="100%" height="100%" version="1.1" style="shape-rendering:geometricPrecision; text-rendering:geometricPrecision; image-rendering:optimizeQuality; fill-rule:evenodd; clip-rule:evenodd"
viewBox="0 0 435.54 479.61"
 xmlns:xlink="http://www.w3.org/1999/xlink"
 xmlns:xodm="http://www.corel.com/coreldraw/odm/2003">
 <defs>
  <style type="text/css">
   <![CDATA[
    .fil1 {fill:#404E57}
    .fil2 {fill:#5562A4}
    .fil0 {fill:#63B4F5}
    .fil3 {fill:fuchsia}
   ]]>
  </style>
 </defs>
 <g id="Layer_x0020_1">
  <metadata id="CorelCorpID_0Corel-Layer"/>
  <path class="fil0" d="M61.31 257.67c13.2,-5.54 76.22,-5.09 85.69,0.84 -7.22,8.97 -16.84,5.12 -41.87,5.11 -33.78,-0.01 -37.57,4.55 -43.82,-5.95zm80.6 -33.33c-22.5,-0.21 -68.33,3.23 -80.8,-3.42 7.49,-3.38 -8.23,-3.04 10.5,-5.39l43.55 0.2c23.67,0 46.82,-4 54.81,5.19 -10.28,5.13 -14.63,3.55 -28.06,3.42zm-78.89 -95.31c-5.25,-13.14 -5.11,-33.47 -0.22,-47.26l208.09 0.51c4.68,13.34 4.83,33.54 -0.24,47.16l-207.63 -0.4zm-14.93 -122.98c-5.19,5.4 0.31,1.01 -6.63,4.62 -26.31,13.72 -32.1,10.29 -31.89,56.49 0.35,74.46 -4.48,250.93 0.81,302.16 21.52,-23.33 77.93,-15.93 118.14,-15.93 31.2,0 132.58,-1.61 157.48,5.24 -27.98,-21.39 7.61,19.17 25.87,-5.44 -9.13,-24.15 -8.18,24.74 0,0 23.26,-14.66 8.34,-136.13 12.76,-197.09l-0.57 -115.8c-0,-28.14 -4.49,-22.86 -9.95,-26.06 -10.74,-6.29 -126.42,-2.78 -155.52,-2.76 -21.26,0.02 -41.09,4.24 -46.48,-5.38 -14.81,1.06 -18.44,-5.95 -33.74,-5.33 -13.87,0.56 -16.06,6.39 -30.28,5.27z"/>
  <path class="fil1" d="M81.72 412.28l-2.45 52.45c-19.38,-8.14 -10.07,-10.18 -30.29,0.29l-2 -54 -8.69 20.11c-13.73,-3.3 -20.54,-7.33 -25.13,-18.22 -5.69,-13.53 -4.13,-26.05 3.71,-36.41 14.05,-18.54 44.64,-14.44 71.54,-14.44 57.92,0.01 115.84,0 173.76,0 8.72,-2.57 61.87,1.47 63.26,-5.52 -24.9,-6.85 -165.72,-3.14 -196.92,-3.14 -40.21,0 -96.61,-7.39 -118.14,15.93 -5.29,-51.23 -0.46,-227.7 -0.81,-302.16 -0.21,-46.2 5.57,-42.78 31.89,-56.49 6.94,-3.61 1.43,0.78 6.63,-4.62 -17.63,-8.96 -36.02,9.14 -41.4,19.58 -8.3,16.1 -5.61,42.07 -5.61,61.67 0.01,40.02 -4.1,309.59 3.73,327.49 7.14,16.32 18.52,21.05 35.61,27.03l0.33 37.8c12.58,-3.19 13.87,-7.25 24.3,-12.44 11.69,7.41 7.67,10.63 22.97,11.34l0.12 -37.54c25.27,-0.47 222.03,4.66 235.3,-5.15 11.69,-8.64 10.38,-137.95 1.9,-151.8 -3.96,4.41 2.12,86.4 -0.28,94.42 -3.33,11.17 1.39,31.15 -1.68,41.22 -3.12,10.24 -0.69,4.46 -7.13,9.39 -13.01,8.18 -197.09,4.23 -228.07,3.31l-6.43 -20.08z"/>
  <path class="fil1" d="M68.44 90.15l196.52 -0.03 0 30.33 -196.19 0.81 -0.33 -31.11zm-5.43 38.89l207.63 0.4c5.06,-13.62 4.92,-33.82 0.24,-47.16l-208.09 -0.51c-4.88,13.79 -5.02,34.13 0.22,47.26z"/>
  <path class="fil1" d="M324.63 156.1c6.85,0.49 4.31,2 7.81,-5.33 0.06,-31.18 -0.06,-62.36 0.02,-93.54 0.11,-40.22 5.57,-54.61 -40.16,-54.53 -29.16,0.05 -244.09,-6.93 -258.53,1.35 5.4,9.63 103.55,7.46 124.8,7.44 29.1,-0.03 144.78,-3.53 155.52,2.76 5.46,3.19 9.95,-2.09 9.95,26.06l0.57 115.8z"/>
  <path class="fil0" d="M81.72 412.28l-34.74 -1.27 2 54c20.21,-10.46 10.91,-8.43 30.29,-0.29l2.45 -52.45z"/>
  <path class="fil1" d="M61.1 220.92c12.47,6.65 58.3,3.2 80.8,3.42 13.43,0.13 17.78,1.71 28.06,-3.42 -7.99,-9.19 -31.14,-5.19 -54.81,-5.19l-43.55 -0.2c-18.74,2.35 -3.02,2.01 -10.5,5.39z"/>
  <path class="fil1" d="M61.31 257.67c6.25,10.5 10.04,5.94 43.82,5.95 25.03,0.01 34.65,3.85 41.87,-5.11 -9.47,-5.93 -72.5,-6.38 -85.69,-0.84z"/>
  <g id="_105553470971008">
   <path class="fil2" d="M115.81 340.54c-3.78,-34.33 22.9,-32.85 59.04,-62.02 9.92,16.04 14,13.02 22.56,25.74 -31.43,25.82 -57.35,50.09 -81.59,36.27zm-7.82 -26.05c-14.47,29.35 0.71,43.02 30.26,45.04 16.3,-5.75 42.89,-26.93 58.18,-38.35 17.07,-12.75 11.11,-10.7 36.9,-8.12 21.41,2.15 28.33,-1.7 47.47,-4.52 -8.91,23.26 -84.18,70.07 -107.28,86.68 -48.09,34.57 -108.46,-2.76 -118.28,-49.78 -13.11,-62.8 52.06,-93.91 77.95,-112.47 40.44,-28.99 70.53,-63.47 134.76,-19.09 -19.32,27.71 -24.6,6.59 -46.91,16.39l-113.06 84.24zm172.6 -136.66c1.19,-1.58 58.65,-58.02 77.26,-38.75 22.01,22.8 -40.8,48.27 -52.39,59.21l-24.86 -20.46zm-89.05 -5.34c7.91,-12.06 17.45,-15.5 28.88,-24.84 10.52,-8.59 17.91,-14.69 28.41,-22.99l59.06 -42.79c77.34,-42.97 169.06,67.46 77.23,136.74 -22.83,17.22 -98.18,74.74 -121.7,80.41 -23.96,5.77 -58.61,0.67 -71.38,-19.2 43.83,-32.72 164.19,-92.37 177.54,-113.15 14.14,-22.02 -0.18,-44.13 -23.22,-45.13 -36.93,-1.6 -43.96,46.83 -96.15,42.01 -27.59,-2.55 -35.56,4.13 -58.66,8.95zm147.68 -111.21c-35.56,2.82 -90.04,46.02 -115.51,66.86 -119.84,98.07 1.47,23.52 -93.34,91.27 -28.09,20.07 -83.58,46.96 -88.24,104.1 -4.08,50 36.08,99.87 96.81,96.1 37.57,-2.33 90.32,-48.63 115,-66.31 81.74,-58.56 44.35,-44.99 70.61,-75.16 20.29,-23.31 108.88,-52 110.95,-125.68 1.37,-48.53 -38.44,-95.76 -96.28,-91.19z"/>
   <path class="fil3" d="M191.54 172.49c23.1,-4.83 31.07,-11.5 58.66,-8.95 52.19,4.82 59.22,-43.61 96.15,-42.01 23.04,1 37.36,23.11 23.22,45.13 -13.35,20.78 -133.71,80.43 -177.54,113.15 12.77,19.87 47.43,24.97 71.38,19.2 23.53,-5.66 98.87,-63.19 121.7,-80.41 91.82,-69.28 0.11,-179.71 -77.23,-136.74l-59.06 42.79c-10.5,8.3 -17.89,14.4 -28.41,22.99 -11.43,9.34 -20.97,12.78 -28.88,24.84z"/>
   <path class="fil3" d="M112.68 276.89c1.29,4.87 4.37,-5.79 1.06,9.99 -0.75,3.6 2.24,4.19 -13.56,15.64 -6.47,4.69 -18.96,15.29 -27.12,3.03 -8.14,-12.24 21.16,-38.27 39.62,-28.66zm4.15 -2.97c-0.88,-6.7 -1.79,-7.55 4.33,-14.59 11.4,-2.8 5.38,-3.16 17.23,2.55l-4.35 16.49 -17.21 -4.45zm21.43 85.6c-39.81,44.58 -89.82,-21 -30.26,-45.04l113.06 -84.24c22.31,-9.79 27.59,11.33 46.91,-16.39 -64.24,-44.38 -94.32,-9.9 -134.76,19.09 -25.89,18.56 -91.06,49.67 -77.95,112.47 9.81,47.02 70.18,84.35 118.28,49.78 23.1,-16.61 98.37,-63.42 107.28,-86.68 -19.13,2.81 -26.06,6.67 -47.47,4.52 -25.79,-2.58 -19.83,-4.63 -36.9,8.12 -15.28,11.43 -41.88,32.6 -58.18,38.35z"/>
   <path class="fil3" d="M138.26 359.52c-29.56,-2.01 -44.74,-15.68 -30.26,-45.04 -59.56,24.04 -9.54,89.62 30.26,45.04z"/>
  </g>
 </g>
</svg>
