<?xml version="1.0" encoding="UTF-8"?>
<!DOCTYPE svg PUBLIC "-//W3C//DTD SVG 1.1//EN" "http://www.w3.org/Graphics/SVG/1.1/DTD/svg11.dtd">
<!-- Creator: CorelDRAW -->
<svg xmlns="http://www.w3.org/2000/svg" xml:space="preserve" width="100%" height="100%" version="1.1" style="shape-rendering:geometricPrecision; text-rendering:geometricPrecision; image-rendering:optimizeQuality; fill-rule:evenodd; clip-rule:evenodd"
viewBox="0 0 424.65 460.01"
 xmlns:xlink="http://www.w3.org/1999/xlink"
 xmlns:xodm="http://www.corel.com/coreldraw/odm/2003">
 <defs>
  <style type="text/css">
   <![CDATA[
    .fil0 {fill:#5562A4}
    .fil2 {fill:#5C97D2}
    .fil1 {fill:#A5BEE6}
   ]]>
  </style>
 </defs>
 <g id="Layer_x0020_1">
  <metadata id="CorelCorpID_0Corel-Layer"/>
  <path class="fil0" d="M89.04 369.74c-10.94,-39.07 20.26,-42.46 56.58,-83.18 14.57,16.69 18.72,12.41 31.07,25.53 -31.5,35.94 -56.9,69.04 -87.65,57.65zm-14.05 -28.7c-11.16,36.8 9.05,49.74 43.7,46.42 17.8,-9.79 44.57,-39.42 60.11,-55.59 17.34,-18.05 10.83,-14.53 41.22,-16.47 25.23,-1.61 32.52,-7.4 54.16,-14.32 -5.87,28.67 -84.18,97.33 -107.78,121 -49.14,49.27 -126.27,17.54 -146.64,-35.09 -27.2,-70.3 42.39,-118.83 68.85,-145.3 41.33,-41.34 69.62,-87.07 152.57,-47.91 -17.1,35.82 -27.26,12.35 -51.25,27.97l-114.95 119.27zm173.95 -191.43c1.07,-2.06 56.89,-78.47 82.15,-59.69 29.88,22.22 -38.07,63.76 -49.41,78.66l-32.73 -18.97zm-104.26 10.85c6.87,-15.49 17.26,-21.3 28.73,-34.32 10.55,-11.98 17.95,-20.46 28.54,-32.09l60.28 -60.9c81.44,-64.61 208.88,45.87 115.68,143.74 -23.17,24.33 -99.52,105.43 -125.71,116.49 -26.67,11.26 -67.81,11.98 -86.42,-8.61 44.55,-46.31 172.68,-138.48 184.17,-165.13 12.18,-28.23 -8.65,-51.13 -35.55,-47.88 -43.12,5.21 -42.01,62.7 -103.43,67.09 -32.46,2.32 -40.43,11.59 -66.29,21.6zm149.93 -157.17c-40.69,10.07 -95.58,70.57 -121.11,99.6 -120.17,136.61 6.2,26.98 -90.75,123.66 -28.72,28.64 -87.91,70.43 -82.39,137.56 4.83,58.74 60.93,108.87 130.61,92.89 43.1,-9.89 95.41,-73.65 120.64,-98.87 83.56,-83.52 42.81,-60.64 67.48,-100.63 19.06,-30.9 116.27,-81.11 104.59,-166.91 -7.7,-56.52 -62.89,-103.66 -129.06,-87.29z"/>
  <path class="fil1" d="M144.69 160.46c25.86,-10.02 33.82,-19.28 66.29,-21.6 61.42,-4.39 60.31,-61.88 103.43,-67.09 26.9,-3.25 47.73,19.65 35.55,47.88 -11.5,26.65 -139.62,118.81 -184.17,165.13 18.61,20.59 59.76,19.88 86.42,8.61 26.19,-11.07 102.54,-92.16 125.71,-116.49 93.2,-97.87 -34.24,-208.35 -115.68,-143.74l-60.28 60.9c-10.59,11.63 -17.99,20.11 -28.54,32.09 -11.47,13.02 -21.87,18.83 -28.73,34.32z"/>
  <path class="fil1" d="M73.24 296.57c2.43,5.39 3.95,-7.55 3.13,11.38 -0.19,4.31 3.39,4.43 -12.73,20.72 -6.6,6.68 -19.06,21.35 -30.86,8.7 -11.78,-12.63 17.21,-48.41 40.45,-40.8zm4.24 -4.24c-2.3,-7.6 -3.52,-8.41 2.23,-17.74 12.68,-5.42 5.63,-4.69 20.46,-0.34l-1.89 19.94 -20.8 -1.87zm41.21 95.14c-37.62,59.3 -108.14,-7.16 -43.7,-46.42l114.95 -119.27c23.99,-15.62 34.15,7.85 51.25,-27.97 -82.96,-39.16 -111.24,6.56 -152.57,47.91 -26.46,26.46 -96.06,75 -68.85,145.3 20.37,52.63 97.5,84.36 146.64,35.09 23.61,-23.67 101.91,-92.33 107.78,-121 -21.64,6.92 -28.93,12.71 -54.16,14.32 -30.39,1.94 -23.88,-1.58 -41.22,16.47 -15.54,16.17 -42.31,45.8 -60.11,55.59z"/>
  <path class="fil2" d="M118.69 387.46c-34.65,3.32 -54.86,-9.62 -43.7,-46.42 -64.44,39.26 6.08,105.72 43.7,46.42z"/>
 </g>
</svg>
