<?xml version="1.0" encoding="UTF-8"?>
<!DOCTYPE svg PUBLIC "-//W3C//DTD SVG 1.1//EN" "http://www.w3.org/Graphics/SVG/1.1/DTD/svg11.dtd">
<!-- Creator: CorelDRAW -->
<svg xmlns="http://www.w3.org/2000/svg" xml:space="preserve" width="100%" height="100%" version="1.1" style="shape-rendering:geometricPrecision; text-rendering:geometricPrecision; image-rendering:optimizeQuality; fill-rule:evenodd; clip-rule:evenodd"
viewBox="0 0 393.7 351.13"
 xmlns:xlink="http://www.w3.org/1999/xlink"
 xmlns:xodm="http://www.corel.com/coreldraw/odm/2003">
 <defs>
  <style type="text/css">
   <![CDATA[
    .fil0 {fill:#3E4D55}
    .fil3 {fill:#63B4F5}
    .fil2 {fill:#ED5250}
    .fil1 {fill:#FEC828}
   ]]>
  </style>
 </defs>
 <g id="Layer_x0020_1">
  <metadata id="CorelCorpID_0Corel-Layer"/>
  <g id="_105553472473632">
   <path class="fil0" d="M233.14 288.61c8.83,-7.01 21.55,-23.44 27.09,-39.03l20.54 8.97c-6.03,12.5 -34.76,27.73 -47.63,30.06zm-101.45 -37.7c4.93,6.84 8.53,14.14 13.1,20.26 5.53,7.41 9.69,11.33 14.82,17.59 -19.39,-4.43 -39.48,-19.24 -48.07,-30.88l20.15 -6.97zm68.58 -9c13.41,-2.82 39.88,1.17 52.34,6.34 -2.77,16.3 -32.09,50.61 -52.74,44.88l0.4 -51.22zm-60.77 6.07c15.99,-5.57 35.39,-7.36 53.61,-7.09l0.12 53.52c-26.52,-1.31 -46.12,-25.37 -53.73,-46.43zm61.03 -190.95c22.85,-1.41 48.22,27.59 52.56,47 -16.81,2.7 -34.76,7.84 -53.03,5.69l0.46 -52.69zm-60.6 46.44c4.51,-20.31 28.75,-44.26 53.19,-47.07l-1.04 55.06 -52.15 -7.99zm-28.19 -10.25c4.92,-10.43 29.59,-26.15 46.7,-30.18l-27 37.86 -19.7 -7.68zm149.15 7.46c-3.16,-6.46 -8.1,-15.02 -12.26,-20.8 -5.35,-7.42 -9.77,-10.06 -14.38,-16.95 18.3,4.36 39.43,17.59 47.15,30.92l-20.51 6.83zm-130.97 8.73l63.28 8.11 -1.1 54.54 -31.07 0.63 0.75 5.81 31.45 0.71 -1.3 54.49 -52.62 6.09c-4.94,-0.36 -4.18,-0.48 -6.69,-1.79 -8.75,7.57 1.69,3 -12.35,9.02 -7.7,3.31 -10.7,4.16 -17.56,8.96 1.55,7.9 -0.68,4.28 5.37,10.72 17.63,18.77 57.45,35.34 88.03,35.55 33.84,0.23 85.72,-21.13 95.39,-47.15 -5.5,-1.97 -10.66,-4.13 -17.55,-7.35 -11.74,-5.48 -6.49,-4.55 -13.94,-9.85l-13.7 1.44c-3.13,-0.41 -9.39,-2.11 -13.4,-2.77 -33.78,-5.61 -36.54,12.83 -32.62,-56.91l31.57 -2.7 0.73 -3.38 -32.5 -2.09 0.26 -52.99 62.74 -7.65c7.5,-9.93 19.46,-6.75 28.13,-17.13 -24.36,-48.71 -146.79,-66.17 -189.21,0 9.9,10.79 17.98,7.29 27.89,15.7z"/>
   <path class="fil0" d="M299.15 187.08c23.09,18.33 7.93,41.81 18.04,49.63 5.1,-7.92 1.05,-19.08 3.09,-29.22 1.72,-8.55 8.06,-13.42 11.87,-21.02 26.84,6.15 32.03,12.12 29.94,42.4 -9.27,9.61 -26.7,17.2 -44.88,17.23 -24.96,0.05 -30.77,-8.44 -46.15,-15.76 -2.48,-32.71 0.61,-34.69 28.09,-43.26zm7.37 -5.51l20.45 0.45 -10.57 14.37 -9.87 -14.82zm-16.35 -29.96c11.46,-1.79 19.42,-2.56 29.22,-6.7 4.39,-1.85 9.23,-5.08 11.94,-6.41 8.26,-4.03 8.26,-2.37 10.14,-1.66 15.8,43.01 -48.61,51.5 -51.31,14.78zm0.06 -7.69c2.27,-18.48 25.4,-31.72 42.87,-16.72 -6.19,12.69 -29.85,17.3 -42.87,16.72zm6.94 34.8c-23.89,18.7 -30.6,0.75 -33.64,41.39 -34.5,-27.06 -17.72,-115.76 53.67,-115.06 30.63,0.3 52.2,19.14 61.66,37.7 16.57,32.5 6.02,53.81 -6.8,77.94 -3.48,-5.36 -2.27,-7.98 -3.74,-15.9 -3.17,-17.08 -10.78,-13.57 -32.92,-25.37 4.92,-11.18 18.13,-18.05 14.21,-38.6 -2.6,-13.62 -13.89,-25.75 -29.93,-26.98 -16.41,-1.26 -30.98,8.54 -35.34,22.06 -7.4,22.96 5.98,31.46 12.83,42.83zm2.72 -77.89c-99.74,22.06 -65.62,172.19 33.63,150.27 35.13,-7.76 69.14,-44.31 58.02,-92.6 -8.46,-36.77 -45.15,-67.95 -91.66,-57.67z"/>
   <path class="fil0" d="M31.12 230.36c-2.26,-30.79 0.81,-36.68 28.43,-43.24 26.4,25.16 4.68,39.18 18.04,49.11 4.68,-10.89 0.11,-19.32 3.29,-30.98 1.82,-6.68 7.92,-12.94 11.54,-18.63 25.94,7.04 32.47,10.95 29.7,41.87 -9.31,10.68 -26.38,17.36 -44.52,17.58 -22.57,0.28 -32.3,-8.22 -46.48,-15.72zm45.98 -34.8c-5.87,-5.15 -6.55,-6.11 -10.56,-13.95l20.43 0.32 -9.87 13.63zm-26.78 -44.13c36.14,-4.54 40.89,-15.02 46.45,-15.61 5.97,-0.64 2.08,-2.98 5.43,2.62 17.94,30.04 -48.74,57.39 -51.88,12.98zm0.17 -7.02c3.82,-20.06 24.76,-32.26 42.72,-17.22 -2.72,5.3 0.94,0.65 -3.18,4.63l-13.41 7.44c-8.49,3.5 -15.82,4.45 -26.12,5.15zm-26.53 75.81c-34.37,-24.78 -19.78,-116.15 53.64,-115.18 44.4,0.58 75.66,41.21 68.29,83.06 -2.13,12.07 -7.3,26.41 -17.11,32.29 1.02,-39.74 -9.86,-23.74 -32.81,-41.69 3.96,-11.94 20.3,-16.5 12.7,-41.44 -10.3,-33.83 -57.66,-29.18 -65.3,2.07 -5.35,21.92 8.03,26.44 13.84,39.38 -22.65,17.83 -32.12,1.77 -33.25,41.52zm36.22 -119.45c-101.18,23.64 -64.46,172.73 33.67,150.24 35.56,-8.15 68.26,-43.7 57.85,-92.34 -7.87,-36.78 -46.2,-68.49 -91.52,-57.9z"/>
   <path class="fil1" d="M31.12 230.36c14.17,7.5 23.9,16 46.48,15.72 18.14,-0.22 35.21,-6.9 44.52,-17.58 2.77,-30.92 -3.76,-34.83 -29.7,-41.87 -3.63,5.69 -9.72,11.94 -11.54,18.63 -3.19,11.65 1.39,20.08 -3.29,30.98 -13.36,-9.94 8.36,-23.95 -18.04,-49.11 -27.62,6.56 -30.69,12.46 -28.43,43.24z"/>
   <path class="fil2" d="M299.15 187.08c-27.47,8.57 -30.57,10.55 -28.09,43.26 15.38,7.32 21.19,15.81 46.15,15.76 18.18,-0.03 35.61,-7.62 44.88,-17.23 2.08,-30.28 -3.11,-36.26 -29.94,-42.4 -3.8,7.6 -10.14,12.47 -11.87,21.02 -2.04,10.14 2.01,21.3 -3.09,29.22 -10.11,-7.81 5.06,-31.3 -18.04,-49.63z"/>
   <path class="fil3" d="M260.01 237.89c-15.97,-10.42 -30.44,-33.46 -28.15,-60.94l-31.57 2.7c-3.92,69.74 -1.16,51.3 32.62,56.91 4.01,0.67 10.27,2.36 13.4,2.77l13.7 -1.44z"/>
   <path class="fil3" d="M129.91 109.41c2.44,2.76 37.21,27.28 31.12,63.28l31.07 -0.63 1.1 -54.54 -63.28 -8.11z"/>
   <path class="fil3" d="M132.61 238c2.52,1.3 1.76,1.43 6.69,1.79l52.62 -6.09 1.3 -54.49 -31.45 -0.71c0.34,13.34 -2.45,24.19 -8.11,35.09 -5.87,11.31 -11.17,19.8 -21.06,24.42z"/>
   <path class="fil3" d="M232.59 173.57c-3.16,-14.03 2.26,-27.21 7.87,-38.09 3.25,-6.31 4.61,-8.67 9.14,-13.98 6.01,-7.06 5.89,-5.48 13.5,-10.67l-62.74 7.65 -0.26 52.99 32.5 2.09z"/>
   <path class="fil0" d="M75 326.13l3.02 -18.78c11.89,4.85 20.61,18.11 53.44,31.12 24.01,9.52 47.35,13.85 75.02,12.37 42.61,-2.27 107.66,-31.33 114.56,-54.95 -13.97,-0.52 -37.85,42.77 -111.98,48.34 -50.24,3.78 -97.57,-16.23 -123.19,-41.89 5.76,-2.52 10.91,0.19 17.59,-5.15 -7.28,-4.69 -20.31,-2.96 -31.7,-2.83 -0.79,20.81 -1.78,24.98 3.24,31.78z"/>
   <path class="fil3" d="M139.5 247.98c7.61,21.06 27.21,45.11 53.73,46.43l-0.12 -53.52c-18.22,-0.27 -37.62,1.52 -53.61,7.09z"/>
   <path class="fil3" d="M199.87 293.13c20.65,5.74 49.98,-28.58 52.74,-44.88 -12.46,-5.17 -38.94,-9.16 -52.34,-6.34l-0.4 51.22z"/>
   <path class="fil3" d="M200.06 109.71c18.27,2.15 36.22,-2.99 53.03,-5.69 -4.34,-19.41 -29.71,-48.41 -52.56,-47l-0.46 52.69z"/>
   <path class="fil3" d="M139.93 103.46l52.15 7.99 1.04 -55.06c-24.44,2.81 -48.68,26.76 -53.19,47.07z"/>
   <path class="fil0" d="M142.58 11.29c6.74,4.18 31.57,-3.78 43.22,-4.44 30.49,-1.74 62.76,4.52 88.93,18.56 11.65,6.25 26.59,13.56 33,25.03 -10.18,0.11 -14.72,-2.85 -17.82,4.64l30.67 1.84c2.54,-16.08 3.8,-27.69 -3.79,-32.28l-2.35 19.88c-20.13,-11.56 -29.06,-27.48 -73.63,-38.88 -23.59,-6.04 -83.83,-10.87 -98.23,5.65z"/>
   <path class="fil3" d="M111.74 93.22l19.7 7.68 27 -37.86c-17.11,4.03 -41.78,19.75 -46.7,30.18z"/>
   <path class="fil3" d="M260.88 100.68l20.51 -6.83c-7.72,-13.32 -28.85,-26.56 -47.15,-30.92 4.61,6.89 9.03,9.53 14.38,16.95 4.16,5.77 9.1,14.33 12.26,20.8z"/>
   <path class="fil3" d="M111.53 257.89c8.59,11.65 28.69,26.46 48.07,30.88 -5.13,-6.26 -9.29,-10.18 -14.82,-17.59 -4.57,-6.13 -8.17,-13.43 -13.1,-20.26l-20.15 6.97z"/>
   <path class="fil3" d="M233.14 288.61c12.86,-2.33 41.59,-17.57 47.63,-30.06l-20.54 -8.97c-5.54,15.59 -18.26,32.02 -27.09,39.03z"/>
   <path class="fil0" d="M71.78 56.48c8.28,-2.52 21.98,-12.32 23.98,-21.83 -10.31,2.35 -5.55,0.79 -12.91,7.63 -7.84,7.3 -7.14,3.24 -11.08,14.2z"/>
   <path class="fil0" d="M106.35 29.34c9.22,-0.64 19.19,-4.8 22.71,-13.26 -10.28,0.7 -20.04,4.06 -22.71,13.26z"/>
  </g>
 </g>
</svg>
