<?xml version="1.0" encoding="UTF-8"?>
<!DOCTYPE svg PUBLIC "-//W3C//DTD SVG 1.1//EN" "http://www.w3.org/Graphics/SVG/1.1/DTD/svg11.dtd">
<!-- Creator: CorelDRAW -->
<svg xmlns="http://www.w3.org/2000/svg" xml:space="preserve" width="100%" height="100%" version="1.1" style="shape-rendering:geometricPrecision; text-rendering:geometricPrecision; image-rendering:optimizeQuality; fill-rule:evenodd; clip-rule:evenodd"
viewBox="0 0 2023.51 2017.17"
 xmlns:xlink="http://www.w3.org/1999/xlink"
 xmlns:xodm="http://www.corel.com/coreldraw/odm/2003">
 <defs>
  <style type="text/css">
   <![CDATA[
    .fil0 {fill:#003399}
   ]]>
  </style>
 </defs>
 <g id="Layer_x0020_1">
  <metadata id="CorelCorpID_0Corel-Layer"/>
  <path class="fil0" d="M986.44 973.06c-6.48,-256.52 371.02,-99.61 529.48,-156.69 111.12,-40.02 52.13,-398.09 66.8,-619.87 81.49,5.05 72.64,42.73 72.11,129.13 -0.72,118.98 19.82,544.27 -26.11,577.18 -210.47,60.62 -467.96,-61.06 -642.27,70.25zm-1.84 -128.96c-7.45,-136.44 -18.19,-570.85 0.72,-689.08 18.16,-113.51 98.99,-119.21 224.31,-118.61 90.12,0.43 240.59,-15.59 316.86,13.8 28.04,61.82 35.62,664.23 -2.85,707.57 -31.6,41.41 -65.09,29.41 -128.26,28.8 -244.12,-2.33 -263.49,-25.83 -410.78,57.52zm-578.29 -85.9c-41.46,-46.76 -18.97,-322.29 -18.95,-405.43 0.05,-237.22 -39.35,-316.18 94.85,-316.18 297.37,0 465.2,-46.47 465.28,170.71l-2.11 636.15c-40.84,-21.01 -47.41,-43.14 -107.25,-53.34 -128.94,-21.97 -380.19,35.24 -431.82,-31.91zm-26.12 189.63c-53.98,-151.36 -105.07,181.2 -105.19,-370.23 -0.05,-233.05 -36.94,-374.14 71.61,-381.39 6.78,109.67 2.17,230.78 2.15,341.72 -0.02,96.45 -27.23,246.06 65.13,278.7 166.33,58.77 524.31,-103.23 529.44,155.48 -106.59,-73.97 -115.8,-58.51 -275.92,-58.51 -43.16,8.41 -14.68,-8.41 -28.99,34.24 55.63,-3.43 182.87,-8.06 228.24,12.78 91.87,42.2 52.36,114.11 106.97,144.6 58.84,-157.54 44.67,-158.67 275.83,-158.29 94.38,0.15 371.39,24.31 416.22,-32.33 33.83,-42.76 28.63,-533.96 22.52,-642.06 -5.08,-89.99 -31.71,-90.84 -106.17,-118.13 -21.19,-165.44 -4.83,-151.46 -279.66,-151.45 -204.14,0.02 -225.48,-28.77 -339.5,94.37 -90.61,-123.31 -156.93,-94.35 -335.15,-94.37 -267.89,-0.01 -259.87,-14.13 -280.17,151.45 -143.63,53.48 -106.22,86.2 -106.24,409.97 -0.03,322.04 -37.78,373.24 138.88,383.46z"/>
  <path class="fil0" d="M1470.9 1460.93l-1430.58 1.31 -0.43 -970.41 156.06 1.99 12.23 -33.75 -163.19 -1.55c18.31,-147.13 117.81,-82.87 162.51,-145.42 -98.54,-44.8 -188.71,57.25 -199.43,146.18 -12.21,101.32 -1.95,273.9 -1.95,382.82 0,920.58 -121.17,811.66 714.19,811.66l749.32 -12.26c2.96,-1.18 7.28,-3.59 10.6,-5.91 -12.17,-7.21 -8.22,-8.07 -33.04,-12.93 -107.91,-21.15 -1240.83,19.95 -1321.25,-14.39 -46.03,-19.65 -78.64,-55.92 -76.98,-111.76l1433.28 -0.02 -11.34 -35.57z"/>
  <path class="fil0" d="M1982.55 1857.3c7.78,164.09 -64.46,123.47 -217.19,123.47 -152.63,0 -224.98,40.56 -217.03,-123.47l434.22 0zm-433.99 -470.13l435.13 4.54 0.21 425.21c-59.88,14.32 -377.39,14.35 -437.17,-0.08l1.83 -429.67zm1.75 -38.46c8.47,-53.97 31.57,-56.26 95.99,-56.26l238.11 0c65.89,0 86.66,1.92 95.99,60.33l-430.09 -4.08zm13.26 -76.17c-73.59,42.07 -53.41,164.66 -53.43,257.25 -0.07,359.69 -45,484.09 148.66,484.46 421.91,0.81 361.46,74.89 362,-577.16 0.11,-132.44 -9.7,-178.11 -149.24,-178.65 -75.76,-0.3 -252.36,-17.69 -307.99,14.1z"/>
  <polygon class="fil0" points="637.3,1978.92 1288.81,1980.7 1290.78,1890.31 642.59,1889.1 "/>
  <path class="fil0" d="M1733.96 493.98l155.96 -2.18 1.68 721.31 27.77 12.77c7.93,-83.91 21.11,-755.61 -14.32,-827.46 -27.65,-56.07 -107.98,-118.69 -183.07,-85.32 45.55,62.38 143.73,-0.17 162.57,144.58l-160.17 1.54 9.58 34.76z"/>
  <path class="fil0" d="M1262.68 411.54c-48.29,0 -144.95,-18.39 -169.64,20.59 40.17,23.77 298.84,23.39 339.88,0 -25.32,-38.85 -121.46,-20.59 -170.24,-20.59z"/>
  <path class="fil0" d="M496.63 432.13c41.38,23.08 299.25,24.19 339.9,0 -24.26,-39.01 -121.29,-20.59 -169.12,-20.59 -31.15,0 -62.2,-0.27 -93.32,-0.44 -87.2,-0.46 -54.05,9.61 -77.45,21.03z"/>
  <path class="fil0" d="M496.49 180.85c41.05,23.29 299.51,24.54 340.07,0 -23.67,-37.08 -180.09,-20.15 -262.48,-20.61 -86.57,-0.48 -54.72,10.16 -77.59,20.61z"/>
  <path class="fil0" d="M1092.93 180.85c39.94,24.03 299.01,23.73 340.08,0 -25.81,-38.37 -121.62,-20.19 -170.33,-20.19 -31.15,0 -62.22,-0.28 -93.36,-0.43 -87.06,-0.44 -55.03,10.57 -76.39,20.62z"/>
  <path class="fil0" d="M773.23 1822.19c32.71,-25.33 32.33,-109.97 0,-135.56 -16.36,29.04 -14.9,21.6 -14.92,68 -0.02,46.57 -1.54,38.9 14.92,67.56z"/>
  <path class="fil0" d="M1156.85 1822.09c14.07,-26.85 13.7,-24.39 13.92,-67.44 0.23,-45.2 1.66,-38.83 -13.92,-68.09 -32.71,24.8 -32.51,110.87 0,135.54z"/>
  <path class="fil0" d="M447.46 934.91c31.1,18.14 89.89,18.54 123.54,1.02l-12.05 -22.17 -98.9 1.07 -12.6 20.09z"/>
  <path class="fil0" d="M1722.83 1913.32c11.27,17.45 -17.57,22.31 42.42,24.13 44.22,1.33 30.04,-2.28 46.91,-21.31 -32.48,-19.4 -48.33,-20.35 -89.33,-2.82z"/>
 </g>
</svg>
