<?xml version="1.0" encoding="UTF-8"?>
<!DOCTYPE svg PUBLIC "-//W3C//DTD SVG 1.1//EN" "http://www.w3.org/Graphics/SVG/1.1/DTD/svg11.dtd">
<!-- Creator: CorelDRAW -->
<svg xmlns="http://www.w3.org/2000/svg" xml:space="preserve" width="100%" height="100%" version="1.1" style="shape-rendering:geometricPrecision; text-rendering:geometricPrecision; image-rendering:optimizeQuality; fill-rule:evenodd; clip-rule:evenodd"
viewBox="0 0 3713.75 4443.89"
 xmlns:xlink="http://www.w3.org/1999/xlink"
 xmlns:xodm="http://www.corel.com/coreldraw/odm/2003">
 <defs>
  <style type="text/css">
   <![CDATA[
    .fil0 {fill:#003399}
   ]]>
  </style>
 </defs>
 <g id="Layer_x0020_1">
  <metadata id="CorelCorpID_0Corel-Layer"/>
  <g id="_105553397090496">
   <path class="fil0" d="M3.92 1034.44c0,157.95 -29.63,296.47 74.12,296.47l518.83 0 0 1185.89c0,44.81 29.3,74.12 74.12,74.12l370.59 0 0 -148.24 -296.47 0 0 -1185.89c0,-44.81 -29.3,-74.12 -74.12,-74.12l-518.83 0c0,-150.99 -25.22,-75.24 198.47,-209.18 169.07,-101.24 462.99,-241.88 644.22,-347.12l262.87 -144.78c21.63,-11.61 34.37,-16.06 55.51,-27.87 39.51,-22.08 69.3,-38.13 108.33,-58.43 50.33,-26.18 412.94,-231.74 435.32,-231.74 21.24,0 379.01,201.54 429.22,228.58l1232.7 666.58c50.86,26.47 42.8,3.4 42.8,123.97l-518.83 0c-44.81,0 -74.12,29.3 -74.12,74.12l0 1185.89c-358.79,0 -296.47,-68.56 -296.47,444.71 0,44.81 29.3,74.12 74.12,74.12l444.71 0 0 148.24 -2371.79 0 0 148.24 2640.47 0c21.35,0 27.8,6.44 27.8,27.8l0 982.07c0,21.35 -6.44,27.79 -27.8,27.79l-3205.62 0c-21.35,0 -27.8,-6.44 -27.8,-27.79l0 -982.07c0,-21.35 6.44,-27.8 27.8,-27.8l416.91 0 0 -148.24 -435.44 0c-84.68,0 -157.5,72.83 -157.5,157.5l0 1019.13c0,84.68 72.82,157.5 157.5,157.5l3242.68 0c84.67,0 157.5,-72.83 157.5,-157.5l0 -1019.13c0,-181.3 -200.46,-157.5 -296.47,-157.5 0,-157.95 29.63,-296.47 -74.12,-296.47l-444.71 0 0 -222.36c157.95,0 296.48,29.63 296.48,-74.12l0 -1185.89 518.83 0c103.74,0 74.12,-138.52 74.12,-296.47 0,-67.58 -116.69,-114.64 -203.83,-157.5l-469.46 -253.19c-24.36,-13.12 -28.05,-17.86 -52.41,-30.97l-764.15 -412.49c-38.51,-23.44 -78.65,-43.3 -119.26,-66.03 -41.46,-23.2 -76.39,-39.29 -114.56,-61.47 -146.49,-85.13 -139.76,-69.15 -373.15,61.47l-1519.57 824.42c-42.68,20.79 -89.53,36.75 -89.53,95.77z"/>
   <path class="fil0" d="M1856.87 1710.78c0,26.07 61.11,166.65 72.8,195.88 13.39,33.52 75.44,176.27 75.44,202.5l0 852.36 148.24 0 0 -898.69 -138.97 -361.33 426.18 0 -138.97 361.33 0 379.86 148.24 0c0,-349 -31.24,-269.12 72.8,-529.42 13.39,-33.51 75.44,-176.27 75.44,-202.5l0 -750.45 -148.24 0 0 592.95 -148.24 0 0 -592.95 -148.24 0 0 592.95 -148.24 0 0 -592.95 -148.24 0 0 750.45z"/>
   <path class="fil0" d="M1115.69 1544.01l0 648.54c0,98.13 74.46,205.17 148.24,222.35l0 546.62 148.24 0 0 -518.83 148.24 0 0 518.83 148.24 0 0 -1482.37 -148.24 0 0 815.3c-358.07,0 -296.47,46.77 -296.47,-676.33 0,-130.01 30.32,-216.57 81.31,-298.54 37.35,-60.03 140.08,-156.48 215.16,-173.96l0 185.3 148.24 0 0 -296.47c0,-143.91 -215.45,-34.41 -271.72,-3.05 -52.14,29.06 -119.35,78.69 -156.72,121.23 -74.76,85.11 -164.51,236.57 -164.51,391.38z"/>
   <path class="fil0" d="M2746.3 3971.38c0,-84.88 -11.74,-120.44 27.8,-120.44l389.12 0c39.53,0 27.8,35.56 27.8,120.44 0,21.35 -6.44,27.8 -27.8,27.8l-389.12 0c-21.35,0 -27.8,-6.45 -27.8,-27.8zm-148.24 -111.18c0,92.03 -21.59,287.21 157.5,287.21l426.18 0c179.09,0 157.5,-195.18 157.5,-287.21 0,-84.67 -72.83,-157.5 -157.5,-157.5l-426.18 0c-84.68,0 -157.5,72.83 -157.5,157.5z"/>
   <polygon class="fil0" points="1634.52,663.85 2079.23,663.85 2079.23,515.61 1634.52,515.61 "/>
   <polygon class="fil0" points="2301.59,2961.52 2449.82,2961.52 2449.82,2590.93 2301.59,2590.93 "/>
   <polygon class="fil0" points="374.51,3554.47 670.98,3554.47 670.98,3406.23 374.51,3406.23 "/>
   <polygon class="fil0" points="819.22,3554.47 1115.69,3554.47 1115.69,3406.23 819.22,3406.23 "/>
   <polygon class="fil0" points="2153.35,3554.47 2449.82,3554.47 2449.82,3406.23 2153.35,3406.23 "/>
   <polygon class="fil0" points="2598.06,3554.47 2894.53,3554.47 2894.53,3406.23 2598.06,3406.23 "/>
   <polygon class="fil0" points="3042.77,3554.47 3339.24,3554.47 3339.24,3406.23 3042.77,3406.23 "/>
   <polygon class="fil0" points="2153.35,3850.94 2449.82,3850.94 2449.82,3702.7 2153.35,3702.7 "/>
   <polygon class="fil0" points="374.51,3850.94 670.98,3850.94 670.98,3702.7 374.51,3702.7 "/>
   <polygon class="fil0" points="819.22,3850.94 1115.69,3850.94 1115.69,3702.7 819.22,3702.7 "/>
   <polygon class="fil0" points="374.51,4147.42 670.98,4147.42 670.98,3999.18 374.51,3999.18 "/>
   <polygon class="fil0" points="819.22,4147.42 1115.69,4147.42 1115.69,3999.18 819.22,3999.18 "/>
   <polygon class="fil0" points="2153.35,4147.42 2449.82,4147.42 2449.82,3999.18 2153.35,3999.18 "/>
   <polygon class="fil0" points="1263.93,3554.47 1560.4,3554.47 1560.4,3406.23 1263.93,3406.23 "/>
   <polygon class="fil0" points="1708.64,3554.47 2005.11,3554.47 2005.11,3406.23 1708.64,3406.23 "/>
   <polygon class="fil0" points="1263.93,3850.94 1560.4,3850.94 1560.4,3702.7 1263.93,3702.7 "/>
   <polygon class="fil0" points="1708.64,3850.94 2005.11,3850.94 2005.11,3702.7 1708.64,3702.7 "/>
   <polygon class="fil0" points="1263.93,4147.42 1560.4,4147.42 1560.4,3999.18 1263.93,3999.18 "/>
   <polygon class="fil0" points="1708.64,4147.42 2005.11,4147.42 2005.11,3999.18 1708.64,3999.18 "/>
  </g>
 </g>
</svg>
