<?xml version="1.0" encoding="UTF-8"?>
<!DOCTYPE svg PUBLIC "-//W3C//DTD SVG 1.1//EN" "http://www.w3.org/Graphics/SVG/1.1/DTD/svg11.dtd">
<!-- Creator: CorelDRAW -->
<svg xmlns="http://www.w3.org/2000/svg" xml:space="preserve" width="100%" height="100%" version="1.1" style="shape-rendering:geometricPrecision; text-rendering:geometricPrecision; image-rendering:optimizeQuality; fill-rule:evenodd; clip-rule:evenodd"
viewBox="0 0 2983.17 2664.96"
 xmlns:xlink="http://www.w3.org/1999/xlink"
 xmlns:xodm="http://www.corel.com/coreldraw/odm/2003">
 <defs>
  <style type="text/css">
   <![CDATA[
    .fil0 {fill:#003399}
   ]]>
  </style>
 </defs>
 <g id="Layer_x0020_1">
  <metadata id="CorelCorpID_0Corel-Layer"/>
  <g id="_105553396330848">
   <path class="fil0" d="M1345.74 841.92l-46.41 0 79.55 -271.8 53.04 0c1.75,21.06 11.13,46.35 17.58,68.6 13,44.85 54.68,173.35 55.34,203.2l-46.41 0c-1.57,-70.5 -15.7,-59.67 -79.55,-59.67 -26.98,0 -31.03,34.25 -33.15,59.67zm696.07 -225.4c12.37,53.07 78.44,142.56 79.55,192.25 -60.25,0 -95.43,-24.07 -113,-66.04 -23.09,-55.19 -8.24,-98.3 33.44,-126.21zm-1199.89 0c11.67,50.09 78.47,143.88 79.55,192.25 -60.29,0 -95.39,-24.06 -113.02,-66.06 -22.34,-53.23 -7.83,-98.54 33.47,-126.19zm1219.78 -13.26c144.98,0 144.32,168.33 79.55,185.62 -16.53,-31.24 -78.72,-155.64 -79.55,-185.62zm-1199.9 0c49.16,0 89.03,8.94 113.02,66.06 17.45,41.55 14.14,106.85 -33.47,119.56 -17.66,-33.38 -75.29,-152.38 -79.55,-185.62zm921.47 72.93l112.7 0 0 46.4 -112.7 0 0 72.93 125.95 0 0 46.41 -172.36 0 0 -258.54c0,-34.59 70.19,-19.89 165.73,-19.89l0 46.41 -119.33 0 0 66.3zm-192.25 6.63l99.44 0 0 39.78 -99.44 0 0 119.33 -46.41 0 0 -271.8 159.1 0 0 39.77 -112.7 0 0 72.92zm-470.68 -6.63c0,65.66 -4.48,125.95 66.29,125.95 28.78,0 39.24,-29 39.78,-53.03l46.41 0c-10.88,130.76 -198.88,155.26 -198.88,-53.04 0,-58.98 30.46,-132.59 86.18,-132.59 52.01,0 105.76,9.48 112.7,92.81l-46.41 0c-7.2,-86.56 -106.07,-54.94 -106.07,19.89zm-762.37 198.88c0,158.41 200.38,153.77 225.39,46.41 7.25,5.31 70.68,127.69 183.25,57.3 19.9,-12.44 39.87,-30.01 42.14,-57.3 8.52,6.24 72.27,126.7 183.26,57.3 19.89,-12.44 39.87,-30.01 42.14,-57.3 19.14,14.02 33.81,73.31 114.06,77.85 47.77,2.7 107.52,-32.03 111.34,-77.85 21.51,15.76 26.94,66.33 108.67,77.2 50.71,6.75 106.03,-30.53 116.72,-70.58l13.26 0c21.43,91.99 186.58,95.71 212.14,0l13.26 0c21.49,92.22 190.65,92.22 212.14,0l13.26 0c14.87,55.69 102.93,99.81 179.42,46.83 31.6,-21.88 22.61,-36.35 45.98,-53.46 2.09,25.11 16.58,42.06 32.68,53.5 79.57,56.54 166.71,7.82 179.45,-46.87l13.26 0c24.08,103.36 218.76,96.64 218.76,-33.15l0 -411.02 -2260.57 0 0 391.13z"/>
   <path class="fil0" d="M364.61 417.64l2253.94 0c-4.98,-18.64 -17.81,-35.16 -27.83,-51.72l-157.42 -266.85c-19.91,-33.27 -50.11,-99.07 -73.29,-99.07l-1736.87 0c-23.11,0 -50.35,60.58 -70.83,94.91 -22.8,38.21 -40.91,70.24 -63.85,108.51l-123.87 214.22z"/>
   <path class="fil0" d="M822.03 2021.92c0,93.14 62.17,79.71 119.32,79.56 64.08,-0.17 128.18,-0.01 192.26,-0.01l-158.33 418.42c-9.29,25.77 -18.78,45.59 -28.07,71.37 -8.68,24.06 -19.55,47.12 -25.74,73.7l79.55 0 251.91 -563.49 483.94 0c2.16,25.98 102.41,241.85 121.55,282.83l123.73 280.66 79.55 0c-2.54,-30.56 -38.24,-107.11 -50.56,-141.69l-106.07 -278.43c-16.52,-46.39 -35.97,-102.63 -55.51,-143.37 61.87,0 123.75,-0.08 185.62,0 101.3,0.13 125.95,-0.44 125.95,-79.56 0,-43.47 -35.38,-66.29 -79.55,-66.29l-1180.01 0c-42.79,0 -79.55,24.82 -79.55,66.29z"/>
   <path class="fil0" d="M59.66 1657.31c0,56.9 37.94,239.91 50.24,307.74 11.08,61.16 13.71,93.14 33.93,145.06 10.97,28.15 13.77,35.92 28.37,57.81 13.42,20.13 28.11,35.21 39.94,52.87 -72.74,137.47 -139.21,279.83 -212.14,417.65 19.32,10.22 40.33,24.35 66.3,26.52 10.52,-45.19 76.67,-154.89 99.52,-198.79 34.06,-65.44 64.86,-133.78 99.35,-198.96 118.76,79.53 158.37,72.92 324.83,72.92 4.86,20.88 28.94,57.75 39.78,79.55 25.06,50.39 112.26,214.98 119.32,245.29 37.57,-3.13 37.5,-18.83 66.3,-26.52 -9.05,-38.83 -132.27,-240.06 -145.85,-298.32 101.04,0 125.96,-14.78 125.96,-86.18 0,-56.97 -52.64,-66.88 -112.6,-66.39 -56.32,0.46 -130.93,4.02 -185.39,-0.23 -56.36,-4.4 -105.78,-16.75 -140.7,-44.91 -86.46,-69.74 -82.46,-156.93 -104.29,-266.95 -18.93,-95.44 -28.83,-259.01 -89.63,-282.09 -25.67,-9.74 -47.85,-8.15 -68.98,5.21 -16.48,10.43 -34.26,33.24 -34.26,58.73z"/>
   <path class="fil0" d="M2187.65 2253.94c0,71.4 24.93,86.18 125.96,86.18 -13.42,57.59 -136.13,256.63 -145.84,298.32 33.75,7.86 36.17,24.01 66.29,26.52 7.06,-30.28 92.18,-190.57 117.09,-240.89 14.38,-29.03 35.35,-55.36 42.01,-83.94 171.67,0 218.76,-1.89 324.83,-72.92l101.67 196.64c17.97,36.29 91.11,174.96 97.2,201.11 28.9,-6.73 37.39,-19.78 66.29,-26.52l-212.13 -417.65c26.43,-39.47 41.96,-43.59 68.37,-110.61 18.76,-47.62 23.69,-88.52 33.87,-145.12 12.15,-67.61 50.23,-251.01 50.23,-307.75 0,-38.91 -41.23,-83.79 -98.21,-65.64 -48.39,15.42 -54.71,64.43 -64.74,121.46l-58.62 312.62c-12.04,48.96 -38.71,86.65 -71.92,113.7 -139.44,113.56 -442.36,-23.96 -442.36,114.5z"/>
   <path class="fil0" d="M1425.29 1617.54c-36.1,3 -79.14,24.09 -103.48,42.36 -124.14,93.15 -16.66,242.7 70.34,242.7 128.32,0 226.4,21.61 292.8,-51.92 87.71,-97.13 -7.47,-223.19 -127.07,-233.14l0 -178.99 -132.58 0 0 178.99z"/>
   <path class="fil0" d="M1445.18 1305.96c0,-55.99 92.81,-66.89 92.81,6.63 0,10.32 -8.31,21.65 -13.07,26.71 -28.63,30.41 -79.74,5.61 -79.74,-33.33zm-13.26 -59.67c-65.64,5.46 -28.54,50.46 -32.53,68.49 -0.02,0.09 -33.09,49.38 32.53,50.84 5.45,65.46 51.18,30.44 59.66,30.44 9.8,0 58.16,37.08 59.67,-30.44 65.98,-5.49 30.8,-54.33 30.61,-55.86 -1.59,-12.89 34.68,-58.03 -30.61,-63.46 -2.54,-30.56 -5.36,-18.07 -19.89,-39.78 -35.89,2.99 -6.28,3.8 -31.19,8.43 -34.55,6.41 -62.92,-32.72 -68.25,31.35z"/>
   <path class="fil0" d="M1292.7 1471.69c-40.21,0 -53.04,-12.81 -53.04,-53.03 0,-46.05 92.81,-52.93 92.81,6.63 0,18.76 -21.04,46.4 -39.78,46.4zm-106.07 -79.55c0,35.35 14.02,11.44 7.24,41.97 -0.02,0.09 -33.09,49.38 32.53,50.84 1.54,69.2 47.8,27.94 68.49,32.53 0.09,0.02 49.38,33.09 50.84,-32.53 28.39,-0.63 39.9,-6.19 37.47,-31.89 -1.33,-14.1 -7.19,-13.26 -7.04,-27.42 0.21,-18.92 28.58,-21.81 -6.69,-50.63 -44.24,-36.15 -24.58,-37.83 -47.75,-44.89 -34.08,-10.39 4.39,0.92 -31.23,4.52 -40.79,4.13 -26.08,-28.09 -66,22.39 -16.94,21.42 -37.87,20.68 -37.87,35.09z"/>
   <path class="fil0" d="M1650.69 1425.29c0,-56.16 92.81,-59.46 92.81,0 0,67.17 -92.81,58.46 -92.81,0zm-53.04 -33.15c5.62,24.13 3.66,21.26 19.89,33.15 -1.05,1.57 -55.18,57.99 19.89,59.66 5.5,66.09 53.52,28.19 72.57,33.88 20.57,6.13 -22.65,5.9 20.24,5.9 23.61,0 25.98,-15.72 26.52,-39.78 68.78,-1.53 27.47,-44.46 33.88,-65.94 5.78,-19.38 5.9,17.86 5.9,-13.61 0,-30.12 -11.54,-37.43 -39.78,-39.78 -4.5,-54.13 -46.04,-31.89 -55.23,-30.97 -26.39,2.66 4.57,-1.22 -26.8,-5.01 -35.5,-4.3 -11.76,9.24 -56.62,43.17 -8.36,6.33 -13.46,11.28 -20.45,19.32z"/>
   <path class="fil0" d="M1650.69 1279.44c7.05,-7.05 25.15,10.52 7.39,3.44 -0.15,-0.06 -18.49,7.66 -7.39,-3.44zm-13.26 -6.63l1.98 1.98c-0.13,-0.13 -2.64,-1.31 -1.98,-1.98zm33.15 -19.89c6.72,8.89 6.63,-13.94 6.63,19.89 -6.13,-8.11 -4.3,7.45 -6.63,-19.89zm0 0l0 0zm13.26 -33.15l-53.03 0c-4.39,12.13 -23.57,24.07 -18.33,54.4 4.95,28.72 40.98,53.59 72.81,26.61 1,-0.84 2.5,-2.28 3.43,-3.21 13.63,-13.64 16.98,-29.54 10.43,-48.19 -6.58,-18.7 -7.86,-1.76 -15.3,-29.61z"/>
   <path class="fil0" d="M1339.11 1279.44c-8.89,6.72 13.94,6.63 -19.89,6.63 8.11,-6.13 -7.45,-4.3 19.89,-6.63zm0 0l0 0zm-26.52 -26.52c0,33.83 0.09,11 -6.63,19.89 0,-35.05 0.05,-9.88 6.63,-19.89zm26.52 0l0 0zm0 0l0 0zm-26.52 0l0 0zm39.78 -33.15l-53.04 0c-6.37,23.87 -7.42,12.6 -13.65,25.66 -6.51,13.62 -7.74,27.93 -0.17,41.09l12.46 14.34c13.34,11.33 14.44,9.88 27.89,9.88 21.03,0 37.45,-11.76 43.91,-32.34 9.06,-28.91 -12.42,-39.99 -17.39,-58.62z"/>
   <path class="fil0" d="M1670.57 1398.77c-23.46,100.68 66.29,64.81 66.29,33.15 0,-15.63 -13,-29.5 -19.89,-39.78l-46.4 6.63z"/>
   <path class="fil0" d="M1246.3 1425.29c0,45.09 88.9,70.51 66.29,-26.52l-46.41 -6.63c-3.41,5.09 -19.89,28.06 -19.89,33.15z"/>
   <path class="fil0" d="M1451.81 1312.59c20.51,23.6 8.9,16.81 39.78,33.15 14.78,-7.82 19.96,-11.06 33.15,-19.89 0,-52 -1.03,-53.04 -53.03,-53.04 -12.41,18.54 -10.5,20.21 -19.89,39.78z"/>
   <path class="fil0" d="M1372.26 742.48l59.67 0c-0.8,-35.98 -18.56,-78.56 -26.52,-112.7 -0.91,1.31 -2.23,1.8 -2.56,4.07l-30.59 108.63z"/>
   <path class="fil0" d="M1219.78 1286.07c6.31,27.07 6.07,26.84 33.15,33.15 36.1,-53.91 -10.85,-54.96 -33.15,-33.15z"/>
   <path class="fil0" d="M1372.26 1206.52c41.81,28 61.15,8.67 33.15,-33.15 -27.07,6.31 -26.84,6.07 -33.15,33.15z"/>
   <path class="fil0" d="M1716.98 1292.7c0,14.86 5.25,14.56 13.26,26.52l26.78 -12.99c0.89,-0.76 2.6,-2.69 3.29,-3.33 0.69,-0.65 1.99,-2.43 3.07,-3.56 -26.33,-49.76 -46.41,-22.52 -46.41,-6.63z"/>
   <path class="fil0" d="M1564.5 1199.89c0,15.89 20.07,43.13 46.41,-6.63 -1.08,-1.13 -2.55,-4.67 -3.07,-3.56 -0.52,1.11 -2.55,-2.75 -3.29,-3.34l-26.78 -12.99c-8.01,11.96 -13.26,11.65 -13.26,26.52z"/>
  </g>
 </g>
</svg>
