<?xml version="1.0" encoding="UTF-8"?>
<!DOCTYPE svg PUBLIC "-//W3C//DTD SVG 1.1//EN" "http://www.w3.org/Graphics/SVG/1.1/DTD/svg11.dtd">
<!-- Creator: CorelDRAW -->
<svg xmlns="http://www.w3.org/2000/svg" xml:space="preserve" width="100%" height="100%" version="1.1" style="shape-rendering:geometricPrecision; text-rendering:geometricPrecision; image-rendering:optimizeQuality; fill-rule:evenodd; clip-rule:evenodd"
viewBox="0 0 6419.29 6817.4"
 xmlns:xlink="http://www.w3.org/1999/xlink"
 xmlns:xodm="http://www.corel.com/coreldraw/odm/2003">
 <defs>
  <style type="text/css">
   <![CDATA[
    .fil0 {fill:#003399}
   ]]>
  </style>
 </defs>
 <g id="Layer_x0020_1">
  <metadata id="CorelCorpID_0Corel-Layer"/>
  <path class="fil0" d="M2965.56 3297.6c-147.84,-172.19 -301.08,-469.43 -329.21,-713.19 -39.24,-339.94 14.5,-631.39 147.87,-886.29 209.83,-401.04 656.16,-784.74 1297.41,-778.05 1077.65,11.23 1739.37,1127.72 1287.37,2068.07 -40.81,84.92 -144.23,269.64 -209.26,306.94 -24.42,-29.59 -12.41,-80.1 -112.57,-178.81 -64.5,-63.57 -573.3,-280.65 -587.39,-281.61 -33.48,56.91 -171.92,549.17 -221.47,695.66l-20.64 37.69c-21.72,-54.13 -41.93,-103.07 -62,-164.03 -32.25,-98 -33.97,-72.46 7.36,-158.02 58.97,-122.05 89.76,-248.54 -97.4,-251.97 -187.06,-3.43 -156.86,134.75 -96.56,250.66 45.28,87.04 40.72,63.8 6.7,159.97 -14.74,41.7 -35.52,122.7 -63.09,150.35 -26.1,-34.24 -216.91,-645.86 -239.1,-729.85 -54.13,14.64 -145.48,70.56 -203.32,98.27 -64.91,31.11 -136.78,64.41 -204.91,92.45 -254.72,104.83 -209.93,155.64 -299.78,281.77zm2261.1 -2884.65c33.29,-223.54 -46.65,-229.06 -376.04,-350.83 -269.81,-99.75 -270.46,-101.59 -434.92,161.83 -169.89,272.11 -129.61,245.03 -478.9,254.88 -157.78,4.45 -201.24,7.85 -277.43,-94.31 -146.66,-196.66 -207.04,-373.15 -384.54,-318.85 -85.8,26.25 -181.83,71.41 -260.15,108.78 -252.33,120.4 -297.46,109.72 -216.96,428.57 76.75,304 70.96,269.42 -55.86,409.19 -94.76,104.44 -184.7,239.61 -309.34,242.19 -230.83,4.76 -475.44,-160.22 -564.09,51.04 -36.57,87.15 -69.46,175.04 -101.62,268.57 -106.76,310.52 -72.8,309.97 165.27,449.42 85.72,50.21 157.59,94.87 214.71,155.47 30,31.83 21.84,99.98 24.07,156.63 8.89,225.45 41.3,333.41 -105.06,438.43 -221.95,159.27 -369.31,191.85 -297.14,394.24 33.03,92.62 70.75,174.98 108.9,261.28 123.31,278.96 136.21,263.67 447.8,183.13 278.87,-72.08 271.2,-38.91 487.76,168.94 99.19,95.2 140.39,125.72 129.65,230.31 -29.96,291.77 -144.17,459.78 64.31,548.7 86.89,37.06 178.44,70.41 268.84,101.76 261,90.51 268.71,109.94 436.75,-169.2 147.83,-245.57 119.16,-226.35 489.62,-239.68 169.05,-6.08 187.57,4.41 262.42,105.04 157.14,211.26 207.63,368.92 388.46,310.3 87.76,-28.44 177.07,-71.46 260.21,-110.5 260.07,-122.09 290.57,-123.08 203.33,-439.31 -22.76,-82.48 -72.09,-227.41 -20.7,-303.26 42.04,-62.07 121.61,-137.89 174.11,-187.89 97.66,-93.03 126.76,-152.3 228.65,-142.69 102.87,9.7 212.59,32.93 312.51,50.26 232.3,40.28 244.05,-85.67 347.39,-379.49 24.86,-70.67 91.09,-216.24 44.28,-285 -71.87,-105.57 -385.04,-222.02 -421.45,-310.99 -24.8,-60.6 -26.6,-258.91 -28.73,-336.7 -7.02,-256.15 67.62,-236.96 313.36,-422.19 77.82,-58.66 146.19,-89.3 99.22,-236.2 -27.59,-86.31 -71.96,-181.37 -109.96,-260.29 -126.23,-262.19 -113.5,-286.74 -440.02,-203.19 -314.87,80.57 -261.33,56.57 -491.8,-152.29 -218.14,-197.69 -146.59,-202.68 -96.94,-536.12z"/>
  <path class="fil0" d="M1366.52 4498.63c356.31,-41.42 621.68,207.02 669.61,501.98 29.08,178.92 -37.6,343.59 -122.38,453.26 -335.77,434.3 -1007.34,196.32 -1055.24,-272.63 -19.8,-193.81 26.3,-351.65 121.72,-467.64 76.46,-92.96 207.72,-194.22 386.3,-214.97zm-1057.49 -255.97c53.83,177.94 226.89,149.89 75.8,462.57 -31.51,65.21 -33.87,85.46 -112.95,104.38 -201.52,48.2 -262.78,12.37 -269.44,172.91 -2.72,65.53 -4.2,152.16 1.21,216.9 19.17,229.45 299.17,32.58 382.83,276.04 63.18,183.86 104.85,132.87 -2.72,299.02 -25.19,38.91 -61.78,90.03 -82.03,135.54 -23.69,53.24 9.18,87.98 58.67,139.11 30.4,31.41 175.27,199.68 237.56,181.52 80.73,-23.54 213.69,-161.89 285.22,-149.81 45.94,7.76 116.16,40.62 159.05,58.84 66.94,28.44 94.12,32.03 115.65,101.25 50.94,163.78 2.02,276.67 148.35,292.56 64.52,7.01 151.66,5.51 217.09,2.46 73.52,-3.42 117.75,-11.94 139.28,-77.87 43.92,-134.49 3.36,-249.74 142.97,-300.16 196.93,-71.12 162.28,-105.8 303.79,-15.55 184.15,117.45 167.75,132.66 277.13,49.71 46.33,-35.13 74.21,-64.63 113.89,-103.33 30.07,-29.34 85.08,-74.27 78.22,-139.81 -9.78,-93.4 -155.81,-212.88 -141.84,-293.94 5.76,-33.4 44.93,-125.02 59.96,-157.07 26.34,-56.2 38.17,-99.48 99.24,-118.46 160.34,-49.83 289.73,-11.48 297.56,-145.17 24.69,-421.41 -24.4,-340.83 -250.98,-396.24 -86.22,-21.09 -83.82,-28.86 -119.15,-99.12 -24.48,-48.69 -46.96,-98.97 -64.69,-152.7 -23.91,-72.48 11.69,-111.02 41.58,-154.94 107.88,-158.52 135.96,-175.19 50.1,-282.41 -32.76,-40.91 -169.33,-198.5 -238.08,-194.41 -91.47,5.45 -203.91,158.82 -297.43,144.24 -43.72,-6.82 -121.33,-42.3 -159.82,-59.35 -73.07,-32.38 -104.87,-44.22 -120.18,-95.95 -84.31,-285.05 27.35,-306.13 -364.67,-299.53 -85.64,1.44 -116.99,7.54 -141.74,78.71 -65.82,189.22 1.79,222.07 -146.55,296.02 -178.61,89.05 -200.59,90.97 -299.67,23.61 -138.93,-94.46 -171.16,-149.68 -286.46,-46.48 -44.8,40.09 -205.91,183.57 -186.76,246.89z"/>
  <path class="fil0" d="M4223.23 5916.15c-137.68,532.03 -912.72,341.4 -795.91,-195.64 23.83,-109.55 105.3,-183.93 168.63,-233.65 86.17,-67.63 194.72,-85.37 329.47,-58.32 182.41,36.62 359.45,249.37 297.8,487.61zm325.26 217.91c190.61,-21.9 226.96,12.06 250.31,-89.82 10.12,-44.18 17.81,-96.72 21,-144.35 4.85,-72.32 -7.06,-78.02 -65.76,-101.35 -121.85,-48.43 -136.74,-24.94 -176.97,-161.01 -15.25,-51.57 -30.09,-87.77 -1.63,-128.53 105.51,-151.09 178.43,-112.36 32.9,-296.52 -84.52,-106.94 -89.67,-80.63 -217.59,-25.54 -55.73,24 -86.78,20.74 -136.46,-6.76 -30.77,-17.03 -78.5,-44.3 -101.75,-66.89 -73.08,-70.97 7.72,-208.74 -79.71,-250.56 -31.96,-15.29 -100.69,-20.51 -140.84,-26.92 -67.47,-10.78 -98.62,-21.04 -125.8,32.44 -48.31,95.08 -25.84,161.7 -132.06,197.74 -158.13,53.65 -144.27,32.78 -235.19,-43.76 -25.88,-21.78 -69.54,-65.99 -111.14,-55.65 -16.35,4.06 -86.17,50.91 -101.24,62.39 -87.46,66.59 -122.22,82.02 -59.87,209.11 53.87,109.81 34.83,138.82 -27.38,226.54 -89.47,126.18 -170.94,36.71 -254.66,83.38 -47.6,26.53 -56.88,212.59 -47.38,277.78 61.67,43.87 172.95,53.38 207.9,105.08 41.13,60.84 56.77,176.52 12.31,240.5 -16.61,23.9 -51.33,63.03 -70.26,82.59 -34.67,35.83 -44.97,47.24 -10.36,99.11 45.42,68.06 82.37,112.37 138.18,166.01 51.46,6.18 100.2,-24.92 141.06,-44.82 62.56,-30.48 71.44,-43.13 137.12,-6.44 157.49,87.98 127.08,86.18 136.76,234.68 5.15,78.97 14.79,80.85 86.09,95.69 44.71,9.3 122.5,21.83 168.15,18.78 96.62,-6.46 61.88,-175.22 153.53,-215.87 184.23,-81.69 188.86,-38.31 255.58,16 104.08,84.73 116.41,88.81 230.88,3.77 109.35,-81.24 107.74,-93.7 45.74,-232.41 -50.32,-112.59 37.73,-182.67 78.54,-254.38z"/>
  <path class="fil0" d="M3975.35 1269.69c-221.53,43.61 -481.03,292.12 -469.24,575.51 2.27,54.44 27.83,112.5 -8.85,147.46 -62.93,59.97 -24.22,191.24 5.61,270.2 22.46,59.46 42.06,68.86 65.26,111.89 54.23,100.61 64.66,303.83 285.77,406.17 277.28,128.33 534.36,15.73 639.75,-299.09 53.24,-159.05 70.33,-39.06 129.54,-215.57 71.57,-213.38 8.94,-201.64 8.96,-292.18 0.02,-122.98 29.25,-196.04 2.57,-329.02 -9.14,-45.58 -27.4,-90.19 -50.76,-117.26 -42.93,-49.75 -50.85,-41.68 -100.41,-76.56 -33.87,-23.83 -49.12,-54.99 -85.91,-83.11 -114.82,-87.73 -272.44,-127.93 -422.28,-98.43z"/>
 </g>
</svg>
