<?xml version="1.0" encoding="UTF-8"?>
<!DOCTYPE svg PUBLIC "-//W3C//DTD SVG 1.1//EN" "http://www.w3.org/Graphics/SVG/1.1/DTD/svg11.dtd">
<!-- Creator: CorelDRAW -->
<svg xmlns="http://www.w3.org/2000/svg" xml:space="preserve" width="100%" height="100%" version="1.1" style="shape-rendering:geometricPrecision; text-rendering:geometricPrecision; image-rendering:optimizeQuality; fill-rule:evenodd; clip-rule:evenodd"
viewBox="0 0 393.7 439.09"
 xmlns:xlink="http://www.w3.org/1999/xlink"
 xmlns:xodm="http://www.corel.com/coreldraw/odm/2003">
 <defs>
  <style type="text/css">
   <![CDATA[
    .fil3 {fill:#3E4D55}
    .fil1 {fill:#63B4F5}
    .fil2 {fill:#ED5250}
    .fil0 {fill:#FEC828}
   ]]>
  </style>
 </defs>
 <g id="Layer_x0020_1">
  <metadata id="CorelCorpID_0Corel-Layer"/>
  <g id="_105553471485440">
   <path class="fil0" d="M15.2 52.55c5.86,6.42 67.17,44.14 76.03,44.59 10.07,0.51 72.15,-37.54 78.56,-44.59 -5.57,-6.41 -66.83,-44.03 -75.96,-44.66 -10.19,-0.7 -72.44,37.57 -78.64,44.66z"/>
   <path class="fil1" d="M224.82 52.55c9.73,9.27 23.7,15.91 35.94,23.2 8.17,4.86 31.95,21.26 40.88,21.43 8.85,0.17 71.08,-37.81 77.59,-44.63 -5.6,-6.19 -68.82,-44.37 -75.54,-45 -8.25,-0.77 -68.13,34.15 -78.87,45z"/>
   <path class="fil2" d="M14.11 279.42c4.29,6.36 -0.09,0.94 4.86,5.54 0.33,0.31 4.51,3.53 5.26,4.04 12.07,8.13 61.75,38.15 69.44,37.67 3.99,-0.25 69.62,-36.2 77.24,-47.12 -16.69,-5.98 -66.73,-43.29 -79.57,-42.61 -11.63,0.62 -60.45,36.6 -77.22,42.49z"/>
   <path class="fil3" d="M218.1 60.77l79.54 45.51 0.56 94.74c-11.04,-2.4 -68.65,-38.45 -78.41,-45.31l-1.69 -94.94zm87.73 139.98l-0.11 -94.43c17.56,-9.54 66.35,-42.83 79.78,-45.14 0.12,18.55 0.02,37.11 0.06,55.66 0.05,19.18 4.67,34.55 -10.09,44.58 -10.93,7.43 -61.46,38.14 -69.63,39.32zm-81.02 -148.2c10.74,-10.84 70.61,-45.76 78.87,-45 6.72,0.63 69.94,38.81 75.54,45 -6.5,6.82 -68.74,44.8 -77.59,44.63 -8.93,-0.17 -32.72,-16.57 -40.88,-21.43 -12.24,-7.29 -26.21,-13.93 -35.94,-23.2zm67.49 -50.84c-18.98,8.57 -43.19,25.47 -61.04,36.03 -27.41,16.22 -20.22,21.51 -20.29,79.11 -0.06,47.85 -0.7,42.14 33.69,62.78 71.4,42.86 48.93,38.48 126.79,-7.46 28.73,-16.95 21.38,-21.76 21.45,-78.69 0.06,-52.15 3.43,-41.39 -33.62,-63.58 -14.88,-8.92 -49.28,-36.18 -66.98,-28.18z"/>
   <path class="fil3" d="M96.23 430.89c-1.02,-113.78 -10.39,-88.14 38.96,-117.96 11.99,-7.24 27.91,-18.13 40.15,-23.42l0.73 78.69c0,24.21 -14.94,25.16 -33.8,36.51 -12.54,7.54 -32.92,21.75 -46.05,26.19zm-86.54 -141.35c12.55,5.58 27.78,16 40.14,23.45 50.87,30.66 39.02,5.82 39.02,117.77 -12.67,-3.98 -57.26,-31.82 -70.12,-39.91 -14.4,-9.07 -9.87,-24.43 -9.83,-46.03 0.04,-18.35 -1.01,-37.04 0.8,-55.28zm4.42 -10.11c16.77,-5.89 65.59,-41.87 77.22,-42.49 12.85,-0.68 62.88,36.63 79.57,42.61 -7.61,10.92 -73.25,46.87 -77.24,47.12 -7.7,0.48 -57.37,-29.54 -69.44,-37.67 -0.75,-0.5 -4.93,-3.72 -5.26,-4.04 -4.95,-4.6 -0.57,0.82 -4.86,-5.54zm71.69 -49.3c-17.22,6.29 -46.16,26.53 -63.89,36.76 -27.16,15.67 -20.2,19 -20.25,77.93 -0.04,48.66 -1.44,44.15 33.95,64.25 71.19,40.42 42.78,42.08 126.75,-7.58 28.47,-16.84 20.96,-25.2 20.99,-77.13 0.03,-52.29 4.01,-42.82 -33.04,-65.09 -14.43,-8.67 -49.31,-34.7 -64.51,-29.15z"/>
   <path class="fil3" d="M96.12 111c4.18,-10.16 -0.77,-3.01 8.83,-9.57l29.3 -17.41c13.67,-8.15 27.81,-18.28 41.76,-23.88 0.13,18.91 0.02,37.81 0.07,56.71 0.06,21.8 4.65,34.56 -10.74,45.02 -11.11,7.54 -58.34,36.31 -68.84,39.76l-0.38 -90.62zm-80.92 -58.45c6.2,-7.09 68.45,-45.37 78.64,-44.66 9.12,0.63 70.39,38.25 75.96,44.66 -6.41,7.05 -68.49,45.1 -78.56,44.59 -8.86,-0.45 -70.17,-38.17 -76.03,-44.59zm-13.53 14.61l0.9 11.56c7.34,-2.87 2.24,2.84 8.68,-15.49 0.19,-0.53 0.46,-1.55 0.91,-2.2l75.69 45.05 0.69 95.5 -68.66 -39.81c-12.57,-8.06 -7.61,-12.5 -13.56,-25.23 -21.76,16.6 19.03,37.14 28.28,42.69 66.49,39.89 48.97,39.76 108.59,4.34 48.02,-28.53 40.19,-14.18 40.19,-113.46 0,-27.74 -17.06,-29.79 -36.01,-41.69 -60.78,-38.17 -48.88,-36.78 -106.04,-2.28 -15.89,9.59 -41.98,18.41 -39.64,41.04z"/>
   <path class="fil3" d="M317.5 300.97c10.85,20.58 58.56,52.7 67.1,73.06l-35.67 37.46c-18.68,-7.36 -51.98,-55.06 -73.68,-68.08l-22.09 20.33c-10.77,6.17 -3.91,2.34 -6.59,0.54 -5.58,-10.58 -2.43,-73.52 -1.78,-91.07 15.61,-6.78 75.62,-3.05 96.28,-2.67 -4.36,15.21 -15.29,20.17 -23.59,30.43zm-80.22 -17.54c0,29.66 -1.28,59.48 1.5,89.03 20.31,5.19 22.04,-10.13 36.48,-19.33 18.7,9.58 60.32,66.68 73.09,65.37 10.16,-4.95 39.45,-34.38 44.26,-44.47 -5.69,-19.82 -55.36,-52.27 -65.32,-73.06 9.5,-13.96 24.48,-16.63 19.18,-36.19 -30.3,-3.87 -61.16,-1.73 -91.67,-1.66 -17.22,0 -17.52,3.59 -17.52,20.31z"/>
   <path class="fil3" d="M6.31 154.67c3.31,-27.37 4.67,-66.39 0,-97.35 -5.83,11.29 -4.4,-6.12 -5.02,39 -0.62,44.77 -1.06,40.25 5.02,58.35z"/>
  </g>
 </g>
</svg>
