<?xml version="1.0" encoding="UTF-8"?>
<!DOCTYPE svg PUBLIC "-//W3C//DTD SVG 1.1//EN" "http://www.w3.org/Graphics/SVG/1.1/DTD/svg11.dtd">
<!-- Creator: CorelDRAW -->
<svg xmlns="http://www.w3.org/2000/svg" xml:space="preserve" width="100%" height="100%" version="1.1" style="shape-rendering:geometricPrecision; text-rendering:geometricPrecision; image-rendering:optimizeQuality; fill-rule:evenodd; clip-rule:evenodd"
viewBox="0 0 394.21 361.97"
 xmlns:xlink="http://www.w3.org/1999/xlink"
 xmlns:xodm="http://www.corel.com/coreldraw/odm/2003">
 <defs>
  <style type="text/css">
   <![CDATA[
    .fil0 {fill:#5562A4}
    .fil3 {fill:#A5BEE6}
    .fil1 {fill:#DDE3F3}
    .fil2 {fill:#EC6493}
   ]]>
  </style>
 </defs>
 <g id="Layer_x0020_1">
  <metadata id="CorelCorpID_0Corel-Layer"/>
  <path class="fil0" d="M122.31 295.83l148 -1.29 -2.11 53.6 -140.57 -0.15 -5.31 -52.16zm-19.07 20.33l-48.57 -0.04 0.09 -53.82c41.09,-0 40.39,7.84 43.29,-32.02l49.71 -1.22c3.85,42.99 4.2,33.22 49.65,33.23 45.78,0 44.93,9.39 49.12,-32.46l49.95 -0.55c2.37,41.18 0.97,32.73 42.72,33.15l0.35 53.7 -56.9 -0.05c-0.2,-41.09 9.03,-33.35 -89.17,-33.27 -97.74,0.08 -72.59,-5.82 -82.99,22.77 -4.15,11.41 3.49,4.7 -7.26,10.58zm211.91 -80.58c-6.76,-12.68 -4.43,-23.97 -4.48,-39.02l69.96 0.72c0.07,23.56 8.19,55.37 -65.47,38.3zm-82.87 -38.62c-0.26,32.4 6.28,40.32 -26.7,41.4 -29.01,0.95 -43.36,4.02 -43.46,-26.3l-0.06 -15.38 70.22 0.29zm-148.3 -0.18c-0.65,35.63 5.45,41.68 -35.66,41.57 -39.3,-0.1 -35.16,-3.93 -34.58,-41.69l70.24 0.12zm119.27 -50.59l136.16 -0.2 -1.2 36.9 -39.11 2.77 -2.37 31.75 -51.04 -2.13c-0.21,-44.47 -3.28,-28.12 -42.43,-32.94l-0.01 -36.15zm-11.85 -0.16l-1.55 37.28c-41.71,0.3 -41.11,-7.48 -41.53,34l-49.01 -1.51c-10.89,-36.83 11.96,-32.67 -44.1,-32.39l0.14 -37.44 136.05 0.06zm-66.04 -77.92c-5.41,-15.86 -3.77,-37.83 -1.37,-55.73l147.4 1.36 -2.24 54.8 -143.78 -0.43zm-10.06 5.72c0.78,0.72 2.14,0.48 2.65,1.74 3.08,7.76 56.05,2.62 72.61,5.85l0.74 50.32c-27.4,8.37 -109.45,0.13 -145.5,3.51l-3.39 47.2c-44.65,4.61 -42.39,-9.19 -42.38,41.41 0.01,48.87 2.22,33.74 42.96,39.82l0.33 63.33 66.05 0.95c9.62,38.78 -16.27,33.64 84.14,33.71 19.73,0.02 39.44,0.2 59.15,0.29 34.22,0.17 29.71,-1.43 30.06,-33.78l65.26 -0.53c6.77,-19.42 3.05,-44.22 3.24,-64.79 43.44,-2.61 42.99,8.93 42.98,-39.02 -0.02,-47.37 2.61,-38.92 -42.11,-40.86 -3.87,-36.37 3.21,-30.09 -4.58,-47.42l-144.4 -1.52 0.33 -53.02c12.84,-1.63 24.69,-1.24 37.15,-1.06 12.46,0.19 30.84,2.83 38.41,-6.58 8.59,-12.98 4.86,-54.6 1.23,-69.81 -24.07,-5.81 -91.11,-2.17 -122.06,-2.38 -21.76,-0.15 -43.57,-7.16 -46.62,14.59 -2.2,15.66 -2.84,47.45 3.78,58.04z"/>
  <path class="fil1" d="M125.36 68.1l143.78 0.43 2.24 -54.8 -147.4 -1.36c-2.4,17.89 -4.04,39.87 1.37,55.73z"/>
  <polygon class="fil2" points="127.63,347.99 268.2,348.14 270.31,294.54 122.31,295.83 "/>
  <path class="fil3" d="M315.15 235.57c73.67,17.06 65.55,-14.74 65.47,-38.3l-69.96 -0.72c0.06,15.06 -2.28,26.35 4.48,39.02z"/>
  <path class="fil3" d="M83.98 196.77l-70.24 -0.12c-0.58,37.76 -4.72,41.59 34.58,41.69 41.11,0.11 35.02,-5.94 35.66,-41.57z"/>
  <path class="fil3" d="M162.13 212.04c0.1,30.32 14.45,27.25 43.46,26.3 32.98,-1.08 26.44,-9 26.7,-41.4l-70.22 -0.29 0.06 15.38z"/>
 </g>
</svg>
