<?xml version="1.0" encoding="UTF-8"?>
<!DOCTYPE svg PUBLIC "-//W3C//DTD SVG 1.1//EN" "http://www.w3.org/Graphics/SVG/1.1/DTD/svg11.dtd">
<!-- Creator: CorelDRAW -->
<svg xmlns="http://www.w3.org/2000/svg" xml:space="preserve" width="100%" height="100%" version="1.1" style="shape-rendering:geometricPrecision; text-rendering:geometricPrecision; image-rendering:optimizeQuality; fill-rule:evenodd; clip-rule:evenodd"
viewBox="0 0 405.35 263.2"
 xmlns:xlink="http://www.w3.org/1999/xlink"
 xmlns:xodm="http://www.corel.com/coreldraw/odm/2003">
 <defs>
  <style type="text/css">
   <![CDATA[
    .fil2 {fill:#282828}
    .fil1 {fill:#394F66}
    .fil0 {fill:#FE8E30}
   ]]>
  </style>
 </defs>
 <g id="Layer_x0020_1">
  <metadata id="CorelCorpID_0Corel-Layer"/>
  <g id="_105553484149824">
   <path class="fil0" d="M361.7 246.22l-279.39 -0.04c0.61,-17.12 -8.2,-25.42 -25.41,-25.04l-0.41 -92.87c17.83,0.48 26.65,-8.07 25.74,-25.1l279.51 0.02c-1.05,17.84 8.89,24.89 25.82,25.15l-0.01 92.72c-17,0.26 -26.7,7.58 -25.84,25.16zm-321.42 16.41l364.6 -0.67 -0.54 -174.69 -364.42 0.38 0.36 174.98z"/>
   <path class="fil1" d="M250.48 143.17l-12.52 1.41 4.19 8.25 11.48 0.56c-3.28,8.27 -2.52,7.59 -11.51,7.93 -2.24,17.05 -10.84,16.61 -24.6,22.83 3.59,8 25.88,33.44 28.68,40.17l-14.89 0.13c-6.25,-6.89 -11.33,-14.8 -16.7,-22.02 -3.03,-4.08 -5.98,-7.59 -8.99,-11.5 -4.79,-6.22 -5.2,-6.19 -3.82,-15.59 12.34,0.02 26.83,-1.26 25.79,-14.1l-28.23 0.06c2.61,-6.16 1.84,-8 9.7,-8.38 5.27,-0.26 12.88,0.13 18.29,0.32 -6.15,-10.69 -14.09,-9.27 -27.96,-8.86 2.66,-10.36 5.45,-8.43 22.44,-8.37 10.65,0.04 21.36,0.09 32,-0.04l-3.35 7.21zm-39.79 -35.63c-84.81,16.65 -59.31,152.44 24.32,134.1 31.43,-6.89 56.1,-38.9 50.24,-78.31 -4.92,-33.08 -35.75,-63.41 -74.56,-55.8z"/>
   <path class="fil0" d="M34.75 82.4c10.79,-1.72 29.95,-0.39 41.74,-0.47 24.29,-0.17 207.41,-51.65 240.12,-55.27 7.48,16.32 9.69,22.15 31.57,17.8l9.51 37.37 17.06 -0.37c-1.89,-11.34 -16.43,-74.26 -20.29,-81.45l-354.46 84.61 31.06 132.25c0.39,1.4 0.67,2.37 1.24,3.8 2.04,5.04 0.48,1.55 2,3.69 2.7,-43.01 1.35,-62.58 -7.76,-101.8 13.06,-10.08 5.92,11.2 8.22,-40.14z"/>
   <path class="fil1" d="M243.06 81.97c-2.63,-5.33 -0.21,-2.19 -4.73,-6.04 -31.44,-26.8 -76.53,-15.52 -87.91,5.94l92.65 0.11z"/>
   <path class="fil0" d="M39.93 87.65l364.42 -0.38 0.54 174.69 -364.6 0.67 -0.36 -174.98zm-0.94 175.55l366.36 -0.18 -0.55 -176.76 -366.06 0.48 0.25 176.45z"/>
   <path class="fil2" d="M326.23 159.98c-19.28,10.35 -4.26,34.02 12.15,27.14 17.91,-7.52 5.46,-36.59 -12.15,-27.14z"/>
   <path class="fil2" d="M105.34 160.23c-5.06,2.15 -5.59,0.7 -7.65,7.36 -4.5,14.53 9.15,24.41 20.68,19.09 15.56,-7.19 7.27,-35.06 -13.02,-26.45z"/>
  </g>
 </g>
</svg>
