<?xml version="1.0" encoding="UTF-8"?>
<!DOCTYPE svg PUBLIC "-//W3C//DTD SVG 1.1//EN" "http://www.w3.org/Graphics/SVG/1.1/DTD/svg11.dtd">
<!-- Creator: CorelDRAW -->
<svg xmlns="http://www.w3.org/2000/svg" xml:space="preserve" width="100%" height="100%" version="1.1" style="shape-rendering:geometricPrecision; text-rendering:geometricPrecision; image-rendering:optimizeQuality; fill-rule:evenodd; clip-rule:evenodd"
viewBox="0 0 2966.8 6594.06"
 xmlns:xlink="http://www.w3.org/1999/xlink"
 xmlns:xodm="http://www.corel.com/coreldraw/odm/2003">
 <defs>
  <style type="text/css">
   <![CDATA[
    .str0 {stroke:#E6B07B;stroke-width:3;stroke-miterlimit:2.61313}
    .fil0 {fill:#1E3A45}
    .fil3 {fill:#235C6B}
    .fil1 {fill:#8DDDFD}
    .fil6 {fill:#9D6354}
    .fil5 {fill:#C5274A}
    .fil4 {fill:#E6B07B}
    .fil2 {fill:#FAC5AB}
   ]]>
  </style>
 </defs>
 <g id="Layer_x0020_1">
  <metadata id="CorelCorpID_0Corel-Layer"/>
  <g id="_105553506733216">
   <path class="fil0" d="M1602.08 1959.39c10.01,84.24 -41.7,248.5 -59.89,320.88 -36.56,3.93 -8.41,5.75 -21.84,-17.6 -53.57,-63.79 -117.27,-192.39 -163.71,-263.04l-358.67 -505.64c-95.89,-125.27 43.33,-279.48 -36.34,-304 -63.19,3.23 -136.19,49.29 -203.74,76.48 13.92,57.67 98.22,134.24 135.57,346.7 21.32,121.26 29.95,323.99 -46.91,398.04 -39.8,-34.66 -26.88,-23.66 -42.05,-81.33 -15.82,-60.15 -10.46,-64.61 -43.85,-97.82 -23.54,59.29 -9.68,88.89 -10.07,163.82l11.85 450.24c19.16,36.72 41.63,56.36 76.18,86.24 72.22,62.45 32.13,23.56 74.5,107.93 86,12.78 140.56,-18.7 207.24,63.4l-244.36 154.06 -48.7 -59.48c-53.04,13.87 -27.16,-4.43 -59.04,38.43 -23.06,215.97 -0.74,348.43 8.77,509.54l-2.8 34.2c-46.88,199.04 -23.88,55.32 -47.31,305.02l-125.39 1722.88c-9.66,183.42 -53.97,761.8 -29.81,901.03 -7.44,93.4 24.39,48.65 -10.05,129.76 -26.49,62.38 -30.21,44.7 -34.96,133.09 175.52,31.08 166.8,26.46 341.09,1.94 -15.48,-172.18 -111.87,-54.2 -28.2,-247.56 35.46,-261.74 430.06,-2078.78 502.31,-2204.58 49.94,332.4 58.48,752.4 96.24,1100.51l136.59 1075.9c67.76,94.42 42.41,117.95 38.39,174.47 111.31,13.85 636.24,101.59 679.51,13.7 -31.63,-36.61 -391.55,-96.44 -466.46,-130.27 72.41,-55.3 59.69,6.44 60.96,-123.93 1.23,-126.8 -12.55,-547.07 19.6,-602.59 -33.48,-179.18 55.83,-1752.28 74.2,-2051.11 4.75,-77.24 -7.23,-114.71 -8.91,-161.4 -1.87,-51.91 19.81,-48.74 30.05,-136.85 13.54,-116.48 19.02,-230.33 24.94,-347.86 47.51,-12.87 53.07,-22.39 75.91,-56.64 -92.61,-96.59 -67.85,-79.19 -62.08,-253.6 9.57,-289.24 0.41,-638.72 -54.89,-916.75 -33.9,-176.22 -87.94,-355.27 -118.3,-517.56 -54.37,-104.72 -140.8,-21.6 -223.07,-86.44l-33.87 6.76c21.94,155.21 37.23,279.02 36.71,441.55l-19.23 317.49c-3.45,24.89 -4.4,32.52 -10.76,54.51 -9.49,32.84 -10.37,27.73 -15.37,37.48z"/>
   <path class="fil1" d="M768.26 2836.7c31.89,-42.85 6,-24.56 59.04,-38.43 -1.76,-86.03 31.39,-126.22 85.81,-157.98 -42.37,-84.36 -2.28,-45.48 -74.5,-107.93 -34.56,-29.88 -57.02,-49.53 -76.18,-86.24 -64.95,-25.06 -246.11,-190.54 -292.31,-241.19l262.41 -321.24 18.06 112.18c0.39,-74.93 -13.47,-104.53 10.07,-163.82 33.39,33.21 28.03,37.67 43.85,97.82 15.17,57.67 2.25,46.67 42.05,81.33 76.87,-74.05 68.23,-276.78 46.91,-398.04 -37.35,-212.46 -121.65,-289.03 -135.57,-346.7 -196.53,70.29 -571.75,645.14 -707.15,828.98 -120.03,162.96 -18.94,249.28 216.76,449.54 141.23,120 298.52,207.83 500.75,291.71z"/>
   <path class="fil1" d="M2070.8 821.72l-8 29.35c42.89,1.44 26.09,-30.41 92.3,92.3 54.88,101.72 167.04,235.53 202.8,342.33 -132.42,-13.3 -389.63,-54.76 -490.24,-97.65 30.35,162.28 84.4,341.33 118.3,517.56 199.46,-8.91 782.09,23.24 921.44,-41.26 281.04,-187.65 -518.42,-934.32 -665.15,-971.41 -15.97,84.99 -82.68,153.67 -171.44,128.8z"/>
   <path class="fil2" d="M1489.24 836.95c86.72,10.31 153.67,-11.94 212.76,-2.37 -33.6,109.69 -153.62,105.6 -212.76,2.37zm-66.5 -405.39c54.38,-36.19 91.86,-37.93 140.06,0l-78.1 17.13c-112.14,0.6 -33.32,5.98 -61.96,-17.13zm-329.62 134.02c1.48,36.13 -9.55,29.25 -16.64,63.99 -23.52,115.13 60.56,127.35 111.29,153.47 14.43,95.48 3.96,200.14 -21.92,277.56l10.41 -3.33c48.49,126.16 175,251.87 292.82,304.79 57.17,-46.05 121.46,-148.81 119.91,-253.7l-17 46.74c-150.14,5.91 -288.11,-142.37 -326.3,-258.52l60.55 33.86c155.74,92.75 278.27,107.46 308.37,143.71 26.78,-56 80.57,-22.01 136.43,-88.73 20.48,-24.46 30.64,-58.5 48.72,-78.93 39.44,-44.54 1.18,-1.5 36.51,-26.13l42.97 -34.76 -40.56 0.69c-38.65,-31.7 -15.63,27 -14.78,-142.81l-111.41 -6.09c-24.7,-51.54 -22.12,-61.4 -51.84,-85.22 -70.23,72.37 -35.03,109.96 -157.12,101.94 -126.87,-8.34 -105.72,-19.83 -155.44,-110.45l-154.39 -12.39c25.76,-40.7 -61.11,-44.9 99.71,-44.04 158.76,0.85 73.81,-7.78 141.32,-39.37 125.73,-58.82 62.91,54.49 225.92,58.12 2.79,-2.98 5.35,-7.83 7,-10.03l22.69 -30.62c106.24,-94.75 105.65,44.06 126.71,9.57 1.87,-3.07 6.42,6.12 10.22,8.33l-9.64 -10.51c-7.32,-54.8 6.4,-63.91 -32.13,-80.64l-103.75 -5.07c23.04,-48.13 45.05,-44.82 104.77,-33.43 3.83,-61.84 -9.8,-76.24 -25.84,-125.79 -169.66,77.76 -124.7,-26.58 -419.27,-3.19 -145.58,348.33 -114.85,271.15 -248.26,280.99z"/>
   <path class="fil3" d="M961.64 1189.98c79.67,24.53 -59.55,178.74 36.34,304l358.67 505.64c46.44,70.65 110.13,199.25 163.71,263.04l-90.2 -424.14c-52.48,-98.77 -93.5,-266.98 -141.43,-379.35 -47.65,-111.72 -143.37,-280.19 -166.16,-379.88l53.7 -22.03 -10.41 3.33c-35.99,8.35 -83.88,22.93 -116.65,36.96 -70.67,30.24 -51.09,33.4 -87.56,92.43z"/>
   <path class="fil4" d="M1325.01 45.45c-98.5,25.15 -227.43,122.3 -271.5,177.72 -66.74,83.91 -35.47,87.41 -10.73,172.04 17.05,58.31 16.37,92 50.35,170.37 133.41,-9.85 102.68,67.34 248.26,-280.99 294.57,-23.39 249.61,80.95 419.27,3.19 16.04,49.56 29.68,63.95 25.84,125.79l-1.02 38.5c38.53,16.73 24.81,25.84 32.13,80.64l56.46 -1.43c-13.32,-16.23 -10.6,-19.43 -22.74,-38.13 -39.58,-88.13 47.22,-228.26 -12.17,-335.21 -30.96,-55.76 -168.33,-133.55 -260.8,-137.13l-112.66 3.79c8.11,2.87 269.89,43.88 198.87,217.24l-112.39 -4.93c-58.6,-25.15 -59.86,-94.02 -254.83,-135.33 3.44,-4.54 7.5,-10.85 9.41,-14.28l18.25 -41.87z"/>
   <path class="fil1" d="M1430.15 1838.53c48.31,-413.87 -2.69,-287.22 -38.95,-400.46 69.92,-33.84 109.82,-45.5 170.93,0 -42.64,108.04 -62.46,16.26 -16.85,243.67 18.64,92.93 36.02,181.58 56.8,277.65 4.99,-9.75 5.87,-4.65 15.37,-37.48 6.35,-21.98 7.3,-29.62 10.76,-54.51l19.23 -317.49c0.52,-162.53 -14.77,-286.33 -36.71,-441.55l-21.72 0c1.55,104.88 -62.74,207.65 -119.91,253.7 -117.81,-52.91 -244.33,-178.63 -292.82,-304.79l-53.7 22.03c22.8,99.69 118.51,268.16 166.16,379.88 47.93,112.37 88.95,280.58 141.43,379.35z"/>
   <path class="fil5" d="M1430.15 1838.53l90.2 424.14c13.43,23.35 -14.72,21.52 21.84,17.6 18.19,-72.38 69.9,-236.63 59.89,-320.88 -20.78,-96.07 -38.16,-184.71 -56.8,-277.65 -45.61,-227.41 -25.79,-135.63 16.85,-243.67 -61.11,-45.5 -101.02,-33.84 -170.93,0 36.26,113.24 87.26,-13.41 38.95,400.46z"/>
   <path class="fil0" d="M1838.67 846.29l40.56 -0.69 183.57 5.47 8 -29.35c13.48,-79.56 40.06,-213.06 12.45,-288.95l-209.19 -1.49 -56.46 1.43 9.64 10.51c33.21,74.02 -3.9,210.64 11.43,303.07z"/>
   <path class="fil6" d="M1708.86 623.28c40.49,-46.11 52.5,-48.19 95.43,-55.13l11.2 25.02c3.13,15.7 4.41,10.96 5.61,29.21 2.57,38.84 -0.72,28.85 -6.67,61.71 -82.09,2.85 -80.85,11.37 -105.57,-60.81zm-319.59 -60.51l79.81 42.98c4.68,-2.92 10.3,-13.96 13.13,-10.06 5.43,7.46 5.62,-18.84 53.12,-26.65 14.43,-2.37 63.94,9.94 87.07,13.21l-35.81 108.36c-96.02,6.28 -269.58,6.26 -197.33,-127.83zm449.4 283.52c-15.32,-92.43 21.79,-229.05 -11.43,-303.07 -3.8,-2.22 -8.35,-11.41 -10.22,-8.33 -21.06,34.5 -20.47,-104.31 -126.71,-9.57l-22.69 30.62c-1.65,2.2 -4.21,7.06 -7,10.03 -163,-3.63 -100.19,-116.94 -225.92,-58.12 -67.51,31.58 17.44,40.22 -141.32,39.37 -160.82,-0.86 -73.96,3.33 -99.71,44.04l154.39 12.39c49.72,90.63 28.57,102.11 155.44,110.45 122.09,8.03 86.89,-29.56 157.12,-101.94 29.72,23.83 27.15,33.69 51.84,85.22l111.41 6.09c-0.84,169.82 -23.86,111.12 14.78,142.81z"/>
   <path class="fil2" d="M1851.33 493.15c12.14,18.71 9.42,21.9 22.74,38.13l209.19 1.49c27.61,75.89 1.03,209.4 -12.45,288.95 88.76,24.87 155.47,-43.81 171.44,-128.8 -102.65,-93.09 -27.59,-262.76 -262.57,-245.93 -72.61,5.2 -81.48,29.23 -128.34,46.15z"/>
   <path class="fil4 str0" d="M1325.01 45.45l-18.25 41.87c-1.91,3.43 -5.97,9.73 -9.41,14.28 194.96,41.31 196.22,110.17 254.83,135.33l112.39 4.93c71.01,-173.37 -190.76,-214.37 -198.87,-217.24l112.66 -3.79c-55.78,-39.18 -201.1,-12.54 -253.35,24.64z"/>
   <path class="fil2" d="M827.3 2798.27l48.7 59.48 244.36 -154.06c-66.69,-82.1 -121.25,-50.63 -207.24,-63.4 -54.42,31.76 -87.57,71.95 -85.81,157.98z"/>
   <path class="fil4" d="M1589 1108.36l21.72 0 33.87 -6.76c0,-34.37 7.7,-23.1 -29.98,-27.44 -30.1,-36.25 -152.63,-50.96 -308.37,-143.71l-60.55 -33.86c38.19,116.15 176.17,264.43 326.3,258.52l17 -46.74z"/>
   <path class="fil2" d="M1469.08 605.74l-79.81 -42.98c-72.25,134.09 101.31,134.11 197.33,127.83l35.81 -108.36c-23.14,-3.28 -72.64,-15.59 -87.07,-13.21 -47.5,7.81 -47.69,34.12 -53.12,26.65 -2.83,-3.89 -8.46,7.15 -13.13,10.06z"/>
   <path class="fil5" d="M1489.24 836.95c59.15,103.24 179.17,107.32 212.76,-2.37 -59.1,-9.57 -126.05,12.68 -212.76,2.37z"/>
   <path class="fil2" d="M1815.49 593.17l-11.2 -25.02c-42.93,6.94 -54.93,9.02 -95.43,55.13 24.72,72.19 23.48,63.67 105.57,60.81 5.94,-32.85 9.24,-22.87 6.67,-61.71 -1.2,-18.25 -2.48,-13.52 -5.61,-29.21z"/>
   <path class="fil6" d="M1422.74 431.56c28.64,23.11 -50.18,17.73 61.96,17.13l78.1 -17.13c-48.2,-37.93 -85.68,-36.19 -140.06,0z"/>
   <path class="fil6" d="M1785.47 452.07l1.02 -38.5c-59.72,-11.39 -81.72,-14.69 -104.77,33.43l103.75 5.07z"/>
  </g>
 </g>
</svg>
