<?xml version="1.0" encoding="UTF-8"?>
<!DOCTYPE svg PUBLIC "-//W3C//DTD SVG 1.1//EN" "http://www.w3.org/Graphics/SVG/1.1/DTD/svg11.dtd">
<!-- Creator: CorelDRAW -->
<svg xmlns="http://www.w3.org/2000/svg" xml:space="preserve" width="100%" height="100%" version="1.1" style="shape-rendering:geometricPrecision; text-rendering:geometricPrecision; image-rendering:optimizeQuality; fill-rule:evenodd; clip-rule:evenodd"
viewBox="0 0 3447.11 9570.88"
 xmlns:xlink="http://www.w3.org/1999/xlink"
 xmlns:xodm="http://www.corel.com/coreldraw/odm/2003">
 <defs>
  <style type="text/css">
   <![CDATA[
    .fil7 {fill:#342518}
    .fil3 {fill:#424242}
    .fil0 {fill:#4C85A0}
    .fil1 {fill:#556E7A}
    .fil4 {fill:#622B1E}
    .fil6 {fill:darkgray}
    .fil5 {fill:#AB46BB}
    .fil9 {fill:#D28856}
    .fil8 {fill:#F4CEAF}
    .fil2 {fill:#FAAD72}
    .fil10 {fill:#FBEED2}
    .fil11 {fill:#FEFEFE}
    .fil12 {fill:#FF6600}
   ]]>
  </style>
 </defs>
 <g id="Layer_x0020_1">
  <metadata id="CorelCorpID_0Corel-Layer"/>
  <path class="fil0" d="M797.07 5431.79c62.1,229.26 162.61,1011.74 217.59,1348.81 38.79,237.76 21.28,218.54 -7.78,445.84 -36.09,282.3 74.43,608.37 127.94,881.2 52.76,269.01 128.81,640.63 143.25,907.74 85.38,-130.02 149.85,-48.24 273.57,-11.91 -13.51,-325.44 -32.51,-593.3 -4.88,-923.3 23.69,-282.94 109.52,-581.75 62.35,-877.34 -15.41,-96.57 -39.94,-114.98 -37.95,-221.63 5.08,-271.89 60.95,-1387.35 142.82,-1490.45 99.11,78.21 283.48,532.06 353.43,702.98 64.65,157.97 297.42,641.15 238.81,779.57 -58.28,137.64 -126.15,211.63 -142.77,390.37 -21.88,235.39 93.69,1108.25 66.09,1529.83 18.83,39.61 19.08,103.79 19.03,161.9 74.23,0.8 136.17,-17.64 197.8,-45.59 33,-14.96 46.57,-24.55 74.06,-42.17 57.31,-36.74 29,-34.19 97.25,-33.74 -108.7,-315.38 110.7,-1551 194.57,-1888.72 113.12,-455.5 73.66,-324.71 -34.12,-879.32 -44.88,-230.94 -170.64,-677.76 -178.51,-881.16 -79.93,86.69 -149.6,136.59 -304.98,159.95 -146,21.95 -306.3,13.52 -437.39,-22.47l-11.23 -156.95c-63.08,53.7 -328.46,28.25 -416.16,26.41 -12.61,-0.26 -53.46,-1.92 -64.24,-4.16 -45.99,-9.54 -19.07,4.24 -50.43,-22.25l-16.94 149.82c-83.35,44.46 -403.02,60.53 -501.18,16.74z"/>
  <path class="fil1" d="M646.27 4299.72c25,1.72 48.33,8.5 61.76,9.89l61.07 -8.22 24.83 -137.04c16.65,-106.04 55.07,-190.5 90.1,-279.5l24.57 -105.67c-230.28,-37.17 -76.55,-60.8 -231.73,-102.22 -69.19,41.49 -25.28,46.95 -118.24,25.72l127.8 -294.54c64.91,-165.02 -3.51,-308.91 76.39,-396.24l549.02 16.75 -14.8 -111.94c4.34,-165.98 -43.9,-331.26 -38.06,-533.01 -23.05,29.59 -13.38,-15.43 -28.5,65.27l0.57 173.74c-17.03,-48.35 -42.41,-79.69 -66.71,-120.36 -73.65,12.69 -114.98,50.59 -192.09,71.08 4.77,-71.27 90.4,-314.61 129.04,-375.48 -69.07,12.09 -501.94,67.48 -510.82,110.5l-118.37 233.37c-127.02,294.78 -539.16,1128.72 -462.72,1392.01 32.19,110.87 117.03,111.91 216.57,155.64 79.33,34.85 190.93,76.38 279.48,103.18l14.1 81.64c162.96,1.73 103.56,3.19 126.74,25.43z"/>
  <path class="fil1" d="M1921.61 2592.31c-91.65,104.91 -118.2,1002.27 -108,1195.06 32.3,139.59 152.67,38.22 64.53,293.18 -23.41,67.71 -52.19,91.91 -59.18,167.47 -5.38,58.07 3.59,146.74 4.17,208.91 2.64,149.77 45.18,728.31 22.89,808.3l11.23 156.95c131.09,36 291.39,44.42 437.39,22.47 155.39,-23.36 225.05,-73.26 304.98,-159.95 72.33,-142.41 -6.7,-167.43 21.71,-259.84 -56.88,-62.8 -46.01,-129.43 -64.8,-260.44 -15.43,-107.58 -26.31,-183.91 -26.31,-298.79 -132.09,-62.79 -339.06,-641.96 -383.38,-859.57 -64.16,-315.02 -0.59,-234.02 -27.31,-352.4 -24.72,36.41 4.84,-3.14 -16.76,30.96 -19.7,31.09 -1.54,9.01 -27.08,35.57 -68.96,-95.54 -73.23,-83.93 -62.09,-254.52 9.04,-138.38 11.12,-131.1 120.67,-176.33 -31.38,-23 -52.93,39.8 -34.91,-170.3 5.04,-58.67 12.41,-107.28 12.69,-171l-108.55 -57.09c-34.7,64.98 -49.76,103.48 -78.73,177.66l-3.19 -76.32z"/>
  <path class="fil2" d="M965.11 1175.88c-1.98,0.96 -6.98,3.12 -8.72,4.28 -20.31,13.57 -9.65,7.63 -20.31,32.53l-16.61 -58.24c-36.36,44.14 3.69,19.72 -20.37,12.07 -18.93,-39.11 -8.92,-55.17 32.06,-89.96 50.77,37.36 50.03,41.64 72.54,91.15l-38.57 8.18zm338.1 898.49l-40.09 258.65c83.31,-28.19 67.65,85.79 334.62,80.33 193.62,-3.96 218.9,-59.44 318.74,-129.72 -15.32,-73.24 -42.01,-129.24 -32.53,-203.8 -27.14,-49.53 -117.37,-169.28 -16.04,-292.57 99.87,-121.52 176.73,-196.21 233.3,-330.6 62.39,-148.24 214.04,-118.93 186.31,-416.33 -103.76,-38.44 -33.48,10.19 -104.02,-59.82 4.7,55.31 -9.95,80.57 -15.99,114.41l9.26 21.95c26.05,-34.72 4.38,-22.56 61.19,-40.09l22.72 104.96c-22.81,-17.17 -26,-23.68 -42.41,-49.22l-3.62 67.7c-23.66,-25.35 -13.3,-20.37 -50.85,-28.62 -10.61,72.53 3.99,15.45 -36.95,40.97 -49.73,60.97 -105.46,177.32 -318.78,110.83 -175.6,-54.72 -124.56,-179.08 -227.32,-242.68 -87,57.11 -34.76,265.5 -348.11,246.8 -232.61,-13.88 -254.52,-341.06 -253.18,-353.75 -15.16,25.24 -27.33,-41.01 -13.81,64.89l-104.54 -3.64c-23.27,291.19 122.96,282.74 177.74,405.59 32.06,71.89 32.92,77.09 70.3,132.15 190.41,280.5 315.19,286.39 194.07,501.58z"/>
  <path class="fil3" d="M2119.55 3253.67c26.72,118.38 -36.85,37.38 27.31,352.4 44.32,217.62 251.28,796.79 383.38,859.57 0,114.88 10.88,191.21 26.31,298.79 18.79,131.01 7.92,197.64 64.8,260.44 72.53,34.16 111.65,68.12 199.55,78.56 79.64,-99.21 576.48,-640.57 489.22,-887.71l-63.65 -49.8c-38.91,60.1 -44.67,73.67 -134.79,84.7 -359.06,43.97 -175.84,-15.89 -321.18,-112.31 -46.82,-31.06 -31.71,12.35 -56.63,-57.08 -25.44,-70.9 13.91,1.85 -3.75,-78.76 -7.6,-40.88 -103.95,-139.55 -141.03,-195.18 -103.55,-155.35 -194.98,-428.77 -239.3,-457.01 -187.48,-119.43 -80.93,-96.23 -186.07,-168.89 -51.58,46.92 -32.91,15.19 -44.17,72.28z"/>
  <path class="fil4" d="M992.6 966.87c88.5,-12.67 113.27,21.06 168.61,-12.69l-69.41 -0.95c6.47,-293.02 -36.1,-326.53 189.13,-431.57 91.24,43.87 95.41,114.51 328.4,167.19 121.98,27.58 377.97,23.63 461.09,53.55l10.17 213.07 -64.59 -6.35c73.43,51.57 12.35,8.08 124.85,22.89 5.09,0.67 10.03,1.6 14.56,2.31l28.1 6.21c-12.07,-328.24 271.93,-604.49 -35.75,-744.04 46.15,-56.02 70.92,-42.67 84.47,-124.93 -224.22,-140.74 -613.5,-18.01 -882,2.19l-13.1 -113.63c-167.83,-6.65 -446.56,289.43 -499.72,368.09 121.76,202.11 116.02,331.5 155.2,598.66z"/>
  <path class="fil5" d="M686.44 3408.14c15.5,75.87 15.02,204.67 -9.56,268.82 155.18,41.43 1.44,65.05 231.73,102.22l-24.57 105.67c163.48,-0.02 273.22,46.17 477.64,25.15 214.17,-22.02 206.14,-118.46 356.32,-166.68l36.05 -649.52c-170.05,-13.41 -337.7,-18.87 -507.06,-27.14 -84.3,-4.12 -163.61,-9.33 -248.89,-14.05 -45.23,-2.5 -90.46,-3.25 -135.26,-5.43 -57.99,-2.82 -92.75,11.11 -100,-35.28 -79.89,87.33 -11.48,231.22 -76.39,396.24z"/>
  <path class="fil1" d="M1131.03 5068.25c-14.01,-148.45 -43.43,-334.79 149.91,-310l7.54 49.03c-3.28,-1.19 43.92,-3.05 -27.15,-18.41 -184.83,-39.94 -83.69,198.71 -130.29,279.39zm-333.95 363.54c98.16,43.79 417.83,27.73 501.18,-16.74l16.94 -149.82c-38.5,-118.59 20.6,-605.91 -2.42,-786.21 -126.23,-59.46 -213.56,-1.98 -406.07,-55.5l-250.28 -28.41c-7.3,148.89 -72.42,517.02 -100.69,725.05 -26.41,194.35 -59.37,272.9 99.15,306.95 51.96,11.17 99.57,21.39 142.2,4.68z"/>
  <path class="fil1" d="M2343.43 2855.78c78.05,172.74 186.01,340.7 302.78,477.31 88.99,104.12 274.26,308.81 404.13,360.26 -22.24,179.95 -115.72,319.31 -320.23,309.12 17.65,80.61 -21.69,7.86 3.75,78.76 24.91,69.43 9.8,26.02 56.63,57.08 145.34,96.42 -37.88,156.28 321.18,112.31 90.12,-11.04 95.88,-24.61 134.79,-84.7l63.65 49.8c-32.16,-184.98 83.96,-343.08 -41.66,-421.78 -70.65,-44.25 -44.89,-3.51 -85.36,-95.54l-451.35 -966.01c-34.97,-70.81 -163.76,-365.71 -213.11,-418.21l-54.38 -46.11c63.67,88.41 7.37,88.11 -45.45,295.48 -31.27,122.77 -26.05,283.02 -75.37,292.23z"/>
  <path class="fil6" d="M1595.57 9275.4c-84.8,109.44 -488.05,211.57 -673.44,153.06l12.72 -87.34 -433.64 83.41c474.04,88.67 961.87,147.62 1479.28,146.33 286.25,-0.71 1290.41,-59.43 1466.61,-153.63l-246.04 -52.85c-0.18,49.89 -6.53,52.72 -70.89,67.68 -154.96,36.01 -793.81,-50.98 -888.84,-102.85l7.24 -273.8c0.06,-58.11 -0.2,-122.29 -19.03,-161.9l-4.39 383.1 -629.59 -1.21z"/>
  <path class="fil2" d="M2134.3 2889.35c-109.55,45.22 -111.64,37.95 -120.67,176.33 -11.14,170.58 -6.87,158.97 62.09,254.52 25.55,-26.56 7.38,-4.48 27.08,-35.57 21.6,-34.1 -7.96,5.45 16.76,-30.96 11.26,-57.09 -7.42,-25.36 44.17,-72.28 105.13,72.67 -1.41,49.46 186.07,168.89 44.32,28.24 135.75,301.66 239.3,457.01 37.08,55.63 133.43,154.3 141.03,195.18 204.5,10.19 297.98,-129.17 320.23,-309.12 -129.87,-51.44 -315.14,-256.14 -404.13,-360.26 -116.77,-136.61 -224.73,-304.57 -302.78,-477.31 -85.54,-25.21 -111.63,12.15 -209.13,33.57z"/>
  <path class="fil2" d="M884.04 3884.85c-35.03,89 -73.45,173.46 -90.1,279.5 -5.42,80.17 -19.16,52.1 53.16,63.57 14.95,2.37 112.49,-0.8 134.43,-1.38 200.11,-5.28 576.92,-99.2 685.86,22.48 71.54,-32.15 64.17,-10.53 139.09,-24.3l16.66 232.2c-0.58,-62.17 -9.55,-150.85 -4.17,-208.91 7,-75.56 35.77,-99.76 59.18,-167.47 88.14,-254.95 -32.23,-153.59 -64.53,-293.18 -56.81,-11.51 -59.55,-9.5 -95.61,-44.05 -150.18,48.22 -142.15,144.66 -356.32,166.68 -204.42,21.02 -314.16,-25.18 -477.64,-25.15z"/>
  <path class="fil3" d="M2248.59 9055.41l-7.24 273.8c95.03,51.86 733.88,138.85 888.84,102.85 64.36,-14.95 70.7,-17.79 70.89,-67.68 -35.54,-83.55 -223.92,-142.19 -312.69,-194.1 -117.61,-68.78 -194.75,-132.71 -270.69,-236.37 -68.25,-0.45 -39.94,-2.99 -97.25,33.74 -27.48,17.61 -41.06,27.2 -74.06,42.17 -61.63,27.95 -123.57,46.39 -197.8,45.59z"/>
  <path class="fil3" d="M1916.48 2283.63l5.12 308.68 3.19 76.32c28.97,-74.18 44.04,-112.69 78.73,-177.66l108.55 57.09c-0.28,63.72 -7.65,112.33 -12.69,171 -18.02,210.1 3.52,147.29 34.91,170.3 97.5,-21.43 123.59,-58.78 209.13,-33.57 49.32,-9.2 44.1,-169.46 75.37,-292.23 52.82,-207.38 109.12,-207.07 45.45,-295.48 -52.59,-17.48 -93.57,-24 -149.11,-36.09 -96.73,-21.05 -82.24,10.13 -164.02,-0.14 -81.26,-10.2 -175.78,-110.33 -267.17,-152.01 -9.48,74.56 17.21,130.56 32.53,203.8z"/>
  <path class="fil2" d="M1161.21 954.18c39.2,-54.58 123.06,-107.19 189.63,-119.65 93.87,-17.57 64.68,-8.55 86.92,33.36 -55.95,133.55 25.31,-14.45 -121.2,53.46 -68.41,31.71 -11.22,-2.29 -44.29,37.65 138.37,-14.22 200.17,43.08 308.67,40.12 105.95,-2.89 188.04,-70.98 314.62,-42.47 -15.4,-19.67 0.28,-12.8 -25.26,-26.82 -45.43,-24.93 -61.7,-4.02 -133.71,-37.14 -3.51,-1.61 -8.71,-5.3 -12.94,-8.13 5.67,-18.97 -19.44,-101.88 152.14,-28.72 63.01,26.87 98.73,53.07 123.34,95.78l16.87 -2.5 64.59 6.35 -10.17 -213.07c-83.12,-29.92 -339.11,-25.97 -461.09,-53.55 -232.99,-52.67 -237.16,-123.31 -328.4,-167.19 -225.23,105.04 -182.67,138.56 -189.13,431.57l69.41 0.95z"/>
  <path class="fil5" d="M646.27 4299.72l10.15 95.39 250.28 28.41c192.51,53.52 279.84,-3.96 406.07,55.5l340.43 32.25 14.18 -262.24c-108.94,-121.69 -485.75,-27.76 -685.86,-22.48 -21.93,0.58 -119.48,3.75 -134.43,1.38 -72.31,-11.47 -58.58,16.6 -53.16,-63.57l-24.83 137.04 -61.07 8.22c-13.43,-1.39 -36.76,-8.17 -61.76,-9.89z"/>
  <path class="fil3" d="M1278.09 9015.37c-35.8,94.72 -83.95,142.76 -148.85,195.18 -65.03,52.52 -127.88,62.28 -194.38,130.56l-12.72 87.34c185.39,58.51 588.64,-43.62 673.44,-153.06l-43.92 -271.94c-123.72,-36.33 -188.19,-118.11 -273.57,11.91z"/>
  <path class="fil7" d="M1997.31 1005.43c70.93,-13.36 54.65,-7.24 82.26,28.94l-5.11 30.33 41.34 15.94c-0.37,131.41 -32.11,186.59 -140.17,221.11 -151.08,18.77 -245.03,-22.16 -281.33,-150.62l1.6 10.04c-25.63,-48.7 -23.67,-57.69 -21.44,-134.44 48.43,-11 90.81,-26.55 149,-35.9 63.07,-10.14 125.2,-19.89 173.85,14.6zm-819.49 -9.16l79.91 -12.9c78.6,8.29 155.75,12.02 209.08,51.43 94.56,43.24 -29.85,213.5 -92.96,241.95 -111.98,50.5 -255.43,22.53 -288.98,-77.91 -53.18,-67.71 -11.03,-128.99 10.24,-196.76l82.72 -5.8zm-185.22 -29.41l-13.15 6.92c-1.35,12.69 20.57,339.87 253.18,353.75 313.35,18.7 261.12,-189.7 348.11,-246.8 102.77,63.59 51.72,187.95 227.32,242.68 213.31,66.48 269.05,-49.86 318.78,-110.83 0.98,-8.16 6.18,-64.01 8.49,-70.85 23.29,-69.02 7.88,-22.82 32.18,-46.8 6.04,-33.84 20.69,-59.1 15.99,-114.41l-28.1 -6.21c-4.53,-0.71 -9.46,-1.64 -14.56,-2.31 -112.49,-14.8 -51.41,28.69 -124.85,-22.89l-16.87 2.5 -103.57 5.04c-126.58,-28.5 -208.67,39.58 -314.62,42.47 -108.5,2.96 -170.3,-54.33 -308.67,-40.12 -51.7,-1.1 -45.89,-10.38 -111.06,-4.82 -55.33,33.74 -80.11,0.02 -168.61,12.69z"/>
  <path class="fil3" d="M1101.29 2197.95c-38.64,60.87 -124.28,304.21 -129.04,375.48 77.12,-20.49 118.44,-58.4 192.09,-71.08 24.3,40.67 49.68,72.01 66.71,120.36l-0.57 -173.74c15.12,-80.7 5.45,-35.68 28.5,-65.27l4.15 -50.68 40.09 -258.65c-68.56,22.16 -172.21,58.23 -201.93,123.58z"/>
  <path class="fil8" d="M1177.82 996.27l-92.96 202.57c33.56,100.44 177,128.41 288.98,77.91 63.11,-28.46 187.52,-198.72 92.96,-241.95 -78.85,1.28 -26.17,-7.61 -50.15,20.89 1.76,61.1 -19.83,91.05 -36.52,123.9 -4.24,86.96 -5.13,87.88 -92.48,96.37l23.15 -96.09 3.89 -1.41 -56.66 -1.44 -4.57 -53.11 -12.88 18.9c-68.22,77.39 -17.07,-86.09 -14.49,-81.18 26.13,-30.19 16.84,-21.7 53.61,-46.75 -9.78,-5.81 -21.96,-31.5 -21.97,-31.51l-79.91 12.9z"/>
  <path class="fil6" d="M1695.91 1161.18c3.2,-98.66 8.63,-60.15 30.09,-131.94 25.34,32.13 48.65,87 43,138l109.04 21.91 39.29 -10.04c22.24,-36.61 8.5,-21.15 26.64,-61.37 -11.38,-61.48 -20.37,-72.65 -50.83,-116.33l68.67 4.76 35.5 -0.73c-48.64,-34.49 -110.78,-24.74 -173.85,-14.6 -58.19,9.35 -100.57,24.9 -149,35.9 -2.22,76.75 -4.19,85.74 21.44,134.44z"/>
  <path class="fil8" d="M1878.04 1189.15l-109.04 -21.91 -74.69 -16.1c36.3,128.46 130.25,169.39 281.33,150.62 37.2,-84.87 45.91,-166.33 98.83,-237.05l5.11 -30.33 -41.74 -7.62c-65.39,205.29 -56.19,260.55 -196.95,271.6 12.08,-71.78 18.51,-60.14 37.16,-109.2z"/>
  <path class="fil2" d="M1917.33 1179.11l-39.29 10.04c-18.65,49.06 -25.08,37.43 -37.16,109.2 140.76,-11.05 131.56,-66.31 196.95,-271.6l41.74 7.62c-27.61,-36.18 -11.33,-42.3 -82.26,-28.94l-35.5 0.73c-41.31,35.36 14.37,-10.57 -25.36,28.3 48.81,92.72 36.65,26.11 43.53,130.93l-62.64 13.73z"/>
  <path class="fil6" d="M1226.08 1061.63c10.32,48.96 46.26,59.19 27.37,62.28l4.57 53.11 56.66 1.44 61.22 -145.11c0.57,1 36.4,19.65 40.74,22.34 23.99,-28.49 -28.7,-19.6 50.15,-20.89 -53.33,-39.41 -130.48,-43.13 -209.08,-51.43 0.01,0.01 12.19,25.7 21.97,31.51 -36.77,25.04 -27.48,16.56 -53.61,46.75z"/>
  <path class="fil4" d="M1895.56 956.65l103.57 -5.04c-24.61,-42.71 -60.33,-68.91 -123.34,-95.78 -171.57,-73.16 -146.47,9.75 -152.14,28.72 4.24,2.83 9.43,6.52 12.94,8.13 72.01,33.13 88.28,12.21 133.71,37.14 25.54,14.02 9.86,7.15 25.26,26.82z"/>
  <path class="fil4" d="M1161.21 954.18c65.16,-5.56 59.35,3.72 111.06,4.82 33.07,-39.94 -24.12,-5.94 44.29,-37.65 146.52,-67.91 65.26,80.09 121.2,-53.46 -22.24,-41.91 6.95,-50.93 -86.92,-33.36 -66.57,12.46 -150.43,65.06 -189.63,119.65z"/>
  <path class="fil6" d="M1311.85 3028.65l369.59 19.02c90.04,-20.01 14.99,7.88 50.1,-34.44l-409.38 -23.39 -25.1 -73.14 14.8 111.94z"/>
  <path class="fil2" d="M1975.63 1301.76c108.06,-34.52 139.8,-89.7 140.17,-221.11l-41.34 -15.94c-52.92,70.72 -61.63,152.19 -98.83,237.05z"/>
  <path class="fil2" d="M1084.86 1198.84l92.96 -202.57 -82.72 5.8c-21.27,67.78 -63.42,129.06 -10.24,196.76z"/>
  <path class="fil9" d="M2167.51 1094.93c-24.3,23.97 -8.89,-22.22 -32.18,46.8 -2.31,6.85 -7.5,62.69 -8.49,70.85 40.94,-25.52 26.34,31.56 36.95,-40.97 37.55,8.25 27.19,3.28 50.85,28.62l3.62 -67.7c16.41,25.54 19.59,32.05 42.41,49.22l-22.72 -104.96c-56.81,17.53 -35.14,5.37 -61.19,40.09l-9.26 -21.95z"/>
  <path class="fil3" d="M1131.03 5068.25c46.6,-80.67 -54.54,-319.33 130.29,-279.39 71.07,15.36 23.87,17.22 27.15,18.41l-7.54 -49.03c-193.34,-24.79 -163.92,161.55 -149.91,310z"/>
  <path class="fil1" d="M1314.69 1178.46l-3.89 1.41 69.33 -0.28c16.69,-32.85 38.28,-62.8 36.52,-123.9 -4.34,-2.69 -40.17,-21.34 -40.74,-22.34l-61.22 145.11z"/>
  <path class="fil9" d="M899.1 1166.52c24.07,7.66 -15.98,32.07 20.37,-12.07l16.61 58.24c10.66,-24.9 0,-18.95 20.31,-32.53 1.74,-1.16 6.74,-3.32 8.72,-4.28l38.57 -8.18c-22.51,-49.51 -21.76,-53.79 -72.54,-91.15 -40.98,34.79 -50.99,50.85 -32.06,89.96z"/>
  <path class="fil2" d="M1380.13 1179.58l-69.33 0.28 -23.15 96.09c87.35,-8.49 88.24,-9.41 92.48,-96.37z"/>
  <path class="fil10" d="M1695.91 1161.18l-1.6 -10.04 74.69 16.1c5.65,-51 -17.66,-105.87 -43,-138 -21.46,71.79 -26.89,33.28 -30.09,131.94z"/>
  <path class="fil8" d="M1917.33 1179.11l62.64 -13.73c-6.88,-104.81 5.29,-38.21 -43.53,-130.93 39.73,-38.86 -15.94,7.07 25.36,-28.3l-68.67 -4.76c30.46,43.68 39.45,54.85 50.83,116.33 -18.14,40.22 -4.4,24.77 -26.64,61.37z"/>
  <path class="fil11" d="M1253.45 1123.91c18.89,-3.09 -17.05,-13.31 -27.37,-62.28 -2.58,-4.91 -53.73,158.57 14.49,81.18l12.88 -18.9z"/>
  <path class="fil12" d="M1263.06 1554.87c130.48,162.2 566.85,128.21 658.41,-22.89 -85.65,18.9 -227.36,150.31 -527.85,68.73 -42.05,-11.41 -42.47,-10.98 -73.87,-30.03 -39.15,-23.74 3.17,-51.8 -56.68,-15.81z"/>
 </g>
</svg>
