<?xml version="1.0" encoding="UTF-8"?>
<!DOCTYPE svg PUBLIC "-//W3C//DTD SVG 1.1//EN" "http://www.w3.org/Graphics/SVG/1.1/DTD/svg11.dtd">
<!-- Creator: CorelDRAW -->
<svg xmlns="http://www.w3.org/2000/svg" xml:space="preserve" width="100%" height="100%" version="1.1" style="shape-rendering:geometricPrecision; text-rendering:geometricPrecision; image-rendering:optimizeQuality; fill-rule:evenodd; clip-rule:evenodd"
viewBox="0 0 2298.35 7035.53"
 xmlns:xlink="http://www.w3.org/1999/xlink"
 xmlns:xodm="http://www.corel.com/coreldraw/odm/2003">
 <defs>
  <style type="text/css">
   <![CDATA[
    .str0 {stroke:#262737;stroke-width:3;stroke-miterlimit:2.61313}
    .fil0 {fill:#262737}
    .fil3 {fill:#2F70B3}
    .fil2 {fill:#563236}
    .fil6 {fill:#565967}
    .fil11 {fill:#9397A6}
    .fil10 {fill:#987779}
    .fil5 {fill:#ACBCD0}
    .fil8 {fill:#D4B7B0}
    .fil1 {fill:#E5B587}
    .fil7 {fill:#F07374}
    .fil4 {fill:#F8D9CC}
    .fil9 {fill:#FF6600}
   ]]>
  </style>
 </defs>
 <g id="Layer_x0020_1">
  <metadata id="CorelCorpID_0Corel-Layer"/>
  <g id="_105553506951712">
   <path class="fil0" d="M1210.06 3787.37c-100.64,18.82 -76.9,-40.7 -75.65,-134.71 0.95,-71.77 17.01,-122.09 81.52,-144.44 39.26,-13.6 67.42,-8.49 71.66,30.33 4.74,43.41 -23.19,39.69 -49.13,59.26 -39.74,29.99 -18.09,130.5 -28.4,189.56zm-141.83 -397.41c30.41,47.56 19.27,155.06 19.07,221.39 0,71.85 -6.49,113.9 -48.96,151.42 -44.4,39.22 -113.96,47.95 -164.33,8.47 -101.9,-79.88 -63.97,-260.49 56.35,-269.44 40.57,-3.02 69.92,9.35 55.6,55.96 -15.52,50.54 -25.16,11.84 -66.07,44.88 -54.08,43.67 -2.25,118.18 42.85,103.13 71.35,-23.82 31.83,-173.51 42.88,-262.7 6.33,-51.09 13.16,-50.28 62.61,-53.11zm-320.54 29.11c-73.55,81.67 -11.83,157.16 -122.65,154.59l37.6 27.26c-54.87,145.66 -11.81,62.48 -31.94,135.94 -5.77,21.06 -6.46,20.43 -13.74,31.06 -18.81,397.43 -91.68,960.13 -124.18,1388.83 -18.09,238.55 -20.31,488.25 -35.76,726.3l-30.65 729.83 67.57 3.49c100.41,0.37 249.8,14.33 343.39,-1.21 -3.2,-64.49 132.55,-1159.77 143.72,-1270.65 30.11,-298.77 92.24,-621.15 144.74,-919.04 9.07,-51.49 17.97,-101.4 26.5,-150.3 4.56,-26.12 8.19,-47.61 12.11,-71.22 5.46,-32.89 7.22,-51.17 27.8,-76.64l366.94 2501.85 56.04 2.84 345.43 -50.54c-13.59,-383.86 -93.69,-1002.15 -122.07,-1424.52 -16,-238.03 4.59,-530.95 7.27,-772.95 1.16,-104.72 4.06,-706.52 14.93,-756.7 -50.1,-11.52 -39.78,-19.9 -75.58,-34.26 -33.15,52.49 -69.93,243.71 -104.07,330.88 -80.24,-26.45 -67.64,-87.8 -112.4,-129.71 -293.56,76.46 -306.36,-285.78 -107.32,-292.43 55.58,-1.85 62.54,8.13 83.6,46.85 -54.46,-11.38 -93.07,-37.28 -143.26,3.48 -29.98,24.35 -51.63,63.8 -43.39,121.45 14.91,104.31 172.03,120.73 193.63,81.5l0.09 -8.05c-72,-21.8 -125.43,15.29 -157.01,-50.67 -41.91,-79.28 6.19,-139.7 103.56,-132.05 -10.8,78.83 -38.51,31.43 -45.82,97.84 26.77,-6.31 11.68,6.9 36.7,-22.76 13.85,-16.42 12.35,-19.58 17.94,-43.33 13.17,-50.77 18.87,-43.87 60.19,-66.81 12.06,-6.7 27.11,-15.06 37.83,-24.39 24.36,-21.19 10.2,-5.63 24.3,-29.24 -39.97,-60.35 -90.84,-41.15 -184.6,-47.32 -11.65,-60.38 3.94,-304.1 12.44,-372.26 -82.43,-2.7 -423.71,-11.66 -481.02,6.65 -8.68,117.84 -20.27,226.13 -29.12,350.68l-199.74 5.7z"/>
   <path class="fil1" d="M1556.52 3172.17l4.53 56.04c-80.93,17.94 -90.12,-66.22 -4.53,-56.04zm-38.32 -218.61c20.49,-37.46 35.71,-32.52 65.64,-10.24l-5.68 42.41c-58.35,14.86 -42.57,1.72 -59.96,-32.16zm70.47 -264.19l-1.57 52.08c-82.32,18.47 -87.46,-75.19 1.57,-52.08zm-421.78 -1623.42c-20.33,33.44 -22.29,80.84 -28.72,122.99 41.77,11.82 116.2,62.29 132.09,94.69l25.9 1.69c25.23,-23.42 188.65,-91.85 231.88,-101.58 -0.13,7.84 0.08,51.83 -1.94,57.21 -11.56,30.8 2.85,18.54 -33.23,21.19l21.86 29.16c22.42,41 -22.65,816.48 -24.46,857.69 -6.41,145.36 -3.98,304.73 -24.58,447.03l-3.8 54.93c7.94,171.59 -3.94,222.4 -6.07,388.59l-475.53 -1.66 113 -1272.91c9.5,-107.54 16.68,-314.62 40.21,-408.96 4.98,27.1 33.44,39.84 75.83,38.93l3.78 -40.86c-8.8,3.3 -22.86,6.49 -33.28,9.94 -26.42,-45.26 -14.54,-15.97 -46.25,-49.76l10.24 -128.95 -543.5 206.3c-36.34,252.45 -114.66,939.49 -154.98,1122.31 -32.76,148.54 -255.4,914.51 -263.35,1009.19 188.37,28.43 61.02,77.66 -59.15,317.24 -39.66,79.07 44.46,293.95 102.56,338.65 17.69,-65.76 24.52,40.42 29.92,-63.59 45.39,20.26 23.85,32.59 44.81,-8.42 -26.19,-23.97 -52.41,-28.65 -83.5,-42.32l391.2 -971.11c1.81,-3.65 8.97,-15.43 11.62,-20.52 33.67,-64.66 32.13,-113.66 69.4,-129.37 16.98,22.65 7.76,-8.18 8.63,34.87 37.65,27.88 101.29,60.33 159.91,65.73 14.39,-19.94 -18.52,-15.53 31.09,-17.81 -5.22,104.44 -127.99,270.7 -140.78,392.63l199.74 -5.7c8.85,-124.55 20.44,-232.84 29.12,-350.68 57.31,-18.3 398.59,-9.35 481.02,-6.65 -8.49,68.16 -24.08,311.88 -12.44,372.26 93.76,6.17 144.63,-13.03 184.6,47.32 -14.11,23.61 0.06,8.05 -24.3,29.24 -10.72,9.33 -25.77,17.69 -37.83,24.39 -41.31,22.94 -47.02,16.04 -60.19,66.81 10.52,10.92 6.8,4.43 13.45,25.79 6.16,19.78 6.84,31 10.54,52.09l-0.45 19.07c8.94,10.89 7.57,3.18 14.53,22.82 2.81,7.93 4.98,22.75 6.57,31.19l-0.09 8.05c12.65,11.8 11.67,-9.53 16.74,39.14 44.76,41.91 32.15,103.26 112.4,129.71 34.14,-87.17 70.93,-278.39 104.07,-330.88 35.8,14.36 25.48,22.74 75.58,34.26 14.11,-74.03 288.64,-620.26 342.43,-736.56 35.92,-77.66 105.63,-166.15 93.86,-258.36 -25.91,-202.89 -69.68,-408.39 -101.48,-618.89 -25.69,-170.05 -94.55,-463.84 -92.74,-617.37 -76.02,-9.99 -251.46,-87.61 -334.9,-125.53 -2.25,-1.02 -4.92,-2.31 -7.16,-3.36l-237.59 -96.06 5.9 -219.52c-20.61,26.51 -24.81,114.7 -130.76,166.26 -120.81,58.8 -138.48,33.17 -232.56,1.02l1.16 -52.98z"/>
   <path class="fil0" d="M1213.1 1354.08l-3.78 40.86c33.93,36.21 -31.09,348.32 -42.03,419.16l-128.95 852.58c-22.52,143.11 -10.25,130.29 112.29,335.06 38.26,-37.58 68.22,-80.81 101.15,-122.06 57.43,-71.92 61.12,-54.22 59.17,-176.69l-15.41 -1138.13c-2.53,-157.38 4.81,-88.84 45.4,-188.24l-44.78 -91.3 -25.9 -1.69c-10.25,28.99 -33.83,49.35 -57.17,70.44z"/>
   <path class="fil2" d="M941.81 307.67c-29.93,26.54 -69.06,37.97 -17.93,81.8 33.12,28.39 57.35,33.85 61.65,93.81 2.61,-2.33 5.8,-9.76 6.91,-7.88l34.24 -75.52 64.34 1.44c-8.86,197.69 250.11,37.19 327.68,-4.85 -12.47,173.96 41.78,78.8 87.81,204.73 9.88,27.04 16.97,51.37 29.18,77.31l-0.3 21.26 17.73 17.71 40.02 -27.61c31.76,-124.43 130.28,-124.96 -7.83,-377.94 21.35,-35.97 49.93,-19.62 31.42,-68.89 -12.75,-33.96 -49.93,-28.13 -82.51,-25 8.98,-114.13 -20.02,-105.02 -95.9,-89.19 -25.32,50.61 -203.96,-72.22 -308.59,-53.6 -19.28,32.37 -12.62,17.59 -4.62,56.92 -126.52,-2.41 -255.66,82.31 -151.85,156.07 -16.17,16.75 -2.14,11.96 -31.45,19.42z"/>
   <path class="fil2" d="M64.92 6897.19l-64.63 53.94c-5.32,115.78 63.61,78.93 333.56,77.68 139.27,-0.64 279.94,-5 418.96,-3.23l-8.5 -187.28 3.02 -109.78c-46.73,16.15 -71.39,51.57 -140.35,42.64 -48.97,-6.34 -72.62,-30.59 -114.98,-45.41 -59.74,13.62 -159,57.46 -218.74,82 -43.84,18.01 -179.78,85.67 -208.34,89.43z"/>
   <path class="fil2" d="M1412.81 6814.06c-2.16,1.92 -5.61,1.69 -6.78,5.39l-20.69 14.3c-53.22,31.21 -139.42,56.6 -206.83,115.68 -4.99,117.51 52.89,81.34 335.19,79.25 138.55,-1.03 279.72,-5.22 417.93,-3.01l-10.25 -237.07 3.38 -55.39c-55.97,4.76 -21.24,6.91 -68.32,29.56 -27.13,13.05 -48.35,14.67 -81,11.87 -72.72,-6.23 -73.06,-42.09 -139.12,-41.09 -57.37,18.2 -177.58,78.5 -223.51,80.51z"/>
   <path class="fil3" d="M436.47 3941.7c0.32,43.9 -12.47,76.02 -41.81,113.91l-85.13 -37.04c1.9,-37.11 14.47,-84.87 47.36,-103.64 -1.22,-37.79 42.33,-140.46 61.88,-176.87l90.02 40.36c-8.26,37.5 -45.91,137.27 -72.31,163.28zm35.03 -361.46c73.25,-32.81 142.53,29.11 93.37,84.91 -16.07,18.24 -59.09,20.34 -78.89,3.76 -27.37,-22.92 -18.43,-52.08 -14.48,-88.66zm-171.38 526.75c53.2,6.52 76.33,36 137.21,39.12l175.17 -420.74 4.45 42.56c7.28,-10.63 7.97,-10 13.74,-31.06 20.13,-73.46 -22.93,9.71 31.94,-135.94l-37.6 -27.26c110.82,2.57 49.1,-72.92 122.65,-154.59 12.8,-121.93 135.56,-288.19 140.78,-392.63 -49.61,2.29 -16.7,-2.13 -31.09,17.81 -35.37,70.44 -65.54,154.63 -97.29,231.95 -15.01,36.57 -33.59,81.65 -48.31,118.04l-54.26 113.87c-45.04,-44.58 -63.16,-61.54 -155.6,-59.3l195.56 -470.3c-0.87,-43.05 8.35,-12.22 -8.63,-34.87 -37.26,15.71 -35.72,64.72 -69.4,129.37 -2.65,5.09 -9.81,16.88 -11.62,20.52l-391.2 971.11c31.1,13.68 57.32,18.35 83.5,42.32z"/>
   <path class="fil1" d="M1140.31 888.48l204.85 3.51c-21.19,26.22 -48.18,67.29 -102.7,67.23 -74.31,-0.09 -72.94,-47.71 -102.15,-70.74zm-123.37 -148.82c-0.32,117.89 75.5,270.8 144.98,320.68 172.07,23.48 252.25,-5.01 336.15,-128.4 16.8,-24.71 4.7,-45.81 26.19,-18.31l23.61 -90.07c80.41,-7.64 98.39,-20.28 86.56,-114.85 -10.23,-7.83 -9.91,-8.37 -24.12,-15.3 -2.36,-1.15 -13.73,-3.04 -17.17,-3.53l-40.02 27.61 -17.73 -17.71c-172.11,-22.2 -70,41.22 -169.91,60.92 -90.79,17.9 -101.83,-54.03 -133.68,-86.39l-54.85 147.78 23.97 -113.93c-68.04,83.85 -86.22,70.28 -183.97,31.51z"/>
   <path class="fil1" d="M985.52 483.27l16.77 159.53 27.37 -33.89c18.11,-40.96 -1.33,-13.47 9.95,-41.83 12.37,-31.1 46.64,-39.35 87.63,-28.71 50.26,13.04 67.7,217.76 142.32,71.65 0.97,-1.91 2.59,-4.65 3.44,-6.56l11.01 -61.83c56.74,-23.65 110.52,-38.17 139.55,26.73l-91.67 -0.65c79.18,-20.15 93.63,73.93 119.17,106.59l84.62 4.21c-12.21,-25.94 -19.3,-50.28 -29.18,-77.31 -46.03,-125.93 -100.28,-30.77 -87.81,-204.73 -77.56,42.05 -336.54,202.54 -327.68,4.85l-64.34 -1.44 -34.24 75.52c-1.11,-1.88 -4.3,5.56 -6.91,7.88z"/>
   <path class="fil0 str0" d="M1033.41 3419.44c40.5,3.55 25.67,38.69 25.04,87.07 -1.46,111.26 21.91,259.36 -108.75,260.92 -66.47,0.8 -114.28,-65.04 -106.82,-131.09 6.59,-58.37 85.02,-148.76 116.7,-87.63 -33.26,34.44 -92.72,7.38 -89.57,104.5 1.8,55.54 44.54,98.83 105.52,80.24 108.32,-33.02 20.89,-227.77 57.87,-314zm34.83 -29.48c-49.45,2.83 -56.28,2.02 -62.61,53.11 -11.05,89.19 28.47,238.88 -42.88,262.7 -45.1,15.05 -96.93,-59.46 -42.85,-103.13 40.91,-33.04 50.55,5.66 66.07,-44.88 14.32,-46.62 -15.03,-58.98 -55.6,-55.96 -120.32,8.95 -158.25,189.56 -56.35,269.44 50.37,39.48 119.93,30.75 164.33,-8.47 42.47,-37.52 48.96,-79.57 48.96,-151.42 0.19,-66.33 11.33,-173.83 -19.07,-221.39z"/>
   <path class="fil4" d="M941.81 307.67c29.31,-7.46 15.28,-2.67 31.45,-19.42 -103.81,-73.77 25.33,-158.48 151.85,-156.07 -8,-39.33 -14.66,-24.55 4.62,-56.92 104.63,-18.62 283.27,104.21 308.59,53.6 -123.2,-24.41 -110.24,-53.42 -204.78,-94.22 -52.02,-22.45 -199.41,-86.08 -200.13,49.48 -56.89,16.8 -178.07,43.32 -152.69,164.39 13.83,65.93 55.6,57.89 61.09,59.16z"/>
   <path class="fil5" d="M1615.19 6632.02l44.31 1.46 2.82 78.91 -26 21.15c66.07,-1 66.4,34.86 139.12,41.09 32.64,2.8 53.87,1.17 81,-11.87 47.07,-22.65 12.35,-24.8 68.32,-29.56 -22.82,-40.72 -17.5,-70.91 -15.09,-125.22 5.32,-1.95 24.71,-8.23 30.21,-11.11 28.71,-15.07 0.45,7.3 20.74,-15.38l-345.43 50.54z"/>
   <path class="fil6" d="M1303.08 600.17c107.95,-52.41 158.8,93.08 79.65,135.73 -99.7,53.72 -166.33,-93.65 -79.65,-135.73zm-224.35 2.17c92.02,-37.52 143.88,109.54 54.83,145.81 -101.19,41.21 -161.82,-102.18 -54.83,-145.81zm-76.43 40.47c2.48,18.46 1.37,33.39 4.3,52.23 3.17,20.36 7.07,20.84 10.35,44.63 97.75,38.76 115.93,52.33 183.97,-31.51l-23.97 113.93 54.85 -147.78c31.84,32.36 42.89,104.29 133.68,86.39 99.91,-19.7 -2.2,-83.11 169.91,-60.92l0.3 -21.26 -84.62 -4.21c-25.54,-32.66 -39.98,-126.74 -119.17,-106.59l91.67 0.65c-29.03,-64.9 -82.81,-50.38 -139.55,-26.73l-11.01 61.83c-0.86,1.91 -2.47,4.65 -3.44,6.56 -74.62,146.11 -92.07,-58.6 -142.32,-71.65 -40.99,-10.64 -75.26,-2.39 -87.63,28.71 -11.28,28.36 8.15,0.87 -9.95,41.83l-27.37 33.89z"/>
   <path class="fil5" d="M492 6725.75c42.36,14.82 66.01,39.06 114.98,45.41 68.95,8.93 93.62,-26.5 140.35,-42.64 -12.71,-39.52 -8.32,-49.03 -1.63,-89.26 51.15,-8.74 33.94,5.64 66.87,-7.55 31.25,-12.51 5.41,10.15 24.77,-16.54 -93.59,15.55 -242.98,1.58 -343.39,1.21l-1.94 109.37z"/>
   <path class="fil7" d="M1161.92 1060.34l4.98 5.62 -1.16 52.98c94.09,32.15 111.75,57.78 232.56,-1.02 105.95,-51.56 110.15,-139.75 130.76,-166.26l-4.81 -38.03c-21.48,-27.5 -9.39,-6.41 -26.19,18.31 -83.89,123.39 -164.07,151.89 -336.15,128.4z"/>
   <path class="fil0 str0" d="M1210.06 3787.37c10.31,-59.06 -11.33,-159.57 28.4,-189.56 25.94,-19.58 53.87,-15.86 49.13,-59.26 -4.24,-38.82 -32.4,-43.93 -71.66,-30.33 -64.51,22.35 -80.57,72.67 -81.52,144.44 -1.25,94.01 -24.99,153.53 75.65,134.71z"/>
   <path class="fil0" d="M1033.41 3419.44c-36.98,86.23 50.44,280.98 -57.87,314 -60.98,18.59 -103.72,-24.7 -105.52,-80.24 -3.15,-97.11 56.31,-70.05 89.57,-104.5 -31.68,-61.13 -110.11,29.26 -116.7,87.63 -7.46,66.06 40.35,131.89 106.82,131.09 130.67,-1.56 107.3,-149.65 108.75,-260.92 0.63,-48.39 15.46,-83.53 -25.04,-87.07z"/>
   <path class="fil0 str0" d="M1568.7 3794.23c-5.06,-48.67 -4.09,-27.34 -16.74,-39.14 -21.6,39.23 -178.73,22.81 -193.63,-81.5 -8.24,-57.65 13.41,-97.1 43.39,-121.45 50.19,-40.76 88.8,-14.86 143.26,-3.48 -21.06,-38.73 -28.02,-48.7 -83.6,-46.85 -199.04,6.64 -186.24,368.88 107.32,292.43z"/>
   <path class="fil0 str0" d="M1552.05 3747.04c-1.58,-8.44 -3.76,-23.26 -6.57,-31.19 -6.95,-19.65 -5.58,-11.94 -14.53,-22.82l-5.32 17.6c-75.2,2.29 -70.44,4.33 -111.69,-28.52 -6.41,-58.27 -1.89,-68.73 38.81,-90.6 -69.36,119 15.61,126.63 60.94,66.35 0.11,26.45 0.09,1.78 17.7,16.09 -3.7,-21.09 -4.38,-32.31 -10.54,-52.09 -6.65,-21.37 -2.93,-14.87 -13.45,-25.79 -5.59,23.74 -4.09,26.91 -17.94,43.33 -25.03,29.67 -9.94,16.46 -36.7,22.76 7.31,-66.41 35.02,-19.01 45.82,-97.84 -97.37,-7.65 -145.47,52.77 -103.56,132.05 31.58,65.96 85.02,28.87 157.01,50.67z"/>
   <path class="fil8" d="M1346.64 725.85c-38.81,-34.47 -33.33,-74.17 -7.95,-106.45 30.27,6.8 30.03,2.53 35.12,38.89 9.67,69 -24.33,64.53 -27.17,67.57zm-43.56 -125.69c-86.68,42.08 -20.05,189.45 79.65,135.73 79.15,-42.65 28.3,-188.14 -79.65,-135.73z"/>
   <path class="fil8" d="M1128.41 721.52c-66.08,-18.23 -53.24,-70.74 -21.91,-107.15 54.8,30.76 34.17,53.23 21.91,107.15zm-49.69 -119.19c-106.99,43.63 -46.36,187.02 54.83,145.81 89.05,-36.26 37.19,-183.33 -54.83,-145.81z"/>
   <path class="fil0" d="M436.47 3941.7l-79.59 -26.78c-32.89,18.77 -45.46,66.54 -47.36,103.64l85.13 37.04c29.34,-37.89 42.13,-70.01 41.81,-113.91z"/>
   <path class="fil9" d="M1140.31 888.48c29.2,23.03 27.83,70.65 102.15,70.74 54.52,0.06 81.51,-41.01 102.7,-67.23l-204.85 -3.51z"/>
   <path class="fil5" d="M548.69 3595.89c61.03,49.67 -73.94,104.86 -61.74,20.7 4.2,-28.97 4.99,-11.35 9.93,-20.5 36.3,-13.74 16.37,-12.8 51.82,-0.19zm-77.19 -15.66c-3.95,36.58 -12.89,65.74 14.48,88.66 19.8,16.58 62.81,14.49 78.89,-3.76 49.16,-55.79 -20.12,-117.72 -93.37,-84.91z"/>
   <path class="fil10" d="M415.09 3902.94c13.67,-9.7 14.5,-1.89 27.35,-28.97l7.45 -67.17c-0.19,-1.94 -0.25,-5.47 -0.55,-7.23l-11.08 -22.34c-21.13,12 -14.28,0.25 -34.24,51.04 -10.44,26.59 -14.7,32.6 -16.76,62.87l27.83 11.8z"/>
   <path class="fil11" d="M1346.64 725.85c2.84,-3.04 36.83,1.43 27.17,-67.57 -5.09,-36.36 -4.85,-32.09 -35.12,-38.89 -25.37,32.28 -30.86,71.98 7.95,106.45z"/>
   <path class="fil11" d="M1128.41 721.52c12.25,-53.92 32.89,-76.39 -21.91,-107.15 -31.33,36.41 -44.17,88.92 21.91,107.15z"/>
   <path class="fil0" d="M496.87 3596.09c-4.93,9.15 -5.73,-8.47 -9.93,20.5 -12.2,84.16 122.78,28.97 61.74,-20.7 -35.45,-12.61 -15.52,-13.55 -51.82,0.19z"/>
   <path class="fil0" d="M1530.95 3693.03l0.45 -19.07c-17.61,-14.31 -17.6,10.36 -17.7,-16.09 -45.33,60.28 -130.31,52.65 -60.94,-66.35 -40.69,21.87 -45.21,32.33 -38.81,90.6 41.24,32.85 36.48,30.81 111.69,28.52l5.32 -17.6z"/>
   <path class="fil0" d="M1518.2 2953.56c17.39,33.88 1.61,47.02 59.96,32.16l5.68 -42.41c-29.93,-22.28 -45.15,-27.22 -65.64,10.24z"/>
   <path class="fil0" d="M1588.68 2689.37c-89.04,-23.11 -83.9,70.55 -1.57,52.08l1.57 -52.08z"/>
   <path class="fil0" d="M1556.52 3172.17c-85.59,-10.19 -76.41,73.98 4.53,56.04l-4.53 -56.04z"/>
  </g>
 </g>
</svg>
