<?xml version="1.0" encoding="UTF-8"?>
<!DOCTYPE svg PUBLIC "-//W3C//DTD SVG 1.1//EN" "http://www.w3.org/Graphics/SVG/1.1/DTD/svg11.dtd">
<!-- Creator: CorelDRAW -->
<svg xmlns="http://www.w3.org/2000/svg" xml:space="preserve" width="100%" height="100%" version="1.1" style="shape-rendering:geometricPrecision; text-rendering:geometricPrecision; image-rendering:optimizeQuality; fill-rule:evenodd; clip-rule:evenodd"
viewBox="0 0 2389.56 2110.52"
 xmlns:xlink="http://www.w3.org/1999/xlink"
 xmlns:xodm="http://www.corel.com/coreldraw/odm/2003">
 <defs>
  <style type="text/css">
   <![CDATA[
    .fil0 {fill:#003399}
   ]]>
  </style>
 </defs>
 <g id="Layer_x0020_1">
  <metadata id="CorelCorpID_0Corel-Layer"/>
  <path class="fil0" d="M1584.4 1251.09c241.08,-30.41 227.11,119.9 1.74,85.73l-1.74 -85.73zm-1353.01 12.51c27.39,-29.52 100.98,-17.33 143.21,-15.69l0.93 93.6 -70.93 0.34c-52.07,0.39 -125.7,-21.7 -73.22,-78.25zm17.67 -793.07c-65.42,0 -76.18,-9.89 -64.27,-88.96 19.74,-131.06 207.43,-137.67 186.35,88.63l-122.09 0.34zm1259.35 50.43c17.58,16.84 11.24,-27.53 19.56,36.63 0,132.29 15.56,701.61 -8.98,783.76 -87.33,17.59 -658.07,5.98 -825.55,5.98 -46.28,0 -92.65,-0.27 -138.92,0.03 -17.69,0.11 -54.52,1.9 -70.04,0.39l-44.1 -13.99c-4.87,-213 31.04,-897.19 -25.44,-1040.7l478.1 -6.74c-7.2,-86.82 -11.52,-58.97 -241.25,-58.96 -182.63,0.01 -427.94,-31.96 -500.47,65.96 -42.72,57.67 -52.26,168.85 0.53,223.24 53.02,34.12 146.84,18.91 221.36,20.43l0.95 388.16 -0.94 255.4c-103.09,3.39 -217.96,-3.63 -218.33,112.96 -0.35,110.71 103.5,114.28 205.15,113.54l1278.16 0.18c95.77,0.34 198.52,-23.16 174.75,-136.01 -21.54,-102.24 -124.17,-81.81 -226.79,-92.84l0.07 -259.65 0.81 -302.32c64.9,26.11 82.52,64.15 185.63,82.69 115.75,20.81 174.98,-21.43 237.76,-15.02 96.28,9.83 298.26,179.01 379.13,137.37 -0.4,-59.64 -3.1,-44.45 -68.14,-73.04l-251.17 -121.38c17.87,-35.56 35.44,-54.59 27.63,-98.96 -98.17,1.38 -44.27,83.64 -186.41,107.44 -90.44,15.15 -168.3,-4.58 -237.78,-44.12 -92.49,-52.63 -73.11,-66.51 -129.29,-162.24 -48.26,-82.21 -143.06,-35.4 -151.99,-133.7 49.8,-49.76 178.27,33.48 283.56,85.83 98.01,48.73 85.15,23.39 104.39,9.66 -15.5,-62.4 -94.4,-76.72 -149.02,-104.72 -37.16,-19.05 -126.17,-66.06 -163.97,-74.61 -114.23,-25.81 -301.39,125.31 -366.02,65.07 -125.39,-87.96 138.76,-149.11 196.94,-169.38 180.97,-63.04 145.33,-47.98 306.1,25.49 107.32,49.04 500.81,261.6 580.15,251.61 -3.95,-71.11 -4.12,-56.92 -77.9,-87.7 -150.06,-62.59 -594.5,-306.73 -689.7,-296.38 -24.93,2.71 -368.76,99.91 -399.05,175.24 -37.18,92.48 11.49,167.07 84.41,182.77 72.98,15.71 145.12,-31.3 216.07,-47.3 37.8,77.02 11.71,73.28 93.78,111.18 69.83,32.25 74.44,18.98 96.27,98.74z"/>
  <path class="fil0" d="M67.48 1677.56l1866.22 -2.02c-1.79,80.55 16.8,320.22 -24.91,351.96 -31.05,23.63 -1414.38,10.09 -1645.86,10.55 -111.43,0.22 -191.01,34.96 -195.72,-76.23 -3.83,-90.53 2.03,-191.53 0.28,-284.27zm1555.31 -756.61l11.47 40.15c291.55,12.97 301.72,-67.41 299.68,165.79 -0.48,55.52 -0.12,111.17 -0.12,166.7 0,101.87 5.3,218.24 -3.44,317.13l-1859.69 -0.39c-7.14,-105.26 -2.32,-223.85 -2.35,-330.63 -0.02,-52.99 -20.06,-266.68 18.1,-302.04 68.96,-63.9 237.7,62.1 250.35,-72.84 -52.61,-11.58 -240.79,-19.98 -288.79,6.8 -66.48,37.09 -44.55,178.71 -44.54,270.87 0.03,217.57 0.09,435.13 0,652.7 -0.05,110.37 -25.52,235.25 68.02,262.31 51.28,14.84 863.52,6.54 955.24,6.54 1108.14,0 970.23,81.98 970.29,-338.3 0.03,-217.35 0.43,-435.35 1.43,-652.75 0.48,-104.66 8.98,-203.84 -99.2,-215.15 -78.51,-8.21 -227.71,-18.3 -276.47,23.09z"/>
  <path class="fil0" d="M739.46 457.47c260.02,-58.54 316.19,334.8 88.17,387.03 -267.81,61.34 -351.24,-327.81 -88.17,-387.03zm-35.82 -59.62c-320.81,95.52 -202.37,598.8 144.45,509.76 334.21,-85.8 200.58,-612.49 -144.45,-509.76z"/>
  <path class="fil0" d="M514.63 986.09c9.67,55.14 20.59,51.65 80.21,52.28l779.82 0.31c59.41,-2.72 58.22,7.5 62.75,-46.85 -37.26,-29.3 -30.67,-20.51 -91.26,-20.46 -138.27,0.07 -770.12,-17.32 -831.52,14.72z"/>
  <path class="fil0" d="M1207.27 1181.75c-146.41,0.05 -625.13,-17.28 -692.66,13.25 9.3,58.44 15.41,52.87 80.18,53.61l626.37 -1.37c67.53,0.04 185.43,26.36 216.71,-36.96 -43,-51.7 -161.71,-28.56 -230.6,-28.53z"/>
  <path class="fil0" d="M440.38 1333.74l44.1 13.99c15.52,1.51 52.35,-0.27 70.04,-0.39 46.27,-0.3 92.64,-0.02 138.92,-0.03 167.48,0 738.22,11.61 825.55,-5.98 24.54,-82.15 8.98,-651.47 8.98,-783.76 -8.32,-64.15 -1.98,-19.79 -19.56,-36.63l6.19 813.14 -1074.22 -0.35z"/>
  <path class="fil0" d="M1112.8 809.38c47.67,35.12 183.28,18.89 247.24,18.43 60.83,-0.87 43.97,8.73 79.33,-21.85 -13.5,-57.39 -11.03,-44.43 -162.66,-44.34 -129.98,0.08 -160.21,-18.98 -163.91,47.75z"/>
  <path class="fil0" d="M1113.02 570.41c10.02,63.11 13.68,48.39 93.87,48.48 58.1,0.06 98.05,7.03 137.48,-16.33l-2.52 -35.51c-5.27,-1.17 -182.35,-48.43 -228.83,3.36z"/>
  <path class="fil0" d="M794.78 495.42c-59.56,-9.7 -49.53,8.34 -50.67,75.3 -0.85,50.39 -2.3,76.27 13.83,112.21 63.63,-10.74 53.33,-7.7 54.48,-83.04 0.91,-59.61 4,-66.38 -17.65,-104.48z"/>
  <path class="fil0" d="M789.42 803.07c31.2,-35.5 32.98,-37.05 1.24,-80.76 -72.42,13.59 -61.81,67.02 -1.24,80.76z"/>
 </g>
</svg>
