<?xml version="1.0" encoding="UTF-8"?>
<!DOCTYPE svg PUBLIC "-//W3C//DTD SVG 1.1//EN" "http://www.w3.org/Graphics/SVG/1.1/DTD/svg11.dtd">
<!-- Creator: CorelDRAW -->
<svg xmlns="http://www.w3.org/2000/svg" xml:space="preserve" width="100%" height="100%" version="1.1" style="shape-rendering:geometricPrecision; text-rendering:geometricPrecision; image-rendering:optimizeQuality; fill-rule:evenodd; clip-rule:evenodd"
viewBox="0 0 5112.39 3276.22"
 xmlns:xlink="http://www.w3.org/1999/xlink"
 xmlns:xodm="http://www.corel.com/coreldraw/odm/2003">
 <defs>
  <style type="text/css">
   <![CDATA[
    .fil0 {fill:#003399}
   ]]>
  </style>
 </defs>
 <g id="Layer_x0020_1">
  <metadata id="CorelCorpID_0Corel-Layer"/>
  <g id="_105553396864608">
   <path class="fil0" d="M4593.17 1597.62c0,340.02 374.04,818.02 -399.75,818.44 -78.19,0.04 -158.61,17.69 -223.04,36.57 -66.02,19.35 -126.41,48.46 -173.04,86.57 -228.13,186.44 -242.62,384.39 -242.62,676.01 0,33.21 17.93,29.24 49.93,29.96l0 29.95 169.75 0 0 -29.95 858.72 0 0 29.95 179.73 0 0 -29.95c55.49,-4.62 45.82,-29.52 53.1,-86.69l53.74 -365.63c33.92,-234.5 192.71,-1303.61 192.71,-1504.76 0,-213.54 -519.22,32.41 -519.22,309.54z"/>
   <path class="fil0" d="M-0 1397.92c0,134.72 5.74,295.74 38.36,410.97 23.2,81.94 89.78,190.5 181.31,198.12 1.55,69.69 39.94,184.82 39.94,379.43 0,347.79 -99.85,605.01 -99.85,718.93 0,183.12 284.14,247.93 358.33,48.79 23.94,-64.26 38.95,-139.94 55.05,-214.55 65.37,-303.06 80.18,-673.07 15.33,-981.87 -22.29,-106.16 -39.28,-220.44 -39.28,-350.14 79.5,38.15 183.52,29.96 299.56,29.96 -21.41,31.96 -31.67,55.35 -49.93,89.87l39.65 20.52c81.93,-154.81 89.74,-118.37 132.22,-148.2 53.6,-37.63 28.57,-92.43 51.46,-138.16 3.04,-6.07 23.3,-34.41 28.26,-41.67l217.71 -341.52c-31.01,-7.22 -84.38,-19.18 -119.82,-19.97 -16.8,72.09 -81.87,132.51 -99.85,209.69 -37.73,-10.07 -29.04,-19.28 -59.91,-39.94 -8.33,16.81 -9.19,17.55 -19.97,29.96 17.04,25.46 17.11,31.18 49.93,39.94 -8.09,34.74 -34.01,79.75 -49.93,109.83 -151.88,-80.36 -300.51,89.87 -479.29,89.87 -382.65,0 -321.3,-549.39 -235.52,-644.91 75.31,-83.86 245.5,-49.07 245.5,85.74 0,77.36 -19.97,119.24 -19.97,239.65 0,56.58 79.41,7.09 109.83,0 0,-124.78 45.47,-185.55 13.87,-313.41 -70.19,-284 -424.15,-201.08 -517.17,69.72 -40.19,117 -85.82,313.89 -85.82,463.36z"/>
   <path class="fil0" d="M3874.23 1218.19l9.99 159.76c119.88,-80.28 80.38,-269.6 239.64,-269.6 82.09,0 133.94,51.07 146.22,123.75 9.4,55.67 -45.94,166.82 -66.19,205.91 -35.58,68.7 -64.7,98.87 -117.43,152.17 -149.81,151.43 -152.32,37.16 -152.32,187.18 0,50.04 10.62,73.5 8.58,108.33 -1.9,32.42 -8.58,61.22 -8.58,111.35 -535.23,44.54 -738.26,368.93 -813.35,864.15 -20.54,135.48 -43.35,374.01 154.33,374.01 181.78,0 159.17,-202.73 163.96,-235.44 19.34,-131.91 13.97,-205.92 64.35,-345.05 107.4,-296.63 304.59,-328.16 600.45,-328.16 30.25,0 22.48,4.72 39.71,4.76 355.12,0.91 339.73,-355.52 339.73,-663.78 0,-105.44 -49.17,-358.82 -89.79,-449.41 -77.46,-172.77 -295.74,-330.44 -457.22,-157.52 -29.06,31.13 -62.08,100.89 -62.08,157.59z"/>
   <path class="fil0" d="M2086.89 2865.73c0,117.95 -9.57,257.17 -87.63,301.79 -84.95,48.56 -212.48,25.21 -248.01,51.55 -6.89,5.11 -38.81,48.59 -43.8,56.05l878.69 0c-92.39,-137.96 -111.01,-20.83 -283.69,-105.74 -49.28,-24.23 -63.03,-56.32 -75.38,-114.33 -66.65,-313.11 48.14,-876.42 155.99,-1071.38 70.24,-126.97 202.59,-143.36 362.56,-156.66 126.81,-10.54 345.8,-56 399.68,-129.54l-1997.03 0c53.08,72.45 267.73,117.63 390.31,128.91 78.87,7.26 154.65,15.87 222.66,36.96 78.11,24.22 112.88,54.57 149.2,120.39 100.94,182.93 176.43,595.19 176.43,882z"/>
   <path class="fil0" d="M3504.78 589.12l0 69.89c0,210.2 246.97,369.84 452.65,282.9 105.52,-44.61 206.37,-159.51 206.37,-272.92 0,-116.37 -5.85,-182.81 -102.06,-277.38 -124.9,-122.78 -328.15,-124.95 -456.22,-1.31l-9.98 9.99c-46.45,48.38 -90.77,119.39 -90.77,188.82z"/>
   <path class="fil0" d="M319.52 319.52c0,194.85 160.59,339.49 289.57,339.49l69.9 0c166.25,0 309.54,-164.23 309.54,-329.51 0,-170.83 -146.46,-329.51 -319.52,-329.51 -111.48,0 -175.69,18.92 -257.41,102.05 -48.71,49.55 -92.07,122.81 -92.07,217.47z"/>
   <path class="fil0" d="M3734.44 1477.8c-294.43,0 -441.68,-262.71 -557.1,-127.74 -70.76,82.75 -18.7,154.95 53.66,201.83 42.78,27.71 95.04,58.04 142.54,77.14 108.52,43.63 198.96,88.43 340.94,88.43 304.46,0 529.21,-283.81 529.21,-479.29 0,-51.74 -61.79,-109.84 -109.84,-109.84 -159.27,0 -100.31,185.47 -259.23,299.93 -28.02,20.18 -92.96,49.55 -140.17,49.55z"/>
   <path class="fil0" d="M459.31 1467.81c144.86,0 194.94,-24.97 316.45,-92.94 91.69,-51.28 192.79,-97.82 192.79,-196.63 0,-68.67 -54.05,-109.84 -129.81,-109.84 -80.88,0 -202.95,159.76 -369.45,159.76 -30.75,-131.99 9.98,-200.72 9.98,-289.57 0,-98.27 -196.78,-200.54 -245.58,24.02 -28.31,130.29 -31.58,321.04 53.16,418.04 37.17,42.55 97.14,87.15 172.45,87.15z"/>
   <path class="fil0" d="M2556.2 1048.44c0,196.23 -59.91,216.85 -59.91,329.51l0 279.59c0,45.22 51.22,29.96 159.76,29.96 23.01,0 29.95,-6.95 29.95,-29.96 0,-254.55 22.25,-234.3 -39.07,-430.23 -22.63,-72.3 -20.84,-158.83 -20.84,-238.77l-69.89 0 0 59.91z"/>
   <path class="fil0" d="M2236.67 1357.98c0,104.9 79.88,57.13 79.88,239.64 0,73.35 -43.27,53.52 -69.89,89.87l159.76 0c-28.83,-39.36 -33.45,-8.52 -56.7,-53.27 -58.04,-111.71 66.68,-205.02 66.68,-266.25 0,-84.68 -3.13,-67.52 -19.97,-139.8l-139.79 0c-3.94,47.38 -19.97,75.42 -19.97,129.81z"/>
   <path class="fil0" d="M2945.61 1068.41c32.9,62.17 168.85,248.83 179.73,289.57 34.41,-9.19 52.6,-34.08 69.9,-59.91l-129.81 -249.63c-31.01,7.22 -84.38,19.18 -119.82,19.97z"/>
   <path class="fil0" d="M3384.96 1737.41l28.75 -21.42c-40.04,-76.49 -21.54,-47.61 -98.65,-88.41 7.77,33.37 46.89,92.98 69.89,109.83z"/>
   <path class="fil0" d="M678.99 1048.44c37.73,10.07 29.04,19.27 59.91,39.94l32.09 -27.82c-14.08,-18.44 -44.42,-40.26 -62.05,-52.07 -24.65,16.5 -21.83,5.98 -29.96,39.94z"/>
  </g>
 </g>
</svg>
