<?xml version="1.0" encoding="UTF-8"?>
<!DOCTYPE svg PUBLIC "-//W3C//DTD SVG 1.1//EN" "http://www.w3.org/Graphics/SVG/1.1/DTD/svg11.dtd">
<!-- Creator: CorelDRAW -->
<svg xmlns="http://www.w3.org/2000/svg" xml:space="preserve" width="100%" height="100%" version="1.1" style="shape-rendering:geometricPrecision; text-rendering:geometricPrecision; image-rendering:optimizeQuality; fill-rule:evenodd; clip-rule:evenodd"
viewBox="0 0 393.7 426.65"
 xmlns:xlink="http://www.w3.org/1999/xlink"
 xmlns:xodm="http://www.corel.com/coreldraw/odm/2003">
 <defs>
  <style type="text/css">
   <![CDATA[
    .fil1 {fill:#3E4D55}
    .fil3 {fill:#62B4F5}
    .fil2 {fill:#EA5250}
    .fil0 {fill:#FEC828}
   ]]>
  </style>
 </defs>
 <g id="Layer_x0020_1">
  <metadata id="CorelCorpID_0Corel-Layer"/>
  <g id="_105553546002176">
   <path class="fil0" d="M40.27 117.4c97.43,-2.83 84.53,-8.44 146.41,32.18 23.97,15.73 36.52,10.61 77.18,10.61 23.35,0 69.95,-5.79 89.05,4.01 -4.07,-37.75 4.65,-128.59 -4.4,-153.93 -19.12,-5.1 -289.82,-4.63 -304.73,0.75 -6.93,18.92 -2.68,80.37 -3.51,106.37z"/>
   <path class="fil1" d="M138.65 298.4c52.83,13.41 59.29,34.79 53.41,86.1l-71 0.82c-5.43,-34.09 -2.24,-67.96 17.59,-86.92zm-42.26 0.09c22.26,38.15 16.75,34.39 16.75,86l-72.6 1.04c-0,-20.54 -4.59,-50.39 7.67,-64.17 7,-7.86 36.66,-21.56 48.18,-22.87zm43.59 -11.85c3.67,-11.3 0.53,-4.36 11.05,-12.65 37.19,-29.34 2.03,-40.69 41.63,-40.69l-0.02 82.55c-9.78,-5.66 -16.42,-9.65 -27.14,-14.42 -5.08,-2.26 -8.93,-3.48 -13.66,-5.61 -10.83,-4.89 -6.12,-3.87 -11.87,-9.17zm-39.38 -1.9l31.93 1.1c-0.13,9.37 -9.83,24.84 -16.14,30.25 -7.45,-9.06 -15.1,-18.87 -15.79,-31.35zm-58.98 31.85l-1.15 -83.19c33.96,-0.29 11.42,3.91 30.39,29.2 7.35,9.8 19.65,15.61 22.28,24.04 -3.54,6.86 -42.97,22.94 -51.52,29.95zm25.96 -83.39c44.72,-1.34 61.61,-13.69 89.41,-31.55 46.48,68.27 -78.83,115.99 -89.41,31.55zm0.27 -6.94c4.11,-41.59 53.56,-62.65 82.69,-31.41l-15.59 13.02c-20.11,12.31 -42.43,17.6 -67.1,18.39zm-12.67 0.06c-28.37,0 -21.59,-8.97 -21.57,71.45 0,28.41 -2.46,66.29 0.47,93.47l165.11 1.26 0.28 -165.33c-47.93,-2.23 -13.16,-7.11 -42.3,-36.93 -25.88,-26.5 -77.57,-26.18 -95.23,25.22 -4.46,12.97 1.7,5.56 -6.77,10.85z"/>
   <path class="fil1" d="M10.18 415.25c-6.19,-20.61 -2.72,-128.16 -2.72,-159.22 0,-175.55 0.98,-102.69 32.51,-125.18 -7.38,-7.48 -27.05,-4.64 -33.54,1.47 -7.42,6.97 -5.98,21.35 -5.92,34.67 0.18,38.56 -2.31,237.63 2.34,247.17 8.71,17.86 49.44,11.3 71.81,11.3l250.43 0c83.95,0 67.53,18.55 66.96,-183.35 -0.06,-22.63 6.96,-63.93 -12.86,-70.73 -13.39,-4.6 -139.91,-0.85 -165.56,-1.38 -19.49,-0.4 -41.91,-18.32 -55.71,-27.8 -8.26,-5.68 -16.41,-12.33 -27.68,-14.44 -5.46,-1.02 -13.95,-1.37 -19.57,-1.27 -9.63,0.17 -12.1,0.45 -16.61,4.35 10,6.1 22.14,1.24 35.47,3.93 15.54,3.14 52.4,35.66 68.15,40.48 14.09,4.31 120.81,1.61 144.12,1.58 51.81,-0.06 42.39,-12.76 43.76,101.45 0.21,17.72 3.51,130.84 -5.9,137.81 -20.65,6.39 -353.79,4.95 -369.46,-0.85z"/>
   <path class="fil1" d="M40.27 117.4c0.83,-26 -3.41,-87.46 3.51,-106.37 14.91,-5.37 285.61,-5.85 304.73,-0.75 9.05,25.33 0.33,116.17 4.4,153.93l5.19 -2.35c1.76,-15.74 2.35,-140.52 -1.08,-149.2 -6.99,-17.7 -42.22,-11.67 -62.55,-11.67l-228.28 -0.07c-33.3,-0.11 -32.75,9.41 -32.61,40.89 0.11,24.22 -1.51,53.35 0.64,76.91l6.05 -1.32z"/>
   <polygon class="fil2" points="236.19,259.28 247.17,259.49 336.21,259.46 348.69,259.4 348.69,233.23 236.19,233.19 "/>
   <path class="fil3" d="M139.98 286.63c5.74,5.3 1.03,4.28 11.87,9.17 4.73,2.13 8.58,3.35 13.66,5.61 10.72,4.76 17.36,8.76 27.14,14.42l0.02 -82.55c-39.6,0 -4.44,11.35 -41.63,40.69 -10.52,8.3 -7.38,1.35 -11.05,12.65z"/>
   <path class="fil3" d="M41.62 316.58c8.55,-7.01 47.98,-23.09 51.52,-29.95 -2.63,-8.43 -14.93,-14.24 -22.28,-24.04 -18.97,-25.29 3.57,-29.49 -30.39,-29.2l1.15 83.19z"/>
   <path class="fil0" d="M67.85 226.24c24.67,-0.78 47,-6.07 67.1,-18.39l15.59 -13.02c-29.13,-31.24 -78.58,-10.19 -82.69,31.41z"/>
   <path class="fil1" d="M236.26 299.54l112.27 0.2 0.06 25.91 -12.37 0.05 -89.04 0.04 -10.91 -0.21 0 -25.99zm-5.33 -6.53c-2.87,11.89 -3.62,28.11 0.78,39.63l123.36 -0.68 -0.79 -39.24 -123.35 0.29z"/>
   <path class="fil1" d="M236.19 233.19l112.5 0.04 0 26.17 -12.48 0.06 -89.04 0.04 -10.98 -0.21 0 -26.09zm-4.86 32.76l122.65 0.31 1.22 -39.12 -123.88 -0.84c-3.67,11.92 -3.66,28.1 0,39.65z"/>
  </g>
 </g>
</svg>
