<?xml version="1.0" encoding="UTF-8"?>
<!DOCTYPE svg PUBLIC "-//W3C//DTD SVG 1.1//EN" "http://www.w3.org/Graphics/SVG/1.1/DTD/svg11.dtd">
<!-- Creator: CorelDRAW -->
<svg xmlns="http://www.w3.org/2000/svg" xml:space="preserve" width="100%" height="100%" version="1.1" style="shape-rendering:geometricPrecision; text-rendering:geometricPrecision; image-rendering:optimizeQuality; fill-rule:evenodd; clip-rule:evenodd"
viewBox="0 0 1547.37 1706.01"
 xmlns:xlink="http://www.w3.org/1999/xlink"
 xmlns:xodm="http://www.corel.com/coreldraw/odm/2003">
 <defs>
  <style type="text/css">
   <![CDATA[
    .fil0 {fill:#003399}
   ]]>
  </style>
 </defs>
 <g id="Layer_x0020_1">
  <metadata id="CorelCorpID_0Corel-Layer"/>
  <path class="fil0" d="M1471.15 1068.46c52.8,22.83 44.3,43.1 43.7,117.66 -0.99,123.87 14.2,406.62 -15.02,479.28 -39.97,9.54 -759.18,31.47 -792.8,-11.89 -21.34,-43.91 -20.98,-524.85 1.09,-567 59.22,-43.45 374.19,-15.96 470.56,-20.8 41.04,0.17 7.3,2.9 22.62,-12.56l-13.34 -12.44c-18.86,-27.95 -45.03,-182.05 31.44,-211.19 23.04,-8.78 29.64,-3.6 49.72,-15.54 41.63,-24.76 35.69,-64.52 28.37,-108.74 -57.2,-46.17 -29.03,-18.55 -87.5,-42.35 -40.68,-16.56 -52.72,-63.15 -15.14,-89.28 57.3,-39.85 133.28,30.14 235.6,-49.99 19.38,-116.46 -30.2,-122.33 -132.91,-121.92 -48.56,0.2 -205.69,-15.19 -229.45,17.75 77.18,45.65 255.46,-28.37 335.41,36.86l-2.65 64.51c-64.56,24.67 -305.8,-20.19 -249.56,122.04 14.97,37.85 37.76,40.37 79.21,53.93 30.28,9.91 60,27.45 39.99,72.57 -17.77,40.06 -51.12,20.65 -89.36,45.84 -60.05,39.55 -27.11,140.95 -40.99,222.93 -513.38,0 -472.92,-35.53 -472.77,204.01 0.32,511.86 -35.69,460.99 218.3,460.9 111.2,-0.04 222.41,0 333.61,0 369.63,0 324.25,60.02 324.25,-360.84 0,-162.3 23.36,-235.16 -45.27,-297.7 -36.31,7.83 -8.78,-8.33 -27.12,23.94z"/>
  <path class="fil0" d="M403.62 657.92c171.12,29.84 177.73,259.08 0.44,283.66l-0.44 -283.66zm-29.65 284.08c-168.16,-21.2 -174.98,-255.43 0.59,-283.65l-0.59 283.65zm197.17 -374.72c82.22,80.18 70.13,-79.69 69.02,378.02l-143.11 -1.73c32.63,-43.63 86.6,-110.86 55.11,-201.45 -36.82,-105.92 -116.09,-79.5 -148.71,-133.66l1.17 -111.8c196.8,-0.35 96.87,2.7 166.53,70.63zm66.32 2.89c-48.41,-11.9 -58.24,-23.62 -71.32,-72.85l74.96 1.14 -3.64 71.71zm-70.79 -105.34c17.03,-71.94 98.63,-102.17 153.33,-47.09 58.64,59.03 14.69,142.76 -48.76,150.37l-12.38 -98.87 -92.19 -4.4zm-47.98 3.13c-134.71,0.42 -140.48,-13.43 -144.22,61.85 -6.7,135.05 26.31,69.09 -70.01,119.94 -89.22,47.11 -110.89,169.06 -56.84,251.72 64,97.88 267.6,78.26 413.74,70.63 19.57,-72.82 5.57,-273.93 8.51,-363.65 41.26,-28.46 72.52,-28.09 94.52,-77.84 21.05,-47.6 4.76,-105.04 -22.94,-133.63 -111.56,-115.18 -213.35,64.07 -222.77,70.98z"/>
  <path class="fil0" d="M1424.82 1118.93l-27.01 8.2c3.4,5.71 7,5.3 7.82,8.68 1.46,5.96 27.14,12.6 30.56,39.63 0,82.04 18.21,356.14 -7.46,408 -19.8,23.48 -552.96,16.06 -565.54,4.06 -15.82,-15.11 -11.6,-388.56 -7.43,-410.27 14.18,-73.66 139.58,-11.04 260.26,-36.12 -8.8,-37.35 7.3,-11.49 -19.06,-23.65 -66.43,0 -209.5,-22.19 -253.21,15.76 -27.77,26.37 -34.81,442.19 -2.07,474.88 53.44,42.63 222.08,16.12 299.77,16.12 389.52,0 323.24,52.48 323.25,-270.89 0,-156.41 23.34,-212.59 -39.87,-234.4z"/>
  <path class="fil0" d="M961.47 1434.81l14.64 -54.21 36.93 35.16 -51.57 19.05zm92.28 -37.47c-28.86,-14.48 -40.9,-26.39 -56.28,-55.12 73.41,-67.33 369.75,-387.98 424.28,-411.34l44.84 54.32 -412.85 412.14zm427.17 -449.8c-25.19,-15.36 -21.45,-10 -35.08,-36.49 15.71,-21.7 29.98,-9.09 50.5,3.68l-15.42 32.81zm-556.41 522.1c129.56,1.34 233.85,-140.54 340.44,-248.52 88.14,-89.29 317.35,-271.75 237.25,-339.94 -56.3,-47.93 -155.04,67.61 -176.55,89.17 -52.35,52.49 -97.32,97.54 -150.07,150.17 -37.43,37.34 -205.08,193.95 -222.5,233.61 -14.24,32.43 -30.62,81.54 -28.57,115.51z"/>
  <path class="fil0" d="M8.04 307.62c57.78,-22.78 -0.49,-45.01 39.98,-134.96 88.32,-18.76 669.92,-6.99 849.24,-8.43 12.92,-0.1 43.65,-0.84 54.96,0.88 37.06,5.63 24.9,1.38 44.07,22.66 40.84,52.85 13.94,691.67 16.36,813.9l24.77 6.92 2.65 -767.6c-2.31,-116.85 -63.22,-105.15 -165.5,-104.6l-779.28 0.09c-95.05,7.6 -101.54,76.79 -87.26,171.14z"/>
  <path class="fil0" d="M640.97 1305.59l-478.33 -2.46c-65.95,0.4 -87.49,9.51 -123.39,-27.62 -20.89,-71.36 -6.75,-602.83 -6.75,-722.64 -10.1,-50.32 -2.85,-16 -18.32,-29.17 -21.87,40.56 -12.44,603.92 -10.45,696.81 3.22,149.84 117.59,111.41 248.08,111.4 122.32,-0 244.66,0.2 366.98,-0.06 29.04,-15.33 11.73,13.35 22.18,-26.27z"/>
  <path class="fil0" d="M250.42 1674.11l-102.87 0.8c5.7,-52.74 16.24,-105.9 24.34,-156.16 4.3,-26.7 7.89,-49.25 12.67,-76.37 8.35,-47.44 12.74,-53.4 0.53,-82.52 -34.02,28.87 -65.52,285.25 -67.63,339.81l156.84 0.16c9.61,-59.69 64.52,-303.8 44.24,-340.53 -29.12,20.49 -31.37,93.26 -39.5,142.12 -9.78,58.78 -19.44,114.4 -28.61,172.69z"/>
  <path class="fil0" d="M385.45 19.22c-14.27,32.11 -16.5,56.54 -0.19,88.35 31.41,-19.43 14.02,-25.35 24.21,-74.27l223.94 -0.73c12.26,39.43 -0.3,42.85 18.74,75.61 19.91,-22.05 8.58,34.5 17.53,-33.35 10.9,-82.65 -55.15,-71.76 -95.25,-71.54 -58.16,0.32 -139.74,-14.41 -188.98,15.93z"/>
  <path class="fil0" d="M747.7 1390.98c-16.46,-41.94 -14.74,-6.65 1.43,-40.29 51.94,-4.85 51.6,46.46 -1.43,40.29zm-17.36 27.28c40.28,7.11 78.45,11.61 82.85,-43.19 4.43,-55.26 -32.5,-60.88 -81.32,-51.89 -33.91,42.75 -36.43,50.72 -1.52,95.07z"/>
  <path class="fil0" d="M723.44 1497.86c8.7,19.82 -16.73,17.27 29.18,21.41 48.61,4.39 36.12,-6.04 44.75,-21.41 -27.56,-12.31 -43.95,-15.46 -73.93,0z"/>
  <path class="fil0" d="M1445.84 911.05c13.63,26.49 9.89,21.13 35.08,36.49l15.42 -32.81c-20.52,-12.76 -34.79,-25.38 -50.5,-3.68z"/>
 </g>
</svg>
