<?xml version="1.0" encoding="UTF-8"?>
<!DOCTYPE svg PUBLIC "-//W3C//DTD SVG 1.1//EN" "http://www.w3.org/Graphics/SVG/1.1/DTD/svg11.dtd">
<!-- Creator: CorelDRAW -->
<svg xmlns="http://www.w3.org/2000/svg" xml:space="preserve" width="100%" height="100%" version="1.1" style="shape-rendering:geometricPrecision; text-rendering:geometricPrecision; image-rendering:optimizeQuality; fill-rule:evenodd; clip-rule:evenodd"
viewBox="0 0 1805.39 1528.22"
 xmlns:xlink="http://www.w3.org/1999/xlink"
 xmlns:xodm="http://www.corel.com/coreldraw/odm/2003">
 <defs>
  <style type="text/css">
   <![CDATA[
    .fil0 {fill:#003399}
   ]]>
  </style>
 </defs>
 <g id="Layer_x0020_1">
  <metadata id="CorelCorpID_0Corel-Layer"/>
  <path class="fil0" d="M143.92 595.16l83.25 1.7 0.22 243.61 -77.06 5.9 -6.42 -251.22zm758.13 -561.78c7.96,87.92 16.21,648.98 -8.57,698.89 -69.47,-15.01 -43.46,-82.09 -43.28,-157.6l-0.04 -402.22c-0.48,-80.25 -24.71,-135.52 51.89,-139.07zm-644.72 565.05c51.6,-4.49 34.05,-14.78 51.56,18.05 10.11,18.97 4.86,39.25 1.03,59.64l-48.49 -0.01 -4.1 -77.68zm171.35 -47.43l0.01 -359.18 388.15 -137 3.65 650.32c-57.33,-7.41 -143.9,-45.81 -203.42,-67.06 -32.28,-11.53 -62.19,-23.8 -95.49,-35.35 -122.21,-42.37 -71.66,-29.49 -92.9,-51.74zm505.9 -108.85l0.28 -122.02c48.34,7.77 54,32.02 50.74,90.19 -18.69,19.38 -22.05,27.6 -51.02,31.83zm-577.61 -264.48c2.66,2.86 7.09,2.63 8.56,8.01 8.14,29.95 4.14,3.26 15.23,14.96 13.75,14.5 4,-1.15 16.58,19.19l-0.22 343.26 -137.04 -0.74 -2.36 -342.52c19.64,-40.53 0.94,0.22 40.71,-36.85 -27.91,-22.69 -79.04,-21.37 -110.11,-0.39l38.84 23.99 0.98 353.44c-55.13,6.56 -131.33,14.02 -174.63,-8.28 -40.43,-53.66 -26.85,-269.19 -11.82,-334.23 50.84,-23.08 57.17,-7.98 86.01,-44.92 -141.68,-11.48 -125.38,82.36 -125.34,201.01 0.04,137.32 -28.63,210.46 112.81,222.5 0,70.23 -8.6,221.09 13.39,269.4 161.91,53.29 124.16,-46.54 131.35,-155.1l86.6 -13.61 -11.54 -100.24c117.92,-0.91 203.98,44.6 302.13,80.12 60.46,21.88 234.78,104.57 278.11,74.04 39.35,-34.66 9.8,-183.3 19.22,-247.01 16.46,-54.44 80.47,-28.17 83.09,-118.54 1.93,-66.49 -43.93,-83.96 -83.09,-108.21 0,-76.61 26.15,-257.91 -32.28,-270.28 -17.39,-3.68 6.02,-15.74 -60.76,6.02 -23.24,7.57 -48.79,18.11 -69.41,25.66 -45.59,16.68 -93.12,34.8 -138.83,50.98l-276.18 88.35z"/>
  <path class="fil0" d="M487.44 1327.81l694.67 -2.21c27.37,122.94 -34.72,-3.03 48.89,165.97 -143.46,7.48 -308.73,-0.05 -455.82,-0.04 -154.96,0 -318.42,33.39 -287.74,-163.72zm522.33 -847.78c36.48,24.63 180.48,14.24 238.62,14.24 77.89,0 157.2,-1.55 234.9,1.04 -62.48,115.44 -43.11,161.34 -43.11,315.89 0,122.27 -0.37,244.58 -0.05,366.65 0.29,111.37 22.5,260.75 -68.56,301.43 -167.01,74.61 -157.96,-167.82 -160.26,-183.87l-753 3.4c-46.94,285.42 214.24,223.78 435.16,223.81 683.42,0.07 576.32,85.28 576.3,-735.08 -0,-105.67 -22.59,-236.68 57.72,-277.88 121.64,-62.41 169.48,42.63 165.32,151.33 -47.29,0.04 -172.5,-19.91 -192.29,20.1 42.41,21.52 163.51,11.94 216.32,6.46 18.6,-75.37 0.35,-149.05 -40.33,-186.24 -67.35,-61.58 -441.11,-35.64 -558.36,-37.09l-108.39 15.8z"/>
  <path class="fil0" d="M952.6 1182.87c-47.22,-0.26 -85.51,-12.84 -107.74,18.63 45.86,23.5 426.52,25.04 473.7,0 -25.04,-38.95 -270.72,-18.11 -365.96,-18.63z"/>
  <path class="fil0" d="M727.85 740.23c-35.03,19.75 -20.85,18.06 -20.56,130.1l-0.04 283.92c-0.3,51.27 -11.23,90.8 18.44,113.2 17.73,-30.94 21.65,-482.02 2.16,-527.22z"/>
  <path class="fil0" d="M952.6 957.13c-48.53,-0.28 -86.47,-13.33 -107.3,19.65 38.31,17.95 433.66,19.02 472.92,0 -19.07,-32.81 -58.89,-19.93 -105.28,-19.66l-260.34 0.01z"/>
  <path class="fil0" d="M1805.39 941.3l-53.35 -12.39c-1.21,-50.57 8.05,-33.81 -23.16,-54.24l-6.87 52.58c-16.04,0.92 -19.41,1.3 -34.81,4.92l-18.46 9.13c19.59,14.77 -30.76,14.76 48.11,18.27l16.61 52.03c29.37,-20.07 16.75,0.21 18.39,-53.02 53.47,-0.93 31.48,10.73 53.54,-17.28z"/>
  <path class="fil0" d="M1697.5 1212.22c-0.43,-0.16 -28.28,-5.06 -28.78,-5.14 -3.96,-51.99 -7.79,-38.87 -18.08,-49.53 -18.67,26.04 -11.31,11.99 -14.97,51.84 -40.68,3.37 -25.46,-5.13 -51.76,15.76 25.44,21.83 7.47,13.1 49.08,16.91l17.65 51.65 19.51 -49.73c2.73,-0.43 27.09,-4.83 27.36,-4.93 21.02,-6.94 11.52,-4.54 23.58,-13.91 -12.37,-8.94 8.82,-0.84 -23.59,-12.94z"/>
  <path class="fil0" d="M1050.74 554.17c8.88,52.22 -4.44,22.4 36.26,63.41 35.47,35.74 17,32.42 71.39,45.86 -15.04,-51.43 -58.15,-101.87 -107.65,-109.27z"/>
  <path class="fil0" d="M1047.57 209.68c40.48,-8.78 99.74,-68.08 107.52,-108.35 -43.28,14.15 -93.61,65.18 -107.52,108.35z"/>
 </g>
</svg>
