<?xml version="1.0" encoding="UTF-8"?>
<!DOCTYPE svg PUBLIC "-//W3C//DTD SVG 1.1//EN" "http://www.w3.org/Graphics/SVG/1.1/DTD/svg11.dtd">
<!-- Creator: CorelDRAW -->
<svg xmlns="http://www.w3.org/2000/svg" xml:space="preserve" width="100%" height="100%" version="1.1" style="shape-rendering:geometricPrecision; text-rendering:geometricPrecision; image-rendering:optimizeQuality; fill-rule:evenodd; clip-rule:evenodd"
viewBox="0 0 2124 1295.02"
 xmlns:xlink="http://www.w3.org/1999/xlink"
 xmlns:xodm="http://www.corel.com/coreldraw/odm/2003">
 <defs>
  <style type="text/css">
   <![CDATA[
    .fil0 {fill:#003399}
   ]]>
  </style>
 </defs>
 <g id="Layer_x0020_1">
  <metadata id="CorelCorpID_0Corel-Layer"/>
  <path class="fil0" d="M351.5 1136.35c-1.35,-93.15 13.47,-154.77 84.87,-190.15 117.05,-57.99 129.7,27.57 207.21,21.31 56.78,-4.59 110.53,-82.37 218.87,-15.11 60.91,37.81 75.62,93.17 74.62,181.31 -207.55,138.3 -382.55,124.94 -585.58,2.64zm293.84 -278.95c50.81,7.52 17.02,4.03 34.57,12.26 -25.72,81.7 -79.59,65.8 -87.52,-13.25 17.2,-0.11 35.56,-1.58 52.96,1zm195.14 -503.63c0,146.03 52.43,471.08 -208.69,458.51 -226.18,-10.89 -212.67,-258.53 -195.11,-468.37 170.15,26.58 258.48,0.04 403.8,9.86zm61.11 257.11c-9.2,-11.4 -15.93,29.23 -17.91,-40.21 -2.2,-77.4 10.04,-33.91 17.91,-45.51 56.15,39.96 39.61,57.78 0,85.72zm-517.08 -0.61c-44.3,-28.96 -42.8,-50.51 4.56,-84.46l-4.56 84.46zm-76.7 -49.06c14.17,111.24 49.88,28.8 113.56,162.33 53.27,111.72 112.43,65.2 124.03,146.1 -66.36,45.52 -53.2,-30.54 -212.41,101.91l-33.71 119.81c-21.83,-28.12 -37.01,-35.76 -60.15,-70.66 -164.68,-248.42 -61.53,-561 92.92,-649.03 20.3,139.17 -3.55,94.98 -24.22,189.54zm647.73 411.04l-46.33 -38.85c-12.95,-10.56 -22.89,-19.37 -42.09,-28.52 -42.05,-20.06 -91.03,-19.73 -139.98,-20 8.17,-117.81 47.87,-7.74 126.01,-162.54 67.22,-133.18 87.63,-10.99 128.85,-151.06 -10.17,-93.52 -46.95,-39.52 -27.83,-190.87 77.66,4.66 167.39,209.64 179.12,324.1 19.26,187.94 -73.1,276.04 -127.9,383.5l-34.11 -63.01c-6.49,-17.95 -10.22,-33.71 -15.74,-52.76zm-576.95 -510.25c34.41,-74.31 -36.23,-152.83 52.85,-247.8 36.54,-38.96 200.72,-86.93 232.76,-94.18 226.19,-51.13 298.09,218.02 225.07,350.2l-2.81 -173.09c-74.06,-2.19 -163.2,21.13 -255.22,20.07 -95.23,-1.1 -163.94,-22.3 -245.3,-25.65l-7.35 170.46zm-269.82 336.5c19.69,282.78 313.92,543.08 641.61,475.22 421.79,-87.34 562.19,-613.39 300.63,-880.86 -138.01,-141.14 -62.43,-51.23 -110.72,-173.58 -95.9,-242.94 -367.16,-112.94 -383.15,-109.6 -226.25,47.24 -118.11,76.81 -302.72,269.23 -94.48,98.48 -158.75,231.45 -145.65,419.58z"/>
  <path class="fil0" d="M1882.08 1153.04c-211.69,123.21 -372.83,137.34 -588.41,-2.87 -1.28,-89.39 12.99,-145.96 75.04,-183.88 114.17,-69.76 150.01,18.9 216.54,15.3 59.02,-3.19 95.46,-78.78 211.28,-21.46 66.91,33.11 87.42,93.3 85.54,192.91zm-349.99 -283.4l96.32 0.7c-8.26,97.28 -87.79,95.4 -96.32,-0.7zm-151.9 -447.19l304.18 -7.63c2.98,0.04 75.87,5.37 96.57,5.44 30.01,195.67 6.08,408.27 -194.33,408.79 -210.48,0.55 -231.12,-207.78 -206.42,-406.61zm-63.93 119.88c10.41,13.07 11.35,-3.65 17.06,29.95 4.1,24.15 -0.15,33.08 -2.49,55.7 -52.82,-28.82 -50.61,-41.31 -14.57,-85.66zm526.42 88.74c-10.31,-16.45 -27.31,32.78 -10.55,-97.84 29.37,8.72 43.72,11.4 49.48,42.01 10.52,55.93 -22.91,45.6 -38.93,55.83zm56.08 356.2c-71.22,-53.54 -46.53,-65 -157.27,-82.81l-72.25 -19.5c15.72,-64.53 19.17,-33.51 72.03,-73.04 36.77,-27.49 37.2,-38.32 58.35,-83.47 39.43,-84.17 4.04,-28.42 73.01,-69.91 34.37,-20.67 44.63,-37.79 51.13,-82.57 -33.34,-152.03 -119.24,6.68 -93.18,-241.41 274.77,131.45 330.4,537.49 100.91,773.78l-32.74 -121.07zm-647.69 -400.6c43.7,125.42 38.07,5.41 114.83,150.34 49.63,93.73 119.55,75.7 125.2,164.56 -80.89,1.2 -106.6,-0.85 -166.87,48.71l-47 37.58c-5.11,19.32 -8.55,34.75 -15.26,53.03l-35.56 62.65c-65.51,-123.7 -160.7,-206.74 -121.62,-431.25 24.23,-139.16 124.4,-285.78 226.73,-326.73 20.96,231.15 -68.12,103.89 -80.46,241.11zm130.65 -211.22c21.74,-274.99 381.18,-276.51 401.74,-0.4 -85.81,1.13 -68.27,-2.18 -97.39,-74.3 -32.93,31.83 -26.76,29.74 -41.2,74.81l-263.15 -0.11zm136.07 -326.09c81.06,-49.19 138.88,-3.34 143.81,85.93l-164.45 1.47 20.64 -87.4zm-56.2 114.58c-93.16,42.58 -64.7,81.14 -138.82,130.3 -511.57,339.28 -238.43,1012.15 292.82,1000.62 270.16,-5.87 504.56,-245.54 508.35,-523.42 3.33,-245.06 -117.12,-377.6 -290.95,-486.77 -60.76,-38.16 -55.44,-83.75 -131.48,-124.65 -5.49,-90.36 -28,-164.93 -128.86,-159.78 -91.77,4.69 -108.11,78.91 -111.05,163.69z"/>
  <path class="fil0" d="M1454.3 524.02c-12.11,54.04 -15.14,31.33 41.01,43.64 -13.35,-55.05 16.5,-51.83 -41.01,-43.64z"/>
  <path class="fil0" d="M-0 826.98c30.25,38.27 65.94,6.2 64.06,-37.43l-64.06 37.43z"/>
  <path class="fil0" d="M1679.9 520.45c-8.72,39.79 1.47,34.93 20.5,48.76 11.43,-22.33 35.02,26.28 10.42,-35.15 -13.1,-32.72 -19.23,-13.42 -30.92,-13.61z"/>
  <path class="fil0" d="M759.31 541.82c31.22,-43.7 20.88,-10.71 0,-41.13 -23.12,25.84 -18.65,-42.31 -12.33,16.37 3.32,30.81 -11.5,5.79 12.33,24.76z"/>
  <path class="fil0" d="M531.67 542.59c20.87,-27 17.17,46.97 11.15,-17.11 -2.78,-29.58 3.63,-5.67 -11.15,-25.51 -22.19,27.35 -17.7,-46.07 -11.56,16.95 2.83,29.08 -8.95,7.22 11.56,25.68z"/>
 </g>
</svg>
