<?xml version="1.0" encoding="UTF-8"?>
<!DOCTYPE svg PUBLIC "-//W3C//DTD SVG 1.1//EN" "http://www.w3.org/Graphics/SVG/1.1/DTD/svg11.dtd">
<!-- Creator: CorelDRAW -->
<svg xmlns="http://www.w3.org/2000/svg" xml:space="preserve" width="100%" height="100%" version="1.1" style="shape-rendering:geometricPrecision; text-rendering:geometricPrecision; image-rendering:optimizeQuality; fill-rule:evenodd; clip-rule:evenodd"
viewBox="0 0 1184.43 1820.87"
 xmlns:xlink="http://www.w3.org/1999/xlink"
 xmlns:xodm="http://www.corel.com/coreldraw/odm/2003">
 <defs>
  <style type="text/css">
   <![CDATA[
    .fil0 {fill:#5562A4}
    .fil3 {fill:#5C97D2}
    .fil2 {fill:#A5BEE6}
    .fil1 {fill:#F3A974}
   ]]>
  </style>
 </defs>
 <g id="Layer_x0020_1">
  <metadata id="CorelCorpID_0Corel-Layer"/>
  <path class="fil0" d="M627.79 1429.57c-264.91,43.54 -353.28,-317.65 -65.65,-383.58 100.86,87.86 76.06,192.9 65.65,383.58zm-148.67 -426.57c3.7,-53.13 3.87,-97.76 3.25,-150.9 -1.28,-111.2 -4.22,-91.64 25.13,-134.58l60.2 7.88 0.64 260.63 -89.22 16.97zm18.38 478.07l130.5 16.33 2.23 260.51 -144.01 0.58 -7.53 -260.7c-98.01,57.06 -114.3,113.61 -190.64,170.87 -56.07,-22.76 -88.37,-63.35 -135.09,-121.72 42.18,-83.91 131,-110.17 175.12,-207.13l-267.72 -7.91 7.52 -189.43 252.38 -0.2c-59.08,-101.33 -116.52,-112.14 -170.86,-201.98l139.93 -129.03 190.16 175.63c-3.52,4.54 -8.55,9.6 -11.56,12.8 -2.93,3.13 -7.8,8.69 -11.36,12.41 -3.39,3.55 -7.37,7.85 -11.05,11.61 -189.65,194.2 -139.11,374.98 51.96,457.35zm190.98 -245.54c2.43,-269.89 -50.72,35.93 -60.84,-475.69 -3.91,-197.22 -137.22,-135.46 -210.16,-310.23 -65.74,-157.53 44.67,-294.68 143.24,-347.33 285.35,-152.43 675.03,89.1 538.74,357.17 -104.02,204.59 -202.41,79.48 -204.76,318.82 -3.9,396.71 -28.73,226.81 -56.54,351.14 -7.44,33.26 -5.01,87.94 -7.04,125.15 -83.92,39.85 -52.53,-29.48 -86.45,54.82 50.14,94.2 92.44,-27.46 90.39,90.02 -1.44,82.73 -84.96,32.72 -98.02,92.72 0.13,158.6 5.9,49.08 97.65,109.66l-4.78 160.1 -136.02 1.06c-18.73,-146.73 -6.8,-372.98 -5.41,-527.41zm-168.43 -580.86l-88.82 23.87 -4.83 173.24c-68.19,-32.55 -61.64,-70.83 -138.35,-104.19 -66.27,20.38 -177.63,130.13 -199.92,196.31 35.04,70.5 67.28,60.01 107.12,141.53 -102.6,2.93 -167.37,-27.26 -189.65,57.76 -12.84,49 -0.98,187.46 9.82,238l179.1 18.2c-42.8,66.13 -84.7,66.32 -106.56,147.54 24.59,64.42 125.11,168.63 200.1,186.89 63.4,-38.5 69.72,-75.37 137.09,-107.03 9.31,158.9 -38.96,193.93 135.48,193.39 105.16,-0.32 227.29,5.24 320.54,-10.7l7.99 -257.15 -91.46 -45.83c62.69,-5.72 49.36,-3.72 88.67,-33.01 8.05,-125.52 -25.54,-248.34 23.85,-364.63 67.33,-158.56 17.27,-225.17 43.34,-382.09 14.2,-85.49 393.51,-286.22 148.89,-578.96 -232.61,-278.37 -794.65,-145.06 -755.92,245.01 12.72,128.14 115.52,207.69 173.52,261.85z"/>
  <path class="fil1" d="M684.84 187.52c210.95,-112.86 327.57,211.44 136.21,284.35 -194.13,73.96 -310.07,-191.33 -136.21,-284.35zm9.04 1575.42l136.02 -1.06 4.78 -160.1c-91.75,-60.58 -97.52,48.94 -97.65,-109.66 13.06,-60.01 96.57,-10 98.02,-92.72 2.06,-117.48 -40.25,4.19 -90.39,-90.02 33.93,-84.3 2.53,-14.97 86.45,-54.82 2.02,-37.2 -0.4,-91.89 7.04,-125.15 27.81,-124.33 52.63,45.57 56.54,-351.14 2.35,-239.33 100.74,-114.23 204.76,-318.82 136.3,-268.07 -253.39,-509.6 -538.74,-357.17 -98.57,52.65 -208.98,189.8 -143.24,347.33 72.94,174.77 206.25,113.01 210.16,310.23 10.13,511.61 63.28,205.8 60.84,475.69 -1.39,154.43 -13.33,380.68 5.41,527.41z"/>
  <path class="fil2" d="M478.69 1497.79c36.35,7.37 23.07,19.18 18.81,-16.72 -191.07,-82.38 -241.61,-263.15 -51.96,-457.35 3.68,-3.76 7.65,-8.07 11.05,-11.61 3.56,-3.72 8.43,-9.29 11.36,-12.41 3.01,-3.2 8.04,-8.26 11.56,-12.8l-190.16 -175.63 -139.93 129.03c54.34,89.83 111.78,100.65 170.86,201.98l-252.38 0.2 -7.52 189.43 267.72 7.91c-44.12,96.96 -132.94,123.22 -175.12,207.13 46.72,58.38 79.02,98.96 135.09,121.72 76.34,-57.26 92.63,-113.81 190.64,-170.87z"/>
  <path class="fil0" d="M799.08 425.91c-212.73,8.35 -190.74,-257.71 43.97,-183.21 29.26,95.05 36.67,114.94 -43.97,183.21zm-114.24 -238.39c-173.87,93.02 -57.92,358.31 136.21,284.35 191.36,-72.91 74.74,-397.21 -136.21,-284.35z"/>
  <path class="fil3" d="M478.69 1497.79l7.53 260.7 144.01 -0.58 -2.23 -260.51 -130.5 -16.33c4.26,35.9 17.54,24.09 -18.81,16.72z"/>
  <path class="fil2" d="M479.11 1003l89.22 -16.97 -0.64 -260.63 -60.2 -7.88c-29.35,42.94 -26.42,23.38 -25.13,134.58 0.61,53.14 0.44,97.77 -3.25,150.9z"/>
 </g>
</svg>
