<?xml version="1.0" encoding="UTF-8"?>
<!DOCTYPE svg PUBLIC "-//W3C//DTD SVG 1.1//EN" "http://www.w3.org/Graphics/SVG/1.1/DTD/svg11.dtd">
<!-- Creator: CorelDRAW -->
<svg xmlns="http://www.w3.org/2000/svg" xml:space="preserve" width="100%" height="100%" version="1.1" style="shape-rendering:geometricPrecision; text-rendering:geometricPrecision; image-rendering:optimizeQuality; fill-rule:evenodd; clip-rule:evenodd"
viewBox="0 0 1830.87 2476.67"
 xmlns:xlink="http://www.w3.org/1999/xlink"
 xmlns:xodm="http://www.corel.com/coreldraw/odm/2003">
 <defs>
  <style type="text/css">
   <![CDATA[
    .fil0 {fill:#003399}
   ]]>
  </style>
 </defs>
 <g id="Layer_x0020_1">
  <metadata id="CorelCorpID_0Corel-Layer"/>
  <path class="fil0" d="M1031.44 1894.92c70,3.81 150.13,19.61 211.06,40.25 52.07,17.64 155.5,59.9 82.83,114.28 -85.6,64.06 -282.85,86.13 -410.68,86.04 -140.48,-0.1 -311.09,-20.95 -410.48,-86.29 -74.64,-49.07 31.23,-96.18 82.94,-113.65 50.72,-17.13 150.51,-40.57 208.63,-39.49 36.04,42.23 57.43,140.08 118.91,140.06 43.76,-0.02 53.97,-28.68 71.5,-58.26 12.31,-20.78 38.66,-63.24 45.3,-82.93zm359.25 42.33c192.43,35.35 565.52,184.63 236.74,344.77 -341.07,166.13 -1091.53,167.12 -1428.07,-2.32 -313.39,-157.78 29.53,-303.52 240.09,-342.45 -34.36,51.17 -49.94,89.12 -3.26,145.34 122.82,147.92 786.12,178.89 959.08,-2.77 63.59,-66.79 0.04,-132.94 -4.58,-142.57zm-476.05 19c-41.04,-49.99 -221.55,-407.86 -328.11,-544.29 -85.57,-109.54 -149.59,-155.47 -206.98,-229.04 -124.78,-159.94 -180.02,-381.05 -115.52,-606.03 43.06,-150.18 110.2,-223.8 202.5,-317.7 24.54,-24.96 63.98,-50.26 95.96,-74.99 4.02,-30.35 -4.29,-56.5 -38.04,-51.21 -37.52,5.89 -156.58,120.03 -185.28,157.44 -13.57,17.69 -24.61,30.11 -36.56,47.66 -216.74,318.28 -168.19,726.98 111.58,983.63 79.81,73.21 166.48,195.32 219.64,290.64 17.52,31.43 114.81,193.14 119.58,211.89 -173.11,14.94 -336.81,33.99 -490.15,89.58 -113.19,41.04 -329,143.9 -243.86,303.02 113.85,212.79 665.8,259.7 895.23,259.78 291.35,0.1 782.69,-57.41 895.87,-259.21 88.34,-157.5 -132.81,-265.28 -244.31,-303.73 -148.88,-51.34 -317.72,-80.56 -487.26,-88.98 1.49,-24.67 174.28,-312.98 222.68,-373.73 77.79,-97.63 149.47,-153.23 202.92,-223.2 175.11,-229.25 210.35,-530.99 81.96,-790.96 -40.24,-81.48 -90.74,-147.98 -142.43,-199.53 -177.4,-176.93 -176.28,-52.47 -147.67,-30.71 16.07,12.23 37.39,25.67 51.8,37.53 15.44,12.71 31.37,27.48 44.2,39.93 24.43,23.69 54.57,60.57 76.68,91.8 166.1,234.59 161.74,553.25 4.68,776.62 -37.95,53.98 -114.16,134.46 -162.93,178.94 -38.66,35.27 -118.63,150.81 -145.56,196.33 -41.8,70.66 -84.5,143.56 -125.3,216.55l-122.95 209.22c-0.33,-0.78 -1.55,1.85 -2.38,2.73z"/>
  <path class="fil0" d="M932.11 1338.98l-34.17 0.06c-3.89,-39.36 4.06,-107.61 4.4,-151.13 1.09,-138.25 -16.43,-103.75 -22.9,-144.09 22.73,-1.9 51.66,-5.35 71.87,3.36 -1.34,15.12 -15.35,22.91 -19.66,52.62 -11.35,78.27 7.35,191.93 0.46,239.18zm339.32 -1024.74c20.95,25.53 45.59,47.91 66.58,68.89 23.26,23.25 39.5,45.89 58.69,75.01 84.74,128.57 111.31,291.16 74.83,444.44 -15.08,63.39 -50.26,150.55 -86.22,186.91 -24.23,-12.92 -25.72,-25.65 -80.99,-48.51 -33.19,-13.72 -62.16,-24.28 -95.38,-38.4 -80.5,-34.2 -112.59,-35.79 -118.85,-79.89 -17.61,-124.2 13.71,-41.27 88.81,-169.13 12.5,-21.28 21.97,-44.53 29.03,-69.89 18.78,-67.46 -5.13,-24.59 31.17,-68.04 25.15,-30.11 42.98,-98.64 40.94,-150.83 -1.77,-45.24 -11.76,-45.48 -23.26,-74.59 -6.58,-16.67 10.87,-53.69 14.63,-75.98zm-827.48 774.8c-34.58,-37.58 -72.98,-134.02 -86.89,-195.66 -18.93,-83.88 -18.62,-168.54 0.16,-253.11 47.74,-215.07 174.96,-281.99 215.89,-340.64 2.91,19.79 15.85,68.15 9.66,81.56 -5.31,11.51 -24.83,18.16 -30.85,68.35 -14.24,118.65 53.61,178.32 59.19,189.15 15.91,30.88 5.64,118.57 133.08,214.26 1.95,20.85 -0.48,41.23 -2.75,62.22 -3.14,28.97 -1.19,34.15 -23.98,45.76 -65.22,33.22 -187.23,73.06 -234.32,102.54 -7.38,4.62 -14.3,9.57 -20.74,14.07l-18.43 11.5zm213.74 -939.51c23.22,8 37.54,31.52 64.27,18.6 50.28,-24.3 -40.61,-137.94 170.57,-83 87.96,22.88 222.39,75.31 310.56,76.04 25.04,212.9 -64.21,229.44 -28.09,270.74 9.65,11.03 27.22,10.32 32.78,20.11 9.16,31.39 -5.17,96.46 -23.4,118.69 -14.26,17.39 -27.95,11.26 -34.27,39.51 -5.57,24.89 -4.84,42.11 -13.13,66.8 -12.32,36.72 -38.22,75.36 -59.17,94.38 -12.99,11.8 -25.77,19.92 -43.24,31.19 -22.21,14.32 -21.15,21.94 -19.5,56.61 7.57,158.41 13.26,147.07 228.17,232.95 30.65,12.25 78.86,27.81 97.3,56.14 -60.51,73.02 -192.33,166.61 -336.81,183.73 -2.37,-47.91 -15.69,-197.55 1.47,-232.09 16.15,-32.5 27.35,-49.65 6.7,-88.41 -15.82,-29.69 -40.47,-38.88 -87.3,-39.22 -42.63,-0.31 -73.24,1.29 -95.86,25.72 -22.04,23.81 -25.43,63.81 -7.54,95.06 24.84,43.39 9.37,179.49 5.74,235.36 -59.06,15.14 -246.59,-81.16 -303.48,-145.64 -11.09,-12.57 -21.69,-23.39 -33.26,-34.5 28.12,-40.69 187.61,-88.39 268.35,-131.15 51.5,-27.27 50.82,-60.02 56.05,-141.31 2.77,-43.12 8.75,-54.29 -22.97,-75.26 -25.16,-16.63 -38.92,-30.3 -55.35,-48.75 -46.22,-51.9 -38.26,-72.37 -55.96,-142.21 -5.44,-21.48 -72.67,-53.35 -60.08,-145.7 4.37,-32.05 1.95,-12.96 25.87,-25.26 54.04,-27.8 -58.41,-228.55 11.59,-289.11zm19.76 -67.67c-106.63,-15 -111.18,99.27 -107.43,193.17 -56.93,-41.11 -107.31,33.94 -150.73,85.69 -229.88,274.04 -180.68,699.29 101.87,913.43 94.69,71.76 230.05,133.93 388.5,135.04 155.67,1.09 295.45,-55.61 390.72,-127.92 314.48,-238.65 347.42,-701.24 59.89,-975.05 -20.37,-19.4 -48.67,-59.76 -82.37,-21.3 -0.35,-49.57 4.92,-195.71 -44.2,-208.68 -63.99,-16.9 41.4,50.16 -192.31,-20.91 -82.5,-25.09 -230,-80.89 -305.31,-41.85 -30.96,16.05 -41.74,35.02 -58.64,68.38z"/>
 </g>
</svg>
