<?xml version="1.0" encoding="UTF-8"?>
<!DOCTYPE svg PUBLIC "-//W3C//DTD SVG 1.1//EN" "http://www.w3.org/Graphics/SVG/1.1/DTD/svg11.dtd">
<!-- Creator: CorelDRAW -->
<svg xmlns="http://www.w3.org/2000/svg" xml:space="preserve" width="100%" height="100%" version="1.1" style="shape-rendering:geometricPrecision; text-rendering:geometricPrecision; image-rendering:optimizeQuality; fill-rule:evenodd; clip-rule:evenodd"
viewBox="0 0 1805.65 1648.13"
 xmlns:xlink="http://www.w3.org/1999/xlink"
 xmlns:xodm="http://www.corel.com/coreldraw/odm/2003">
 <defs>
  <style type="text/css">
   <![CDATA[
    .fil0 {fill:#003399}
   ]]>
  </style>
 </defs>
 <g id="Layer_x0020_1">
  <metadata id="CorelCorpID_0Corel-Layer"/>
  <path class="fil0" d="M1136.25 670.69c43.6,-87.63 3.02,-92.16 75.13,-175.24 615.46,-23.66 535.43,-55.63 535.8,506.47l-1.78 577.53 -1423.4 -1.99 2.31 -901.19 811.94 -5.58zm-984.6 330.01c29.22,109.33 97.75,46.35 112.91,110.87l-5.39 456.65c-55.8,-90.28 -76.29,-245.39 -110.04,-364.2l-81.19 -287.3c-15.14,-75.61 0.72,-68.5 8.5,-80.82 88.87,18.24 51.53,76.22 75.21,164.81zm-96.46 -925.89c75.58,-43.95 1290.83,-17.22 1353.69,-13.12l58.34 374.19c-67.33,1.15 -227.22,-9.31 -280.46,14.3 -99.33,44.05 -44.84,151.56 -123.59,169.27 -146.2,0.55 -677.46,-24.28 -767.59,13.28 -74.98,54.03 18.4,304.67 -54.68,383.43 -59.68,-25.83 -62.34,-176.87 -82.62,-299.46 -17.21,-104.02 -36.19,-213.34 -52.49,-319.5l-50.59 -322.38zm54.98 689.54c-40.79,26.26 -59.79,16.42 -109.98,30.23 -7.02,107.78 179.73,770.96 225.89,840.84 164.5,15.96 1485.96,21.37 1547.98,-10.97 33.23,-27.05 28.98,-122.52 28.43,-165.36 -2.3,-178.66 15.79,-800.93 -15.38,-906.2 -42.46,-143.37 -114.35,-97.95 -259.43,-123.07l-73.68 -414.83c-147.22,-19.55 -1343.64,-22.65 -1444.14,6.81 -29.41,113.45 80.91,590.85 100.3,742.55z"/>
 </g>
</svg>
