<?xml version="1.0" encoding="UTF-8"?>
<!DOCTYPE svg PUBLIC "-//W3C//DTD SVG 1.1//EN" "http://www.w3.org/Graphics/SVG/1.1/DTD/svg11.dtd">
<!-- Creator: CorelDRAW -->
<svg xmlns="http://www.w3.org/2000/svg" xml:space="preserve" width="100%" height="100%" version="1.1" style="shape-rendering:geometricPrecision; text-rendering:geometricPrecision; image-rendering:optimizeQuality; fill-rule:evenodd; clip-rule:evenodd"
viewBox="0 0 1564.69 1766.67"
 xmlns:xlink="http://www.w3.org/1999/xlink"
 xmlns:xodm="http://www.corel.com/coreldraw/odm/2003">
 <defs>
  <style type="text/css">
   <![CDATA[
    .fil0 {fill:#003399}
   ]]>
  </style>
 </defs>
 <g id="Layer_x0020_1">
  <metadata id="CorelCorpID_0Corel-Layer"/>
  <path class="fil0" d="M660.52 1269.3l48.86 -147.7 72.67 50.48 -121.52 97.22zm231.09 -334.21c1.85,-91.45 38.87,-95.26 79.07,-158.13 13.98,-21.87 36,-88.98 77,-104.02 58.77,-21.56 124.93,20.59 -16.54,147.98 -41.67,37.52 -40.81,86.54 -139.53,114.17zm61.64 -260.93c-33.46,75.43 -172.98,240.77 -239.53,309.59l-97.59 205.3 -24.16 69.8c-73.34,4.16 -177.09,-8.2 -242.94,12.56 -4.46,1.41 -10.55,4.89 -14.06,6.19 -3.48,1.29 -9.42,3.95 -13.61,6.82 31.73,44.28 345.52,45.2 358.49,43.41 52.41,-7.26 74.75,-12.06 132.82,-14.65 17.89,-121.71 -21.97,-14.02 -10.2,-62.9 5.57,-23.13 26.35,-27.4 46.66,-41.57 75.61,-52.75 58.31,-76.9 116.2,-113.45 22.99,-46.46 20.53,-40.99 57.06,-83.5 23.69,-27.56 41.99,-50.28 64.32,-69.63l2.72 758.13 -588.68 6.31 -439.55 -4.22 -2.24 -1633.2 409.8 -10.09 618.7 5.98c10.96,257.06 46.5,500.07 -134.23,609.13zm-949.59 -559.29l0.13 1425.37c-0.01,289.02 -123.13,219.02 1033.34,218.86 120.63,-0.02 105.99,-11.83 105.97,-182.31l0.06 -584.77c-0.02,-254.2 136.87,-254.43 231.66,-428.83 41.04,-75.51 4.37,-91.79 82.58,-133.09 102.52,95.15 -162.35,174.1 -143.55,318.9 61.24,-21.12 233.2,-241.92 250.83,-307.68l-71.37 -51.27c14.96,-61.87 24.79,-42.86 31.61,-110.19 -157.19,-190.12 -140.27,24.69 -380.76,152.61 -7.35,-522.58 96.41,-425.31 -490.74,-425.29l-548.18 0.05c-102.19,-0.04 -101.58,9.04 -101.57,107.64z"/>
  <path class="fil0" d="M953.25 674.16c180.73,-109.07 145.19,-352.07 134.23,-609.13l-618.7 -5.98c83.41,74.17 183.34,99.84 240.79,184.9 -159.62,8.65 -266.26,-23.84 -330.15,35.39 39.24,49.47 -17.76,42.81 200.91,40.88 73.64,-0.65 141.78,11.77 200.05,-21.16 46.96,89.16 188.85,237.4 172.88,375.11z"/>
  <polygon class="fil0" points="616.13,1189.05 713.72,983.74 714.54,726.99 431.24,726.04 431.41,1174.13 "/>
  <path class="fil0" d="M766.61 1505.59l7.56 120.38 238.32 -5.86 -7.91 -176.06 -187.67 -10.92c-58.08,37.73 -32.6,4.51 -50.3,72.46z"/>
  <path class="fil0" d="M598.45 1633.35c76.46,-7.72 88.7,5.66 96.65,-74.16l-4.4 -111.62 -235.69 5.08 4.59 171.94 138.85 8.76z"/>
  <polygon class="fil0" points="135.72,1624.76 370.69,1620.41 370.96,1449.31 133.79,1459.57 "/>
  <path class="fil0" d="M133.11 561.57l63.57 -1.41 22.67 -97.44c3.66,-43.21 -10.26,-83.41 -19.96,-110.04l-74.03 -0.98c-22.15,66.31 -29.96,146.12 7.75,209.87z"/>
 </g>
</svg>
