<?xml version="1.0" encoding="UTF-8"?>
<!DOCTYPE svg PUBLIC "-//W3C//DTD SVG 1.1//EN" "http://www.w3.org/Graphics/SVG/1.1/DTD/svg11.dtd">
<!-- Creator: CorelDRAW -->
<svg xmlns="http://www.w3.org/2000/svg" xml:space="preserve" width="100%" height="100%" version="1.1" style="shape-rendering:geometricPrecision; text-rendering:geometricPrecision; image-rendering:optimizeQuality; fill-rule:evenodd; clip-rule:evenodd"
viewBox="0 0 1620.74 1774.38"
 xmlns:xlink="http://www.w3.org/1999/xlink"
 xmlns:xodm="http://www.corel.com/coreldraw/odm/2003">
 <defs>
  <style type="text/css">
   <![CDATA[
    .fil0 {fill:#3E4D55}
    .fil2 {fill:#63B4F5}
    .fil3 {fill:#ED5250}
    .fil4 {fill:#F0C850}
    .fil1 {fill:#FEC828}
   ]]>
  </style>
 </defs>
 <g id="Layer_x0020_1">
  <metadata id="CorelCorpID_0Corel-Layer"/>
  <path class="fil0" d="M304.3 1577.35c11.56,-26.67 2.46,-26.61 98.8,-24.89 143.54,2.56 255.16,14.35 378.98,1.61 84.93,-8.74 135.68,25.52 239.03,9.3 74.98,-11.76 174.81,-18.52 250.57,-1.5 20.71,45.05 17,57.93 -7.12,96.57 -125.39,32.07 -783.73,9.12 -962.95,9.12 11.81,-55.22 -1.42,-44.56 76.37,-43.87 145.37,1.28 741.45,17.86 792.2,-9.87 -23.94,-22.72 -44.65,-20 -97.13,-19.31l-729.8 1.07c-73.6,-10.73 2.11,3.72 -38.96,-18.25zm463.92 -85.13c16.36,-9.21 -21.13,-10.04 37.27,-12.02 39.09,-1.33 29.89,2.37 46.68,12.02 -10.01,48.98 -75.62,47.45 -83.95,0zm290.6 0c2.64,-1.58 6.31,-7.56 7.84,-4.87l151.94 -7.32c202.3,0 228.94,260.21 -12.17,260.21l-888 0c-75.56,0 -33.34,-4.69 -48.82,-20.23 43.43,-38.47 282.95,-21.67 352.93,-21.67 129.75,0 259.5,0 389.26,0 105.31,0 291.24,34.72 304.8,-74.06 8.26,-66.28 -31.28,-95.69 -88.13,-101.34 -31.18,-3.1 -65.39,0.97 -96.17,0.86 -103.6,-0.37 -53.81,-3.85 -73.48,-31.57zm-786.97 0c10,-6.91 -1.04,-7.01 23.22,-11.15 8.63,-1.47 25.39,-1.62 34.61,-1.8 27.73,-0.53 57.93,0.75 86.07,0.75 49.55,-0.01 112.32,-7.85 145.79,12.19 -14.01,42.85 21.64,29.81 -145.79,30.04 -154.82,0.2 -120.2,10.46 -143.9,-30.04zm664.41 44.21c-50.88,-0.31 -63.53,5.55 -50.03,-133.39 42.08,-17.1 90.89,-11.57 137.99,-7.36 2.21,22.81 5.04,50.25 4.78,73.06 -0.83,72.28 5.53,47.95 -29.36,68.06 -44.66,-22.14 -19.6,36.14 -29.76,-56.41 -5.95,-54.15 17.93,-32.8 -18.89,-56.55l-14.73 112.6zm-289.96 0.04c-61.02,-1.41 -59.53,12.19 -50.77,-142.82l138.18 0.87c4.89,61.43 14.13,110.97 -13.85,141.11l-34.48 0.47c-11.28,-63.15 11.91,-89.37 -26.83,-114.42l-12.26 114.79zm153.73 -826.53c69.3,39.83 33.38,91.65 4.98,112.96 -36.75,-72.61 -31.6,-55.92 -4.98,-112.96zm272.54 -20.36c-67.8,149.02 -306.52,48.99 -234.1,-112.3 64.78,-144.26 308.3,-50.8 234.1,112.3zm-532.33 -24.32c-42.14,-179.78 224.02,-211.18 252.19,-58.58 32.21,174.47 -215.41,215.52 -252.19,58.58zm262.81 -108.7c-13.83,-26.54 -29.02,-40.89 -47.93,-61.98l110.48 0.81 -62.54 61.17zm163.99 -88.11c88.79,-54.44 107.52,-67.87 226.02,-65.8 2.98,96.88 -27.35,169.08 -75.96,220.41 -24.51,-102.84 -55.16,-120.84 -150.06,-154.61zm-447.87 104.9c-5.24,10.46 -8.12,16.7 -12.66,23.82 -11.79,18.52 -1.89,7.52 -17.63,21.11 -29.66,-63.17 -65.26,-125.02 -60.97,-216.21 94.42,0 156.55,21.07 217.39,68.79 -89.91,32.98 -93.1,36.55 -126.13,102.48zm30.34 -379.7c66.9,13.66 209.89,64.37 267.21,61.24 72.46,-3.95 171.33,-53.95 249.91,-58.37l-1.48 176.87c-153.67,147.07 -354.38,84.51 -518.23,11l2.59 -190.75zm-7.8 -95.19c29.87,-7.67 56.56,-14.49 87.02,-22.35 48.83,-12.59 142.8,-45.56 187.65,-42.9 40.65,2.41 327.52,80.94 348.26,96.97 -44.33,16.61 -326.48,93.88 -359.28,93.66 -48.33,-0.32 -291.4,-75.22 -355.93,-90.83l92.28 -34.54zm-72.07 771.07c18.41,-10.59 15.94,4.93 40.56,-61.1 10.35,-27.77 19.35,-48.48 28.82,-68.18 67.12,47.42 98.93,66.58 205.19,36.98l56.85 118.15c35.49,-16.79 35.06,-13.98 66,-119.26 144.96,27.85 109.32,25.99 214.97,-34.29 119.64,238.83 54.72,450.32 -66.46,618.41 -218.31,12.44 -123.19,-5.68 -174.04,84.97l-60.81 2.11c-25.64,-51.52 -6.43,-78.99 -73.31,-84.7 -74.45,-6.36 -111.86,38.52 -187.06,-144.51 -53.1,-55.94 -23.51,-417.35 -50.7,-348.58 -36.15,89.33 -0.79,389.24 46.07,413.09 81.12,145.24 50.35,2.72 46.89,163.94l-341.44 9.19c5.11,49.61 12.45,27.37 34.07,74.93 52.81,116.11 -32.21,187.72 -34.45,238.71 298.08,10.73 612.68,0.79 912.69,1.26 72.02,0.11 147.33,9.54 202.19,-27.45 41.37,-27.89 80.3,-85.57 67.14,-164.95 -25.61,-154.5 -198.61,-126.04 -345.14,-129.34 -2.15,-180.22 -26.02,-29.26 51.51,-175.55 152.73,-288.19 -12.6,-545.71 -2.7,-583.76 6.55,-25.18 127.45,-102.8 121.68,-316.04l-129.53 -4.57 0.81 -186.98 127.71 -27.33c0.38,78.51 -11.92,97.32 15.8,130.83 26.28,-34.17 17.91,-118.98 10.57,-167.48 -37.8,-17.52 -426.05,-119.94 -457.96,-117.97l-345.85 90.81c-14.53,3.66 -46.49,10.77 -58.16,15.5 -29.65,12 -17.65,4.06 -33.1,23.83 30.08,23.24 40.92,21.22 85.41,32.44 92.61,23.38 72.76,12.11 68.22,207.86l-119.44 4.52c-2.08,59.67 10.15,128.94 31.85,183.95 28.04,71.11 60,80.92 89.37,130.63 -0.59,72.57 -55.8,111.85 -44.2,179.94z"/>
  <path class="fil1" d="M469.63 869.52c27.51,4.22 5.17,27.98 0.24,114.5 -2.61,59.52 6.64,60.93 8.93,122.04 26.62,98.7 20.08,119.94 41.53,112.04 75.2,183.03 112.61,138.15 187.06,144.51 66.88,5.71 47.67,33.19 73.31,84.7l60.81 -2.11c50.85,-90.65 -44.26,-72.54 174.04,-84.97 121.18,-168.09 186.1,-379.58 66.46,-618.41 -105.65,60.28 -70,62.14 -214.97,34.29 -30.94,105.28 -30.5,102.47 -66,119.26l-56.85 -118.15c-106.26,29.6 -138.07,10.44 -205.19,-36.98 -9.46,19.69 -18.47,40.41 -28.82,68.18 -24.61,66.03 -22.15,50.5 -40.56,61.1z"/>
  <path class="fil2" d="M546.91 384.39c163.85,73.51 364.56,136.07 518.23,-11l1.48 -176.87c-78.57,4.42 -177.44,54.42 -249.91,58.37 -57.32,3.12 -200.31,-47.59 -267.21,-61.24l-2.59 190.75z"/>
  <path class="fil2" d="M449.42 132.99c64.53,15.62 307.6,90.51 355.93,90.83 32.8,0.22 314.94,-77.05 359.28,-93.66 -20.74,-16.03 -307.61,-94.56 -348.26,-96.97 -44.85,-2.66 -138.82,30.31 -187.65,42.9 -30.46,7.86 -57.15,14.68 -87.02,22.35l-92.28 34.54z"/>
  <path class="fil3" d="M448.84 1224.3c-82.72,-128.81 -42.46,-372.31 16.65,-496.81 -116.29,10.78 -124.61,99.06 -157.43,207.02 -41.31,135.9 -133.28,290.69 -23.08,308.36 10.32,1.66 45.92,1.17 57.45,0.61 45.06,-2.19 66.61,-13.22 106.42,-19.19z"/>
  <path class="fil3" d="M1172.43 1223.21c280.02,61.48 232.91,-4.06 141.62,-287.3 -39.3,-121.92 -35.13,-188.29 -158.77,-208.16 69.2,133.22 88.57,366.78 17.15,495.46z"/>
  <path class="fil0" d="M448.84 1224.3c-39.81,5.96 -61.35,16.99 -106.42,19.19 -11.53,0.56 -47.13,1.05 -57.45,-0.61 -110.19,-17.67 -18.23,-172.46 23.08,-308.36 32.82,-107.96 41.15,-196.24 157.43,-207.02l20.04 -23.13c-169.91,-36.65 -198.74,198.71 -243.11,334.8 -23.88,73.24 -71.63,161.21 -11.96,212.44 51.01,43.79 171.35,24.29 230.79,-9.33l-12.4 -17.98z"/>
  <path class="fil0" d="M1155.28 727.75c123.64,19.87 119.47,86.24 158.77,208.16 91.28,283.24 138.39,348.78 -141.62,287.3 -13.42,18.78 -15.33,-18.18 -10.42,21.75 59.69,26.85 186.01,53.79 234.54,-0.67 48.14,-54.03 0.39,-148.93 -20.08,-212.96 -43.77,-136.91 -73.07,-356.57 -243.92,-325.58l22.73 22z"/>
  <path class="fil1" d="M967.03 468.44c94.9,33.77 125.55,51.76 150.06,154.61 48.61,-51.33 78.94,-123.53 75.96,-220.41 -118.5,-2.07 -137.23,11.36 -226.02,65.8z"/>
  <path class="fil1" d="M488.87 618.28c15.74,-13.59 5.84,-2.59 17.63,-21.11 4.54,-7.13 7.42,-13.36 12.66,-23.82 33.02,-65.94 36.22,-69.5 126.13,-102.48 -60.84,-47.72 -122.96,-68.79 -217.39,-68.79 -4.29,91.19 31.31,153.04 60.97,216.21z"/>
  <path class="fil0" d="M1498.15 507.78c19.51,42.8 21.03,28.82 49.84,61.66 -35.59,20.84 -29.72,11.95 -47.08,49.93l-63.52 -50.38c13.59,-15.77 44.84,-47.05 60.76,-61.2zm0.23 183.03c22.41,-32.43 19.34,-57.29 42.73,-80.17 21.02,-20.56 51.56,-23.01 79.64,-42.68 -15.08,-24.87 6.43,-8.53 -42.57,-31.26 -57.76,-26.79 -37.22,-24.38 -62.12,-70.92 -22.73,-42.46 5.62,-13.97 -33.47,-32.25 -12.31,31.28 -17,66.34 -43.43,87.08 -41.72,32.73 -46.9,-1.97 -74.09,47.35 34.9,27.59 60.58,18.78 85.04,48.23 32.98,39.7 -0.57,48.41 48.29,74.61z"/>
  <path class="fil0" d="M183.39 567.94c-20.61,11.11 -16.41,7.39 -34.74,24.33l-28.91 28.61c-17.8,-37.98 -10.69,-29.22 -47.18,-49.33 25.75,-35.83 31.02,-24.68 50.03,-65.46 22.02,18.31 43.58,43.4 60.79,61.86zm-59.58 122.95c26.59,-18.37 10.08,-2.59 30.92,-43.67 36.63,-72.2 48.78,-37.48 100.58,-79.25 -33.64,-60.78 -50.13,13.22 -104.86,-100.32l-19.8 -27.35c-0.76,-3.66 -4.48,-3.28 -6.84,-4.73 -26.41,34.34 -23.25,59.99 -49.07,82.97 -41.26,36.72 -44.52,-1.59 -74.74,49.43 30.87,21.98 61.52,23.17 81.75,42.95 12.28,12 14.64,22.82 21.51,38.8l20.55 41.17z"/>
  <path class="fil1" d="M950.98 1423.83c36.83,23.74 12.94,2.4 18.89,56.55 10.16,92.55 -14.9,34.27 29.76,56.41 34.89,-20.11 28.53,4.22 29.36,-68.06 0.26,-22.8 -2.57,-50.24 -4.78,-73.06 -47.1,-4.21 -95.91,-9.74 -137.99,7.36 -13.5,138.94 -0.85,133.07 50.03,133.39l14.73 -112.6z"/>
  <path class="fil1" d="M658.56 1421.68c38.74,25.06 15.55,51.28 26.83,114.42l34.48 -0.47c27.98,-30.14 18.74,-79.68 13.85,-141.11l-138.18 -0.87c-8.76,155 -10.25,141.41 50.77,142.82l12.26 -114.79z"/>
  <path class="fil0" d="M979.54 657.76l-50.41 -6.8c3.58,-58.65 44.79,-69.77 50.41,6.8zm-70.5 -70.61c-20.85,72.69 -11.61,111.92 76.26,99.12l20.89 -24.25c13.74,-80 -40.39,-112.44 -97.15,-74.87z"/>
  <path class="fil0" d="M659.04 607.73c29.93,10.13 22.78,3.43 34.84,33.2 -30.83,25.02 -16.8,24.23 -55.73,9.94 4.58,-42.98 -8.47,-17.8 20.89,-43.14zm-40.66 -19.41l-9.57 75.5 27.68 21.9c84.58,11.05 94.56,-25.22 75.34,-97.67 -25.99,-8.21 -68.31,-18.75 -93.44,0.26z"/>
  <path class="fil4" d="M800.03 709.94c-26.61,57.04 -31.77,40.35 4.98,112.96 28.4,-21.31 64.31,-73.13 -4.98,-112.96z"/>
  <path class="fil1" d="M803.04 556.56l62.54 -61.17 -110.48 -0.81c18.92,21.08 34.1,35.44 47.93,61.98z"/>
 </g>
</svg>
