<?xml version="1.0" encoding="UTF-8"?>
<!DOCTYPE svg PUBLIC "-//W3C//DTD SVG 1.1//EN" "http://www.w3.org/Graphics/SVG/1.1/DTD/svg11.dtd">
<!-- Creator: CorelDRAW -->
<svg xmlns="http://www.w3.org/2000/svg" xml:space="preserve" width="100%" height="100%" version="1.1" style="shape-rendering:geometricPrecision; text-rendering:geometricPrecision; image-rendering:optimizeQuality; fill-rule:evenodd; clip-rule:evenodd"
viewBox="0 0 1683.1 1483.11"
 xmlns:xlink="http://www.w3.org/1999/xlink"
 xmlns:xodm="http://www.corel.com/coreldraw/odm/2003">
 <defs>
  <style type="text/css">
   <![CDATA[
    .fil0 {fill:#5562A4}
    .fil2 {fill:#ED8453}
    .fil1 {fill:#F3A974}
   ]]>
  </style>
 </defs>
 <g id="Layer_x0020_1">
  <metadata id="CorelCorpID_0Corel-Layer"/>
  <path class="fil0" d="M785.16 1094.33l13.04 -194.51 482.01 -340.16c-109.56,86.35 -332.61,317.96 -421.15,458.86 -42.9,68.28 -34.59,51.51 -73.9,75.81zm575.59 133.62l-345.89 -257.49c-25.4,-26.33 -6.79,0.07 -26.69,-33.53 23.34,-35.89 540.82,-560.2 633.94,-608.4 -15.82,114.31 -219.79,843.94 -261.37,899.42zm-1035.28 -479.52l1071.18 -372.44c-0.87,44.9 -536.11,410.23 -587.48,448.19 -73.44,54.27 -58.01,56.08 -162.88,25.57 -90.42,-26.31 -246.83,-66.31 -320.81,-101.32zm-135.99 -82.47c-99.17,-115.17 -33.62,-202.64 15.16,-283.02 48.57,-80.04 -4.38,-59.06 16.61,-167.36 10.76,-55.54 47.6,-95.68 79.44,-119.4 131.79,-98.19 217.58,3.08 283.06,45.91 83.06,54.33 192.95,-40.96 288.8,93.64 49.3,69.23 10.96,73.27 93.76,114.81 71.77,36.01 49.99,19.92 111.67,65.85 -180.39,81.33 -406.99,150.85 -604.53,217.25 -117.61,39.53 -216.92,110.17 -283.96,32.32zm545.45 270.97c2.81,103.4 -59.52,285.19 -15.38,365.48 102.33,48.53 231.16,-170.72 348.84,-218.76 71.5,50.83 243.5,207.6 324.01,211.3 49.19,-58.31 314.88,-949.55 288.91,-1044.15 -93.66,-25.23 -410.6,112.89 -521.56,145.32 -58.65,-40.31 -42.31,-46.19 -110.37,-80.14 -90.95,-45.37 -51.72,1.91 -100.64,-81.18 -58.2,-98.86 -95.94,-132.42 -246.13,-140.98 -151.31,-8.62 -122.15,-99.97 -291.84,-93.51 -257.97,9.82 -242.52,259.28 -251.66,313.71 -12.03,71.61 -42.23,74.63 -62.59,142.65 -111.85,373.78 461.72,386.86 638.4,480.24z"/>
  <path class="fil1" d="M1360.76 1227.95c41.58,-55.48 245.55,-785.1 261.37,-899.42 -93.12,48.2 -610.61,572.51 -633.94,608.4 19.89,33.61 1.29,7.2 26.69,33.53l345.89 257.49z"/>
  <path class="fil1" d="M565.37 717.65c55.67,-73.82 81.46,-34.23 188.97,-78.67 20.74,-8.57 -0.35,-5.5 40.66,-15.49 2.46,-0.6 71.28,-6.45 80.46,-6.04l-35.13 36.49c-2.63,2.15 -7.13,5.77 -9.94,7.88l-20.19 15.28c-41.78,24.51 -10.74,3.53 -50.31,20.1 -89.88,37.66 -155.87,116.94 -194.52,20.45zm-239.89 30.79c73.98,35.01 230.39,75.02 320.81,101.32 104.87,30.51 89.44,28.7 162.88,-25.57 51.37,-37.96 586.61,-403.29 587.48,-448.19l-1071.18 372.44z"/>
  <path class="fil0" d="M628.14 1379.8c-67.48,48.06 -553.53,117.7 -570.5,-44.29 -8.91,-85.08 49.79,-92.21 104.66,-135.68 100.22,-79.38 -2.41,-78.58 174.65,-112.44 73.9,-14.13 17.37,0.73 58.17,-18.32 38.73,-18.09 29.63,-34.18 87.13,-33.85 80.87,0.46 97.4,49.72 110.11,121.26 29.15,164.09 59.64,82.76 35.78,223.33zm-198.48 -393.8l-225.33 74.03 -164.05 146.62c-44.75,51.73 -55.63,142.71 -15.14,206.63 49.83,78.69 122.29,65.26 239.02,64.61 177.68,-1 443.8,54.48 427.96,-174.61 -0.19,-2.79 -62.8,-230.28 -65.42,-235.24 -31.61,-59.94 -109.41,-108.18 -197.04,-82.05z"/>
  <path class="fil2" d="M785.16 1094.33c39.3,-24.3 31,-7.53 73.9,-75.81 88.54,-140.9 311.58,-372.51 421.15,-458.86l-482.01 340.16 -13.04 194.51z"/>
 </g>
</svg>
