<?xml version="1.0" encoding="UTF-8"?>
<!DOCTYPE svg PUBLIC "-//W3C//DTD SVG 1.1//EN" "http://www.w3.org/Graphics/SVG/1.1/DTD/svg11.dtd">
<!-- Creator: CorelDRAW -->
<svg xmlns="http://www.w3.org/2000/svg" xml:space="preserve" width="100%" height="100%" version="1.1" style="shape-rendering:geometricPrecision; text-rendering:geometricPrecision; image-rendering:optimizeQuality; fill-rule:evenodd; clip-rule:evenodd"
viewBox="0 0 1672.57 879.89"
 xmlns:xlink="http://www.w3.org/1999/xlink"
 xmlns:xodm="http://www.corel.com/coreldraw/odm/2003">
 <defs>
  <style type="text/css">
   <![CDATA[
    .fil2 {fill:#404E57}
    .fil0 {fill:#63B4F5}
    .fil1 {fill:#ED5250}
   ]]>
  </style>
 </defs>
 <g id="Layer_x0020_1">
  <metadata id="CorelCorpID_0Corel-Layer"/>
  <path class="fil0" d="M1047.94 611.25c-20.87,-80.98 47.17,-168.9 100.07,-276.88 24.47,-49.95 42.15,-80.56 63.96,-127.98 109.43,-237.85 202.65,66.65 239.07,137.46 34.41,66.91 116.4,191.83 96.06,267.24 -82.86,56.31 -100.11,11.06 -146.4,-69.47l-205.96 4.72c-48.59,77.54 -60.41,119.24 -146.8,64.91zm-76.54 89.68c220.43,81.13 180.7,-101.64 315.37,145.43 57.53,-24.55 56.82,-81.91 106.24,-128.26 82.87,-3.22 163.75,8.45 231.34,-17.13 25.77,-98.19 11.56,-361.11 12.54,-485.06 1.69,-214.58 2.37,-176.33 -332.31,-176.32 -342.14,0.01 -347.6,-34.05 -345.76,162.5 1.15,123.24 -13.27,403.93 12.58,498.84z"/>
  <path class="fil1" d="M301.47 131.88c194.8,-60.78 372.06,118.63 321.19,314.72 -27.43,105.74 -22.54,32.25 -3.12,93.03 46.57,145.84 -117.17,74.95 -142.16,77.53 -92.34,9.54 -112.57,44.94 -220.15,-5.55 -197.34,-92.63 -205.41,-401.84 44.24,-479.74zm-187.62 -109.8c-102.73,85.16 -80.83,21.74 -80.83,303.74 0,101.78 -10.15,292.56 12.15,374.18 64.85,26.49 150.17,15.2 230.74,17.83 47.5,42.67 53.46,104.29 101.72,127.32 36.46,-42.52 54.5,-90.7 89.17,-127.09 82.54,-2.51 163.48,8.08 231.61,-16.18 22.49,-78.32 37.26,-580.98 -7.11,-633.56 -72.67,-90.52 -275.52,23 -317.77,-57.42 -25.99,13.15 -39.44,12.4 -53.74,7.66 -40.63,6.74 -83.2,7.69 -126.67,2.18 -12.08,-0.92 -23.61,-2.16 -34.93,-3.87 -11.72,2.54 -25.7,4.56 -44.33,5.2z"/>
  <path class="fil2" d="M971.41 700.93c-25.85,-94.91 -11.43,-375.6 -12.58,-498.84 -1.84,-196.56 3.62,-162.49 345.76,-162.5 334.68,-0.01 334,-38.26 332.31,176.32 -0.98,123.95 13.23,386.87 -12.54,485.06 -67.59,25.58 -148.47,13.91 -231.34,17.13 -49.42,46.35 -48.72,103.71 -106.24,128.26 -134.67,-247.07 -94.94,-64.3 -315.37,-145.43zm430.85 52.51c309.99,-13.42 268.45,47.97 268.46,-427.63 0,-386.61 14.75,-321.72 -379.86,-321.7 -395.93,0.01 -366.54,-54.86 -366.54,335.43 0,470.03 -34.92,397.2 268.76,414.38 85.72,168.69 125.82,167.37 209.19,-0.48z"/>
  <path class="fil2" d="M1080.77 601.1c-11.47,-50.96 128.81,-321.93 170.21,-397.34 32.11,-58.48 3.71,-33.46 53.61,-48.41 38.49,28.08 13.51,-1.87 39.37,48.93 8.18,16.07 15.89,37.46 25.5,56.12 39.93,77.52 162.68,288.55 141.09,335.43 -64.18,2.16 -49.58,-25.22 -87.44,-85.77l-250.75 -2.39c-40.31,66.43 -20.11,85.19 -91.59,93.44zm-32.83 10.15c86.39,54.33 98.21,12.62 146.8,-64.91l205.96 -4.72c46.29,80.54 63.54,125.78 146.4,69.47 20.34,-75.41 -61.65,-200.33 -96.06,-267.24 -36.42,-70.81 -129.64,-375.32 -239.07,-137.46 -21.82,47.43 -39.49,78.04 -63.96,127.98 -52.89,107.98 -120.94,195.9 -100.07,276.88z"/>
  <path class="fil2" d="M560.78 504.27c14.64,50.01 46.77,40.54 30.51,79.1 -19.31,45.78 -53.86,-0.92 -90.09,-16.9 -309.99,131.57 -446.46,-191.79 -288.43,-350.51 162.36,-163.07 491.54,7.88 348.02,288.31zm-259.31 -372.39c-249.65,77.9 -241.58,387.11 -44.24,479.74 107.57,50.49 127.8,15.09 220.15,5.55 24.99,-2.58 188.73,68.31 142.16,-77.53 -19.41,-60.78 -24.31,12.7 3.12,-93.03 50.87,-196.09 -126.39,-375.51 -321.19,-314.72z"/>
  <path class="fil1" d="M393.71 505.44c-36.66,-103.7 8.85,-142.47 101.07,-104.94 20.41,-144.34 -133.75,-190.19 -213.01,-115.59 -82.65,77.8 -32.48,217.98 111.94,220.54z"/>
  <path class="fil2" d="M393.71 505.44c-144.41,-2.56 -194.59,-142.74 -111.94,-220.54 79.26,-74.6 233.42,-28.75 213.01,115.59 -92.22,-37.53 -137.74,1.25 -101.07,104.94zm51.94 12.56c-16.48,-76.81 -32.09,-5.74 -29.28,-97.72 88.93,4.98 11.59,16.01 104.77,35.22 46.36,-224.17 -152.07,-310.2 -268.72,-185.8 -121.24,129.31 30.8,343.7 193.23,248.31z"/>
  <path class="fil2" d="M1302.56 341.7l28.39 67.2 -68.25 -3.02 39.86 -64.17zm-75.76 101.24l50.32 0.58 41.19 -0.1 50.33 -0.58c12.98,-54.8 -36.57,-142.35 -74.93,-165.99 -31.49,34.22 -79.91,111.05 -66.91,166.09z"/>
  <polygon class="fil0" points="1262.7,405.87 1330.95,408.9 1302.56,341.7 "/>
  <path class="fil2" d="M47.24 692.06c-25.28,-92.8 -11.17,-367.24 -12.3,-487.74 -1.8,-192.18 3.54,-158.87 338.06,-158.89 327.23,-0.01 326.56,-37.41 324.91,172.4 -0.96,121.19 12.93,378.26 -12.26,474.26 -66.09,25.01 -145.17,13.6 -226.19,16.75 -48.32,45.32 -47.63,101.41 -103.88,125.4 -131.67,-241.57 -92.82,-62.87 -308.35,-142.19zm421.26 51.34c303.09,-13.12 262.48,46.91 262.48,-418.11 0,-378 14.43,-314.56 -371.41,-314.54 -387.12,0.01 -358.38,-53.64 -358.38,327.96 0,459.57 -34.14,388.36 262.77,405.16 83.81,164.93 123.02,163.64 204.54,-0.47z"/>
 </g>
</svg>
