<?xml version="1.0" encoding="UTF-8"?>
<!DOCTYPE svg PUBLIC "-//W3C//DTD SVG 1.1//EN" "http://www.w3.org/Graphics/SVG/1.1/DTD/svg11.dtd">
<!-- Creator: CorelDRAW -->
<svg xmlns="http://www.w3.org/2000/svg" xml:space="preserve" width="100%" height="100%" version="1.1" style="shape-rendering:geometricPrecision; text-rendering:geometricPrecision; image-rendering:optimizeQuality; fill-rule:evenodd; clip-rule:evenodd"
viewBox="0 0 2028.38 1524.46"
 xmlns:xlink="http://www.w3.org/1999/xlink"
 xmlns:xodm="http://www.corel.com/coreldraw/odm/2003">
 <defs>
  <style type="text/css">
   <![CDATA[
    .fil0 {fill:#003399}
   ]]>
  </style>
 </defs>
 <g id="Layer_x0020_1">
  <metadata id="CorelCorpID_0Corel-Layer"/>
  <path class="fil0" d="M158.03 1262.67l-79.29 -71.94c17.67,-75.87 64.86,-106.31 108.47,-145.28 38.48,28.02 88.9,68.8 108.21,121.64 -55.52,43.64 -50.24,71.15 -137.39,95.57zm515.25 -694.06c22.59,-48.1 354.34,-354.33 439.56,-448.28 32.43,-35.76 92.59,-129.06 165.2,-65.12 85.72,75.48 -22.02,147.44 -59.39,184.63 -91.29,90.85 -377.56,391.82 -441.97,431.68l-103.41 -102.91zm93.71 -188.45c3.79,-54.68 24.94,-59.1 63.4,-96.93 43.98,-43.25 165.68,-192.53 215.37,-195.09l18.6 7.26c6.92,31.16 -26.98,50.7 -57.69,81.1 -51.49,50.98 -171.9,205.13 -239.69,203.66zm-273.59 335.38c67.49,-19.59 87.4,-85.56 151.89,-119.85l104.29 112.13 -411.14 412.57c-50.08,-18.69 -90.53,-62.95 -114.5,-106.72 35.3,-51.39 81.33,-63.8 92.35,-128 6.09,-23.43 81.99,-149.95 104.31,-189.52 115.09,-204.04 109.99,-70.4 164.35,-153.06 -122.2,-52.92 -187.22,124.98 -223.92,188.12 -29.47,50.7 -55.97,94.3 -84.37,144.9 -38.25,68.14 -51.48,102.53 -136.71,75.3 -27.39,-93.81 100.22,-257.68 173.96,-388.89 123.28,-219.34 245.52,-101.49 382.08,-209.7 -16.98,-14.94 32.4,-35.06 -123.42,9.92 -47.46,13.7 -88.17,22.74 -136.98,38.5 -129.12,41.69 -194.54,225.72 -295.24,392.53 -85.17,141.09 -38.9,148.28 19.86,207.7l14.49 17.34c-105.18,75.04 -183.61,225.89 -173.88,326.93 244.68,-13.66 323.53,-201.96 413.53,-249.91 72.46,103.92 80.76,79.36 229.33,79.08 190.96,-0.37 414.85,22.15 568.41,-51.35 53.61,-25.66 154.37,-82.59 172.59,-135.95 -99.89,11.7 -152.11,146.05 -390.05,153.47 -116.08,3.62 -445.69,14.39 -530.07,-15.5 -49.39,-184.3 190.77,-75.96 318.72,-121.04 49.76,-17.53 96.01,-66.88 108.87,-120.65 13.33,-55.78 15.64,-163.2 -5.63,-209.57 -113.04,75.51 165.24,341.05 -358.33,305.13l515.76 -523.37c89.57,-89.07 177.63,-171.38 263.52,-262.8 106.51,-113.37 -64.09,-296.69 -187.02,-119.56 -116.27,-24.7 -54.1,-68.57 -243.22,121.45 -32.14,32.29 -140.87,128.34 -144.64,160.75 -6.49,55.92 10.2,-1.91 23.88,82.7 -44.48,29.23 -250.01,223.48 -263.06,276.91z"/>
  <path class="fil0" d="M1451.34 541.63c0,-82.44 11.61,-99.91 96.2,-99.91l112.57 14.88c22.39,173.08 11,428.48 11,611.02 0,84.68 -8.72,103.01 -96.59,103.01 -102.6,0 -123.18,-0.24 -123.18,-103.01l0 -525.99zm570.99 634.94l-314.16 -6.69 -2.53 -727.31 313.1 -8.15c15.91,-10.85 6.86,1.74 8.83,-21.17 -108.43,-18.45 -262.87,-2.23 -361.96,2.01 -85.03,3.63 -242.01,-58.68 -248.89,112.41l-0.08 527.16c0.37,165.95 69.15,160.81 220.63,143.4 16.38,-1.88 239.83,17.53 382.43,4.22l2.63 -25.87z"/>
  <path class="fil0" d="M173.64 1368.09l450.5 9.56c-60.13,38.9 -210.58,76.53 -235.82,134.94 39.3,6.91 610.98,28.89 664.73,-13.38l-21.36 -8.74c-18.44,-4.2 -14.53,-4.57 -36.66,-6.34l-487.3 -0.63c29.67,-26.42 72.85,-41.84 113.54,-60.42 142.19,-64.93 99.82,-29.24 112.54,-72.22l-509.38 -10.07c-86.74,8.11 -21.28,8.78 -50.78,27.31z"/>
  <path class="fil0" d="M1383.96 487.69c-37.22,-40.44 -154.15,-107.21 -222.9,-104.5 11.07,40.16 97.73,72.17 161.73,101.15 44.19,20.01 29.57,22.8 61.17,3.35z"/>
  <path class="fil0" d="M358.31 850.31c47.89,-13.59 81.89,-47.24 95.14,-95.74 -35.45,9.32 -38.64,18.06 -59.24,36.84 -36.69,33.44 -31.13,9.63 -35.89,58.89z"/>
 </g>
</svg>
