<?xml version="1.0" encoding="UTF-8"?>
<!DOCTYPE svg PUBLIC "-//W3C//DTD SVG 1.1//EN" "http://www.w3.org/Graphics/SVG/1.1/DTD/svg11.dtd">
<!-- Creator: CorelDRAW -->
<svg xmlns="http://www.w3.org/2000/svg" xml:space="preserve" width="100%" height="100%" version="1.1" style="shape-rendering:geometricPrecision; text-rendering:geometricPrecision; image-rendering:optimizeQuality; fill-rule:evenodd; clip-rule:evenodd"
viewBox="0 0 5093.26 4625.64"
 xmlns:xlink="http://www.w3.org/1999/xlink"
 xmlns:xodm="http://www.corel.com/coreldraw/odm/2003">
 <defs>
  <style type="text/css">
   <![CDATA[
    .fil0 {fill:#003399}
   ]]>
  </style>
 </defs>
 <g id="Layer_x0020_1">
  <metadata id="CorelCorpID_0Corel-Layer"/>
  <path class="fil0" d="M2136.79 3941.83l815.87 -1.26c10.08,191.48 78.43,380.36 200.92,516.3 33.7,37.41 85.6,86.02 106.9,122.82l-1431.57 0.54c39.27,-68.78 112.97,-102.15 204.15,-262.93 60.37,-106.45 96.81,-240.65 103.74,-375.47zm1776.2 -0.41c68.41,-3.44 186.65,-17.5 244.45,14.01 24.34,61.78 17.59,545.04 1.82,615.83 -43.76,9.46 -101.94,7.22 -154.99,8.06l-124.33 2.61c-29.85,-6.44 -17.08,-2.15 -34.28,-14.53 -36.25,-50.73 -17.09,-259.8 -17.09,-346.61 0,-60.92 -0.97,-122.01 -1.01,-182.78 -0.06,-84.67 -1.98,-93.13 85.43,-96.59zm-3748.8 638.04c-134.59,-57.65 -93.31,-235.71 -93.31,-484.37 0,-231.13 -61.85,-393.19 189.94,-392.42l881 -0.18c105.85,0.74 158.15,27.69 171.32,129.39l-0.79 607.52c-91.26,-0.01 -276.89,-29.7 -336.02,18.82 34.64,38.72 226.54,18.64 331.36,22.77 -29.74,108.69 -79.71,100.02 -208.25,99.31l-935.24 -0.84zm1144.23 0.57c82.13,-139.52 44.59,-450.82 44.92,-639.92l742.2 -3.57c-12.53,286.3 -125.43,437.66 -287.76,601.98 -45.82,46.38 -47.63,43.04 -135.2,42.27 -121.38,-1.06 -242.76,-0.37 -364.16,-0.76zm2478.5 -0.41c-86.72,1.43 -431.61,25.96 -491.59,-26.99 -165.67,-146.26 -289.74,-347.08 -301.48,-615.91l799.22 0.18 -6.16 642.72zm-3384.12 -915.8l-56.88 -2.49 -0.62 -139.44 70.79 -1.63 3934.13 -1.38c11.61,119.43 2.57,120.43 -44.57,206.9 -33.78,61.97 -52.41,116.43 -88.91,171.11l-2861.44 1.02c-19.73,-267.4 -102.92,-233.58 -353.87,-233.55 -198.8,0.02 -400.2,3.06 -598.63,-0.53zm4205.97 -139.19l137.68 -6.24c-0.35,130.5 7.17,185.27 -27.72,299.54l-127.18 0.49c14.55,-117.32 30.37,-172.39 17.22,-293.78zm-221.74 -121.24c276.6,-51.93 160.55,379.63 164.68,451.39 144.17,16.88 380.96,-28.78 488.07,26.15l4.89 106c-125.02,50.75 -207.05,-4.49 -275.46,38.34 62.22,85.33 305.86,-64.1 229.9,157.09 -61.02,22.29 -246.07,-4.81 -285.02,38.43 19.27,14.68 0.79,7.28 32.51,15.17 51.22,12.72 90.19,0.21 135.59,5.08 82.98,8.89 151.13,151.86 -67.61,147.92 -16.44,-0.3 -73.52,-3.2 -85.56,-1.63 -75.19,9.78 -34.25,-12.1 -53.56,33.96 63.26,24.48 180.45,-21.62 205.81,56.48 35.2,108.39 -76.11,102.78 -150.36,102.15 -171.15,-1.45 -366.61,16.98 -522.57,-19.05 1.1,-164.17 -29.6,-512.87 40.55,-640.64 263.92,-480.73 92.13,-291.11 138.13,-516.85zm-3837.17 -2444.24l193.42 0.38c16.39,119.09 4.4,1801.79 4,2102.32 -0.23,170.74 24.77,112.5 62.58,213.48l-262.78 -2.1 2.79 -2314.07zm3776.18 2314.04c88.44,-152.55 60.87,-178.66 60.87,-421.08l0.23 -1423.05 155.13 -2.15 -0.13 1848.81 -216.11 -2.53zm-51.73 -1891.88c185.33,-138.93 487.08,-206.59 769.52,-194.48 -0.05,88 16.37,128.08 -34.07,186.21 -52.99,24.41 -646.28,21.51 -735.44,8.28zm-185.1 -35.03c-30.76,-20.22 -22.56,-293.03 -10.05,-345.21 167.55,-21.5 375.7,7.89 480.47,105.4 44.34,18.09 60.89,37.17 86.35,72.28 -111.09,34.9 -194.58,59.77 -292.48,109.09 -138.54,69.78 -198.34,153.73 -264.28,58.45zm-17.63 -386.15c-0.65,-281.13 -36.64,-354.2 112.42,-354.2 919.09,0 860.59,-63.77 859.81,207.02 -0.31,108.8 1.44,218.31 -0.6,326.98 -63.1,11 -210.79,11.98 -288.79,18.98 -144.56,12.98 -186.95,-246.54 -682.83,-198.78zm-3667.8 2521.93l-57.87 -2.41c-12.29,-760.61 -0.56,-1574.73 -0.61,-2345.39 -0.03,-387.52 18.39,-366.17 388.07,-378.19 29.93,39.87 15.16,110.63 15.24,161.53l-231.29 7.17c-23.28,88.43 -25.97,2219.03 -4.9,2388.72l4069.51 -0.24 0.27 -1885.83 164.15 -1.89 -0.73 2056.66 -126.92 -0.91c-71.89,-24.8 -60.04,-99.56 -146.32,-120.25 -117.7,-28.23 -135.04,21.8 -128.47,121.31l-3940.13 -0.27zm384.52 -2989.46l-0.29 -101.82c189.6,0.39 3464.88,-17.37 3558.05,8.83 0,26.32 3.32,69.48 1.95,92.72 -4.81,81.8 6.48,38.76 -22.54,68.58 -53.78,8.67 -122.31,-0.52 -180.01,5.09 -91.83,8.93 -96.97,64.68 -127.32,72.06 -232.77,0 -465.54,0 -698.31,0 -95.18,0 -626.35,-24.28 -667.5,21.35 64.62,54.35 1189.08,15.02 1377.04,20.13l0.31 144.56c-182.91,5.43 -1311.14,-27.99 -1376.67,16.88 20.22,35.83 -5.85,22.72 64.67,25.96 355.45,16.31 915.91,-16.27 1313.38,0.22l0 143.1 -1326.65 0.72c-63.42,6.67 -30.48,-10.88 -51.44,25.53 63.79,44.44 1194.64,11.82 1378.06,17.16l-4.37 144.54c-185.93,5.08 -1307.9,-35.03 -1374.39,19.87 31.34,34.89 84.24,21.85 150.64,21.44 324.92,-2.06 962.2,-11.8 1223.07,2.56l25.9 143.81c-194.96,1.96 -1322.06,-18.22 -1401.05,9.13 18.26,45.09 -4.14,32.55 80.77,33.51 36.23,0.41 76.29,-1.6 113.37,-1.66l1499.79 0.62 0.57 1550.35c0.3,205.09 9.65,297.75 -215.19,297.22l-3058.89 -0.41c-223.01,0.56 -284.59,-4.87 -283.23,-240.88l0.27 -2541.15zm2.37 -326.99c40.32,-156.73 197.27,-123.35 350.43,-123.33l2849.12 0c164.18,-0.01 304.71,-33.67 350.71,119.39l2.94 188.92 -3555.07 0.1 1.87 -185.07zm-43.69 547.39c-533.97,33.39 -442.74,-66.19 -442.74,1245.28 0,567.92 2.96,1136.63 -0.22,1704.45 -352.78,2.93 -270.18,100.23 -273.65,697.78 -0.33,56.74 -6.32,107.63 14.79,160.14l37.17 99.96 4885.91 0.19c-15.73,-46.33 23.03,-34.93 -56.72,-40.63 20.78,-80.72 25.64,-70.48 -2.69,-153.67 96.55,-25.57 107.33,-93.66 68.56,-195.79 93.54,-27.76 92.59,-103.98 50.53,-189.7 64.18,-38.72 95.88,-143.24 25.29,-198.74 -52.71,-41.44 -205.96,-14.92 -289.23,-29.28 44.7,-132.07 18.07,-2075.06 21.66,-2385.89 355.63,-2.37 295.68,47.47 298.94,-628.06 1.04,-215.78 -14.55,-234.88 -228.33,-234.02 -113.48,0.46 -372.54,13.04 -469.24,-6.6 -1.36,-620.27 52.53,-556.56 -662.13,-556.56l-2458.07 0c-610.32,0 -506.05,-38.34 -519.81,711.13z"/>
  <path class="fil0" d="M1807.71 2451.76c49.72,-133.91 -1.96,-55.3 200.03,-213.43 40.63,-31.81 73.55,-58.39 117.34,-91.98 123.13,-94.44 153.7,-90.91 259.56,-7.08 36.87,29.2 72.23,57.28 109.59,85.82 37.43,28.6 85.2,58.88 120.31,89.51 63.23,55.17 21.21,75.46 90.75,102.44 81,-14.04 34.95,-31.76 91.04,-87.67l482.09 -370.45c32.59,-24.15 62.17,-45.35 95.76,-71.98 42.43,-33.63 58.74,-51.92 105.42,-70.38l0.4 91.85 -0.11 680.91 -1691.68 -5.35c-0.02,-19.54 -2.8,-65.17 -0.81,-81.31 8.12,-66.2 -6.84,-25.69 20.3,-50.91zm-878.29 -806.37l3268.82 1.81 0.01 940.87c-137.24,3.44 -571.42,9.69 -678.23,-4.15l-0.97 -696.59c2.98,-118.91 59.07,-61.1 25.07,-167.3 -127.93,-40.13 -44.26,26.86 -159.26,107.72 -57.67,40.54 -100.62,79.66 -157.91,121.35 -597.94,435.26 -416.43,467.55 -846.22,138.09 -42.42,-32.52 -37.76,-26.1 -69.25,-70.96 -79.65,-113.5 -114.77,11.78 -130.89,32.46l-187.06 147.54c-49.75,36.85 -82.22,63.99 -124.76,98.34 -76.88,62.09 -92.26,29.33 -152.07,69.45 -14.28,131.59 31.62,-35.2 31.46,225.4l-818.75 -0.21 0.01 -943.82zm-39.9 978.69c141.81,22.56 2730.21,6.23 3240.83,7.05l103.23 -13.42 5.45 -1003.59c-69.89,-18.67 -3184.19,-28.23 -3346.96,-3.38l-2.56 1013.34z"/>
  <path class="fil0" d="M891.2 2824.16c33.6,44.63 333.14,22.67 389.54,22.67l2555.83 0.81c93.87,0 357.3,33.51 400.6,-23.48 -49.78,-40.24 -1494.87,-17.89 -1671.53,-17.89 -198.65,-0 -1619.31,-23.95 -1674.44,17.89z"/>
  <path class="fil0" d="M891.54 3047.62c52.69,36.67 3053.23,16.78 3294.19,16.78 45.03,0 26.22,1.8 51.19,-16.78 -21.37,-33.87 0.3,-24.74 -65.15,-24.74l-3114.53 0.67c-46.41,-0.19 -161.65,-17.51 -165.7,24.07z"/>
  <path class="fil0" d="M1415.36 1423.67c182.05,0.59 151.45,36.02 151.44,-247.53 -0.01,-195.01 42.56,-396.13 -50.15,-413.1l-149.42 0.65 45.26 -6.19 2.87 666.17z"/>
  <path class="fil0" d="M2257.92 1423.5l-55.17 -9.93c-14.35,-75.01 -14.51,-762.85 0.75,-835.98l54.34 -2.04c55.68,-0.28 102.95,-6.17 144.83,10.24 26.06,83.66 7.96,378.74 7.96,492.59 0,413.58 30.82,346.61 -152.72,345.12zm-102.82 -792.05l0 726.25c0,124.96 60.01,106.58 201.05,106.58 49.01,0 52.13,-5.25 85,-19.68 26.55,-188.04 10.36,-601.22 10.04,-813.15 -0.17,-113.74 -43.85,-96.49 -192.8,-96.49 -81.46,0 -103.29,10.88 -103.29,96.49z"/>
  <path class="fil0" d="M1367.24 763.69l149.42 -0.65c92.7,16.97 50.13,218.09 50.15,413.1 0.01,283.55 30.61,248.12 -151.44,247.53 -89.1,2.18 -67.59,-23.63 -66.07,-121.37 1.49,-95.63 -21.04,-470.89 17.94,-538.61zm-56.02 63.3c0,185.71 -8.78,440.85 8.51,617.86 69.3,28.26 93.09,19.44 184.48,19.44 80.94,0 103.11,-22.96 103.11,-106.58l0 -530.72c0,-122.06 -60.96,-105.57 -186.9,-105.57 -93.17,0 -109.19,10.18 -109.19,105.57z"/>
  <path class="fil0" d="M1839.33 864.57c22.02,0.5 48.96,-1.44 69.66,-0.54l75.59 17.14c12.46,68.35 3.58,304.25 4.48,406.92 0.62,70.83 12.7,117.51 -30.83,130.1l-76.9 6.98c-106.8,0.57 -85.16,-0.73 -95.01,-20.25l-13.54 -46.15c-1.41,-17.93 0.23,-51.15 0.4,-70.63l4.36 -407.4c3.41,-2.27 7.37,-6.05 10.04,-7.09l51.74 -9.09zm-96.13 576.81c2.02,0 66.44,23.35 123.65,23.46 49.28,0.09 100.63,-1.43 140.14,-10.8 30.53,-62.17 33.07,-447.93 22.49,-555.78 -8.46,-86.19 -56.96,-74.35 -133.89,-74.42 -203.72,-0.2 -162.36,30.68 -162.25,226.6 0.06,106.28 -10.34,304.17 9.86,390.94z"/>
  <path class="fil0" d="M542.02 3926.56c54.36,-35.62 92.91,6.48 132.39,34.8 254.91,182.88 292.91,168.4 -35.52,386.24 -166.5,110.44 -137.55,-174.35 -130.61,-337.42 3.94,-92.68 25.8,-77.32 33.75,-83.63zm-5.57 -47.62c-73.4,30.43 -68.57,84.77 -68.12,174.08 0.37,74.2 -6.24,182.31 0.94,252.12 7.11,69.19 58.8,122.61 136,106.52 37.72,-7.86 119.07,-76.12 151.94,-99.71 275.27,-197.55 162.26,-215.44 -45.26,-374.35 -46.64,-35.72 -103.26,-88.61 -175.5,-58.66z"/>
  <path class="fil0" d="M2257.92 1423.5l-0.07 -847.96 -54.34 2.04c-15.26,73.13 -15.11,760.97 -0.75,835.98l55.17 9.93z"/>
  <path class="fil0" d="M990.39 1130.48l150.41 4.04c6.77,53.49 4.76,99.7 5.18,153.38l-10.91 121.87c-0.63,-1.9 -3.04,7.98 -5,11.76l-185.74 -3.42c-3.15,-5.53 -14.06,4.93 -16.32,-73.57l6.05 -209.39 56.33 -4.67zm-101.15 59.63l8.2 257.91c69.61,23.67 102.78,16.26 187.33,16.26 126.6,0 101.07,-40.91 101.07,-274.17 0,-35.11 -6.58,-61.35 -14.97,-85.67 -59.76,-19.75 -118.54,-14.37 -183.43,-14.37 -80.5,0 -98.21,20.59 -98.21,100.04z"/>
  <path class="fil0" d="M3000.58 198.5c23.29,18.87 -0.54,18.08 53.88,18.08l977.64 0c52.1,0 29.85,0.01 52.84,-18.08 -24.89,-29.98 -7.48,-22.17 -66.81,-22.17l-977.64 0c-27.95,0 -37.48,0.74 -39.91,22.17z"/>
  <path class="fil0" d="M1786.31 1404.93l53.1 -3.65 -0.09 -536.71 -51.74 9.09c-2.67,1.04 -6.63,4.82 -10.04,7.09l-4.36 407.4c-0.17,19.48 -1.81,52.7 -0.4,70.63l13.54 46.15z"/>
  <path class="fil0" d="M2141.85 4360.45c54.96,38.51 599.95,18.86 703.57,19.43 105.2,0.58 81.92,-8.33 95.23,-19.43 -17.82,-15.66 4.4,-8.49 -27.72,-16.59l-151.75 -3.07c-82.94,0.07 -564.15,-20.88 -619.32,19.66z"/>
  <path class="fil0" d="M4758.42 855.83c-7.95,-43.94 -36.06,-92.65 5.36,-135.11 37.27,-38.21 98.09,-21.11 131.66,3.74 80.94,123.61 -32.52,171.49 -137.02,131.37zm18.72 -183.11c-68.57,30.59 -102.9,89.22 -64.78,172.47 26.55,57.98 112.23,96.53 187.42,53.76 124.09,-70.57 46.04,-301.51 -122.64,-226.24z"/>
  <path class="fil0" d="M2493.16 3751.31c-25.95,-145.58 129.64,-139.02 104.12,0.97 -52.95,21.39 -52.19,21.01 -104.12,-0.97zm-17.19 39.7c186.69,52.58 200.7,-108.32 123.2,-162.69 -91.12,-63.92 -190.2,37.01 -123.2,162.69z"/>
  <path class="fil0" d="M4063.59 4475.62c-74.83,39.39 -88.08,-30.45 -59.17,-59.07 27.94,-27.67 94.64,-12.81 59.17,59.07zm31.33 42.83c57.65,-118.48 -30.3,-203.33 -114.99,-140.68 -64.27,47.54 -46.93,183.03 114.99,140.68z"/>
  <path class="fil0" d="M1644.86 198.51c3.47,15.82 -0.18,10.3 -2.59,31.79l-66.3 -5.09 10.09 -64.14 46.04 5.96c9.88,16.54 2.75,-14.05 12.75,31.49zm-3.07 -77.96l-65.31 0.05c-170.91,107.54 138.96,273.09 107.06,34.63 -23.23,-25.56 -10.66,-15.79 -41.75,-34.68z"/>
  <path class="fil0" d="M1352.78 235.28c-16.06,-2.33 -24.37,-10.33 -29.3,-25.28 -18.02,-54.67 9.99,-40.83 11.13,-48.97l45.69 6.58c0.52,0.87 34.19,7.06 6.61,51.8 -4.08,6.61 -21.08,17.76 -34.13,15.87zm37.48 -114.61l-65.45 -0.22c-171.5,107.04 139,272.86 106.82,35.68 -21.89,-24.63 -12.19,-17.07 -41.37,-35.45z"/>
  <path class="fil0" d="M1101.3 235.3c-16.7,-2.38 -24.29,-9.98 -29.33,-25.23 -17.59,-53.2 10.03,-41.49 10.98,-49.21l45.77 6.83c0.19,0.31 34.43,6.52 6.65,51.68 -3.98,6.48 -21.12,17.78 -34.07,15.93zm37.28 -114.78l-65.45 0.01c-30.69,18.72 -18.66,9.37 -41.42,34.84 -23.73,166.37 170.94,165.29 148.3,1.04 -22.39,-25.25 -12.03,-16.77 -41.43,-35.89z"/>
  <polygon class="fil0" points="402.8,3663.81 416.08,3520.25 345.29,3521.88 345.91,3661.33 "/>
  <path class="fil0" d="M914.52 690.68c51.08,-13.26 161.33,-122.7 173.19,-173.08 -64.61,8.11 -62.06,26.09 -103.82,68.36 -42.11,42.63 -59.78,39.61 -69.37,104.72z"/>
  <path class="fil0" d="M2593.13 198.5c21.7,16.04 -26.32,8.49 41.8,18.22 45.69,6.52 160.92,5.86 189.44,-18.22 -29.8,-34.67 -40.33,-22.52 -104.82,-22.39 -177.7,0.37 -98.2,8.9 -126.42,22.39z"/>
  <path class="fil0" d="M1004.11 712.15c52.39,-5.11 101.2,-51.57 104.7,-104.52 -47.66,1.3 -102.06,56.26 -104.7,104.52z"/>
  <path class="fil0" d="M4989.92 4597.88c26.54,30.65 31.08,42.28 60.81,0 -12.76,-9.22 19.15,-17.22 -28.3,-13.63 -29.3,2.22 -16.81,4.01 -32.5,13.63z"/>
  <path class="fil0" d="M39.2 4583.02l-39.2 3.49c12.16,52.81 25.56,52.66 39.2,-3.49z"/>
  <path class="fil0" d="M876.48 4458.22c21.06,17.5 13.64,24.79 48.12,0 -17.56,-10.92 -2.17,-8.81 -30.45,-11.12 -63.98,-5.22 8.71,-8.94 -17.67,11.12z"/>
  <path class="fil0" d="M2136.79 3941.83l815.87 -1.26c10.08,191.48 78.43,380.36 200.92,516.3 33.7,37.41 85.6,86.02 106.9,122.82l-1431.57 0.54c39.27,-68.78 112.97,-102.15 204.15,-262.93 60.37,-106.45 96.81,-240.65 103.74,-375.47zm1776.2 -0.41c68.41,-3.44 186.65,-17.5 244.45,14.01 24.34,61.78 17.59,545.04 1.82,615.83 -43.76,9.46 -101.94,7.22 -154.99,8.06l-124.33 2.61c-29.85,-6.44 -17.08,-2.15 -34.28,-14.53 -36.25,-50.73 -17.09,-259.8 -17.09,-346.61 0,-60.92 -0.97,-122.01 -1.01,-182.78 -0.06,-84.67 -1.98,-93.13 85.43,-96.59zm-3748.8 638.04c-134.59,-57.65 -93.31,-235.71 -93.31,-484.37 0,-231.13 -61.85,-393.19 189.94,-392.42l881 -0.18c105.85,0.74 158.15,27.69 171.32,129.39l-0.79 607.52c-91.26,-0.01 -276.89,-29.7 -336.02,18.82 34.64,38.72 226.54,18.64 331.36,22.77 -29.74,108.69 -79.71,100.02 -208.25,99.31l-935.24 -0.84zm1144.23 0.57c82.13,-139.52 44.59,-450.82 44.92,-639.92l742.2 -3.57c-12.53,286.3 -125.43,437.66 -287.76,601.98 -45.82,46.38 -47.63,43.04 -135.2,42.27 -121.38,-1.06 -242.76,-0.37 -364.16,-0.76zm2478.5 -0.41c-86.72,1.43 -431.61,25.96 -491.59,-26.99 -165.67,-146.26 -289.74,-347.08 -301.48,-615.91l799.22 0.18 -6.16 642.72zm-3384.12 -915.8l-56.88 -2.49 -0.62 -139.44 70.79 -1.63 3934.13 -1.38c11.61,119.43 2.57,120.43 -44.57,206.9 -33.78,61.97 -52.41,116.43 -88.91,171.11l-2861.44 1.02c-19.73,-267.4 -102.92,-233.58 -353.87,-233.55 -198.8,0.02 -400.2,3.06 -598.63,-0.53zm4205.97 -139.19l137.68 -6.24c-0.35,130.5 7.17,185.27 -27.72,299.54l-127.18 0.49c14.55,-117.32 30.37,-172.39 17.22,-293.78zm-221.74 -121.24c276.6,-51.93 160.55,379.63 164.68,451.39 144.17,16.88 380.96,-28.78 488.07,26.15l4.89 106c-125.02,50.75 -207.05,-4.49 -275.46,38.34 62.22,85.33 305.86,-64.1 229.9,157.09 -61.02,22.29 -246.07,-4.81 -285.02,38.43 19.27,14.68 0.79,7.28 32.51,15.17 51.22,12.72 90.19,0.21 135.59,5.08 82.98,8.89 151.13,151.86 -67.61,147.92 -16.44,-0.3 -73.52,-3.2 -85.56,-1.63 -75.19,9.78 -34.25,-12.1 -53.56,33.96 63.26,24.48 180.45,-21.62 205.81,56.48 35.2,108.39 -76.11,102.78 -150.36,102.15 -171.15,-1.45 -366.61,16.98 -522.57,-19.05 1.1,-164.17 -29.6,-512.87 40.55,-640.64 263.92,-480.73 92.13,-291.11 138.13,-516.85zm-3837.17 -2444.24l193.42 0.38c16.39,119.09 4.4,1801.79 4,2102.32 -0.23,170.74 24.77,112.5 62.58,213.48l-262.78 -2.1 2.79 -2314.07zm3776.18 2314.04c88.44,-152.55 60.87,-178.66 60.87,-421.08l0.23 -1423.05 155.13 -2.15 -0.13 1848.81 -216.11 -2.53zm-51.73 -1891.88c185.33,-138.93 487.08,-206.59 769.52,-194.48 -0.05,88 16.37,128.08 -34.07,186.21 -52.99,24.41 -646.28,21.51 -735.44,8.28zm-185.1 -35.03c-30.76,-20.22 -22.56,-293.03 -10.05,-345.21 167.55,-21.5 375.7,7.89 480.47,105.4 44.34,18.09 60.89,37.17 86.35,72.28 -111.09,34.9 -194.58,59.77 -292.48,109.09 -138.54,69.78 -198.34,153.73 -264.28,58.45zm-17.63 -386.15c-0.65,-281.13 -36.64,-354.2 112.42,-354.2 919.09,0 860.59,-63.77 859.81,207.02 -0.31,108.8 1.44,218.31 -0.6,326.98 -63.1,11 -210.79,11.98 -288.79,18.98 -144.56,12.98 -186.95,-246.54 -682.83,-198.78zm-3667.8 2521.93l-57.87 -2.41c-12.29,-760.61 -0.56,-1574.73 -0.61,-2345.39 -0.03,-387.52 18.39,-366.17 388.07,-378.19 29.93,39.87 15.16,110.63 15.24,161.53l-231.29 7.17c-23.28,88.43 -25.97,2219.03 -4.9,2388.72l4069.51 -0.24 0.27 -1885.83 164.15 -1.89 -0.73 2056.66 -126.92 -0.91c-71.89,-24.8 -60.04,-99.56 -146.32,-120.25 -117.7,-28.23 -135.04,21.8 -128.47,121.31l-3940.13 -0.27zm384.52 -2989.46l-0.29 -101.82c189.6,0.39 3464.88,-17.37 3558.05,8.83 0,26.32 3.32,69.48 1.95,92.72 -4.81,81.8 6.48,38.76 -22.54,68.58 -53.78,8.67 -122.31,-0.52 -180.01,5.09 -91.83,8.93 -96.97,64.68 -127.32,72.06 -232.77,0 -465.54,0 -698.31,0 -95.18,0 -626.35,-24.28 -667.5,21.35 64.62,54.35 1189.08,15.02 1377.04,20.13l0.31 144.56c-182.91,5.43 -1311.14,-27.99 -1376.67,16.88 20.22,35.83 -5.85,22.72 64.67,25.96 355.45,16.31 915.91,-16.27 1313.38,0.22l0 143.1 -1326.65 0.72c-63.42,6.67 -30.48,-10.88 -51.44,25.53 63.79,44.44 1194.64,11.82 1378.06,17.16l-4.37 144.54c-185.93,5.08 -1307.9,-35.03 -1374.39,19.87 31.34,34.89 84.24,21.85 150.64,21.44 324.92,-2.06 962.2,-11.8 1223.07,2.56l25.9 143.81c-194.96,1.96 -1322.06,-18.22 -1401.05,9.13 18.26,45.09 -4.14,32.55 80.77,33.51 36.23,0.41 76.29,-1.6 113.37,-1.66l1499.79 0.62 0.57 1550.35c0.3,205.09 9.65,297.75 -215.19,297.22l-3058.89 -0.41c-223.01,0.56 -284.59,-4.87 -283.23,-240.88l0.27 -2541.15zm2.37 -326.99c40.32,-156.73 197.27,-123.35 350.43,-123.33l2849.12 0c164.18,-0.01 304.71,-33.67 350.71,119.39l2.94 188.92 -3555.07 0.1 1.87 -185.07zm-43.69 547.39c-533.97,33.39 -442.74,-66.19 -442.74,1245.28 0,567.92 2.96,1136.63 -0.22,1704.45 -352.78,2.93 -270.18,100.23 -273.65,697.78 -0.33,56.74 -6.32,107.63 14.79,160.14l37.17 99.96 4885.91 0.19c-15.73,-46.33 23.03,-34.93 -56.72,-40.63 20.78,-80.72 25.64,-70.48 -2.69,-153.67 96.55,-25.57 107.33,-93.66 68.56,-195.79 93.54,-27.76 92.59,-103.98 50.53,-189.7 64.18,-38.72 95.88,-143.24 25.29,-198.74 -52.71,-41.44 -205.96,-14.92 -289.23,-29.28 44.7,-132.07 18.07,-2075.06 21.66,-2385.89 355.63,-2.37 295.68,47.47 298.94,-628.06 1.04,-215.78 -14.55,-234.88 -228.33,-234.02 -113.48,0.46 -372.54,13.04 -469.24,-6.6 -1.36,-620.27 52.53,-556.56 -662.13,-556.56l-2458.07 0c-610.32,0 -506.05,-38.34 -519.81,711.13z"/>
 </g>
</svg>
