<?xml version="1.0" encoding="UTF-8"?>
<!DOCTYPE svg PUBLIC "-//W3C//DTD SVG 1.1//EN" "http://www.w3.org/Graphics/SVG/1.1/DTD/svg11.dtd">
<!-- Creator: CorelDRAW -->
<svg xmlns="http://www.w3.org/2000/svg" xml:space="preserve" width="100%" height="100%" version="1.1" style="shape-rendering:geometricPrecision; text-rendering:geometricPrecision; image-rendering:optimizeQuality; fill-rule:evenodd; clip-rule:evenodd"
viewBox="0 0 1078.6 917.57"
 xmlns:xlink="http://www.w3.org/1999/xlink"
 xmlns:xodm="http://www.corel.com/coreldraw/odm/2003">
 <defs>
  <style type="text/css">
   <![CDATA[
    .fil1 {fill:#3E4D55}
    .fil3 {fill:#62B4F5}
    .fil2 {fill:#EA5250}
    .fil0 {fill:#FEC828}
   ]]>
  </style>
 </defs>
 <g id="Layer_x0020_1">
  <metadata id="CorelCorpID_0Corel-Layer"/>
  <path class="fil0" d="M225.49 492.32c184.07,-76.63 261.26,193.83 111.72,256.52 -172.35,72.25 -282.16,-185.57 -111.72,-256.52zm-163.17 292.39c84,-2.64 40.2,-26.68 112.16,15.31 63.85,37.26 45.85,9.85 62.35,87.22l87.6 -0.54c5.22,-27.99 1.85,-83.19 100.31,-107.75 71.78,-17.91 45.72,56.94 103.33,-56.41 -52.24,-88.98 -34.93,-24.32 -39.76,-153.76 31.17,-30.97 20.06,-8.83 41.7,-48.26l-38.55 -62.31c-60.79,-9.61 -25.54,29.8 -109.48,-18.83 -62.22,-36.04 -41.22,-11.04 -57.11,-87.05l-84.52 5.24c-32.46,72.9 7.67,41.8 -67.91,84.67 -73.96,41.95 -32.59,15.96 -105.51,12.44l-34.34 66.8c53.75,65.07 68.71,115.85 1.3,200.51l28.43 62.73z"/>
  <path class="fil1" d="M32.6 521.47l34.34 -66.8c72.92,3.52 31.55,29.51 105.51,-12.44 75.57,-42.87 35.44,-11.77 67.91,-84.67l84.52 -5.24c15.89,76.01 -5.12,51.01 57.11,87.05 83.94,48.63 48.69,9.21 109.48,18.83l38.55 62.31c-21.63,39.43 -10.53,17.29 -41.7,48.26 4.83,129.44 -12.48,64.78 39.76,153.76 -57.61,113.34 -31.55,38.5 -103.33,56.41 -98.46,24.56 -95.09,79.76 -100.31,107.75l-87.6 0.54c-16.5,-77.37 1.5,-49.96 -62.35,-87.22 -71.95,-41.99 -28.16,-17.95 -112.16,-15.31l-28.43 -62.73c67.42,-84.66 52.45,-135.44 -1.3,-200.51zm-22.54 -27.17c-31.56,82.54 20.17,25.13 31.81,110.46 17.19,126.03 -100.49,36.89 10.24,210.37 68.73,5.52 50.85,-21.47 108.33,10.3 54.18,29.94 33.69,30.73 57.06,90.28l126.31 -7.22c31.17,-62.67 -4.83,-49.58 59.26,-83.25 51.44,-27.02 47.14,-2.5 106.01,-12.13 116.05,-179.53 -17.07,-90.18 11.97,-219.54 19.91,-88.69 81.12,5.88 -7.72,-166.3 -61.57,-8.47 -104.57,15.08 -142.89,-35.95 -37.12,-49.43 -2.94,-70.67 -94.58,-69.52 -100.38,1.26 -44.62,25.23 -89.19,74.32 -40.84,45 -79.68,25.41 -138.85,28.96 -8.67,19.49 -30.7,50.75 -37.77,69.22z"/>
  <path class="fil2" d="M514.26 225.78c-14.26,-159.89 207.67,-159.26 216.1,-23.82 9.12,146.53 -204.71,151.52 -216.1,23.82zm-47.09 82.8c43.56,26.89 30.37,-9.42 88.93,27.33 66.45,41.71 -0.33,46.49 74.66,58.11 45.75,-9.62 -15.92,-45.39 107.18,-74.18 46.29,-10.82 0.78,19.12 42.43,-13.13 13.22,-74.98 -16.43,-10.09 -17.29,-92.99 -0.95,-91.94 46.88,-25.33 13.61,-96.57 -32,-36.05 -59.58,16.42 -114.31,-53.13 -16.09,-20.45 -9.8,-47.2 -50.27,-32.5 -39.73,14.44 -1,18.89 -52.22,52.8 -55.57,36.79 -120.37,-4.04 -94.06,69.07 48.36,134.39 -32.69,78.73 1.34,155.18z"/>
  <path class="fil1" d="M662.37 64.03c54.73,69.55 82.31,17.07 114.31,53.13 33.27,71.24 -14.56,4.63 -13.61,96.57 0.85,82.9 30.51,18.01 17.29,92.99 -41.65,32.26 3.86,2.31 -42.43,13.13 -123.09,28.78 -61.43,64.56 -107.18,74.18 -74.99,-11.63 -8.21,-16.4 -74.66,-58.11 -58.56,-36.75 -45.37,-0.45 -88.93,-27.33 -34.03,-76.45 47.02,-20.79 -1.34,-155.18 -26.31,-73.11 38.48,-32.28 94.06,-69.07 51.22,-33.91 12.5,-38.36 52.22,-52.8 40.47,-14.71 34.17,12.05 50.27,32.5zm-77.59 359.46l77.02 -2.38c28.23,-36.65 9.21,-51.98 65.58,-65.55 44.65,-10.75 55.29,9.06 80.36,-36.7 32.31,-58.96 2.76,-49.57 -8.19,-86.21 -15.02,-50.26 6.48,-54.8 23.09,-89.65 -59.06,-161.39 -78.77,14.88 -155.13,-142.99l-84.08 2.74c-36.99,40.75 -4.59,38.09 -44.54,60.19 -33.48,18.52 -37.05,4.27 -84.15,10.46l-32.69 69.59c76.33,134.5 -47.29,84.25 37.43,206.74 136.76,19.19 59.39,4.13 125.3,73.76z"/>
  <g id="_105553548524992">
   <path class="fil3" d="M796.98 683.76c34.47,-28.27 69.38,-66.36 101.98,-99.86 68.96,-70.87 112.47,-25.09 101.81,21.96 -4.79,21.11 -78.42,84.67 -94.42,100.78 -110.04,110.74 -99.22,126.05 -188.89,37.33 -24.95,-24.69 -52.21,-37.03 -45.4,-89.03 59.18,-65.88 74.13,8.87 124.92,28.83zm249.6 182.68c10.28,-19.47 5.31,-176.42 5.31,-211.5 0,-226.83 38.07,-197.32 -235.69,-197.33 -226.13,-0.01 -197.48,-36.76 -197.5,235.79 -0.01,228.91 -34.31,197.35 235.96,197.55 50.7,0.04 171.19,14.72 191.91,-24.5z"/>
   <path class="fil1" d="M1046.58 866.44c-20.72,39.22 -141.2,24.54 -191.91,24.5 -270.28,-0.19 -235.97,31.36 -235.96,-197.55 0.01,-272.54 -28.63,-235.8 197.5,-235.79 273.76,0.01 235.69,-29.5 235.69,197.33 -0,35.09 4.97,192.04 -5.31,211.5zm-448.85 0c16.66,66.45 111.23,49.04 189.63,49.15 309.76,0.44 289.31,30.24 289.26,-193.36 -0.01,-50.78 6.27,-198.23 -3.5,-238.06 -16.95,-69.05 -108.64,-51.25 -189.59,-51.23 -307.83,0.08 -289.64,-30.8 -289.57,193.15 0.02,51.68 -6.46,199.52 3.78,240.34z"/>
   <path class="fil1" d="M796.98 716.68c40.81,-21.31 65.35,-56.8 97.62,-89.03 10.37,-10.35 99.17,-99.35 79.95,-26.17 -5.68,21.63 -154.71,162.76 -177.57,174.88 -30.34,-9.24 -100.05,-74.35 -102.91,-96.18 -10.33,-78.73 76.83,23.04 102.91,36.5zm0 -32.92c-50.79,-19.96 -65.74,-94.71 -124.92,-28.83 -6.81,52 20.45,64.34 45.4,89.03 89.67,88.72 78.85,73.41 188.89,-37.33 16,-16.11 89.63,-79.67 94.42,-100.78 10.67,-47.05 -32.84,-92.83 -101.81,-21.96 -32.6,33.5 -67.51,71.59 -101.98,99.86z"/>
  </g>
  <path class="fil1" d="M250.19 515.8c137.17,-44.03 199.7,169.57 63.67,208.87 -139.67,40.35 -205.91,-163.22 -63.67,-208.87zm-24.7 -23.47c-170.44,70.96 -60.63,328.78 111.72,256.52 149.54,-62.69 72.35,-333.16 -111.72,-256.52z"/>
  <path class="fil1" d="M549.6 251.41c-18.93,-117.07 50.01,-130.69 133.72,-101.76 29.9,84.42 17.17,154.14 -100.81,132.92l-32.91 -31.16zm-35.34 -25.62c11.39,127.7 225.22,122.71 216.1,-23.82 -8.43,-135.44 -230.35,-136.06 -216.1,23.82z"/>
 </g>
</svg>
