<?xml version="1.0" encoding="UTF-8"?>
<!DOCTYPE svg PUBLIC "-//W3C//DTD SVG 1.1//EN" "http://www.w3.org/Graphics/SVG/1.1/DTD/svg11.dtd">
<!-- Creator: CorelDRAW -->
<svg xmlns="http://www.w3.org/2000/svg" xml:space="preserve" width="100%" height="100%" version="1.1" style="shape-rendering:geometricPrecision; text-rendering:geometricPrecision; image-rendering:optimizeQuality; fill-rule:evenodd; clip-rule:evenodd"
viewBox="0 0 1799.89 1314.31"
 xmlns:xlink="http://www.w3.org/1999/xlink"
 xmlns:xodm="http://www.corel.com/coreldraw/odm/2003">
 <defs>
  <style type="text/css">
   <![CDATA[
    .fil2 {fill:#5562A4}
    .fil1 {fill:#ED8453}
    .fil0 {fill:#F3A974}
    .fil3 {fill:white}
   ]]>
  </style>
 </defs>
 <g id="Layer_x0020_1">
  <metadata id="CorelCorpID_0Corel-Layer"/>
  <path class="fil0" d="M437.13 223.07c-81.94,-2.54 -84.44,-6.81 -89.13,-80.09 39.1,-36.57 153.33,-20.97 198.39,-0.3 -5.44,76.19 -14.3,83.32 -109.25,80.39zm-180.73 587.62c69.99,34.43 116.41,66.28 192.43,89.76 86.25,26.63 157.94,21.08 224.8,38.98 77.05,-13.41 51.61,-49.07 148.09,-59.45 50.68,-5.45 145.97,-2.25 200.52,-2.33 134.8,-0.2 268.94,-1.71 401.32,-6.89l-429.8 -8.67c201.2,-136.24 228.49,-216.62 313.37,-186.98 -138.61,-0.39 -292.7,-2.35 -431.06,-5.75 -117.99,-2.9 -341.35,57.48 -412.1,-48.98 26.87,-23.3 9.85,-13.97 47.81,-27.81 56.76,-20.69 719.3,-8.65 784.56,-8.65 -13.06,50.95 1.5,-32.95 32.37,-73.68 -306.54,-45.56 -742.58,34.04 -1037.26,-17.87 29.89,-85.76 -8.02,-45.3 70.78,-73.82l1002.71 19c9.45,-72.96 25.52,-126.11 27.58,-200.58 3.27,-118.35 -16.64,-129.66 31.99,-166.66l59.59 14.17c-208.63,-22.96 -962.17,-60.72 -1146.35,-1.83 -361.89,115.7 -355.09,634.11 -81.34,728.03z"/>
  <path class="fil1" d="M1423.57 870.78c176.27,-55.96 299.2,-160.24 319.39,-359.74 22.76,-225.01 -96.27,-332.81 -258.86,-426.54l-59.59 -14.17c-48.63,37 -28.72,48.31 -31.99,166.66 -2.06,74.47 -18.13,127.62 -27.58,200.58l-1002.71 -19c-78.8,28.53 -40.89,-11.93 -70.78,73.82 294.69,51.91 730.72,-27.69 1037.26,17.87 -30.86,40.73 -45.42,124.63 -32.37,73.68 -65.26,0 -727.8,-12.04 -784.56,8.65 -37.96,13.83 -20.94,4.51 -47.81,27.81 70.75,106.46 294.11,46.08 412.1,48.98 138.36,3.41 292.45,5.36 431.06,5.75 -84.88,-29.63 -112.16,50.74 -313.37,186.98l429.8 8.67z"/>
  <path class="fil2" d="M1423.57 870.78c-132.38,5.17 -266.53,6.69 -401.32,6.89 -54.55,0.08 -149.85,-3.13 -200.52,2.33 -96.49,10.38 -71.04,46.04 -148.09,59.45l-100.13 91.37c-37.74,26.33 -63.28,46.17 -105.1,77.58 -61.4,46.11 -146.52,96.35 -206.53,142.59l-5.47 -440.28c-273.75,-93.92 -280.55,-612.32 81.34,-728.03 184.18,-58.89 937.72,-21.13 1146.35,1.83 162.59,93.73 281.62,201.53 258.86,426.54 -20.18,199.5 -143.11,303.78 -319.39,359.74zm-1015.08 -857.52c-357.02,49.31 -502.91,419.13 -345.5,689.11 71.65,122.89 144.98,85.44 143.37,264.11 -3.91,430.56 -22.91,419.75 276.81,193.1 336.33,-254.35 277.15,-230.09 557.35,-229.34 267.2,0.71 476.28,18.33 629.46,-137.15 131.02,-132.99 183.32,-375.15 60.02,-569.45 -118.04,-186.01 -282.11,-216.28 -561.53,-216 -210.54,0.21 -570.14,-20.61 -759.98,5.61z"/>
  <path class="fil1" d="M673.63 939.44c-66.85,-17.91 -138.55,-12.35 -224.8,-38.98 -76.02,-23.48 -122.44,-55.33 -192.43,-89.76l5.47 440.28c60.01,-46.23 145.13,-96.47 206.53,-142.59 41.82,-31.41 67.36,-51.26 105.1,-77.58l100.13 -91.37z"/>
  <path class="fil3" d="M348 142.99c4.69,73.28 7.19,77.55 89.13,80.09 94.95,2.94 103.81,-4.2 109.25,-80.39 -45.06,-20.67 -159.29,-36.27 -198.39,0.3z"/>
 </g>
</svg>
