<?xml version="1.0" encoding="UTF-8"?>
<!DOCTYPE svg PUBLIC "-//W3C//DTD SVG 1.1//EN" "http://www.w3.org/Graphics/SVG/1.1/DTD/svg11.dtd">
<!-- Creator: CorelDRAW -->
<svg xmlns="http://www.w3.org/2000/svg" xml:space="preserve" width="100%" height="100%" version="1.1" style="shape-rendering:geometricPrecision; text-rendering:geometricPrecision; image-rendering:optimizeQuality; fill-rule:evenodd; clip-rule:evenodd"
viewBox="0 0 4447.29 3441.21"
 xmlns:xlink="http://www.w3.org/1999/xlink"
 xmlns:xodm="http://www.corel.com/coreldraw/odm/2003">
 <defs>
  <style type="text/css">
   <![CDATA[
    .fil0 {fill:#003399}
   ]]>
  </style>
 </defs>
 <g id="Layer_x0020_1">
  <metadata id="CorelCorpID_0Corel-Layer"/>
  <path class="fil0" d="M1004.82 2905.53c-18.08,-81.9 105.16,-105.59 113.66,-27.21 7.41,68.39 -98.31,96.73 -113.66,27.21zm-9.68 -998.65c-18.76,30.89 -31.11,41.28 -51.24,72.31 43.52,120.18 61.3,14.81 32.7,305.77l-8.33 55.39c-170.46,24.28 -536.04,-22.77 -652.63,58.77 -35.37,154.37 12.67,628.29 8.32,826.15 28.61,26.32 31.69,-56.82 23.71,50.79 -25.71,21.24 17.69,28.43 -119.62,28.43l99.57 -3.74c-3.73,69.73 -1.18,65.83 -25.24,90.02 68.22,76.07 581.62,39.48 732.39,39.48 130.59,0 663.32,22.41 733.16,-19.48l8.89 -108.33c12.43,-0.78 43.04,-3.91 56.95,-3.15 57.44,3.15 24.06,-3.87 57.69,16.21 -7.57,-29.41 -0.02,-15.21 -15.85,-30.98l-96.37 -1.2 -2.13 -50.09 7.85 -462.11c12.78,-81.68 15.87,-296.02 0.38,-375.74 -90.12,-57.32 -430.32,-48.79 -576.7,-52.32l-64.62 -2.74c-44.88,-278.34 -19.4,-245.72 24.6,-361.13 -20.46,-32.09 -32.12,-40.61 -51.88,-72.16 -39.08,-17.86 -82.62,-17.93 -121.59,-0.15z"/>
  <path class="fil0" d="M1208.63 2343.06c146.38,3.53 486.58,-5 576.7,52.32 15.49,79.72 12.39,294.07 -0.38,375.74 34.39,35.6 126.91,103.38 200.23,88.12 79.85,-16.61 101.96,-109.49 111.78,-185.43 18.93,-146.32 46.52,-419.48 30.48,-565.17l-7.16 -161.79 -160.81 -26.49 -51.21 181.46c-42.17,-139.32 -55.69,-240.4 -182.9,-284.85 -62.17,-21.72 -116.78,-35.37 -176.43,-54.02l-121.46 -43.31c-47.91,-8.04 -26.79,0.83 -37.06,4.65 -22.01,19.57 -96.03,474.29 -181.77,618.76z"/>
  <path class="fil0" d="M312.59 2812.91l2.88 148.76c-33.86,-27.06 -50.36,-60.63 -32.65,-108.77 30.02,-81.57 -5.47,-2.37 29.76,-39.99zm-311.37 175.5c29.76,114.39 184.36,233.98 322.74,236.87 4.35,-197.86 -43.69,-671.78 -8.32,-826.15 116.58,-81.54 482.17,-34.49 652.63,-58.77l8.33 -55.39c-7.25,48.3 8.41,80.91 -64.65,52.69 -30.29,-11.7 -29.64,-39.06 -41.01,-79.31 -15.69,-55.56 -40.48,-112.8 -56.91,-171.76l-92.44 -375.15c-26.95,5 -351.61,108.76 -382.85,128.39 -94.09,59.12 -119.83,208.48 -153.37,344.3 -44.81,181.46 -200.65,647.36 -184.14,804.3z"/>
  <path class="fil0" d="M487.8 598.41l18.49 190.83c51.3,-23.65 65.68,1.97 88.1,9.72l5.16 365c25.16,-27.09 22.31,-15.71 18.49,-125 -1.75,-50.05 -5.79,-108.33 -3.42,-157.59 3.19,-66.38 29.26,-214.24 51.38,-270.31 80.8,-42.74 98.41,-39.72 171.56,-97.3 45.61,-35.91 111.64,-110.28 154.39,-130.75 -1.96,84.2 -24.11,107.57 -44.15,168.88 102.08,-18.28 158.36,-105.66 229.13,-137.3l-27.21 109.52c70.27,-12.81 118.83,-49.97 170.07,-77.26 165.3,60.02 137.57,296.26 175.21,373.23 22.85,46.74 -16.08,-1.79 20.66,28.62 5.81,-55.5 16.95,-71.35 37.88,-104.87l54.93 2.34 16.9 -162.75c-16.43,-18.73 1.09,8.19 -20.07,-28.01 -2.21,-3.78 -8.09,-15.8 -10.06,-19.88 -6.94,-14.35 -10.43,-26.02 -16.76,-40.2 -36.94,-82.7 -87.39,-145.45 -158.93,-197.71 -101.4,-74.09 -221.24,-99.34 -370.89,-96.5 -209.92,3.98 -378.92,74.61 -481.39,241.34 -17.88,29.09 -24.31,41.39 -37.9,75.8l-41.58 80.15z"/>
  <path class="fil0" d="M493.3 377.36l-3.34 146.74c68.35,-131.06 85.39,-166.83 182.44,-247.02 229.09,-189.29 798.35,-154.63 904.87,169.28 32,-29.01 2.41,31.38 18.74,-48.25l-199.52 -262.94c-332.48,-250.37 -859.32,-63.07 -903.19,242.19z"/>
  <path class="fil0" d="M1959.47 1920.38l160.81 26.49 7.16 161.79c30.97,-50.27 11.57,-152.68 18.36,-172.22 37.04,-47.63 138.43,-118.34 144.4,-200.63 3.63,-50.03 -26.09,-99.23 -49.33,-122.37 -3.74,-3.73 -15.64,-13.94 -22.39,-20.06l-79.99 -63.09c-35.07,-90.46 27.32,-228.26 -6.21,-281.42 -70.89,-112.38 -74.79,168.64 -79.1,200.38 -17.54,128.94 -63.85,138.9 -103.07,219.91 -61.45,126.91 37.71,170.13 9.37,251.23z"/>
  <path class="fil0" d="M1515.67 848.7l20.88 275.08c29.14,41.43 1.58,18.98 41.06,36.24 3.95,1.82 10.33,0.1 12.05,5 1.48,4.2 8.67,3.28 10.52,3.84 1.42,0.43 6.88,1.97 8.24,2.35 1.06,0.3 4.38,0.8 6.57,1.17 103.57,3 69.72,-62.34 115.46,-117.91 -11.06,-54.2 -22.29,-8.91 -38.46,-59.9 -5.77,-18.19 -3.33,-80.43 -2.79,-101.65 43.55,12.65 29.71,5.54 43.99,47.95l-3.64 -74.26c-39.99,-43.89 -36.23,-65.7 -65.52,-114.75l-55.54 -5.7 -54.93 -2.34c-20.93,33.52 -32.07,49.37 -37.88,104.87z"/>
  <path class="fil0" d="M407.54 995.45c2.72,-105.31 6.59,-38.85 28.68,-58.65 10.16,22.33 17,40.79 17.14,73.38 0.25,58.94 2.39,29.23 -17.14,60.07 -12.7,-14.34 -10.67,-0.87 -21.66,-31.83 -0.53,-1.5 -7.04,-42.14 -7.02,-42.97zm98.75 -206.22c-66.03,-2.15 -61.75,49.19 -83.06,95.72 -29.24,63.87 -40.14,70.78 -24.67,167.13l58.39 124.11c33.46,53.3 70.57,43.73 131.93,23.26 15.41,-25.95 6.66,-9.61 10.68,-35.5l-5.16 -365c-22.42,-7.75 -36.81,-33.37 -88.1,-9.72z"/>
  <path class="fil0" d="M1070.33 1424.24c33.44,-16.81 90.72,-24.21 144.3,-19.1l-25.39 -19.37c47.91,-69.28 37.56,-31.93 50,-97.82 -190.55,13.45 -157.87,47.72 -383.63,15.4 26.71,91.83 105.91,111.95 214.71,120.89z"/>
  <path class="fil0" d="M1070.33 1424.24l5.16 69.41c144.43,45.3 129.88,-21.13 195.95,-39.38 -52.67,-9.15 -51.33,26.2 -51.33,-30.82l-5.49 -18.31c-53.57,-5.11 -110.86,2.3 -144.3,19.1z"/>
  <path class="fil0" d="M1505.2 1327.48c-78,45.7 -170.33,113.32 -285.09,95.97 0,57.02 -1.34,21.67 51.33,30.82l96.93 -17.67c31.15,-16.95 42.8,-23.87 77.44,-44.21 50.2,-29.48 31.55,-13.78 71.63,-56.52 47.3,-50.42 73.44,-83.71 97.53,-163.49 -2.19,-0.37 -5.51,-0.87 -6.57,-1.17 -1.35,-0.39 -6.82,-1.93 -8.24,-2.35 -1.85,-0.56 -9.04,0.36 -10.52,-3.84 -1.72,-4.9 -8.09,-3.18 -12.05,-5 13.23,68.43 -38.48,135.94 -72.4,167.46z"/>
  <path class="fil0" d="M302.38 3390.78c24.06,-24.19 21.51,-20.29 25.24,-90.02l-99.57 3.74c137.31,0 93.91,-7.19 119.62,-28.43 7.98,-107.61 4.9,-24.47 -23.71,-50.79l0.3 54.46 -109.79 2.17c-10.68,67.11 38.77,90.59 87.91,108.87z"/>
  <path class="fil0" d="M1184.65 760.11l201.94 -18.91c-17.05,-44.93 -43.88,-45.94 -109.67,-47.21 -66.76,-1.29 -98.25,3.17 -92.27,66.11z"/>
  <path class="fil0" d="M695.28 767.82l209.14 18.06c-15.8,-61.37 -22.46,-66.24 -97.55,-63.63 -119.76,4.17 -103.98,29.86 -111.59,45.58z"/>
  <path class="fil0" d="M1767.93 3410.79c50.16,-17.31 35.9,-10.8 74.3,-40 44.05,-33.49 25.98,-8.74 49.22,-55.26 -33.63,-20.08 -0.25,-13.07 -57.69,-16.21 -13.91,-0.76 -44.52,2.37 -56.95,3.15l-8.89 108.33z"/>
  <path class="fil0" d="M849.5 951.53c38.58,-40.57 37.02,-58.01 0,-96.7 -20.94,8.55 -33.9,-0.85 -37.04,42.69 -2.91,40.3 16.44,43.54 37.04,54z"/>
  <path class="fil0" d="M1262.8 941.59c22.93,-6.84 41.82,2.6 42.37,-45.16 0.67,-57.68 -25.68,-40.87 -42.37,-46.05 -29,45.35 -28.09,48.46 0,91.21z"/>
  <path class="fil0" d="M3182.63 2842.95c117.54,-25.28 119.15,70.5 70.92,99.69 -52.04,31.48 -113.19,-17.61 -70.92,-99.69zm24.54 -494.54c-49.74,-18.62 -35.04,-154.67 -30.89,-239.89 36.76,50.37 51.06,205.44 30.89,239.89zm-115 -299.28c0.01,0.01 26.95,-5.79 8.47,52.23l-91.05 148.6c-87.26,132.86 -58.78,96.73 -256.6,105.54 -86.69,3.86 -245.28,-9.28 -290.56,52.88 -40.66,81.83 -10.82,255.52 -9.98,358.27l8.57 379.27 2.01 143.42 -119.63 1.44 5.31 12.45 122.66 1.29 1.59 89.19c-0.49,26.64 -10.38,17.09 -13.52,20.17 156.93,45.66 519.35,20.32 704.98,20.32 100.63,0 670.55,16.27 712.64,-9.68 42.95,-56.56 41.95,-37.74 38.72,-119.31l94.2 0.68c-20.69,9.77 -68.17,7.97 -98.5,-21.58l8.57 -118.21 14.31 -712.78c-11.28,-104.09 -85.15,-82.54 -192.02,-91.57 -92.33,-7.8 -172.39,-13.19 -264.4,-19.08 -31.91,-34.97 -84.11,-106.5 -101.84,-134.05 -15.83,-16.2 -46.06,-44.45 -66.19,-71.3 -25.38,-33.86 -24.44,-39.07 -56.06,-68.7 7.6,-18.33 -17.39,-18.83 12.45,-14.32 13.77,-33 19.17,-42.86 29.1,-71.19 -24.14,-39 -40.97,-44.24 -60.15,-82.75l-109.54 2.89 -59.83 95.98c26.24,27.99 14.59,14.92 26.29,49.88z"/>
  <path class="fil0" d="M2528.1 443.97c-3.32,342.95 31,236.75 -92.39,425.96 -60.3,92.46 -22.54,130.33 -12.33,217 16.45,139.61 -293.82,296.7 -137.26,534.41 78.89,119.78 211.05,112.03 383.48,132.58 65.75,8.8 133.42,-23.24 184.65,-45.3 25.76,-41.81 14.55,-29.26 74.02,-46.25 37.64,-10.75 59.86,-16.04 97.92,-21.3l10.02 -57c-122.08,-113.89 -249.09,-120.96 -302.68,-306.76 -14.25,-49.42 -21.77,-319.83 -6.51,-372.13 1.08,-3.69 2.48,-7.3 3.79,-10.76l43.28 -56.15c2.46,-1.74 6.25,-3.51 8.84,-5.18l46.59 -30.48c1.6,-5.17 6.27,-5.02 8.96,-7.99l-10.59 -20.21c17.3,-14.94 36.68,-36.54 68.84,-40.86l69.59 13.22c2.06,-3.48 7.67,3.08 11.59,4.35 30.22,-101.86 132.49,-81.8 275.91,-386.21 121.43,12.17 201.59,89.31 249.96,166.98 70.86,113.8 71.8,201.34 100.71,339.55 3.12,-3.39 5.9,-8.27 7.76,-11.45l13.61 -23c22.94,-44.75 -2.98,-77.91 123.63,-85.52 17.79,-154.45 -91.06,-322.26 -165.4,-399.39 -47.41,-49.2 -91.39,-80.82 -172.81,-112.01 -184.84,-70.8 -511.59,-43.79 -664.38,114.24 -94.22,97.45 -141.48,242.57 -165.26,414.41 123.16,2.35 87.6,21.35 131.22,39.28 -1.05,77.62 -25.44,245.42 -18.67,405.55 2.71,64.19 -11.43,-4.4 -12.19,-9.45 -0.84,-5.59 -4.21,-7.76 -7,-11.13 -8.79,9.75 -17.12,33.71 -73.56,16.35 -23.25,-7.15 -40.87,-25.33 -49.33,-38.8 -15.08,-24.02 -2.29,-6.09 -12.76,-29.67l-8.41 -20.3c-1.44,-2.96 -3.41,-6.6 -4.91,-9.48 -53.89,-103.04 -33.09,-212.64 32.98,-304.94 6.56,-9.17 10.81,2.47 15.35,-17.45 1.25,-5.51 5.81,-5.46 8.42,-8.47 -21.75,-29.66 -12.14,-67.44 -4.28,-116.01 86.98,-537 621.04,-573.41 889.6,-439.71 136.44,67.93 169.4,133.86 228.37,229.67l20.65 27.82c1.2,-2.4 5.21,6.11 12.86,8.81l-7.72 -139.59c-37.62,-136.93 -145.11,-181.72 -292.39,-197.48 -270.1,-28.9 -153.51,-105.89 -355.8,-144.72 -304.74,-58.51 -517.39,177.32 -545.98,434.96z"/>
  <path class="fil0" d="M2669.61 1753.93l-43.73 32.94c-13.55,6.22 -47.83,14.54 -64.99,19.54 -52.24,15.22 -87.97,25.66 -119.67,52.09 -66.14,55.17 -75.94,136.04 -104.26,236.85 -49.5,176.21 -92.4,355.67 -145.94,533.81 -1.19,76.2 30.07,75.78 99.96,98.23 56.37,18.11 100.52,31.48 161.46,39.25 -0.83,-102.75 -30.67,-276.44 9.98,-358.27 45.27,-62.15 203.87,-49.02 290.56,-52.88 197.82,-8.81 169.35,27.33 256.6,-105.54 -36.03,-32.89 -61.4,-124.72 -65.59,-184.07 -26.94,-26.98 -27.31,-35.46 -38.87,-79.54 -7.6,-29 -12.28,-61.72 -18.13,-93.37 -11.46,-62.02 -26.19,-121.61 -32.73,-184.35 -51.24,22.06 -118.9,54.1 -184.65,45.3z"/>
  <path class="fil0" d="M4030.35 1596.57c-62.76,-38.69 -9.3,-83.94 -96.37,-95.89 -42.08,63.03 18.32,110.46 32.33,185.25 6.04,7.48 85.34,146.94 88.9,161.24 15.72,63.06 -2.83,161.53 -39.9,197.87 4.94,77.22 -48.76,346.85 -80.97,408.28l-14.31 712.78 4.32 -21.44 6.58 -223.29c254.59,101.25 247.96,-166.82 245.35,-368.18 -2.94,-227.44 10.19,-429.45 18.91,-653.6 84.18,-61.03 114.13,-84.74 142.36,-211.42 24.36,-109.29 105.76,-156.61 109.73,-242.93 -88.89,10.85 -54.31,90.77 -140.82,122.9 12.54,-98.4 80.68,-129.26 79.84,-209.3 -89.5,13.38 -77.98,128.22 -150.39,178.55 -6.53,-119.33 51.32,-106.37 44.27,-230 -0.3,-5.35 -2.24,-7.1 -4.16,-10.25 -81.52,28.31 -66.12,125.65 -114.01,216.63 -14.28,-18.78 -6.41,6.18 -11.61,-30.41l-0.46 -21.95c2.57,-41.02 41.58,-102.47 12.07,-156.33 -49.65,18.4 -59.52,92.92 -70.76,148.34 -5.78,28.5 -8.46,65.91 -17.23,99.47 -23.6,90.25 -43.44,43.89 -43.67,43.68z"/>
  <path class="fil0" d="M3749.49 751.47l52.04 56c23.42,38.64 43.56,73.1 48.27,120.15 13.73,137.12 -21.47,152.66 -24.6,159.91 -11.24,26.03 -10.63,38.38 -23.79,62.27 -25.88,46.96 -73.35,52.17 -114.73,72.19 -21.28,-86.75 -19.5,32.13 -24.81,-164.83 -0.82,-30.57 -1.57,-71.66 -3.92,-101.18 -1.57,-19.8 -2.77,-35.96 -9.46,-54.14 -17.44,-47.4 25.85,-9.7 -21.92,-32.41 5.37,87.07 19.15,334.13 -1.29,406.64 -40.5,143.67 -151.98,100.83 -228.59,172.24l-4.18 5.66 149.34 -46.98c-26.59,52.65 -169.45,145.19 -224.74,172.63l19.28 61.77c36.28,4.43 72.11,12.56 104.9,22.26 56.96,16.85 61.33,11.23 70.57,52.59l96.31 14.78c163.96,-29.21 197.2,31.46 358.15,-45.08 -14.02,-74.8 -74.42,-122.22 -32.33,-185.25 87.07,11.94 33.6,57.19 96.37,95.89 100.36,-322.15 -90.26,-321.77 -118.99,-486.68 -17.95,-103.04 32.75,-198.74 12.61,-295.28 -16.44,-78.8 -97.22,-122.76 -145.16,-168.91 -19.75,24.97 -4.83,-11.55 -12.8,29.85 -3.3,17.13 0.18,16.94 -0.46,34.27 -1.26,34.53 25.32,52.93 -16.07,41.65z"/>
  <path class="fil0" d="M3511.86 1716.24c-23.86,115.76 -30.39,278.3 -94.32,366.59l-41.44 125.8c17.74,27.54 69.93,99.08 101.84,134.05 92,5.89 172.07,11.28 264.4,19.08 106.87,9.03 180.74,-12.52 192.02,91.57 32.21,-61.43 85.91,-331.06 80.97,-408.28 -102.24,-272.52 -102.83,-190.02 -359.66,-282.62 -70.22,-25.32 -29.44,5.87 -47.5,-31.4l-96.31 -14.78z"/>
  <path class="fil0" d="M3235.26 1900.37c19.17,38.51 36,43.75 60.15,82.75 -9.93,28.32 -15.33,38.18 -29.1,71.19 41.99,17.76 56.3,60.42 91.93,90.2 3.81,-2.52 9.82,-10.28 11.56,-7.37l31.76 -34.69c14.27,-20.91 -1.39,-35.77 15.99,-19.63 63.93,-88.29 70.46,-250.83 94.32,-366.59 -9.23,-41.36 -13.61,-35.74 -70.57,-52.59 -32.78,-9.7 -68.62,-17.83 -104.9,-22.26 -19.81,55.03 28.33,37.06 63.01,85.22 -23.35,36.69 -122.91,134.32 -164.15,173.78z"/>
  <path class="fil0" d="M2854.26 1708.63c6.54,62.74 21.27,122.33 32.73,184.35 5.85,31.65 10.52,64.38 18.13,93.37 11.56,44.07 11.93,52.56 38.87,79.54l-1.24 -19.3c12.58,45.21 20.55,61.13 50.64,94.6 63.79,-31.98 50.17,-55.76 98.77,-92.07 -11.69,-34.96 -0.05,-21.89 -26.29,-49.88l59.83 -95.98c-44.28,-61.23 -134.6,-121.15 -159.03,-176.67 37.67,-56.31 70.81,-16.2 59.51,-85.52 -38.06,5.26 -60.28,10.55 -97.92,21.3 -59.46,16.99 -48.25,4.44 -74.02,46.25z"/>
  <path class="fil0" d="M2461.02 3145.92l-8.57 -379.27c-60.94,-7.77 -105.09,-21.14 -161.46,-39.25 -69.89,-22.45 -101.14,-22.02 -99.96,-98.23 -7.89,15.46 -0.44,-17.99 -12.54,31.53 -26.88,110.07 20.67,182.4 85.29,266.54 36.94,48.09 149.41,189.43 197.24,218.69z"/>
  <path class="fil0" d="M3165.19 1443.6c33.62,-50.75 85.18,-30.47 156.63,-36.39 43.39,-34.17 50.32,-34.61 50.71,-89.61 -67.09,-14.96 -96.28,14.82 -165.92,22.09 -65.24,6.81 -121.89,-3.91 -188.38,-0.68 10.29,74.87 76.67,113.74 146.95,104.59z"/>
  <path class="fil0" d="M3165.19 1443.6l11.02 61.14 130.23 3.28c54.52,-46.11 7.19,-40.28 86.07,-54.06l4.18 -5.66 -61.7 -6.88 -13.16 -34.22c-71.46,5.92 -123.02,-14.36 -156.63,36.39z"/>
  <path class="fil0" d="M3877.06 3424.52c72.85,-15.09 164.87,-58.17 150.26,-138.53l-115.84 -1.68c30.33,29.56 77.81,31.35 98.5,21.58l-94.2 -0.68c3.23,81.57 4.22,62.76 -38.72,119.31z"/>
  <path class="fil0" d="M2459.43 3413.87c3.14,-3.07 13.03,6.48 13.52,-20.17l-1.59 -89.19 -122.66 -1.29c16.91,60.76 57.64,80.41 110.72,110.65z"/>
  <path class="fil0" d="M3324.85 824.44c88.81,-68 96.49,-45.19 222.01,-38.37 -49.37,-102.61 -212.31,-62.43 -222.01,38.37z"/>
  <path class="fil0" d="M2838.48 794.62c48.09,-4.8 27.57,-14.09 71.26,-20.86 37.96,-5.88 66.6,4.23 97.57,4.39l4.62 -5.31c-27.31,-52.06 0.25,-15.31 -34.03,-21.72 -3.93,-1.27 -9.53,-7.83 -11.59,-4.35l-69.59 -13.22c-32.16,4.32 -51.54,25.93 -68.84,40.86l10.59 20.21z"/>
  <path class="fil0" d="M2962.99 868.22c-0.82,1.23 -52.94,13.17 1.91,89.72 73.34,-22.1 46.59,-98.91 -1.91,-89.72z"/>
  <path class="fil0" d="M3406.69 959.22c53.59,-36.25 35.65,-73.96 0,-99.22 -35.93,24.83 -55.76,62.26 0,99.22z"/>
  <path class="fil0" d="M3007.32 778.15c12.97,18.46 -4.61,18.23 40.89,34.16 -14.83,-52.24 -12.22,-26.05 -36.26,-39.47l-4.62 5.31z"/>
 </g>
</svg>
