<?xml version="1.0" encoding="UTF-8"?>
<!DOCTYPE svg PUBLIC "-//W3C//DTD SVG 1.1//EN" "http://www.w3.org/Graphics/SVG/1.1/DTD/svg11.dtd">
<!-- Creator: CorelDRAW -->
<svg xmlns="http://www.w3.org/2000/svg" xml:space="preserve" width="100%" height="100%" version="1.1" style="shape-rendering:geometricPrecision; text-rendering:geometricPrecision; image-rendering:optimizeQuality; fill-rule:evenodd; clip-rule:evenodd"
viewBox="0 0 2012.66 2011.13"
 xmlns:xlink="http://www.w3.org/1999/xlink"
 xmlns:xodm="http://www.corel.com/coreldraw/odm/2003">
 <defs>
  <style type="text/css">
   <![CDATA[
    .fil0 {fill:#003399}
   ]]>
  </style>
 </defs>
 <g id="Layer_x0020_1">
  <metadata id="CorelCorpID_0Corel-Layer"/>
  <path class="fil0" d="M1408.14 1400.73c21.17,-12.74 -16.99,-2.21 29.21,-11.16l103.76 -0.09c163.93,2.93 336.15,-35.22 332.45,76.87 -3.14,95.39 -115.51,76.25 -200.08,76.06 -78.28,-0.19 -198.71,18.51 -264.27,-9.43 53.46,-81.46 404.02,56.35 412.11,-67.11 5.04,-76.89 -186.14,-49.97 -306.89,-48.62l-87.7 -6.82c-2.48,-0.68 -7.81,-0.48 -9.53,-4.57 -1.69,-4.03 -6.24,-3.09 -9.05,-5.13zm101.8 -172.09l0.15 -29.77c112.57,0 357.8,-12.55 444.35,14.82 24.77,49.92 24.63,73.04 2.36,125.24 -88.45,28.33 -333.18,15.05 -447.98,15.02l6.22 -29.58c108.09,0 314.62,12.32 405.98,-9.65l-4.87 -76.89c-85.77,-20.31 -299.8,-9.19 -406.21,-9.19zm-23.43 -55.66c-1.45,3.13 -3.14,4.52 -3.54,9.74l-7.22 168.94c-119.04,7.21 -104.96,-23.68 -104.68,190.63l-676.51 0.13c-50.17,0 -171.92,-14.06 -212.21,17.02l1402.76 16.66c43.34,0 55.2,5.54 83.09,17.72 23.02,99.37 15.86,136.83 -96.32,136.83l-1732.71 0c-107.69,0 -116.67,-44.23 -95.88,-136.93 63.27,-26.97 146.4,-3.63 183.51,-34.28 -40.39,-36.46 -235.99,-41.08 -226.47,105.85 5.56,85.69 55.96,99.17 138.63,99.17l1732.91 0c83.03,0 133.81,-12.03 139.51,-99.07 6.1,-93.26 -40.7,-119.04 -125.14,-123.75 27.59,-75.97 33.03,-73.91 0.29,-152.69 178.14,-21.79 150.52,-205.3 22.86,-222.08 -73.33,-9.63 -369.24,-10.92 -422.9,6.12z"/>
  <path class="fil0" d="M512.57 817.95l115.96 8.16 101.27 -7.45c-7.42,151.39 -209.61,155.09 -217.23,-0.7zm404.59 -290.07c-35.34,92.8 -28.56,-39.7 -70.56,112.04 -52.71,190.43 -288.08,160.7 -367.25,116.48 -95.59,-53.41 -71.98,-133.93 -104.1,-174.61 -25.61,-32.44 -93.73,-29.12 -19.97,-100.21 49.32,-47.54 4.02,7.16 35.63,-56.8 31.57,-63.84 43.36,-17.33 92.06,-93.73 153.47,65.9 119.15,74.55 276.97,1.65 48.87,74.94 61.8,30.93 91.83,91.92 64.52,131.05 43.69,9.59 65.39,103.27zm-573.91 -150.09c-15.83,-182.59 110.32,-247.85 285.27,-247.09 170.96,0.74 284.88,70.09 271.28,245.6 -90.17,-3.54 -85.78,-52.82 -139.11,-86.89 -178.24,76.39 -92.6,88.52 -277.8,0.08 -38.13,22.88 -7.19,3.7 -34.79,31.97 -37.91,38.84 -46.07,50.33 -104.86,56.33zm-77.72 406.11c-13.05,-87.75 -4.13,-240.39 -4.15,-335.37 -0.02,-114.12 -21.12,-217.77 49.55,-279.1 93.48,61.57 -69.78,140.61 20.27,246.69 64.07,75.48 -13.1,-38.71 20.9,19.19 -30.43,32.98 -68.32,42.41 -57.01,103.63 11.93,64.57 34.49,24.89 62.87,88.96 36.61,82.67 -11.58,145.4 -92.43,156.01zm93.3 -609.91c-57.99,-132.66 88.62,-194.94 131.38,-71.89l-131.38 71.89zm-224.07 1326.83c3.61,-355.35 -75.04,-442.37 348.13,-603.82 119.43,109.78 163.08,88.26 277.8,0.3 420.53,167.11 339,225.17 346.97,598.87l30.37 9.9c7.48,-150.17 25.59,-355.95 -51.43,-457.51 -76.56,-100.97 -261.43,-130.76 -322.82,-203.28 -21.53,-60.83 72.98,-74.6 115.88,-199.75 40.13,-117.05 140.27,-71.13 11.05,-210.22 19.01,-30.69 67.6,-11.5 38.51,-141.94 -12.25,-54.94 -41.44,-96.53 -72.4,-126.07 -84.3,-80.41 -184.98,-67.88 -321,-69.28 -40.06,-55.52 -87.93,-139.74 -186.54,-74.04 -39.76,26.5 -27.09,52.91 -49.73,97.39 -21.91,43.06 -43.87,36.52 -61.89,95.09 -18.34,59.58 -14.31,522.72 -5.87,603.4 105.1,0.14 118.17,-31.15 168.31,-87.1 48.72,40.94 79.11,41.84 78.22,123.3 -351.97,193.15 -406.17,126.15 -374.1,647.59l30.55 -2.84z"/>
  <path class="fil0" d="M1250.33 815.19c33.19,4.3 72.37,12.95 105.88,11.82l111.57 -12.89c-7.67,158.7 -211.23,158.94 -217.45,1.07zm-119.23 -403.96c81.79,-15.6 147.8,-14.16 223.28,-43.98 72.84,-28.77 102.33,-58.81 160.48,-92.45 3.04,277.66 39.89,131.21 138.22,231.47 0.39,85.68 -19.61,28.79 -52.57,81.83 -15.33,24.67 -16.36,67.31 -39.02,105.59 -33.92,57.26 -94.2,91.75 -192.87,93.17 -93.58,1.35 -158.82,-22.78 -204.13,-80.79 -36.01,-46.1 -21.09,-59.07 -40.97,-106.38 -28.58,-68.02 -41.47,-2.27 -59.94,-85.02 30.19,-65.52 15.31,-8.38 47.15,-49.63 24.32,-31.5 7.65,-14.95 20.37,-53.81zm449.76 21.71c-47.81,-42.3 -34.88,-107.27 -30.14,-183.02 38.96,18.23 40.41,13.89 43.06,78.92l-8.32 96.81c-0.37,-1.56 -3.05,4.87 -4.59,7.3zm-503.61 -58.67c4.3,-112.61 45.97,-190.64 136.24,-226.81 65.6,-26.29 257.48,-25.7 310.62,0.09 30.35,146.27 -259.92,233.15 -446.86,226.72zm-27.7 590.91c64.89,-12.07 106.07,-37.54 160.91,-66.1 2.52,1.19 187.93,162.94 274.91,-4.83 71.64,23.92 125.43,56.21 194.11,90.82 101.1,50.95 96.77,45.62 153.11,140.37l26.6 3.09c-22.59,-129.89 -225.38,-215.67 -357.28,-267.38 -0.82,-73.54 -11.94,-50.67 30.54,-90.98 103.03,-97.75 55.57,-59.89 91.63,-146.9 16.23,-39.19 26.15,-31.98 60.89,-64.94 7.92,-105.84 -8.31,-74.93 -57.03,-123.03 -1.93,-59.19 11.48,-140.54 -19.49,-186.21 -33.98,-50.1 -23.18,5.37 -42.83,-65.06 -16.46,-59 10.64,-37.16 -36.11,-69.74 -79.28,-43.44 -300.59,-20.04 -374.57,27 -43.57,27.7 -69.83,59.87 -93.02,118.3 -19.81,49.92 -30.44,102.13 -5.27,142.13 25.6,40.67 6.74,-21.13 32.96,33.57 -133.39,137.91 -27.06,113.78 6.28,195.25 19.8,48.38 14.24,66.76 49.69,107.44 15.9,18.24 117.77,72 56.65,123.31 -8.51,7.14 -3.34,5.46 -24.2,18.12 -58.06,35.26 -141.81,45.56 -128.49,85.74z"/>
  <path class="fil0" d="M1287.44 603.88l55.3 -1.85 39.7 0.3 47.96 3.76c-26.68,77.2 -107.07,79.06 -142.95,-2.21zm-32.21 -31.1c-29.88,164.57 234.54,162.8 205.82,-3.57l-205.82 3.57z"/>
  <path class="fil0" d="M657.66 657.85c-69.8,6.46 -86.7,6.18 -107.84,-54.26l52.14 -1.25 39.75 -0.84 55.19 8.53 -39.24 47.82zm68.6 -82.59l-209.81 -5.08c-19.26,168.23 229.01,163.82 209.81,5.08z"/>
  <path class="fil0" d="M297.71 2010.28c20.54,-45.91 21.8,-166 0,-212.19 -37.8,21.22 -22.76,50.39 -22.78,105.19 -0,55.84 -14.86,84.15 22.78,107.01z"/>
  <path class="fil0" d="M1898.34 2010.08c20.53,-45.42 21.69,-166.33 0,-211.9 -37.36,21.81 -22.63,51.37 -22.64,105.09 -0.01,55.03 -14.66,83.68 22.64,106.81z"/>
  <path class="fil0" d="M99.28 2011.13c34.61,-25.96 20.81,-54.87 20.89,-107.87 0.08,-51.51 13.78,-81.97 -20.89,-105.97 -24.29,43.21 -22.72,171.15 0,213.83z"/>
  <path class="fil0" d="M1699.91 2010.97c35,-25.52 20.96,-54.51 20.96,-107.7 -0.01,-52.05 14.19,-82.26 -20.96,-105.72 -23.56,43.83 -22.01,169.98 0,213.42z"/>
  <path class="fil0" d="M703.24 488.22c1.47,0.94 -0.37,33.31 41.63,11.61 15.61,-8.06 22.55,-10.33 12.54,-34.59 -14.81,-35.92 -48.06,-33.39 -54.17,22.99z"/>
  <path class="fil0" d="M1224.44 500.83c58.2,4.39 56.86,11.85 48.33,-48.39 -60.63,-9.01 -53.07,-10.03 -48.33,48.39z"/>
  <path class="fil0" d="M536.14 502.41c10.05,-136.7 -134.57,4.1 0,0z"/>
  <path class="fil0" d="M1444.43 490.4c35.4,21.29 23.99,9.57 53.07,2.04l-5.87 -33.57c-2.17,-1.12 -11.39,-33.49 -45.22,-1.53 -18.28,17.28 -3.44,26.77 -1.98,33.06z"/>
 </g>
</svg>
