<?xml version="1.0" encoding="UTF-8"?>
<!DOCTYPE svg PUBLIC "-//W3C//DTD SVG 1.1//EN" "http://www.w3.org/Graphics/SVG/1.1/DTD/svg11.dtd">
<!-- Creator: CorelDRAW -->
<svg xmlns="http://www.w3.org/2000/svg" xml:space="preserve" width="100%" height="100%" version="1.1" style="shape-rendering:geometricPrecision; text-rendering:geometricPrecision; image-rendering:optimizeQuality; fill-rule:evenodd; clip-rule:evenodd"
viewBox="0 0 1699.46 1629.09"
 xmlns:xlink="http://www.w3.org/1999/xlink"
 xmlns:xodm="http://www.corel.com/coreldraw/odm/2003">
 <defs>
  <style type="text/css">
   <![CDATA[
    .fil1 {fill:#404E57}
    .fil2 {fill:#63B4F5}
    .fil3 {fill:#ED5250}
    .fil0 {fill:#FEC828}
   ]]>
  </style>
 </defs>
 <g id="Layer_x0020_1">
  <metadata id="CorelCorpID_0Corel-Layer"/>
  <path class="fil0" d="M301.89 7.49c-20.87,34.48 24.89,11.1 -43.5,24.89 -25,5.04 -68.83,-9.61 -130.87,21.21 -44.91,22.31 -78.29,54.83 -94.2,115.21 -33.16,125.85 59.95,224.46 170.96,232.25 245.23,17.2 588.85,4.68 841.14,-0.02 -30.93,-58 -92.06,-65.86 -92.45,-183.38 -0.39,-114.47 55.78,-125.69 92.98,-185.42l-498.45 -0.1c-49.83,-8.61 -17.7,-1.77 -30,-18.7 -70.23,5.99 -42.5,-12.92 -114.9,-9.97 -71.38,2.91 -39.41,21.22 -100.71,4.03z"/>
  <path class="fil1" d="M312.98 13.43c-73.51,3.6 47.69,34.73 234.53,18.7l498.45 0.1c-37.2,59.73 -93.37,70.95 -92.98,185.42 0.39,117.52 61.52,125.38 92.45,183.38 -252.29,4.69 -595.91,17.21 -841.14,0.02 -111.02,-7.78 -204.12,-106.39 -170.96,-232.25 15.91,-60.38 49.28,-92.9 94.2,-115.21 62.04,-30.82 105.88,-16.17 130.87,-21.21 68.39,-13.79 29.64,11.46 50.51,-23.02 -382.77,-50.3 -412.93,416.08 -73.12,420.63 117.91,1.58 903.94,14.99 943.01,-12.23 -1.98,-2 -5.1,-4.27 -6.63,-5.22 -66.82,-41 36.81,3.78 -46.81,-18.44 -156.92,-41.7 -169.07,-203.08 -103.25,-291.46 94.35,-126.69 311.65,-75.5 326.68,103.53l1.48 1101c-26.62,50.18 3.74,-1.85 -24.69,22.8 -20.5,17.77 -11.09,-4.67 -22.51,21.67 37.81,12.72 51.67,-1.15 71.49,-17.35 11.44,-20.51 5.79,-999.33 3.95,-1105.71 -4.09,-236.32 -205.08,-224.91 -330.58,-224.8 -85.23,0.08 -689.98,-13.24 -734.95,9.65z"/>
  <path class="fil1" d="M1607.38 1564.86l-29.38 -45.66 48.17 -0.6 -18.78 46.26zm-47.91 -79.88c-29.83,-49.12 -26.08,-88.3 -19.19,-152.02l125.94 1.19c2.99,31.82 8.45,95.06 -1.7,123.45 -16.46,46.06 -53.16,35.18 -105.06,27.38zm-15.84 -682.42l124.16 0.92 -3.26 498.38 -126.36 -0.97 5.46 -498.33zm-5.65 -607.16c-2.8,-83.53 29.41,-94.35 110.15,-75.45 15.91,28.54 20.04,29.15 20.04,75.45l-2.05 575.76 -126.31 -0.44c-7.71,-175.42 4.32,-381.54 -1.83,-575.32zm-45.24 405.19c-31.64,-21.41 -13.78,18.52 -22.28,-37.57l0.19 -234.77c-0.35,-52.91 -9.97,-49.06 22.09,-70.77 30.51,43.6 14.89,202.29 15.58,260.45 0.78,65.65 2.79,56.18 -15.58,82.66zm-40.61 -357.88c-16.35,56.83 -16.19,315.46 -0.27,372.71 47.12,25.13 44.46,-3.74 57.63,35.8 0,177.87 -0.03,355.75 0,533.65 0.03,169.81 -23.44,265.3 64.93,406.91 25.35,40.63 6.71,15.99 29.54,31.51l87.35 -163.23c14.81,-55.48 4.75,-1079.33 5.7,-1220.23 0.57,-83.68 -1.16,-155.67 -93.04,-156.41 -92.7,-0.74 -92.87,59.48 -95.28,140.26l-56.56 19.03z"/>
  <path class="fil1" d="M1176.61 306.58c-34.75,-24.68 -141.61,-53.7 -70.06,-141.36 43.77,-53.61 125.54,-25.76 136.16,44.22 15.42,101.6 1.54,347.34 1.54,464.02 0,156.34 19.19,829.98 -15.41,913.39 -88.43,20.22 -657.44,8.73 -825.91,8.73 -74.37,0 -194.35,21.6 -237.28,-31.33 -27.7,-50.97 6.56,-990.21 -9.15,-1078.65 -5.31,-29.92 -3.61,-15.38 -9.34,-26.4 -12.33,15.34 -16.73,6.22 -17.67,69.14 -2.71,180.72 -4.74,1017.05 10.61,1051.77 28.94,65.47 171.18,43.69 251.72,43.69 92.67,0 185.34,0 278.01,0 644.75,0 602.61,62.01 602.59,-238.82l0 -1056.17c0.11,-83.08 11.83,-166.37 -54.39,-204.02 -117.5,-66.81 -210.5,96.63 -126.39,171.59 6.31,5.62 33.84,21.22 46.95,22.65 49.35,5.39 25.26,1.06 38.01,-12.46z"/>
  <path class="fil2" d="M1537.98 195.41c6.15,193.78 -5.88,399.9 1.83,575.32l126.31 0.44 2.05 -575.76c0,-46.3 -4.13,-46.91 -20.04,-75.45 -80.75,-18.9 -112.95,-8.08 -110.15,75.45z"/>
  <polygon class="fil2" points="1538.17,1300.89 1664.53,1301.86 1667.79,803.48 1543.63,802.57 "/>
  <path class="fil1" d="M477.8 616.98l445.11 -1.1 0.48 74.37 -443.28 4.43 -2.32 -77.7zm-18.47 -19.71c-19.42,55.31 -26.54,117.56 42.47,124.39 47.83,4.74 137.89,-0.25 190.28,-0.27 198.99,-0.06 305.32,35.62 251.78,-121.43 -52.41,-23.87 -425.49,-22.87 -484.52,-2.69z"/>
  <polygon class="fil3" points="480.11,694.69 923.39,690.26 922.91,615.88 477.8,616.98 "/>
 </g>
</svg>
