<?xml version="1.0" encoding="UTF-8"?>
<!DOCTYPE svg PUBLIC "-//W3C//DTD SVG 1.1//EN" "http://www.w3.org/Graphics/SVG/1.1/DTD/svg11.dtd">
<!-- Creator: CorelDRAW -->
<svg xmlns="http://www.w3.org/2000/svg" xml:space="preserve" width="100%" height="100%" version="1.1" style="shape-rendering:geometricPrecision; text-rendering:geometricPrecision; image-rendering:optimizeQuality; fill-rule:evenodd; clip-rule:evenodd"
viewBox="0 0 1694.61 1697"
 xmlns:xlink="http://www.w3.org/1999/xlink"
 xmlns:xodm="http://www.corel.com/coreldraw/odm/2003">
 <defs>
  <style type="text/css">
   <![CDATA[
    .fil0 {fill:#003399}
   ]]>
  </style>
 </defs>
 <g id="Layer_x0020_1">
  <metadata id="CorelCorpID_0Corel-Layer"/>
  <path class="fil0" d="M1423.68 305.36l144.81 363.79 -60.21 23.56c-21.1,-19.66 -142.58,-316.13 -154.99,-361.81l70.38 -25.53zm201.43 276.9c14.27,35.55 51.18,91.42 27.75,124.32 -42.38,2.67 -32.04,8.21 -51.91,-44.86l-75.81 -190.58c-17.94,-44.5 -35.02,-82.4 -52.13,-125.73 -16.05,-40.65 -53.93,-86.61 -31.43,-123.46 44.44,-3.5 29.41,-15.85 53.5,45.13l77.84 189.4c16.89,42.91 35.04,83.05 52.2,125.79zm-817.71 191.92c-9.81,-70.3 -48.83,-121.06 -65.26,-190.58l582.06 -238.7 147.86 364.97c-141.52,62.76 -292.3,119.67 -429.35,179.85l532.14 -191.96c2.35,2.02 5.26,2.39 6.11,5.94 9.49,39.44 123.6,63.72 112.96,-23.07l-208.56 -490.72c-106.57,-7.17 -73.75,35.75 -83.71,90.06l-681.36 285.89 -7.52 62.37c-5.73,28.59 -221.17,90.58 -267.79,119.17 -22.43,13.76 -17.49,6.96 -27.7,29.31 36.27,11.97 172.41,-62.27 223.02,-75.43 12.2,33.24 31.58,109.89 67.33,127.91 15.16,-32.96 -26.54,-100.93 -39.62,-139.03l73.26 -32.56c7.94,32.15 11.61,42.19 25.24,71.91 14.91,32.52 11.41,41.71 40.89,44.7z"/>
  <path class="fil0" d="M151.65 385.13c157.04,7.91 256.78,7.8 410.98,0.33 -21.65,-71.57 -41.17,-215.46 -210.93,-211.66 -152.93,3.42 -177.68,137.76 -200.06,211.33z"/>
  <path class="fil0" d="M62.65 910.31c36.12,-32.62 74.13,104.26 83.78,127.15 20.4,48.43 60.63,114.7 51.92,154.18 -49.35,22.8 -41.09,9.29 -60.75,-44.76l-64.6 -157.71c-35.35,-81.09 -25.2,-65.44 -10.35,-78.86zm-39.63 -7.3c-5.65,51.51 102.12,300.16 127,327.96 100.13,-1.02 51.26,-30.98 114.45,-62.95l391.48 -168.98c-52.38,-31.94 -280.2,113.79 -433.11,150.88l-94.35 -239.55c40.13,-17.1 71.61,-16.23 90.09,-57.61 -51.88,2.92 -55.94,19.44 -101.18,23.82 -70.53,6.83 -40.23,-10.22 -94.39,26.43z"/>
  <path class="fil0" d="M1185.79 1664.69c-48.23,-3.04 -44.86,-25.42 -82.4,-105.04 -23.85,-50.59 -40.27,-87.12 -63.96,-136.09 -29.48,-60.96 -89.51,-233.65 -148.88,-262.62 10.43,58.66 159.65,352.76 202.72,441.65 34.04,70.26 28.3,106.74 116.66,86.5 25.96,-59.17 7.41,-75.02 -21.78,-136.6 -27.21,-57.41 -171.99,-394.51 -213.66,-421.53 -6.87,13.51 -11.85,-10.33 -4.91,29 2.18,12.33 8.02,20.31 12.93,29.84l97.91 203.3c37.14,79.54 130.23,226.44 105.35,271.59z"/>
  <path class="fil0" d="M807.7 1163.3c-40.72,26.1 -199.93,393.94 -230.78,461.15 -18.54,40.37 -12.2,41.01 -58.62,41.72 -19.73,-79.09 208.33,-413.95 227.55,-537 -27.94,12.75 -13.19,1.5 -30.75,21.59l-191.78 397.98c-18.89,40.95 -70.54,116.52 -8.07,142.93 63.13,26.7 85.25,-53.29 102.88,-92.88 23.32,-52.35 210.57,-393.06 189.58,-435.48z"/>
  <path class="fil0" d="M813.09 832.8c175.07,-65.6 266.87,214.3 89.31,272 -88.28,28.69 -164.11,-28.32 -184.83,-92.33 -30.54,-94.33 26.65,-153.85 95.53,-179.67zm-15.36 -26.14c-218.05,81.66 -98.63,401.85 118.61,323.38 202.45,-73.14 101.33,-405.75 -118.61,-323.38z"/>
  <path class="fil0" d="M-0 376.46c58.48,114.02 440.45,94.55 569.23,71.28 241.48,-43.63 117.51,-134.68 69.37,-136.89 -59.32,-2.73 -12.37,-3.74 -32.57,10.03 29.22,24.25 14.37,8.8 44.48,23.45 48.03,23.37 18.09,-5.88 35.52,36.61 -141.75,69.17 -430.67,70.78 -597.23,25.82 -52.28,-14.11 -46.11,-11.13 -60.75,-45.22l81.73 -36.67c-4.38,-3.66 4.12,-38.96 -67.8,-3.02 -31.84,15.92 -35.27,23.61 -41.99,54.62z"/>
  <path class="fil0" d="M507.02 493.81c-90.37,14.41 -209.14,13.42 -299.81,0.48 81.88,95.77 217.37,104.35 299.81,-0.48z"/>
  <path class="fil0" d="M999.8 216.76l-2.43 47.6 -32.02 -21.2c17.71,-29.32 4.7,-28.58 34.45,-26.4zm-95.85 26.28c24.5,16.06 43.24,15.75 58.2,34.82 23.2,29.56 -4.25,27.44 34.59,51.14 55.38,-71.57 -4.04,-36.68 89.12,-82.4 -29.76,-55.64 -36.35,-1.56 -69.01,-67.03l-20.11 -32.17c-38.04,23.61 -9.98,19.11 -35.01,49.39 -29.16,35.27 -30,0.83 -57.79,46.24z"/>
  <path class="fil0" d="M916.84 941.41c-83.68,-90.31 -179.06,3.69 -88.11,88.15 72.99,4.75 91.93,-15.32 88.11,-88.15z"/>
  <path class="fil0" d="M810.66 83.83c-12.27,24.51 -5.76,16.69 -26.2,41.44l-32.72 -39.3c11.39,-11.89 21.64,-14.26 35.41,-21.39l23.52 19.25zm-118.13 14.68c81.96,51.94 35.56,-1.5 82.37,86.25 39.96,-21.41 11.06,-15.59 36.11,-48.84 18.5,-24.57 37.24,-23.7 62.95,-35.41 -25.27,-50.55 -22.35,-9.73 -57.12,-44.83 -34.18,-34.48 4.03,-32.61 -44.41,-55.69 -36.39,87.91 -26.14,51.96 -56.61,72.76 -21.06,14.38 -12.14,4.34 -23.29,25.75z"/>
  <path class="fil0" d="M267.81 832.28c27.56,19.33 75.96,-2.77 95.99,-33.35 -33.62,-16.54 -75.28,11.28 -95.99,33.35z"/>
 </g>
</svg>
