<?xml version="1.0" encoding="UTF-8"?>
<!DOCTYPE svg PUBLIC "-//W3C//DTD SVG 1.1//EN" "http://www.w3.org/Graphics/SVG/1.1/DTD/svg11.dtd">
<!-- Creator: CorelDRAW -->
<svg xmlns="http://www.w3.org/2000/svg" xml:space="preserve" width="100%" height="100%" version="1.1" style="shape-rendering:geometricPrecision; text-rendering:geometricPrecision; image-rendering:optimizeQuality; fill-rule:evenodd; clip-rule:evenodd"
viewBox="0 0 1546.15 1558.5"
 xmlns:xlink="http://www.w3.org/1999/xlink"
 xmlns:xodm="http://www.corel.com/coreldraw/odm/2003">
 <defs>
  <style type="text/css">
   <![CDATA[
    .fil0 {fill:#003399}
    .fil1 {fill:#C4372F}
   ]]>
  </style>
 </defs>
 <g id="Layer_x0020_1">
  <metadata id="CorelCorpID_0Corel-Layer"/>
  <path class="fil0" d="M768.28 452.04c70.79,-43.7 192.04,-226.15 233.89,31.42l-186.46 -2.52c21.34,60.84 195.76,23.58 307.51,31.44 109.61,7.71 221.56,7.87 331.87,10.59l5.95 186.9 -599.13 5.74c-13.63,-22.99 -23.88,-43.39 -44.31,-61.15 4.95,3.22 29.88,-48.58 10.57,21.14 -13.43,48.46 2.02,10.44 -24.4,45.3 -202.74,-24.94 -529.93,32.02 -716.25,-18.87l-3.06 -176.87c111.5,-24.39 495.35,2.13 560.37,-7 47.95,-6.73 -15.41,8.24 33.61,-7.04 44.52,-13.88 16.3,0.43 45.62,-23.54l-162.15 -14.71c-6.12,-65.21 -3.32,-129.68 79.72,-120.57 62.26,6.83 68.96,60.93 126.64,99.74zm-677.59 -80c184.35,-54.8 82.72,10.21 199.29,21.53 120.22,11.67 55.61,-75.11 212.25,-20.76l15.96 100.54 -430.7 2.17 3.21 -103.47zm737.54 -61.47c12.63,57.35 -7.33,67.15 -34.72,98.96 -105.4,-42.85 -140.08,-154.01 34.72,-98.96zm-111.02 -240.41c114.56,-98.05 188.5,99.56 109.88,166.81 -83.93,71.79 -215.56,-76.35 -109.88,-166.81zm-474.63 5.18c118.22,-113.45 208.16,84.24 106.57,162.63 -71.75,55.36 -155.47,-30.16 -141.6,-108.96 12.64,-71.79 23.22,-42.33 35.03,-53.67zm-190.77 945.53c45.11,4.05 1.61,20.22 33.55,-10l1.28 -243.51c120.53,-34.83 1174,-15.54 1374.59,-8.95 1.27,73.07 -16.34,219.8 16.93,276.87 104.8,-96.69 -53.74,-416.97 67.98,-538.64 -101.8,-87 13.91,-147.49 -142.31,-173.22l-82.22 -21.74c38.99,47.31 11.04,36.56 63.07,56.12l66.33 21.47 10.07 95.29 -178.22 -3.96 -70.81 1.87 -185.54 12.13c13.84,-179.91 40.64,-147.98 167.45,-99.31l53.5 5.5c-8.15,-3.91 -40.09,-14.39 -47.68,-21.14 -50.98,-45.38 -5.57,28.37 -40.08,-67.96 97.89,-12.02 67.46,-14.3 93.54,-46.55l-71.04 -22.48c-29.93,10.8 -35.83,-26.17 -16.38,29.69 -30.83,49.32 -76.73,76.3 -149.07,76.04 -37.04,-0.14 -124.26,-29.89 -155.93,-54.52 23.57,-65.45 84.24,-145.71 17.02,-232.15 -66.67,-85.74 -164.11,-32.33 -209.67,0.65 -41.7,128.15 -7.2,132.73 25.38,232.82 -105.25,65.43 -206.31,71.76 -311.44,-0.56 32.26,-95.52 107.63,-264.28 -75.6,-274.77 -192.74,-11.03 -124.45,174.98 -89.94,274 -104.31,80.4 -116.53,-16.48 -168.55,143.59 -23.7,72.93 20.54,22.19 -42.82,69.19 3.31,3.09 8.76,2.92 10,9.19l17.38 20.79c34.57,65.73 16.69,410.42 19.26,494.25z"/>
  <path class="fil0" d="M1286.98 1189.82c72.8,-22.18 44.27,-60.56 126.95,-27.06 48.52,19.66 45.63,49.13 45.1,114.61l-431.24 3.03 3.28 -101.31c7.28,-6.88 43.28,-18.26 63.03,-20.83 97.81,-12.7 25.96,-5.81 66.21,10.09 44.61,17.61 56.85,42.74 126.67,21.47zm-498.94 69.31c21.57,-104.47 197.7,-195.01 198.56,20.01 -36.88,-0.47 -82.61,4.93 -113.02,4.46 -37.46,-0.57 -18.94,1.45 -53.13,-6.33l-32.41 -18.15zm-229.59 18.02c1.68,-164.87 105.55,-129.11 157.62,-90.11 54.31,40.68 29.45,-6.15 39.19,72.1 -53.42,37.47 -126.39,26.03 -196.8,18.02zm636.16 -410.37c125.86,-86.19 195.46,109.98 102.47,176.24 -99.18,70.67 -211.38,-101.67 -102.47,-176.24zm-390.98 191.57c-185.33,-4.29 -156.22,-205.13 -53.91,-214.99 130.96,-12.62 146.37,129.13 53.91,214.99zm-305.74 86.22l-42 9.42c63.16,36.24 59.42,44.16 59.53,122.2l-403.78 11.91c-27.75,-23.26 -33.96,32.69 -21.18,-33.41 -5.8,3.74 -12.97,6.48 -18.37,9.55 -5.05,2.87 -12.44,14.35 -16.44,10.22 -3.76,-3.87 -10.26,6.6 -14.52,10.9l-41.13 25.99c72.73,21.05 27.59,6.93 72.09,79.91 13.62,-71.11 -2.09,-42.89 39.55,-93.65 337.2,55.86 1163.19,-21.76 1350.64,32.44l4.95 188.61c-36.76,2.08 -1324.76,15.04 -1362.12,-4.64l-47.59 -67.05c-8.99,77.63 -16.08,41.61 12.15,111.52l1424.17 -2.41c21.39,-100.25 -6.43,-141.3 28.51,-235.02 12.33,-33.06 -26.24,-136.94 -37.9,-175.08l-149.51 -45.8c0.01,-0.04 135.69,-291.67 -87.33,-289.57 -222.11,2.09 -90.61,280.79 -89.41,289.41 -152.83,46.02 -132.75,69.1 -295.74,-4.19 6.52,-88.67 113.22,-167.68 -16.95,-268.04 -91.52,-24.63 -160.83,-4.57 -187.69,70.98 -33.9,95.35 19.46,130.85 29.48,190.8 -59.3,36.59 -142.28,58.32 -189.39,55z"/>
  <path class="fil0" d="M233.21 1114.99c98.49,-21.38 130,-8.33 91.07,90.73 -48.68,-5.52 -31.67,10.01 -64.2,-23.64 -43.23,-44.72 -14.64,-35.41 -26.88,-67.09zm108.35 -53.89c-216.9,-37.7 -155.65,-233.32 14.47,-202.93 49.44,70.46 28.44,137.09 -14.47,202.93zm-300.43 224.26c4.26,-4.3 10.76,-14.77 14.52,-10.9 4,4.12 11.39,-7.35 16.44,-10.22 5.4,-3.07 12.57,-5.81 18.37,-9.55l-10.99 -48.35c94.93,-56.27 57.34,-101.41 158.48,-1.8 18.11,17.84 43.04,34.93 68.91,48.26 66.21,-39.12 62.9,-12.49 97.73,-96.7l51.3 -2.12 42 -9.42c-39.9,-43.35 -45.12,-16.74 -113.14,-51.16 16.63,-77.41 21.44,8.31 47.41,-85.87 10.06,-36.5 4.19,-78.57 -8.71,-112.58 -26.05,-68.68 -90.07,-93.21 -169.83,-85.1 -173.04,91.92 -46.66,190.28 -48.05,285.25 -121.36,78.17 -150,-27.39 -164.43,190.26z"/>
  <path class="fil0" d="M1165.81 262.34c-19.45,-55.86 -13.56,-18.89 16.38,-29.69 -15.52,-55.63 -21.54,-76.18 -5.81,-143.85 71.19,-38.18 -2.02,-26.01 88.82,-45.18 86.57,76.91 87.85,138.02 -11.97,211.51 -26.07,32.24 4.35,34.53 -93.54,46.55 34.51,96.33 -10.9,22.58 40.08,67.96 7.59,6.75 39.53,17.24 47.68,21.14l-53.5 -5.5c2.09,2.36 25.62,35.96 30,40.43l-11.91 46.74 70.81 -1.87 -21.98 -71.02c41.24,-1.94 38.52,-0.02 68.56,-11.85 63.54,-25.02 -14.62,-1.06 55.24,-29.92 -52.03,-19.56 -24.07,-8.81 -63.07,-56.12l82.22 21.74c-78.16,-70.63 -42.63,-9.23 -57.29,-57.3 48.54,-43.85 40.96,-148.85 31.81,-210.15 -50.31,-20.92 -88.66,-85.58 -201.13,-40.12 -70.27,28.4 -79.16,81.78 -67.02,156.35 9.96,61.16 12.36,61.43 55.6,90.14z"/>
  <path class="fil0" d="M793.51 409.54c27.39,-31.81 47.36,-41.62 34.72,-98.96 -174.81,-55.04 -140.13,56.12 -34.72,98.96z"/>
  <path class="fil0" d="M324.29 1205.72c38.93,-99.06 7.42,-112.11 -91.07,-90.73 12.24,31.69 -16.35,22.37 26.88,67.09 32.53,33.65 15.52,18.12 64.2,23.64z"/>
  <path class="fil0" d="M248.4 639.17c22.87,-11.94 36.62,-31.83 54.7,-49.89 5.81,-5.8 55.57,-55.67 44.8,-14.67 -3.19,12.12 -86.7,91.2 -99.51,98 -17,-5.18 -56.06,-41.67 -57.67,-53.9 -5.79,-44.12 43.05,12.91 57.67,20.46zm0 -18.44c-28.46,-11.19 -36.83,-53.07 -70,-16.15 -3.81,29.14 11.46,36.06 25.44,49.89 50.24,49.72 44.19,41.14 105.85,-20.92 8.97,-9.02 50.23,-44.65 52.91,-56.47 5.98,-26.37 -18.4,-52.02 -57.05,-12.31 -18.27,18.78 -37.83,40.12 -57.15,55.96z"/>
  <path class="fil0" d="M766.09 633.8c22.87,-11.94 36.62,-31.83 54.7,-49.89 5.81,-5.8 55.57,-55.67 44.8,-14.67 -3.19,12.12 -86.7,91.2 -99.51,98 -17,-5.18 -56.06,-41.67 -57.67,-53.9 -5.79,-44.12 43.05,12.91 57.67,20.46zm0 -18.44c-28.46,-11.19 -36.83,-53.07 -70,-16.15 -3.81,29.14 11.46,36.06 25.44,49.89 50.24,49.72 44.19,41.14 105.85,-20.92 8.97,-9.02 50.23,-44.65 52.91,-56.47 5.98,-26.37 -18.4,-52.02 -57.05,-12.31 -18.27,18.78 -37.83,40.12 -57.15,55.96z"/>
  <path class="fil0" d="M1254.96 632.81c22.87,-11.94 36.62,-31.83 54.7,-49.89 5.81,-5.8 55.57,-55.67 44.8,-14.67 -3.19,12.12 -86.7,91.2 -99.51,98 -17,-5.18 -56.06,-41.67 -57.67,-53.9 -5.79,-44.12 43.05,12.91 57.67,20.46zm0 -18.44c-28.46,-11.19 -36.83,-53.07 -70,-16.15 -3.81,29.14 11.46,36.06 25.44,49.89 50.24,49.72 44.19,41.14 105.85,-20.92 8.97,-9.02 50.23,-44.65 52.91,-56.47 5.98,-26.37 -18.4,-52.02 -57.05,-12.31 -18.27,18.78 -37.83,40.12 -57.15,55.96z"/>
  <path class="fil1" d="M202.55 1352.82c0,5.35 2.48,7.83 6.54,10.34l13.58 7.15c7.65,3.79 15.73,8.76 22.56,13.82 1.43,1.06 5.22,3.43 6.02,4.59 -3.05,2.02 -5.65,4.61 -8.45,6.95l-10.11 9.08c-2.41,1.9 -8.76,8.77 -11.08,11.62 -0.33,0.4 -0.51,0.52 -0.86,0.91 -0.42,0.46 -0.39,0.52 -0.78,0.98 -6.87,8.09 -17.42,22.61 -17.42,33.46 0,5.22 0.43,8.71 2.7,13.15 1.16,2.26 4.01,5.69 7.19,5.69 2.96,0 5.05,-0.4 7.17,-2.44 1.5,-1.45 2.19,-2.42 3.38,-4.19 4.6,-6.82 8.35,-16.78 13.49,-24.3 3.27,-4.79 5.64,-8.63 9.29,-13.65 4.73,-6.51 9.96,-12.74 15.3,-18.74 0.69,-0.77 1.21,-1.13 1.84,-1.94 0.35,-0.46 3.46,-3.77 3.8,-4.02 2.85,1.89 13.98,13.22 16.55,15.76 2.06,2.04 3.75,4.27 5.83,6.28l3.81 4.27c0.5,0.52 0.5,0.6 0.91,1.1l2.79 3.26c6.77,8.27 13.35,16.68 19.36,25.52 0.61,0.9 0.95,1.52 1.61,2.42 0.66,0.89 1,1.54 1.58,2.45 0.96,1.53 3.61,6.12 4.93,7.17 1.69,1.34 6.49,1.94 7.36,-0.66 0.48,-1.43 -2.54,-7.48 -3.25,-9.18 -2.08,-4.96 -5.58,-12.45 -8.37,-17.07l-17.79 -29.09 -8.84 -12.33c-1.31,-1.72 -2.44,-3.13 -3.73,-4.84l-5.73 -7.13c-0.61,-0.76 -1.18,-1.64 -2.06,-2.22 0.78,-1.16 1.85,-1.91 2.97,-2.84l4.57 -4c7.52,-7.08 27.59,-21.06 35.37,-26 0.63,-0.4 1.15,-0.67 1.73,-1.05 1.86,-1.22 3.85,-1.88 4.72,-4.11 0.8,-2.05 1.16,-5.48 -1.58,-6.05 -0.86,-0.18 -1.31,0.19 -2.23,0.53 -8.28,3 -16.03,7.11 -23.91,10.97 -0.83,0.41 -1.2,0.61 -1.97,1.07l-31.09 18.93c-2.94,-4.35 -16,-15.35 -21.52,-19.37 -2.64,-1.93 -5.33,-3.83 -8.24,-5.4 -4.66,-2.51 -9.2,-4.68 -14.47,-6.01 -6.69,-1.69 -16.13,-0.58 -21.15,4.48 -0.97,0.98 -2.34,2.91 -2.34,4.72z"/>
  <path class="fil0" d="M763.33 1429.19c22.87,-11.94 36.62,-31.83 54.7,-49.89 5.81,-5.8 55.57,-55.67 44.8,-14.67 -3.19,12.12 -86.7,91.2 -99.51,98 -17,-5.18 -56.06,-41.67 -57.67,-53.9 -5.79,-44.12 43.05,12.91 57.67,20.46zm0 -18.44c-28.46,-11.19 -36.83,-53.07 -70,-16.15 -3.81,29.14 11.46,36.06 25.44,49.89 50.24,49.72 44.19,41.14 105.85,-20.92 8.97,-9.02 50.23,-44.65 52.91,-56.47 5.98,-26.37 -18.4,-52.02 -57.05,-12.31 -18.27,18.78 -37.83,40.12 -57.15,55.96z"/>
  <path class="fil0" d="M1221.43 1422.02c22.87,-11.94 36.62,-31.83 54.7,-49.89 5.81,-5.8 55.57,-55.67 44.8,-14.67 -3.19,12.12 -86.7,91.2 -99.51,98 -17,-5.18 -56.06,-41.67 -57.67,-53.9 -5.79,-44.12 43.05,12.91 57.67,20.46zm0 -18.44c-28.46,-11.19 -36.83,-53.07 -70,-16.15 -3.81,29.14 11.46,36.06 25.44,49.89 50.24,49.72 44.19,41.14 105.85,-20.92 8.97,-9.02 50.23,-44.65 52.91,-56.47 5.98,-26.37 -18.4,-52.02 -57.05,-12.31 -18.27,18.78 -37.83,40.12 -57.15,55.96z"/>
 </g>
</svg>
