<?xml version="1.0" encoding="UTF-8"?>
<!DOCTYPE svg PUBLIC "-//W3C//DTD SVG 1.1//EN" "http://www.w3.org/Graphics/SVG/1.1/DTD/svg11.dtd">
<!-- Creator: CorelDRAW -->
<svg xmlns="http://www.w3.org/2000/svg" xml:space="preserve" width="100%" height="100%" version="1.1" style="shape-rendering:geometricPrecision; text-rendering:geometricPrecision; image-rendering:optimizeQuality; fill-rule:evenodd; clip-rule:evenodd"
viewBox="0 0 1393.15 1058.25"
 xmlns:xlink="http://www.w3.org/1999/xlink"
 xmlns:xodm="http://www.corel.com/coreldraw/odm/2003">
 <defs>
  <style type="text/css">
   <![CDATA[
    .fil0 {fill:#003399}
   ]]>
  </style>
 </defs>
 <g id="Layer_x0020_1">
  <metadata id="CorelCorpID_0Corel-Layer"/>
  <path class="fil0" d="M276.38 902.91c-27.44,-105.02 26.44,-112.09 124.7,-111.34 134.93,1.04 683.79,-11.36 734.04,6.81 -3.6,55.51 0.54,46.07 -65.09,45.96 -124.94,-0.21 -658.15,-15.43 -697.48,9.63 24.22,30.98 129.66,16.86 184.59,16.86l411.46 -0c166.74,-0.12 157.15,-19.65 167.93,38.73 -27.57,19.58 -62.41,14.27 -101.02,13.79 -160.88,-1.98 -680.06,19.35 -759.13,-20.43zm868.89 -141.65c-173.9,10.41 -539.38,2.75 -743.93,1.58 -91.34,-0.52 -161.33,0.94 -163.11,91.5 -2.87,146.72 274.73,96.79 396.75,96.79 165.03,0 349.57,-7.7 512.22,1.88l25.66 72.6c-182.02,11.16 -395.58,1.25 -582.36,1.25 -174.98,0 -422.61,42.39 -430.07,-162.88 -8.14,-223.96 260.43,-178.47 407.83,-178.47l605.24 0 -28.23 75.74zm-888.38 -236.33c-86.39,0.03 -160.2,15.63 -179.63,-26.74 42.36,-26.65 654.13,-11.86 724.54,-12.01 59.87,-0.12 179.95,-19.67 175.97,55.42 -3.86,73 -132.58,49.73 -198.22,49.7 -82.81,-0.04 -633.51,9.52 -685.5,-6.51 -2.22,-0.68 -6.8,-0.5 -8.35,-4.17 -1.55,-3.66 -5.66,-2.66 -8.07,-4.61 17.11,-32.6 -11.92,-12.73 34.67,-22.82 60.31,-13.06 688.6,23.32 759.32,-10.54 -22.02,-28.7 -46.55,-18.79 -91.58,-18.14l-523.14 0.4zm-207.57 -94.09c17.85,-12.29 1.41,-10.7 40.76,-10.7l822.91 0c119.23,0 191.45,95.16 122.04,189.04 -52.22,70.63 -201.73,45.78 -299.96,45.78 -49.73,0 -641.7,17.22 -682.1,-12.24 39.17,-50.78 194.81,-23.66 259.52,-23.66l545.11 0.21c96.75,0.56 168.13,1.06 141.72,-120.78 -48.41,-56.37 -109.64,-40.05 -208.65,-39.99l-511.54 0c-65.79,0 -193.58,23 -229.81,-27.67zm1191.36 597.04c-8.82,0.12 -17.59,0.1 -26.22,-0.15 -119.39,-161.64 3.1,-315.57 -4.26,-369.93l-169.96 -0.7c177.62,-331.59 -222.51,-259.78 -331.85,-266.4 1.74,-1.59 3.61,-3.59 5.57,-5.96 -40.8,8.15 -82.53,9.94 -125.92,7.74 -29.14,-1.48 -31.83,-4.7 -63.18,-1.52 -24.85,2.52 -49.29,2.85 -73.6,1.12 -26,2.35 -52.2,2.31 -78.15,-0.11l-373.11 2.15c15.73,61.73 52.61,57.56 50.57,148.53 -1.85,82.56 -44.75,93.03 -45.47,142l209.9 0.73c-17.57,28.81 -10.27,14.85 -31.93,39.57 -15.18,17.32 -17.06,17.79 -27.98,38.38 -51.18,96.52 -15.58,207.87 65.76,263.61 -18.91,1.1 -45.78,-0.5 -62.46,0.83 9.71,9.86 18.88,19.91 27.49,30.19 18.32,-0.43 43.05,-1.37 82.11,-0.89l500.42 1.17c53.91,0 300.29,-8.21 471.7,-2.38 0,-9.35 0.12,-18.64 0.55,-27.99z"/>
  <polygon class="fil0" points="718.21,455.52 832.16,405.94 810.09,393.73 467.59,207.57 356.45,258.87 "/>
  <path class="fil0" d="M916.28 542.67l91.59 50.8c-59.34,9.17 -30.2,-2.25 -54.86,25.11l-93.63 -49.88 -12.91 5.94 30.72 18.29c-69.83,25.06 -142.69,-5.89 -127.6,-38.53 11.02,-23.83 112.81,-62.54 157.17,-82.83 116.11,-53.1 250.04,-120.57 370.18,-168.51 39.33,15.42 87.42,42.25 99.37,60.74 -32.34,22.27 -355.17,170.29 -411.3,190.33l-35.95 -17.82 -12.77 6.36zm232.76 -311.76l114.43 63.04c-62.78,35.19 -337.53,155.82 -440.95,202.97 -88.52,40.36 -60.45,24.86 -97.31,67.98 -124.42,-59.49 -334.1,-181.4 -470.66,-255.01 -116.16,-62.61 -27.11,-50.59 -34.52,-88.03 -92.47,37.78 -17.34,74.91 50.72,111.9l415.34 225.8c50.13,27.25 87.41,58.8 160.69,51.42 59.15,-5.96 24.41,-20.93 113.86,26.14 17.71,-10.76 17.73,-18.59 22.58,-29.09l62.07 -8.94 -63.37 -36.62c82.3,-47.09 251.59,-116.87 350.8,-161.7 88.03,-39.79 72.9,-45.02 -0.55,-84.69 -52.09,-28.13 -351,-188.76 -402.91,-216.97 -20.16,-5.94 241.16,127.16 219.77,131.8z"/>
  <path class="fil0" d="M912.12 102.8c21.8,4.26 218.77,132.43 236.92,128.11 -24.98,-21.11 -315.07,-185.51 -351.57,-205.57 -60.61,-33.31 -77.4,-33.74 -147.19,-1.52 -100.99,46.62 -212.5,101.35 -317.38,144.34 21.31,6.22 5.65,6.69 28.57,1.04 69.26,-31.67 313,-152.11 369.12,-160.43 44.18,13.22 140.06,71.42 181.53,94.03z"/>
  <path class="fil0" d="M857.58 361.62c23.67,2.93 26.11,-3.23 49.57,-14.19 40.13,-18.74 134.57,-54.87 129.69,-69.72 -49.89,18.41 -143.93,59.88 -179.26,83.9z"/>
  <path class="fil0" d="M966.99 343.74l-72.85 37.54c16.35,-1.33 -10.43,10.44 26.41,-2.55l74 -38.18c-15.98,-2.19 3.32,-7.88 -27.56,3.18z"/>
 </g>
</svg>
