<?xml version="1.0" encoding="UTF-8"?>
<!DOCTYPE svg PUBLIC "-//W3C//DTD SVG 1.1//EN" "http://www.w3.org/Graphics/SVG/1.1/DTD/svg11.dtd">
<!-- Creator: CorelDRAW -->
<svg xmlns="http://www.w3.org/2000/svg" xml:space="preserve" width="100%" height="100%" version="1.1" style="shape-rendering:geometricPrecision; text-rendering:geometricPrecision; image-rendering:optimizeQuality; fill-rule:evenodd; clip-rule:evenodd"
viewBox="0 0 1725.82 1806.82"
 xmlns:xlink="http://www.w3.org/1999/xlink"
 xmlns:xodm="http://www.corel.com/coreldraw/odm/2003">
 <defs>
  <style type="text/css">
   <![CDATA[
    .fil0 {fill:#003399}
   ]]>
  </style>
 </defs>
 <g id="Layer_x0020_1">
  <metadata id="CorelCorpID_0Corel-Layer"/>
  <path class="fil0" d="M1415.28 1581.43c0,-71.22 17.61,-86.6 89.89,-86.6l106.57 -0.14 56.02 4.49 -251.8 243.69 -0.69 -43.16 0 -118.28zm-792.42 -415.5l-0.88 -11.49c10.76,-118.45 -22.8,-652.96 21.2,-705.75 32.82,-40.92 127.8,-24.29 187.74,-24.26 118.94,0.06 550.88,-8.28 609.21,6.18l0.68 178.73c-54.26,-33.61 -45.72,-69.65 -117.69,-86.26 18.08,54.24 91.53,123.34 134.82,144.91 38.79,-25.59 114.17,-93.8 132.24,-142.8 -63.02,15.06 -53.5,51.63 -118.13,84.66l-0.48 -184.22c65.16,-2.77 162.8,-18.29 211.26,20.37 30.37,60.07 17.43,886.54 11.34,1017.45 -339.9,20.76 -308.68,-62.75 -308.68,309.15 -105.71,10.56 -680.92,13.5 -751.78,-9.74l-6.26 -112.23c39.33,-0.49 74.91,5.44 106.78,-10.05 -18.06,-34.09 -60.27,-20.19 -108.24,-20.76l-3.11 -453.87zm-612.63 -1014.78c28.33,-13.99 8.34,34.67 37.46,-109.51 77.81,-23.46 989.81,-25.43 1028.43,3.48 34.94,27.37 35.49,59.63 20.86,122.65 -38.7,0.6 -77.8,-2.99 -103.59,18.01 32.17,19.43 63.69,13.18 109.01,13.8l1.11 153.65c12.39,6.63 -20.16,17.47 29.11,4.28l3.06 -158.86c85.97,0.54 143.08,9.37 197.8,52.54 38.45,30.33 85.98,84.38 93.2,139.9 -140.05,16.01 -363.83,2.85 -512.96,2.85 -325.96,0 -318.11,-27.48 -317.46,193.94 1.02,341.9 6.6,691.19 -0.76,1032.29 -170.64,-0.44 -266.1,-65.56 -298.91,-207.95 44.67,-2.37 309.18,13.84 258,-24.88l-265.7 -10.47 -2.01 -176.46c106.75,52.66 37.49,83.32 115.26,93.85 -4.06,-25.99 -99.65,-117.01 -127.28,-143.85 -38.83,22.44 -50.48,42.37 -78.11,69.14 -25.42,24.64 -47.93,33.78 -52.75,77.34 53.66,-21.68 58.15,-56.84 112.59,-89.26l1.44 168.46c-52.46,8.51 -177.29,20.13 -208.78,-19.39 -37.05,-56.89 -15.34,-811.7 -15.57,-946.19 -8.05,-37.86 6.13,-12.88 -23.31,-24.8 -18.94,65.18 -6.22,531.5 -6.22,639.83 0,427.43 -38.9,382.52 261.76,385.13 29.41,157.04 147.69,238.31 328.88,239.56 7.71,184.07 44.06,154.94 224.27,154.84l556.63 0.73c59.17,-3.96 70.31,-35.11 105.87,-70.54 63.72,-63.48 118.89,-120.01 183.51,-183.22 37.36,-36.55 60.83,-46.33 60.73,-123.53l-0.34 -923.71c-3.81,-149.55 -119.66,-106.32 -255.7,-112.11 -29.98,-40.16 -36,-109.21 -115.19,-162.86 -65.62,-44.46 -125.88,-61.02 -221.31,-61.35 0,-181.09 -20.47,-168.52 -195.87,-168.17l-733.52 0c-121.78,-0.2 -238.11,-6.77 -193.66,150.84z"/>
  <path class="fil0" d="M621.98 1154.44l0.88 11.49c67.91,-3.22 30.28,0.65 47.67,13.36 6.32,44.39 -6.59,75.44 18.43,89.72 3.5,-16.15 0.15,-34.99 1.94,-42.66 11.2,-47.71 3.24,-32.05 28.3,-55.12 24.55,66.67 27.89,53.74 5.52,138.06l521.47 3.04c103.72,-8.31 47.78,9.35 69.73,-50.18l-180.69 -10.38c26.7,-27.58 14.02,-50.44 6.9,-84.36 57.83,0 383.35,8.52 422.15,-5.27 26.99,-9.59 13.8,-2.57 32.38,-18.32 -48.51,-44.72 -360.13,-23.59 -422.65,-23.59 -141.96,0 -283.93,0 -425.9,0 -46.48,46.63 -29.46,12.85 -37.72,58.7l-23.75 -9.65c-3.16,-1.08 -17.71,-6.52 -21.89,-7.68 -20.69,-5.73 -8.76,-5.54 -42.77,-7.15z"/>
  <path class="fil0" d="M767.5 597.23l330.57 -4.04 6.56 82.07 -332.87 0.33 -4.26 -78.35zm-29.48 103.28c63.41,11.16 339.76,13.8 392.09,-2.72l2.48 -125.79c-52.87,-16.66 -332.99,-14.41 -391.3,-2.84l-3.27 131.35z"/>
  <path class="fil0" d="M740.65 1474.98c20.13,35.05 57.72,19.76 161.25,19.76 92.48,-0.01 151.88,15.01 171.68,-19.76 -31.72,-16.82 -301.02,-16.31 -332.93,0z"/>
 </g>
</svg>
