<?xml version="1.0" encoding="UTF-8"?>
<!DOCTYPE svg PUBLIC "-//W3C//DTD SVG 1.1//EN" "http://www.w3.org/Graphics/SVG/1.1/DTD/svg11.dtd">
<!-- Creator: CorelDRAW -->
<svg xmlns="http://www.w3.org/2000/svg" xml:space="preserve" width="100%" height="100%" version="1.1" style="shape-rendering:geometricPrecision; text-rendering:geometricPrecision; image-rendering:optimizeQuality; fill-rule:evenodd; clip-rule:evenodd"
viewBox="0 0 393.7 408.7"
 xmlns:xlink="http://www.w3.org/1999/xlink"
 xmlns:xodm="http://www.corel.com/coreldraw/odm/2003">
 <defs>
  <style type="text/css">
   <![CDATA[
    .fil0 {fill:#404E57}
    .fil1 {fill:#63B4F5}
    .fil2 {fill:#ED5250}
    .fil3 {fill:#FEC828}
   ]]>
  </style>
 </defs>
 <g id="Layer_x0020_1">
  <metadata id="CorelCorpID_0Corel-Layer"/>
  <g id="_105553482853856">
   <path class="fil0" d="M231.04 398.15l8.05 -40.1 22.63 9.37c-4.39,9.3 -6.66,9.43 -13.85,16.67 -7.12,7.17 -7.53,9.41 -16.82,14.06zm108.46 -124.18l-103.79 73.83c-7.87,9.45 -5.36,32.3 -13.29,43.97l-13.22 -54.55 130.3 -63.25zm-8 118.83c-19.13,-3.62 -65.61,-31.65 -86.72,-40.83 4.36,-6.35 25.64,-20.2 33.93,-25.83l108.28 -74.61 -55.49 141.26zm-174.49 -86.87c7.95,-7.55 190.86,-51.64 206.31,-53.26 -6.68,4.2 -148.41,76.2 -156.45,77.01 -8.39,0.85 -43.85,-17.62 -49.86,-23.75zm66.5 102.78c16.11,-0.53 33.08,-27.47 45.76,-36.03 19.79,5.5 46.18,26.94 64.73,26.98 5.43,-6.61 63.48,-142.54 59.51,-158.58 -15.9,-3.52 -236.03,53.21 -240.05,57.11 -15.15,14.73 18.27,24.42 27.38,28.93 24.93,12.33 19.45,5.72 26.89,34.65 4.09,15.92 5.92,37.54 15.79,46.94z"/>
   <path class="fil1" d="M386.98 251.53l-108.28 74.61c-8.28,5.63 -29.57,19.48 -33.93,25.83 21.11,9.18 67.59,37.21 86.72,40.83l55.49 -141.26z"/>
   <path class="fil0" d="M103.27 233.58l17.63 -8.25 10.63 31c-8.61,-4.68 -22.37,-15.52 -28.26,-22.75zm-58.33 -72.87l110.5 41.93 -15.4 52.22c-8.76,-13.71 -11.8,-26.3 -10.74,-39.99l-84.37 -54.16zm-38.19 -12.64c7.6,1.54 105.95,62.87 110.56,69.06 -5.11,5.17 -66.48,36.52 -75.29,38.71l-35.27 -107.76zm188.21 22.43c-4.93,12.12 -32.57,25.13 -36.24,25.4 -5.67,0.43 -114.36,-40.76 -124.65,-49.4l160.89 24zm-154.83 90.61c14.11,4.28 39.85,-17.39 54.17,-22.49 15.46,6.57 30.39,29.87 46.78,27.94 10.14,-10.38 12.95,-34.82 17.17,-49.8 9.61,-34.11 94.68,-43.81 4.49,-57.83 -20,-3.11 -40.33,-6.02 -60.44,-9.04 -20.69,-3.1 -40.36,-6.16 -61.04,-9.29 -22.31,-3.38 -49.63,-14.68 -38.84,17.37l32.76 96.73c0.29,0.55 0.68,1.26 0.99,1.76l3.95 4.66z"/>
   <path class="fil2" d="M6.75 148.07l35.27 107.76c8.81,-2.19 70.18,-33.54 75.29,-38.71 -4.61,-6.19 -102.96,-67.52 -110.56,-69.06z"/>
   <path class="fil0" d="M71.41 70.13c6.44,-11.23 46.69,-50.44 56.13,-55.15 2.14,60.33 4.76,57.18 -56.13,55.15zm-13.78 12.44l0 43.06c0,12.15 -1.24,7.26 4.38,11.02 7.1,-14.48 1.44,-41.63 3.02,-59.34 78.35,0 69.63,8.47 69.63,-69.74 39.92,-2.49 137.28,-0.57 183.06,-0.56 28.47,0 21.02,17.95 21,43.27 -0.03,31.41 -3.34,184.42 3.22,192.56 4.99,-5.5 3.62,-2.69 3.62,-12.27l0 -201.82c0,-17.69 -3.6,-27 -20.06,-28.46l-150.44 -0.06c-59.28,0 -39.5,-6.71 -97.71,51.91 -9.4,9.46 -19.72,14.12 -19.72,30.43z"/>
   <path class="fil1" d="M157 305.92c6.01,6.13 41.47,24.6 49.86,23.75 8.04,-0.81 149.77,-72.81 156.45,-77.01 -15.45,1.62 -198.36,45.71 -206.31,53.26z"/>
   <path class="fil2" d="M194.96 170.49l-160.89 -24c10.3,8.64 118.98,49.83 124.65,49.4 3.66,-0.28 31.31,-13.28 36.24,-25.4z"/>
   <path class="fil3" d="M266.5 142.57c0,-10.12 -1.75,-22.68 2.76,-29.88 0.46,0.5 1,1.24 1.2,1.65 5.41,11.11 1.54,14.18 3.49,28.16 12.28,1.64 7.2,-2.55 14.39,-13.85 3.7,-5.82 8.61,-9.78 9.66,-19.74 4.21,-39.97 -57.74,-42.16 -56.45,-2.12 0.33,10.28 5.8,15.17 9.35,21.06 8.03,13.28 1.32,14.62 15.59,14.73z"/>
   <path class="fil0" d="M259.23 166.75l20.83 -0.07c-1.33,6.11 -0.42,9.41 -10.66,8.78 -10.24,-0.63 -8.07,-5.12 -10.18,-8.71zm-2 -15.48c33.39,0.18 22.54,-2.06 24.83,6.65 -4.36,2.17 -6.17,2.49 -12.88,2.39 -15.63,-0.24 -9.9,1.28 -11.96,-9.04zm9.27 -8.7c-14.27,-0.11 -7.56,-1.45 -15.59,-14.73 -3.56,-5.88 -9.02,-10.77 -9.35,-21.06 -1.28,-40.04 60.66,-37.85 56.45,2.12 -1.05,9.96 -5.96,13.92 -9.66,19.74 -7.19,11.3 -2.11,15.49 -14.39,13.85 -1.95,-13.98 1.91,-17.05 -3.49,-28.16 -0.2,-0.41 -0.74,-1.15 -1.2,-1.65 -4.52,7.2 -2.76,19.76 -2.76,29.88zm-10.2 -68.53c-24.28,10.99 -28.2,33.24 -11.43,57.1 10.45,14.87 1.95,23.23 6.95,38.99 3.45,10.89 17.72,17.07 29.76,8.25 10.64,-7.8 6,-22.19 8.21,-35.74 2.27,-13.85 12.44,-15.72 14.7,-30.68 4.18,-27.7 -21.86,-49.84 -48.19,-37.92z"/>
   <path class="fil1" d="M209.2 337.22l13.22 54.55c7.93,-11.67 5.41,-34.52 13.29,-43.97l103.79 -73.83 -130.3 63.25z"/>
   <path class="fil2" d="M129.31 214.86c-1.06,13.7 1.98,26.28 10.74,39.99l15.4 -52.22 -110.5 -41.93 84.37 54.16z"/>
   <path class="fil0" d="M197.49 348.98c-10.03,-7.62 -87.7,-3.97 -103.22,-3.86 -19.04,0.14 -22.41,2.59 -27.69,-6.47 -8.21,-18.83 5.31,-57.28 -4.57,-75.02 -9.58,5.07 -4.35,41.28 -4.41,53.09 -0.09,21.95 0.32,33.93 23.07,35.22l110.41 -0.37c10.17,-2.11 1.83,0 6.41,-2.59z"/>
   <path class="fil1" d="M231.04 398.15c9.29,-4.65 9.7,-6.88 16.82,-14.06 7.19,-7.25 9.46,-7.37 13.85,-16.67l-22.63 -9.37 -8.05 40.1z"/>
   <path class="fil2" d="M103.27 233.58c5.89,7.23 19.66,18.07 28.26,22.75l-10.63 -31 -17.63 8.25z"/>
   <path class="fil0" d="M299.59 68.22c8.43,-1.53 12.38,-5.01 13.03,-14.74 -7.53,2.73 -12.11,6.84 -13.03,14.74z"/>
   <path class="fil0" d="M239.84 68.65c-0.79,-9.7 -5.09,-12.91 -13.05,-14.79 0.91,8.24 5.86,11.85 13.05,14.79z"/>
  </g>
 </g>
</svg>
