<?xml version="1.0" encoding="UTF-8"?>
<!DOCTYPE svg PUBLIC "-//W3C//DTD SVG 1.1//EN" "http://www.w3.org/Graphics/SVG/1.1/DTD/svg11.dtd">
<!-- Creator: CorelDRAW -->
<svg xmlns="http://www.w3.org/2000/svg" xml:space="preserve" width="100%" height="100%" version="1.1" style="shape-rendering:geometricPrecision; text-rendering:geometricPrecision; image-rendering:optimizeQuality; fill-rule:evenodd; clip-rule:evenodd"
viewBox="0 0 393.7 498.63"
 xmlns:xlink="http://www.w3.org/1999/xlink"
 xmlns:xodm="http://www.corel.com/coreldraw/odm/2003">
 <defs>
  <style type="text/css">
   <![CDATA[
    .fil1 {fill:#404E57}
    .fil0 {fill:#63B4F5}
    .fil2 {fill:#FEC828}
    .fil3 {fill:white}
   ]]>
  </style>
 </defs>
 <g id="Layer_x0020_1">
  <metadata id="CorelCorpID_0Corel-Layer"/>
  <path class="fil0" d="M88.88 261.43c9.33,-5.5 199.51,-7.99 215.3,0 -9.49,11.13 -161.06,6.24 -194.84,6.15 -2.73,-0.01 -10.99,-0.08 -13.23,-0.71 -12.24,-3.45 -3.22,0.77 -7.23,-5.44zm0.19 -40.2c5.18,-11.72 32.94,-6.49 46.22,-6.47 32.27,0.05 154.76,-3.06 168.76,2.81 -7.24,11.69 -11.64,6.19 -48.13,6.21 -30,0.01 -154.93,3.01 -166.85,-2.56zm25.82 -65.78c8.98,-12.49 58.46,-5.53 78.88,-5.69 19.1,-0.15 74.27,-8.39 84.5,5.69 -10.76,5.59 -152.9,6.43 -163.38,0zm209.34 -100.83l-11.23 2.79 0.63 64.68c-16.97,0.35 -23.57,-13.91 -39.44,-21.04 -12.74,6.34 -20.77,19.62 -36.56,21.49 -5.51,-15.31 -3.28,-47.11 -1.13,-64.23l-11.56 -0.63c-1.33,8.22 3.9,2.55 -5.59,5.75 -30.77,0.05 -153.26,-4.09 -173.14,2.76l-0.76 349.9c18.22,5.29 269.61,4.28 301.02,1.52l1.65 -346.2c-4.12,-16.56 -15.57,3.33 -23.89,-16.78z"/>
  <path class="fil1" d="M244.64 108.04l-0.13 -96.04 60.45 -0.49 -0.09 96.22c-13.65,-4.94 -21.11,-17.09 -30.56,-16.98 -9.39,0.11 -16.48,11.82 -29.67,17.3zm-8.14 -49.74c-2.15,17.11 -4.37,48.91 1.13,64.23 15.78,-1.87 23.82,-15.15 36.56,-21.49 15.87,7.13 22.47,21.39 39.44,21.04l-0.63 -64.68 1.24 -45.28c86.58,-6.07 68.67,38.19 68.67,114.09 0,60.7 -0.92,122.11 0.03,182.72 3.32,213.37 19.98,179.01 -189.17,179.01 -213.09,0 -183.44,30.59 -183.44,-182.67 0,-60.91 0,-121.81 0,-182.72 0,-21.59 -3.78,-71.78 3.73,-88.31 16.57,-36.49 54.46,-13.48 64.79,-28.63 -25.38,-15.53 -64.49,4 -73.11,24.09 -9.2,21.46 -4.58,277.56 -4.58,312.12 0,182.15 -31.7,155.43 273.03,155.43 141.72,0 118.02,24.4 118.02,-312.57 0,-35.32 -0.09,-70.66 0.02,-105.98 0.11,-36.28 -2.18,-64.26 -33.01,-74.06 -19.24,-6.12 -196.1,-6.09 -209.48,0.97 7.11,10.26 61.28,5.54 85.65,5.99l1.12 46.7z"/>
  <path class="fil1" d="M324.23 54.61c8.32,20.12 19.77,0.23 23.89,16.78l-1.65 346.2c-31.41,2.76 -282.79,3.77 -301.02,-1.52l0.76 -349.9c19.89,-6.85 142.37,-2.71 173.14,-2.76 9.49,-3.2 4.26,2.46 5.59,-5.75 -9.28,-6.57 -171.61,-3.96 -176.24,-2.75 -13.21,3.46 -5.39,1.91 -9.39,5.2 -4.57,5.79 -12.39,357.6 4.84,364.91 13.31,5.65 53.64,2.75 69.2,2.75 39.35,0 232.48,5.6 241.24,-5.56 5.98,-7.64 2.77,-258.97 2.78,-303.33 0,-43.7 13.19,-66.75 -33.14,-64.29z"/>
  <path class="fil2" d="M244.64 108.04c13.19,-5.48 20.28,-17.19 29.67,-17.3 9.45,-0.11 16.91,12.05 30.56,16.98l0.09 -96.22 -60.45 0.49 0.13 96.04z"/>
  <path class="fil1" d="M88.88 261.43c4.01,6.21 -5.02,1.98 7.23,5.44 2.24,0.63 10.5,0.7 13.23,0.71 33.78,0.1 185.35,4.98 194.84,-6.15 -15.79,-7.99 -205.97,-5.5 -215.3,0z"/>
  <path class="fil1" d="M135.28 214.76c-13.27,-0.02 -41.04,-5.25 -46.22,6.47 11.92,5.57 136.85,2.57 166.85,2.56 36.49,-0.02 40.89,5.47 48.13,-6.21 -14,-5.87 -136.49,-2.77 -168.76,-2.81z"/>
  <path class="fil1" d="M193.77 149.76c-20.42,0.16 -69.9,-6.8 -78.88,5.69 10.48,6.43 152.61,5.59 163.38,0 -10.23,-14.08 -65.4,-5.84 -84.5,-5.69z"/>
  <path class="fil1" d="M176.24 455.12c6.76,-5.56 13.42,-8.37 28.61,-5.6 19.04,3.48 5.1,0.48 12.23,5.6 -3.49,13.24 -1.29,11.31 -19.61,11.57 -27.02,0.37 -16.45,-0.85 -21.22,-11.57zm-6.96 13.74c19.8,12.52 71.3,9.57 55.84,-19.86 -3.78,-7.19 -68.33,-25.36 -55.84,19.86z"/>
  <path class="fil3" d="M204.85 449.52c-15.19,-2.78 -21.85,0.04 -28.61,5.6 4.78,10.72 -5.8,11.94 21.22,11.57 18.32,-0.26 16.12,1.68 19.61,-11.57 -7.13,-5.12 6.81,-2.12 -12.23,-5.6z"/>
  <path class="fil1" d="M97.76 5.61c5.67,7.3 -0.66,5.81 15.61,6.29 14.53,0.43 12.96,1.41 17.41,-6.29 -10.35,-5.99 -23.69,-4.62 -33.03,0z"/>
 </g>
</svg>
