<?xml version="1.0" encoding="UTF-8"?>
<!DOCTYPE svg PUBLIC "-//W3C//DTD SVG 1.1//EN" "http://www.w3.org/Graphics/SVG/1.1/DTD/svg11.dtd">
<!-- Creator: CorelDRAW -->
<svg xmlns="http://www.w3.org/2000/svg" xml:space="preserve" width="100%" height="100%" version="1.1" style="shape-rendering:geometricPrecision; text-rendering:geometricPrecision; image-rendering:optimizeQuality; fill-rule:evenodd; clip-rule:evenodd"
viewBox="0 0 1560.95 1579.63"
 xmlns:xlink="http://www.w3.org/1999/xlink"
 xmlns:xodm="http://www.corel.com/coreldraw/odm/2003">
 <defs>
  <style type="text/css">
   <![CDATA[
    .fil0 {fill:#003399}
   ]]>
  </style>
 </defs>
 <g id="Layer_x0020_1">
  <metadata id="CorelCorpID_0Corel-Layer"/>
  <path class="fil0" d="M324.63 1179.83l-5.44 193.85c0,11.21 -0.02,22.37 -0.15,33.57 -0.18,16.26 4.94,11.61 21.87,11.56l665.12 -0c45.13,0 85.99,-1.67 132.02,-1.67l55.03 -182.16 20.31 -70.76 -15.09 -5.71 -25.95 -8.14 -58.12 -19.44 -22.62 -7.38 -36.61 104.86c-1.99,-50.94 -4.54,-104.19 -10.52,-153.86 -10.31,-85.7 -57.26,-100.56 -122.26,-121.73 -20.79,-6.77 -41.33,-13.91 -60.9,-20.95 -18.44,-6.63 -14.15,-1.96 -24.16,-17.65 -14.38,-22.54 -37.04,-48.27 -67.64,-53.53l1.63 14.41 7.46 29.93c5.39,9.33 -18.87,84.98 -23.08,99.43 -9.39,32.15 -21.24,65.15 -28.87,96.68l-43.3 140.58c-5.17,-6.78 -39.34,-123.86 -44.58,-142.14 -4.17,-19.92 -33.74,-114.17 -42.46,-146.78 -2.64,-9.85 -13.8,-40.9 -7.79,-48.71 3.33,-15.09 6.69,-26.61 8.3,-43.6 -50.57,9.44 -71.24,65.43 -79.01,70 -8.43,4.96 -42.75,14.79 -54.71,18.89 -47.13,16.19 -111.33,31.19 -127.14,95.06 -7.92,32 -11.33,100.85 -11.33,135.4z"/>
  <path class="fil0" d="M404.67 487.97c-8.39,38.87 -31.23,33.65 -59.91,52.27 -9.83,6.39 -25.84,22.75 -36.67,10.63 -9.75,-10.91 -9.57,-25.78 -14.86,-41.9 -4.8,-14.63 -16.3,-26.41 0.73,-36.26 20.43,-11.81 19.94,1.7 42.15,-14.64 6.73,-4.96 80.1,-23.55 68.56,29.9zm11.21 -26.58c-0.96,-3.89 -0.45,-8.21 -1.45,-11.64 -1.91,-6.54 -3.03,-3.5 -6.39,-7.45 -7.35,-8.65 2.33,-13.63 10.7,-8.93 12.89,7.24 17.41,33.91 -2.87,28.02zm-236.52 15.64l-11.24 0.01c-4.42,-12.64 -8.44,-42.18 8.09,-45.54 13.09,-2.66 6.18,11.53 3.99,17.72 -4.48,12.65 1.74,16.61 -0.84,27.81zm175.7 -56.8c4.89,0.07 8.11,2.42 12.29,4.46 6.22,3.03 8.72,3.37 8.6,11.92 -4.6,3.76 -6.69,5.14 -15.44,4.41 -4.72,-5.89 -9.02,-10.72 -5.45,-20.79zm42.68 4.76c5.07,4.91 4.81,6.56 0,11.68 -9.5,-1.89 -6.23,-9.39 0,-11.68zm-28.25 -19.25c4.02,-2.67 8.62,-2.92 12.09,-5.8 5.09,-4.22 2.11,-8.58 12.04,-6.44 3.82,6.32 0.15,20.8 -5.7,26.28 -8.69,8.15 -19.61,-0.31 -18.44,-14.04zm-50.14 -24.26c10.76,2.3 7.11,12.33 16.78,22.7 2.91,3.11 6.96,5.96 8.85,11.24 2.08,5.81 2.68,13.95 -2.69,15.49 -8.83,2.53 -15.06,-14.65 -18.33,-21.19 -4.59,-9.18 -11.96,-19.47 -4.62,-28.24zm-249.09 23.08c-12.38,-0.88 -22.17,24.28 -33.48,1.46 -9.73,-19.63 -19.64,-107.01 31.82,-108.44 19.21,-0.54 22.98,11.89 38.36,13.46 20.91,2.14 22.65,3.9 27.18,24.54 5.38,24.54 13.73,13.36 32.18,11.18 29.04,-3.43 16.57,50.06 -1.93,66.61 -8.07,7.22 -25.01,12.63 -24.42,27.75 1.02,25.96 27.65,17.63 -7.19,77.65 -4.95,8.53 -11.47,22.32 -27.28,0.76 -28,-38.18 -14.59,-42.17 -22.23,-54.69 -3.81,-6.23 -7.15,-5.62 -11.34,-15.42 -8.45,-19.78 1.2,-35.67 -1.66,-44.86zm309.35 -166.7c11.98,1.64 8.88,9.85 15.09,19.26 5.15,7.81 8.43,18.71 -3.65,22.2 -5.44,-3.73 -7.44,-12.89 -10.82,-19.54 -4.48,-8.81 -7.69,-14.22 -0.63,-21.91zm-103.86 370.41c30.24,-9.76 46.03,-12.8 72.41,-27.81 11.72,-6.67 19.73,-12.48 29.64,-20.5 48.87,-39.55 82.39,-101.35 85.1,-167.25 6.71,-28.35 -8.06,-84.95 -21.7,-111.97 -3.89,-7.7 -7.35,-14.7 -11.61,-21.82 -6.28,-10.52 -36.77,-52.33 -49.37,-55.05 -3.05,17.37 -11.45,28.04 -15.02,42.61 -7.44,30.37 20.91,19.82 19.33,92.82 -0.16,7.4 -9.45,30.64 -13.4,43.54 -6.4,20.88 -23.47,0.93 -31.89,-5.15 -26.36,-19.04 -16.61,-24.12 -26.01,-30.82 -6.88,-4.91 -17,-4.06 -20.59,2.61 -2.66,4.94 -2.93,16.49 -5.35,22.98 -3.98,10.66 -7.68,6.25 -14.83,13.63 -5.63,5.8 -6.34,11.99 -11.49,16.29 -6.82,-1.46 -7.74,-5.02 -11.19,-10.45 -19.68,-30.96 -8.57,-26.95 -14.01,-45.96 -4.24,-14.85 -20.29,-17.87 -32.11,-29.93 -3.19,-3.26 -11.32,-12.03 -12.94,-1.6 -0.46,2.93 -0.83,0.09 0.34,3.84 3.7,11.83 31.41,29.62 32.43,30.98 -1.81,5.56 -4.47,7.07 -9.63,11.6 -21.21,18.63 -20.8,-11.52 -33.16,-23.5 -13.41,-13.01 -17.73,-1.02 -34.18,-2.98 -11.57,-18.47 -2.23,-22.69 2.11,-38.73 12.83,-47.43 -51.61,-11.97 -46.49,-46.3 1.69,-11.3 13.63,-18.04 25.51,-21.31 -1.28,-7.23 -7.53,-13.2 -12.06,-21.08 -2.37,-4.12 -9.27,-18.19 -11.96,-20.71 -2.04,1.93 -3.72,2.8 -6.33,4.56 -16.32,11 -33.48,27.89 -45.72,42.91 -36.11,44.33 -51.43,91.41 -51.57,152.31 -0.24,106.47 78.54,197.84 184.52,221.57 25.81,5.78 42.38,5.2 67.82,4.04 7.73,-0.35 16.11,-2.72 23.4,-3.36z"/>
  <path class="fil0" d="M1150.3 485.07c-12.47,2.31 -13.76,-4.81 -14.28,-17.08 -0.48,-11.43 -0.58,-22.06 7.59,-26.46 14.63,-7.88 11.47,6.15 8.16,14.96 -5.32,14.13 1.74,17.01 -1.48,28.58zm233.17 -15.33c-0.91,-3.72 -0.56,-8.22 -1.48,-11.66 -2.17,-8.11 -2.16,-2.69 -6.3,-7.45 -7.07,-8.12 1.62,-13.76 10.3,-8.59 13.96,8.3 16.44,32.76 -2.52,27.7zm-20.8 -24.32c-1.51,-1.83 -3.46,-3.15 -2.35,-7.34 1.39,-5.24 1.88,-3.73 6.69,-3.53 4.07,7.01 2.2,10.34 -4.33,10.87zm-40.01 -15.17c7.65,-2.06 18.58,5.33 21.75,10.93 -4.79,16.13 -25.26,9.98 -21.75,-10.93zm31.54 0.84c-10.66,0.8 -19.33,-4.3 -16.04,-14.82 4.2,-6.15 5.93,-3.11 11.45,-7.48 7.31,-5.8 0.9,-7.35 12.83,-6.19 3.17,9.7 -2.85,20.73 -8.24,28.5zm-66.84 -39.48c10.75,-0.81 9.35,12.19 16.82,20.47 6.4,7.09 14.01,12.34 9.19,27.25 -13.13,1.15 -14.53,-8.3 -19.4,-18.69 -3.94,-8.41 -12.3,-18.87 -6.6,-29.04zm-191.13 146.03c-16.05,1.19 -33.25,-32.92 -35.31,-39.33 -2.29,-7.09 -1.04,-16.06 -3.92,-22.8 -3.87,-9.06 -15.22,-11.66 -15.89,-35.98 -0.41,-14.87 10.2,-39.35 -10.85,-19.22 -24.95,23.87 -29.15,-49.87 -27.63,-66.03 2.5,-26.73 23.71,-58 55.6,-42.2 6.09,3.02 10.26,7.19 16.23,8.78 7.48,1.98 14.09,-0.48 21.08,4.08 13.29,8.69 7.85,29.66 17.19,34.71 12.89,6.98 26.87,-13.22 38.25,3.47 8.72,12.8 2.28,28.46 -3.8,40.3 -9.45,18.42 -6.72,15.87 -23.11,27.16 -13.3,9.15 -15.7,16.41 -7.35,33.72 7.73,16.04 6.39,25.91 -0.91,41.5 -4.29,9.16 -14.09,27.95 -19.58,31.85zm255.91 -192.67c1.3,14.12 -4.24,21.39 -8.7,32.54 -5.3,13.28 -0.91,22.29 -16.54,23.91l-30.29 -23.52c-12.82,-11.94 -5.43,-26.31 -30.22,-23.37 -10.26,12.25 -5.28,25.13 -13,33.17 -3.74,3.89 -8.55,4.74 -13.18,10.22 -5.31,6.29 -3.65,9.82 -10.23,13.53 -7.27,-2.43 -12.97,-14.13 -17.05,-21.79 -8.76,-16.43 -3.35,-17.73 -6.73,-33.32 -2.25,-10.39 -12.2,-15.13 -19.75,-20.35 -14.65,-10.12 -13.37,-17.31 -24.65,-14.78 -3.19,17.78 29.46,34.56 31.45,36.42 -0.03,8.05 -13.41,18.61 -20.06,18.52 -11.85,-0.15 -10.17,-14.99 -16.7,-23.59 -6.34,-8.34 -12.17,-13.54 -25.92,-9 -13.26,4.37 -18.7,-3.55 -17.49,-17.54 1.19,-13.67 27.41,-46.19 -16.82,-47.37 -12.53,-0.34 -23.85,-2.93 -21.78,-17.72 1.77,-12.59 10.68,-14.33 20.19,-20.03l-65.24 -0.06c-6.5,3.87 -24.04,31.46 -28.43,39.89 -3.93,7.56 -7.24,13.92 -10.74,22.69 -3.41,8.53 -5.82,18.49 -9.27,25.8 -0.74,16.68 -7.92,29.37 -7.08,65.17 0.51,21.89 3.85,42.29 10.03,62.2 21.31,68.69 72.64,123.35 139.9,147.53 44.42,15.96 78.21,15.93 126.77,8.76l12.99 -96.56c-4.44,-5.22 -9.66,-18.01 -8.75,-26.68 3.45,-6.94 7.6,-8.36 14.41,-11.82 0.21,-11.49 8.11,-60.21 12.52,-68.52l0.88 2.42c2.9,13.2 -1.6,47.43 -0.97,60.75 2.28,1.86 4.95,4.6 14.83,0.12 5.9,-2.67 6.91,-5.78 11.54,-8.49 8.21,-4.83 26.62,-3.39 37.26,-3.69 28.59,-0.8 33.19,24.72 23.18,47.39 -11.4,25.8 -23.21,20.79 -46.39,33.89 -36.52,20.64 -28.77,28.37 -48.38,12.4l-5.68 53.67 15.41 -4.49c23.08,-11.04 19.53,-6.36 46.13,-24.05 42.6,-28.33 76.34,-72.96 91.52,-124.06 19.14,-64.48 8.54,-143.23 -32.6,-197.57l-16.48 -20.78 -1.54 3.6 -20.33 0 0.35 -151.24c-4.84,7.13 -1.09,148.41 -1.08,169.85 5.56,6.19 8.6,5.13 12.27,15.57 8.85,25.2 -9.14,60.81 -9.56,70.37z"/>
  <path class="fil0" d="M507.35 603.17c4.97,1.5 10.43,2.26 15.63,5.35 6.48,3.84 6.51,7.21 13.46,8.07 15.52,-9.02 22.27,-59.17 22.32,-82.99 6.17,0.19 20.88,5.7 28.07,7.54 10.33,2.65 21.25,4.81 31.88,6.35 43.97,6.35 95.52,10.63 139.13,3.13 30.09,-5.18 48.64,-16.89 57.46,-18.06 0.26,26.3 9.79,64.08 24.25,76.69 9.42,-2.09 5.86,-6.37 21.46,-5.43 12.39,-55.91 15.24,-173.29 -34.27,-192.86 0.38,13.76 -2.08,24.3 -11.42,28.3 0.98,-19.78 -3.02,-38.17 -16.2,-46.91 -0.2,27.34 -12.15,27.34 -15.97,32.74 -1.74,-13.15 -0.63,-20.59 -8.77,-28 -5.48,-4.99 -14.04,-8.96 -23.2,-12.01 -19.27,-6.39 -43.23,-8.01 -64.33,-8.03 -46.03,-0.06 -82.91,4.76 -118.98,25.3 -28.71,16.35 -52.02,41.2 -65.2,78.69 -15.06,42.82 -5.76,79.92 4.69,122.13z"/>
  <path class="fil0" d="M1029.43 240.83l65.24 0.06 242.5 -0.47 -0.19 -150.58c-24.3,0 -196,2.13 -203.22,-1.27l-222.98 0 0 31.75 118.65 0 0 120.51z"/>
  <path class="fil0" d="M212.83 757.03c-15.97,54.41 -100.07,31.57 -83.09,-25.67 5.69,-19.16 28.07,-35.93 54.39,-28.14 19.39,5.74 36.42,27.52 28.7,53.8zm-47.72 -89.09c14.42,-8.81 22.85,11.45 12.39,17.74 -13.4,8.06 -23.93,-10.69 -12.39,-17.74zm-84.89 99.89l3.34 6.17c1.13,2.68 1.62,4.65 2.69,7.25 5.53,13.43 15.29,25.9 25.6,34.36 34.09,27.98 82.08,28.85 115.98,2.09 27.17,-21.44 24.87,-38.24 34.06,-47.29 2.21,-16.7 3.42,-31.04 -0.56,-47.59 -1.92,-7.98 -3.48,-12.03 -7.2,-19.4 -3.17,-6.28 -7.19,-10.73 -8.81,-16.58 -13.15,-10.11 -19.72,-23.58 -48.11,-31.77 -60.45,-17.45 -114.7,29.62 -118.58,77.01 -0.5,6.1 -1.8,32.24 1.58,35.75z"/>
  <path class="fil0" d="M1212.09 947.56c-3.49,5.59 -0.15,2.49 -6.26,5.99 -0.96,0.55 -4.68,2.02 -5.76,2.49 -4.08,1.78 -7.28,3.34 -11.35,5.38 -8.42,4.22 -15.67,8.19 -22.12,12.95 -46.2,34.16 -34.49,52.02 -41.36,99.14 -2.47,16.95 -10.35,43.08 -11,57.41l58.12 19.44 24.82 -58.04c0.66,-7.45 2.58,-10.97 3.6,-18.36 1.13,-8.19 -0.3,-12.98 1.45,-20.78 -2.25,-2.56 0.11,2.13 -2.91,-4.63 -0.61,-1.38 -1.17,-3.69 -1.61,-5.23 -3.84,-13.52 -8.88,-20.91 -11.15,-28.94 4.16,-3.5 6.64,-5.97 10.79,-9.28 10.77,-8.58 7.28,-11.56 9.31,-5.77l1.73 -2.94c0.18,-0.33 0.49,-0.98 0.64,-1.27 0.18,-0.34 0.66,-1.6 0.85,-2.12 -0.62,12.07 -2.41,14.51 8.4,16.54 -2.64,5.48 -8.38,13.5 -3.88,21.95 1.31,2.46 0.78,1.1 2.39,2.97 0.17,0.2 0.76,1.11 0.89,0.83 0.13,-0.27 0.66,0.49 0.91,0.8 -3.9,6.31 -5.9,10 -3.27,17.84 3.81,11.36 0.2,9.35 0.87,20.76 8.14,-4.19 -0.54,-1.24 6.55,0.17 4.36,0.87 2.23,1.67 8.04,0.36 5,-1.13 8.87,-4.65 14.33,-6.7 5.13,-4.6 35.89,-28.46 16.02,-38.02 3.35,-13.38 3.34,-11.98 -4,-20.84 16.21,-19.35 -3.16,-22.56 -4.72,-23.3 6.71,-10.18 7.49,-19.59 -4.04,-26.15 -8.51,0.06 -12.37,4.04 -17.83,7.23 3.09,-6.35 14.78,-22.55 1.66,-27.6 -6.7,1.2 -7.4,1.91 -11.8,5 -5.35,3.76 -2.89,4.05 -8.29,2.69z"/>
  <path class="fil0" d="M124.51 909.39l94.47 0 -0.89 14.07 -94.23 0.01 0.65 -14.09zm20.89 35.71l10.03 0.34 72.51 0.43c10.55,-5.19 41.45,2.75 55.27,-2.57 1.65,-8.27 0.76,-17.36 0.77,-25.85 0.02,-38.66 4.64,-23.96 -63.38,-26.39l-40.11 -0.37 0 -18.36c26.11,0 25.07,5.85 25.07,-18.69 -32.6,5.81 -35.78,6.1 -68.52,-0.02 0,24.56 -1.05,18.7 25.07,18.7l0 18.38 -90.34 -0.1c-17.07,-0.3 -13.45,1.14 -13.28,18.47 0.41,43.47 -6.93,36.8 25.08,36.78 16.05,-0.01 47.76,1.74 61.83,-0.77z"/>
  <path class="fil0" d="M683.33 949.85c8.13,9.4 15.18,20.07 22.79,30.2 5.79,7.7 7.07,7.35 2.94,17.91 -1.98,5.06 -6.59,15.63 -7.8,20.78 -1.56,6.64 21.16,75.7 25.4,82.39 7.63,-31.53 19.48,-64.53 28.87,-96.68 4.22,-14.45 28.48,-90.09 23.08,-99.43 -8.37,-1.74 -17.3,5.43 -24.79,9.03l-60.2 28.48c-11.11,5.09 -8.31,4.2 -10.28,7.32z"/>
  <path class="fil0" d="M597.2 853.52l-0.37 6.96c-1.6,16.99 -4.96,28.51 -8.3,43.6 6.33,-1.76 13.25,3.81 23.9,9.14 8.16,4.08 15.24,7.52 23.39,11.7 5.84,2.99 41.72,19.81 46.07,24.8l1.43 0.14c1.97,-3.12 -0.82,-2.23 10.28,-7.32l60.2 -28.48c7.49,-3.6 16.42,-10.77 24.79,-9.03l-7.46 -29.93 -19.43 8.73c-10.32,2.15 -3.72,3.27 -19.52,5.69 -0.53,0.08 -0.93,0.12 -1.46,0.21 -18.37,3.07 -17.17,0.35 -32.28,1.41 -10.42,0.74 -8.36,-0.67 -16.18,-2.45 -0.47,-0.11 -0.89,-0.2 -1.37,-0.3l-32.57 -9.24c-0.5,-0.11 -0.95,-0.13 -1.44,-0.24l-41.52 -22.13c-0.31,-0.2 -0.72,-0.48 -1.03,-0.67 -2.65,-1.65 -0.43,-0.77 -3.96,-2.09 -4.11,-1.54 0.94,-0.91 -3.2,-0.5z"/>
  <path class="fil0" d="M638.79 1099.56c5.44,-2.99 11.69,-33.53 13.43,-39.41 2.88,-9.76 11.46,-33.2 9.44,-40.68 -7.09,-26.25 -13.85,-22.63 -2.14,-39.11 4.58,-6.45 17.4,-27.42 22.39,-30.65 -4.35,-4.99 -40.23,-21.81 -46.07,-24.8 -8.15,-4.17 -15.23,-7.62 -23.39,-11.7 -10.65,-5.33 -17.57,-10.9 -23.9,-9.14 -6.01,7.81 5.15,38.86 7.79,48.71 8.73,32.61 38.29,126.85 42.46,146.78z"/>
  <path class="fil0" d="M1269.25 477.82l-5.65 38.5 -12.99 96.56 -38.52 334.68c5.4,1.35 2.93,1.07 8.29,-2.69 4.4,-3.09 5.1,-3.8 11.8,-5 -2.07,-8.02 30.85,-304.21 35.86,-332.1l5.68 -53.67 7.96 -81.63c-0.63,-13.32 3.87,-47.55 0.97,-60.75l-0.88 -2.42c-4.42,8.31 -12.31,57.02 -12.52,68.52z"/>
  <path class="fil0" d="M501.35 1502.36l0 58.49c0,12.53 5.85,18.38 18.38,18.38l76.87 0c7.43,0 5.01,-7.8 5.01,-25.07l-73.53 0 0 -13.37 68.52 0c6.82,0 5.01,-5.24 5.01,-18.38l-73.53 0 0 -11.7 68.52 0c7.57,0 5.01,-8.57 5.01,-26.74l-83.56 0c-12.8,0 -16.71,5.85 -16.71,18.39z"/>
  <path class="fil0" d="M1133.77 88.57c7.22,3.4 178.92,1.27 203.22,1.27l0.19 150.58 0.2 10.09 -0.3 12.09 -3.12 1.17c-8.5,15.52 -15.03,24.99 -8.06,50.03 3.17,11.39 11.83,35.63 17.71,43.85 3.52,-4.57 4.17,-8.32 8.52,-12.69 0.42,-9.56 18.41,-45.17 9.56,-70.37 -3.67,-10.44 -6.71,-9.39 -12.27,-15.57 -0.01,-21.44 -3.76,-162.72 1.08,-169.85l-0.25 -12.31 -217.21 0 0.72 11.7z"/>
  <path class="fil0" d="M957.57 1500.69l0 63.5c0,10.82 7.51,15.04 18.38,15.04l76.87 0c7.43,0 5.01,-7.8 5.01,-25.07l-73.53 0 0 -13.37 71.86 0 0 -18.38 -71.86 0 0 -11.7 68.52 0c7.13,0 5.01,-6.41 5.01,-21.72 0,-3.85 -1.16,-5.02 -5.01,-5.02l-78.54 0c-11.95,0 -16.71,4.77 -16.71,16.71z"/>
  <path class="fil0" d="M322.9 115.31c-1.82,-18.33 10.34,-32.48 26.97,-34.49 17.54,-2.12 32.67,11.03 34.61,26.22 5.48,42.93 -57.76,46.7 -61.57,8.26zm-1.63 50.13c5.96,12.57 23.18,37.13 32.08,46.07 5.97,-5.56 10.2,-12.28 15.98,-17.56 13.35,-20.67 25.5,-36.37 32.71,-64.31 13.46,-52.13 -35.6,-80.57 -70.11,-63.42 -11.65,5.79 -18.33,12.72 -23.93,24.53 -11.23,23.69 1.45,60.37 13.26,74.69z"/>
  <path class="fil0" d="M597.2 853.52c4.15,-0.4 -0.91,-1.04 3.2,0.5 3.53,1.32 1.3,0.44 3.96,2.09 0.3,0.19 0.72,0.47 1.03,0.67l41.52 22.13c0.49,0.11 0.95,0.13 1.44,0.24l32.57 9.24c0.48,0.09 0.9,0.19 1.37,0.3 7.82,1.78 5.76,3.19 16.18,2.45 15.1,-1.07 13.91,1.66 32.28,-1.41 0.52,-0.09 0.93,-0.13 1.46,-0.21 15.79,-2.42 9.2,-3.54 19.52,-5.69l19.43 -8.73 -1.63 -14.41 0.41 -39.52c-7.24,1.89 -3.93,1.61 -10.18,4.85 -3.61,1.88 -6.33,2.62 -9.39,4.04 -37.79,17.51 -73.57,23.98 -113.92,8.43l-39.01 -17.48 -0.23 32.51z"/>
  <path class="fil0" d="M1139.73 1522.41l-45.12 0 0 -13.37 45.12 0c8.24,0 8.24,13.37 0,13.37zm-71.86 -31.75l0 83.56c0,7.13 6.41,5.01 21.72,5.01 8.11,0 5.02,-12.16 5.02,-33.42l45.12 0c15.28,0 -1.39,33.42 11.7,33.42 26.39,0 21.72,5.01 21.72,-26.74 0,-15.17 -2.93,-13.63 -8.36,-21.72 6.15,-9.19 15.94,-23.34 -1.17,-38.94 -5.45,-4.97 -14.02,-7.86 -23.9,-7.86l-65.17 0c-3.91,0 -6.69,2.78 -6.69,6.69z"/>
  <path class="fil0" d="M115.57 157.09c-11.19,-42.15 49.32,-55.33 59.59,-17.93 11.62,42.32 -49.83,54.73 -59.59,17.93zm-11.96 29.17c2.69,2.52 9.6,16.59 11.96,20.71 4.53,7.88 10.78,13.85 12.06,21.08 5.79,3.25 11.8,14.13 17.76,19.39 9.47,-8.12 24.24,-29.98 31.38,-42.22 3.28,-5.63 5.06,-11.65 8.82,-16.23 4.04,-13.88 8.72,-21.77 9.71,-38.58 3.09,-60.59 -81.12,-71.37 -98.09,-18.09 -2.34,7.35 -2.93,19.93 -1.03,28.85l7.42 25.09z"/>
  <path class="fil0" d="M296.26 269.06c-11.75,40.17 -73.08,21.83 -59.37,-18.8 4.58,-13.56 20.64,-24.78 38.66,-19.45 13.61,4.02 26.23,19.39 20.71,38.25zm-15.99 74.71c91.91,-119.87 -19.03,-163.44 -55.17,-112.01 -27.45,39.06 16.58,99.57 41.13,128.59l14.04 -16.58z"/>
  <polygon class="fil0" points="1372.02,236.81 1372.02,120.32 1475.63,120.32 1475.63,88.57 1350.5,89.18 1350.15,240.41 1370.48,240.41 "/>
  <path class="fil0" d="M838.92 1574.22c0,7.13 6.42,5.01 21.73,5.01 8.36,0 5.01,-14.24 5.01,-36.76l53.48 0c0,43.43 -5.52,36.76 21.72,36.76 3.85,0 5.02,-1.16 5.02,-5.01l0 -90.24 -26.74 0 0 33.43 -53.48 0c0,-40.27 6.31,-33.43 -26.74,-33.43l0 90.24z"/>
  <path class="fil0" d="M670.14 1507.37c6.68,1.78 5.34,2.97 10.74,15.99 2.64,6.35 6.14,12.66 7.64,19.1l-35.09 0c3.35,-6.33 11.75,-31.46 16.71,-35.09zm-60.16 71.86c26.04,0 28.93,4.24 33.42,-15.04l55.15 0c1.57,2.96 2.15,4.44 3.7,8 3.77,8.63 -1.87,7.04 26.37,7.04 9.82,0 -0.04,-11.98 -5.25,-24.83l-12.58 -27.52c-13.74,-27.24 -12.36,-44.57 -44,-44.57 -10.13,0 -17.7,7.8 -22.28,16.16 -5.56,10.14 -34.37,72.96 -34.54,80.77z"/>
  <path class="fil0" d="M728.63 1529.1c0,56.57 57.54,50.13 95.26,50.13 7.13,0 5.02,-6.41 5.02,-21.72 0,-7.47 -10.4,-5.1 -18.37,-5.03 -10.75,0.1 -37.81,1.88 -45.85,-2.61 -12.64,-7.06 -12.25,-28.69 -1.05,-35.91 14.56,-9.38 65.27,4.08 65.27,-8.26 0,-28.01 8.46,-21.73 -48.46,-21.73 -30.4,0 -51.81,21.35 -51.81,45.12z"/>
  <path class="fil0" d="M386.04 1505.7c0,8.6 16.5,5.01 40.11,5.01l0 63.5c0,7.13 6.41,5.01 21.72,5.01 3.85,0 5.02,-1.16 5.02,-5.01l0 -63.5 40.11 0 0 -26.74 -106.95 0 0 21.73z"/>
  <path class="fil0" d="M195.31 150.4c-0.99,16.81 -5.67,24.7 -9.71,38.58l5.96 2.46c33.57,6.35 34.94,-17.57 77.92,-32.27l13.55 -5.44c-14.51,-2.88 -24.43,-5.09 -42.38,-5.02 -7.81,0.03 -15.63,0 -23.44,-0.03 -10.24,-0.04 -13.33,1.71 -21.91,1.71z"/>
  <path class="fil0" d="M1206.66 999.34c0.13,16.91 -6.45,36.78 -4.43,53.84 -1.76,7.8 -0.32,12.59 -1.45,20.78 -1.02,7.39 -2.94,10.91 -3.6,18.36 -1.69,7.73 -5.67,38.28 -2.62,43.96 2.28,3.52 -0.87,3.01 5.84,4.42 3.74,0.79 4.69,-0.09 8.06,-0.99 4.58,-8.04 9.69,-52.81 7.72,-65 -0.67,-11.42 2.95,-9.41 -0.87,-20.76 -2.63,-7.84 -0.63,-11.53 3.27,-17.84 -0.25,-0.31 -0.78,-1.07 -0.91,-0.8 -0.13,0.27 -0.72,-0.64 -0.89,-0.83 -1.6,-1.87 -1.08,-0.51 -2.39,-2.97 -4.5,-8.45 1.24,-16.48 3.88,-21.95 -10.81,-2.03 -9.02,-4.48 -8.4,-16.54 -0.19,0.52 -0.68,1.78 -0.85,2.12 -0.15,0.3 -0.46,0.94 -0.64,1.27l-1.73 2.94z"/>
  <path class="fil0" d="M1430.51 548.13c14.2,3.31 25.1,15.89 28.41,30.08 5.08,-3.72 2.35,-2.89 5.57,-9.47 1.82,-3.72 3.83,-6.33 6.09,-8.95 3.48,-4.04 12.38,-10.25 18.43,-11.66 -10.42,-14.22 -10.07,5.2 -26.74,-28.41 -1.39,-2.81 -1.54,-2.94 -3.35,-5.01 -6.96,29.88 -22.66,25.58 -28.41,33.42z"/>
  <path class="fil0" d="M5.02 853.96l0 3.34c16.59,1.38 24,19.23 28.41,28.41 5.78,-4.23 5.81,-11 11.23,-17.19 4.15,-4.74 11.26,-10.59 18.85,-11.22l0 -3.34c-19.28,-1.61 -24.54,-23.71 -30.08,-30.08 -3.11,13.36 -13.39,28.83 -28.41,30.08z"/>
  <path class="fil0" d="M48.47 1295.14l0 3.34c21.61,5.04 22.78,23.06 30.08,28.41 2.65,-11.37 15.73,-27.35 28.41,-28.41l0 -3.34c-15.56,-1.3 -25.04,-15.59 -28.41,-30.08 -5.37,3.93 -9.24,28.35 -30.08,30.08z"/>
  <path class="fil0" d="M496.34 287.44c13.88,3.23 25.2,16.3 28.41,30.08 6.26,-7.2 8.84,-25.13 30.08,-30.08 -4.25,-5.8 -13.28,-7.08 -18.68,-13.07 -4.84,-5.37 -5.98,-11.14 -8.06,-15.34 -1.39,-2.81 -1.54,-2.94 -3.34,-5.01 -6.59,28.26 -21.83,24.44 -28.41,33.43z"/>
  <path class="fil0" d="M1320.21 1285.11l0 3.34c21.61,5.04 22.78,23.06 30.08,28.41 2.65,-11.37 15.73,-27.35 28.41,-28.41 -7.12,-9.71 -21.61,-4.24 -28.41,-33.42 -4.04,2.96 -3.3,4.32 -5.58,9.46 -4.31,9.74 -12.66,19.63 -24.5,20.61z"/>
  <path class="fil0" d="M620 90.24c18.26,4.26 21.86,16.97 27.31,26.16l2.76 3.92c3.21,-13.78 14.53,-26.85 28.41,-30.08 -6.13,-8.37 -16.93,-5.09 -24.37,-22.42 -2.15,-5 -1.78,-6.48 -5.71,-11 -1.65,7.07 -5.15,15.7 -9.53,20.55 -6.41,7.09 -14.21,6.5 -18.88,12.87z"/>
  <path class="fil0" d="M984.62 583.85c-16.43,27.89 -0.41,12.43 -28.51,30.93 21.97,10.61 16.59,11.2 28.83,29.45 8.42,-16 10.81,-22.87 28.09,-28.84l-9.94 -5.89c-12.85,-7.51 -14.19,-18.48 -18.47,-25.65z"/>
  <path class="fil0" d="M393.22 641.16c5.65,3.6 7.99,3.5 13.72,9.74 5.61,6.1 6.72,11.61 10.85,17.04 5.3,-6.94 5.22,-11.22 11.67,-17.88 6.22,-6.41 10.69,-6.73 16.84,-11.68 -22.53,-7.95 -21.94,-19.04 -28.51,-29.62 -6.88,8.33 -5.44,22.85 -28.82,29.31l4.25 3.09z"/>
  <path class="fil0" d="M655.09 723.61c3.51,-3.17 4.25,-7.41 5.02,-13.37 -7.01,0.11 -15.73,0.02 -16.24,11.57 -0.52,11.89 -0.81,-8.79 0.31,3.35 0.85,9.3 4.79,9.35 7.39,10.8 2.81,1.57 4.65,2.35 8.24,3.66 17.1,6.21 39.38,5.33 52.39,-5.56l2.72 -2.52c0.26,-0.22 0.68,-0.59 0.91,-0.8 2.52,-2.16 0.39,-0.63 2.78,-2.13 -0.26,-17.15 -4.54,-18.18 -16.69,-18.37 1.15,9.98 0.95,7.26 5.01,13.35 -3.45,-1.5 -1.62,1.86 -10.57,5.36 -14.87,5.83 -29,2.74 -41.26,-5.35z"/>
  <path class="fil0" d="M635.61 780.19c6.78,12.05 30.12,18.55 49.55,18.24 18.42,-0.29 40.96,-9.01 46.65,-19.74 -34.25,3.2 -61.38,3.39 -96.2,1.5z"/>
  <path class="fil0" d="M846.44 640.06c0.54,-4.98 0.88,-10.59 3.33,-14.63 0.16,-0.26 0.42,-0.69 0.59,-0.92 2.84,-3.66 5.71,-2.8 8.61,-2.85 5.52,10.63 5.69,17.94 -0.22,30.64 -1.92,4.14 -1.56,-2.83 -1.75,4.82l1.97 6.31c6.78,-2.84 2.65,0.73 6.74,-5.41 1.11,-1.67 1.59,-3.12 2.57,-6.11 13.09,-40.09 -20.07,-55.25 -28.4,-23.54 -6.8,25.88 3.83,18.2 9.07,21.69 0,6.84 -2.38,8.76 -6.07,12.3 -12.22,11.72 -7.37,0.25 -10.64,12.77 19.44,-1.06 25.56,-16.1 23.18,-26.94 -1.52,-6.93 -1.85,-6.57 -8.98,-8.14z"/>
  <path class="fil0" d="M168.89 736.39c11.09,-4 14.85,13.16 5.74,16.59 -11.54,4.33 -18.31,-12.06 -5.74,-16.59zm-1.56 -11.59c-28.27,6.6 -17.63,46.26 9.1,39.85 25.39,-6.09 16.39,-45.8 -9.1,-39.85z"/>
  <path class="fil0" d="M509.71 663.44c3.3,-4.85 2.44,-6.91 -0.49,-12.28 -3.88,-7.09 -8.22,-29.17 5.5,-29.5 6.48,10.24 4.9,1.2 7.34,18.39 -7.17,1.37 -7.35,1.56 -8.81,8.14 -2.4,10.81 3.34,26.22 23.19,26.95 -3.8,-14.51 -16.29,-7.48 -16.71,-25.06l10.03 -5.01c0,-50.89 -38.21,-38.56 -31.98,-2.24 2.1,12.23 4.48,17.58 11.93,20.61z"/>
  <path class="fil0" d="M645.07 616.63c3.96,-5.61 3.31,-11.29 1.44,-18.37 -1.76,-0.03 -1.99,2.35 -5.85,2.94 -15.27,-30.61 -75.56,-11.63 -73.33,2.1 2.21,13.65 32.43,-25.32 68.58,7.51 5.72,5.19 1.31,4.85 9.16,5.81z"/>
  <path class="fil0" d="M725.19 602.25l-6.07 -4.83c-0.96,8.55 -2.15,11.34 0.54,18.07l9.21 -3.51c37.69,-31.11 57.3,-2.43 68.98,-6.31 4.59,-18.09 -58.93,-34.89 -72.67,-3.42z"/>
  <path class="fil0" d="M1475.63 895.73c4.58,6.25 18.89,7.39 23.4,26.74l3.34 0c0.87,-10.45 10.48,-20.78 21.72,-23.4l0 -3.34c-20.41,-4.76 -16.2,-18.57 -25.07,-25.07 -0.99,11.93 -11.48,24.08 -23.4,25.07z"/>
  <path class="fil0" d="M170.46 1363.65c18.07,4.21 20.33,20.37 26.74,25.07 1,-12.04 12.74,-22.59 23.4,-25.07l-7.2 -4.5c-8.45,-4.64 -15.3,-11.43 -16.2,-22.24l-3.34 0c-1.14,13.69 -9.8,18.19 -19.45,23.99 -3.45,2.07 -1.51,0.63 -3.94,2.74z"/>
  <path class="fil0" d="M923 371.41c-8.17,20.7 -10.99,17.66 -23.5,26.02 14.57,8.07 15.68,8.78 23.5,24.86 10.77,-15.91 6.46,-14.89 23.93,-25.07 -19.91,-11.65 -12.92,-6.36 -23.93,-25.81z"/>
  <path class="fil0" d="M326.13 807.16c4.96,4.5 8.54,4.47 14.14,10.7 4.51,5.02 5.87,9.88 9,13.7 18.81,-27.56 3.03,-7.22 22.78,-24.39 -7,-4.92 -8.42,-3.57 -14.32,-10.13 -5.29,-5.87 -4.7,-8.26 -8.46,-14.57 -3.67,4.18 -5.42,11.53 -9.06,15.65 -4.23,4.78 -8.45,5.08 -14.08,9.06z"/>
  <path class="fil0" d="M1051.15 833.59c5.37,4.83 8.95,4.72 14.44,10.97 4.25,4.85 5.23,9.51 8.97,13.74 4.35,-5.9 4.22,-9.73 9.5,-14.91 3.31,-3.25 9.7,-6.19 13.37,-9.48 -5.83,-3.99 -10.33,-5.31 -14.59,-9.94 -4.58,-4.99 -4.57,-9.08 -8.29,-14.72 -9.9,12.13 1.26,11.51 -23.41,24.34z"/>
  <path class="fil0" d="M890.73 840.43c-12.4,18.13 0.42,9.73 -20.61,23.13 -2.84,1.81 -1.52,0.86 -3.2,2.3 15.2,4.72 15.69,10.92 23.81,23.24 10.43,-11.82 5.37,-16.32 23.81,-23.24 -3.67,-3.28 -4.44,-2.8 -8.69,-5.35 -10.6,-6.36 -10.59,-13.76 -15.11,-20.08z"/>
  <path class="fil0" d="M739.37 635.28c-5.87,4.51 -9.74,6.37 -11.88,13.54 1.93,13.8 32.7,15.46 44.87,9.41 5.67,-6.52 9.78,-5.3 12.74,-14.83 -5.01,-6.56 -6.87,-8.6 -16.65,-11.9 -6.43,1.36 -2.16,-2.02 -5.35,2.5 18.42,11.99 -14.29,34.42 -21.99,15.24 -4,-9.95 3.42,-11.22 -1.74,-13.94z"/>
  <path class="fil0" d="M591.26 658.22c11.84,5.75 43.26,4.36 44.77,-9.39 -1.81,-6.32 -6.59,-11.09 -12.58,-13.42 -0.89,1.51 4.22,24.64 -16.4,20.98 -20.34,-3.61 -5.81,-26.54 -5.8,-26.57 -14.32,5.91 -13.85,2.08 -22.82,13.57 3.19,10.48 6.81,7.9 12.84,14.83z"/>
  <path class="fil0" d="M727.49 648.82c2.14,-7.17 6.01,-9.03 11.88,-13.54l21.03 -5.96c0.03,0 2.89,-2.04 8.05,2.17 9.78,3.3 11.64,5.34 16.65,11.9 -2.96,9.54 -7.07,8.32 -12.74,14.83 5.99,4.29 18.14,-10.58 19.81,-16.5 -13.44,-22.44 -51.84,-19.13 -63.72,-1.68 -6.87,10.09 -1.51,8.38 -0.96,8.78z"/>
  <path class="fil0" d="M591.26 658.22c-6.03,-6.93 -9.65,-4.35 -12.84,-14.83 8.98,-11.49 8.5,-7.66 22.82,-13.57 4.33,0.46 8.44,0.87 12.33,1.64 1.33,0.26 4.04,0.75 5.25,1.2 5.63,2.11 2.1,0.52 4.62,2.76 6,2.33 10.78,7.1 12.58,13.42 2.22,-2.58 4.41,4.27 1.05,-5.5 -3.39,-9.87 -18.26,-15.8 -30.14,-17.14 -16.13,-1.82 -29.24,4.67 -35.58,15.53 1.76,6.16 15.83,21.61 19.91,16.5z"/>
  <path class="fil0" d="M927.5 238.97c0,-17.74 1.73,-17.21 -5.02,-21.72 -9.34,6.25 -3.49,5.44 -3.64,14.85 -0.06,3.51 -2.39,15.76 -2.79,19.19 -0.67,5.82 -0.41,6 1.47,7.77 0.7,0.66 2.2,0.99 2.89,0.89 5.88,-0.83 7.08,-14.91 7.08,-20.98z"/>
  <path class="fil0" d="M145.4 1024.41c0,10.03 -2.18,28.41 3.34,28.41 9.35,0 6.69,-13.01 6.69,-26.74 0,-7.18 -10.03,-10.01 -10.03,-1.67z"/>
  <path class="fil0" d="M665.12 225.6c0,9.35 13.01,6.69 26.74,6.69 7.34,0 6.15,-5.13 5.01,-10.03 -6.52,0 -31.75,-2.43 -31.75,3.34z"/>
  <path class="fil0" d="M623.35 232.29c7.82,0 26.74,2.17 26.74,-5.01 0,-8.06 -15.63,-5.02 -31.75,-5.02 -1.14,4.89 -2.32,10.03 5.02,10.03z"/>
  <path class="fil0" d="M225.61 1183.17c0,7.57 8.57,5.01 26.74,5.01 4.47,0 4.94,-2.41 6.69,-5.01 -4.98,-7.43 -6.61,-5.02 -28.41,-5.02 -3.85,0 -5.02,1.16 -5.02,5.02z"/>
  <path class="fil0" d="M272.41 1183.17c4.98,7.43 6.61,5.01 28.41,5.01 7.08,0 7.08,-10.03 0,-10.03 -18.93,0 -24.34,-2.5 -28.41,5.02z"/>
  <path class="fil0" d="M177.15 1183.17c4.98,7.43 6.61,5.01 28.41,5.01 7.08,0 7.08,-10.03 0,-10.03 -18.93,0 -24.34,-2.5 -28.41,5.02z"/>
  <path class="fil0" d="M1480.65 982.63c0,12.2 40.72,7.82 31.9,-1.5 -4.28,-4.52 -31.9,-3.09 -31.9,1.5z"/>
  <path class="fil0" d="M1370.35 710.24c0,10.16 33.43,8.86 33.43,1.67 0,-7.71 -9.39,-5.02 -28.41,-5.02 -2.74,0 -5.02,1 -5.02,3.34z"/>
  <path class="fil0" d="M1442.21 989.32c6.54,0 23.39,1.91 23.39,-5.02 0,-7.35 -10.98,-5.43 -23.58,-5.18 -15.36,0.31 -10.53,10.2 0.19,10.2z"/>
  <path class="fil0" d="M145.4 1121.34l0 21.72c0,6.89 10.03,9.05 10.03,-3.34 0,-19.93 2.08,-20.31 -5.02,-25.07 -2.6,1.74 -5.01,2.22 -5.01,6.69z"/>
  <path class="fil0" d="M145.4 1168.13l0 20.06c15.21,0 14.11,1.36 18.38,-5.01 -2.91,-4.34 -1.7,-4.46 -8.35,-5.02 0,-5.98 1.65,-17.02 -6.25,-14.87 -2.85,0.78 -3.78,0.98 -3.78,4.85z"/>
  <path class="fil0" d="M553.16 195.52c0,10.03 -2.18,28.41 3.34,28.41 10.67,0 7.89,-33.43 1.67,-33.43l-3.34 0c-1.15,2.04 -1.67,1.79 -1.67,5.02z"/>
  <path class="fil0" d="M553.16 100.27c0,10.03 -2.18,28.41 3.34,28.41 10.67,0 7.89,-33.42 1.67,-33.42l-3.34 0c-1.15,2.04 -1.67,1.79 -1.67,5.01z"/>
  <path class="fil0" d="M578.22 232.29c19.24,0 20.47,2 25.07,-6.69 -8.22,-5.5 -9,-3.34 -28.41,-3.34 -6.89,0 -9.05,10.03 3.34,10.03z"/>
  <path class="fil0" d="M145.4 1072.87c0,19.41 -2.16,20.19 3.34,28.41 8.69,-4.59 6.69,-5.82 6.69,-25.07 0,-12.39 -10.03,-10.22 -10.03,-3.34z"/>
  <path class="fil0" d="M553.16 148.73c0,19.41 -2.16,20.19 3.34,28.41 8.69,-4.6 6.69,-5.82 6.69,-25.07 0,-12.39 -10.03,-10.23 -10.03,-3.34z"/>
  <path class="fil0" d="M563.19 23.39c0,-14.47 1.91,-23.39 -8.36,-23.39 -1.09,2.27 -6.38,33.81 3.22,32.95 3.64,-0.33 5.13,-4.74 5.13,-9.56z"/>
  <path class="fil0" d="M1397.09 1203.22c0,9.43 27.26,13.85 29.46,12.57 13.17,-7.59 -24.43,-15.92 -24.45,-15.92 -2.73,0 -5.01,1 -5.01,3.34z"/>
  <path class="fil0" d="M553.16 53.48l0 21.72c0,6.88 10.03,9.05 10.03,-3.34 0,-19.24 2,-20.47 -6.69,-25.07 -2.02,3.02 -3.34,2.94 -3.34,6.69z"/>
  <path class="fil0" d="M145.4 977.62l0 21.72c0,6.88 10.03,9.05 10.03,-3.34 0,-19.24 2,-20.47 -6.69,-25.07 -2.02,3.02 -3.34,2.94 -3.34,6.69z"/>
  <path class="fil0" d="M1527.44 982.63c4.69,8.87 6.36,6.69 26.74,6.69 7.18,0 10.02,-10.03 1.67,-10.03 -12.54,0 -22.96,-1.98 -28.41,3.34z"/>
  <path class="fil0" d="M1460.59 1051.15c0,-6.11 -3.92,-6.13 -9.83,-6.88 -4.18,-0.53 -22.32,-4.57 -23.11,3.67 -0.7,7.2 9.47,3.91 22.05,5.97 4.07,0.67 10.9,1.78 10.9,-2.76z"/>
  <path class="fil0" d="M1517.41 1158.1l3.34 0c0,0 11.95,-31.75 0,-31.75 -7.87,0 -4.24,8.43 -5.4,16.33 -0.79,5.39 -6.92,15.41 2.06,15.41z"/>
  <path class="fil0" d="M813.85 148.73c2.68,4 1.69,4.79 7.57,4.41 3.62,-0.24 7.2,-1.04 12.52,-1.02 21.72,0.08 19.13,-14.92 -10.63,-8.96 -7.56,1.51 -5.87,0.21 -9.46,5.58z"/>
  <path class="fil0" d="M887.39 167.11c22.61,0 -31.01,-33.36 -24.78,-13.96 1.28,4 -1.67,0.53 3.51,3.34l21.27 10.62z"/>
  <path class="fil0" d="M773.75 170.46c0,3.74 1.32,3.67 3.34,6.69 6.18,-3.27 23.52,-15.93 25.07,-21.73 -3.73,-2.5 -3.01,-6.65 -15.55,2.83 -2.61,1.98 -12.86,9.69 -12.86,12.21z"/>
  <path class="fil0" d="M1383.72 1064.52c0,11.04 11.45,1.46 11.48,1.45 13.09,-8.85 18.61,-5.57 18.61,-14.82 -10.83,-6.08 -30.08,11.07 -30.08,13.37z"/>
  <path class="fil0" d="M1487.33 1193.2c0,17.17 37.09,-21.72 20.06,-21.72 -4.27,0 -4.86,2.87 -10.25,9.8 -8.42,10.83 -9.81,5.78 -9.81,11.92z"/>
  <path class="fil0" d="M1519.08 1119.67c3.69,-2.47 5,-1.87 4.48,-7.65 -0.11,-1.2 -2.56,-9.26 -3.01,-10.53 -4.87,-13.58 -4.94,-13.39 -13.17,-13.57 -1.7,8.04 0.85,6.81 4.01,16.04 3.11,9.07 0.88,11.16 7.69,15.72z"/>
  <path class="fil0" d="M1382.05 1194.87c13.39,0 -4.22,-15.5 -5.04,-16.69 -4.69,-6.77 -3,-9.82 -13.34,-10.06 -1.58,7.44 0.3,8.66 5.38,14.67 3.15,3.72 7.73,12.07 13,12.07z"/>
  <path class="fil0" d="M750.35 213.91c0,2.47 1.96,2.71 3.85,3.07 4.86,0.93 3.72,2.11 8.46,-12.48 3.64,-11.22 9.76,-13.17 1.06,-19 -4.98,3.33 -5.88,6.02 -8.37,11.68 -1.47,3.34 -5,12.29 -5,16.73z"/>
  <path class="fil0" d="M1473.96 1057.83c0,4.57 8.58,9.01 17.61,15.81 4.44,3.35 2.12,2.81 7.46,4.24l3.01 -3.68c-1.91,-8.45 -20.33,-21.39 -24.32,-20.3 -1.45,0.39 -3.75,2.35 -3.75,3.92z"/>
  <path class="fil0" d="M748.68 237.3c0,7.38 2.63,26.74 8.35,26.74 8.48,0 3.85,-9 2.65,-14.31 -1.35,-6 0.2,-17.44 -6,-17.44 -3.85,0 -5.01,1.17 -5.01,5.02z"/>
  <path class="fil0" d="M1443.88 1211.58l0 3.34c9.47,5.32 29.81,-4.39 30.91,-6.16 7.21,-11.68 -12.81,-4.07 -16.85,-3.17 -4.66,1.04 -14.06,1.65 -14.06,6z"/>
  <path class="fil0" d="M1360.32 1107.97c6.16,0 4.1,-4.35 9.47,-13.92 4.35,-7.75 7.35,-7.73 5.57,-16.16 -6.23,0.14 -6.48,-0.16 -9.47,3.9l-8.89 18.12c-2.06,6.38 2.17,8.06 3.32,8.06z"/>
  <path class="fil0" d="M890.73 299.13c9.97,2.11 10.44,-2.98 18.83,-12.92 8.01,-9.5 3.88,-20.73 -5.3,-8.65 -1.73,2.27 -3.2,4.7 -4.9,6.8 -5.2,6.41 -8.41,4.74 -8.63,14.77z"/>
  <path class="fil0" d="M900.76 178.81c0,0.67 12.82,25.07 15.04,25.07l3.34 0c6.8,-8.14 -12.3,-30.08 -13.37,-30.08l-3.34 0c-1.15,2.04 -1.67,1.79 -1.67,5.01z"/>
  <path class="fil0" d="M1361.99 1154.76l-1.84 -28.41c-0.32,-1.35 -1.18,-6.25 -5.51,-4.04 -4.23,2.16 -3.47,7.16 -2.66,19.06 1.19,17.33 5.93,13.3 10.01,13.39z"/>
  <path class="fil0" d="M1422.15 752.02c0,19.63 -3.82,31.75 6.69,31.75 3.38,-7.05 1.67,-21.87 1.67,-31.75 -4.35,-0.92 -3.97,-1.58 -8.35,0z"/>
  <path class="fil0" d="M1422.15 879.02c6.5,1.37 1.86,1.37 8.35,0 0,-19.63 3.82,-31.75 -6.69,-31.75 -3.38,7.05 -1.67,21.87 -1.67,31.75z"/>
  <path class="fil0" d="M1418.81 710.24c0,5.89 3.37,1.11 3.4,13.31 0.03,12.37 -1.41,13.43 6.63,13.43 3.35,-5.96 1.67,-22.56 1.67,-30.08 -4.31,0 -11.7,-0.98 -11.7,3.34z"/>
  <path class="fil0" d="M1422.15 899.07c0,26.69 -2.33,28.41 6.69,28.41 2.35,-4.19 4.24,-33.42 -1.67,-33.42l-3.34 0c-1.14,2.04 -1.67,1.79 -1.67,5.01z"/>
  <path class="fil0" d="M1422.15 947.54c0,26.69 -2.33,28.41 6.69,28.41 2.35,-4.19 4.24,-33.42 -1.67,-33.42l-3.34 0c-1.14,2.04 -1.67,1.79 -1.67,5.01z"/>
  <path class="fil0" d="M1422.15 803.82c0,26.69 -2.33,28.41 6.69,28.41 2.35,-4.19 4.24,-33.42 -1.67,-33.42l-3.34 0c-1.14,2.04 -1.67,1.79 -1.67,5.02z"/>
  <path class="fil0" d="M25.07 910.78c30.57,0 31.49,3.34 31.75,-8.36l-31.75 0c-1.38,6.5 -1.38,1.86 0,8.36z"/>
  <path class="fil0" d="M711.92 225.6c4.17,7.87 4.38,6.69 18.38,6.69 7.18,0 10.01,-10.03 1.67,-10.03 -9.64,0 -15.15,-1.45 -20.05,3.34z"/>
  <path class="fil0" d="M759.78 642.85l-6.78 -0.48 -0.2 -6.33 -6.15 1.77c-1.46,7.54 -1.59,6.78 2.28,12.02l6.44 0.07c4.22,-3.58 2.88,-0.73 4.42,-7.04z"/>
  <path class="fil0" d="M617.55 641.41l-8.04 1.46 -0.54 -6.21c-2.87,1.15 -9.93,1.08 -2.08,13.28l7.76 -0.31c2,-2.84 2.71,-3.32 2.91,-8.22z"/>
  <path class="fil0" d="M155.43 945.44l-10.03 -0.34 0 10.8c9.09,2.12 10.03,1.38 10.03,-10.45z"/>
  <path class="fil0" d="M1362.67 445.42c6.54,-0.52 8.4,-3.86 4.33,-10.87 -4.8,-0.2 -5.3,-1.72 -6.69,3.53 -1.11,4.19 0.84,5.51 2.35,7.34z"/>
  <path class="fil0" d="M752.8 636.03l0.2 6.33 6.78 0.48c4.43,-7.51 0.39,-11.43 -6.99,-6.81z"/>
  <path class="fil0" d="M608.97 636.65l0.54 6.21 8.04 -1.46c1.17,-9.2 -3.25,-9.87 -8.58,-4.75z"/>
  <path class="fil0" d="M1333.96 263.78l3.12 -1.17 0.3 -12.09c-1.87,2.28 0.15,-1.56 -2.36,3.25 -0.8,1.53 -0.94,1.98 -1.46,3.8 -1.12,3.98 -1.7,4.43 0.4,6.21z"/>
 </g>
</svg>
