<?xml version="1.0" encoding="UTF-8"?>
<!DOCTYPE svg PUBLIC "-//W3C//DTD SVG 1.1//EN" "http://www.w3.org/Graphics/SVG/1.1/DTD/svg11.dtd">
<!-- Creator: CorelDRAW -->
<svg xmlns="http://www.w3.org/2000/svg" xml:space="preserve" width="100%" height="100%" version="1.1" style="shape-rendering:geometricPrecision; text-rendering:geometricPrecision; image-rendering:optimizeQuality; fill-rule:evenodd; clip-rule:evenodd"
viewBox="0 0 2119.7 1786.92"
 xmlns:xlink="http://www.w3.org/1999/xlink"
 xmlns:xodm="http://www.corel.com/coreldraw/odm/2003">
 <defs>
  <style type="text/css">
   <![CDATA[
    .fil0 {fill:#003399}
    .fil1 {fill:#C4372F}
   ]]>
  </style>
 </defs>
 <g id="Layer_x0020_1">
  <metadata id="CorelCorpID_0Corel-Layer"/>
  <path class="fil0" d="M1412.62 1137.86c43.56,-9.33 59.39,-38.03 93.78,-66.5l-0.57 280.6c-131.25,1.46 -221.57,-171.98 -244.74,-289.51l66.37 -26.78c34.17,32.54 47.88,65.23 85.15,102.19zm218.96 0.31c35.96,-34.4 53.74,-69.96 86.5,-105.38l67.7 35.85c-15.59,49.19 -59.42,133.36 -87.44,184.4 -30.32,55.24 -80.52,97.11 -159.93,99.44l2.18 -282.24c28.06,25.96 46.83,57.62 90.99,67.92zm-72.8 -110.07c53.42,-31.84 61.19,-48 122.69,-22.93 -10.54,45.2 -32.94,67.73 -62.36,91.67l-60.33 -68.74zm-134 69.25c-27.88,-26.46 -54.54,-46.17 -61.91,-92.1 59.65,-24.96 71.2,-8.44 126.86,26.37l-64.95 65.73zm228.99 -178.7c12.09,-44.38 64.52,-58.88 100.9,-95.85 33.94,-34.48 55.69,-81.5 86.96,-110.69l63.46 245.82c-42.58,8.99 -96.54,36.97 -132.2,42.77 -51.96,8.46 -72.46,-23.87 -119.06,-40.47l-0.06 -41.57zm-190.7 58.92c-54.8,-27.16 -31.2,-5.13 -42.07,-46.76 20.22,-17.28 -44.34,-24.53 43.44,-18.85l125.24 -1.23c44.3,0.91 62.63,29.15 -8.57,67.05 -61.69,32.84 -57.64,29.73 -118.05,-0.21zm-258.14 -265.59c31.26,31.28 49.03,73.82 85.02,110.3 51.35,52.05 164.26,94.49 62.29,157.7 -84.46,52.35 -114.06,-1.96 -217.94,-23.53l70.63 -244.46zm271.13 -118.81c9.07,-17.56 9.96,-31.49 17.22,-42.41 65.92,-99.13 40.57,91.44 162.57,90.12 136.37,-1.48 48.63,-177.45 229.82,-98.11 36.9,100.09 -25.69,68 -64.39,115.68 -16.35,20.15 -39.35,90.35 -68.76,125.88 -123.41,149.12 -415.72,146.66 -509.94,-84.69 -43.91,-107.8 -73.39,-33.51 -92.59,-102.29 -19.86,-71.11 58.85,-70.94 116.65,-71.17 43.33,28.65 7.26,33.39 44.62,80.44 33.04,41.59 129.34,55.24 164.8,-13.46zm115.24 -26.53c-31.27,-103.5 98.71,-131.29 128.73,-52.59 27.67,72.56 -70.56,147.51 -128.73,52.59zm-229.58 -90.8c84.08,-40.67 140.33,95.02 53.81,129.66 -80.92,32.39 -140.38,-87.79 -53.81,-129.66zm319.58 -165.24c19.37,-31.26 55,-70.44 96.23,-79.11 46.93,32.59 49.09,26.34 49.09,103.43l-4.66 129.11c-23.22,-29.32 -46.63,-44.17 -74.77,-74.36 -26.27,-28.19 -43.61,-49.59 -65.89,-79.07zm-740.16 1066.07c47.58,-25.9 4.05,-179.09 290.98,-287.91 51.17,131.94 118.6,299.41 289.95,299.61 167.72,0.19 238.37,-159.07 290.21,-299.44 277.46,103.7 281.07,229.29 274.84,561.55l29.45 13.07c25.67,-590.43 -109.83,-453.06 -324.39,-633.54 45.13,-20.91 105.03,-37.41 141.31,-61.53 5.2,-79.26 -51.94,-208.79 -67.76,-293.04 99.93,-82.02 82.88,-120.96 -8.8,-185.8 -0.93,-283.36 8.37,-232.9 -68.9,-287.04 -100.92,-70.7 78.84,-112.94 -315.13,-107.95 -74.22,0.94 -172.16,9.33 -194.45,72.24 27.85,-2.94 219.61,-65.15 390.34,-41.64 48.59,6.7 27.81,-0.94 51.94,25.11 91.3,133.43 -322.25,196.54 -418.94,219.34 -210.96,49.74 -79.45,15.54 -152.03,-4.72l-6.87 65.48c130.62,0.26 360.21,-89.4 500.82,-105.65 27.51,28.56 51.94,46.76 78.59,77.39 28.31,32.53 51.11,57.63 75.61,89.26 -95.01,12.21 -47.36,-61.66 -153.9,-51.63 -79.33,7.47 -65.5,84.13 -154.24,51.39 -40.55,-14.96 -64.03,-87.96 -153.21,-38.58 -44.86,24.84 -13.93,31.88 -60.17,42.36 -58.64,13.29 -51.22,-7.82 -70.61,-39.03 -2.21,2.23 -4.81,3.25 -5.68,7.52l-33.76 39.09c-88.72,76.91 -56.75,114.64 12.68,172.83 -13.35,85.24 -72.84,209.32 -67.83,291.6 36.04,26.83 94.75,41.02 141.02,62.87 -51.35,45.55 -149.24,85.84 -208.79,127.72 -55.2,38.81 -111.36,135.23 -111.06,189.07 0.29,50.19 -2.63,13.65 8.76,29.96z"/>
  <path class="fil0" d="M1435.76 708.66c10.59,14.03 -12.13,21.28 35.18,41.86 32.87,14.3 112.44,24.18 137.98,-42.35 -40.95,5.81 -50.98,19.96 -86.81,19.87 -38.77,-0.1 -41.69,-14.14 -86.34,-19.38z"/>
  <path class="fil0" d="M1168.94 299.02c37.89,-11.78 18.07,3.17 45.98,-40.5 19.58,-30.65 17.4,-17.04 23.53,-53.96 -46.59,4.59 -63.36,49.68 -69.51,94.47z"/>
  <path class="fil0" d="M584.07 961.74c62.33,64.82 43.26,109.48 51.21,265.42 6.32,123.91 13.7,182.47 -51.21,278.55 -74.72,-63.51 -60.7,-202.78 -57.48,-266.59 9.67,-191.63 -14.21,-213.24 57.48,-277.39zm92.17 368.25l-19.76 -285.1c59.72,-14.46 19.96,27.66 69.62,-40.27 26.92,-36.83 32.44,-51.33 64.77,-78.62l61.01 20.08c-8.86,89.28 -147.46,291.39 -175.63,383.91zm-190.22 -281.89l4.84 267.93c-36.62,-32.7 -76.93,-134.13 -101.9,-185.59 -27.59,-56.88 -71.81,-128.64 -84.12,-184.37l76.96 -21.3c43.25,58.68 47.67,90.33 104.21,123.33zm198.42 -41.78l-71.7 -66.64c52.11,-29.15 73.65,-56.38 136.78,-24.74l-65.08 91.38zm-276.83 -94.04c78.9,-23.54 78.6,-9.27 139.78,21.17 -18.03,43.78 -30.21,42.85 -58.76,75.07l-81.03 -96.24zm242.53 -32.72c-10.53,6.04 -52.21,24.5 -66.06,30.52 -65.38,-17.72 -102.38,-37.18 -103.76,-89.22l201.2 -5.97c-0.6,51.32 8.68,41.67 -31.38,64.67zm177.22 -444.57c54.25,-1.9 159.79,-0.57 124.69,77.31 -28.89,64.09 -51.35,-2.3 -86.74,82.77 -114.8,275.95 -448.22,244.8 -551.19,38.76 -11.19,-22.38 -19.27,-56.77 -36.4,-73.12 -29.2,-27.87 -45.73,-4.05 -65.7,-46.11 -38.14,-80.35 57.84,-81.06 116.6,-81.22 11.13,12.93 6.02,6.22 15.43,25.06 1.67,3.34 5.85,13.99 7.38,17.51 12.78,29.53 23.47,73.88 98.74,72.05 110.02,-2.68 80.99,-106.06 121.74,-114.61 67.28,9.22 24.74,7.8 57.08,68.16 17.9,33.39 39.87,44.53 77.27,46.66 88.31,5.05 90.37,-58.82 121.1,-113.2zm-143.35 -47.94c88.56,-44.95 136.9,95.04 60.33,125.24 -42.86,16.9 -81.46,-6.72 -93.42,-33.89 -23.54,-53.44 4.39,-76.78 33.09,-91.35zm-180 115.42c-115.07,42.6 -161.73,-52.29 -106.22,-105.76 61.61,-59.33 141.68,-1.72 106.22,105.76zm-226.22 -114.43c18.96,-7.62 -16.18,-8.71 38.06,-21.44 18.77,-4.41 46.28,-5.75 65.51,-7.6 -22,45.18 -54.19,64.3 -103.56,29.04zm607.41 9.34c-64.77,-7.96 -57.08,-39.91 -56.94,-106.2 0.11,-51.56 -2.02,-103.82 3.76,-154.91 77.44,18.69 54.84,103.75 53.18,261.12zm-412.49 -57.98c67.61,-34.67 116.42,-43.01 183.5,-86 47.32,-30.32 104.85,-84.97 139.93,-102.97 5.39,80.19 -10.79,176.11 14.92,246.33 -37.61,-26.05 -56.32,-66.11 -127.15,-46.25 -62.01,17.38 -63.63,102.49 -169.38,21.42l-41.83 -32.54zm-468.02 755.86c31.37,-22.49 7.76,-5.8 31,-26.93 60.87,-55.35 152.17,-98.45 241.09,-102.68l283.49 593.94c51.58,24.75 25.85,10.65 44.02,-2.43 23.41,-79.31 231.22,-473.26 286.47,-594.48 462.94,112.68 212.59,357.53 294.96,603.81 25.35,-5.82 11.91,4.76 20.98,-23.13 0,-181.3 35.88,-402.15 -76.51,-509.45 -84.76,-80.93 -358.6,-129.07 -417.54,-183.73 3.92,-108.9 101.05,-59.5 172.96,-221.69 46.52,-104.93 66.4,-31.33 94.24,-101.17 30.88,-77.47 -25.43,-104.96 -63.59,-127.93 -0.53,-134.99 41.08,-276.12 -97.71,-296.89 -31.32,-124.96 -86.61,-100.53 -222.32,-100.61 -83.93,-0.05 -225.36,-8.39 -258.97,74.19 174.42,-35.06 37.68,-44.27 332.36,-44.53 16.44,-0.02 45.06,-0.72 60.19,2.53 35.98,7.74 22.54,3.8 41.14,22.33 55.93,80.91 -141.98,180.38 -200.58,208.21 -87.07,41.37 -229.22,77.85 -336.33,83.53 -2.28,-41.84 6.49,-48.67 -14.89,-77.15 -26.31,27.61 -29.82,76.79 2.69,111.67 1.7,1.83 4.91,4.56 6.59,6.2l14.35 11.33c-41.33,29.13 -76.16,43.17 -66.69,105.4 11.83,77.78 58.99,44.77 91.11,101.2 67.76,119.06 65.65,128.16 182.19,192.76l0.32 60.74 -372.74 139.31c-13.2,7.29 -44.75,29.51 -50.72,35.25 -26.57,25.55 -31.3,32.96 -21.55,60.41z"/>
  <path class="fil0" d="M188.06 1558.54c4.12,3.33 -8.56,6.42 10.13,6.28 15.98,-0.11 11.33,-0.79 20.66,-4.49 -0.02,-65.57 14.26,-262.38 -11.87,-305.8 -40.98,31.51 -18.91,252.56 -18.91,304.01z"/>
  <path class="fil0" d="M667.65 616.77c-110.83,6.22 -38.98,25.3 -173.06,-3.8 7.17,17.72 6.27,55.38 89.31,53.59 47.19,-1.01 68.38,-9.37 83.74,-49.79z"/>
  <path class="fil0" d="M227.69 207.19c39.35,-14.62 12.43,11.52 43.56,-34.91 13.94,-20.8 19.54,-33.11 26.02,-65 -46.58,18.59 -62.7,43.5 -69.58,99.91z"/>
  <path class="fil0" d="M503.23 1702.01c40.9,-21.36 65.5,-56.93 97.84,-89.24 10.39,-10.37 99.4,-99.58 80.13,-26.23 -5.69,21.68 -155.06,163.13 -177.97,175.28 -30.41,-9.26 -100.28,-74.52 -103.15,-96.41 -10.35,-78.91 77,23.09 103.15,36.59zm0 -33c-50.91,-20 -65.89,-94.92 -125.2,-28.89 -6.83,52.12 20.49,64.49 45.5,89.23 89.87,88.92 79.03,73.58 189.31,-37.41 16.04,-16.14 89.83,-79.85 94.63,-101.01 10.69,-47.15 -32.92,-93.04 -102.04,-22.01 -32.68,33.58 -67.66,71.75 -102.21,100.09z"/>
  <path class="fil1" d="M1445.56 1501.39c0,10.26 4.75,15.01 12.55,19.83l26.03 13.7c14.68,7.26 30.17,16.8 43.25,26.5 2.75,2.04 10.02,6.56 11.53,8.8 -5.84,3.87 -10.83,8.85 -16.19,13.33l-19.38 17.4c-4.62,3.65 -16.8,16.81 -21.25,22.28 -0.63,0.77 -0.98,1 -1.65,1.74 -0.8,0.89 -0.74,1 -1.5,1.89 -13.18,15.52 -33.4,43.35 -33.4,64.16 0,10 0.83,16.7 5.18,25.2 2.22,4.34 7.69,10.9 13.79,10.9 5.67,0 9.67,-0.77 13.74,-4.68 2.89,-2.78 4.2,-4.64 6.48,-8.02 8.83,-13.07 16.02,-32.17 25.86,-46.59 6.27,-9.18 10.81,-16.54 17.81,-26.17 9.07,-12.49 19.1,-24.44 29.33,-35.94 1.31,-1.47 2.31,-2.16 3.52,-3.73 0.68,-0.89 6.63,-7.22 7.29,-7.7 5.45,3.61 26.81,25.34 31.73,30.2 3.94,3.9 7.2,8.18 11.18,12.04l7.3 8.18c0.96,1 0.96,1.15 1.75,2.12l5.35 6.25c12.98,15.86 25.6,31.98 37.13,48.93 1.17,1.72 1.82,2.92 3.09,4.64 1.26,1.71 1.93,2.95 3.03,4.7 1.85,2.93 6.91,11.73 9.45,13.75 3.23,2.57 12.44,3.74 14.11,-1.25 0.91,-2.74 -4.86,-14.35 -6.23,-17.61 -4,-9.5 -10.7,-23.87 -16.05,-32.73l-34.1 -55.77 -16.95 -23.65c-2.52,-3.3 -4.68,-6 -7.15,-9.28l-10.98 -13.67c-1.17,-1.46 -2.26,-3.15 -3.95,-4.27 1.5,-2.22 3.55,-3.65 5.69,-5.44l8.78 -7.68c14.41,-13.58 52.89,-40.38 67.8,-49.84 1.21,-0.77 2.2,-1.27 3.32,-2.01 3.56,-2.35 7.38,-3.6 9.05,-7.89 1.54,-3.93 2.22,-10.52 -3.03,-11.61 -1.65,-0.34 -2.5,0.37 -4.27,1.02 -15.87,5.76 -30.74,13.64 -45.85,21.04 -1.59,0.78 -2.31,1.18 -3.77,2.05l-59.6 36.3c-5.65,-8.35 -30.67,-29.44 -41.25,-37.13 -5.07,-3.69 -10.22,-7.34 -15.8,-10.35 -8.93,-4.81 -17.64,-8.97 -27.74,-11.53 -12.81,-3.25 -30.93,-1.11 -40.55,8.58 -1.86,1.87 -4.48,5.57 -4.48,9.04z"/>
 </g>
</svg>
