<?xml version="1.0" encoding="UTF-8"?>
<!DOCTYPE svg PUBLIC "-//W3C//DTD SVG 1.1//EN" "http://www.w3.org/Graphics/SVG/1.1/DTD/svg11.dtd">
<!-- Creator: CorelDRAW -->
<svg xmlns="http://www.w3.org/2000/svg" xml:space="preserve" width="100%" height="100%" version="1.1" style="shape-rendering:geometricPrecision; text-rendering:geometricPrecision; image-rendering:optimizeQuality; fill-rule:evenodd; clip-rule:evenodd"
viewBox="0 0 1816.26 1681.2"
 xmlns:xlink="http://www.w3.org/1999/xlink"
 xmlns:xodm="http://www.corel.com/coreldraw/odm/2003">
 <defs>
  <style type="text/css">
   <![CDATA[
    .fil0 {fill:#003399}
   ]]>
  </style>
 </defs>
 <g id="Layer_x0020_1">
  <metadata id="CorelCorpID_0Corel-Layer"/>
  <path class="fil0" d="M367.59 1190.06c17.02,47.46 20.88,127.61 28.25,183.04 15.59,117.21 31.17,110.08 -25.18,182.98 -45.98,-16.74 -27.12,-16.32 -61.98,-39.01 -6.36,-58.02 6.76,-114.7 13.95,-173.24 10.26,-83.54 3.13,-137.72 44.95,-153.77zm29.09 -35.18l26.77 -48.45 12.22 50.35 -39 -1.9zm-111.23 -124.02l137.37 0.16c-4.87,19.45 -11.28,27.84 -22.75,46.94l-45.32 53.59 -69.3 -100.7zm-136.93 -222.8c83.03,-3.11 139.67,-11.07 213.81,-39.13 76.57,-28.98 115.8,-71.66 174.06,-93.67 147.5,359.43 -347.76,448.43 -387.87,132.8zm1.71 -30.72c27.28,-189.36 214.24,-246.18 354.03,-132.01 -71.59,77.97 -210.5,130.53 -354.03,132.01zm-123.02 891.2c64.89,-294.86 -138.94,-495.15 225.19,-591.59l-7.9 98.13 65.47 18.75c-21.35,252.86 -83.04,331.62 44.78,400.95l86.54 -74.4 -36.54 -321.37 52.76 -19.89c2.6,-0.96 7.06,-2.19 10.34,-3.87l-3.87 -99.9c59.73,28.8 100.71,40.56 147.77,79.48 45.36,37.51 75.78,82.63 121.57,113.35 55.15,-20.22 103.31,-99.53 153.8,-133.98 39.55,25.15 42.87,38.13 72.72,60.32 -18.74,34.22 -180.07,198.01 -214.69,214.2 -94.7,-9.93 -120.6,-125.25 -199.52,-147.08 -13.82,62.39 -12.5,347.11 -0.04,411.63l25.41 -355.31c55.26,30.38 79.07,89.86 138.67,118.04 77.22,21.31 245.22,-167.21 286.55,-225.25 -16.89,-41.71 -75.22,-94.47 -109.09,-116.64 -52.69,18.98 -105.7,100.73 -153.8,134.57 -58.14,-40.81 -75.73,-80.77 -125.65,-116.92 -39.96,-28.94 -122.11,-43.74 -149.77,-90.25l32.16 -30.3c82.66,-64.22 130.24,-141.29 98.7,-262.57 -66.46,-255.56 -448.17,-220.67 -470.97,33.27 -16.95,188.73 124.28,204.21 137.37,271.43 -108.49,80.49 -243.44,52.37 -250.88,225.14 -1.13,26.05 -17.7,461.64 22.92,410.08z"/>
  <path class="fil0" d="M797.12 1570.77l646.03 -1.02 35.5 -0.86 201.12 2.46 94.53 -2.9 6.53 20.71 -0.13 62.54 -985.36 -0.22 1.79 -80.72zm692.37 -236.62c21.44,38.02 10.4,145.36 7.46,201.98l-71.43 1.9 63.97 -203.88zm160.88 201.56c-14.22,-51.37 -14.41,-183.92 0.03,-235.21l68.56 0.93 6.2 51.13 -1.04 130.19c0,65.36 -6.96,55.39 -73.74,52.95zm-121.67 -232.49l79.66 -1.2 0.62 230.33c-93.54,7.95 -82.99,12.98 -81.35,-96.66 0.66,-44.19 0.44,-88.28 1.07,-132.48zm-208.74 231.54c-3.98,-41.56 17.08,-80.88 30.63,-121.19 39.1,-116.28 14.06,-113.95 114.99,-112.2 -10.42,51.7 -29.32,98.07 -45.22,147.11 -25.44,78.43 -11.13,101.45 -100.4,86.28zm403.88 -276.72c-28.59,20.98 -37.39,13.16 -80.22,13.16 6.09,-40.93 -18,-39.73 36,-43 47.9,-2.9 36.85,10.41 44.22,29.84zm-161.89 14.19c-55.12,-2.64 -21.05,-4.84 -33.5,-14.19 5.2,-7.02 -12.85,-34.32 44.71,-29.36 54.94,4.73 26.89,7.82 35.52,29.36 -13.49,8.93 -4.65,16.2 -46.73,14.19zm-118.35 1.02c-63.46,2.68 -35.25,-11.8 -41.02,-15.21 14.4,-16.19 -15.32,-26.42 40.56,-29.33 66.67,-3.48 32.73,10.96 42.84,17.5 -14.97,24.02 22.2,24.31 -42.38,27.04zm357.08 403.6c14.63,-35.86 9.45,-63.66 9.45,-111.3 -24.57,-53.47 -6.39,-7.99 -55.65,-35.48 -1.86,-103.81 29.68,-303.59 -33.12,-324.45l-62.79 -3.36c-38.81,2.24 -46.15,-1.06 -85.25,-0.89 -32.79,0.15 -146.48,-0.27 -167.08,4.73 -58.27,42.44 -89.51,254.23 -128.71,332.58l-512.09 3.71 6.93 138.81 1028.3 -4.35z"/>
  <path class="fil0" d="M650.57 183.3c39.83,-11.45 23.37,15 31.3,-25.21 14.97,-150.46 -51.14,-125.24 382.7,-125.24 173.52,0 347.04,0.2 520.55,-0.01 233.17,-0.28 195.13,-26.51 195.13,314.48 0,97.15 28.7,434.65 -25.69,490.09 -63.29,27.48 -635.47,11.86 -755.28,10.74 0,-55.28 11.88,-129.11 -17.54,-152.17 -23.73,35.54 -11.84,105.48 -11.84,150.91 -74.44,4.33 -216.4,8.74 -275.22,-11.15 -25.07,-74.74 -12.83,-295.22 -12.83,-393.8 -8.05,-41.61 5.22,-11.95 -31.3,-25.54 12.03,109.44 -14.14,291.56 4.36,389.49 20.68,109.46 208.26,69.12 314.91,73.57 -0.52,47.91 -6.81,85.76 11.92,121.16 26.8,-32.17 17.7,-70.82 17.7,-116.28 157.45,-36.35 640.25,27.36 756,-12.61 87.81,-30.32 54.67,-227.24 54.67,-323.35 0,-126.15 -0.52,-252.41 0.11,-378.54 0.95,-189.1 -36.01,-167.04 -213.29,-166.83 -126.19,0.15 -252.39,0.01 -378.57,0.01 -628.2,0 -542.79,-41.19 -567.81,180.27z"/>
  <path class="fil0" d="M871.29 376.9l-2.48 125.94c55.83,9.02 81.4,20.52 119.72,-1.76 -29.56,-41.26 -44.64,3.18 -91.23,-35.48 47.35,-19.52 54.47,7 93.48,-23.65 -50.85,-46.1 -61.55,13.06 -92.25,-35.48 48.54,-17.17 55.8,8.73 90.42,-23.66 -30.66,-23.71 -37.64,-13.92 -117.66,-5.91z"/>
  <path class="fil0" d="M1215.74 453.77c0.06,41.9 9.85,41.48 14.46,48.22l16.16 -48.08c2.3,-20 -0.22,-26.68 4.02,-46.04 57.4,32.81 -10.54,36.24 38.97,96.37l12.72 -50.65c4.82,-36.68 -8.67,-12.19 10.94,-43.87 1.85,2.06 5,2.24 5.46,6.28 10.62,93.33 14.6,75.59 30.03,84.78 13.44,-56.8 20.51,-65 -3.85,-114.22 -78.1,-21 -129.05,-20.56 -128.92,67.22z"/>
  <path class="fil0" d="M153.57 1670.05l13.24 0.28c15.63,-59.1 8.29,-125.84 8.3,-187.57 0.02,-108.29 16.74,-145.53 -21.48,-164.72 -19.65,46.89 -14.97,296.13 -0.06,352z"/>
  <path class="fil0" d="M1497.85 489.25c-46.86,-36.4 -79.49,13.9 -77.19,-71.63l77.66 -18.94c-28.41,-32.91 -34.98,-22.56 -83.03,-16.94 -70.8,118.94 36.23,148.48 82.55,107.5z"/>
  <path class="fil0" d="M1011.45 1074.19c31.57,25.39 9.06,63.15 8.71,80.48 -0.66,32.86 -4.22,3.84 8.93,22.99 111.31,-111.47 -102.65,-207.78 -114.5,-100.26 50.75,-5.5 30.18,-28.85 96.86,-3.2z"/>
  <path class="fil0" d="M1586.67 98.94c19.08,19.45 -31.91,11.7 45.27,19.17 11.51,1.11 37.4,-0.56 52.63,0.24 25.01,58.37 -9.69,85.22 30.69,108.07 19.89,-37.53 10.71,-93.45 0.73,-128.17 -35.8,-11.57 -92.66,-21.04 -129.32,0.69z"/>
  <path class="fil0" d="M1538.38 293.99c-5.04,14.62 -9.01,5.95 -6.89,27.99 2.85,29.72 7.73,11.06 9.47,27.25 4.76,44.38 -13.47,1.04 -7.53,49.52l60.36 6.55c-2.43,-25.93 -15.65,-18.23 -7.52,-46.01 10.18,-34.76 21.16,-10.55 4.22,-64.46l-52.1 -0.85z"/>
  <path class="fil0" d="M1051.35 418.29c31.25,12.8 72.86,14.72 105.53,0 -11.37,-22.94 8.22,-19.62 -44.61,-22.2 -78.59,-3.85 -53.84,17.89 -60.92,22.2z"/>
  <path class="fil0" d="M664.04 354.92l17.13 -9.8 0.65 -91.24 -18.17 -9.29c-17.44,29.49 -17.4,81.56 0.39,110.33z"/>
  <path class="fil0" d="M1050.3 465.59c22.57,27.81 87.2,30.09 107.39,0 -33.75,-19.63 -75.8,-16.57 -107.39,0z"/>
 </g>
</svg>
