<?xml version="1.0" encoding="UTF-8"?>
<!DOCTYPE svg PUBLIC "-//W3C//DTD SVG 1.1//EN" "http://www.w3.org/Graphics/SVG/1.1/DTD/svg11.dtd">
<!-- Creator: CorelDRAW -->
<svg xmlns="http://www.w3.org/2000/svg" xml:space="preserve" width="100%" height="100%" version="1.1" style="shape-rendering:geometricPrecision; text-rendering:geometricPrecision; image-rendering:optimizeQuality; fill-rule:evenodd; clip-rule:evenodd"
viewBox="0 0 1442.48 1445.59"
 xmlns:xlink="http://www.w3.org/1999/xlink"
 xmlns:xodm="http://www.corel.com/coreldraw/odm/2003">
 <defs>
  <style type="text/css">
   <![CDATA[
    .fil0 {fill:#003399}
   ]]>
  </style>
 </defs>
 <g id="Layer_x0020_1">
  <metadata id="CorelCorpID_0Corel-Layer"/>
  <path class="fil0" d="M1284.72 28.98c0.17,78.2 13.31,192.27 -15.41,248.98 -31.61,6.82 -40.78,13.11 -62.69,-8.95 -16.31,-16.44 -2.77,-7.98 -15.57,-23.03 -14.86,-17.47 3.44,-9.37 -22.27,-16.49l-9.66 158.42c-91.2,44.98 -86.29,-35.24 -85.74,-120.66 0.49,-75.87 0.14,-151.9 0.14,-227.78l211.19 -10.49zm-898.96 244.67c13.1,-12.9 14.45,-15.03 15.39,-55.08 1.07,-45.61 -20.88,-157.18 20.74,-182.76 51.47,-21.56 532.04,-12.05 626.28,-8.4 0.43,158.55 -47.21,440.95 96.67,395.96 52.28,-16.35 45.64,-71.34 47.85,-123.81 161.52,39.57 117.06,-136.8 117.33,-268.59 141.67,-26.46 104.47,82.44 104.47,196.66 -0,136.61 8.63,906.29 -6.14,930.88 -24.01,39.99 -183.25,24.83 -259.86,24.83l-257.41 0.66c-46.55,9.76 -11.48,-2.3 -28.91,14.11 42.05,25.6 304.15,10.08 375.47,10.09 206.97,0.03 201.98,11.34 201.93,-198.25 -0.06,-260.78 -0,-521.56 0,-782.33 0,-199.54 38.21,-223.99 -162.3,-227.62l-792.95 1.41c-73.43,0.33 -105.94,11.72 -109.26,86.93 -1.94,43.89 -9.8,155.5 10.7,185.31z"/>
  <path class="fil0" d="M855.64 712.87c53.08,43.01 203.56,-13.47 103.92,267.04 -37.17,104.65 -121.89,194.32 -205.56,239.63 -462.42,250.43 -1007.17,-354.46 -575.83,-793.2 55.17,-56.11 203.31,-133.13 323.81,-114.98 62.42,9.4 58.43,76.28 78.82,136.56 14.54,42.96 48.19,123.49 90.85,135.1 -5.36,-36.28 -51.53,-93.75 -70.51,-154.93 -23.53,-75.83 -14.03,-131.63 -96.63,-141.55 -368.05,-44.2 -669.47,433.5 -402.95,799.59 124.5,171.01 406.81,302.51 670.5,151.76 87.03,-49.75 173.78,-139.77 213.03,-253.05 34.74,-100.24 67.61,-232.08 -40.04,-266.01 -90.69,-28.58 -74.43,-20.85 -89.42,-5.97z"/>
  <path class="fil0" d="M720.23 597.41l72.6 -2.65 27.99 292.72 -132.3 -0.31 31.71 -289.76zm-37.31 408.54c16.94,-25.81 4.69,-54.76 9.07,-93.22l129.55 0.16c3.53,38.21 -7.11,61.01 9.96,91.77 44.87,-50.56 -7.92,-354.75 -16.13,-434.61l-112.7 0.13c-26.41,68.59 -59.25,398.91 -19.76,435.77z"/>
  <path class="fil0" d="M862.7 774.22c5.3,53.1 69.24,79.16 38.66,176.68 -17.63,56.24 -69.31,102.88 -139.22,105.89 -123.42,5.31 -204.09,-133.47 -131.94,-238.7 21.85,-31.87 17.68,-4.59 21.12,-43.7 -109.07,21 -105.74,303.49 100.91,307.2 203.71,3.66 226.95,-269.83 110.48,-307.36z"/>
  <path class="fil0" d="M269.28 564.32c-20.39,-148.07 187.1,-165.59 205.65,-38.82 9.28,63.4 -32.2,112.63 -84.82,121.09 -61.01,9.8 -114.32,-35.04 -120.83,-82.27zm59.01 -140.74c-169.85,64.5 -65.5,309.75 96.77,239.84 140.37,-60.47 68.74,-302.69 -96.77,-239.84z"/>
  <path class="fil0" d="M321.16 861.41c-45.8,122.12 -248.03,68.92 -196.71,-73.67 43.79,-121.66 245.49,-56.39 196.71,73.67zm-151.44 -150.21c-156.74,76.47 -55.48,293.36 97.11,239.05 161.44,-57.46 66.07,-318.66 -97.11,-239.05z"/>
  <path class="fil0" d="M534.13 1089.18c-51.98,122.51 -255.2,40.54 -190.44,-91.73 22.39,-45.72 84.99,-72.01 141.44,-47.15 42.93,18.91 75.94,75.37 49,138.88zm-124.23 -168.97c-175.93,49.2 -102.79,288.23 58.73,251.07 169.03,-38.88 103.5,-296.44 -58.73,-251.07z"/>
  <path class="fil0" d="M708.07 519.03c-57.04,-106.54 5.43,-150.8 32.16,-216.23l18.95 38.37c4.05,13.67 1.05,13.22 7.63,30.15 25.8,66.32 98.56,62.9 40.22,149.74l-98.96 -2.03zm-14.89 23.38l128.5 3.2c37.7,-54.14 52.63,-86.44 -1.23,-138.61 -55,-53.27 -29.45,-82.1 -43.74,-164.43 -32.67,2.73 -177.85,168.46 -83.52,299.83z"/>
  <path class="fil0" d="M791.1 1415.81l-69.17 3.42c-3.74,-41.12 1.82,-100.93 -19.2,-128.74 -18.54,21.43 -15.82,88.31 -6.13,122.93 11.59,41.43 60.11,33.12 101.26,27.36 26.85,-36.01 40.45,-172.72 13.84,-208.8 -18.74,38 -15.06,126.99 -20.59,183.83z"/>
  <path class="fil0" d="M1079.78 544.52c-11.59,-65.41 19.48,-72.54 72.33,-61.76 19.72,47.8 20.85,52.62 -13.54,81.41 -33.54,3.24 -39.87,-2.56 -58.8,-19.65zm5.82 -88.65c-22.12,25.74 -48.26,46.24 -31.94,93.86 10.84,31.65 48.16,52.78 90.11,40.11 65.75,-19.86 78.17,-151.59 -58.17,-133.97z"/>
 </g>
</svg>
