<?xml version="1.0" encoding="UTF-8"?>
<!DOCTYPE svg PUBLIC "-//W3C//DTD SVG 1.1//EN" "http://www.w3.org/Graphics/SVG/1.1/DTD/svg11.dtd">
<!-- Creator: CorelDRAW -->
<svg xmlns="http://www.w3.org/2000/svg" xml:space="preserve" width="100%" height="100%" version="1.1" style="shape-rendering:geometricPrecision; text-rendering:geometricPrecision; image-rendering:optimizeQuality; fill-rule:evenodd; clip-rule:evenodd"
viewBox="0 0 393.7 409.91"
 xmlns:xlink="http://www.w3.org/1999/xlink"
 xmlns:xodm="http://www.corel.com/coreldraw/odm/2003">
 <defs>
  <style type="text/css">
   <![CDATA[
    .fil2 {fill:#404E57}
    .fil0 {fill:#63B4F5}
    .fil4 {fill:#ED5250}
    .fil1 {fill:#FEC828}
    .fil3 {fill:white}
   ]]>
  </style>
 </defs>
 <g id="Layer_x0020_1">
  <metadata id="CorelCorpID_0Corel-Layer"/>
  <path class="fil0" d="M44.85 108.7c10.38,-4.39 4.29,-3.66 15.57,-1.15 2.04,-7.76 -3.59,-3.19 5.31,-5.37l16.22 0.22 1.17 3.91 15.86 0.57c1.55,-7.22 1.67,-4.5 12.32,-4.95 5.59,-0.24 13.39,0.23 19.28,0.26l255.3 0c0,-18.8 3.02,-37.48 -9.34,-49.17 -9.78,-9.25 -29.26,-10.3 -44.21,-6.57 -0.63,15.23 3.49,37.83 -17.82,36.48 -18.48,-1.18 -14.52,-22.2 -15.81,-37.98l-84.81 0.08c-1.29,15.76 2.7,36.78 -15.86,38 -21.25,1.41 -17.24,-21.38 -17.84,-37.76l-85.02 -0.24c-1.24,15.72 2.77,37.17 -16,38.04 -21.03,0.97 -16.98,-21.69 -17.64,-36.77 -51.18,-10.85 -53.62,14.24 -53.62,55.89 47.9,0 34.72,-1.27 36.94,6.52z"/>
  <path class="fil0" d="M189.31 335.38c8.89,-7.77 16.76,-16.35 25.59,-25.15 5.74,-5.7 17.59,-23.28 30.57,-15.85 15.83,9.07 -3.22,24.76 -8.45,29.87 -16.52,16.14 -40.25,47.59 -52.98,42.83 -5.04,-1.89 -20.2,-19.4 -24.8,-23.8 -22.37,-21.41 -3.42,-28.6 3.5,-28 9.21,0.8 18.63,15.1 26.57,20.1zm-5.59 -76.81c-101.32,23.54 -62.09,162.65 28.25,143.3 35.29,-7.56 67.17,-43.55 56.19,-89.16 -7.89,-32.77 -41.96,-64.01 -84.44,-54.14z"/>
  <path class="fil1" d="M46.31 161.14l0.27 24.13c85.09,2.36 210.7,0.11 300.91,0.54 0.69,-14.08 0.78,-30.13 -2.51,-41.72l-276.55 -3.1c-18.27,0 -22.12,1.68 -22.12,20.15z"/>
  <path class="fil2" d="M303.04 192.44l44.41 -0.12c0.39,26.44 3.28,113.24 -2.86,131.33 -11.31,4.09 -27.59,3.07 -41.67,3.07l0.13 -134.28zm-256.53 0.52l44.25 -0.37 0.25 134.13c-14.15,0 -30.55,1.08 -41.74,-3.26 -5.97,-17.96 -3.39,-104.58 -2.75,-130.5zm-0.19 -31.82c0,-18.47 3.85,-20.15 22.12,-20.15l276.55 3.1c3.28,11.59 3.2,27.65 2.51,41.72 -90.2,-0.43 -215.81,1.82 -300.91,-0.54l-0.27 -24.13zm51.56 31.28l44.26 -0.12 -0.14 55.56c0.97,13.1 -1.37,6.98 4.82,10.97 6.29,-14 2.1,-48.56 2.34,-66.44l44.26 -0.09 0.03 41.88c1.93,12.65 -1.75,4.36 4.73,8.49 5.5,-12.76 2.08,-35 2.28,-50.32l44.26 -0.05 -0.14 55.57c1.04,13.5 -1.3,7.13 4.94,10.93 6.16,-14.37 1.97,-48.58 2.22,-66.5l44.39 0 0.02 134.42c-12.91,0.35 -7.89,-1.84 -11.72,4.65 9.89,4.32 38.91,3.52 51.31,1.87 17.76,-2.37 18.63,-15.85 18.53,-34.22 -0.91,-169.61 16.71,-165.31 -50.69,-165.26l-216.21 0c-56.63,-0.09 -48.28,5.8 -48.19,59.81 0.06,36.07 0.04,72.13 -0.05,108.19 -0.05,19.34 2.72,30.19 21.1,32.06 14.23,1.45 37.18,2.64 49.2,-2.45 -3.92,-6.4 -0.98,-0.2 -11.67,-8.11l0.12 -130.84z"/>
  <path class="fil2" d="M306.13 23.34c0,-7.07 1.4,-10.98 3.75,-15.12 14.61,-2.8 15.16,1.6 15.16,15.12 0,16.02 2.28,38.96 -3.07,51.54l-12.78 -0.55c-3.72,-10.65 -3.05,-36.72 -3.05,-50.99zm-115.65 50.82c-4.29,-11.69 -2.57,-26.87 -2.97,-40.09 -0.48,-15.93 -3.95,-29.4 15.15,-25.89 6.53,11.75 5.43,53.05 0.63,66.84l-12.81 -0.87zm-121.64 -50.82c0,-14.04 0.24,-17.99 15.1,-15.28 7.09,12.45 4.15,56.85 0.73,66.48 -13.67,1.72 -15.02,0.78 -15.62,-13.22l-0.21 -37.97zm-24 85.36c-2.22,-7.79 10.96,-6.52 -36.94,-6.52 0,-41.65 2.44,-66.75 53.62,-55.89 0.66,15.08 -3.39,37.74 17.64,36.77 18.76,-0.87 14.76,-22.31 16,-38.04l85.02 0.24c0.6,16.38 -3.41,39.17 17.84,37.76 18.56,-1.23 14.57,-22.24 15.86,-38l84.81 -0.08c1.29,15.78 -2.68,36.8 15.81,37.98 21.31,1.36 17.19,-21.25 17.82,-36.48 14.95,-3.73 34.43,-2.68 44.21,6.57 12.36,11.69 9.34,30.37 9.34,49.17l-255.3 -0c-5.9,-0.03 -13.69,-0.5 -19.28,-0.26 -10.65,0.45 -10.77,-2.27 -12.32,4.95 6.84,3.74 275.61,5.22 291.33,0.94l1.5 -4.13c3.08,-13.28 -0.94,10.38 0.91,-4.68l0.04 -24.46c-1.86,-38.12 -31.42,-36.47 -60.86,-36.47 0,-18.38 2.86,-38.98 -17.22,-38.04 -18.7,0.88 -15.31,20.24 -15.31,38.06l-86.13 -0.02c0,-18.34 2.91,-39.39 -17.43,-38.02 -18.36,1.24 -15.17,20.22 -15.22,38.02l-86.07 0c0,-16.05 0.13,-22.13 -3.57,-34.61 -34.36,-11.48 -26.01,12.75 -29.96,34 -39.2,4.17 -62.17,-3.72 -60.08,56.31l2.58 15.03 41.35 -0.1z"/>
  <path class="fil3" d="M302.91 326.72c14.08,0 30.36,1.02 41.67,-3.07 6.15,-18.09 3.25,-104.89 2.86,-131.33l-44.41 0.12 -0.13 134.28z"/>
  <path class="fil4" d="M46.51 192.96c-0.63,25.92 -3.22,112.54 2.75,130.5 11.2,4.34 27.59,3.26 41.74,3.26l-0.25 -134.13 -44.25 0.37z"/>
  <path class="fil2" d="M183.72 258.57c42.48,-9.87 76.56,21.37 84.44,54.14 10.98,45.61 -20.9,81.6 -56.19,89.16 -90.34,19.35 -129.57,-119.76 -28.25,-143.3zm91 91.71c26.26,-103.33 -129.24,-142.4 -155.48,-40.93 -27.18,105.15 129.76,142.15 155.48,40.93z"/>
  <path class="fil2" d="M278.46 361.09c5.11,7.01 8.22,4.64 19.57,4.49 33.69,-0.43 83.89,7.69 93.32,-22.02 3.39,-10.67 3.22,-220.52 -1.3,-227.79 -8.5,5.35 -4.28,70.5 -4.19,83.2 0.22,29.7 0.05,59.46 0.05,89.17 0,31.62 7.67,62.31 -20.92,69.35 -25.63,6.31 -64.59,-5.91 -86.53,3.6z"/>
  <path class="fil2" d="M3.57 115.84c-3.76,6.64 -5.51,217.58 -0.42,229.32 11.24,25.94 47.98,20.29 70.69,20.3 21.96,0 35.43,3.68 41.54,-4.37 -22.41,-9.44 -60.84,3 -86.7,-3.67 -28.33,-7.31 -20.83,-37.78 -20.83,-69.28 0,-29.72 0,-59.44 0,-89.17 0,-12.01 4.34,-78.25 -4.28,-83.13z"/>
  <path class="fil2" d="M190.06 360.78c-10.09,-2.63 -34.4,-25.91 -33.57,-35.63 13.03,-7.15 11.96,6.09 30.87,18.89 13.24,-3.69 17.73,-15.35 26.55,-23.99 4.14,-4.06 7.11,-5.98 12.46,-11.89 6.49,-7.17 5.51,-10.15 15.78,-7.36 3.34,8.11 -0.74,10.57 -6.74,16.45l-45.34 43.52zm-0.75 -25.41c-7.94,-5 -17.36,-19.3 -26.57,-20.1 -6.91,-0.6 -25.87,6.59 -3.5,28 4.59,4.4 19.76,21.91 24.8,23.8 12.72,4.77 36.45,-26.69 52.98,-42.83 5.23,-5.11 24.28,-20.81 8.45,-29.87 -12.98,-7.43 -24.83,10.15 -30.57,15.85 -8.84,8.79 -16.7,17.38 -25.59,25.15z"/>
  <path class="fil3" d="M235.4 317.26c6,-5.88 10.08,-8.33 6.74,-16.45 -10.26,-2.79 -9.28,0.19 -15.78,7.36 -5.35,5.91 -8.32,7.83 -12.46,11.89 -8.81,8.64 -13.31,20.3 -26.55,23.99 -18.9,-12.81 -17.84,-26.04 -30.87,-18.89 -0.83,9.71 23.48,32.99 33.57,35.63l45.34 -43.52z"/>
  <path class="fil3" d="M190.49 74.17l12.81 0.87c4.79,-13.8 5.89,-55.09 -0.63,-66.84 -19.1,-3.51 -15.63,9.96 -15.15,25.89 0.4,13.22 -1.32,28.4 2.97,40.09z"/>
  <path class="fil3" d="M68.85 23.34l0.21 37.97c0.61,14 1.95,14.95 15.62,13.22 3.41,-9.63 6.35,-54.03 -0.73,-66.48 -14.86,-2.7 -15.1,1.24 -15.1,15.28z"/>
  <path class="fil3" d="M306.13 23.34c0,14.27 -0.67,40.34 3.05,50.99l12.78 0.55c5.36,-12.57 3.07,-35.52 3.07,-51.54 0,-13.52 -0.55,-17.93 -15.16,-15.12 -2.35,4.14 -3.75,8.06 -3.75,15.12z"/>
  <path class="fil2" d="M60.43 107.56c4.75,1.53 20.34,4.21 22.7,-1.25l-1.17 -3.91 -16.22 -0.22c-8.9,2.18 -3.27,-2.39 -5.31,5.37z"/>
 </g>
</svg>
