<?xml version="1.0" encoding="UTF-8"?>
<!DOCTYPE svg PUBLIC "-//W3C//DTD SVG 1.1//EN" "http://www.w3.org/Graphics/SVG/1.1/DTD/svg11.dtd">
<!-- Creator: CorelDRAW -->
<svg xmlns="http://www.w3.org/2000/svg" xml:space="preserve" width="100%" height="100%" version="1.1" style="shape-rendering:geometricPrecision; text-rendering:geometricPrecision; image-rendering:optimizeQuality; fill-rule:evenodd; clip-rule:evenodd"
viewBox="0 0 3426.22 3143.23"
 xmlns:xlink="http://www.w3.org/1999/xlink"
 xmlns:xodm="http://www.corel.com/coreldraw/odm/2003">
 <defs>
  <style type="text/css">
   <![CDATA[
    .fil0 {fill:#003399}
   ]]>
  </style>
 </defs>
 <g id="Layer_x0020_1">
  <metadata id="CorelCorpID_0Corel-Layer"/>
  <path class="fil0" d="M2560.26 373.86l113.37 -0.47c8.81,5.43 3.43,-4.91 7.91,12.59l291.03 1894.4c6.35,40.32 41.92,255.29 41.2,276.7l-790.07 -0.8c-1.24,-22.71 34.29,-231.76 40.46,-273.02 40.15,-268.23 82.1,-553.78 125.94,-818.7 29.94,-180.95 55.42,-364.37 83.88,-545.88 4.14,-26.41 77.05,-528.79 86.28,-544.81zm-2331.02 2662.07l-103.96 0.37 408.65 -2662.72 104.22 -0.07 -408.92 2662.41zm1810.91 -0.63l-103.99 0.93 408.68 -2662.69 104.56 0.01 -409.24 2661.74zm747.16 -2661.57l103.62 -0.53 411 2663.09 -104.69 -0.26 -409.93 -2662.3zm-886.48 2182.2l-1488.04 0.32 334.13 -2181.99 1489.28 -0.61 -335.37 2182.27zm703.66 -2448.86l236.6 0.21 30.8 159.42 -300.84 -1.26 33.44 -158.37zm-2049.15 159.63c-1.65,-25.23 24.18,-127.7 29.88,-159.85l1910.12 0.35 -34.89 158.77c-242.4,3.57 -503.96,0.78 -750.48,0.29l-1154.63 0.43zm-555.33 2876l320.87 0.52 73.72 -478.5 1489.48 -0.89 -73.57 478.88 321.38 0.5 73.55 -478.01 826.34 -1.39 73.41 479.4 321.04 -0.03c-6.43,-63.28 -19.91,-133.24 -29.88,-197.08l-90.97 -591.64c-41.74,-262.55 -77.8,-526.16 -121.5,-789.78 -43.4,-261.81 -78.74,-524.22 -121.34,-788.09 -10.68,-66.13 -19.35,-131.4 -30.18,-196.88 -10.25,-61.95 -23.9,-135.02 -30.02,-196.32 -8.27,-82.79 -55.72,-285.29 -73.43,-383.4l-2431.53 0.01c-11.84,62.7 -24.63,125.64 -37.68,189.06 -8.37,40.72 -34.97,153.1 -35.5,186.86 -0.44,28.66 -181.37,1186.01 -181.46,1186.56 -64.17,389.11 -119.41,793.26 -182.24,1184.69 -10.5,65.44 -19.84,130.69 -30.25,196.21 -10.02,63.08 -24.44,137.51 -30.26,199.32z"/>
  <path class="fil0" d="M1763.83 1187.41c-9.01,28.52 -28.91,38.09 -66.43,37.98 -81.25,-0.23 -618.38,4.43 -639.69,-2.93 -13.79,-4.76 -22.99,-11.43 -29.69,-23.92 -15.56,-29.02 -9.94,-78.83 61.46,-79.44 75.83,-0.65 621.64,-3.33 639.53,2.28 23.28,7.29 44.44,35.56 34.81,66.04zm-592.39 -175.3c-8.34,-13.12 -19.48,-67.26 -26.14,-94.76 -8.28,-34.17 -18.13,-60.41 -17.93,-98.39 0.2,-38.84 -0.01,-77.69 -0.01,-116.54 0,-32.14 -3.13,-85.8 1.12,-115.44l423.27 -0.02c3.8,22.24 1.17,193.85 1.35,231.99 0.28,61.93 -31.86,132.49 -40.83,193.4l-340.81 -0.24zm489.2 -371.48c52.31,-5.99 105.26,-1.2 105.16,52.33 -0.09,53.67 -53.86,56.73 -105.45,52.41l0.29 -104.75zm-602.92 372.98c-66.58,1.93 -121.05,58.8 -136.89,111.96 -23,77.16 14.04,143.98 58.39,175.35 61.24,43.31 133.99,30.95 217.42,30.95l497.58 0.02c229.36,0.33 228.04,-277.76 52.14,-316.5 -28.57,-6.29 -91.02,-3.22 -123.59,-2.93 6.48,-47.96 35.67,-116.75 35.71,-159.83 71.73,-0.01 101.24,4.14 152.48,-33.45 30.4,-22.3 62.23,-66.87 62.12,-126.2 -0.11,-58.06 -30.01,-102.72 -59.92,-125.22 -57.93,-43.57 -77.28,-29.02 -153.47,-35.56l0.48 -52.76 -639.2 -0.03c-3.94,50.22 -0.52,279.9 -0.62,355.38 -0.06,46.09 37.18,139.76 37.37,178.83z"/>
  <path class="fil0" d="M674.65 1758.39l929.76 0.15c5.08,-14.07 4.28,-90.5 0.81,-106.91l-930.04 -0.15 -0.53 106.91z"/>
  <polygon class="fil0" points="630.21,1970.69 1393.49,1971.17 1393.95,1865.75 630.13,1864.7 "/>
  <polygon class="fil0" points="596.1,2184.31 1234.25,2184.05 1234.21,2077.57 594.24,2077.47 "/>
  <path class="fil0" d="M558.94 2395.42c31.74,8 218.61,1.79 266.09,1.79 45.24,0 238.58,2.27 267,-0.88l-0.97 -105.7 -532.13 0.93 0 103.87z"/>
  <polygon class="fil0" points="1073.55,1544.96 1605.26,1545.21 1607.04,1438.38 1073.17,1438.13 "/>
  <polygon class="fil0" points="700.88,1544.89 967.86,1545.19 967.58,1438.41 701.08,1438.23 "/>
  <polygon class="fil0" points="1198.02,2397.12 1394.04,2396.06 1393.27,2290.63 1198.24,2291.6 "/>
  <path class="fil0" d="M1582.73 2394.92c13.69,4.55 91.22,3.9 107.19,0.86l-0.48 -105.16 -106.52 1.3 -0.19 103.01z"/>
  <polygon class="fil0" points="1689.45,1969.98 1795.42,1971.28 1796.27,1864.7 1689.18,1864.9 "/>
  <polygon class="fil0" points="1742.11,2077.94 1637.87,2079.29 1637.8,2182.73 1742.06,2183.04 "/>
  <polygon class="fil0" points="1848.55,1757.44 1847.92,1652.67 1744.08,1652.74 1744.13,1756.57 "/>
  <polygon class="fil0" points="1796.61,1544.09 1901.2,1544.02 1900.64,1440.33 1796.63,1440.02 "/>
  <path class="fil0" d="M1796.63 1440.02l104.01 0.31 0.56 103.69 -104.59 0.07 0.02 -104.07zm-1.56 106.27c19.17,2.15 93.47,3.83 108.63,-1.62l0.32 -106.4 -107.59 -1.34c-6.69,17.07 -5.11,90.06 -1.36,109.36z"/>
  <path class="fil0" d="M1742.11 2077.94l-0.05 105.1 -104.27 -0.31 0.08 -103.44 104.24 -1.35zm0 0c-12.6,-4.8 -88.2,-4.11 -107.25,-0.74l0.43 107.22c16.01,3.73 90.76,3.05 108.78,0.74 2.46,-18.37 1.08,-37.57 1.08,-56.15l0.2 -41.22c-1.07,-11.48 -2.6,-8.81 -3.24,-9.87z"/>
  <path class="fil0" d="M1848.55 1757.44l-104.41 -0.87 -0.06 -103.84 103.84 -0.06 0.63 104.77zm0 0c3.89,-7.26 2.63,-10.52 2.53,-22.03l-0.44 -83.86c-14.23,-4.12 -93.75,-4.06 -108.37,-0.15 -2.75,14.68 -2.88,94.5 0.72,107.78l99.1 0.43c10.41,-1.49 3.48,-0.74 6.47,-2.17z"/>
 </g>
</svg>
