<?xml version="1.0" encoding="UTF-8"?>
<!DOCTYPE svg PUBLIC "-//W3C//DTD SVG 1.1//EN" "http://www.w3.org/Graphics/SVG/1.1/DTD/svg11.dtd">
<!-- Creator: CorelDRAW -->
<svg xmlns="http://www.w3.org/2000/svg" xml:space="preserve" width="100%" height="100%" version="1.1" style="shape-rendering:geometricPrecision; text-rendering:geometricPrecision; image-rendering:optimizeQuality; fill-rule:evenodd; clip-rule:evenodd"
viewBox="0 0 2934.22 2869"
 xmlns:xlink="http://www.w3.org/1999/xlink"
 xmlns:xodm="http://www.corel.com/coreldraw/odm/2003">
 <defs>
  <style type="text/css">
   <![CDATA[
    .fil0 {fill:#003399}
   ]]>
  </style>
 </defs>
 <g id="Layer_x0020_1">
  <metadata id="CorelCorpID_0Corel-Layer"/>
  <g id="_105553395133024">
   <path class="fil0" d="M11.4 2820.31l0 48.69 2911.76 0c0,-82.31 -3.61,-83.62 -9.48,-156.07 -1.52,-18.68 0.95,-39.24 -0.48,-57.95 -1.31,-17.15 -7.24,-38.57 -8.8,-54.5l-29.27 -214.19c-17.15,-65.34 -13.46,-80.54 -94.21,-110.29 -30.05,-11.07 -49.07,-13.07 -65.7,-26.81 -15.9,-13.14 -18.92,-16.04 -40.1,-23.2 -58.62,-19.83 -205.39,-19.37 -262.8,5.56 -43.38,18.84 15.96,6.09 -95.56,45.65 -95.78,33.98 -81.76,76.06 -103.2,184.07 -5.76,28.98 -6.41,56.15 -12.38,85l-8.39 89c-15.87,-11.63 -8.92,-12.38 -9.98,-38.71 -0.78,-19.33 -2.99,-22.59 -4.73,-43.96l-25.83 -168.93c-16.31,-59.73 -13.78,-87.11 -125.55,-117.91 -49.02,-13.51 -26.24,-34.77 -101.33,-44.75 -112.31,-14.92 -89.33,-11.19 -195.31,0.23 -28.09,3.02 -49.17,11.01 -69.07,28.31 -19.91,17.31 -37.18,17.84 -64.83,27.68 -106.28,37.81 -81.72,89.64 -104.54,182.74 -4.67,19.06 -3.48,20.2 -5.22,43.47 -1.13,15.17 -4.89,25.45 -7.51,41.18 -2.89,17.32 -1.04,29.52 -1.87,46.82 -0.95,19.87 -4.86,22.55 -4.86,43.83l-15.77 -86.48c-8.49,-61.84 -26.64,-205.9 -53.33,-233.95 -39.69,-41.7 -99.68,-39.81 -126.96,-62.94 -65.55,-55.57 -278.85,-52.04 -336.13,-2.75 -28.46,24.49 -87.22,24.93 -130.94,63.83 -21.52,19.15 -36.5,117.22 -41.7,153.07 -2.41,16.64 -0.75,28.01 -3.87,44.82 -3.59,19.34 -5.36,21.98 -6.96,41.72 -3.76,46.34 -0.69,72.41 -14.71,82.67l-19.9 -170c-23.74,-114.68 -7.01,-148.16 -96.99,-185.42 -20.63,-8.54 -53.69,-14.17 -71.04,-26.35 -15.63,-10.97 -25.93,-27.11 -65.45,-31.93 -67.37,-8.22 -104.95,-16.39 -174.38,-4.34 -13.04,2.26 -35.62,2.94 -50.97,7.46 -51.86,15.3 -7.96,15.31 -91.68,44.65 -1.15,0.4 -2.37,0.95 -3.51,1.36l-28.26 10.7c-82.65,34.89 -79.11,82.91 -96.17,205.72 -5.63,40.56 -9.78,65.69 -12.89,108.84 -1.1,15.31 -6.5,37.49 -8.19,50.24 -2.72,20.66 -0.1,41.43 -1.19,62.11 -2.02,38.28 -9.76,67.14 -9.76,111.96z"/>
   <path class="fil0" d="M240.25 1077.15l56.92 -69.67c9.06,-10.79 9.28,-13.4 19.71,-24.11l66.09 -75.11c0.7,-0.72 1.62,-1.83 2.37,-2.5 12.07,-10.8 -0.36,-4.5 15.59,-8.76l0 326.23c-18.43,-4.92 -27.3,-19.39 -41.63,-31.41l-83.81 -72c-16.52,-15.23 -24.78,-22.89 -35.24,-42.67zm525.87 -267.8c-16.19,-9.09 -8.26,-7.51 -7.5,-25.49 0.61,-14.33 0.08,-2.25 -1.25,-18.99 -3.91,-49.13 -10.73,-86.41 -10.73,-135.68 -13.9,-7.35 -21.33,-10.94 -34.08,-19.48 -52.03,27.53 -32.21,16.88 -40.27,81.46 -4.94,39.64 -8.43,68 -8.43,118.17 -21.18,-15.52 -52.56,-182.65 -59.66,-213.02 -25.06,-107.3 -8.1,-59.45 -171.96,-18.6 -45.97,11.46 -92.77,70.86 -137.31,115.88l-150.01 166.48c-39.69,51.24 -93.04,107.06 -132.54,164.48 -17.37,25.24 -12.43,87.62 -9.02,99.57 3.17,11.13 -0.33,1.04 4.51,10.1 14.45,27.09 109.61,114.12 137.08,135.59 51.31,40.11 106.96,92.75 173.16,143.33 84.09,64.26 81.69,49.33 82.75,107.15 0.46,24.88 4.95,29.85 4.95,58.35 52.78,12.3 524.92,4.87 618.38,4.87 30.22,0 19.48,-103.77 19.48,-150.94 0,-88.34 -17.61,-465.8 -4.87,-496.65l59.07 48.05c20.62,16.43 38.24,30.86 59.25,47.87 26.58,21.52 107.7,84.24 134.87,84.24 58.14,0 73.71,-15.18 131.42,-53.61 118.29,-78.77 138.88,-96.53 248.32,-180.17 10.25,-7.83 19.62,-14.25 30.37,-23.19 34.89,-29 125.68,-74.39 88.03,-158.41 -5.88,-13.12 -0.74,-3.16 -9.65,-14.76l-6.66 -8.28c-18.66,-32.57 49.48,-111.81 -9.52,-111.81 -18.94,0 -21.89,19.5 -26.62,36.67 -5.09,18.44 -8.24,33.43 -12.33,50.97 -53.62,0 -58.86,8.15 -112.73,47.95 -74.42,54.99 -159.73,112.6 -241.64,157.63 -13.74,7.56 -41.65,24.67 -54.64,28.14 -58.74,-39.34 -179.61,-159.92 -227.47,-215.62 -43.38,-50.47 -3.56,-63.66 -120.54,-103.44 -20.74,-7.05 -35.79,-10.72 -55.36,-17.67l-56.01 -17.54c-54.77,-13.85 -29.25,14.03 -64.54,151.71l-26.29 124.65z"/>
   <path class="fil0" d="M1092.35 59.49c0,47.13 36.43,68.17 82.78,68.17l0 574.56c0,12.14 65.15,78.07 82.78,82.78 3.34,-5.94 4.87,-5.2 4.87,-14.61l0 -642.73 1504.57 0 0 1076.09c0,11.22 -3.39,14.61 -14.61,14.61l-1475.36 0c-23.78,0 -14.61,-50.29 -14.61,-73.04 -16.42,-3.83 -30.03,-10.99 -42.44,-20.87 -8.36,-6.66 -30.4,-29.09 -38.51,-25.17 -26.58,12.86 12.13,101.37 -13.94,116.7 -9.01,5.3 -65.13,-8.42 -73.89,57.78 -4.62,34.93 25.83,71.19 56.79,71.19l1728.55 0c18.18,0 43.23,-16 49.65,-28.26 8.73,-16.67 3.91,-51.75 3.91,-74 -32.67,-11.82 -4.5,-24.34 -73.04,-24.34l0 -1090.69c64.07,0 73.71,-27.04 73.52,-68.28 -0.11,-24.69 -1.89,-40.8 -24.61,-53.67l-6.66 -3.07c-19.7,-6.21 -1506.39,0.83 -1736.86,-1.73 -27.01,-0.3 -35.91,-2.3 -51.01,12.3 -10.27,9.93 -21.88,29.22 -21.88,46.28z"/>
   <path class="fil0" d="M907.33 1919.51c0,81.3 4.27,102.42 34.63,174.74 8.88,21.15 57.53,97.93 82.22,97.93 175.35,0 184.09,26.44 246.81,-98.9 21.4,-42.76 32.04,-95.7 35.54,-145.01 4.88,-68.68 -37.57,-142.78 -94.44,-177.73 -55.89,-34.35 -74.39,-26.32 -144.09,-26.32 -56.14,0 -160.68,88.93 -160.68,175.29z"/>
   <path class="fil0" d="M2353.47 1914.65c0,81.37 -1.44,112.12 38.88,189.97 58.25,112.46 74.8,87.57 243.53,87.57 33.06,0 83.9,-103.52 97.99,-145.46 35.46,-105.57 15.67,-217.41 -82.33,-279.2 -50.21,-31.66 -82.46,-23.29 -147.13,-23.29 -25.09,0 12.03,-3.57 -28.2,10.75 -63.3,22.52 -122.74,97.15 -122.74,159.67z"/>
   <path class="fil0" d="M186.69 1904.91c0,95.72 3.62,166.09 71.49,249.87 13.28,16.4 22.97,37.41 50.24,37.41 168.11,0 176.46,24.36 234.48,-86.88 57.29,-109.81 65.34,-255.44 -55.14,-335.92l-40.25 -18.19c-19.37,-7.25 3.65,-6.97 -17.37,-6.97 -96.08,0 -153.96,-8.15 -221.2,100.16 -6.47,10.42 -22.26,47.47 -22.26,60.52z"/>
   <path class="fil0" d="M2027.23 1953.59c0,-80.78 -24.81,-140.96 -97.52,-184.88 -53.75,-32.47 -72.64,-24.49 -141.06,-24.49 -16.46,0 -44.2,13.35 -57.05,20.86 -86.59,50.6 -115.64,144.85 -97.43,240.74 6.49,34.16 25.91,80 43.22,112.59l51.23 65.63c17.68,14.31 28.16,8.21 69.76,8.15 24.28,-0.04 110.59,6.15 129.69,-6.65l27.71 -30.72c41.37,-51.11 71.45,-131.57 71.45,-201.22z"/>
   <path class="fil0" d="M1725.35 1052.8c38.2,-57.06 75.42,24.34 24.34,24.34 -20.25,0 -24.33,-24.33 -24.34,-24.34zm594.04 -277.54c0,-33.52 43.82,-33.52 43.82,0 0,14.94 -12.01,21.05 -24.35,24.35 -8.3,-5.56 -19.48,-10.59 -19.48,-24.35zm-262.93 -92.52c11.35,0 24.35,12.99 24.35,24.35 0,11.35 -12.99,24.35 -24.35,24.35 -29.51,0 -28.67,-48.69 0,-48.69zm438.22 -258.06c0,70.48 52.2,8.2 -43.09,137.07 -15.53,21 -29.87,41.91 -44.54,62.57 -14.69,20.7 -29.82,42.35 -43.84,63.28 -91.6,0 -80.13,34.08 -97.38,34.08 -30.67,0 -83.86,-24.34 -121.73,-24.34 -8.67,-104.18 -166.07,-101.91 -174.27,1.06 -2.49,31.19 15.73,30.93 -9.41,58.68l-176.64 212.93c-20.17,-0.45 -18.57,-4.87 -29.22,-4.87 -39.59,0 -87.65,34.85 -87.65,73.04 0,35.91 -6.02,51.82 29.76,82.24 58.37,49.64 140.67,-1.35 140.67,-53.02 0,-57.39 -2.76,-28.5 -9.74,-58.43 12.81,-8.59 15.32,-12.36 24.37,-24.32l165.53 -199.66c69.04,33.13 95.28,-24.34 121.73,-24.34 21.52,0 88.13,21.95 116.86,24.34 7.2,86.47 118.78,96.46 155.81,38.95 32.46,-50.41 4.87,-83.81 4.87,-97.38 0,-11.39 39.42,-59.47 51.98,-79.49 13.47,-21.48 83.26,-107.52 89.23,-129.89 137.19,0 132.69,-117.03 89.04,-157.21 -38.48,-35.41 -84.94,-36.42 -124.52,0 -15.03,13.83 -27.82,37.74 -27.82,64.69z"/>
   <path class="fil0" d="M532.4 152.01l0 87.64c0,23.72 2.21,2.43 9.7,38.98 13.53,65.98 78.98,204.48 160.72,204.48 96.2,0 133.8,-79.46 164.86,-156.5 43.84,-108.76 45.57,-227 -58.69,-290.51 -50.55,-30.8 -119.74,-34.46 -173.69,-10.04l-64 47.99c-13.8,16.58 -38.9,55.93 -38.9,77.96z"/>
  </g>
 </g>
</svg>
