<?xml version="1.0" encoding="UTF-8"?>
<!DOCTYPE svg PUBLIC "-//W3C//DTD SVG 1.1//EN" "http://www.w3.org/Graphics/SVG/1.1/DTD/svg11.dtd">
<!-- Creator: CorelDRAW -->
<svg xmlns="http://www.w3.org/2000/svg" xml:space="preserve" width="100%" height="100%" version="1.1" style="shape-rendering:geometricPrecision; text-rendering:geometricPrecision; image-rendering:optimizeQuality; fill-rule:evenodd; clip-rule:evenodd"
viewBox="0 0 1491.13 1541.37"
 xmlns:xlink="http://www.w3.org/1999/xlink"
 xmlns:xodm="http://www.corel.com/coreldraw/odm/2003">
 <defs>
  <style type="text/css">
   <![CDATA[
    .fil0 {fill:#003399}
   ]]>
  </style>
 </defs>
 <g id="Layer_x0020_1">
  <metadata id="CorelCorpID_0Corel-Layer"/>
  <g id="_105553477235520">
   <path class="fil0" d="M532.81 745.13l381.3 0.09c-9.43,-36.37 -13.44,-107.83 1.85,-137.45 19.22,14.22 11.48,37.03 11.42,66.07 -0.06,26.82 1.75,43.66 -4.19,70.04l75.13 0.87c-17.43,-72.11 12.91,-159.06 -21.79,-225.37 -28.11,-53.72 -75.45,-70.25 -132.98,-101.76 -35.92,25.01 -73.63,77.68 -151.66,0.06 -221.93,83.73 -130.49,207.58 -159.07,327.44z"/>
   <path class="fil0" d="M707.54 242.26l114.63 -0.26c2.11,95.89 -118.16,86.9 -114.63,0.26zm131.74 -60.5c2.56,30.65 -4.42,27.87 -28.89,19.37l0.56 -24.74 28.33 5.37zm-145.01 22.58c-6.9,-30.76 -6.44,-17.06 7.24,-31.06 25.96,7.22 23.79,3.74 15.81,31.39l-23.05 -0.33zm-55.63 -46.57c-1.88,58.16 -9.46,12.01 -33.19,55.48 11.09,46 14.48,10.72 31.07,40.85 6.69,12.17 9,38.11 21.67,58.61 19.72,31.91 53.33,45.74 106.57,45.95 48.3,0.19 83.25,-11.74 107.23,-45.3 14.49,-20.28 13.79,-38.73 22.28,-56.13 18.26,-37.4 29.38,-5.16 30.15,-51.18 -26.77,-26.84 -46.64,-7.24 -65.29,-36.71 -13.69,-21.62 -7.76,-60.17 -10.97,-89.41 -110.13,85.96 -138.03,53.41 -209.53,77.84z"/>
   <path class="fil0" d="M411.66 394.76l79.75 -0.11c3.16,32.84 -3.47,47.32 -36.47,48.96 -37.24,1.85 -47.77,-13.02 -43.28,-48.85zm-171.63 290.47c0.52,-108.69 2.97,-174.47 79.98,-218.3 10.26,-5.84 37.74,-18.39 51.85,-21.31 47.07,-9.75 21.48,2.31 60.53,13.7 24.79,7.23 34.99,1.16 53.37,-6.82 38.48,-16.71 20.7,-11.74 65.03,-1.52 16.65,-3.52 4.19,5.6 13.43,-7.42 -23.43,-20.16 -32.19,-9.51 -53.02,-28.79 4.49,-47.25 32.44,-22.55 55.51,-68.47 6.39,-12.72 8.61,-29.17 16.28,-41.4 13.56,-21.59 10.79,-0.68 26.57,-34.04 -75.79,6.76 -30.28,31.78 -65.07,74.72 -34.52,42.63 -157.15,45.34 -189.76,-3.17 -27.04,-40.22 12.55,-14.44 -34.85,-66.22 -26.72,-29.19 -5.82,-33.14 19.25,-48.55 9.15,-71.6 -0.09,-26.18 26.76,-73.67 36.52,6.81 43.26,26.11 82.38,27.56 34.65,1.28 53.92,-16.75 78.94,-27.86 28.77,18.1 15.6,22.28 54.05,32.5 -7.03,-26.44 -0.86,-16.64 -22.26,-33.63 -8.84,-7.02 -19.77,-13.78 -31.8,-20.88 -90.83,42.55 -55.14,47.14 -151.18,0.12 -98.41,51.65 -14.64,67.19 -76.17,94.03 -1.61,-38.71 -3.76,-81.08 11.6,-113.14 10.44,-21.8 38.28,-49.15 63.94,-58.61 103.49,-38.13 197.52,27.91 208.98,28.95 -18.49,-77.5 -219.87,-73.5 -275.33,-1.37 -41.27,53.67 -27.61,177.72 -27.85,268.34 -0.07,28.05 -6.04,65.06 8.45,89.36 19.17,-28.48 4.72,-94.32 11.35,-149.99 17.56,14.57 12.38,0.65 23.36,25.13 7.14,15.92 8.71,29.2 16.83,41.49 24.69,37.35 46.08,12.23 50.18,58.78 -21.11,20.6 -36.18,12 -75.52,33 -22.46,11.99 -43.44,31.81 -58.27,50.17 -38.07,47.13 -36.04,103.11 -36.04,175.92 10.23,21.06 -6.57,18.09 18.48,11.36z"/>
   <path class="fil0" d="M1120.49 397.09c1.38,30.71 -4.23,46.3 -39.08,46.82 -34.82,0.52 -44.78,-15.44 -42.13,-49.29l81.2 2.47zm68.06 -185.09c-33.03,-13.37 -23.8,-35.85 -23.46,-101.93 33.37,16.72 26.04,33.79 23.46,101.93zm-218.6 -25.28c0.04,-48.8 11.12,-79.68 49.98,-92.56 89.49,-29.67 191.23,8.99 61.39,68.85 -31.54,14.54 -73.52,19.6 -111.37,23.71zm9.78 264.01c90.58,-17.96 55.44,20.49 112.5,10.36 34.58,-6.15 37.02,-38.4 113.04,2.99 80.97,44.08 86.94,101.52 85.94,219.08l17.32 2.57c2.95,-77.79 5.76,-134.65 -36.13,-188.2 -36.13,-46.19 -59.51,-51.22 -105.77,-67.38 -68.85,-24.06 1.81,-50.69 16.11,-65.26 21.97,-22.39 12.9,-29.89 25.52,-54.88 11.44,-22.66 72.19,-37.17 0.09,-96.77 -2.37,-47.93 9.2,-95.26 -24.94,-116.48 -9.7,-6.04 -15.91,-6.89 -24.75,-11.32 -34.94,-17.5 -25.51,-14.99 -77.16,-14.74 -96.36,0.47 -137.82,33.17 -127.98,134.18 100.91,6.94 146.95,-35.63 192.09,-63.98 2.15,29.16 -1.43,59.74 17.3,77.35 8.7,8.17 17.49,9.37 28.83,13.6 63.65,23.76 11.7,49.39 10.5,50.6 -30.55,31.06 -4.73,85.72 -85.07,93.37 -93.07,8.86 -142.06,0.34 -148.92,-90.56l-42.5 -12.63c7.66,32.73 9.24,6.74 24.48,36.2 8.38,16.19 6.44,25.11 15.94,41.11 22.49,37.87 49.24,22.96 53.6,64.82 -17.37,14.81 -19.78,11.56 -52.15,22.91 2.96,17.55 -4.41,8.86 12.09,13.04z"/>
   <path class="fil0" d="M613.2 135.98c56.23,0.23 109.91,-5.56 155.65,-26.73 36.66,-16.97 93.95,-52.3 86.74,-94.98 -11.22,-6.34 -236.5,-67.02 -242.39,121.71z"/>
   <path class="fil0" d="M824.45 374.93l-115.34 1.79c-4.15,34.87 12.46,55.45 49.15,58.73 47.37,4.24 63.27,-18.44 66.19,-60.52z"/>
   <path class="fil0" d="M489.94 293.53c-15.74,43.85 -62.54,41.36 -77.13,-0.48l77.13 0.48zm20.39 -13.99c-32.98,-8.85 -84.42,-8.31 -117.83,-0.66 1.39,39.85 20.56,65.9 62.46,63.98 40.67,-1.87 53.36,-24.47 55.36,-63.32z"/>
   <path class="fil0" d="M1108.97 299.21c-13.36,26.29 -39.56,36.28 -58.81,-2.48l58.81 2.48zm-4.08 35.98c14.3,-16.87 26.18,-25.41 23.02,-55.11l-96.82 -0.82c-3.37,49.6 24,63.64 73.8,55.94z"/>
   <path class="fil0" d="M891.62 167.7c1.7,-44.67 10.04,-80.55 -18.85,-98.94 -11.7,28.85 -12.31,88.24 18.85,98.94z"/>
   <path class="fil0" d="M726.92 261.48c9.91,12.95 9.23,28.3 38.16,29.2 24.61,0.76 35.61,-14.3 40.4,-32.48l-78.56 3.28z"/>
   <path class="fil0" d="M1016.91 256.3c27.58,2.72 10.91,-2.54 18.29,-14.26 -8.54,-15.1 11.8,-16.48 -18.65,-15.66 -21.13,0.57 -17.48,28.16 0.36,29.92z"/>
   <path class="fil0" d="M380.72 243.85c28.62,10.05 25.43,5.97 26.11,-25.09 -30.78,-0.49 -36.85,-4.74 -26.11,25.09z"/>
   <path class="fil0" d="M512.81 249.02c2.85,-5.87 24.99,1.53 10.5,-23.68 -6.48,-11.28 -12.24,-8.61 -25.72,-5.12l-1.29 23.75 16.52 5.05z"/>
   <path class="fil0" d="M1151.62 254.7c4.3,-28.32 8.35,-7.55 -5.29,-28.49 -38.58,5.53 -34.29,32.54 5.29,28.49z"/>
  </g>
  <path class="fil0" d="M1071.1 1340.29l156.74 -5.05 -0.31 135.63 -155.36 -0.37 -1.07 -130.21zm-809.31 -1.52l155.33 -3.33 -0.21 136 -154.63 -0.28 -0.49 -132.39zm521.55 -626.42c-4.26,-15.4 -7.24,-38.52 -9.25,-66.1 -13.28,-12.36 -25.72,-25.58 -37.22,-39.54 -7.53,3.54 -15.19,6.85 -23,9.91l0.22 94.16 -236.57 3.46 -3.79 46.69c128.69,53.44 757.98,-30.28 891.95,21.96 34.28,47.81 20.31,164.06 20.31,241.04 0,75.04 16.33,195.22 -24.24,236.41 -48.27,27 -1195.31,24.98 -1233.3,-1.22 -44.95,-35.82 -25.7,-123.44 -25.78,-235.19 -0.19,-260.32 -32.56,-256.04 176.08,-251.58 160.49,3.43 123.62,-5.69 126.73,-47.2 -71.11,-23.67 -140.33,-11.19 -222.14,-14.71l-0.11 -66.44c-21.98,-8.7 -42.72,-19.11 -62.13,-31.04 0.22,24.97 0.3,50.84 0.2,77.68 -46.84,134.27 -78.82,-101.12 -78.14,361.07 0.27,184.92 -38.51,281.02 157.13,284.05 0.57,85.85 -9.33,125.44 20.72,186.5 319.76,80.19 251.82,-113.26 260.83,-186.67l524.25 2.05c8.29,64.76 -10.19,125.83 23,169.95 45.68,41.71 196.71,30.1 254.16,5.4l4.34 -176.89c198.02,-4.12 159.19,-108.81 159.11,-284.39 -0.03,-70.19 4.45,-155 0.19,-223.28 -5.98,-95.82 -25.99,-69.75 -79.49,-123.9 -0.14,-26.06 0.63,-71.21 1.52,-126.22 -19.57,28.92 -42.83,54.96 -68.98,77.56l-1.09 55.32 -82.43 0.19c-109.38,54.31 -237.98,54.99 -347.26,0.78l-85.85 0.19z"/>
  <path class="fil0" d="M350.81 978.44c62.17,87.58 -42.7,142.23 -92.38,93.32 -50.76,-49.98 7.25,-154.46 92.38,-93.32zm69.17 101.04c78.75,-166.52 -168.77,-247.06 -228.59,-114.47 -75.09,166.43 160.05,259.41 228.59,114.47z"/>
  <path class="fil0" d="M1127.72 1065.07c-20.46,-118.31 83.31,-132.08 113.86,-73.68 41.02,78.39 -38.51,121.51 -113.86,73.68zm-68.01 -27.25c14.16,164.76 264.89,143.03 250.67,-27.41 -13.66,-163.79 -265.22,-141.9 -250.67,27.41z"/>
  <path class="fil0" d="M736.64 1066.69c-163.94,-0.01 -242.64,-25.66 -257.46,40.57 42.32,35.21 488.9,34.25 529.45,0 -14.26,-67.07 -114.44,-40.56 -271.99,-40.57z"/>
  <path class="fil0" d="M1008.66 968.39c-41.48,-33.87 -486.55,-35.05 -529.64,0 18.09,29.51 -31.88,42.78 118.33,40.93l306.65 0.24c72.43,0.79 92.86,15.24 104.65,-41.17z"/>
  <path class="fil0" d="M1458.78 651.4c2.32,-10.44 23.93,6.95 28.14,-56.75 9.76,-147.57 5.21,-158.27 -42.03,-165.7 -19.6,24.36 -54.5,188.39 13.89,222.44z"/>
  <path class="fil0" d="M13.17 428.29c-18.24,54.59 -16.12,162.66 -2.28,221.03 52.03,-4.27 52.57,28.74 52.89,-111.48 0.18,-78.67 17.5,-102.39 -50.6,-109.55z"/>
 </g>
</svg>
