<?xml version="1.0" encoding="UTF-8"?>
<!DOCTYPE svg PUBLIC "-//W3C//DTD SVG 1.1//EN" "http://www.w3.org/Graphics/SVG/1.1/DTD/svg11.dtd">
<!-- Creator: CorelDRAW -->
<svg xmlns="http://www.w3.org/2000/svg" xml:space="preserve" width="100%" height="100%" version="1.1" style="shape-rendering:geometricPrecision; text-rendering:geometricPrecision; image-rendering:optimizeQuality; fill-rule:evenodd; clip-rule:evenodd"
viewBox="0 0 393.7 429.1"
 xmlns:xlink="http://www.w3.org/1999/xlink"
 xmlns:xodm="http://www.corel.com/coreldraw/odm/2003">
 <defs>
  <style type="text/css">
   <![CDATA[
    .fil2 {fill:#3E4D55}
    .fil3 {fill:#62B4F5}
    .fil1 {fill:#EA5250}
    .fil4 {fill:#F2CA53}
    .fil0 {fill:#FEC828}
   ]]>
  </style>
 </defs>
 <g id="Layer_x0020_1">
  <metadata id="CorelCorpID_0Corel-Layer"/>
  <g id="_105553550501312">
   <path class="fil0" d="M79.64 262.95c11.98,-6.23 54.06,-2.9 68.25,-2.9 17.32,0 57.79,-4.3 70.22,2.9 -6.85,9.96 -79.68,4.45 -105.44,4.5 -5.85,0.01 -12.08,0.28 -17.84,0.22 -19.47,-0.22 -11.11,-2.87 -15.19,-4.72zm0.16 -35.2c10.7,-5.06 198.3,-5.44 208.13,0 -5.4,9.7 -87.89,4.7 -101.89,4.7l-96.88 0.12c-17.87,-2.61 -1.63,-0.96 -9.36,-4.82zm0 -35.2c11.37,-4.95 194.25,-4.98 208.77,-0.85 -2.22,4.01 2.91,6.33 -20.18,6.03l-179.3 -0.04c-14.05,-2.19 -4.59,2.19 -9.29,-5.13zm0.14 -32.27c5.63,-9.04 24.56,-5.03 47.41,-5.03l138.04 -0.09c11.28,-0.13 18.54,-3.07 22.44,5.12 -8.83,4.27 -198.06,4.08 -207.89,0zm93.59 -73.25c2.57,3.59 1.65,-0.4 2.96,6.11 0.45,2.27 0.59,5.9 0.65,8.27 0.14,5.34 -0.34,12.14 -0.54,17.59 -15.14,3.37 -84.85,4.16 -97.59,-1.07 -1.7,-36.83 -4.65,-32.75 30.71,-32.61 16.89,0.06 50.98,-3.68 63.8,1.72zm-128.33 -5.62c4.27,15.4 -1.95,7.29 -3.2,25.88l2.35 17.53c0.27,1.01 0.57,1.58 0.85,2.56 0.27,0.98 0.55,1.62 0.79,2.56 0.95,3.59 1.26,1.88 1.62,7.98 11.97,15.68 -5.72,226.71 6.54,242.39 14.85,12.09 82.3,5.54 105.49,5.54 38.72,0 78.81,-1 117.32,0.38 -4.22,-13.13 -2.29,-21.05 -3.14,-34.78 -32.26,-1.51 -49.09,-6.07 -30.96,-38.83 0.13,-0.23 0.52,-0.93 0.68,-1.44 -3.09,-1.05 -4.9,-1.4 -7.99,-2.51 -5.16,-1.86 -7.87,-3.09 -11.34,-4.65 -0.44,-10.19 -2.14,-10.97 2.67,-20.52 19.25,-0.19 -4.69,11.44 6.03,2.28 0.08,-0.07 30.34,-39.65 25.78,13.09 4.95,-4.78 8.19,-6.25 13.59,-11.29 7.07,-6.59 7.11,-9.12 13.32,-15.95 7.16,-7.88 19.41,-21.2 30.95,-25.66l-0.1 -118.19c-86.23,-1.12 -76.38,9.18 -76.97,-77.09 -28.82,0 -168.35,-6.02 -182.3,4.07 -7.8,7.05 -2.84,1.59 -5.51,11.85 -1.2,4.62 0.13,2.91 -1.95,7.85 -4.54,10.78 6.24,-2.34 -4.5,6.96z"/>
   <path class="fil1" d="M253.59 332.87l37.08 1.19c4.37,26.94 -5.06,62.29 3.09,85.09 19.26,3.09 33.41,2.15 53.14,1.29l1.81 -85.15 38.04 -1.96c-3.06,-10.98 -23.98,-28.67 -31.81,-36.8 -8.44,-8.76 -26.24,-29.27 -37.69,-33.21 -11.77,11.78 -61.45,56.76 -63.66,69.54z"/>
   <path class="fil2" d="M11.72 337c-6.72,-15.75 -2.43,-257 -2.74,-297.05 -0.3,-38.78 8.8,-31.15 45,-31.13 43.22,0.02 198.81,-3.34 219.22,3.37l3.53 53.38c7.37,-5.05 5.2,-2.83 5.36,-16.5 0.69,-60.05 -3.87,-47.6 -113.67,-47.6 -197.49,0 -166.69,-22.86 -166.69,111.87 0,28.51 -3.9,215.13 3.23,227.95 5.44,9.78 20.57,13.78 31.38,6.74 -5.38,-4.46 -7.38,-2.94 -13.61,-4.67 -8.94,-2.47 -4.48,0.95 -11.01,-6.36z"/>
   <path class="fil2" d="M249.98 116.9c-4.93,-15.02 -3.29,-39.53 -2.26,-58.61l60.15 61.85c-18.33,0.31 -43.2,2.08 -57.89,-3.25zm-204.78 -35.5c10.75,-9.3 -0.04,3.82 4.5,-6.96 2.08,-4.94 0.74,-3.23 1.95,-7.85 2.67,-10.26 -2.29,-4.8 5.51,-11.85 13.95,-10.09 153.48,-4.07 182.3,-4.07 0.59,86.26 -9.26,75.96 76.97,77.09l0.1 118.19c2.92,2.17 -1.68,0.57 6.68,1.55l0.69 -126.54c-17.02,-15.62 -31.47,-31.89 -49.41,-49.08 -32.95,-31.57 -16.55,-28.49 -70.84,-28.48 -33.26,0 -66.52,0.02 -99.77,0.02 -32.12,0 -71.29,-7.02 -58.67,37.98z"/>
   <path class="fil2" d="M253.59 332.87c2.21,-12.78 51.89,-57.76 63.66,-69.54 11.44,3.94 29.25,24.45 37.69,33.21 7.83,8.13 28.75,25.82 31.81,36.8l-38.04 1.96 -1.81 85.15c-19.73,0.87 -33.89,1.8 -53.14,-1.29 -8.15,-22.8 1.29,-58.15 -3.09,-85.09l-37.08 -1.19zm123.19 7.94c10.19,0 10.96,-1.09 16.76,-4.95 1.26,-14.31 -4.89,-17.45 -12.34,-24.54 -74.63,-70.94 -45.09,-74.52 -120.67,-0.33 -36.42,35.75 6.34,28.98 23.44,30.44 5.8,59.36 -13.67,86.85 19.46,86.85 64.45,0 52.22,15.44 52.22,-87.48l21.14 0z"/>
   <path class="fil2" d="M276.95 386.22c-38.51,-1.37 -78.59,-0.38 -117.32,-0.38 -23.19,0 -90.63,6.55 -105.49,-5.54 -12.25,-15.68 5.44,-226.71 -6.54,-242.39 -7.98,9.74 -3.88,99.33 -3.88,119.17 0,138.26 -13.45,136.33 48.41,136.15l179 -0.01c8.69,-4.45 4.84,4.3 5.81,-7.01z"/>
   <path class="fil2" d="M86.41 92.88l83.05 -0.04 -0.72 20.42 -82.35 -0.24 0.02 -20.14zm-7.39 25.04c12.73,5.23 82.44,4.44 97.59,1.07 0.2,-5.45 0.68,-12.25 0.54,-17.59 -0.06,-2.37 -0.2,-6 -0.65,-8.27 -1.31,-6.51 -0.39,-2.51 -2.96,-6.11 -12.82,-5.4 -46.91,-1.66 -63.8,-1.72 -35.36,-0.14 -32.42,-4.22 -30.71,32.61z"/>
   <path class="fil2" d="M79.8 192.54c4.7,7.32 -4.76,2.94 9.29,5.13l179.3 0.04c23.09,0.3 17.96,-2.02 20.18,-6.03 -14.52,-4.12 -197.41,-4.09 -208.77,0.85z"/>
   <polygon class="fil3" points="86.4,113.02 168.74,113.26 169.46,92.84 86.41,92.88 "/>
   <path class="fil2" d="M287.93 227.75c-9.83,-5.44 -197.43,-5.06 -208.13,0 7.73,3.85 -8.51,2.2 9.36,4.82l96.88 -0.12c14.01,0 96.49,5 101.89,-4.7z"/>
   <path class="fil2" d="M127.35 155.24c-22.84,0 -41.78,-4 -47.41,5.03 9.83,4.08 199.06,4.27 207.89,0 -3.9,-8.19 -11.16,-5.25 -22.44,-5.12l-138.04 0.09z"/>
   <path class="fil2" d="M147.89 260.05c-14.19,0 -56.26,-3.33 -68.25,2.9 4.08,1.85 -4.28,4.5 15.19,4.72 5.76,0.06 11.99,-0.2 17.84,-0.22 25.76,-0.05 98.58,5.46 105.44,-4.5 -12.43,-7.2 -52.9,-2.9 -70.22,-2.9z"/>
   <path class="fil4" d="M243.53 311.18c10.44,-3.31 10.38,-1.39 15.14,-12.32 4.56,-52.73 -25.7,-13.15 -25.78,-13.09 -10.72,9.17 13.22,-2.47 -6.03,-2.28 -4.81,9.56 -3.1,10.33 -2.67,20.52 3.47,1.57 6.19,2.8 11.34,4.65 3.09,1.11 4.9,1.46 7.99,2.51z"/>
  </g>
 </g>
</svg>
