<?xml version="1.0" encoding="UTF-8"?>
<!DOCTYPE svg PUBLIC "-//W3C//DTD SVG 1.1//EN" "http://www.w3.org/Graphics/SVG/1.1/DTD/svg11.dtd">
<!-- Creator: CorelDRAW -->
<svg xmlns="http://www.w3.org/2000/svg" xml:space="preserve" width="100%" height="100%" version="1.1" style="shape-rendering:geometricPrecision; text-rendering:geometricPrecision; image-rendering:optimizeQuality; fill-rule:evenodd; clip-rule:evenodd"
viewBox="0 0 2001.26 1784.85"
 xmlns:xlink="http://www.w3.org/1999/xlink"
 xmlns:xodm="http://www.corel.com/coreldraw/odm/2003">
 <defs>
  <style type="text/css">
   <![CDATA[
    .fil0 {fill:#003399}
   ]]>
  </style>
 </defs>
 <g id="Layer_x0020_1">
  <metadata id="CorelCorpID_0Corel-Layer"/>
  <path class="fil0" d="M1185.08 1467.08c44.91,-35.63 109.54,-119.14 137.72,-198.4l104.38 45.59c-30.64,63.51 -176.71,140.96 -242.09,152.81zm-515.7 -191.64c25.06,34.76 43.35,71.87 66.6,103.02 28.11,37.66 49.25,57.59 75.33,89.41 -98.55,-22.5 -200.72,-97.79 -244.39,-156.99l102.45 -35.44zm348.61 -45.76c68.14,-14.32 202.73,5.94 266.08,32.22 -14.07,82.83 -163.15,257.29 -268.11,228.12l2.03 -260.34zm-308.9 30.84c81.27,-28.33 179.87,-37.42 272.51,-36.04l0.6 272.03c-134.81,-6.68 -234.45,-128.97 -273.11,-235.99zm310.22 -970.65c116.19,-7.19 245.11,140.27 267.19,238.91 -85.43,13.71 -176.69,39.86 -269.55,28.92l2.36 -267.83zm-308.03 236.08c22.92,-103.23 146.15,-225.01 270.37,-239.28l-5.29 279.9 -265.08 -40.62zm-143.3 -52.11c24.99,-52.98 150.42,-132.89 237.4,-153.39l-137.23 192.44 -100.17 -39.04zm758.14 37.93c-16.06,-32.84 -41.2,-76.35 -62.33,-105.7 -27.16,-37.72 -49.67,-51.16 -73.08,-86.15 93,22.14 200.43,89.42 239.65,157.16l-104.24 34.69zm-665.74 44.37l321.68 41.23 -5.58 277.23 -157.91 3.19 3.8 29.56 159.87 3.61 -6.62 277 -267.49 30.97c-25.09,-1.85 -21.23,-2.47 -34.02,-9.08 -44.48,38.51 8.57,15.21 -62.78,45.83 -39.15,16.8 -54.42,21.13 -89.23,45.52 7.85,40.15 -3.44,21.77 27.29,54.49 89.62,95.41 292.05,179.65 447.48,180.72 172.02,1.19 435.77,-107.43 484.9,-239.69 -27.96,-10.01 -54.18,-21.01 -89.22,-37.35 -59.7,-27.84 -32.98,-23.13 -70.85,-50.07l-69.65 7.33c-15.92,-2.09 -47.71,-10.7 -68.09,-14.08 -171.74,-28.55 -185.74,65.19 -165.84,-289.31l160.48 -13.75 3.73 -17.17 -165.22 -10.64 1.34 -269.35 318.93 -38.86c38.12,-50.49 98.94,-34.33 143.01,-87.11 -123.82,-247.61 -746.17,-336.35 -961.77,0 50.3,54.84 91.39,37.05 141.76,79.79z"/>
  <path class="fil0" d="M1520.63 950.97c117.36,93.18 40.29,212.52 91.67,252.24 25.93,-40.25 5.35,-96.97 15.74,-148.53 8.75,-43.43 40.98,-68.21 60.32,-106.84 136.41,31.24 162.8,61.6 152.2,215.54 -47.12,48.85 -135.72,87.43 -228.13,87.59 -126.86,0.23 -156.41,-42.92 -234.58,-80.14 -12.6,-166.26 3.12,-176.31 142.78,-219.87zm37.48 -28.03l103.96 2.29 -53.76 73.05 -50.19 -75.34zm-83.11 -152.31c58.24,-9.08 98.7,-13.04 148.56,-34.07 22.29,-9.41 46.93,-25.85 60.72,-32.59 41.95,-20.49 42,-12.03 51.55,-8.44 80.31,218.62 -247.08,261.81 -260.83,75.11zm0.31 -39.11c11.55,-93.93 129.12,-161.25 217.94,-84.98 -31.44,64.51 -151.76,87.94 -217.94,84.98zm35.32 176.87c-121.43,95.09 -155.57,3.8 -171.01,210.37 -175.39,-137.54 -90.08,-588.4 272.78,-584.88 155.7,1.51 265.37,97.3 313.45,191.61 84.22,165.2 30.57,273.52 -34.57,396.2 -17.67,-27.24 -11.53,-40.54 -19.01,-80.82 -16.13,-86.82 -54.81,-68.97 -167.33,-128.94 25,-56.84 92.13,-91.77 72.22,-196.21 -13.2,-69.25 -70.62,-130.9 -152.12,-137.15 -83.43,-6.4 -157.48,43.41 -179.62,112.12 -37.61,116.73 30.37,159.91 65.22,217.7zm13.82 -395.92c-506.97,112.13 -333.55,875.25 170.97,763.83 178.57,-39.44 351.46,-225.23 294.95,-470.72 -43.03,-186.91 -229.48,-345.41 -465.92,-293.11z"/>
  <path class="fil0" d="M158.19 1170.98c-11.49,-156.5 4.09,-186.46 144.5,-219.81 134.17,127.9 23.77,199.15 91.67,249.66 23.79,-55.38 0.55,-98.23 16.73,-157.46 9.28,-33.96 40.25,-65.79 58.69,-94.67 131.83,35.77 165.03,55.66 150.96,212.83 -47.31,54.28 -134.09,88.25 -226.31,89.37 -114.76,1.4 -164.2,-41.8 -236.24,-79.91zm233.74 -176.9c-29.84,-26.19 -33.27,-31.04 -53.7,-70.91l103.84 1.62 -50.15 69.29zm-136.15 -224.31c183.7,-23.09 207.87,-76.33 236.11,-79.35 30.34,-3.24 10.58,-15.15 27.6,13.35 91.19,152.67 -247.76,291.72 -263.72,66zm0.88 -35.71c19.41,-101.97 125.89,-164.01 217.13,-87.52 -13.81,26.93 4.77,3.31 -16.17,23.53l-68.18 37.8c-43.15,17.81 -80.41,22.61 -132.79,26.19zm-134.84 385.37c-174.72,-125.97 -100.57,-590.4 272.68,-585.5 225.69,2.96 384.6,209.47 347.11,422.24 -10.8,61.32 -37.1,134.23 -86.98,164.15 5.17,-202.04 -50.15,-120.67 -166.8,-211.92 20.12,-60.73 103.17,-83.89 64.59,-210.67 -52.34,-171.98 -293.11,-148.31 -331.92,10.5 -27.23,111.41 40.83,134.38 70.33,200.17 -115.11,90.63 -163.27,9.02 -169,211.04zm184.12 -607.21c-514.31,120.17 -327.68,878.04 171.17,763.68 180.77,-41.44 346.98,-222.15 294.07,-469.37 -40.02,-186.95 -234.86,-348.13 -465.23,-294.31z"/>
  <path class="fil0" d="M381.27 1657.79l15.35 -95.46c60.44,24.65 104.75,92.08 271.63,158.2 122.04,48.36 240.7,70.38 381.37,62.88 216.6,-11.56 547.26,-159.24 582.3,-279.34 -70.99,-2.66 -192.37,217.39 -569.19,245.74 -255.41,19.21 -496,-82.52 -626.21,-212.95 29.3,-12.83 55.43,0.95 89.44,-26.19 -37.02,-23.85 -103.23,-15.07 -161.16,-14.4 -4.02,105.78 -9.06,126.99 16.45,161.53z"/>
  <path class="fil0" d="M724.78 57.37c34.24,21.27 160.48,-19.17 219.71,-22.56 154.97,-8.87 319.01,22.98 452.04,94.34 59.24,31.78 135.19,68.89 167.72,127.22 -51.73,0.54 -74.82,-14.49 -90.56,23.57l155.87 9.35c12.93,-81.73 19.33,-140.75 -19.25,-164.06l-11.98 101.06c-102.34,-58.75 -147.72,-139.7 -374.26,-197.65 -119.91,-30.67 -426.11,-55.26 -499.3,28.72z"/>
  <path class="fil0" d="M364.89 287.11c42.09,-12.85 111.75,-62.63 121.92,-110.99 -52.39,11.94 -28.22,4 -65.6,38.78 -39.88,37.1 -36.28,16.47 -56.32,72.21z"/>
  <path class="fil0" d="M540.61 149.15c46.86,-3.25 97.54,-24.37 115.46,-67.41 -52.27,3.56 -101.87,20.63 -115.46,67.41z"/>
 </g>
</svg>
