<?xml version="1.0" encoding="UTF-8"?>
<!DOCTYPE svg PUBLIC "-//W3C//DTD SVG 1.1//EN" "http://www.w3.org/Graphics/SVG/1.1/DTD/svg11.dtd">
<!-- Creator: CorelDRAW -->
<svg xmlns="http://www.w3.org/2000/svg" xml:space="preserve" width="100%" height="100%" version="1.1" style="shape-rendering:geometricPrecision; text-rendering:geometricPrecision; image-rendering:optimizeQuality; fill-rule:evenodd; clip-rule:evenodd"
viewBox="0 0 4259.48 4259.65"
 xmlns:xlink="http://www.w3.org/1999/xlink"
 xmlns:xodm="http://www.corel.com/coreldraw/odm/2003">
 <defs>
  <style type="text/css">
   <![CDATA[
    .fil0 {fill:#003399}
   ]]>
  </style>
 </defs>
 <g id="Layer_x0020_1">
  <metadata id="CorelCorpID_0Corel-Layer"/>
  <path class="fil0" d="M2176.91 2109.97c-59.69,-44.81 -466.15,-623.89 -484.83,-655.97l-799.12 548.47c303.25,110.7 728.49,485.85 942.15,735.85 25.52,29.85 47.22,47.17 74.69,77.61 94.79,105.04 188.8,233.54 278.81,345.19 25.6,-24.83 143.55,-231.29 174.97,-279.51 94.21,-144.56 287.97,-389.89 400.66,-515.39 186.76,-207.99 352.25,-404.76 567.73,-598.87 135.98,-122.49 192.6,-189.8 369.42,-324.85l247.43 -169.41c2.56,-1.82 6,-4.24 8.48,-6.04 19.16,-13.94 14.98,-10.82 25.55,-19.69 -92.41,-154 -131.5,-135.96 -233.98,-422.91 -75.83,-212.33 -74.56,-324.62 -92.63,-558.76 -159.42,71.46 -529.09,487.15 -643.5,599.03 -226.93,221.89 -683.63,924.2 -835.82,1245.25z"/>
  <path class="fil0" d="M1341.54 4106.29l197.87 71.9 162.75 38.11c322.49,57.98 537.12,57.59 859.13,0.13l162.57 -38.37 262.07 -101.58c210.59,-74.17 476.92,-267.44 596.61,-391.99 201.62,-209.83 279.01,-277.32 436.07,-564.24 251.11,-458.73 304.04,-1042.9 167.41,-1553.05 -21.31,-79.56 -19.39,-66.49 -40.75,-80.22 -39.24,30.7 -34.26,2.45 -20.83,69.33 18.15,90.32 38.78,120.69 61.48,274.86 58.69,398.74 -2.49,811.01 -167.79,1163.73 -551.3,1176.41 -1994.08,1550.47 -3004.89,884.09 -210.22,-138.59 -326.48,-252.31 -484.32,-431.64 -263.13,-298.95 -478.94,-806.06 -472.8,-1352.86 5.23,-465.74 203.34,-999.79 505.87,-1319.74 169.89,-179.67 242.58,-268.38 487.91,-414.53 617.91,-368.11 1331.34,-410.93 1984.94,-99 71.59,34.17 99.39,79.3 149.35,29.35 -86.07,-122.16 -631.75,-258.33 -830.72,-278.66 -1828.29,-186.83 -3014.27,1864.8 -1953.5,3355.89 142.55,200.37 356.48,408.16 565.97,545.49 90.45,59.3 260.78,154.69 375.6,192.99z"/>
  <path class="fil0" d="M3503.52 2009.92c-86.2,52.68 -56.22,108.46 -61.22,207.74 -58.56,1162.57 -1595.04,1687.2 -2347.09,719.22 -775.53,-998.2 173.67,-2378.47 1347.56,-2082.91 87.28,21.97 137.87,64.9 207.46,22.88 -16.83,-35.42 -19,-35.37 -90.43,-58.33 -116.56,-37.46 -223.56,-57.77 -348.79,-65.4 -1132.47,-69.04 -1899.84,1216.06 -1175.4,2215.45 496.95,685.57 1667.26,768.03 2231.79,-57.92 157.84,-230.93 274.36,-548.57 236.13,-900.73z"/>
  <path class="fil0" d="M992.89 3602.3c-79.46,-67.43 -11.99,-133.36 69.31,-90.67 -17.13,40.31 -27.82,58.34 -69.31,90.67zm166.78 -327.77c-38.09,-24.23 -43.15,-40.06 -83.46,-55.18 -36.94,54.71 -44.18,132.92 -85.59,178.62 -42.82,24.21 -73.84,20.53 -105.85,61.08 -98.52,124.84 127.07,255.08 170.7,268.2 44.09,-94.59 203.59,-247.48 245.74,-327.36 -24.65,-35.81 -5,-14.06 -43.69,-42.78 -35.76,-26.54 -12.74,-12.18 -44.56,-26.86 -19.84,36.65 -76.15,119.2 -129.89,139.22l76.59 -194.94z"/>
  <path class="fil0" d="M2416.11 580.22c3.17,-56.67 16.24,-106.02 26.98,-161.28 32.83,-168.87 4.57,-101.66 49.61,-114.94 35.49,44.14 6.79,99.22 -5.08,161.42 -15.15,79.39 4.64,106.17 -71.51,114.81zm-125.1 41.21c74.45,30.91 165.07,42.59 243.59,25.98 48.59,-51.62 92.04,-197.89 87.48,-303.13 -5,-115.38 -144.19,-126.03 -249.97,-135.03l-81.1 412.18z"/>
  <path class="fil0" d="M3798.47 2969.38c-53.37,65.42 -123.44,24.42 -96.23,-70.35 112.99,16.17 94.4,56.7 96.23,70.35zm-194.8 15.68c47.05,68.79 43.56,116.33 166.65,113.52 72.7,-39.87 120.98,-140.4 147.33,-231.21 -116.4,-31.05 -277.33,-157.67 -383.53,-178.42l-38.58 97.56 157.74 85.67c-41.3,28.82 -137.4,-17.24 -197.77,-22.77l-45.87 98.72 194.03 36.94z"/>
  <path class="fil0" d="M991.93 798.09c-24.43,2.02 -62.58,-59.07 -72.45,-97.68l76.29 -8.56c13.78,19.11 61.05,100.87 -3.84,106.24zm-203.63 -64.91c21.68,47.96 89.57,112.91 128.22,159.91l145.8 167 74.63 -62.68c-49.98,-87.22 -122.94,-128.57 -98.69,-150.97 15.38,-8.95 124.89,78.32 162.94,97.07 47.5,-28.8 44.04,-32.5 79.23,-71.59 -30.47,-20.15 -103.33,-60.72 -132.6,-85.28 -72.85,-61.12 6.29,-78.56 -77.07,-158.6 -97.85,-93.94 -228.09,58.61 -282.45,105.14z"/>
  <path class="fil0" d="M325.2 2173.44c-86.08,-7.17 -32.65,-2.22 -53.88,-23.41 16.43,-17.98 -22.89,-24.45 53.66,-33.2l169.17 -2.46c78.32,6.35 39.74,-2.07 62.08,35.65 -23.96,17.33 -13.82,19.85 -76.63,21.55 -21.78,0.59 -47.18,-0.81 -69.98,-0.47 -20.96,0.31 -66.71,3.8 -84.42,2.33zm-124.66 107.1l429.43 -1.12c-7.76,-216.62 30.81,-278.78 -206.36,-275.72 -246.19,3.18 -228.07,35.58 -223.07,276.84z"/>
  <path class="fil0" d="M2464.92 3671.65c41.84,19.14 20.99,-23.98 53.63,133.2 9.67,46.59 21.39,94.57 27.48,139.37 -58.52,3.09 -42,17.51 -60.72,-34.72 -20.66,-57.63 -55.69,-191.35 -20.39,-237.86zm-126.11 -13.27c-8.95,73.11 18.17,255.98 52.32,315.19 49.26,85.44 202.57,47.45 277.85,9.09l-92.96 -403.69c-109.75,6.67 -156.41,24.08 -237.21,79.41z"/>
  <path class="fil0" d="M412.59 1249.74c30.26,31.2 160.37,104.74 213.93,147.03l-258.59 -72.74 -27.61 76.28c44.61,32.95 337.09,109.12 413.59,123.32l53.4 -113.19c-97.09,-41.72 -281.48,-215.88 -358.2,-246.81l-36.51 86.11z"/>
  <path class="fil0" d="M3638.82 2140.36l-4.4 118.75 420.36 96.63 8.3 -98.3c-73.79,-14.01 -184.71,-22.79 -232.52,-58.37l235.8 -25.08 2.94 -85.83 -430.48 52.2z"/>
  <path class="fil0" d="M1615.46 3991.35c20.69,-35.67 104.81,-225.31 107.91,-249.06l-22.14 273.34 86.82 12.71 27.29 -425.52 -114.52 -23.87 -176.96 390.41 91.59 22z"/>
  <path class="fil0" d="M3565.72 2608.06l51.58 21.64c30.39,-30.03 19.81,-47.63 41.91,-90.66l103.76 21.69c7.45,58.67 -32.51,74.41 25.28,86.2 69.86,14.25 18.53,-14.27 65.37,-61.16l75.72 18.64 -16.83 98.46 65.34 16.06 53.15 -209.11 -418.08 -100.12 -47.2 198.37z"/>
  <path class="fil0" d="M547.3 1025.18c39.22,46.37 301.19,240.08 334.49,256.46 42.9,-43.8 92.76,-104.79 122.12,-159.25l-37.63 -40.65c-52.83,28.57 -17.42,20.98 -70.6,69.26 -36.81,-18.87 -59.18,-38.37 -92.94,-60.2 20.65,-46.76 28.94,-19.55 31.97,-73.71l-36.46 -30.19c-65.47,23.81 -4.94,23.15 -70.09,49.04 -19.08,-16.26 -35.4,-35.06 -57.86,-52.41 12.21,-23.25 39.26,-59.31 39.5,-74.19 0.22,-13.33 27.75,-5.63 -16.38,-30.63 -58.59,-33.18 -24.18,-8.14 -44.09,7.32 -12.47,9.68 -94.02,123.01 -102.02,139.17z"/>
  <path class="fil0" d="M592.2 2467.72l-99.27 20.61c-67.94,-56.37 23.45,-71.38 -83.31,-59.03 -54.37,80.87 76.73,70.37 -100.91,98.47 -11.96,-76.25 5.47,-92.05 -65.74,-87.19 -2.03,3.02 -4,4.67 -4.38,9.98 -1.26,17.29 -16.81,5.78 3.02,88.01 9.27,38.44 17.61,74.14 24.73,112.88l414.35 -92.46c-1.01,-42.23 -11.04,-77.23 -19.7,-117.87 -17.41,-81.68 -1.36,-89.8 -70.83,-79.63 -22.46,35.21 -3.92,53.71 2.05,106.22z"/>
  <path class="fil0" d="M2004.37 619.96c97.68,17.66 185.32,5.56 213,-11.39l-1.13 -41.67c-3.45,-1.8 -8.85,-6.48 -10.64,-3.3 -1.82,3.23 -8.03,-2.49 -10.6,-3.09l-82.63 -21.37 -1.65 -83.33c42.13,-37.32 77.82,5.49 73.06,-83.31l-75.24 -14.57 0.66 -89.33 98.24 -9.25 -0.87 -58.22 -206.69 -2.61 4.49 421.45z"/>
  <path class="fil0" d="M2662.25 3576.67c11.92,52.19 47.41,15.15 115.95,-3.77l37.49 90.84c-20.28,33.52 -35.26,29.86 -58,55.69l23.07 45.02c34.96,7.08 28.96,-4.46 72.75,-16.37l36.56 79.72 -85.31 57.36 21.22 42.51c51.35,-5.13 152.67,-51.26 191.83,-84.3l-177.94 -376.47c-27.2,6.86 -151.44,55.13 -167.71,74.3 -12.37,14.58 -24.17,-27 -9.91,35.48z"/>
  <path class="fil0" d="M1371.06 3448.4c-1.45,-3.42 -6.75,0.3 -12.86,0.1l-16.31 31.71c26.83,34.77 39.78,36.58 89.5,52.11l-42.5 113.21c-109.69,-30.46 -54.28,-40.69 -103.09,18.2 12.69,28.83 44.65,43.42 55.06,55.37l-28.89 78.81 -104.43 -33.67 -18.28 52.25c58.72,36.28 124.63,73.15 194.01,89.36 22.63,-108.81 149.34,-270.47 168.66,-380.99l-180.86 -76.46z"/>
  <path class="fil0" d="M609.38 3040.67l-79.36 38.75 -53.08 -72.42 -51.03 30.83c14.4,32.32 29.31,54.56 49.46,88.31l51.72 74.85c1.05,-2.3 4.87,5.04 7.52,7.33 108.05,-57.01 252.19,-146.08 356.57,-216.35l-50.82 -94.65 -162.69 93.26c-27.31,-38.89 -17.94,-44.51 -62.46,-59.63l-40.41 22.63 34.58 87.07z"/>
  <path class="fil0" d="M3510.39 3483.2c-23.92,-46.96 -37.86,-40.74 -74.33,-82.1 -23.99,-27.22 -38.31,-47.17 -63.36,-75.86 -46.87,-53.68 -95.17,-94.52 -146.09,-151.22l-76.37 73.1c41.76,61.44 80.17,76.95 116.7,138.64l-48.91 55.68 38.45 41.69c42.45,-18.38 21,-5.78 49.68,-45.38 31.17,17.43 55.22,36.48 78.83,53.67 -29.93,56.2 -60.37,60.46 -48.2,107.26 57.32,26.83 139.74,-66.77 173.59,-115.48z"/>
  <path class="fil0" d="M1402.11 344.71l133.71 392.69 98.89 -27.92 -51.1 -170.01 69.14 -42 -45.85 -49.24 -55.7 7.54 -24.94 -82.49 79.02 -37.74 -13.09 -46.52c-43.33,-19.63 -157.98,35.11 -190.08,55.69z"/>
  <path class="fil0" d="M1730.69 236.46c1.16,88.28 45.53,354.57 81.53,419.55l91.24 -13.09c7.32,-63.32 -52.94,-335.37 -68.77,-419.07l-104.01 12.62z"/>
  <path class="fil0" d="M355.16 2903.87c55.9,-8.72 343.17,-124.28 400.31,-158.05l-41.8 -97.39 -391.53 154.32 33.02 101.12z"/>
  <path class="fil0" d="M1154.17 463.88c52.77,124.46 151.64,250.69 196.62,369.8l99.52 -44.57c-19.18,-59.42 -169.31,-339.6 -207.45,-374.49l-88.69 49.26z"/>
  <path class="fil0" d="M3159.28 3760.04c46.76,-15.02 54.84,-26.26 87.96,-54.64 -50.85,-117.47 -174.81,-238.25 -223.17,-349.71 -44.63,13.47 -67.31,32.01 -93.4,58.08 63.37,112.97 148.06,238.53 228.61,346.27z"/>
  <path class="fil0" d="M3610.86 3359.05c26.81,-16.6 7.19,-2.92 27.61,-20.57l46.87 -63.58c-32.87,-39.15 -120.1,-98.94 -168.07,-135.83 -54.94,-42.26 -109.98,-90.06 -163.57,-121.31 -29.96,27.41 -48.03,53.87 -61.46,96.69 35.17,13.43 292.38,209.07 318.62,244.61z"/>
  <path class="fil0" d="M1017.03 3149.91c-15.78,-32.37 -26.73,-52.35 -65.8,-78.27 -36.6,24.09 -48.66,31.65 -83.29,64.72 -57.54,54.95 -171.7,134.16 -235.53,207.96 25.36,43.81 30.49,45.14 68.85,76.75l315.77 -271.17z"/>
 </g>
</svg>
