<?xml version="1.0" encoding="UTF-8"?>
<!DOCTYPE svg PUBLIC "-//W3C//DTD SVG 1.1//EN" "http://www.w3.org/Graphics/SVG/1.1/DTD/svg11.dtd">
<!-- Creator: CorelDRAW -->
<svg xmlns="http://www.w3.org/2000/svg" xml:space="preserve" width="100%" height="100%" version="1.1" style="shape-rendering:geometricPrecision; text-rendering:geometricPrecision; image-rendering:optimizeQuality; fill-rule:evenodd; clip-rule:evenodd"
viewBox="0 0 393.7 313.8"
 xmlns:xlink="http://www.w3.org/1999/xlink"
 xmlns:xodm="http://www.corel.com/coreldraw/odm/2003">
 <defs>
  <style type="text/css">
   <![CDATA[
    .fil0 {fill:#404E57}
    .fil2 {fill:#63B4F5}
    .fil3 {fill:#ED5250}
    .fil1 {fill:#FEC828}
   ]]>
  </style>
 </defs>
 <g id="Layer_x0020_1">
  <metadata id="CorelCorpID_0Corel-Layer"/>
  <g id="_105553470949984">
   <path class="fil0" d="M9.38 245.3l374.96 0.41c-2.58,33.81 -48.58,24.8 -81.62,24.8l-211.91 0c-32.54,0 -78.79,8.9 -81.43,-25.21zm319.39 -204.3l55.81 -0.6 0.85 197.02 -56.07 0.7 -0.59 -197.12zm-38.63 173l30.74 -0.82 0.42 25.21 -30.49 -0.23 -0.67 -24.16zm-217.89 -0.41l30.86 -0.17 0.33 24.56 -30.33 0.37 -0.85 -24.76zm38.38 -172.17l172.32 -0.41 0.16 196.27 -172.5 0.59 0.02 -196.45zm179.6 137.3l30.36 -0.8 0.87 28.45 -30.83 -0.3 -0.4 -27.35zm-217.86 -0.41l30.52 -0.15 0.67 27.66 -30.69 0.5 -0.51 -28.02zm217.87 -34.87l30.39 -0.75 0.87 28.43 -30.96 -0.3 -0.3 -27.37zm-217.86 -0.38l30.54 -0.15 0.68 27.64 -30.82 0.52 -0.4 -28.01zm217.87 -34.89l30.48 -0.75 0.89 28.43 -31.33 -0.31 -0.04 -27.37zm-217.86 -0.38l30.6 -0.15 0.7 27.63 -31.23 0.53 -0.08 -28.02zm217.87 -34.9l30.3 -0.73 0.97 28.43 -30.99 -0.32 -0.28 -27.39zm-217.85 -0.37l30.45 -0.14 0.76 27.64 -30.87 0.53 -0.34 -28.03zm218 -31.92l29.81 -0.54 1.35 25.28 -31.04 -0.31 -0.12 -24.43zm-217.82 -0.28l30 -0.1 1.06 24.52 -30.87 0.53 -0.19 -24.95zm312.29 -6.98l-375.97 -0.35c6.01,-34.2 47.13,-24.83 81.91,-24.87l211.91 0.01c35.02,0 76.27,-9.21 82.15,25.21zm-382.62 25.01c9.9,-7.98 3.3,-7.94 8.02,-18.02l53.88 0.11 1 197.19 -56.31 0.45 -0.78 -96.28c0.42,-38.3 1.33,-25.61 -5.56,-30.46 -3.2,13.67 -1.19,59.06 -1.19,76.65 -0,76.85 -9.9,89.36 70.47,89.35l241.8 0c93.93,0 78.96,-1.54 78.96,-162.68 0,-141.63 35.52,-111.29 -288.16,-113.03 -52.95,-0.28 -114.87,-14.56 -102.14,56.74z"/>
   <path class="fil1" d="M140.36 116.7c7.16,-4.55 4.21,-1.01 7.5,-9.89 2.86,-10.42 6.07,-13.66 16.41,-16.52 9.04,-3.2 5.45,-0.38 10.18,-7.56 68.75,-23.14 108.6,57.31 66.09,100.12 -43.33,43.63 -124.61,0.68 -100.18,-66.15zm-29.75 121.19l172.5 -0.59 -0.16 -196.27 -172.32 0.41 -0.02 196.45z"/>
   <path class="fil2" d="M2.25 58.35c4.94,15.44 -2.15,8.54 -2.25,26.43 -0.1,18.43 6.94,10.48 2.52,26.55 6.89,4.85 5.98,-7.84 5.56,30.46l0.78 96.28 56.31 -0.45 -1 -197.19 -53.88 -0.11c-4.72,10.07 1.88,10.04 -8.02,18.02z"/>
   <polygon class="fil2" points="329.36,238.13 385.43,237.43 384.58,40.41 328.77,41.01 "/>
   <path class="fil3" d="M177.34 130.94c0,-20.45 6.32,-22.39 21.33,-12.91 28.35,17.89 34.65,20.55 5.5,39.35 -9.38,6.05 -12.81,9.41 -25.16,7.29l-1.67 -33.73zm-13.07 -40.65c-1.74,10.04 -6.39,14.54 -16.41,16.52 -3.29,8.88 -0.34,5.34 -7.5,9.89 10.51,-0.37 2.06,-0.82 5.44,3.38 -14.84,63.44 51.23,95.4 89.21,57.26 38.19,-38.35 5.51,-103.82 -57.26,-89.14 -4.62,-3.74 -1.41,0.98 -3.3,-5.46 -4.73,7.18 -1.15,4.36 -10.18,7.56z"/>
   <path class="fil0" d="M174.45 82.73c1.88,6.44 -1.32,1.73 3.3,5.46 62.77,-14.68 95.45,50.79 57.26,89.14 -37.98,38.14 -104.06,6.19 -89.21,-57.26 -3.37,-4.2 5.07,-3.74 -5.44,-3.38 -24.43,66.83 56.85,109.78 100.18,66.15 42.52,-42.81 2.66,-123.26 -66.09,-100.12z"/>
   <path class="fil0" d="M130.43 289.61c11.65,-4.06 120.6,-3.99 133.42,-0.29 1.36,23.68 0.23,16.95 -66.84,16.95 -14.5,0 -29.06,-0.12 -43.56,0.05 -21.47,0.25 -24.06,4.18 -23.02,-16.71zm-5.09 -7.67l-1.36 29.5c33.8,4.07 93.44,1.65 130.08,1.59 21.61,-0.03 17.92,-8.13 15.16,-30.93 -31.74,-3.23 -111.07,-2.66 -143.88,-0.16z"/>
   <path class="fil0" d="M184.34 157.29l0.05 -36.11c9.32,-0.87 26.3,11.7 31.61,17.9 -5.33,7.49 -22.14,19.28 -31.66,18.2zm-7 -26.35l1.67 33.73c12.34,2.13 15.78,-1.24 25.16,-7.29 29.15,-18.8 22.85,-21.46 -5.5,-39.35 -15.01,-9.47 -21.33,-7.54 -21.33,12.91z"/>
   <path class="fil0" d="M147.87 106.81c10.01,-1.99 14.67,-6.48 16.41,-16.52 -10.33,2.86 -13.54,6.1 -16.41,16.52z"/>
  </g>
 </g>
</svg>
