<?xml version="1.0" encoding="UTF-8"?>
<!DOCTYPE svg PUBLIC "-//W3C//DTD SVG 1.1//EN" "http://www.w3.org/Graphics/SVG/1.1/DTD/svg11.dtd">
<!-- Creator: CorelDRAW -->
<svg xmlns="http://www.w3.org/2000/svg" xml:space="preserve" width="100%" height="100%" version="1.1" style="shape-rendering:geometricPrecision; text-rendering:geometricPrecision; image-rendering:optimizeQuality; fill-rule:evenodd; clip-rule:evenodd"
viewBox="0 0 393.7 324.8"
 xmlns:xlink="http://www.w3.org/1999/xlink"
 xmlns:xodm="http://www.corel.com/coreldraw/odm/2003">
 <defs>
  <style type="text/css">
   <![CDATA[
    .fil1 {fill:#3E4D55}
    .fil3 {fill:#63B4F5}
    .fil4 {fill:#ED5250}
    .fil5 {fill:#F0C850}
    .fil2 {fill:#FEC828}
    .fil0 {fill:#FEFEFE}
   ]]>
  </style>
 </defs>
 <g id="Layer_x0020_1">
  <metadata id="CorelCorpID_0Corel-Layer"/>
  <path class="fil0" d="M126.34 141.71c0.12,-1.76 0.38,-10.3 0.7,-11.5 1.78,-6.65 0.99,-4.33 4.04,-8.57 9.95,-10.97 2.33,-5.89 16.85,-12.08 0.33,-0.33 0.88,-1.37 1.02,-0.99 0.16,0.44 1.09,-0.91 1.31,-1.03 4.76,-2.61 3.58,-1.77 6.58,-3.1 23.78,-50.2 169.76,16.9 100.62,104.98 -37.17,47.35 -134.46,29.18 -138.67,-43.33 -1.13,-19.43 1.32,-20.76 7.55,-24.39zm40.47 -73.17c-136.65,40.85 -68.4,225.83 60.54,188.48 46.62,-13.5 90.34,-61.37 69.46,-124.61 -15.07,-45.64 -67.08,-82.68 -130,-63.87z"/>
  <path class="fil1" d="M166.81 68.54c62.92,-18.81 114.93,18.23 130,63.87 20.88,63.25 -22.84,111.11 -69.46,124.61 -128.94,37.35 -197.19,-147.64 -60.54,-188.48zm-154.52 94.04c12.48,-22.07 68.64,-64.82 102.74,-78.19 -9.8,14.77 -14.64,16.39 -22.14,31.78 -25.1,51.51 -5.15,86.34 19.67,122.61 -32.51,-10.83 -88.01,-56.81 -100.28,-76.2zm268.27 76.49c6.04,-11.86 14.7,-17.61 22.19,-34.13 6.52,-14.4 9.33,-29.36 8.89,-45.98 -0.82,-30.85 -15.72,-52 -33.75,-74.7 38.14,11.46 65.03,39.8 92.66,65.94 7.88,7.45 5.42,3.64 10.72,12.39 -9.07,16.6 -73.76,68.32 -100.71,76.49zm-280.57 -76.49c17.4,35.67 117.99,107.78 196.06,108.02 82.94,0.26 171.46,-68.71 197.64,-108.02 -25.02,-42.87 -123.39,-108.87 -197.63,-108.37 -77.01,0.52 -173.53,67 -196.07,108.37z"/>
  <path class="fil2" d="M156.84 104.45c-3,1.33 -1.82,0.48 -6.58,3.1 -0.22,0.12 -1.16,1.47 -1.31,1.03 -0.13,-0.38 -0.68,0.65 -1.02,0.99l-13.33 21.86c-6,-4.76 -7.46,9.28 -3.51,-9.78 -3.05,4.24 -2.26,1.92 -4.04,8.57 -0.32,1.2 -0.58,9.74 -0.7,11.5 11,17.39 -6.35,43.69 23.06,68.31 40.75,34.1 110.52,11.49 115.55,-40.56 3.14,-32.43 -14.09,-48.87 -32.11,-61.87l-0.98 13.92 -8.91 7.98c5.71,13.59 23.59,21.48 12.24,48.19 -15.85,37.32 -83.28,29.04 -79.54,-18.75 1.75,-22.42 16.91,-30.71 36.6,-35.85 -5.95,-6.91 -0.54,10.84 -3.67,-7.76 -0.15,-0.92 0.17,-8.14 0.31,-10.4l-0.17 -9.57 -31.89 9.11z"/>
  <path class="fil3" d="M280.57 239.07c26.96,-8.17 91.65,-59.89 100.71,-76.49 -5.3,-8.74 -2.84,-4.94 -10.72,-12.39 -27.63,-26.14 -54.52,-54.47 -92.66,-65.94 18.03,22.71 32.93,43.85 33.75,74.7 0.44,16.62 -2.37,31.58 -8.89,45.98 -7.49,16.52 -16.15,22.26 -22.19,34.13z"/>
  <path class="fil3" d="M12.3 162.58c12.27,19.39 67.77,65.37 100.28,76.2 -24.82,-36.27 -44.78,-71.1 -19.67,-122.61 7.5,-15.39 12.34,-17.01 22.14,-31.78 -34.1,13.37 -90.26,56.11 -102.74,78.19z"/>
  <path class="fil1" d="M156.84 104.45l20.23 -5.85c8.6,-5.85 19.54,-2.48 33.18,-0.31 12.07,1.92 15.28,4.34 22.59,9.29 18.01,13 35.24,29.44 32.11,61.87 -5.04,52.04 -74.8,74.66 -115.55,40.56 -29.41,-24.61 -12.06,-50.92 -23.06,-68.31 -6.23,3.64 -8.68,4.96 -7.55,24.39 4.21,72.52 101.5,90.69 138.67,43.33 69.14,-88.09 -76.84,-155.19 -100.62,-104.98z"/>
  <path class="fil4" d="M182.15 137.65c-39.5,22.29 -4.2,66.53 30.11,50.96 34.02,-15.44 9.84,-73.5 -30.11,-50.96z"/>
  <path class="fil1" d="M182.15 137.65c39.94,-22.54 64.13,35.51 30.11,50.96 -34.3,15.57 -69.61,-28.67 -30.11,-50.96zm40.8 -8.16l-30.7 -6.41c-19.69,5.14 -34.85,13.43 -36.6,35.85 -3.74,47.78 63.7,56.07 79.54,18.75 11.34,-26.72 -6.54,-34.6 -12.25,-48.19z"/>
  <path class="fil5" d="M192.25 123.07l30.7 6.41 8.91 -7.98 0.98 -13.92c4.72,-5.54 -14.93,-11.16 -44.12,-12.24 -13.64,-2.17 1.04,1.27 -7.56,7.11l7.73 2.46c-0.15,2.26 -0.47,9.48 -0.31,10.4 3.13,18.6 -2.28,0.86 3.67,7.76z"/>
  <path class="fil1" d="M322.42 44.29c16.58,-3.33 44.15,-29.81 46.76,-44.29 -14.89,2.92 -43.13,29.41 -46.76,44.29z"/>
  <path class="fil1" d="M24.5 324.14c14.96,-1.7 42.13,-27 46.96,-43.86 -15.53,4.63 -44.96,30.8 -46.96,43.86z"/>
  <path class="fil1" d="M322.1 280.46c5.15,9.06 -2.16,4.27 9.01,15.34 9.68,9.59 25.58,26.26 37.7,28.99 -1.7,-17.07 -34.35,-40.55 -46.71,-44.33z"/>
  <path class="fil1" d="M24.22 0.72c7.24,16.36 -1.87,4.17 19.02,23.77 10.8,10.13 11.28,14.78 27.85,19.98 -4.57,-12.93 -34.76,-42.09 -46.87,-43.76z"/>
  <path class="fil1" d="M121.76 136.92c-3.95,19.06 -2.49,5.02 3.51,9.78l13.33 -21.86c-14.51,6.19 -6.89,1.11 -16.85,12.08z"/>
  <path class="fil1" d="M127.98 125.23c-3.96,19.06 -2.49,5.02 3.51,9.78l13.33 -21.86c-14.51,6.19 -6.89,1.11 -16.84,12.08z"/>
  <path class="fil1" d="M135.39 112.58c-6.69,18.37 -3.19,4.65 2.06,10.14l16.39 -19.94c-15.28,4.26 -6.99,0.21 -18.44,9.8z"/>
  <path class="fil1" d="M148.02 101.18c-8.65,17.63 -3.68,4.32 0.94,10.28l18.47 -18.26c-15.66,2.77 -6.98,-0.46 -19.41,7.97z"/>
 </g>
</svg>
