<?xml version="1.0" encoding="UTF-8"?>
<!DOCTYPE svg PUBLIC "-//W3C//DTD SVG 1.1//EN" "http://www.w3.org/Graphics/SVG/1.1/DTD/svg11.dtd">
<!-- Creator: CorelDRAW -->
<svg xmlns="http://www.w3.org/2000/svg" xml:space="preserve" width="100%" height="100%" version="1.1" style="shape-rendering:geometricPrecision; text-rendering:geometricPrecision; image-rendering:optimizeQuality; fill-rule:evenodd; clip-rule:evenodd"
viewBox="0 0 2911.16 2220.39"
 xmlns:xlink="http://www.w3.org/1999/xlink"
 xmlns:xodm="http://www.corel.com/coreldraw/odm/2003">
 <defs>
  <style type="text/css">
   <![CDATA[
    .fil0 {fill:#003399}
   ]]>
  </style>
 </defs>
 <g id="Layer_x0020_1">
  <metadata id="CorelCorpID_0Corel-Layer"/>
  <path class="fil0" d="M1025.26 1272.11c390.67,99.12 438.43,257.24 394.89,636.66l-524.95 6.08c-40.2,-252.08 -16.58,-502.51 130.06,-642.74zm-312.48 0.66c164.58,282.05 123.83,254.3 123.83,635.89l-536.82 7.66c-0,-151.84 -33.94,-372.62 56.72,-474.45 51.77,-58.15 271.09,-159.46 356.28,-169.1zm322.32 -87.69c27.16,-83.56 3.93,-32.2 81.72,-93.56 275,-216.92 15.01,-300.87 307.85,-300.87l-0.15 610.39c-72.3,-41.81 -121.39,-71.37 -200.67,-106.61 -37.56,-16.7 -66.03,-25.72 -101,-41.51 -80.13,-36.17 -45.29,-28.62 -87.75,-67.83zm-291.21 -14l236.11 8.14c-1.01,69.28 -72.66,183.7 -119.33,223.67 -55.11,-66.99 -111.64,-139.54 -116.78,-231.8zm-436.13 235.46l-8.52 -615.11c251.13,-2.17 84.45,28.94 224.7,215.91 54.36,72.47 145.35,115.47 164.78,177.75 -26.15,50.74 -317.72,169.63 -380.96,221.45zm191.98 -616.63c330.69,-9.94 455.54,-101.2 661.11,-233.27 343.68,504.81 -582.93,857.66 -661.11,233.27zm1.98 -51.35c30.39,-307.56 396.04,-463.22 611.42,-232.26l-115.26 96.31c-148.67,91.03 -313.71,130.17 -496.16,135.95zm-93.71 0.46c-209.76,0 -159.61,-66.31 -159.52,528.35 0.04,210.05 -18.22,490.15 3.48,691.15l1220.93 9.32 2.08 -1222.51c-354.37,-16.52 -97.31,-52.56 -312.73,-273.09 -191.38,-195.92 -573.59,-193.57 -704.17,186.53 -32.94,95.88 12.56,41.09 -50.06,80.25z"/>
  <path class="fil0" d="M75.27 2136.15c-45.79,-152.35 -20.13,-947.65 -20.13,-1177.32 0,-1298.09 7.29,-759.3 240.39,-925.63 -54.54,-55.36 -199.98,-34.3 -248.02,10.86 -54.84,51.54 -44.2,157.88 -43.75,256.39 1.3,285.08 -17.07,1757.12 17.32,1827.66 64.41,132.09 365.63,83.59 530.96,83.59l1851.75 0c620.75,-0 499.31,137.13 495.09,-1355.72 -0.48,-167.31 51.48,-472.69 -95.07,-523.04 -99.01,-34.01 -1034.55,-6.29 -1224.22,-10.17 -144.13,-2.95 -309.91,-135.48 -411.92,-205.61 -61.06,-41.99 -121.35,-91.13 -204.64,-106.75 -40.41,-7.57 -103.15,-10.11 -144.75,-9.39 -71.2,1.22 -89.46,3.31 -122.85,32.17 73.91,45.09 163.7,9.17 262.29,29.06 114.87,23.18 387.47,263.64 503.89,299.28 104.17,31.88 893.31,11.89 1065.64,11.69 383.14,-0.44 313.48,-94.35 323.6,750.16 1.57,131.06 25.95,967.49 -43.63,1019.05 -152.69,47.28 -2616.03,36.61 -2731.95,-6.28z"/>
  <path class="fil0" d="M1746.98 1280.53l830.13 1.5 0.43 191.6 -91.46 0.38 -658.41 0.26 -80.7 -1.53 0 -192.2zm-39.44 -48.28c-21.23,87.92 -26.77,207.82 5.8,293.02l912.15 -5.03 -5.81 -290.16 -912.14 2.18z"/>
  <path class="fil0" d="M1746.48 789.92l831.89 0.32 0 193.49 -92.28 0.41 -658.41 0.26 -81.2 -1.57 0 -192.91zm-35.9 242.25l906.89 2.28 9.05 -289.26 -916 -6.2c-27.09,88.13 -27.05,207.75 0.06,293.19z"/>
 </g>
</svg>
