<?xml version="1.0" encoding="UTF-8"?>
<!DOCTYPE svg PUBLIC "-//W3C//DTD SVG 1.1//EN" "http://www.w3.org/Graphics/SVG/1.1/DTD/svg11.dtd">
<!-- Creator: CorelDRAW -->
<svg xmlns="http://www.w3.org/2000/svg" xml:space="preserve" width="100%" height="100%" version="1.1" style="shape-rendering:geometricPrecision; text-rendering:geometricPrecision; image-rendering:optimizeQuality; fill-rule:evenodd; clip-rule:evenodd"
viewBox="0 0 408.56 307.06"
 xmlns:xlink="http://www.w3.org/1999/xlink"
 xmlns:xodm="http://www.corel.com/coreldraw/odm/2003">
 <defs>
  <style type="text/css">
   <![CDATA[
    .fil0 {fill:#404E57}
    .fil1 {fill:#63B4F5}
    .fil2 {fill:#ED5250}
   ]]>
  </style>
 </defs>
 <g id="Layer_x0020_1">
  <metadata id="CorelCorpID_0Corel-Layer"/>
  <path class="fil0" d="M31.83 254.33l-15.97 -14.49c3.56,-15.28 13.07,-21.41 21.85,-29.26 7.75,5.64 17.91,13.86 21.8,24.5 -11.19,8.79 -10.12,14.33 -27.67,19.25zm103.78 -139.8c4.55,-9.69 71.37,-71.37 88.54,-90.3 6.53,-7.2 18.65,-26 33.28,-13.11 17.26,15.2 -4.44,29.7 -11.96,37.19 -18.39,18.3 -76.05,78.92 -89.02,86.95l-20.83 -20.72zm18.87 -37.96c0.76,-11.01 5.02,-11.9 12.77,-19.52 8.86,-8.71 33.37,-38.78 43.38,-39.29l3.75 1.46c1.39,6.28 -5.44,10.21 -11.62,16.33 -10.37,10.27 -34.63,41.32 -48.28,41.02zm-55.11 67.56c13.59,-3.95 17.61,-17.24 30.59,-24.14l21.01 22.59 -82.81 83.1c-10.09,-3.76 -18.23,-12.68 -23.06,-21.49 7.11,-10.35 16.38,-12.85 18.6,-25.78 1.23,-4.72 16.52,-30.2 21.01,-38.17 23.18,-41.1 22.16,-14.18 33.1,-30.83 -24.61,-10.66 -37.71,25.18 -45.1,37.89 -5.93,10.21 -11.27,18.99 -16.99,29.19 -7.7,13.72 -10.37,20.65 -27.54,15.17 -5.52,-18.89 20.19,-51.9 35.04,-78.33 24.83,-44.18 49.45,-20.44 76.96,-42.24 -3.42,-3.01 6.53,-7.06 -24.86,2 -9.56,2.76 -17.76,4.58 -27.59,7.76 -26.01,8.4 -39.19,45.46 -59.47,79.06 -17.15,28.42 -7.83,29.87 4,41.83l2.92 3.5c-21.19,15.11 -36.98,45.5 -35.02,65.85 49.28,-2.75 65.17,-40.68 83.29,-50.33 14.6,20.93 16.27,15.98 46.19,15.93 38.46,-0.07 83.56,4.46 114.49,-10.35 10.8,-5.17 31.09,-16.63 34.76,-27.38 -20.12,2.36 -30.64,29.42 -78.56,30.91 -23.38,0.73 -89.77,2.9 -106.77,-3.12 -9.95,-37.12 38.43,-15.3 64.2,-24.38 10.02,-3.53 19.34,-13.47 21.93,-24.3 2.69,-11.24 3.15,-32.87 -1.13,-42.21 -22.77,15.21 33.28,68.69 -72.18,61.46l103.89 -105.42c18.04,-17.94 35.78,-34.52 53.08,-52.93 21.45,-22.83 -12.91,-59.76 -37.67,-24.08 -23.42,-4.98 -10.9,-13.81 -48.99,24.46 -6.47,6.5 -28.37,25.85 -29.13,32.38 -1.31,11.26 2.06,-0.38 4.81,16.66 -8.96,5.89 -50.36,45.01 -52.98,55.78z"/>
  <polygon class="fil1" points="407.34,236.99 406.61,87.5 343.55,89.14 344.06,235.64 "/>
  <path class="fil1" d="M292.33 109.1l0 105.94c0,20.7 4.15,20.75 24.81,20.75 17.7,0 19.45,-3.69 19.45,-20.75 0,-36.77 2.3,-88.21 -2.21,-123.07l-22.68 -3c-17.04,0 -19.37,3.52 -19.37,20.13z"/>
  <path class="fil2" d="M135.61 114.53l20.83 20.72c12.97,-8.03 70.63,-68.65 89.02,-86.95 7.52,-7.49 29.22,-21.98 11.96,-37.19 -14.63,-12.88 -26.74,5.91 -33.28,13.11 -17.17,18.93 -83.98,80.61 -88.54,90.3z"/>
  <path class="fil2" d="M99.38 144.13l-8.05 7.86c-2.67,9.77 -9.52,16.55 -19.16,19.28l-8.46 7.12c-2.22,12.93 -11.49,15.43 -18.6,25.78 4.83,8.81 12.98,17.73 23.06,21.49l82.81 -83.1 -21.01 -22.59c-12.99,6.91 -17,20.19 -30.59,24.14z"/>
  <path class="fil0" d="M292.33 109.1c0,-16.61 2.34,-20.13 19.37,-20.13l22.68 3c4.51,34.86 2.21,86.3 2.21,123.07 0,17.06 -1.76,20.75 -19.45,20.75 -20.67,0 -24.81,-0.05 -24.81,-20.75l0 -105.94zm115.01 127.89l-63.28 -1.35 -0.51 -146.5 63.06 -1.64c3.2,-2.19 1.39,0.35 1.78,-4.26 -21.84,-3.72 -52.95,-0.45 -72.91,0.4 -17.13,0.73 -48.75,-11.82 -50.13,22.64l-0.02 106.18c0.08,33.43 13.93,32.39 44.44,28.89 3.3,-0.38 48.31,3.53 77.03,0.85l0.53 -5.21z"/>
  <path class="fil0" d="M34.98 275.56l90.74 1.93c-12.11,7.83 -42.42,15.41 -47.5,27.18 7.91,1.39 123.06,5.82 133.89,-2.7l-4.3 -1.76c-3.71,-0.85 -2.93,-0.92 -7.38,-1.28l-98.15 -0.13c5.98,-5.32 14.67,-8.43 22.87,-12.17 28.64,-13.08 20.11,-5.89 22.67,-14.54l-102.6 -2.03c-17.47,1.63 -4.28,1.76 -10.22,5.5z"/>
  <path class="fil0" d="M278.76 98.23c-7.5,-8.15 -31.05,-21.59 -44.89,-21.05 2.23,8.09 19.69,14.54 32.57,20.37 8.9,4.03 5.96,4.59 12.32,0.68z"/>
  <path class="fil0" d="M72.17 171.27c9.65,-2.74 16.49,-9.52 19.16,-19.28 -7.14,1.88 -7.78,3.64 -11.93,7.42 -7.39,6.74 -6.27,1.94 -7.23,11.86z"/>
 </g>
</svg>
